<?xml version="1.0" encoding="UTF-8"?>
<svg color="var(--token-c8809533-d74e-4474-af14-ef3a211efd13, rgb(20, 20, 20))" display="inline-block" fill="var(--token-c8809533-d74e-4474-af14-ef3a211efd13, rgb(20, 20, 20))" style="flex-shrink:0;height:100%;user-select:none;width:100%" focusable="false" viewBox="0 0 256 256" xmlns="http://www.w3.org/2000/svg">
<g color="var(--token-c8809533-d74e-4474-af14-ef3a211efd13, rgb(20, 20, 20))" weight="fill">
<path d="M208,32H48A16,16,0,0,0,32,48V208a16,16,0,0,0,16,16H208a16,16,0,0,0,16-16V48A16,16,0,0,0,208,32ZM117.66,149.66l-32,32a8,8,0,0,1-11.32,0l-16-16a8,8,0,0,1,11.32-11.32L80,164.69l26.34-26.35a8,8,0,0,1,11.32,11.32Zm0-64-32,32a8,8,0,0,1-11.32,0l-16-16A8,8,0,0,1,69.66,90.34L80,100.69l26.34-26.35a8,8,0,0,1,11.32,11.32ZM192,168H144a8,8,0,0,1,0-16h48a8,8,0,0,1,0,16Zm0-64H144a8,8,0,0,1,0-16h48a8,8,0,0,1,0,16Z"/>
</g>
</svg>
