<svg width="40" height="40" viewBox="0 0 40 40" fill="none" xmlns="http://www.w3.org/2000/svg">
<rect width="40" height="40" rx="8" fill="#FD6098"/>
<path d="M12 28C12 25.5 14 23.5 16.5 23.5H19.1" stroke="white" stroke-width="1.5" stroke-linecap="round" stroke-linejoin="round"/>
<path d="M23 13.2C24.7 14.9 24.7 17.6 23 19.2C21.3 20.8 18.6 20.9 17 19.2C15.4 17.5 15.3 14.8 17 13.2C18.7 11.6 21.3 11.6 23 13.2" stroke="white" stroke-width="1.5" stroke-linecap="round" stroke-linejoin="round"/>
<path d="M26.4 23.8C27.4 24.8 27.4 26.4 26.4 27.4C25.4 28.4 23.8 28.4 22.8 27.4C21.8 26.4 21.8 24.8 22.8 23.8C23.8 22.8 25.4 22.8 26.4 23.8" stroke="white" stroke-width="1.5" stroke-linecap="round" stroke-linejoin="round"/>
<path d="M27.9999 29L26.3999 27.4" stroke="white" stroke-width="1.5" stroke-linecap="round" stroke-linejoin="round"/>
</svg>
