<svg width="110" height="25" viewBox="0 0 110 25" fill="none" xmlns="http://www.w3.org/2000/svg">
<g clip-path="url(#clip0_84_80)">
<path fill-rule="evenodd" clip-rule="evenodd" d="M7.86885 2.45902H9.34426V3.93443C9.34426 6.9222 6.9222 9.34426 3.93443 9.34426H2.45902V7.86885C2.45902 4.88108 4.88108 2.45902 7.86885 2.45902ZM11.8033 0V3.93443C11.8033 8.28027 8.28027 11.8033 3.93443 11.8033H0V7.86885C0 3.52301 3.52301 0 7.86885 0H11.8033ZM2.45902 15.2459H3.93443C6.9222 15.2459 9.34426 17.668 9.34426 20.6557V22.1311H7.86885C4.88108 22.1311 2.45902 19.7091 2.45902 16.7213V15.2459ZM0 16.7213V12.7869H3.93443C8.28027 12.7869 11.8033 16.3099 11.8033 20.6557V24.5902H7.86885C3.52301 24.5902 0 21.0672 0 16.7213ZM22.1311 15.2459H20.6557C17.668 15.2459 15.2459 17.668 15.2459 20.6557V22.1311H16.7213C19.7091 22.1311 22.1311 19.7091 22.1311 16.7213V15.2459ZM24.5902 16.7213V12.7869H20.6557C16.3099 12.7869 12.7869 16.3099 12.7869 20.6557V24.5902H16.7213C21.0672 24.5902 24.5902 21.0672 24.5902 16.7213ZM15.2459 2.45902H16.7213C19.7091 2.45902 22.1311 4.88108 22.1311 7.86885V9.34426H20.6557C17.668 9.34426 15.2459 6.9222 15.2459 3.93443V2.45902ZM12.7869 3.93443V0H16.7213C21.0672 0 24.5902 3.52301 24.5902 7.86885V11.8033H20.6557C16.3099 11.8033 12.7869 8.28027 12.7869 3.93443Z" fill="#A6FF79"/>
<path d="M103.007 21.1391C101.855 21.1391 100.815 20.8751 99.887 20.3471C98.975 19.8031 98.255 19.0591 97.727 18.1151C97.215 17.1551 96.959 16.0591 96.959 14.8271C96.959 13.5631 97.223 12.4591 97.751 11.5151C98.279 10.5551 98.999 9.81107 99.911 9.28307C100.839 8.73907 101.879 8.46707 103.031 8.46707C104.183 8.46707 105.215 8.73907 106.127 9.28307C107.055 9.81107 107.775 10.5471 108.287 11.4911C108.815 12.4351 109.079 13.5391 109.079 14.8031C109.079 16.0671 108.815 17.1711 108.287 18.1151C107.759 19.0591 107.031 19.8031 106.103 20.3471C105.191 20.8751 104.159 21.1391 103.007 21.1391ZM103.007 18.6671C103.583 18.6671 104.103 18.5231 104.567 18.2351C105.047 17.9471 105.431 17.5151 105.719 16.9391C106.007 16.3631 106.151 15.6511 106.151 14.8031C106.151 13.9551 106.007 13.2511 105.719 12.6911C105.447 12.1151 105.071 11.6831 104.591 11.3951C104.127 11.1071 103.607 10.9631 103.031 10.9631C102.471 10.9631 101.951 11.1071 101.471 11.3951C100.991 11.6831 100.607 12.1151 100.319 12.6911C100.031 13.2511 99.887 13.9551 99.887 14.8031C99.887 15.6511 100.031 16.3631 100.319 16.9391C100.607 17.5151 100.983 17.9471 101.447 18.2351C101.927 18.5231 102.447 18.6671 103.007 18.6671Z" fill="white"/>
<path d="M93.0789 20.8511V8.75508H95.9589V20.8511H93.0789ZM94.5189 6.83508C93.9909 6.83508 93.5509 6.67508 93.1989 6.35508C92.8629 6.01908 92.6949 5.61108 92.6949 5.13108C92.6949 4.63508 92.8629 4.23508 93.1989 3.93108C93.5509 3.61108 93.9909 3.45108 94.5189 3.45108C95.0469 3.45108 95.4789 3.61108 95.8149 3.93108C96.1669 4.23508 96.3429 4.63508 96.3429 5.13108C96.3429 5.61108 96.1669 6.01908 95.8149 6.35508C95.4789 6.67508 95.0469 6.83508 94.5189 6.83508Z" fill="white"/>
<path d="M78.0133 20.8511L74.4613 8.75507H77.3173L79.7893 18.6911L79.2613 18.6671L82.0213 8.75507H85.2373L88.0213 18.6671H87.4933L89.9653 8.75507H92.8213L89.2693 20.8511H86.2933L83.3413 10.6031H83.9413L80.9893 20.8511H78.0133Z" fill="white"/>
<path d="M69.4629 21.1391C68.2629 21.1391 67.2069 20.8831 66.2949 20.3711C65.3829 19.8431 64.6709 19.1071 64.1589 18.1631C63.6469 17.2191 63.3909 16.1311 63.3909 14.8991C63.3909 13.6191 63.6389 12.4991 64.1349 11.5391C64.6469 10.5791 65.3589 9.82707 66.2709 9.28307C67.1989 8.73907 68.2709 8.46707 69.4869 8.46707C70.6709 8.46707 71.7029 8.73107 72.5829 9.25907C73.4629 9.78707 74.1429 10.4991 74.6229 11.3951C75.1029 12.2751 75.3429 13.2671 75.3429 14.3711C75.3429 14.5311 75.3429 14.7071 75.3429 14.8991C75.3429 15.0911 75.3269 15.2911 75.2949 15.4991H65.4549V13.6511H72.4389C72.4069 12.7711 72.1109 12.0831 71.5509 11.5871C70.9909 11.0751 70.2949 10.8191 69.4629 10.8191C68.8709 10.8191 68.3269 10.9551 67.8309 11.2271C67.3349 11.4991 66.9429 11.9071 66.6549 12.4511C66.3669 12.9791 66.2229 13.6511 66.2229 14.4671V15.1631C66.2229 15.9151 66.3589 16.5631 66.6309 17.1071C66.9189 17.6511 67.3029 18.0671 67.7829 18.3551C68.2789 18.6271 68.8309 18.7631 69.4389 18.7631C70.1109 18.7631 70.6629 18.6191 71.0949 18.3311C71.5429 18.0431 71.8709 17.6591 72.0789 17.1791H75.0069C74.7829 17.9311 74.4149 18.6111 73.9029 19.2191C73.3909 19.8111 72.7589 20.2831 72.0069 20.6351C71.2549 20.9711 70.4069 21.1391 69.4629 21.1391Z" fill="white"/>
<path d="M51.2345 20.8511V8.75507H53.7785L53.9945 10.7711C54.3625 10.0671 54.8905 9.50707 55.5785 9.09107C56.2665 8.67507 57.0825 8.46707 58.0265 8.46707C59.0025 8.46707 59.8345 8.67507 60.5225 9.09107C61.2105 9.49107 61.7385 10.0831 62.1065 10.8671C62.4905 11.6511 62.6825 12.6271 62.6825 13.7951V20.8511H59.8025V14.0591C59.8025 13.0511 59.5785 12.2751 59.1305 11.7311C58.6825 11.1871 58.0185 10.9151 57.1385 10.9151C56.5625 10.9151 56.0425 11.0511 55.5785 11.3231C55.1305 11.5951 54.7705 11.9951 54.4985 12.5231C54.2425 13.0351 54.1145 13.6591 54.1145 14.3951V20.8511H51.2345Z" fill="white"/>
<path d="M44.6154 21.1391C43.4154 21.1391 42.3594 20.8831 41.4474 20.3711C40.5354 19.8431 39.8234 19.1071 39.3114 18.1631C38.7994 17.2191 38.5434 16.1311 38.5434 14.8991C38.5434 13.6191 38.7914 12.4991 39.2874 11.5391C39.7994 10.5791 40.5114 9.82707 41.4234 9.28307C42.3514 8.73907 43.4234 8.46707 44.6394 8.46707C45.8234 8.46707 46.8554 8.73107 47.7354 9.25907C48.6154 9.78707 49.2954 10.4991 49.7754 11.3951C50.2554 12.2751 50.4954 13.2671 50.4954 14.3711C50.4954 14.5311 50.4954 14.7071 50.4954 14.8991C50.4954 15.0911 50.4794 15.2911 50.4474 15.4991H40.6074V13.6511H47.5914C47.5594 12.7711 47.2634 12.0831 46.7034 11.5871C46.1434 11.0751 45.4474 10.8191 44.6154 10.8191C44.0234 10.8191 43.4794 10.9551 42.9834 11.2271C42.4874 11.4991 42.0954 11.9071 41.8074 12.4511C41.5194 12.9791 41.3754 13.6511 41.3754 14.4671V15.1631C41.3754 15.9151 41.5114 16.5631 41.7834 17.1071C42.0714 17.6511 42.4554 18.0671 42.9354 18.3551C43.4314 18.6271 43.9834 18.7631 44.5914 18.7631C45.2634 18.7631 45.8154 18.6191 46.2474 18.3311C46.6954 18.0431 47.0234 17.6591 47.2314 17.1791H50.1594C49.9354 17.9311 49.5674 18.6111 49.0554 19.2191C48.5434 19.8111 47.9114 20.2831 47.1594 20.6351C46.4074 20.9711 45.5594 21.1391 44.6154 21.1391Z" fill="white"/>
<path d="M31.5902 20.8511V8.75507H34.1582L34.4222 11.0111C34.7102 10.4831 35.0702 10.0351 35.5022 9.66707C35.9342 9.28307 36.4382 8.98707 37.0142 8.77907C37.6062 8.57107 38.2542 8.46707 38.9582 8.46707V11.5151H37.9502C37.4702 11.5151 37.0142 11.5791 36.5822 11.7071C36.1502 11.8191 35.7742 12.0111 35.4542 12.2831C35.1502 12.5391 34.9102 12.8991 34.7342 13.3631C34.5582 13.8111 34.4702 14.3791 34.4702 15.0671V20.8511H31.5902Z" fill="white"/>
</g>
<defs>
<clipPath id="clip0_84_80">
<rect width="109.079" height="24.5902" fill="white"/>
</clipPath>
</defs>
</svg>
