<svg xmlns:xlink="http://www.w3.org/1999/xlink" xmlns="http://www.w3.org/2000/svg" width="32" height="32" viewBox="0 0 46 46" fill="none">
<path fill-rule="evenodd" clip-rule="evenodd" d="M14.72 4.6H17.48V7.36C17.48 12.9491 12.9491 17.48 7.36 17.48H4.6V14.72C4.6 9.13088 9.13088 4.6 14.72 4.6ZM22.08 0V7.36C22.08 15.4896 15.4896 22.08 7.36 22.08H0V14.72C0 6.59037 6.59037 0 14.72 0H22.08ZM4.6 28.52H7.36C12.9491 28.52 17.48 33.0509 17.48 38.64V41.4H14.72C9.13088 41.4 4.6 36.8691 4.6 31.28V28.52ZM0 31.28V23.92H7.36C15.4896 23.92 22.08 30.5104 22.08 38.64V46H14.72C6.59037 46 0 39.4096 0 31.28ZM41.4 28.52H38.64C33.0509 28.52 28.52 33.0509 28.52 38.64V41.4H31.28C36.8691 41.4 41.4 36.8691 41.4 31.28V28.52ZM46 31.28V23.92H38.64C30.5104 23.92 23.92 30.5104 23.92 38.64V46H31.28C39.4096 46 46 39.4096 46 31.28ZM28.52 4.6H31.28C36.8691 4.6 41.4 9.13088 41.4 14.72V17.48H38.64C33.0509 17.48 28.52 12.9491 28.52 7.36V4.6ZM23.92 7.36V0H31.28C39.4096 0 46 6.59037 46 14.72V22.08H38.64C30.5104 22.08 23.92 15.4896 23.92 7.36Z" fill="#2B5254"></path>
</svg>