<?xml version="1.0" encoding="UTF-8"?>
<svg xmlns="http://www.w3.org/2000/svg" xmlns:xlink="http://www.w3.org/1999/xlink" width="48px" height="48px" viewBox="0 0 48 48" version="1.1">
<g id="surface1">
<path style=" stroke:none;fill-rule:nonzero;fill:rgb(94.509804%,56.862748%,26.274511%);fill-opacity:1;" d="M 15.242188 4.484375 L 16.019531 4.484375 L 16.449219 4.480469 C 16.917969 4.480469 17.386719 4.476562 17.855469 4.476562 L 18.34375 4.476562 C 19.105469 4.476562 19.867188 4.472656 20.625 4.472656 C 21.503906 4.472656 22.378906 4.46875 23.253906 4.464844 C 23.933594 4.460938 24.613281 4.460938 25.292969 4.460938 C 25.695312 4.460938 26.101562 4.460938 26.507812 4.457031 C 26.886719 4.457031 27.269531 4.453125 27.648438 4.457031 C 27.789062 4.457031 27.929688 4.457031 28.066406 4.453125 C 29.890625 4.4375 31.261719 5.035156 32.5625 6.289062 C 32.707031 6.429688 32.847656 6.570312 32.992188 6.714844 L 33.230469 6.949219 C 33.484375 7.207031 33.742188 7.460938 34 7.71875 L 34.269531 7.984375 C 34.734375 8.449219 35.203125 8.917969 35.667969 9.382812 C 36.101562 9.816406 36.535156 10.246094 36.96875 10.679688 C 37.34375 11.050781 37.71875 11.425781 38.089844 11.796875 C 38.3125 12.019531 38.535156 12.242188 38.757812 12.464844 C 39.007812 12.710938 39.253906 12.957031 39.503906 13.207031 L 39.722656 13.425781 C 40.382812 14.089844 40.914062 14.847656 41.238281 15.730469 L 41.347656 16.027344 C 41.511719 16.558594 41.546875 17.070312 41.546875 17.621094 L 41.546875 17.84375 C 41.546875 18.089844 41.546875 18.332031 41.546875 18.578125 L 41.550781 19.105469 C 41.550781 19.6875 41.554688 20.265625 41.554688 20.84375 L 41.554688 21.441406 C 41.554688 22.382812 41.558594 23.320312 41.558594 24.261719 C 41.558594 25.339844 41.5625 26.421875 41.566406 27.503906 C 41.570312 28.339844 41.570312 29.179688 41.570312 30.015625 C 41.570312 30.515625 41.570312 31.015625 41.574219 31.511719 C 41.574219 31.984375 41.578125 32.453125 41.574219 32.925781 C 41.574219 33.097656 41.574219 33.269531 41.578125 33.4375 C 41.589844 35.21875 41.316406 36.847656 40.5 38.4375 L 40.351562 38.734375 C 39.210938 40.839844 37.179688 42.445312 34.90625 43.15625 C 33.761719 43.480469 32.710938 43.542969 31.53125 43.539062 L 30.984375 43.539062 C 30.492188 43.542969 30 43.542969 29.507812 43.539062 C 29.097656 43.539062 28.683594 43.542969 28.273438 43.542969 C 27.300781 43.542969 26.324219 43.542969 25.351562 43.542969 C 24.351562 43.539062 23.351562 43.542969 22.351562 43.542969 C 21.488281 43.546875 20.628906 43.546875 19.765625 43.546875 C 19.253906 43.546875 18.738281 43.546875 18.226562 43.546875 C 17.742188 43.550781 17.257812 43.550781 16.777344 43.546875 C 16.601562 43.546875 16.425781 43.546875 16.25 43.546875 C 14.839844 43.554688 13.511719 43.386719 12.207031 42.820312 L 12.007812 42.734375 C 11.394531 42.464844 10.847656 42.125 10.3125 41.71875 L 10.042969 41.515625 C 8.125 40.011719 6.902344 37.839844 6.507812 35.433594 C 6.417969 34.601562 6.441406 33.761719 6.441406 32.925781 L 6.441406 32.28125 C 6.441406 31.695312 6.441406 31.113281 6.441406 30.53125 C 6.441406 30.042969 6.441406 29.554688 6.441406 29.066406 C 6.4375 27.847656 6.4375 26.628906 6.4375 25.410156 C 6.441406 24.355469 6.4375 23.300781 6.4375 22.246094 C 6.433594 21.160156 6.433594 20.070312 6.433594 18.984375 C 6.433594 18.375 6.433594 17.769531 6.433594 17.160156 C 6.433594 16.585938 6.433594 16.011719 6.433594 15.441406 C 6.433594 15.230469 6.433594 15.023438 6.433594 14.8125 C 6.421875 12.183594 6.949219 9.820312 8.71875 7.78125 L 8.90625 7.550781 C 10.398438 5.765625 12.902344 4.496094 15.242188 4.484375 M 11.25 9.5625 C 9.777344 11.289062 9.503906 13.066406 9.515625 15.257812 C 9.511719 15.472656 9.511719 15.683594 9.511719 15.894531 C 9.511719 16.46875 9.511719 17.039062 9.511719 17.613281 C 9.511719 18.214844 9.511719 18.816406 9.511719 19.417969 C 9.511719 20.492188 9.511719 21.566406 9.515625 22.640625 C 9.515625 23.609375 9.515625 24.582031 9.511719 25.554688 C 9.511719 26.683594 9.511719 27.816406 9.511719 28.949219 C 9.511719 29.546875 9.511719 30.144531 9.511719 30.742188 C 9.511719 31.304688 9.511719 31.867188 9.511719 32.425781 C 9.515625 32.632812 9.511719 32.839844 9.511719 33.042969 C 9.503906 35.199219 9.929688 37.085938 11.480469 38.675781 C 13.191406 40.300781 15.273438 40.515625 17.511719 40.511719 L 17.984375 40.515625 C 18.40625 40.515625 18.828125 40.515625 19.25 40.515625 C 19.515625 40.515625 19.78125 40.515625 20.046875 40.515625 C 20.972656 40.515625 21.902344 40.515625 22.828125 40.515625 C 23.6875 40.515625 24.546875 40.519531 25.410156 40.519531 C 26.152344 40.519531 26.890625 40.523438 27.632812 40.519531 C 28.074219 40.519531 28.515625 40.523438 28.960938 40.523438 C 29.375 40.523438 29.789062 40.523438 30.207031 40.523438 C 30.359375 40.523438 30.507812 40.523438 30.660156 40.523438 C 33 40.53125 35.007812 40.121094 36.75 38.4375 C 38.144531 36.875 38.484375 35.164062 38.46875 33.144531 C 38.46875 32.972656 38.46875 32.800781 38.46875 32.632812 C 38.46875 32.171875 38.46875 31.710938 38.464844 31.25 C 38.464844 30.765625 38.464844 30.285156 38.464844 29.800781 C 38.460938 28.886719 38.460938 27.976562 38.457031 27.0625 C 38.453125 26.023438 38.453125 24.984375 38.453125 23.945312 C 38.449219 21.804688 38.445312 19.667969 38.4375 17.53125 L 38.246094 17.53125 C 37.589844 17.527344 36.929688 17.519531 36.273438 17.511719 C 36.027344 17.507812 35.78125 17.507812 35.535156 17.503906 C 33.46875 17.492188 31.671875 17.417969 30.074219 15.929688 C 28.953125 14.730469 28.570312 13.375 28.558594 11.773438 L 28.554688 11.410156 C 28.550781 11.09375 28.546875 10.78125 28.542969 10.464844 C 28.539062 10.019531 28.535156 9.570312 28.527344 9.125 C 28.523438 8.890625 28.523438 8.652344 28.519531 8.414062 L 28.515625 8.089844 L 28.511719 7.804688 C 28.523438 7.597656 28.523438 7.597656 28.40625 7.5 C 28.25 7.492188 28.089844 7.488281 27.933594 7.488281 L 27.621094 7.484375 L 27.273438 7.488281 L 26.914062 7.484375 C 26.585938 7.484375 26.257812 7.484375 25.929688 7.484375 L 25.3125 7.484375 C 24.59375 7.484375 23.875 7.484375 23.15625 7.484375 C 22.488281 7.484375 21.820312 7.480469 21.152344 7.480469 C 20.578125 7.480469 20.003906 7.476562 19.429688 7.480469 C 19.085938 7.480469 18.746094 7.476562 18.402344 7.476562 C 15.761719 7.46875 13.203125 7.492188 11.25 9.5625 M 31.5 9.75 C 31.496094 10.105469 31.492188 10.460938 31.488281 10.816406 L 31.484375 11.117188 C 31.476562 12.117188 31.539062 13.023438 32.25 13.78125 C 32.847656 14.226562 33.34375 14.449219 34.089844 14.445312 L 34.460938 14.445312 L 34.847656 14.441406 C 34.976562 14.441406 35.105469 14.441406 35.234375 14.441406 C 35.550781 14.441406 35.871094 14.4375 36.1875 14.4375 C 35.71875 13.871094 35.210938 13.355469 34.691406 12.835938 L 34.421875 12.566406 C 34.238281 12.382812 34.050781 12.195312 33.867188 12.007812 C 33.625 11.769531 33.386719 11.53125 33.148438 11.292969 C 32.964844 11.109375 32.78125 10.925781 32.597656 10.742188 C 32.464844 10.609375 32.335938 10.480469 32.203125 10.347656 L 31.753906 9.898438 C 31.617188 9.738281 31.617188 9.738281 31.5 9.75 "/>
<path style=" stroke:none;fill-rule:nonzero;fill:rgb(94.509804%,56.862748%,26.274511%);fill-opacity:1;" d="M 23.988281 18.421875 L 24.210938 18.414062 C 25.019531 18.585938 25.605469 19.28125 26.164062 19.84375 L 26.429688 20.109375 C 26.613281 20.292969 26.796875 20.480469 26.980469 20.664062 C 27.21875 20.902344 27.453125 21.136719 27.6875 21.371094 C 27.914062 21.59375 28.140625 21.820312 28.367188 22.046875 L 28.621094 22.300781 L 28.859375 22.542969 L 29.066406 22.75 C 29.457031 23.21875 29.589844 23.636719 29.570312 24.230469 C 29.488281 24.722656 29.242188 25.085938 28.847656 25.378906 C 28.554688 25.519531 28.359375 25.539062 28.039062 25.542969 L 27.753906 25.546875 C 27.101562 25.441406 26.65625 24.898438 26.214844 24.445312 L 26.03125 24.261719 C 25.886719 24.113281 25.738281 23.960938 25.59375 23.8125 L 25.59375 24.066406 C 25.589844 24.851562 25.582031 25.636719 25.578125 26.421875 C 25.574219 26.828125 25.570312 27.230469 25.566406 27.636719 C 25.566406 28.027344 25.5625 28.417969 25.558594 28.808594 C 25.558594 28.957031 25.558594 29.105469 25.558594 29.253906 C 25.558594 29.460938 25.554688 29.671875 25.550781 29.878906 L 25.546875 30.238281 C 25.476562 30.726562 25.242188 31.011719 24.890625 31.347656 C 24.40625 31.574219 23.960938 31.570312 23.4375 31.5 C 22.972656 31.285156 22.75 31.003906 22.5 30.5625 C 22.453125 30.238281 22.453125 30.238281 22.449219 29.878906 L 22.445312 29.679688 C 22.441406 29.464844 22.441406 29.246094 22.441406 29.03125 C 22.441406 28.878906 22.441406 28.730469 22.4375 28.578125 C 22.433594 28.183594 22.433594 27.789062 22.429688 27.394531 C 22.429688 26.992188 22.425781 26.585938 22.421875 26.183594 C 22.414062 25.394531 22.410156 24.601562 22.40625 23.8125 L 22.273438 23.945312 C 22.078125 24.148438 21.878906 24.351562 21.679688 24.550781 L 21.472656 24.761719 L 21.269531 24.964844 L 21.085938 25.152344 C 20.652344 25.539062 20.25 25.546875 19.6875 25.535156 C 19.273438 25.484375 19.027344 25.335938 18.75 25.03125 C 18.460938 24.632812 18.433594 24.265625 18.414062 23.789062 C 18.585938 22.980469 19.28125 22.394531 19.84375 21.835938 L 20.109375 21.570312 C 20.292969 21.386719 20.480469 21.203125 20.664062 21.019531 C 20.902344 20.78125 21.136719 20.546875 21.371094 20.3125 C 21.59375 20.085938 21.820312 19.859375 22.046875 19.632812 L 22.300781 19.378906 L 22.542969 19.140625 L 22.75 18.933594 C 23.125 18.621094 23.5 18.429688 23.988281 18.421875 "/>
</g>
</svg>
