<svg xmlns="http://www.w3.org/2000/svg" width="26" height="26" fill="none" aria-label="Follow ClickUp on Instagram" class="CuBottomNavigation_icon__ZwoJn"><path fill="var(--color-icon, #0D1530)" fill-rule="evenodd" d="M17.854.14c-2.3-.108-7.997-.103-10.299 0C5.533.233 3.748.721 2.31 2.16.158 4.313.178 7.134.206 11.107q.006.7.007 1.45-.001.7-.005 1.356C.185 18.019.17 20.81 2.31 22.95c2.155 2.155 5.006 2.133 8.935 2.104q.705-.006 1.46-.007h.067c4.764 0 6.42 0 8.114-.656 2.316-.9 4.064-2.969 4.235-6.687.108-2.3.102-7.996 0-10.298-.206-4.389-2.562-7.05-7.267-7.267zm3.774 5.873a1.786 1.786 0 1 1-3.571 0 1.786 1.786 0 0 1 3.571 0M12.7 17.322a4.762 4.762 0 1 0 0-9.524 4.762 4.762 0 0 0 0 9.524" clip-rule="evenodd"></path></svg>