<svg width="40" height="40" viewBox="0 0 40 40" fill="none" xmlns="http://www.w3.org/2000/svg">
<rect width="40" height="40" rx="8" fill="#59AFFF"/>
<path d="M22.0408 17.9591L19.5298 20.4702" stroke="white" stroke-width="1.5" stroke-linecap="round" stroke-linejoin="round"/>
<path fill-rule="evenodd" clip-rule="evenodd" d="M22.0009 13.9975V17.9992H26.0025L30.0042 13.9975L27.3361 12.664L26.0025 9.99585L22.0009 13.9975Z" stroke="white" stroke-width="1.5" stroke-linecap="round" stroke-linejoin="round"/>
<path d="M18.9996 11.9717C14.4361 12.2518 10.9064 16.0826 11 20.6537C11.0936 25.2248 14.7771 28.9079 19.3482 29.001C23.9194 29.0941 27.7498 25.564 28.0294 21.0004" stroke="white" stroke-width="1.5" stroke-linecap="round" stroke-linejoin="round"/>
<path d="M24.2117 21.0004C23.9427 23.4635 21.8174 25.3009 19.3413 25.2111C16.8652 25.1213 14.8786 23.1347 14.7888 20.6586C14.699 18.1825 16.5364 16.0572 18.9995 15.7882" stroke="white" stroke-width="1.5" stroke-linecap="round" stroke-linejoin="round"/>
</svg>
