<svg width="40" height="40" viewBox="0 0 40 40" fill="none" xmlns="http://www.w3.org/2000/svg">
<rect width="40" height="40" rx="8" fill="#FF7E55"/>
<path d="M23.0013 16.6238V16.9989C23.0013 18.6565 21.6576 20.0002 20 20.0002V20.0002C18.3425 20.0002 16.9988 18.6565 16.9988 16.9989V16.6238" stroke="white" stroke-width="1.5" stroke-linecap="round" stroke-linejoin="round"/>
<path d="M23.0013 16.6237V16.9988C23.0013 18.6564 24.345 20.0001 26.0026 20.0001H26.2509C27.7713 20.0001 29.0038 18.7676 29.0038 17.2472V17.2472C29.0038 16.8392 28.893 16.4389 28.6831 16.0891L26.2831 12.0892C25.8763 11.4112 25.1436 10.9963 24.353 10.9963H15.6472C14.8565 10.9963 14.1238 11.4112 13.717 12.0892L11.3171 16.0891C11.1072 16.4389 10.9963 16.8392 10.9963 17.2472V17.2472C10.9963 18.7676 12.2289 20.0001 13.7493 20.0001H13.9976C15.6551 20.0001 16.9988 18.6564 16.9988 16.9988V16.6237" stroke="white" stroke-width="1.5" stroke-linecap="round" stroke-linejoin="round"/>
<path d="M27.8784 19.4646V26.753C27.8784 27.9962 26.8706 29.004 25.6275 29.004H14.3728C13.1296 29.004 12.1218 27.9962 12.1218 26.753V19.4644" stroke="white" stroke-width="1.5" stroke-linecap="round" stroke-linejoin="round"/>
<path d="M21.6884 24.8459H18.312" stroke="white" stroke-width="1.5" stroke-linecap="round" stroke-linejoin="round"/>
</svg>
