<svg width="32" height="32" viewBox="0 0 32 32" fill="none" xmlns="http://www.w3.org/2000/svg"><path d="M13.7654 3.78787L13.7654 18.3985L23.6558 26.7861C23.6558 26.7861 30.8731 19.5126 26.5962 11.3638C22.052 2.7056 13.7654 3.78787 13.7654 3.78787Z" fill="white" fill-opacity="0.09"></path><path d="M1.46997 16.886C1.46997 9.65208 7.3342 3.78784 14.5681 3.78784C21.802 3.78784 27.6662 9.65207 27.6662 16.886V17.2053C27.6662 24.4392 21.802 30.3035 14.5681 30.3035C7.3342 30.3035 1.46997 24.4392 1.46997 17.2053V16.886Z" fill="white" fill-opacity="0.09" stroke="#5d5d85" stroke-width="2" stroke-linecap="round" stroke-linejoin="round"></path><path d="M13.7654 18.3984L17.5077 21.6453" stroke="#5d5d85" stroke-width="2" stroke-linecap="round" stroke-linejoin="round"></path><path d="M13.7654 18.3984V10.2814" stroke="#5d5d85" stroke-width="2" stroke-linecap="round" stroke-linejoin="round"></path><path d="M22.3207 2.16455C22.3207 2.16455 26.2221 1.78438 27.9342 3.51738C29.6464 5.25038 29.2709 9.19931 29.2709 9.19931" stroke="#5d5d85" stroke-width="2" stroke-linecap="round" stroke-linejoin="round"></path></svg>