<?xml version="1.0" encoding="UTF-8"?>
<svg color="var(--token-c8809533-d74e-4474-af14-ef3a211efd13, rgb(20, 20, 20))" display="inline-block" fill="var(--token-c8809533-d74e-4474-af14-ef3a211efd13, rgb(20, 20, 20))" style="flex-shrink:0;height:100%;user-select:none;width:100%" focusable="false" viewBox="0 0 256 256" xmlns="http://www.w3.org/2000/svg">
<g color="var(--token-c8809533-d74e-4474-af14-ef3a211efd13, rgb(20, 20, 20))" weight="fill">
<path d="M216,40H40A16,16,0,0,0,24,56V200a16,16,0,0,0,16,16H216a16,16,0,0,0,16-16V56A16,16,0,0,0,216,40ZM156,88a12,12,0,1,1-12,12A12,12,0,0,1,156,88Zm60,112H40V160.69l46.34-46.35a8,8,0,0,1,11.32,0h0L165,181.66a8,8,0,0,0,11.32-11.32l-17.66-17.65L173,138.34a8,8,0,0,1,11.31,0L216,170.07V200Z"/>
</g>
</svg>
