<svg width="640" height="493" viewBox="0 0 640 493" fill="none" xmlns="http://www.w3.org/2000/svg">
<path opacity="0.58" d="M146.589 348.245C144.244 348.234 141.972 347.434 140.138 345.975C138.303 344.515 137.013 342.481 136.476 340.199C135.938 337.917 136.185 335.521 137.175 333.396C138.165 331.271 139.841 329.541 141.934 328.485L247.167 276.154C248.398 275.487 249.751 275.076 251.144 274.943C252.538 274.81 253.944 274.96 255.278 275.382C256.613 275.804 257.849 276.491 258.912 277.401C259.976 278.311 260.846 279.425 261.469 280.679C262.093 281.932 262.458 283.298 262.542 284.695C262.627 286.092 262.429 287.492 261.961 288.811C261.493 290.131 260.765 291.342 259.819 292.374C258.872 293.405 257.728 294.236 256.454 294.816L151.221 347.147C149.782 347.864 148.197 348.24 146.589 348.245Z" fill="#9A96FF"/>
<path opacity="0.42" d="M64.31 379.828C63.5655 379.831 62.8421 379.582 62.2575 379.121C61.673 378.66 61.2619 378.014 61.0912 377.29C60.9206 376.565 61.0005 375.804 61.3179 375.131C61.6353 374.457 62.1714 373.911 62.839 373.582L114.259 347.993C114.646 347.799 115.067 347.684 115.499 347.654C115.93 347.624 116.364 347.679 116.774 347.816C117.184 347.953 117.564 348.169 117.89 348.453C118.217 348.737 118.484 349.082 118.678 349.469C118.871 349.856 118.986 350.277 119.016 350.709C119.046 351.141 118.991 351.574 118.854 351.984C118.717 352.394 118.501 352.774 118.217 353.1C117.933 353.427 117.588 353.694 117.201 353.888L65.77 379.477C65.3185 379.709 64.8178 379.83 64.31 379.828Z" fill="#9A96FF"/>
<path opacity="0.29" d="M40.7956 391.52C40.0666 391.504 39.3636 391.247 38.7965 390.788C38.2295 390.33 37.8306 389.696 37.6624 388.987C37.4941 388.278 37.566 387.532 37.8669 386.868C38.1677 386.204 38.6803 385.658 39.3245 385.317L48.1068 380.926C48.89 380.537 49.7955 380.476 50.6241 380.755C51.4528 381.034 52.1367 381.63 52.5253 382.413C52.914 383.197 52.9757 384.102 52.6967 384.931C52.4178 385.759 51.821 386.443 51.0379 386.832L42.2556 391.223C41.7994 391.436 41.2989 391.538 40.7956 391.52Z" fill="#9A96FF"/>
<path opacity="0.76" d="M201.379 438.197C200.634 438.2 199.911 437.951 199.326 437.49C198.742 437.029 198.331 436.384 198.16 435.659C197.989 434.934 198.069 434.173 198.387 433.5C198.704 432.827 199.24 432.281 199.908 431.951L316.744 373.856C317.133 373.648 317.56 373.52 317.999 373.479C318.438 373.439 318.881 373.487 319.301 373.621C319.721 373.755 320.11 373.972 320.445 374.259C320.78 374.546 321.053 374.898 321.25 375.293C321.446 375.687 321.561 376.118 321.588 376.558C321.615 376.998 321.553 377.439 321.406 377.855C321.259 378.271 321.031 378.653 320.733 378.979C320.436 379.305 320.076 379.567 319.675 379.752L202.839 437.857C202.385 438.081 201.885 438.198 201.379 438.197Z" fill="#9A96FF"/>
<path opacity="0.65" d="M168.544 454.477C167.8 454.48 167.076 454.231 166.492 453.77C165.907 453.309 165.496 452.664 165.325 451.939C165.155 451.214 165.235 450.453 165.552 449.78C165.869 449.107 166.406 448.561 167.073 448.231L184.418 439.668C184.807 439.46 185.233 439.332 185.672 439.291C186.112 439.251 186.554 439.299 186.975 439.433C187.395 439.567 187.784 439.784 188.119 440.071C188.453 440.358 188.727 440.71 188.923 441.104C189.12 441.499 189.235 441.93 189.262 442.37C189.289 442.81 189.227 443.251 189.08 443.667C188.933 444.083 188.704 444.465 188.407 444.791C188.11 445.117 187.75 445.379 187.349 445.563L170.037 454.181C169.569 454.393 169.058 454.495 168.544 454.477Z" fill="#9A96FF"/>
<path opacity="0.37" d="M139.881 468.748C139.142 468.744 138.425 468.491 137.847 468.03C137.269 467.568 136.863 466.926 136.694 466.206C136.526 465.486 136.604 464.73 136.918 464.06C137.231 463.39 137.76 462.845 138.421 462.513L148.905 457.299C149.683 456.941 150.569 456.901 151.376 457.186C152.183 457.471 152.847 458.059 153.229 458.825C153.61 459.592 153.677 460.476 153.417 461.292C153.157 462.107 152.59 462.789 151.836 463.194L141.352 468.408C140.894 468.632 140.391 468.749 139.881 468.748Z" fill="#9A96FF"/>
<path opacity="0.71" d="M126.554 395.307C124.575 395.307 122.653 394.639 121.101 393.41C119.549 392.182 118.458 390.465 118.004 388.538C117.55 386.611 117.761 384.587 118.601 382.795C119.442 381.003 120.863 379.548 122.635 378.665L278.344 301.227C280.43 300.189 282.843 300.023 285.052 300.764C287.261 301.505 289.085 303.093 290.123 305.179C291.161 307.265 291.328 309.678 290.587 311.887C289.846 314.096 288.257 315.92 286.171 316.958L130.462 394.385C129.248 394.99 127.911 395.306 126.554 395.307Z" fill="#9A96FF"/>
<path opacity="0.31" d="M37.3156 468.628C36.5721 468.628 35.8503 468.377 35.2677 467.915C34.685 467.453 34.2758 466.808 34.1066 466.084C33.9374 465.36 34.0181 464.6 34.3356 463.928C34.6532 463.255 35.1888 462.71 35.8555 462.381L117.234 421.917C117.623 421.709 118.049 421.58 118.488 421.54C118.928 421.499 119.37 421.548 119.791 421.682C120.211 421.815 120.6 422.032 120.935 422.32C121.269 422.607 121.543 422.958 121.739 423.353C121.936 423.748 122.051 424.178 122.078 424.619C122.104 425.059 122.043 425.5 121.896 425.916C121.749 426.332 121.52 426.714 121.223 427.04C120.925 427.365 120.566 427.628 120.165 427.812L38.8195 468.287C38.3515 468.516 37.8365 468.633 37.3156 468.628Z" fill="#9A96FF"/>
<path opacity="0.23" d="M3.28438 485.566C2.54395 485.564 1.8258 485.313 1.24585 484.853C0.665908 484.392 0.258007 483.75 0.0879937 483.029C-0.0820193 482.309 -0.00422372 481.552 0.308823 480.881C0.621869 480.21 1.1519 479.664 1.81336 479.331L20.4756 470.033C20.8634 469.84 21.2853 469.726 21.7172 469.697C22.1492 469.667 22.5827 469.723 22.993 469.861C23.4033 470 23.7823 470.217 24.1086 470.502C24.4348 470.786 24.7017 471.133 24.8942 471.52C25.0866 471.908 25.2008 472.33 25.2302 472.762C25.2596 473.194 25.2037 473.627 25.0655 474.038C24.9274 474.448 24.7098 474.827 24.4252 475.153C24.1406 475.48 23.7945 475.746 23.4067 475.939L4.75541 485.215C4.29828 485.443 3.7951 485.563 3.28438 485.566Z" fill="#9A96FF"/>
<path opacity="0.41" d="M236.661 448.988C235.921 448.986 235.203 448.735 234.623 448.275C234.043 447.814 233.635 447.172 233.465 446.451C233.295 445.731 233.373 444.974 233.686 444.303C233.999 443.632 234.529 443.086 235.19 442.753L243.973 438.362C244.75 438.005 245.637 437.964 246.444 438.249C247.251 438.534 247.915 439.122 248.296 439.888C248.677 440.655 248.745 441.539 248.485 442.355C248.225 443.17 247.658 443.853 246.904 444.257L238.122 448.648C237.667 448.872 237.168 448.989 236.661 448.988Z" fill="#9A96FF"/>
<path opacity="0.46" d="M93.3901 470.593C91.4067 470.598 89.4798 469.932 87.9232 468.702C86.3666 467.473 85.272 465.753 84.8176 463.822C84.3633 461.891 84.5759 459.864 85.4208 458.069C86.2658 456.275 87.6934 454.819 89.4711 453.939L319.445 339.595C321.531 338.558 323.943 338.393 326.151 339.135C328.359 339.877 330.182 341.466 331.219 343.552C332.255 345.638 332.421 348.05 331.678 350.258C330.936 352.466 329.347 354.289 327.261 355.326L97.2873 469.67C96.0774 470.276 94.7431 470.592 93.3901 470.593Z" fill="#9A96FF"/>
<path opacity="0.46" d="M192.893 395.724C189.426 395.728 186.059 394.559 183.34 392.407C180.621 390.256 178.709 387.248 177.915 383.873C177.122 380.497 177.493 376.953 178.968 373.815C180.444 370.677 182.937 368.131 186.043 366.589L264.479 327.585C268.129 325.77 272.35 325.478 276.214 326.775C280.078 328.072 283.269 330.851 285.085 334.501C286.9 338.15 287.191 342.372 285.894 346.236C284.597 350.1 281.818 353.291 278.168 355.106L199.721 394.099C197.603 395.165 195.264 395.721 192.893 395.724Z" fill="#9A96FF"/>
<path opacity="0.19" d="M27.71 449.702C24.2417 449.708 20.8732 448.541 18.1522 446.39C15.4312 444.24 13.5176 441.232 12.7226 437.856C11.9276 434.48 12.2978 430.934 13.7732 427.796C15.2485 424.657 17.7422 422.109 20.8489 420.567L53.1236 404.528C56.7627 402.799 60.9355 402.568 64.7434 403.885C68.5513 405.202 71.6897 407.961 73.483 411.569C75.2763 415.177 75.5809 419.345 74.3313 423.176C73.0817 427.007 70.3779 430.193 66.8019 432.05L34.5382 448.088C32.4186 449.15 30.0806 449.703 27.71 449.702Z" fill="#9A96FF"/>
<path opacity="0.22" d="M177.952 219.871C177.212 219.869 176.494 219.617 175.914 219.157C175.334 218.697 174.926 218.054 174.756 217.334C174.586 216.613 174.663 215.856 174.977 215.185C175.29 214.514 175.82 213.968 176.481 213.635L293.318 155.53C294.096 155.173 294.982 155.132 295.789 155.417C296.596 155.702 297.26 156.29 297.641 157.056C298.022 157.823 298.09 158.707 297.83 159.523C297.57 160.338 297.003 161.02 296.249 161.425L179.412 219.552C178.956 219.769 178.457 219.878 177.952 219.871Z" fill="#9A96FF"/>
<path opacity="0.22" d="M445.69 363.834C444.945 363.837 444.222 363.587 443.637 363.126C443.053 362.665 442.642 362.02 442.471 361.295C442.3 360.571 442.38 359.81 442.698 359.136C443.015 358.463 443.551 357.917 444.219 357.587L524.884 317.474C525.272 317.266 525.699 317.138 526.138 317.097C526.577 317.057 527.02 317.105 527.44 317.239C527.86 317.373 528.249 317.59 528.584 317.877C528.919 318.164 529.193 318.516 529.389 318.91C529.585 319.305 529.7 319.736 529.727 320.176C529.754 320.616 529.692 321.057 529.545 321.473C529.399 321.889 529.17 322.271 528.872 322.597C528.575 322.923 528.215 323.185 527.815 323.369L447.15 363.482C446.699 363.716 446.198 363.836 445.69 363.834Z" fill="#9A96FF"/>
<path opacity="0.22" d="M404.984 386.514C404.24 386.517 403.516 386.267 402.932 385.806C402.347 385.345 401.936 384.7 401.765 383.975C401.595 383.251 401.674 382.49 401.992 381.816C402.309 381.143 402.845 380.597 403.513 380.267L420.561 371.782C420.949 371.589 421.371 371.475 421.803 371.446C422.235 371.416 422.669 371.472 423.079 371.61C423.489 371.748 423.868 371.966 424.194 372.251C424.521 372.535 424.788 372.881 424.98 373.269C425.173 373.657 425.287 374.079 425.316 374.511C425.346 374.943 425.29 375.376 425.151 375.786C425.013 376.197 424.796 376.576 424.511 376.902C424.226 377.228 423.88 377.495 423.493 377.688L406.444 386.162C405.991 386.39 405.491 386.511 404.984 386.514Z" fill="#9A96FF"/>
<path opacity="0.22" d="M147.148 283.685C146.408 283.683 145.69 283.431 145.11 282.971C144.53 282.511 144.122 281.868 143.952 281.148C143.782 280.427 143.86 279.67 144.173 278.999C144.486 278.328 145.016 277.782 145.677 277.449L162.737 268.952C163.515 268.595 164.401 268.555 165.208 268.84C166.015 269.125 166.679 269.713 167.06 270.479C167.441 271.245 167.509 272.13 167.249 272.945C166.989 273.761 166.422 274.443 165.668 274.848L148.619 283.333C148.162 283.561 147.659 283.681 147.148 283.685Z" fill="#9A96FF"/>
<path opacity="0.22" d="M249.747 210.298C249.007 210.296 248.288 210.045 247.709 209.584C247.129 209.124 246.721 208.482 246.551 207.761C246.381 207.04 246.458 206.284 246.771 205.613C247.085 204.942 247.615 204.396 248.276 204.063L289.311 183.655C289.7 183.447 290.126 183.318 290.565 183.278C291.005 183.238 291.447 183.286 291.868 183.42C292.288 183.554 292.677 183.771 293.012 184.058C293.346 184.345 293.62 184.696 293.816 185.091C294.013 185.486 294.128 185.916 294.155 186.357C294.182 186.797 294.12 187.238 293.973 187.654C293.826 188.07 293.597 188.452 293.3 188.778C293.003 189.103 292.643 189.366 292.242 189.55L251.207 209.958C250.753 210.182 250.253 210.299 249.747 210.298Z" fill="#9A96FF"/>
<path opacity="0.22" d="M343.453 28.6157C342.713 28.6136 341.995 28.3622 341.415 27.9018C340.835 27.4415 340.427 26.7992 340.257 26.0785C340.087 25.3579 340.165 24.6009 340.478 23.9299C340.791 23.2589 341.321 22.713 341.982 22.3803L383.017 1.97254C383.406 1.76411 383.833 1.63586 384.272 1.59542C384.711 1.55498 385.154 1.60315 385.574 1.7371C385.994 1.87104 386.383 2.08801 386.718 2.37515C387.053 2.66229 387.326 3.01374 387.523 3.40865C387.719 3.80356 387.834 4.23389 387.861 4.6741C387.888 5.11431 387.826 5.55544 387.679 5.97131C387.532 6.38718 387.304 6.76933 387.006 7.09507C386.709 7.42082 386.349 7.68353 385.948 7.86761L344.924 28.2753C344.466 28.4993 343.963 28.6157 343.453 28.6157Z" fill="#9A96FF"/>
<path d="M361.04 312.04L347.241 302.896L371.436 260.95L389.736 276.56L361.04 312.04Z" fill="#FFB678"/>
<path d="M339.723 309.007L337.057 312.173L377.974 346.616L380.64 343.45L339.723 309.007Z" fill="#A4A9B2"/>
<path d="M380.635 343.47C381.356 341.927 381.63 340.213 381.424 338.522C381.218 336.832 380.542 335.233 379.472 333.908L370.821 324.193L368.088 308.176C368.035 307.686 367.791 307.237 367.408 306.927C367.026 306.616 366.536 306.469 366.046 306.519C365.801 306.544 365.565 306.618 365.35 306.737C365.135 306.856 364.946 307.017 364.794 307.21L361.94 310.361L349.458 299.844C349.135 299.557 348.71 299.409 348.278 299.434C347.846 299.458 347.442 299.653 347.153 299.976L339.611 308.934L380.679 343.404L380.635 343.47Z" fill="#7365F0"/>
<path d="M365.244 316.157C365.394 316.287 365.568 316.384 365.757 316.442C365.946 316.501 366.145 316.52 366.342 316.497L370.36 316.003C370.548 315.983 370.731 315.925 370.897 315.834C371.063 315.743 371.209 315.62 371.327 315.472C371.446 315.324 371.534 315.154 371.586 314.972C371.639 314.79 371.655 314.6 371.633 314.411C371.589 314.027 371.395 313.675 371.093 313.432C370.791 313.189 370.405 313.076 370.02 313.116L365.991 313.61C365.709 313.641 365.442 313.755 365.225 313.938C365.008 314.12 364.849 314.363 364.769 314.635C364.69 314.907 364.692 315.197 364.777 315.468C364.861 315.739 365.024 315.978 365.244 316.157Z" fill="white"/>
<path d="M365.826 320.142C366.135 320.39 366.529 320.508 366.924 320.471L370.953 319.977C371.329 319.918 371.667 319.716 371.898 319.413C372.129 319.111 372.235 318.731 372.193 318.353C372.17 318.163 372.11 317.979 372.015 317.813C371.921 317.647 371.795 317.5 371.644 317.383C371.493 317.266 371.32 317.179 371.135 317.129C370.951 317.079 370.758 317.066 370.569 317.09L366.54 317.584C366.352 317.603 366.17 317.66 366.004 317.75C365.838 317.84 365.691 317.962 365.573 318.109C365.454 318.256 365.366 318.425 365.314 318.606C365.261 318.787 365.245 318.977 365.266 319.165C365.288 319.358 365.349 319.544 365.445 319.712C365.541 319.88 365.671 320.026 365.826 320.142Z" fill="white"/>
<path d="M366.452 324.193C366.763 324.436 367.158 324.546 367.55 324.5L371.578 324.006C371.77 323.982 371.955 323.92 372.123 323.824C372.291 323.728 372.438 323.6 372.556 323.447C372.674 323.294 372.761 323.119 372.812 322.933C372.863 322.746 372.876 322.551 372.852 322.36C372.827 322.168 372.765 321.983 372.669 321.815C372.573 321.647 372.445 321.5 372.292 321.382C372.139 321.264 371.965 321.177 371.778 321.126C371.592 321.075 371.397 321.062 371.205 321.086L367.198 321.58C367.006 321.603 366.819 321.664 366.65 321.76C366.481 321.855 366.333 321.983 366.213 322.136C366.094 322.289 366.006 322.464 365.955 322.652C365.903 322.839 365.889 323.034 365.914 323.227C365.962 323.606 366.155 323.952 366.452 324.193Z" fill="white"/>
<path d="M290.771 208.344L298.916 246.997C299.86 251.125 301.613 255.024 304.076 258.469C311.673 269.128 328.93 269.963 341.587 267.13L387.365 257.415C387.365 257.415 385.103 260.39 384.291 261.543C381.641 265.436 379.612 269.717 378.275 274.233C377.251 277.395 376.663 280.682 376.529 284.003L374.652 322.876L397.168 327.464L418.717 240.597C422.164 224.954 410.385 216.149 396.663 216.018L333.716 215.26L290.771 208.344Z" fill="#313A44"/>
<path d="M184.78 414.957C184.78 414.957 213.849 414.957 225.585 392.595C236.497 372.188 221.194 348.684 203.091 345.018C180.345 340.627 164.416 358.663 164.416 358.663C164.416 358.663 172.342 361.956 171.717 365.129C170.882 369.147 161.441 366.095 151.243 374.427C136.818 386.327 140.957 411.104 140.957 411.104C143.487 408.954 146.438 407.355 149.621 406.41C152.805 405.465 156.15 405.194 159.444 405.615C171.047 406.889 174.812 409.183 182.321 407.306C189.83 405.428 191.103 402.289 192.333 403.672C193.563 405.055 189.907 411.049 184.78 414.957Z" fill="#FF8548"/>
<path d="M195.736 401.004C195.736 401.004 216.956 401.004 225.815 384.483C233.873 369.476 222.599 352.175 209.228 349.639C192.596 346.456 180.894 359.574 180.894 359.574C180.894 359.574 186.636 361.978 186.251 364.339C185.658 367.215 178.71 365.129 171.3 371.178C160.618 379.817 163.692 397.942 163.692 397.942C165.553 396.372 167.717 395.202 170.049 394.503C172.381 393.804 174.832 393.592 177.249 393.88C185.79 394.714 188.502 396.427 193.958 395.043C199.414 393.66 200.544 391.421 201.412 392.464C202.279 393.507 199.501 398.194 195.736 401.004Z" fill="#FFC655"/>
<path d="M260.802 373.999L235.948 325.828C235.804 325.54 235.605 325.282 235.362 325.07C235.118 324.858 234.835 324.697 234.529 324.595C234.223 324.493 233.9 324.452 233.578 324.476C233.257 324.499 232.943 324.586 232.654 324.731L227.912 327.135C225.094 328.594 222.97 331.111 222.005 334.134C221.04 337.157 221.312 340.439 222.763 343.261L238.89 374.526C239.607 375.924 240.594 377.166 241.795 378.18C242.995 379.193 244.384 379.959 245.883 380.432C246.245 380.542 246.607 380.641 246.98 380.717C249.723 381.313 252.587 380.925 255.071 379.62L259.814 377.172C260.343 376.86 260.738 376.363 260.921 375.776C261.103 375.19 261.061 374.556 260.802 373.999Z" fill="#BCBCBC"/>
<g opacity="0.3">
<path d="M239.307 320.823L238.78 321.097L259.21 360.716L257.936 361.364C257.211 361.734 256.401 361.904 255.588 361.856C254.776 361.807 253.991 361.543 253.315 361.089L258.979 372.067C259.543 373.142 260.508 373.952 261.666 374.32C262.823 374.688 264.078 374.584 265.16 374.032L266.433 373.373L239.307 320.823Z" fill="#650000"/>
</g>
<path d="M271.296 373.121L242.381 317.057C242.237 316.768 242.038 316.511 241.795 316.299C241.551 316.087 241.268 315.926 240.962 315.824C240.656 315.722 240.333 315.681 240.011 315.704C239.69 315.728 239.376 315.814 239.087 315.959L236.069 317.507C233.954 318.595 232.357 320.478 231.628 322.742C230.9 325.005 231.099 327.466 232.182 329.583L255.104 374.01C255.646 375.054 256.39 375.979 257.293 376.733C258.195 377.487 259.239 378.054 260.362 378.401C260.615 378.489 260.878 378.555 261.142 378.621C263.199 379.079 265.352 378.799 267.224 377.83L270.242 376.271C270.533 376.13 270.793 375.932 271.007 375.689C271.22 375.446 271.383 375.163 271.485 374.856C271.587 374.549 271.627 374.225 271.602 373.902C271.577 373.58 271.488 373.266 271.34 372.978L271.296 373.121Z" fill="white"/>
<path d="M495.628 206.072C456.108 195.884 354.782 186.696 247.167 312.556L240.229 316.157L255.159 344.985L255.543 345.731L270.473 374.548L277.411 370.958C442.319 355.677 493.289 267.613 507.758 229.487C508.585 227.318 508.977 225.008 508.91 222.688C508.844 220.367 508.322 218.083 507.373 215.965C506.424 213.846 505.067 211.936 503.379 210.342C501.692 208.748 499.707 207.502 497.538 206.676C496.914 206.436 496.276 206.235 495.628 206.072Z" fill="white"/>
<g opacity="0.3">
<path d="M301.376 314.148C299.471 314.569 297.644 315.288 295.963 316.278L230.349 356.994L237.035 369.948L308.094 339.737C309.872 338.923 311.516 337.842 312.968 336.532C315.216 334.646 316.755 332.05 317.33 329.173C317.906 326.295 317.484 323.307 316.133 320.702C314.783 318.096 312.586 316.029 309.903 314.839C307.221 313.65 304.213 313.41 301.376 314.159V314.148Z" fill="#BCBCBC"/>
</g>
<g opacity="0.3">
<path d="M503.872 210.77C489.26 249.094 438.137 336.784 273.635 352.011L266.697 355.611L262.986 348.443C269.694 302.6 297.391 270.676 297.391 270.676L263.458 305.487L253.095 306.409L245.015 313.72L240.405 316.157L252.48 339.397L252.865 340.144L267.794 368.971L274.732 365.371C439.597 350.1 490.567 262.015 505.036 223.944C506.389 220.393 506.559 216.5 505.519 212.845C505.023 212.113 504.473 211.419 503.872 210.77Z" fill="#BCBCBC"/>
</g>
<path d="M506.342 221.177C506.341 220.898 506.297 220.62 506.21 220.354C506.155 220.035 506.079 219.717 506.002 219.41C505.718 218.297 505.313 217.218 504.794 216.193C503.803 214.29 502.423 212.617 500.744 211.282C499.065 209.946 497.123 208.979 495.046 208.443C488.754 206.836 482.372 205.604 475.933 204.754C477.877 212.669 483.618 231.101 497.746 245.844C500.657 240.256 503.245 234.505 505.497 228.62C506.394 226.248 506.685 223.69 506.342 221.177Z" fill="white"/>
<g opacity="0.2">
<path d="M425.381 264.166C422.73 259.043 418.856 254.652 414.103 251.384C409.349 248.116 403.862 246.072 398.13 245.432C392.397 244.791 386.594 245.576 381.237 247.715C375.88 249.854 371.133 253.281 367.417 257.694C363.702 262.107 361.132 267.368 359.937 273.011C358.741 278.655 358.957 284.506 360.564 290.046C362.171 295.586 365.12 300.644 369.15 304.772C373.179 308.9 378.165 311.969 383.665 313.709C384.653 314.027 385.652 314.291 386.651 314.521C393.163 315.971 399.953 315.533 406.225 313.258C412.496 310.984 417.989 306.967 422.057 301.68C426.126 296.393 428.602 290.055 429.194 283.41C429.787 276.766 428.472 270.089 425.403 264.166H425.381Z" fill="#BCBCBC"/>
</g>
<g opacity="0.4">
<path d="M421.538 261.191C419.698 257.61 417.165 254.429 414.085 251.834C411.006 249.239 407.442 247.282 403.601 246.075C402.734 245.8 401.855 245.57 400.988 245.372C396.516 244.377 391.878 244.396 387.415 245.428C382.952 246.46 378.777 248.479 375.196 251.337C371.616 254.195 368.721 257.819 366.726 261.943C364.73 266.066 363.684 270.585 363.664 275.166C364.511 266.956 368.585 259.418 374.99 254.212C381.394 249.005 389.605 246.556 397.815 247.403C399.019 247.526 400.214 247.72 401.394 247.985C402.283 248.183 403.173 248.424 404.051 248.698C407.954 249.927 411.575 251.918 414.703 254.556C417.831 257.195 420.404 260.427 422.274 264.067C423.088 265.647 423.768 267.292 424.305 268.985C423.734 266.276 422.803 263.655 421.538 261.191Z" fill="white"/>
</g>
<path d="M381.404 246.294C381.186 246.245 380.982 246.147 380.808 246.008C380.633 245.87 380.491 245.694 380.394 245.493L368.318 220.606C368.16 220.257 368.145 219.86 368.275 219.5C368.406 219.14 368.671 218.845 369.016 218.677C369.361 218.51 369.757 218.484 370.121 218.604C370.485 218.724 370.787 218.982 370.964 219.322L383.039 244.209C383.209 244.56 383.233 244.964 383.106 245.332C382.978 245.701 382.709 246.003 382.359 246.174C382.062 246.317 381.727 246.359 381.404 246.294Z" fill="#650000"/>
<g opacity="0.2">
<path d="M369.57 221.024C369.397 220.688 369.103 220.432 368.747 220.307C368.391 220.183 368 220.2 367.657 220.355C367.313 220.51 367.042 220.791 366.899 221.14C366.757 221.489 366.754 221.88 366.891 222.231V222.308L378.967 247.195C379.061 247.396 379.199 247.573 379.373 247.712C379.546 247.851 379.749 247.948 379.966 247.996C380.292 248.062 380.631 248.019 380.932 247.875C381.279 247.705 381.547 247.404 381.676 247.039C381.805 246.674 381.786 246.273 381.623 245.921L369.57 221.024Z" fill="#650000"/>
</g>
<path d="M384.741 234.043C386.323 234.043 387.606 232.76 387.606 231.178C387.606 229.596 386.323 228.313 384.741 228.313C383.158 228.313 381.876 229.596 381.876 231.178C381.876 232.76 383.158 234.043 384.741 234.043Z" fill="#650000"/>
<path d="M368.691 240.717C370.274 240.717 371.557 239.435 371.557 237.852C371.557 236.27 370.274 234.987 368.691 234.987C367.109 234.987 365.826 236.27 365.826 237.852C365.826 239.435 367.109 240.717 368.691 240.717Z" fill="#650000"/>
<g opacity="0.3">
<path d="M422.966 255.889C422.697 256.027 422.477 256.245 422.336 256.512C422.195 256.78 422.14 257.084 422.178 257.384C422.217 257.684 422.346 257.965 422.55 258.189C422.754 258.412 423.022 258.567 423.317 258.633C423.659 258.706 424.015 258.66 424.327 258.501" fill="#BCBCBC"/>
</g>
<path d="M298.664 268.469C298.45 267.948 298.091 267.499 297.63 267.174C297.169 266.849 296.625 266.663 296.062 266.636L261.263 265.088C253.527 264.725 245.876 266.832 239.417 271.104L191.839 302.446C190.691 303.202 189.789 304.277 189.242 305.538C188.695 306.799 188.528 308.193 188.761 309.547C188.994 310.902 189.617 312.16 190.554 313.166C191.49 314.172 192.7 314.884 194.035 315.213C194.904 315.401 195.8 315.431 196.68 315.301L247.178 307.913L260.626 309.57C261.085 309.623 261.551 309.569 261.985 309.411C262.42 309.252 262.811 308.995 263.129 308.659L298.071 271.62C298.463 271.208 298.727 270.691 298.832 270.132C298.938 269.573 298.879 268.996 298.664 268.469Z" fill="#FF5097"/>
<path d="M343.596 355.26C343.292 354.783 342.856 354.405 342.343 354.169C341.829 353.934 341.258 353.851 340.698 353.932L290.277 361.1C289.816 361.162 289.377 361.333 288.995 361.598C288.613 361.863 288.3 362.216 288.081 362.626L281.725 374.46L246.552 411.466C245.434 412.625 244.747 414.133 244.606 415.737C244.465 417.342 244.879 418.946 245.778 420.282C246.677 421.618 248.008 422.605 249.547 423.079C251.087 423.552 252.742 423.483 254.237 422.883L307.292 402.102C314.519 399.289 320.668 394.258 324.857 387.732L343.651 358.443C343.944 357.962 344.095 357.407 344.085 356.844C344.076 356.28 343.906 355.731 343.596 355.26Z" fill="#FF5097"/>
<path d="M315.712 315.257C314.334 312.539 312.06 310.379 309.274 309.143C306.488 307.907 303.361 307.67 300.42 308.473C298.464 308.904 296.589 309.645 294.866 310.668L206.648 365.37C205.4 366.127 204.486 367.331 204.092 368.736C203.698 370.142 203.853 371.645 204.526 372.94C205.199 374.236 206.339 375.227 207.716 375.713C209.092 376.199 210.602 376.144 211.939 375.558L307.446 334.94C309.271 334.107 310.956 332.996 312.441 331.647C314.784 329.705 316.388 327.016 316.984 324.032C317.579 321.048 317.131 317.949 315.712 315.257Z" fill="#FF5097"/>
<path d="M386.618 309.965C378.47 308.128 371.23 303.48 366.168 296.836C361.106 290.192 358.547 281.977 358.938 273.634C359.33 265.291 362.648 257.352 368.31 251.212C373.972 245.071 381.616 241.122 389.901 240.056C398.185 238.99 406.58 240.877 413.611 245.384C420.643 249.892 425.862 256.732 428.353 264.705C430.844 272.677 430.446 281.272 427.231 288.981C424.015 296.69 418.187 303.019 410.769 306.859C403.337 310.711 394.783 311.811 386.618 309.965Z" fill="#9A97FF"/>
<path d="M407.344 286.868C407.153 286.758 406.951 286.67 406.74 286.605L406.85 286.682L394.851 282.741C394.409 282.573 393.925 282.546 393.466 282.665C393.008 282.783 392.597 283.04 392.291 283.4C391.984 283.761 391.796 284.208 391.754 284.679C391.711 285.151 391.815 285.624 392.052 286.034L396.224 293.565C396.496 294.099 396.969 294.503 397.538 294.691C398.108 294.878 398.728 294.832 399.264 294.564L406.949 290.919C407.399 290.734 407.781 290.416 408.047 290.008C408.359 289.496 408.461 288.882 408.329 288.296C408.198 287.711 407.845 287.199 407.344 286.868Z" fill="white"/>
<path d="M389.055 279.601C388.99 279.121 388.772 278.674 388.433 278.327C388.095 277.981 387.654 277.752 387.176 277.674C386.698 277.597 386.207 277.675 385.777 277.897C385.346 278.12 384.998 278.474 384.785 278.909L380.394 286.374C380.099 286.864 380 287.446 380.116 288.006C380.232 288.565 380.555 289.061 381.019 289.393L388.023 294.289C388.502 294.663 389.11 294.831 389.713 294.757C390.316 294.682 390.865 294.372 391.24 293.894C391.459 293.616 391.61 293.29 391.681 292.943C391.751 292.596 391.739 292.238 391.646 291.896L389.055 279.601Z" fill="white"/>
<path d="M388.88 273.036C389.122 272.845 389.323 272.608 389.473 272.338C389.622 272.067 389.715 271.77 389.748 271.464C389.781 271.157 389.752 270.847 389.663 270.551C389.574 270.256 389.427 269.981 389.231 269.743C389.002 269.476 388.717 269.263 388.396 269.119C388.076 268.975 387.727 268.903 387.376 268.909L378.769 268.722C378.196 268.723 377.644 268.941 377.225 269.332C376.805 269.723 376.549 270.258 376.508 270.83L375.706 279.414C375.663 279.883 375.763 280.354 375.992 280.765C376.131 281.03 376.322 281.265 376.553 281.457C376.784 281.648 377.05 281.792 377.336 281.881C377.623 281.97 377.924 282.001 378.222 281.974C378.521 281.946 378.811 281.86 379.076 281.72C379.272 281.621 379.45 281.491 379.603 281.336L388.88 273.036Z" fill="white"/>
<path d="M382.018 265.33C382.201 265.449 382.401 265.538 382.611 265.593L394.489 269.501C395.048 269.721 395.672 269.711 396.223 269.472C396.774 269.233 397.209 268.786 397.431 268.228V268.162C397.51 267.958 397.558 267.744 397.574 267.525C397.597 267.047 397.487 266.572 397.256 266.153L393.084 258.622C392.805 258.086 392.325 257.682 391.749 257.498C391.173 257.315 390.548 257.368 390.01 257.645L382.326 261.268C381.876 261.454 381.493 261.771 381.228 262.179C380.923 262.704 380.835 263.327 380.983 263.915C381.13 264.504 381.502 265.011 382.018 265.33Z" fill="white"/>
<path d="M400.395 272.597C400.463 273.062 400.679 273.493 401.01 273.827C401.225 274.046 401.481 274.22 401.764 274.339C402.046 274.457 402.35 274.519 402.657 274.519C402.963 274.519 403.267 274.457 403.55 274.339C403.833 274.22 404.089 274.046 404.303 273.827L404.369 273.75L404.742 273.3L409.134 265.89C409.436 265.402 409.542 264.818 409.43 264.256C409.318 263.693 408.996 263.194 408.53 262.86L401.537 257.975C401.158 257.681 400.695 257.513 400.216 257.495C399.736 257.478 399.263 257.611 398.863 257.876C398.463 258.142 398.156 258.526 397.986 258.975C397.816 259.424 397.791 259.915 397.914 260.379L400.395 272.597Z" fill="white"/>
<path d="M412.515 270.511C412.101 270.29 411.628 270.207 411.163 270.274C410.699 270.341 410.269 270.555 409.935 270.885L400.582 279.239C400.205 279.546 399.936 279.965 399.813 280.435C399.679 280.895 399.706 281.387 399.89 281.829C400.055 282.275 400.356 282.658 400.75 282.923C401.144 283.189 401.611 283.325 402.086 283.311L410.681 283.498C411.253 283.487 411.8 283.266 412.22 282.878C412.639 282.489 412.9 281.959 412.954 281.39L413.766 272.839C413.825 272.369 413.736 271.893 413.511 271.476C413.287 271.059 412.939 270.722 412.515 270.511Z" fill="white"/>
<path d="M287.609 131.84C284.468 129.05 282.563 125.128 282.314 120.934C282.065 116.74 283.492 112.62 286.281 109.478C287.172 108.468 288.19 107.579 289.311 106.832L346.977 73.0537C351.182 70.0567 350.622 69.1346 355.057 71.8241L355.935 71.3631C362.917 77.3569 367.462 82.5055 360.326 88.3787L308.182 132.169C305.273 134.568 301.605 135.852 297.835 135.792C294.065 135.732 290.44 134.331 287.609 131.84Z" fill="#FFBA82"/>
<path d="M284.711 134.167C281.423 131.228 279.437 127.103 279.19 122.699C278.943 118.296 280.455 113.974 283.394 110.686C284.318 109.658 285.365 108.747 286.511 107.974L309.455 91.8806L330.697 116.855L306.425 134.42C303.375 136.984 299.506 138.369 295.521 138.323C291.537 138.277 287.701 136.802 284.711 134.167Z" fill="#7365F0"/>
<path d="M387.902 26.0577C390.691 22.5778 394.961 16.7156 396.685 14.3883C396.871 14.1202 396.954 13.7944 396.92 13.47C396.885 13.1456 396.736 12.8443 396.498 12.6209C396.246 12.3832 395.912 12.2508 395.565 12.2508C395.218 12.2508 394.884 12.3832 394.632 12.6209L388.88 18.2086L388.726 18.2855C388.7 18.236 388.678 18.1846 388.66 18.1318L395.247 6.68192C395.42 6.37495 395.485 6.01848 395.432 5.66997C395.378 5.32146 395.208 5.0012 394.95 4.76081C394.622 4.50741 394.207 4.39405 393.796 4.44546C393.385 4.49688 393.01 4.7089 392.755 5.03525L386.464 13.082C386.419 13.115 386.366 13.1374 386.311 13.1478C386.28 13.1338 386.255 13.1101 386.239 13.0804C386.223 13.0506 386.217 13.0165 386.223 12.9832L391.053 2.90556C391.208 2.52311 391.231 2.10022 391.12 1.70299C391.009 1.30575 390.769 0.956564 390.438 0.710002C390.041 0.472775 389.566 0.403115 389.117 0.516342C388.668 0.629568 388.283 0.916408 388.045 1.31378L381.799 11.6549L381.645 11.7317C381.644 11.6738 381.621 11.6186 381.579 11.578L384.73 2.32374C384.857 1.9027 384.83 1.45005 384.653 1.04745C384.475 0.644853 384.16 0.318821 383.764 0.128178C383.336 -0.039672 382.861 -0.0427735 382.431 0.119475C382.001 0.281723 381.647 0.597773 381.437 1.0064L374.466 16.4631C374.425 16.5177 374.372 16.5619 374.311 16.5924C374.25 16.6229 374.183 16.6388 374.114 16.6388C374.016 16.6389 373.922 16.6015 373.85 16.5341C373.779 16.4667 373.736 16.3746 373.73 16.2765L373.357 9.68984C373.348 9.33113 373.225 8.98461 373.006 8.70042C372.787 8.41623 372.483 8.20911 372.138 8.10904C371.693 8.04156 371.238 8.1394 370.86 8.3841C370.482 8.6288 370.206 9.00345 370.086 9.43735C369.09 13.9912 368.721 18.6596 368.988 23.3133L369.185 26.6725C369.339 29.0217 344.101 75.392 344.101 75.392L363.784 84.3059L379.647 33.7093C382.736 31.5485 385.514 28.974 387.902 26.0577Z" fill="#FFBA82"/>
<path d="M278.004 65.6766L272.328 45.7628C271.817 43.9419 271.849 42.0115 272.418 40.208C272.987 38.4045 274.07 36.806 275.534 35.6084C279.288 32.4687 287.115 30.7013 289.399 30.2622C295.052 29.1644 293.79 28.9449 298.181 31.821C299.608 32.7102 306.381 48.0572 303.67 52.6789C297.61 62.7784 278.004 65.6766 278.004 65.6766Z" fill="#752A19"/>
<path d="M311.431 75.7434L310.333 61.8235C310.333 61.8235 312.529 57.3336 315.493 59.7378C318.457 62.1419 317.524 68.0589 315.328 71.4291C314.275 73.0711 312.958 74.5287 311.431 75.7434Z" fill="#FF9C66"/>
<path d="M311.662 71.352C312.496 72.0436 313.78 70.6055 314.626 68.1904C315.471 65.7753 315.361 63.2175 314.538 62.5259C313.715 61.8343 312.419 63.2394 311.574 65.6765C310.729 68.1136 310.74 70.6604 311.662 71.352Z" fill="#ED795A"/>
<path d="M311.607 70.6386C312.156 71.0887 313.078 70.1885 313.528 68.5528C313.978 66.9171 313.989 65.3583 313.528 64.8094C313.067 64.2605 312.09 65.3363 311.629 66.8842C311.168 68.4321 311.047 70.2544 311.607 70.6386Z" fill="#FF9C66"/>
<path d="M299.685 50.6042C302.067 62.7676 317.392 60.2976 302.858 63.2286C288.323 66.1597 290.947 68.8383 288.586 56.642C286.676 46.8827 278.158 34.8181 288.586 31.0088C294.536 28.7474 305.24 27.0678 307.743 26.5628C312.244 25.6846 305.207 26.7494 309.225 27.6606L303.736 34.7742C312.452 37.1125 298.027 42.272 299.685 50.6042Z" fill="#A4482B"/>
<path d="M316.964 58.7168L315.954 46.7949C315.756 44.9301 315.022 43.1626 313.842 41.7055C312.661 40.2484 311.085 39.1641 309.301 38.5835C308.127 38.1773 306.063 28.451 304.91 28.2314C302.252 27.6335 299.479 27.7871 296.902 28.675C294.326 29.563 292.047 31.1502 290.321 33.2592C286.314 38.6493 291.759 51.3067 295.952 54.5342C305.174 61.7686 316.964 58.7168 316.964 58.7168Z" fill="#752A19"/>
<path d="M317.403 62.493L315.778 46.1031C315.585 44.2338 314.853 42.461 313.669 41.0009C312.486 39.5409 310.904 38.4568 309.115 37.8808C307.94 37.4856 303.78 31.7332 302.528 31.4917C296.962 30.4817 304.318 43.4245 301.101 47.6949C297.083 53.085 287.082 52.1519 291.287 55.3794C300.684 62.6357 317.403 62.493 317.403 62.493Z" fill="#FFBA82"/>
<path d="M284.371 67.6635L279.837 100.41L308.445 123.87L306.744 99.071L302.627 76.8958L284.371 67.6635Z" fill="#FF9C66"/>
<path d="M304.855 77.0936L306.842 100.29L307.281 107.107C303.322 106.215 299.676 104.269 296.732 101.475C290.035 95.4375 287.631 85.8868 287.214 83.5046C286.369 78.861 304.855 77.0936 304.855 77.0936Z" fill="#ED795A"/>
<path d="M305.317 42.8757L291.704 45.6092C286.292 46.7069 282.922 49.4953 283.921 54.0621C284.799 58.1678 279.398 60.8573 280.693 65.1387C284.305 77.2143 291.188 85.9087 302.034 83.8009C312.88 81.6932 318.204 72.5926 317.194 58.552C317.194 58.552 315.306 59.1558 313.605 56.4552C312.957 55.566 313.045 46.8167 312.353 46.0044C311.947 45.6311 311.574 45.2359 311.102 44.9066C308.742 43.3807 308.105 42.3268 305.317 42.8757Z" fill="#FFBA82"/>
<path d="M312.419 98.2916C310.783 98.876 309.09 99.2917 307.369 99.5321C305.611 99.8271 303.812 99.7622 302.079 99.3414C300.347 98.9206 298.718 98.1527 297.292 97.084C296.271 96.3375 295.173 95.5032 294.624 95.0531C292.143 93.0112 287.752 88.7958 286.369 85.1731L277.729 64.8971L317.952 69.0357L318.314 90.2229C318.371 92.0324 317.822 93.8091 316.754 95.2709C315.686 96.7327 314.16 97.7958 312.419 98.2916Z" fill="#A4482B"/>
<path d="M294.591 95.0202L287.039 63.3603L277.235 55.8844L283.965 83.3289C284.542 85.6791 285.811 87.8018 287.609 89.4216C289.421 91.0573 294.58 95.0312 294.58 95.0312L294.591 95.0202Z" fill="#752A19"/>
<path d="M309.488 76.5776L291.693 80.0575C289.404 80.4955 287.035 80.1196 284.994 78.995C282.953 77.8704 281.37 76.0677 280.518 73.899L275.808 57.5201L303.615 53.4913L314.538 57.597C316.305 58.2666 317.096 58.552 317.513 61.6917L317.985 69.1566C317.963 74.0746 314.23 75.6555 309.488 76.5776Z" fill="#FFBA82"/>
<path d="M304.801 63.7885C308.094 68.7504 309.686 72.0218 308.621 73.6685C308.226 74.142 307.715 74.5045 307.137 74.7201C306.56 74.9357 305.936 74.997 305.327 74.898C305.327 74.898 309.192 75.9299 310.52 74.3491C311.848 72.7683 309.345 69.1566 304.768 63.6677L304.801 63.7885Z" fill="#FF9C66"/>
<path d="M306.974 87.9506C310.059 87.237 312.463 85.5025 313.923 79.2562L299.103 82.6154C300.651 86.8309 303.878 88.6422 306.974 87.9506Z" fill="#422931"/>
<path d="M312.759 80.8149L300.563 83.4935C300.892 84.3556 301.401 85.1378 302.056 85.7879L311.563 83.5923C312.13 82.7482 312.535 81.8066 312.759 80.8149Z" fill="#FFEEDB"/>
<path d="M275.687 57.5311L278.476 67.1476C279.549 66.7335 280.578 66.2151 281.55 65.5998C282.215 64.9693 282.694 64.167 282.932 63.2817C283.17 62.3963 283.159 61.4623 282.9 60.5829L281.341 52.8984L275.687 57.5311Z" fill="#752A19"/>
<path d="M277.938 57.081L280.715 66.6756C281.793 66.2593 282.823 65.7294 283.789 65.0948C284.457 64.468 284.937 63.6682 285.178 62.7844C285.418 61.9007 285.409 60.9676 285.15 60.0889L283.58 52.4045L277.938 57.081Z" fill="#752A19"/>
<path d="M317.052 58.6728C316.253 58.2774 315.566 57.6868 315.056 56.9558C314.545 56.2247 314.228 55.3767 314.132 54.4903C313.473 51.0981 313.308 50.2089 313.133 48.9135C313.041 47.9881 312.759 47.0916 312.306 46.2795C311.853 45.4675 311.237 44.7573 310.498 44.1931C308.895 43.0953 307.205 42.6452 302.726 43.4356C299.18 44.0504 294.009 45.1262 294.009 45.1262C294.009 45.1262 305.514 46.6302 308.072 48.9355C309.312 50.0882 310.015 55.6429 311.991 58.6179C313.297 60.4183 315.233 61.6607 317.414 62.0979L317.052 58.6728Z" fill="#FFBA82"/>
<path d="M285.688 76.6104L282.307 65.8632C282.307 65.8632 278.706 62.504 276.818 65.8632C274.93 69.2224 278.015 74.2502 281.209 76.5555C282.038 77.1391 282.92 77.6427 283.844 78.0595C284.156 78.2133 284.516 78.2386 284.847 78.1298C285.177 78.021 285.452 77.7868 285.611 77.4777C285.708 77.1992 285.734 76.9014 285.688 76.6104Z" fill="#FF9C66"/>
<path d="M281.923 69.958C280.287 67.949 278.63 67.1037 278.146 68.1356C277.663 69.1676 278.564 71.429 280.09 73.3721C281.615 75.3151 283.383 76.1494 283.877 75.2054C284.371 74.2613 283.559 71.912 281.923 69.958Z" fill="#ED795A"/>
<path d="M282.691 71.1435C281.659 69.8701 280.496 69.3102 280.188 69.925C279.881 70.5397 280.452 72.0437 281.495 73.4049C282.538 74.7662 283.69 75.2382 283.998 74.6235C284.305 74.0087 283.734 72.4499 282.691 71.1435Z" fill="#FF9C66"/>
<path d="M300.113 65.1607C299.784 63.525 298.675 62.3175 297.643 62.537C296.611 62.7566 296.095 64.2276 296.545 65.8304C296.995 67.4331 297.983 68.6736 298.927 68.487C299.871 68.3004 300.475 66.7415 300.113 65.1607Z" fill="#604748"/>
<path d="M297.072 56.4883L290.903 59.0022C290.762 59.0145 290.632 59.0815 290.54 59.1888C290.448 59.2723 290.363 59.3642 290.288 59.4633C290.222 59.5645 290.188 59.6829 290.189 59.8036C290.179 59.8688 290.19 59.9355 290.219 59.9945C290.249 60.0535 290.296 60.1018 290.354 60.1329L291.166 61.9991C291.291 62.2366 291.498 62.4201 291.749 62.5152C292 62.6102 292.277 62.6102 292.527 62.5151L298.653 60.0012C298.872 59.8809 299.057 59.7072 299.191 59.4962C299.245 59.387 299.273 59.2668 299.273 59.1449C299.273 59.023 299.245 58.9028 299.191 58.7936L298.269 56.9713C298.157 56.7502 297.966 56.5796 297.734 56.494C297.502 56.4084 297.246 56.4142 297.017 56.5102L297.072 56.4883Z" fill="#A4482B"/>
<path d="M315.603 61.999C315.219 60.4291 314.055 59.2545 313.067 59.4411C312.079 59.6278 311.618 61.1207 311.969 62.7345C312.32 64.3482 313.517 65.4789 314.483 65.2813C315.449 65.0837 315.998 63.6676 315.603 61.999Z" fill="#604748"/>
<path d="M315.943 54.1389L309.894 53.5242C309.655 53.5154 309.42 53.5848 309.225 53.7218C309.046 53.9172 308.931 54.1622 308.895 54.4244V56.5211C308.892 56.7842 308.983 57.0398 309.152 57.2413C309.322 57.4428 309.558 57.5768 309.817 57.6189L315.855 58.2337C315.987 58.2772 316.129 58.2772 316.261 58.2337L316.602 58.058L316.788 57.8055C316.846 57.7058 316.873 57.5912 316.865 57.4762V55.3794C316.865 55.1181 316.789 54.8624 316.646 54.6439C316.583 54.5056 316.485 54.3862 316.362 54.2975C316.238 54.2089 316.094 54.1542 315.943 54.1389Z" fill="#A4482B"/>
<path d="M314.055 26.7163C313.521 28.4214 312.534 29.9498 311.2 31.1387C309.867 32.3276 308.235 33.1325 306.48 33.4677C307.674 32.6101 308.65 31.4856 309.333 30.1839C310.015 28.8823 310.384 27.4393 310.41 25.9698L309.752 26.0467L298.093 28.3191C296.076 28.7794 294.319 30.0089 293.195 31.7456C292.072 33.4823 291.671 35.5891 292.077 37.6173C292.268 38.6096 292.653 39.5546 293.209 40.3981C293.765 41.2416 294.483 41.9671 295.32 42.533C296.157 43.0989 297.098 43.4942 298.088 43.6962C299.078 43.8981 300.098 43.9028 301.09 43.71L312.858 41.4266C314.49 41.098 315.972 40.2481 317.079 39.0049C318.187 37.7618 318.861 36.1925 318.999 34.5334C319.138 32.8742 318.734 31.2149 317.848 29.8051C316.962 28.3953 315.643 27.3114 314.088 26.7163H314.055Z" fill="#752A19"/>
<path d="M490.567 316.201L473.738 323.402L432.385 286.912L458.676 281.259L490.567 316.201Z" fill="#FFB678"/>
<path d="M526.218 316.535L473.649 334.277L475.022 338.344L527.59 320.602L526.218 316.535Z" fill="#A4A9B2"/>
<path d="M526.179 316.508C525.197 315.042 523.824 313.879 522.216 313.151C520.608 312.424 518.828 312.161 517.078 312.392L503.806 314.829L488.152 308.637C487.808 308.495 487.431 308.452 487.064 308.516C486.698 308.579 486.357 308.745 486.081 308.995C485.805 309.244 485.605 309.567 485.505 309.925C485.406 310.284 485.41 310.663 485.517 311.019L486.812 315.213L470.741 320.702C470.333 320.858 470.001 321.165 469.815 321.56C469.629 321.955 469.603 322.407 469.742 322.821L473.606 334.325L526.3 316.497L526.179 316.508Z" fill="#7871FF"/>
<path d="M276.489 205.896L284.59 244.549C285.56 248.674 287.332 252.568 289.805 256.01C293.509 261.217 298.67 265.214 304.639 267.495C310.609 269.777 317.12 270.242 323.353 268.832L388.66 253.891L401.471 269.743C403.847 272.688 406.575 275.332 409.595 277.614L463.166 317.628L482.323 305.256L415.753 235.327C405.203 222.846 398.485 217.137 384.763 217.005L319.445 212.801L276.489 205.896Z" fill="#50353E"/>
<path d="M340.182 212.911L280.66 225.7L283.152 237.282L339.798 213.69" fill="#381F29"/>
<path d="M345.096 169.394C346.079 169.151 346.509 167.474 346.056 165.65C345.604 163.826 344.44 162.545 343.458 162.788C342.475 163.032 342.045 164.708 342.497 166.533C342.95 168.357 344.113 169.638 345.096 169.394Z" fill="#FF9659"/>
<path d="M265.324 120.873C262.767 126.362 259.473 133.893 259.517 140.381C259.846 147.464 260.89 154.497 262.635 161.37C264.666 169.768 267.838 185.236 269.573 198.695C270.473 203.58 272.153 218.367 274.183 228.093C274.388 229.021 274.953 229.83 275.754 230.343C276.554 230.855 277.525 231.029 278.454 230.827L278.706 230.761L337.547 214.239C342.608 212.823 341.137 209.508 339.436 201.955C339.436 201.955 328.063 158.219 328.611 149.426C326.118 141.62 322.717 134.133 318.479 127.119C314.569 120.631 309.216 115.132 302.836 111.048L280.803 97.8745C280.157 97.4958 279.388 97.3871 278.662 97.5721C277.937 97.7571 277.314 98.2208 276.928 98.8625C274.337 103.473 268.815 113.375 265.324 120.873Z" fill="#9A97FF"/>
<path d="M337.657 194.885C337.657 194.885 291.177 158.143 287.445 155.365C279.519 149.393 276.072 143.674 280.397 134.365C285.974 122.399 310.685 135.298 319.28 140.271C327.876 145.244 337.657 194.885 337.657 194.885Z" fill="#7365F0"/>
<path d="M425.194 204.798L427.445 210.847C427.554 211.114 427.61 211.399 427.609 211.688C427.608 211.976 427.551 212.261 427.44 212.527C427.329 212.793 427.166 213.035 426.962 213.238C426.757 213.442 426.515 213.603 426.248 213.712H426.171H426.083C425.524 213.924 424.904 213.907 424.357 213.664C423.811 213.422 423.382 212.973 423.163 212.417L422.735 211.319L422.889 212.603C422.945 213.238 422.795 213.873 422.461 214.415C422.126 214.958 421.626 215.377 421.034 215.611C420.356 215.88 419.6 215.872 418.928 215.589C418.257 215.305 417.724 214.769 417.444 214.096C417.456 214.07 417.462 214.042 417.462 214.014C417.462 213.986 417.456 213.958 417.444 213.932L417.125 212.977L417.235 214.997C417.289 215.572 417.145 216.148 416.828 216.631C416.511 217.113 416.039 217.474 415.49 217.653C414.853 217.871 414.156 217.836 413.544 217.556C412.931 217.277 412.449 216.773 412.196 216.149L411.724 214.964V217.038C411.727 217.618 411.553 218.185 411.226 218.664C410.898 219.142 410.433 219.51 409.891 219.717C409.552 219.85 409.191 219.915 408.827 219.908C408.463 219.901 408.104 219.823 407.77 219.677C407.437 219.531 407.135 219.321 406.883 219.058C406.631 218.796 406.434 218.486 406.301 218.147V218.015C405.684 216.08 404.492 214.378 402.884 213.137C401.276 211.896 399.328 211.173 397.3 211.066C397.3 211.066 385.081 208.959 377.342 207.027C363.071 203.481 354.629 201.11 346.604 196.642C339.809 192.371 326.635 179.747 329.907 172.37L331.411 168.857C334.133 163.818 339.172 166.716 343.585 167.968C346.998 169.184 349.956 171.418 352.06 174.368C352.06 174.368 379.57 189.166 388.66 193.491C392.052 195.138 397.761 197.663 401.976 197.432L418.388 196.576C420.855 196.456 423.32 196.872 425.611 197.794L431.408 200.144C431.99 200.37 432.518 200.718 432.955 201.165C433.393 201.612 433.73 202.147 433.943 202.734L436.611 209.815L434.712 209.672C433.693 209.587 432.719 209.215 431.903 208.599C431.087 207.983 430.463 207.149 430.101 206.192L429.98 205.951L425.194 204.798Z" fill="#FFBA82"/>
<path d="M423.899 211.626C423.976 211.399 423.976 211.152 423.899 210.924L422.801 208.004C422.71 207.707 422.505 207.459 422.231 207.313C421.958 207.167 421.638 207.135 421.341 207.224C421.045 207.313 420.797 207.516 420.651 207.788C420.505 208.059 420.473 208.378 420.561 208.673L420.627 208.827L421.725 211.747C421.771 211.884 421.843 212.011 421.938 212.12C422.033 212.229 422.149 212.319 422.278 212.383C422.408 212.447 422.549 212.485 422.693 212.495C422.838 212.504 422.982 212.485 423.119 212.439H423.174C423.355 212.378 423.517 212.271 423.644 212.129C423.771 211.986 423.859 211.813 423.899 211.626Z" fill="#ED795A"/>
<path d="M418.245 213.723C418.322 213.503 418.322 213.263 418.245 213.042L417.147 210.111C417.095 209.967 417.016 209.835 416.913 209.721C416.809 209.608 416.685 209.516 416.546 209.451C416.408 209.386 416.258 209.348 416.105 209.341C415.951 209.334 415.799 209.357 415.654 209.409C415.51 209.461 415.378 209.541 415.264 209.644C415.151 209.747 415.059 209.871 414.994 210.01C414.929 210.148 414.891 210.299 414.884 210.452C414.877 210.605 414.9 210.758 414.952 210.902L416.05 213.822C416.09 213.96 416.157 214.089 416.247 214.202C416.338 214.314 416.449 214.408 416.576 214.477C416.702 214.546 416.841 214.59 416.984 214.606C417.127 214.621 417.272 214.609 417.411 214.568H417.51C417.692 214.499 417.855 214.386 417.984 214.238C418.112 214.091 418.202 213.914 418.245 213.723Z" fill="#ED795A"/>
<path d="M412.756 215.82C412.831 215.596 412.831 215.353 412.756 215.128L411.658 212.153C411.537 211.9 411.328 211.699 411.07 211.588C410.812 211.477 410.522 211.463 410.255 211.549C409.987 211.634 409.76 211.814 409.614 212.054C409.468 212.294 409.415 212.579 409.463 212.856V212.966L410.561 215.941C410.647 216.219 410.839 216.451 411.097 216.587C411.354 216.723 411.655 216.751 411.933 216.665H412.01C412.194 216.596 412.358 216.483 412.488 216.335C412.618 216.188 412.71 216.011 412.756 215.82Z" fill="#ED795A"/>
<path d="M285.974 128.437C287.169 126.42 288.749 124.658 290.625 123.252C292.501 121.846 294.635 120.823 296.907 120.242C299.178 119.661 301.541 119.533 303.862 119.865C306.183 120.198 308.415 120.984 310.432 122.179C311.748 122.944 312.955 123.882 314.022 124.968L355.2 174.884C359.448 178.946 368.768 184.764 366.77 190.253L367.44 191.164C362.302 200.155 351.873 201.757 343.849 195.193L290.057 151.347C286.781 148.641 284.577 144.855 283.843 140.67C283.108 136.484 283.891 132.174 286.05 128.514L285.974 128.437Z" fill="#FFBA82"/>
<path d="M282.79 125.692C285.306 121.43 289.412 118.341 294.204 117.106C298.997 115.871 304.084 116.59 308.346 119.105C309.726 119.911 310.992 120.897 312.112 122.037L334.88 144.091L311.826 172.908L287.05 149.668C283.587 146.843 281.252 142.87 280.471 138.47C279.689 134.071 280.512 129.536 282.79 125.692Z" fill="#9A97FF"/>
<path d="M312.419 148.197L304.965 145.749C304.69 145.628 304.382 145.604 304.092 145.68C303.801 145.756 303.544 145.927 303.362 146.166C303.172 146.39 303.057 146.669 303.033 146.963C303.009 147.256 303.079 147.55 303.231 147.802L305.821 152.478C305.991 152.81 306.284 153.061 306.637 153.178C306.991 153.295 307.376 153.269 307.71 153.104L312.518 150.842C312.792 150.722 313.025 150.523 313.188 150.272C313.381 149.948 313.441 149.562 313.355 149.196C313.269 148.829 313.044 148.51 312.726 148.307C312.607 148.241 312.482 148.186 312.353 148.142L312.419 148.197Z" fill="white"/>
<path d="M300.64 142.774C300.304 142.601 299.912 142.568 299.552 142.684C299.192 142.799 298.892 143.052 298.719 143.389L295.985 148.021C295.801 148.323 295.738 148.684 295.809 149.03C295.88 149.377 296.081 149.683 296.37 149.887L300.761 152.928C300.996 153.094 301.275 153.185 301.563 153.188C301.85 153.191 302.132 153.106 302.37 152.946C302.609 152.785 302.792 152.555 302.897 152.287C303.002 152.019 303.022 151.726 302.956 151.446L301.353 143.762C301.318 143.554 301.235 143.356 301.111 143.185C300.988 143.014 300.826 142.873 300.64 142.774Z" fill="white"/>
<path d="M295.447 144.903L301.244 139.711C301.389 139.593 301.51 139.447 301.6 139.282C301.689 139.117 301.745 138.936 301.765 138.75C301.784 138.563 301.766 138.374 301.713 138.195C301.659 138.015 301.571 137.847 301.452 137.702C301.315 137.545 301.146 137.418 300.957 137.329C300.768 137.24 300.563 137.192 300.355 137.186L295.008 137.065C294.652 137.07 294.31 137.207 294.05 137.451C293.79 137.695 293.631 138.027 293.603 138.382L293.098 143.696C293.077 143.883 293.093 144.073 293.146 144.255C293.198 144.436 293.286 144.605 293.405 144.752C293.523 144.899 293.67 145.021 293.836 145.111C294.002 145.201 294.184 145.257 294.372 145.277C294.571 145.295 294.773 145.27 294.962 145.203C295.152 145.137 295.324 145.031 295.469 144.892L295.447 144.903Z" fill="white"/>
<path d="M304.724 137.537C305.07 137.675 305.457 137.67 305.801 137.524C306.144 137.378 306.416 137.103 306.557 136.758C306.607 136.632 306.637 136.498 306.645 136.363C306.663 136.064 306.594 135.767 306.447 135.506L303.856 130.83C303.771 130.665 303.653 130.518 303.511 130.398C303.368 130.279 303.204 130.188 303.027 130.132C302.849 130.076 302.662 130.055 302.477 130.072C302.292 130.088 302.111 130.14 301.946 130.226L297.182 132.422C296.908 132.543 296.675 132.741 296.512 132.992C296.318 133.314 296.256 133.699 296.34 134.066C296.424 134.433 296.647 134.752 296.962 134.957C297.08 135.025 297.205 135.076 297.336 135.111L304.724 137.537Z" fill="white"/>
<path d="M308.796 140.227C309.067 140.49 309.429 140.637 309.806 140.637C310.184 140.637 310.546 140.49 310.816 140.227L311.047 139.941L313.791 135.342C313.981 135.039 314.048 134.675 313.979 134.324C313.909 133.973 313.709 133.662 313.418 133.454L309.027 130.435C308.79 130.273 308.511 130.187 308.224 130.187C307.938 130.187 307.658 130.273 307.421 130.434C307.184 130.595 307.001 130.824 306.896 131.09C306.791 131.356 306.769 131.648 306.831 131.928L308.368 139.491C308.431 139.775 308.581 140.032 308.796 140.227Z" fill="white"/>
<path d="M315.943 138.174C315.685 138.042 315.392 137.994 315.105 138.035C314.818 138.076 314.551 138.205 314.34 138.405L308.533 143.597C308.297 143.782 308.131 144.041 308.061 144.333C307.962 144.613 307.962 144.919 308.061 145.2C308.164 145.478 308.352 145.716 308.599 145.882C308.845 146.047 309.137 146.131 309.433 146.122L314.779 146.232C315.131 146.217 315.465 146.073 315.718 145.828C315.971 145.583 316.125 145.254 316.152 144.903L316.657 139.59C316.688 139.31 316.637 139.027 316.511 138.776C316.384 138.524 316.187 138.315 315.943 138.174Z" fill="white"/>
<path d="M578.741 134.903C591.83 134.903 602.442 124.291 602.442 111.202C602.442 98.1118 591.83 87.5005 578.741 87.5005C565.651 87.5005 555.039 98.1118 555.039 111.202C555.039 124.291 565.651 134.903 578.741 134.903Z" fill="#9996FF"/>
<path d="M601.651 105.109C601.905 106.084 602.099 107.074 602.233 108.073C610.938 109.259 616.504 111.092 616.504 113.156C616.504 115.22 610.532 117.163 601.322 118.348C593.847 119.25 586.324 119.686 578.795 119.655C571.245 119.69 563.7 119.257 556.203 118.359C546.982 117.174 541.021 115.285 541.021 113.167C541.021 111.048 546.609 109.27 555.292 108.084C555.426 107.085 555.62 106.095 555.874 105.12C540.362 106.657 529.791 109.72 529.791 113.244C529.791 116.767 541.076 120.039 557.433 121.532C563.888 122.114 571.133 122.443 578.773 122.443C586.414 122.443 593.67 122.114 600.114 121.532C616.482 120.039 627.767 116.888 627.767 113.244C627.767 109.599 617.218 106.646 601.651 105.109Z" fill="#BCF0C2"/>
<path d="M182.914 60.7145C172.127 66.6161 163.668 76.0118 158.928 87.3576L157.138 91.6609L155.338 87.3576C150.601 76.0095 142.141 66.6126 131.351 60.7145C142.145 54.7998 150.604 45.3882 155.338 34.0275L157.138 29.7242L158.928 34.0275C163.662 45.3882 172.121 54.7998 182.914 60.7145Z" fill="#8470FB"/>
<path d="M143.592 118.469C138.167 121.423 133.908 126.134 131.516 131.829L130.616 134.024L129.716 131.829C127.348 126.147 123.121 121.436 117.728 118.469C123.158 115.517 127.418 110.8 129.803 105.098L130.704 102.902L131.604 105.098C133.974 110.781 138.2 115.495 143.592 118.469Z" fill="#9996FF"/>
<path d="M629.074 158.329C635.076 158.329 639.942 153.463 639.942 147.461C639.942 141.459 635.076 136.593 629.074 136.593C623.071 136.593 618.206 141.459 618.206 147.461C618.206 153.463 623.071 158.329 629.074 158.329Z" fill="#8470FB"/>
<path d="M472.223 492.801C476.6 492.801 480.149 489.252 480.149 484.875C480.149 480.497 476.6 476.949 472.223 476.949C467.846 476.949 464.297 480.497 464.297 484.875C464.297 489.252 467.846 492.801 472.223 492.801Z" fill="#8470FB"/>
<path d="M152.824 414.957C152.824 414.957 148.707 430.326 138.707 432.906C125.753 436.276 119.891 430.151 110.296 429.931C104.599 429.722 103.215 431.534 103.215 431.534C103.215 431.534 103.523 421.017 116.96 417.844C132.394 414.255 135.743 427.79 152.824 414.957Z" fill="#FF9659"/>
<path d="M68.262 421.774C68.262 421.774 69.6561 412.992 75.0133 410.797C81.9074 408.107 85.574 411.038 90.9201 410.588C94.0817 410.193 94.7404 409.161 94.7404 409.161C94.7404 409.161 95.3113 415.045 88 417.625C79.7008 420.885 76.9234 413.629 68.262 421.774Z" fill="#FF9659"/>
<path opacity="0.63" d="M308.994 62.6359L304.043 63.8544L302.967 70.1666L289.97 73.4819L284.722 61.3515L318.83 53.8427L319.906 65.523L311.936 67.3344L308.994 62.6359Z" fill="white"/>
<path d="M281.111 65.018C281.472 65.267 281.781 65.5839 282.022 65.9512C282.233 66.2504 282.407 66.5749 282.538 66.9172L286.808 66.3683L284.722 61.5271L281.111 65.018Z" fill="white"/>
<path opacity="0.91" d="M316.876 56.5212L317.546 63.8105L312.968 64.8534L310.86 61.4722C310.663 61.1558 310.387 60.895 310.061 60.7144C309.734 60.5339 309.367 60.4395 308.994 60.4403C308.816 60.4408 308.639 60.463 308.467 60.5061L303.516 61.7247C303.102 61.8271 302.728 62.0477 302.437 62.3596C302.147 62.6715 301.953 63.0612 301.88 63.4811L301.035 68.3882L291.243 70.8912L287.796 62.9213L316.876 56.5212ZM318.83 53.8426L284.722 61.3514L289.97 73.427L302.967 70.1337L304.065 63.8214L309.016 62.6029L311.958 67.3014L319.928 65.4901L318.83 53.8097V53.8426Z" fill="white"/>
</svg>
