<svg xmlns:xlink="http://www.w3.org/1999/xlink" xmlns="http://www.w3.org/2000/svg" viewBox="0 0 256 256" focusable="false" color="var(--token-44dd7634-948b-4475-884c-16fbad7c474d, rgb(255, 251, 245))" style="user-select: none; width: 100%; height: 100%; display: inline-block; fill: var(--token-44dd7634-948b-4475-884c-16fbad7c474d, rgb(255, 251, 245)); color: var(--token-44dd7634-948b-4475-884c-16fbad7c474d, rgb(255, 251, 245)); flex-shrink: 0;" width="256"  height="256" ><g color="var(--token-44dd7634-948b-4475-884c-16fbad7c474d, rgb(255, 251, 245))" weight="fill" fill="#FFFBF5"><path d="M234,80.12A24,24,0,0,0,216,72H160V56a40,40,0,0,0-40-40,8,8,0,0,0-7.16,4.42L75.06,96H32a16,16,0,0,0-16,16v88a16,16,0,0,0,16,16H204a24,24,0,0,0,23.82-21l12-96A24,24,0,0,0,234,80.12ZM32,112H72v88H32Z" fill="#FFFBF5"></path></g></svg>