<svg xmlns="http://www.w3.org/2000/svg" width="100%" height="100%" viewBox="0 0 33 32" fill="none" preserveAspectRatio="xMidYMid meet" aria-hidden="true" role="img">
<path d="M5.5 27C4.33333 27 3.58333 26.3623 3.58333 25.3261C3.58333 24.6087 4.33333 23.971 5.33333 23.2536C6.66667 22.1377 8.41667 20.4638 8.41667 18.1522C8.41667 16.7971 7.33333 16.6377 6.16667 16.2391C3.16667 15.442 1.5 13.4493 1.5 10.8188C1.5 7.71015 4.25 5 7.91667 5C12.0833 5 15.1667 8.26812 15.1667 13.7681C15.1667 21.4203 8.5 27 5.5 27ZM21.9167 27C20.6667 27 20 26.3623 20 25.3261C20 24.6087 20.6667 23.971 21.6667 23.2536C23 22.1377 24.75 20.4638 24.75 18.1522C24.75 16.7971 23.6667 16.6377 22.5 16.2391C19.5 15.442 17.8333 13.4493 17.8333 10.8188C17.8333 7.71015 20.5833 5 24.25 5C28.4167 5 31.5 8.26812 31.5 13.7681C31.5 21.4203 24.8333 27 21.9167 27Z" fill="currentColor"></path>
</svg>