<svg width="100%" height="100%" viewBox="0 0 25 24" fill="none" xmlns="http://www.w3.org/2000/svg">
<rect x="0.5" width="24" height="24" rx="12" fill="url(#paint0_linear_950_42983)"></rect>
<path fill-rule="evenodd" clip-rule="evenodd" d="M12.4984 6.3999C12.9403 6.3999 13.2984 6.75807 13.2984 7.1999V11.1999H17.2984C17.7403 11.1999 18.0984 11.5581 18.0984 11.9999C18.0984 12.4417 17.7403 12.7999 17.2984 12.7999H13.2984V16.7999C13.2984 17.2417 12.9403 17.5999 12.4984 17.5999C12.0566 17.5999 11.6984 17.2417 11.6984 16.7999V12.7999H7.69844C7.25661 12.7999 6.89844 12.4417 6.89844 11.9999C6.89844 11.5581 7.25661 11.1999 7.69844 11.1999L11.6984 11.1999V7.1999C11.6984 6.75807 12.0566 6.3999 12.4984 6.3999Z" fill="url(#paint1_linear_950_42983)" stroke="url(#paint2_linear_950_42983)" stroke-width="2" stroke-linecap="round" stroke-linejoin="round"></path>
<defs>
<linearGradient id="paint0_linear_950_42983" x1="12.5" y1="0" x2="12.5" y2="24" gradientUnits="userSpaceOnUse">
<stop stop-color="#3B3D3D"></stop>
<stop offset="1" stop-color="#191A1A"></stop>
</linearGradient>
<linearGradient id="paint1_linear_950_42983" x1="12.4984" y1="6.3999" x2="12.4984" y2="17.5999" gradientUnits="userSpaceOnUse">
<stop stop-color="#FBFBF8"></stop>
<stop offset="1" stop-color="#F7F5EE"></stop>
</linearGradient>
<linearGradient id="paint2_linear_950_42983" x1="12.4984" y1="6.3999" x2="12.4984" y2="17.5999" gradientUnits="userSpaceOnUse">
<stop stop-color="#FBFBF8"></stop>
<stop offset="1" stop-color="#F7F5EE"></stop>
</linearGradient>
</defs>
</svg>