<svg xmlns="http://www.w3.org/2000/svg" width="100%" height="100%" viewBox="0 0 211 181" fill="none" preserveAspectRatio="xMidYMid meet" aria-hidden="true" role="img">
<path d="M8.666 18.5V12.2H10.115L11.951 16.151L13.76 12.2H15.209V18.5H13.994V14.288L12.419 17.672H11.465L9.881 14.306V18.5H8.666ZM19.286 18.608C18.704 18.608 18.188 18.47 17.738 18.194C17.294 17.918 16.943 17.537 16.685 17.051C16.433 16.559 16.307 15.992 16.307 15.35C16.307 14.708 16.433 14.144 16.685 13.658C16.943 13.166 17.294 12.782 17.738 12.506C18.188 12.23 18.704 12.092 19.286 12.092C19.88 12.092 20.399 12.23 20.843 12.506C21.293 12.782 21.641 13.166 21.887 13.658C22.139 14.144 22.265 14.708 22.265 15.35C22.265 15.992 22.139 16.559 21.887 17.051C21.641 17.537 21.293 17.918 20.843 18.194C20.399 18.47 19.88 18.608 19.286 18.608ZM19.286 17.519C19.646 17.519 19.955 17.432 20.213 17.258C20.471 17.078 20.669 16.826 20.807 16.502C20.951 16.178 21.023 15.794 21.023 15.35C21.023 14.9 20.951 14.516 20.807 14.198C20.669 13.874 20.471 13.625 20.213 13.451C19.955 13.277 19.646 13.19 19.286 13.19C18.938 13.19 18.632 13.277 18.368 13.451C18.11 13.625 17.909 13.874 17.765 14.198C17.621 14.516 17.549 14.9 17.549 15.35C17.549 15.794 17.621 16.178 17.765 16.502C17.909 16.826 18.11 17.078 18.368 17.258C18.632 17.432 18.938 17.519 19.286 17.519Z" fill="#585855"></path>
<path d="M41.606 18.5V13.181H39.77V12.2H44.657V13.181H42.821V18.5H41.606ZM47.9739 18.608C47.5119 18.608 47.0919 18.515 46.7139 18.329C46.3359 18.143 46.0359 17.864 45.8139 17.492C45.5919 17.12 45.4809 16.646 45.4809 16.07V12.2H46.6959V16.079C46.6959 16.391 46.7469 16.655 46.8489 16.871C46.9569 17.081 47.1069 17.237 47.2989 17.339C47.4969 17.441 47.7309 17.492 48.0009 17.492C48.2769 17.492 48.5109 17.441 48.7029 17.339C48.9009 17.237 49.0509 17.081 49.1529 16.871C49.2549 16.655 49.3059 16.391 49.3059 16.079V12.2H50.5209V16.07C50.5209 16.646 50.4069 17.12 50.1789 17.492C49.9509 17.864 49.6419 18.143 49.2519 18.329C48.8679 18.515 48.4419 18.608 47.9739 18.608Z" fill="#585855"></path>
<path d="M69.908 18.5L68.261 12.2H69.557L70.655 17.123L71.951 12.2H73.292L74.543 17.123L75.65 12.2H76.964L75.263 18.5H73.814L72.599 13.91L71.357 18.5H69.908ZM77.8769 18.5V12.2H82.0259V13.181H79.0919V14.828H81.7559V15.773H79.0919V17.519H82.0259V18.5H77.8769Z" fill="#585855"></path>
<path d="M101.606 18.5V13.181H99.77V12.2H104.657V13.181H102.821V18.5H101.606ZM109.558 18.5V12.2H110.773V18.5H109.558ZM105.589 18.5V12.2H106.804V18.5H105.589ZM106.642 15.773V14.792H109.765V15.773H106.642Z" fill="#585855"></path>
<path d="M130.666 18.5V12.2H134.77V13.181H131.881V14.864H134.203V15.818H131.881V18.5H130.666ZM135.755 18.5V12.2H138.113C138.617 12.2 139.034 12.287 139.364 12.461C139.7 12.635 139.949 12.869 140.111 13.163C140.273 13.451 140.354 13.772 140.354 14.126C140.354 14.462 140.273 14.777 140.111 15.071C139.955 15.359 139.709 15.593 139.373 15.773C139.043 15.947 138.617 16.034 138.095 16.034H136.97V18.5H135.755ZM139.022 18.5L137.726 15.728H139.04L140.408 18.5H139.022ZM136.97 15.152H138.032C138.404 15.152 138.677 15.062 138.851 14.882C139.025 14.702 139.112 14.465 139.112 14.171C139.112 13.877 139.025 13.646 138.851 13.478C138.683 13.304 138.41 13.217 138.032 13.217H136.97V15.152Z" fill="#585855"></path>
<path d="M162.335 18.608C161.879 18.608 161.471 18.53 161.111 18.374C160.757 18.218 160.478 17.99 160.274 17.69C160.07 17.39 159.962 17.027 159.95 16.601H161.237C161.243 16.787 161.291 16.955 161.381 17.105C161.471 17.255 161.594 17.375 161.75 17.465C161.912 17.549 162.104 17.591 162.326 17.591C162.518 17.591 162.683 17.561 162.821 17.501C162.965 17.435 163.076 17.345 163.154 17.231C163.238 17.117 163.28 16.982 163.28 16.826C163.28 16.67 163.238 16.532 163.154 16.412C163.076 16.292 162.965 16.19 162.821 16.106C162.677 16.016 162.509 15.935 162.317 15.863C162.125 15.785 161.918 15.71 161.696 15.638C161.156 15.476 160.754 15.257 160.49 14.981C160.226 14.705 160.094 14.345 160.094 13.901C160.094 13.523 160.184 13.199 160.364 12.929C160.544 12.659 160.796 12.452 161.12 12.308C161.444 12.164 161.813 12.092 162.227 12.092C162.653 12.092 163.025 12.167 163.343 12.317C163.667 12.461 163.922 12.671 164.108 12.947C164.3 13.223 164.402 13.547 164.414 13.919H163.109C163.103 13.781 163.061 13.652 162.983 13.532C162.911 13.406 162.809 13.307 162.677 13.235C162.545 13.157 162.389 13.118 162.209 13.118C162.053 13.112 161.909 13.136 161.777 13.19C161.651 13.244 161.552 13.325 161.48 13.433C161.408 13.535 161.372 13.664 161.372 13.82C161.372 13.97 161.408 14.096 161.48 14.198C161.552 14.3 161.654 14.39 161.786 14.468C161.918 14.54 162.074 14.609 162.254 14.675C162.434 14.735 162.629 14.798 162.839 14.864C163.157 14.972 163.445 15.101 163.703 15.251C163.967 15.395 164.177 15.584 164.333 15.818C164.489 16.052 164.567 16.361 164.567 16.745C164.567 17.075 164.48 17.381 164.306 17.663C164.138 17.945 163.889 18.173 163.559 18.347C163.229 18.521 162.821 18.608 162.335 18.608ZM165.253 18.5L167.548 12.2H168.925L171.22 18.5H169.933L168.232 13.586L166.522 18.5H165.253ZM166.261 17.069L166.585 16.124H169.789L170.104 17.069H166.261Z" fill="#585855"></path>
<path d="M192.335 18.608C191.879 18.608 191.471 18.53 191.111 18.374C190.757 18.218 190.478 17.99 190.274 17.69C190.07 17.39 189.962 17.027 189.95 16.601H191.237C191.243 16.787 191.291 16.955 191.381 17.105C191.471 17.255 191.594 17.375 191.75 17.465C191.912 17.549 192.104 17.591 192.326 17.591C192.518 17.591 192.683 17.561 192.821 17.501C192.965 17.435 193.076 17.345 193.154 17.231C193.238 17.117 193.28 16.982 193.28 16.826C193.28 16.67 193.238 16.532 193.154 16.412C193.076 16.292 192.965 16.19 192.821 16.106C192.677 16.016 192.509 15.935 192.317 15.863C192.125 15.785 191.918 15.71 191.696 15.638C191.156 15.476 190.754 15.257 190.49 14.981C190.226 14.705 190.094 14.345 190.094 13.901C190.094 13.523 190.184 13.199 190.364 12.929C190.544 12.659 190.796 12.452 191.12 12.308C191.444 12.164 191.813 12.092 192.227 12.092C192.653 12.092 193.025 12.167 193.343 12.317C193.667 12.461 193.922 12.671 194.108 12.947C194.3 13.223 194.402 13.547 194.414 13.919H193.109C193.103 13.781 193.061 13.652 192.983 13.532C192.911 13.406 192.809 13.307 192.677 13.235C192.545 13.157 192.389 13.118 192.209 13.118C192.053 13.112 191.909 13.136 191.777 13.19C191.651 13.244 191.552 13.325 191.48 13.433C191.408 13.535 191.372 13.664 191.372 13.82C191.372 13.97 191.408 14.096 191.48 14.198C191.552 14.3 191.654 14.39 191.786 14.468C191.918 14.54 192.074 14.609 192.254 14.675C192.434 14.735 192.629 14.798 192.839 14.864C193.157 14.972 193.445 15.101 193.703 15.251C193.967 15.395 194.177 15.584 194.333 15.818C194.489 16.052 194.567 16.361 194.567 16.745C194.567 17.075 194.48 17.381 194.306 17.663C194.138 17.945 193.889 18.173 193.559 18.347C193.229 18.521 192.821 18.608 192.335 18.608ZM198.079 18.608C197.617 18.608 197.197 18.515 196.819 18.329C196.441 18.143 196.141 17.864 195.919 17.492C195.697 17.12 195.586 16.646 195.586 16.07V12.2H196.801V16.079C196.801 16.391 196.852 16.655 196.954 16.871C197.062 17.081 197.212 17.237 197.404 17.339C197.602 17.441 197.836 17.492 198.106 17.492C198.382 17.492 198.616 17.441 198.808 17.339C199.006 17.237 199.156 17.081 199.258 16.871C199.36 16.655 199.411 16.391 199.411 16.079V12.2H200.626V16.07C200.626 16.646 200.512 17.12 200.284 17.492C200.056 17.864 199.747 18.143 199.357 18.329C198.973 18.515 198.547 18.608 198.079 18.608Z" fill="#585855"></path>
<path d="M15.306 49V42.637L13.8675 43.0675V42.3955L15.6 41.65H16.1985V49H15.306Z" fill="#B5B4B0"></path>
<rect x="31" y="31" width="29" height="29" rx="5.5" fill="#F6F6F4"></rect>
<rect x="31" y="31" width="29" height="29" rx="5.5" stroke="white"></rect>
<path d="M42.6195 49V48.244C43.1095 47.866 43.575 47.4845 44.016 47.0995C44.457 46.7145 44.849 46.333 45.192 45.955C45.542 45.57 45.815 45.1955 46.011 44.8315C46.207 44.4605 46.305 44.107 46.305 43.771C46.305 43.533 46.263 43.3125 46.179 43.1095C46.095 42.9065 45.962 42.742 45.78 42.616C45.598 42.483 45.3495 42.4165 45.0345 42.4165C44.7335 42.4165 44.4815 42.483 44.2785 42.616C44.0825 42.749 43.932 42.9275 43.827 43.1515C43.729 43.3685 43.68 43.61 43.68 43.876H42.6615C42.6685 43.372 42.777 42.945 42.987 42.595C43.197 42.245 43.4805 41.979 43.8375 41.797C44.2015 41.615 44.6075 41.524 45.0555 41.524C45.5245 41.524 45.9305 41.6115 46.2735 41.7865C46.6165 41.9545 46.8825 42.203 47.0715 42.532C47.2605 42.854 47.355 43.2495 47.355 43.7185C47.355 44.0545 47.2885 44.3905 47.1555 44.7265C47.0225 45.0555 46.8405 45.3775 46.6095 45.6925C46.3855 46.0075 46.1335 46.312 45.8535 46.606C45.5735 46.893 45.283 47.166 44.982 47.425C44.688 47.684 44.4045 47.9185 44.1315 48.1285H47.586V49H42.6195Z" fill="#B5B4B0"></path>
<path d="M75.108 49.126C74.639 49.126 74.212 49.042 73.827 48.874C73.449 48.699 73.148 48.44 72.924 48.097C72.7 47.754 72.581 47.327 72.567 46.816H73.4595C73.4665 47.096 73.533 47.355 73.659 47.593C73.792 47.824 73.981 48.0095 74.226 48.1495C74.471 48.2895 74.765 48.3595 75.108 48.3595C75.451 48.3595 75.738 48.293 75.969 48.16C76.2 48.027 76.375 47.852 76.494 47.635C76.613 47.411 76.6725 47.1625 76.6725 46.8895C76.6725 46.5605 76.5885 46.291 76.4205 46.081C76.2595 45.871 76.039 45.717 75.759 45.619C75.486 45.514 75.185 45.4615 74.856 45.4615H74.31V44.716H74.856C75.346 44.716 75.731 44.604 76.011 44.38C76.291 44.149 76.431 43.834 76.431 43.435C76.431 43.106 76.319 42.833 76.095 42.616C75.878 42.399 75.549 42.2905 75.108 42.2905C74.674 42.2905 74.331 42.4095 74.079 42.6475C73.834 42.8855 73.694 43.19 73.659 43.561H72.7665C72.7875 43.162 72.896 42.8085 73.092 42.5005C73.288 42.1925 73.5575 41.9545 73.9005 41.7865C74.2435 41.6115 74.646 41.524 75.108 41.524C75.591 41.524 75.997 41.608 76.326 41.776C76.662 41.944 76.9105 42.168 77.0715 42.448C77.2395 42.728 77.3235 43.0395 77.3235 43.3825C77.3235 43.6345 77.278 43.876 77.187 44.107C77.096 44.331 76.956 44.527 76.767 44.695C76.578 44.863 76.34 44.982 76.053 45.052C76.34 45.108 76.5955 45.2165 76.8195 45.3775C77.0505 45.5385 77.2325 45.7485 77.3655 46.0075C77.4985 46.2595 77.565 46.5535 77.565 46.8895C77.565 47.2885 77.4705 47.6595 77.2815 48.0025C77.0995 48.3385 76.8265 48.6115 76.4625 48.8215C76.0985 49.0245 75.647 49.126 75.108 49.126Z" fill="#B5B4B0"></path>
<rect x="91" y="31" width="29" height="29" rx="5.5" fill="#F6F6F4"></rect>
<rect x="91" y="31" width="29" height="29" rx="5.5" stroke="white"></rect>
<path d="M106.106 49V47.4985H102.42V46.6795L105.938 41.65H107.145V46.585H108.195V47.4985H107.145V49H106.106ZM103.565 46.585H106.169V42.805L103.565 46.585Z" fill="#B5B4B0"></path>
<path d="M135.245 49.126C134.748 49.126 134.317 49.0385 133.953 48.8635C133.596 48.6815 133.313 48.44 133.103 48.139C132.893 47.838 132.763 47.495 132.714 47.11H133.575C133.652 47.481 133.834 47.7855 134.121 48.0235C134.415 48.2545 134.793 48.37 135.255 48.37C135.598 48.37 135.892 48.293 136.137 48.139C136.382 47.978 136.571 47.7575 136.704 47.4775C136.837 47.1975 136.904 46.886 136.904 46.543C136.904 46.2 136.837 45.8955 136.704 45.6295C136.571 45.3635 136.386 45.157 136.148 45.01C135.91 44.856 135.626 44.779 135.297 44.779C134.912 44.779 134.583 44.8595 134.31 45.0205C134.037 45.1815 133.827 45.381 133.68 45.619H132.819L133.386 41.65H137.313V42.4165H134.069L133.68 44.7055C133.855 44.5025 134.086 44.3415 134.373 44.2225C134.667 44.0965 135.007 44.0335 135.392 44.0335C135.756 44.0335 136.081 44.0965 136.368 44.2225C136.655 44.3485 136.904 44.527 137.114 44.758C137.324 44.982 137.481 45.248 137.586 45.556C137.698 45.857 137.754 46.1825 137.754 46.5325C137.754 46.8895 137.695 47.2255 137.576 47.5405C137.464 47.8485 137.299 48.1215 137.082 48.3595C136.872 48.5975 136.61 48.7865 136.295 48.9265C135.987 49.0595 135.637 49.126 135.245 49.126Z" fill="#B5B4B0"></path>
<path d="M165.413 49.126C164.888 49.126 164.443 49.028 164.079 48.832C163.722 48.636 163.435 48.3735 163.218 48.0445C163.001 47.7085 162.844 47.3305 162.746 46.9105C162.648 46.4905 162.599 46.06 162.599 45.619C162.599 44.807 162.707 44.0965 162.924 43.4875C163.148 42.8715 163.47 42.392 163.89 42.049C164.317 41.699 164.828 41.524 165.423 41.524C165.885 41.524 166.281 41.6115 166.61 41.7865C166.946 41.9615 167.212 42.196 167.408 42.49C167.604 42.784 167.723 43.113 167.765 43.477H166.946C166.876 43.099 166.704 42.8085 166.431 42.6055C166.165 42.3955 165.826 42.2905 165.413 42.2905C165.042 42.2905 164.709 42.406 164.415 42.637C164.128 42.868 163.897 43.218 163.722 43.687C163.554 44.149 163.46 44.7405 163.439 45.4615C163.439 45.4685 163.439 45.479 163.439 45.493C163.439 45.507 163.439 45.521 163.439 45.535C163.544 45.318 163.694 45.115 163.89 44.926C164.086 44.737 164.324 44.5865 164.604 44.4745C164.884 44.3555 165.192 44.296 165.528 44.296C165.941 44.296 166.326 44.394 166.683 44.59C167.04 44.786 167.327 45.0625 167.544 45.4195C167.768 45.7695 167.88 46.1825 167.88 46.6585C167.88 47.0715 167.779 47.467 167.576 47.845C167.38 48.223 167.096 48.531 166.725 48.769C166.361 49.007 165.924 49.126 165.413 49.126ZM165.35 48.349C165.665 48.349 165.945 48.279 166.19 48.139C166.435 47.999 166.627 47.8065 166.767 47.5615C166.914 47.3095 166.988 47.0225 166.988 46.7005C166.988 46.3715 166.914 46.0845 166.767 45.8395C166.627 45.5945 166.435 45.4055 166.19 45.2725C165.945 45.1325 165.665 45.0625 165.35 45.0625C165.035 45.0625 164.748 45.136 164.489 45.283C164.237 45.423 164.037 45.619 163.89 45.871C163.743 46.116 163.67 46.396 163.67 46.711C163.67 47.033 163.743 47.32 163.89 47.572C164.037 47.817 164.237 48.0095 164.489 48.1495C164.748 48.2825 165.035 48.349 165.35 48.349Z" fill="#B5B4B0"></path>
<path d="M194.086 49L196.826 42.406H192.794V41.65H197.729V42.3115L195.02 49H194.086Z" fill="#B5B4B0"></path>
<path d="M15.1815 79.126C14.7125 79.126 14.289 79.0385 13.911 78.8635C13.54 78.6815 13.2425 78.433 13.0185 78.118C12.8015 77.796 12.693 77.425 12.693 77.005C12.693 76.704 12.749 76.424 12.861 76.165C12.98 75.906 13.141 75.682 13.344 75.493C13.554 75.297 13.799 75.1605 14.079 75.0835C13.701 74.9435 13.4035 74.7265 13.1865 74.4325C12.9765 74.1385 12.8715 73.82 12.8715 73.477C12.8715 73.113 12.966 72.784 13.155 72.49C13.344 72.196 13.61 71.9615 13.953 71.7865C14.296 71.6115 14.7055 71.524 15.1815 71.524C15.6575 71.524 16.067 71.6115 16.41 71.7865C16.753 71.9615 17.0155 72.196 17.1975 72.49C17.3795 72.784 17.4705 73.113 17.4705 73.477C17.4705 73.82 17.3655 74.1385 17.1555 74.4325C16.9525 74.7265 16.662 74.9435 16.284 75.0835C16.557 75.1605 16.795 75.297 16.998 75.493C17.208 75.682 17.369 75.906 17.481 76.165C17.6 76.424 17.6595 76.704 17.6595 77.005C17.6595 77.425 17.551 77.796 17.334 78.118C17.117 78.433 16.8195 78.6815 16.4415 78.8635C16.0635 79.0385 15.6435 79.126 15.1815 79.126ZM15.1815 78.349C15.7135 78.349 16.1125 78.223 16.3785 77.971C16.6445 77.712 16.7775 77.3725 16.7775 76.9525C16.7775 76.4765 16.6305 76.116 16.3365 75.871C16.0495 75.626 15.6645 75.5035 15.1815 75.5035C14.6985 75.5035 14.31 75.626 14.016 75.871C13.722 76.116 13.575 76.4765 13.575 76.9525C13.575 77.3725 13.708 77.712 13.974 77.971C14.24 78.223 14.6425 78.349 15.1815 78.349ZM15.1815 74.7685C15.6085 74.7685 15.948 74.653 16.2 74.422C16.452 74.191 16.578 73.8935 16.578 73.5295C16.578 73.1165 16.452 72.805 16.2 72.595C15.955 72.385 15.6155 72.28 15.1815 72.28C14.7475 72.28 14.4045 72.385 14.1525 72.595C13.9005 72.805 13.7745 73.1165 13.7745 73.5295C13.7745 73.8935 13.9005 74.191 14.1525 74.422C14.4115 74.653 14.7545 74.7685 15.1815 74.7685Z" fill="#B5B4B0"></path>
<rect x="31" y="61" width="29" height="29" rx="5.5" fill="#F6F6F4"></rect>
<rect x="31" y="61" width="29" height="29" rx="5.5" stroke="white"></rect>
<path d="M45.192 79.126C44.716 79.126 44.31 79.035 43.974 78.853C43.638 78.664 43.372 78.4155 43.176 78.1075C42.98 77.7925 42.861 77.453 42.819 77.089H43.7955C43.8655 77.453 44.023 77.7365 44.268 77.9395C44.513 78.1355 44.8245 78.2335 45.2025 78.2335C45.5525 78.2335 45.8605 78.1285 46.1265 77.9185C46.3925 77.7085 46.606 77.39 46.767 76.963C46.928 76.536 47.019 75.997 47.04 75.346C47.047 75.325 47.0505 75.304 47.0505 75.283C47.0505 75.262 47.0505 75.241 47.0505 75.22C46.9385 75.43 46.7845 75.6225 46.5885 75.7975C46.3925 75.9725 46.1615 76.1125 45.8955 76.2175C45.6365 76.3155 45.346 76.3645 45.024 76.3645C44.611 76.3645 44.2225 76.27 43.8585 76.081C43.5015 75.885 43.2075 75.6085 42.9765 75.2515C42.7525 74.8945 42.6405 74.478 42.6405 74.002C42.6405 73.575 42.742 73.1725 42.945 72.7945C43.155 72.4165 43.449 72.112 43.827 71.881C44.212 71.643 44.6635 71.524 45.1815 71.524C45.7205 71.524 46.172 71.6255 46.536 71.8285C46.907 72.0245 47.201 72.294 47.418 72.637C47.642 72.973 47.803 73.351 47.901 73.771C48.006 74.184 48.0585 74.611 48.0585 75.052C48.0585 75.857 47.9465 76.5675 47.7225 77.1835C47.4985 77.7925 47.173 78.2685 46.746 78.6115C46.319 78.9545 45.801 79.126 45.192 79.126ZM45.255 75.472C45.556 75.472 45.8255 75.4055 46.0635 75.2725C46.3015 75.1325 46.4905 74.947 46.6305 74.716C46.7705 74.485 46.8405 74.2295 46.8405 73.9495C46.8405 73.6555 46.7705 73.3965 46.6305 73.1725C46.4905 72.9415 46.298 72.763 46.053 72.637C45.815 72.504 45.5455 72.4375 45.2445 72.4375C44.9505 72.4375 44.6845 72.504 44.4465 72.637C44.2085 72.763 44.0195 72.9415 43.8795 73.1725C43.7465 73.3965 43.68 73.659 43.68 73.96C43.68 74.261 43.7465 74.527 43.8795 74.758C44.0195 74.982 44.2085 75.157 44.4465 75.283C44.6845 75.409 44.954 75.472 45.255 75.472Z" fill="#B5B4B0"></path>
<path d="M72.369 79V73.1515L71.2455 74.338L70.7205 73.8025L72.474 71.9965H73.2405V79H72.369ZM74.5936 75.5035C74.5936 73.792 75.3496 71.8915 77.2711 71.8915C79.1821 71.8915 79.9486 73.792 79.9486 75.5035C79.9486 77.2045 79.1821 79.126 77.2711 79.126C75.3496 79.126 74.5936 77.2045 74.5936 75.5035ZM79.0561 75.5035C79.0561 74.107 78.6046 72.6685 77.2711 72.6685C75.9376 72.6685 75.4861 74.107 75.4861 75.5035C75.4861 76.9 75.9376 78.349 77.2711 78.349C78.6046 78.349 79.0561 76.9 79.0561 75.5035Z" fill="#C8C6C7"></path>
<rect x="91" y="61" width="29" height="29" rx="5.5" fill="#F6F6F4"></rect>
<rect x="91" y="61" width="29" height="29" rx="5.5" stroke="white"></rect>
<path d="M103.607 79V72.8365L102.326 73.162V72.3745L103.995 71.65H104.678V79H103.607ZM107.052 79V72.8365L105.771 73.162V72.3745L107.44 71.65H108.123V79H107.052Z" fill="#B5B4B0"></path>
<path d="M132.306 79V72.637L130.868 73.0675V72.3955L132.6 71.65H133.198V79H132.306ZM134.679 79V78.3805C135.19 77.9885 135.673 77.593 136.128 77.194C136.59 76.795 136.996 76.3995 137.346 76.0075C137.703 75.6085 137.983 75.22 138.186 74.842C138.389 74.464 138.491 74.1 138.491 73.75C138.491 73.491 138.442 73.253 138.344 73.036C138.253 72.812 138.106 72.63 137.903 72.49C137.7 72.35 137.423 72.28 137.073 72.28C136.744 72.28 136.468 72.3535 136.244 72.5005C136.02 72.6405 135.852 72.8295 135.74 73.0675C135.635 73.2985 135.582 73.554 135.582 73.834H134.732C134.739 73.351 134.84 72.938 135.036 72.595C135.239 72.245 135.519 71.979 135.876 71.797C136.233 71.615 136.636 71.524 137.084 71.524C137.532 71.524 137.927 71.608 138.27 71.776C138.613 71.937 138.883 72.182 139.079 72.511C139.275 72.833 139.373 73.2355 139.373 73.7185C139.373 74.0615 139.299 74.4045 139.152 74.7475C139.012 75.0905 138.82 75.4265 138.575 75.7555C138.337 76.0775 138.067 76.389 137.766 76.69C137.472 76.991 137.168 77.2745 136.853 77.5405C136.545 77.8065 136.254 78.048 135.981 78.265H139.625V79H134.679Z" fill="#B5B4B0"></path>
<path d="M162.306 79V72.637L160.868 73.0675V72.3955L162.6 71.65H163.198V79H162.306ZM167.105 79.126C166.636 79.126 166.209 79.042 165.824 78.874C165.446 78.699 165.145 78.44 164.921 78.097C164.697 77.754 164.578 77.327 164.564 76.816H165.456C165.463 77.096 165.53 77.355 165.656 77.593C165.789 77.824 165.978 78.0095 166.223 78.1495C166.468 78.2895 166.762 78.3595 167.105 78.3595C167.448 78.3595 167.735 78.293 167.966 78.16C168.197 78.027 168.372 77.852 168.491 77.635C168.61 77.411 168.669 77.1625 168.669 76.8895C168.669 76.5605 168.585 76.291 168.417 76.081C168.256 75.871 168.036 75.717 167.756 75.619C167.483 75.514 167.182 75.4615 166.853 75.4615H166.307V74.716H166.853C167.343 74.716 167.728 74.604 168.008 74.38C168.288 74.149 168.428 73.834 168.428 73.435C168.428 73.106 168.316 72.833 168.092 72.616C167.875 72.399 167.546 72.2905 167.105 72.2905C166.671 72.2905 166.328 72.4095 166.076 72.6475C165.831 72.8855 165.691 73.19 165.656 73.561H164.763C164.784 73.162 164.893 72.8085 165.089 72.5005C165.285 72.1925 165.554 71.9545 165.897 71.7865C166.24 71.6115 166.643 71.524 167.105 71.524C167.588 71.524 167.994 71.608 168.323 71.776C168.659 71.944 168.907 72.168 169.068 72.448C169.236 72.728 169.32 73.0395 169.32 73.3825C169.32 73.6345 169.275 73.876 169.184 74.107C169.093 74.331 168.953 74.527 168.764 74.695C168.575 74.863 168.337 74.982 168.05 75.052C168.337 75.108 168.592 75.2165 168.816 75.3775C169.047 75.5385 169.229 75.7485 169.362 76.0075C169.495 76.2595 169.562 76.5535 169.562 76.8895C169.562 77.2885 169.467 77.6595 169.278 78.0025C169.096 78.3385 168.823 78.6115 168.459 78.8215C168.095 79.0245 167.644 79.126 167.105 79.126Z" fill="#B5B4B0"></path>
<path d="M192.306 79V72.637L190.868 73.0675V72.3955L192.6 71.65H193.198V79H192.306ZM198.144 79V77.425H194.417V76.7425L197.987 71.65H199.016V76.648H200.108V77.425H199.016V79H198.144ZM195.393 76.648H198.186V72.6265L195.393 76.648Z" fill="#B5B4B0"></path>
<path d="M12.306 109V102.637L10.8675 103.068V102.395L12.6 101.65H13.1985V109H12.306ZM17.2411 109.126C16.7441 109.126 16.3136 109.038 15.9496 108.863C15.5926 108.681 15.3091 108.44 15.0991 108.139C14.8891 107.838 14.7596 107.495 14.7106 107.11H15.5716C15.6486 107.481 15.8306 107.785 16.1176 108.023C16.4116 108.254 16.7896 108.37 17.2516 108.37C17.5946 108.37 17.8886 108.293 18.1336 108.139C18.3786 107.978 18.5676 107.757 18.7006 107.477C18.8336 107.197 18.9001 106.886 18.9001 106.543C18.9001 106.2 18.8336 105.895 18.7006 105.629C18.5676 105.363 18.3821 105.157 18.1441 105.01C17.9061 104.856 17.6226 104.779 17.2936 104.779C16.9086 104.779 16.5796 104.859 16.3066 105.02C16.0336 105.181 15.8236 105.381 15.6766 105.619H14.8156L15.3826 101.65H19.3096V102.416H16.0651L15.6766 104.705C15.8516 104.502 16.0826 104.341 16.3696 104.222C16.6636 104.096 17.0031 104.033 17.3881 104.033C17.7521 104.033 18.0776 104.096 18.3646 104.222C18.6516 104.348 18.9001 104.527 19.1101 104.758C19.3201 104.982 19.4776 105.248 19.5826 105.556C19.6946 105.857 19.7506 106.182 19.7506 106.532C19.7506 106.889 19.6911 107.225 19.5721 107.54C19.4601 107.848 19.2956 108.121 19.0786 108.359C18.8686 108.597 18.6061 108.786 18.2911 108.926C17.9831 109.059 17.6331 109.126 17.2411 109.126Z" fill="#B5B4B0"></path>
<path d="M41.806 109V102.637L40.3675 103.068V102.395L42.1 101.65H42.6985V109H41.806ZM46.9091 109.126C46.3841 109.126 45.9396 109.028 45.5756 108.832C45.2186 108.636 44.9316 108.373 44.7146 108.044C44.4976 107.708 44.3401 107.33 44.2421 106.91C44.1441 106.49 44.0951 106.06 44.0951 105.619C44.0951 104.807 44.2036 104.096 44.4206 103.487C44.6446 102.871 44.9666 102.392 45.3866 102.049C45.8136 101.699 46.3246 101.524 46.9196 101.524C47.3816 101.524 47.7771 101.611 48.1061 101.786C48.4421 101.961 48.7081 102.196 48.9041 102.49C49.1001 102.784 49.2191 103.113 49.2611 103.477H48.4421C48.3721 103.099 48.2006 102.808 47.9276 102.605C47.6616 102.395 47.3221 102.29 46.9091 102.29C46.5381 102.29 46.2056 102.406 45.9116 102.637C45.6246 102.868 45.3936 103.218 45.2186 103.687C45.0506 104.149 44.9561 104.74 44.9351 105.461C44.9351 105.468 44.9351 105.479 44.9351 105.493C44.9351 105.507 44.9351 105.521 44.9351 105.535C45.0401 105.318 45.1906 105.115 45.3866 104.926C45.5826 104.737 45.8206 104.586 46.1006 104.474C46.3806 104.355 46.6886 104.296 47.0246 104.296C47.4376 104.296 47.8226 104.394 48.1796 104.59C48.5366 104.786 48.8236 105.062 49.0406 105.419C49.2646 105.769 49.3766 106.182 49.3766 106.658C49.3766 107.071 49.2751 107.467 49.0721 107.845C48.8761 108.223 48.5926 108.531 48.2216 108.769C47.8576 109.007 47.4201 109.126 46.9091 109.126ZM46.8461 108.349C47.1611 108.349 47.4411 108.279 47.6861 108.139C47.9311 107.999 48.1236 107.806 48.2636 107.561C48.4106 107.309 48.4841 107.022 48.4841 106.7C48.4841 106.371 48.4106 106.084 48.2636 105.839C48.1236 105.594 47.9311 105.405 47.6861 105.272C47.4411 105.132 47.1611 105.062 46.8461 105.062C46.5311 105.062 46.2441 105.136 45.9851 105.283C45.7331 105.423 45.5336 105.619 45.3866 105.871C45.2396 106.116 45.1661 106.396 45.1661 106.711C45.1661 107.033 45.2396 107.32 45.3866 107.572C45.5336 107.817 45.7331 108.009 45.9851 108.149C46.2441 108.282 46.5311 108.349 46.8461 108.349Z" fill="#B5B4B0"></path>
<path d="M72.306 109V102.637L70.8675 103.068V102.395L72.6 101.65H73.1985V109H72.306ZM75.5821 109L78.3226 102.406H74.2906V101.65H79.2256V102.311L76.5166 109H75.5821Z" fill="#B5B4B0"></path>
<rect x="91" y="91" width="29" height="29" rx="5.5" fill="#F6F6F4"></rect>
<rect x="91" y="91" width="29" height="29" rx="5.5" stroke="white"></rect>
<path d="M102.107 109V102.836L100.826 103.162V102.374L102.495 101.65H103.178V109H102.107ZM107.179 109.126C106.696 109.126 106.259 109.038 105.867 108.863C105.482 108.681 105.174 108.429 104.943 108.107C104.719 107.785 104.607 107.411 104.607 106.984C104.607 106.683 104.663 106.406 104.775 106.154C104.887 105.895 105.044 105.671 105.247 105.482C105.45 105.293 105.688 105.157 105.961 105.073C105.597 104.926 105.31 104.709 105.1 104.422C104.89 104.135 104.785 103.82 104.785 103.477C104.785 103.12 104.88 102.794 105.069 102.5C105.258 102.206 105.531 101.972 105.888 101.797C106.245 101.615 106.675 101.524 107.179 101.524C107.683 101.524 108.114 101.615 108.471 101.797C108.828 101.972 109.097 102.206 109.279 102.5C109.468 102.794 109.563 103.12 109.563 103.477C109.563 103.82 109.458 104.138 109.248 104.432C109.045 104.719 108.761 104.933 108.397 105.073C108.67 105.157 108.908 105.293 109.111 105.482C109.314 105.671 109.472 105.895 109.584 106.154C109.696 106.406 109.752 106.683 109.752 106.984C109.752 107.411 109.636 107.785 109.405 108.107C109.181 108.429 108.873 108.681 108.481 108.863C108.096 109.038 107.662 109.126 107.179 109.126ZM107.179 108.223C107.69 108.223 108.072 108.104 108.324 107.866C108.583 107.621 108.712 107.302 108.712 106.91C108.712 106.469 108.572 106.133 108.292 105.902C108.019 105.671 107.648 105.556 107.179 105.556C106.71 105.556 106.336 105.671 106.056 105.902C105.783 106.133 105.646 106.469 105.646 106.91C105.646 107.302 105.772 107.621 106.024 107.866C106.283 108.104 106.668 108.223 107.179 108.223ZM107.179 104.726C107.592 104.726 107.918 104.618 108.156 104.401C108.401 104.184 108.523 103.907 108.523 103.571C108.523 103.186 108.404 102.896 108.166 102.7C107.928 102.504 107.599 102.406 107.179 102.406C106.766 102.406 106.441 102.504 106.203 102.7C105.965 102.896 105.846 103.186 105.846 103.571C105.846 103.907 105.965 104.184 106.203 104.401C106.441 104.618 106.766 104.726 107.179 104.726Z" fill="#B5B4B0"></path>
<path d="M132.306 109V102.637L130.868 103.068V102.395L132.6 101.65H133.198V109H132.306ZM137.178 109.126C136.709 109.126 136.286 109.038 135.908 108.863C135.537 108.681 135.239 108.433 135.015 108.118C134.798 107.796 134.69 107.425 134.69 107.005C134.69 106.704 134.746 106.424 134.858 106.165C134.977 105.906 135.138 105.682 135.341 105.493C135.551 105.297 135.796 105.16 136.076 105.083C135.698 104.943 135.4 104.726 135.183 104.432C134.973 104.138 134.868 103.82 134.868 103.477C134.868 103.113 134.963 102.784 135.152 102.49C135.341 102.196 135.607 101.961 135.95 101.786C136.293 101.611 136.702 101.524 137.178 101.524C137.654 101.524 138.064 101.611 138.407 101.786C138.75 101.961 139.012 102.196 139.194 102.49C139.376 102.784 139.467 103.113 139.467 103.477C139.467 103.82 139.362 104.138 139.152 104.432C138.949 104.726 138.659 104.943 138.281 105.083C138.554 105.16 138.792 105.297 138.995 105.493C139.205 105.682 139.366 105.906 139.478 106.165C139.597 106.424 139.656 106.704 139.656 107.005C139.656 107.425 139.548 107.796 139.331 108.118C139.114 108.433 138.816 108.681 138.438 108.863C138.06 109.038 137.64 109.126 137.178 109.126ZM137.178 108.349C137.71 108.349 138.109 108.223 138.375 107.971C138.641 107.712 138.774 107.372 138.774 106.952C138.774 106.476 138.627 106.116 138.333 105.871C138.046 105.626 137.661 105.503 137.178 105.503C136.695 105.503 136.307 105.626 136.013 105.871C135.719 106.116 135.572 106.476 135.572 106.952C135.572 107.372 135.705 107.712 135.971 107.971C136.237 108.223 136.639 108.349 137.178 108.349ZM137.178 104.768C137.605 104.768 137.945 104.653 138.197 104.422C138.449 104.191 138.575 103.893 138.575 103.529C138.575 103.116 138.449 102.805 138.197 102.595C137.952 102.385 137.612 102.28 137.178 102.28C136.744 102.28 136.401 102.385 136.149 102.595C135.897 102.805 135.771 103.116 135.771 103.529C135.771 103.893 135.897 104.191 136.149 104.422C136.408 104.653 136.751 104.768 137.178 104.768Z" fill="#B5B4B0"></path>
<path d="M162.096 109V102.637L160.836 102.952V102.322L162.39 101.65H162.989V109H162.096ZM166.952 109.126C166.49 109.126 166.095 109.038 165.766 108.863C165.437 108.681 165.174 108.44 164.978 108.139C164.789 107.831 164.674 107.495 164.632 107.131H165.451C165.521 107.523 165.689 107.827 165.955 108.044C166.221 108.254 166.557 108.359 166.963 108.359C167.334 108.359 167.663 108.247 167.95 108.023C168.237 107.799 168.468 107.46 168.643 107.005C168.825 106.543 168.926 105.958 168.947 105.251C168.947 105.23 168.947 105.209 168.947 105.188C168.947 105.167 168.947 105.146 168.947 105.125C168.842 105.342 168.688 105.545 168.485 105.734C168.282 105.923 168.041 106.074 167.761 106.186C167.488 106.298 167.18 106.354 166.837 106.354C166.424 106.354 166.032 106.256 165.661 106.06C165.297 105.864 164.999 105.591 164.768 105.241C164.544 104.884 164.432 104.467 164.432 103.991C164.432 103.578 164.534 103.183 164.737 102.805C164.94 102.427 165.23 102.119 165.608 101.881C165.986 101.643 166.434 101.524 166.952 101.524C167.477 101.524 167.922 101.625 168.286 101.828C168.65 102.024 168.94 102.29 169.157 102.626C169.381 102.955 169.542 103.33 169.64 103.75C169.738 104.17 169.787 104.597 169.787 105.031C169.787 105.836 169.675 106.546 169.451 107.162C169.234 107.778 168.912 108.261 168.485 108.611C168.065 108.954 167.554 109.126 166.952 109.126ZM167.015 105.587C167.337 105.587 167.628 105.514 167.887 105.367C168.146 105.22 168.349 105.02 168.496 104.768C168.65 104.516 168.727 104.24 168.727 103.939C168.727 103.617 168.65 103.333 168.496 103.088C168.349 102.843 168.146 102.651 167.887 102.511C167.628 102.371 167.337 102.301 167.015 102.301C166.693 102.301 166.403 102.374 166.144 102.521C165.892 102.661 165.692 102.854 165.545 103.099C165.398 103.344 165.325 103.627 165.325 103.949C165.325 104.278 165.398 104.565 165.545 104.81C165.692 105.055 165.892 105.248 166.144 105.388C166.403 105.521 166.693 105.587 167.015 105.587Z" fill="#B5B4B0"></path>
<path d="M189.183 109V108.38C189.694 107.988 190.177 107.593 190.632 107.194C191.094 106.795 191.5 106.399 191.85 106.007C192.207 105.608 192.487 105.22 192.69 104.842C192.893 104.464 192.994 104.1 192.994 103.75C192.994 103.491 192.945 103.253 192.847 103.036C192.756 102.812 192.609 102.63 192.406 102.49C192.203 102.35 191.927 102.28 191.577 102.28C191.248 102.28 190.971 102.353 190.747 102.5C190.523 102.64 190.355 102.829 190.243 103.068C190.138 103.298 190.086 103.554 190.086 103.834H189.235C189.242 103.351 189.344 102.938 189.54 102.595C189.743 102.245 190.023 101.979 190.38 101.797C190.737 101.615 191.139 101.524 191.587 101.524C192.035 101.524 192.431 101.608 192.774 101.776C193.117 101.937 193.386 102.182 193.582 102.511C193.778 102.833 193.876 103.235 193.876 103.718C193.876 104.061 193.803 104.404 193.656 104.747C193.516 105.09 193.323 105.426 193.078 105.755C192.84 106.077 192.571 106.389 192.27 106.69C191.976 106.991 191.671 107.274 191.356 107.54C191.048 107.806 190.758 108.048 190.485 108.265H194.128V109H189.183ZM198.036 109.126C197.42 109.126 196.888 108.969 196.44 108.654C195.992 108.331 195.649 107.887 195.411 107.32C195.173 106.746 195.054 106.081 195.054 105.325C195.054 104.569 195.173 103.907 195.411 103.34C195.649 102.766 195.992 102.322 196.44 102.007C196.888 101.685 197.42 101.524 198.036 101.524C198.659 101.524 199.191 101.685 199.632 102.007C200.073 102.322 200.413 102.766 200.651 103.34C200.889 103.907 201.008 104.569 201.008 105.325C201.008 106.081 200.889 106.746 200.651 107.32C200.413 107.887 200.073 108.331 199.632 108.654C199.191 108.969 198.659 109.126 198.036 109.126ZM198.036 108.349C198.435 108.349 198.789 108.23 199.097 107.992C199.405 107.747 199.65 107.4 199.832 106.952C200.014 106.497 200.105 105.955 200.105 105.325C200.105 104.688 200.014 104.145 199.832 103.698C199.65 103.249 199.405 102.906 199.097 102.668C198.789 102.43 198.435 102.311 198.036 102.311C197.637 102.311 197.28 102.43 196.965 102.668C196.65 102.906 196.402 103.249 196.22 103.698C196.045 104.145 195.957 104.688 195.957 105.325C195.957 105.955 196.045 106.497 196.22 106.952C196.402 107.4 196.65 107.747 196.965 107.992C197.28 108.23 197.637 108.349 198.036 108.349Z" fill="#B5B4B0"></path>
<path d="M11.1825 139V138.38C11.6935 137.988 12.1765 137.593 12.6315 137.194C13.0935 136.795 13.4995 136.399 13.8495 136.007C14.2065 135.608 14.4865 135.22 14.6895 134.842C14.8925 134.464 14.994 134.1 14.994 133.75C14.994 133.491 14.945 133.253 14.847 133.036C14.756 132.812 14.609 132.63 14.406 132.49C14.203 132.35 13.9265 132.28 13.5765 132.28C13.2475 132.28 12.971 132.353 12.747 132.5C12.523 132.64 12.355 132.829 12.243 133.068C12.138 133.298 12.0855 133.554 12.0855 133.834H11.235C11.242 133.351 11.3435 132.938 11.5395 132.595C11.7425 132.245 12.0225 131.979 12.3795 131.797C12.7365 131.615 13.139 131.524 13.587 131.524C14.035 131.524 14.4305 131.608 14.7735 131.776C15.1165 131.937 15.386 132.182 15.582 132.511C15.778 132.833 15.876 133.235 15.876 133.718C15.876 134.061 15.8025 134.404 15.6555 134.747C15.5155 135.09 15.323 135.426 15.078 135.755C14.84 136.077 14.5705 136.389 14.2695 136.69C13.9755 136.991 13.671 137.274 13.356 137.54C13.048 137.806 12.7575 138.048 12.4845 138.265H16.128V139H11.1825ZM18.4481 139V132.637L17.0096 133.068V132.395L18.7421 131.65H19.3406V139H18.4481Z" fill="#B5B4B0"></path>
<rect x="31" y="121" width="29" height="29" rx="5.5" fill="#F6F6F4"></rect>
<rect x="31" y="121" width="29" height="29" rx="5.5" stroke="white"></rect>
<path d="M39.6195 139V138.244C40.1095 137.866 40.575 137.484 41.016 137.099C41.457 136.714 41.849 136.333 42.192 135.955C42.542 135.57 42.815 135.195 43.011 134.831C43.207 134.46 43.305 134.107 43.305 133.771C43.305 133.533 43.263 133.312 43.179 133.109C43.095 132.906 42.962 132.742 42.78 132.616C42.598 132.483 42.3495 132.416 42.0345 132.416C41.7335 132.416 41.4815 132.483 41.2785 132.616C41.0825 132.749 40.932 132.927 40.827 133.151C40.729 133.368 40.68 133.61 40.68 133.876H39.6615C39.6685 133.372 39.777 132.945 39.987 132.595C40.197 132.245 40.4805 131.979 40.8375 131.797C41.2015 131.615 41.6075 131.524 42.0555 131.524C42.5245 131.524 42.9305 131.611 43.2735 131.786C43.6165 131.954 43.8825 132.203 44.0715 132.532C44.2605 132.854 44.355 133.249 44.355 133.718C44.355 134.054 44.2885 134.39 44.1555 134.726C44.0225 135.055 43.8405 135.377 43.6095 135.692C43.3855 136.007 43.1335 136.312 42.8535 136.606C42.5735 136.893 42.283 137.166 41.982 137.425C41.688 137.684 41.4045 137.918 41.1315 138.128H44.586V139H39.6195ZM45.6796 139V138.244C46.1696 137.866 46.6351 137.484 47.0761 137.099C47.5171 136.714 47.9091 136.333 48.2521 135.955C48.6021 135.57 48.8751 135.195 49.0711 134.831C49.2671 134.46 49.3651 134.107 49.3651 133.771C49.3651 133.533 49.3231 133.312 49.2391 133.109C49.1551 132.906 49.0221 132.742 48.8401 132.616C48.6581 132.483 48.4096 132.416 48.0946 132.416C47.7936 132.416 47.5416 132.483 47.3386 132.616C47.1426 132.749 46.9921 132.927 46.8871 133.151C46.7891 133.368 46.7401 133.61 46.7401 133.876H45.7216C45.7286 133.372 45.8371 132.945 46.0471 132.595C46.2571 132.245 46.5406 131.979 46.8976 131.797C47.2616 131.615 47.6676 131.524 48.1156 131.524C48.5846 131.524 48.9906 131.611 49.3336 131.786C49.6766 131.954 49.9426 132.203 50.1316 132.532C50.3206 132.854 50.4151 133.249 50.4151 133.718C50.4151 134.054 50.3486 134.39 50.2156 134.726C50.0826 135.055 49.9006 135.377 49.6696 135.692C49.4456 136.007 49.1936 136.312 48.9136 136.606C48.6336 136.893 48.3431 137.166 48.0421 137.425C47.7481 137.684 47.4646 137.918 47.1916 138.128H50.6461V139H45.6796Z" fill="#B5B4B0"></path>
<path d="M69.6825 139V138.38C70.1935 137.988 70.6765 137.593 71.1315 137.194C71.5935 136.795 71.9995 136.399 72.3495 136.007C72.7065 135.608 72.9865 135.22 73.1895 134.842C73.3925 134.464 73.494 134.1 73.494 133.75C73.494 133.491 73.445 133.253 73.347 133.036C73.256 132.812 73.109 132.63 72.906 132.49C72.703 132.35 72.4265 132.28 72.0765 132.28C71.7475 132.28 71.471 132.353 71.247 132.5C71.023 132.64 70.855 132.829 70.743 133.068C70.638 133.298 70.5855 133.554 70.5855 133.834H69.735C69.742 133.351 69.8435 132.938 70.0395 132.595C70.2425 132.245 70.5225 131.979 70.8795 131.797C71.2365 131.615 71.639 131.524 72.087 131.524C72.535 131.524 72.9305 131.608 73.2735 131.776C73.6165 131.937 73.886 132.182 74.082 132.511C74.278 132.833 74.376 133.235 74.376 133.718C74.376 134.061 74.3025 134.404 74.1555 134.747C74.0155 135.09 73.823 135.426 73.578 135.755C73.34 136.077 73.0705 136.389 72.7695 136.69C72.4755 136.991 72.171 137.274 71.856 137.54C71.548 137.806 71.2575 138.048 70.9845 138.265H74.628V139H69.6825ZM78.2501 139.126C77.7811 139.126 77.3541 139.042 76.9691 138.874C76.5911 138.699 76.2901 138.44 76.0661 138.097C75.8421 137.754 75.7231 137.327 75.7091 136.816H76.6016C76.6086 137.096 76.6751 137.355 76.8011 137.593C76.9341 137.824 77.1231 138.009 77.3681 138.149C77.6131 138.289 77.9071 138.359 78.2501 138.359C78.5931 138.359 78.8801 138.293 79.1111 138.16C79.3421 138.027 79.5171 137.852 79.6361 137.635C79.7551 137.411 79.8146 137.162 79.8146 136.889C79.8146 136.56 79.7306 136.291 79.5626 136.081C79.4016 135.871 79.1811 135.717 78.9011 135.619C78.6281 135.514 78.3271 135.461 77.9981 135.461H77.4521V134.716H77.9981C78.4881 134.716 78.8731 134.604 79.1531 134.38C79.4331 134.149 79.5731 133.834 79.5731 133.435C79.5731 133.106 79.4611 132.833 79.2371 132.616C79.0201 132.399 78.6911 132.29 78.2501 132.29C77.8161 132.29 77.4731 132.409 77.2211 132.647C76.9761 132.885 76.8361 133.19 76.8011 133.561H75.9086C75.9296 133.162 76.0381 132.808 76.2341 132.5C76.4301 132.192 76.6996 131.954 77.0426 131.786C77.3856 131.611 77.7881 131.524 78.2501 131.524C78.7331 131.524 79.1391 131.608 79.4681 131.776C79.8041 131.944 80.0526 132.168 80.2136 132.448C80.3816 132.728 80.4656 133.039 80.4656 133.382C80.4656 133.634 80.4201 133.876 80.3291 134.107C80.2381 134.331 80.0981 134.527 79.9091 134.695C79.7201 134.863 79.4821 134.982 79.1951 135.052C79.4821 135.108 79.7376 135.216 79.9616 135.377C80.1926 135.538 80.3746 135.748 80.5076 136.007C80.6406 136.259 80.7071 136.553 80.7071 136.889C80.7071 137.288 80.6126 137.659 80.4236 138.002C80.2416 138.338 79.9686 138.611 79.6046 138.821C79.2406 139.024 78.7891 139.126 78.2501 139.126Z" fill="#B5B4B0"></path>
<rect x="91" y="121" width="29" height="29" rx="5.5" fill="#F6F6F4"></rect>
<rect x="91" y="121" width="29" height="29" rx="5.5" stroke="white"></rect>
<path d="M99.6195 139V138.244C100.11 137.866 100.575 137.484 101.016 137.099C101.457 136.714 101.849 136.333 102.192 135.955C102.542 135.57 102.815 135.195 103.011 134.831C103.207 134.46 103.305 134.107 103.305 133.771C103.305 133.533 103.263 133.312 103.179 133.109C103.095 132.906 102.962 132.742 102.78 132.616C102.598 132.483 102.35 132.416 102.035 132.416C101.734 132.416 101.482 132.483 101.279 132.616C101.083 132.749 100.932 132.927 100.827 133.151C100.729 133.368 100.68 133.61 100.68 133.876H99.6615C99.6685 133.372 99.777 132.945 99.987 132.595C100.197 132.245 100.481 131.979 100.838 131.797C101.202 131.615 101.608 131.524 102.056 131.524C102.525 131.524 102.931 131.611 103.274 131.786C103.617 131.954 103.883 132.203 104.072 132.532C104.261 132.854 104.355 133.249 104.355 133.718C104.355 134.054 104.289 134.39 104.156 134.726C104.023 135.055 103.841 135.377 103.61 135.692C103.386 136.007 103.134 136.312 102.854 136.606C102.574 136.893 102.283 137.166 101.982 137.425C101.688 137.684 101.405 137.918 101.132 138.128H104.586V139H99.6195ZM109.022 139V137.498H105.337V136.679L108.854 131.65H110.062V136.585H111.112V137.498H110.062V139H109.022ZM106.481 136.585H109.085V132.805L106.481 136.585Z" fill="#B5B4B0"></path>
<path d="M129.672 139V138.38C130.169 137.988 130.642 137.593 131.09 137.194C131.545 136.795 131.947 136.399 132.297 136.007C132.647 135.608 132.92 135.22 133.116 134.842C133.319 134.464 133.421 134.1 133.421 133.75C133.421 133.491 133.375 133.253 133.284 133.036C133.193 132.812 133.046 132.63 132.843 132.49C132.647 132.35 132.381 132.28 132.045 132.28C131.716 132.28 131.443 132.353 131.226 132.5C131.009 132.64 130.845 132.829 130.733 133.068C130.628 133.298 130.575 133.554 130.575 133.834H129.725C129.732 133.351 129.833 132.938 130.029 132.595C130.232 132.245 130.509 131.979 130.859 131.797C131.209 131.615 131.608 131.524 132.056 131.524C132.497 131.524 132.885 131.608 133.221 131.776C133.557 131.937 133.82 132.178 134.009 132.5C134.205 132.822 134.302 133.228 134.302 133.718C134.302 134.061 134.229 134.404 134.082 134.747C133.942 135.09 133.753 135.426 133.515 135.755C133.277 136.077 133.011 136.389 132.717 136.69C132.43 136.991 132.133 137.274 131.825 137.54C131.524 137.806 131.24 138.048 130.974 138.265H134.555V139H129.672ZM138.315 139.126C137.811 139.126 137.374 139.035 137.003 138.853C136.639 138.671 136.348 138.422 136.131 138.107C135.921 137.792 135.788 137.439 135.732 137.047H136.593C136.677 137.439 136.87 137.757 137.171 138.002C137.472 138.247 137.857 138.37 138.326 138.37C138.676 138.37 138.973 138.289 139.218 138.128C139.47 137.967 139.663 137.747 139.796 137.467C139.936 137.187 140.006 136.875 140.006 136.532C140.006 136.175 139.936 135.86 139.796 135.587C139.656 135.314 139.463 135.104 139.218 134.957C138.973 134.803 138.686 134.726 138.357 134.726C137.958 134.726 137.619 134.814 137.339 134.989C137.059 135.164 136.849 135.388 136.709 135.661H135.858L136.467 131.65H140.352V132.416H137.15L136.74 134.674C136.915 134.471 137.146 134.306 137.433 134.18C137.727 134.047 138.067 133.981 138.452 133.981C138.816 133.981 139.145 134.044 139.439 134.17C139.733 134.296 139.985 134.474 140.195 134.705C140.405 134.936 140.566 135.206 140.678 135.514C140.797 135.822 140.856 136.158 140.856 136.522C140.856 136.879 140.797 137.215 140.678 137.53C140.566 137.838 140.401 138.114 140.184 138.359C139.967 138.597 139.701 138.786 139.386 138.926C139.071 139.059 138.714 139.126 138.315 139.126Z" fill="#B5B4B0"></path>
<path d="M159.683 139V138.38C160.194 137.988 160.677 137.593 161.132 137.194C161.594 136.795 162 136.399 162.35 136.007C162.707 135.608 162.987 135.22 163.19 134.842C163.393 134.464 163.494 134.1 163.494 133.75C163.494 133.491 163.445 133.253 163.347 133.036C163.256 132.812 163.109 132.63 162.906 132.49C162.703 132.35 162.427 132.28 162.077 132.28C161.748 132.28 161.471 132.353 161.247 132.5C161.023 132.64 160.855 132.829 160.743 133.068C160.638 133.298 160.586 133.554 160.586 133.834H159.735C159.742 133.351 159.844 132.938 160.04 132.595C160.243 132.245 160.523 131.979 160.88 131.797C161.237 131.615 161.639 131.524 162.087 131.524C162.535 131.524 162.931 131.608 163.274 131.776C163.617 131.937 163.886 132.182 164.082 132.511C164.278 132.833 164.376 133.235 164.376 133.718C164.376 134.061 164.303 134.404 164.156 134.747C164.016 135.09 163.823 135.426 163.578 135.755C163.34 136.077 163.071 136.389 162.77 136.69C162.476 136.991 162.171 137.274 161.856 137.54C161.548 137.806 161.258 138.048 160.985 138.265H164.628V139H159.683ZM168.555 139.126C168.03 139.126 167.585 139.028 167.221 138.832C166.864 138.636 166.577 138.373 166.36 138.044C166.143 137.708 165.986 137.33 165.888 136.91C165.79 136.49 165.741 136.06 165.741 135.619C165.741 134.807 165.849 134.096 166.066 133.487C166.29 132.871 166.612 132.392 167.032 132.049C167.459 131.699 167.97 131.524 168.565 131.524C169.027 131.524 169.423 131.611 169.752 131.786C170.088 131.961 170.354 132.196 170.55 132.49C170.746 132.784 170.865 133.113 170.907 133.477H170.088C170.018 133.099 169.846 132.808 169.573 132.605C169.307 132.395 168.968 132.29 168.555 132.29C168.184 132.29 167.851 132.406 167.557 132.637C167.27 132.868 167.039 133.218 166.864 133.687C166.696 134.149 166.602 134.74 166.581 135.461C166.581 135.468 166.581 135.479 166.581 135.493C166.581 135.507 166.581 135.521 166.581 135.535C166.686 135.318 166.836 135.115 167.032 134.926C167.228 134.737 167.466 134.586 167.746 134.474C168.026 134.355 168.334 134.296 168.67 134.296C169.083 134.296 169.468 134.394 169.825 134.59C170.182 134.786 170.469 135.062 170.686 135.419C170.91 135.769 171.022 136.182 171.022 136.658C171.022 137.071 170.921 137.467 170.718 137.845C170.522 138.223 170.238 138.531 169.867 138.769C169.503 139.007 169.066 139.126 168.555 139.126ZM168.492 138.349C168.807 138.349 169.087 138.279 169.332 138.139C169.577 137.999 169.769 137.806 169.909 137.561C170.056 137.309 170.13 137.022 170.13 136.7C170.13 136.371 170.056 136.084 169.909 135.839C169.769 135.594 169.577 135.405 169.332 135.272C169.087 135.132 168.807 135.062 168.492 135.062C168.177 135.062 167.89 135.136 167.631 135.283C167.379 135.423 167.179 135.619 167.032 135.871C166.885 136.116 166.812 136.396 166.812 136.711C166.812 137.033 166.885 137.32 167.032 137.572C167.179 137.817 167.379 138.009 167.631 138.149C167.89 138.282 168.177 138.349 168.492 138.349Z" fill="#B5B4B0"></path>
<path d="M190.183 139V138.38C190.694 137.988 191.177 137.593 191.632 137.194C192.094 136.795 192.5 136.399 192.85 136.007C193.207 135.608 193.487 135.22 193.69 134.842C193.893 134.464 193.994 134.1 193.994 133.75C193.994 133.491 193.945 133.253 193.847 133.036C193.756 132.812 193.609 132.63 193.406 132.49C193.203 132.35 192.927 132.28 192.577 132.28C192.248 132.28 191.971 132.353 191.747 132.5C191.523 132.64 191.355 132.829 191.243 133.068C191.138 133.298 191.086 133.554 191.086 133.834H190.235C190.242 133.351 190.344 132.938 190.54 132.595C190.743 132.245 191.023 131.979 191.38 131.797C191.737 131.615 192.139 131.524 192.587 131.524C193.035 131.524 193.431 131.608 193.774 131.776C194.117 131.937 194.386 132.182 194.582 132.511C194.778 132.833 194.876 133.235 194.876 133.718C194.876 134.061 194.803 134.404 194.656 134.747C194.516 135.09 194.323 135.426 194.078 135.755C193.84 136.077 193.571 136.389 193.27 136.69C192.976 136.991 192.671 137.274 192.356 137.54C192.048 137.806 191.758 138.048 191.485 138.265H195.128V139H190.183ZM197.053 139L199.794 132.406H195.762V131.65H200.697V132.311L197.988 139H197.053Z" fill="#B5B4B0"></path>
<path d="M9.6825 169V168.38C10.1935 167.988 10.6765 167.593 11.1315 167.194C11.5935 166.795 11.9995 166.399 12.3495 166.007C12.7065 165.608 12.9865 165.22 13.1895 164.842C13.3925 164.464 13.494 164.1 13.494 163.75C13.494 163.491 13.445 163.253 13.347 163.036C13.256 162.812 13.109 162.63 12.906 162.49C12.703 162.35 12.4265 162.28 12.0765 162.28C11.7475 162.28 11.471 162.353 11.247 162.5C11.023 162.64 10.855 162.829 10.743 163.068C10.638 163.298 10.5855 163.554 10.5855 163.834H9.735C9.742 163.351 9.8435 162.938 10.0395 162.595C10.2425 162.245 10.5225 161.979 10.8795 161.797C11.2365 161.615 11.639 161.524 12.087 161.524C12.535 161.524 12.9305 161.608 13.2735 161.776C13.6165 161.937 13.886 162.182 14.082 162.511C14.278 162.833 14.376 163.235 14.376 163.718C14.376 164.061 14.3025 164.404 14.1555 164.747C14.0155 165.09 13.823 165.426 13.578 165.755C13.34 166.077 13.0705 166.389 12.7695 166.69C12.4755 166.991 12.171 167.274 11.856 167.54C11.548 167.806 11.2575 168.048 10.9845 168.265H14.628V169H9.6825ZM18.1493 169.126C17.6803 169.126 17.2568 169.038 16.8788 168.863C16.5078 168.681 16.2103 168.433 15.9863 168.118C15.7693 167.796 15.6608 167.425 15.6608 167.005C15.6608 166.704 15.7168 166.424 15.8288 166.165C15.9478 165.906 16.1088 165.682 16.3118 165.493C16.5218 165.297 16.7668 165.16 17.0468 165.083C16.6688 164.943 16.3713 164.726 16.1543 164.432C15.9443 164.138 15.8393 163.82 15.8393 163.477C15.8393 163.113 15.9338 162.784 16.1228 162.49C16.3118 162.196 16.5778 161.961 16.9208 161.786C17.2638 161.611 17.6733 161.524 18.1493 161.524C18.6253 161.524 19.0348 161.611 19.3778 161.786C19.7208 161.961 19.9833 162.196 20.1653 162.49C20.3473 162.784 20.4383 163.113 20.4383 163.477C20.4383 163.82 20.3333 164.138 20.1233 164.432C19.9203 164.726 19.6298 164.943 19.2518 165.083C19.5248 165.16 19.7628 165.297 19.9658 165.493C20.1758 165.682 20.3368 165.906 20.4488 166.165C20.5678 166.424 20.6273 166.704 20.6273 167.005C20.6273 167.425 20.5188 167.796 20.3018 168.118C20.0848 168.433 19.7873 168.681 19.4093 168.863C19.0313 169.038 18.6113 169.126 18.1493 169.126ZM18.1493 168.349C18.6813 168.349 19.0803 168.223 19.3463 167.971C19.6123 167.712 19.7453 167.372 19.7453 166.952C19.7453 166.476 19.5983 166.116 19.3043 165.871C19.0173 165.626 18.6323 165.503 18.1493 165.503C17.6663 165.503 17.2778 165.626 16.9838 165.871C16.6898 166.116 16.5428 166.476 16.5428 166.952C16.5428 167.372 16.6758 167.712 16.9418 167.971C17.2078 168.223 17.6103 168.349 18.1493 168.349ZM18.1493 164.768C18.5763 164.768 18.9158 164.653 19.1678 164.422C19.4198 164.191 19.5458 163.893 19.5458 163.529C19.5458 163.116 19.4198 162.805 19.1678 162.595C18.9228 162.385 18.5833 162.28 18.1493 162.28C17.7153 162.28 17.3723 162.385 17.1203 162.595C16.8683 162.805 16.7423 163.116 16.7423 163.529C16.7423 163.893 16.8683 164.191 17.1203 164.422C17.3793 164.653 17.7223 164.768 18.1493 164.768Z" fill="#B5B4B0"></path>
<rect x="31" y="151" width="29" height="29" rx="5.5" fill="#F6F6F4"></rect>
<rect x="31" y="151" width="29" height="29" rx="5.5" stroke="white"></rect>
<path d="M39.6195 169V168.244C40.1095 167.866 40.575 167.484 41.016 167.099C41.457 166.714 41.849 166.333 42.192 165.955C42.542 165.57 42.815 165.195 43.011 164.831C43.207 164.46 43.305 164.107 43.305 163.771C43.305 163.533 43.263 163.312 43.179 163.109C43.095 162.906 42.962 162.742 42.78 162.616C42.598 162.483 42.3495 162.416 42.0345 162.416C41.7335 162.416 41.4815 162.483 41.2785 162.616C41.0825 162.749 40.932 162.927 40.827 163.151C40.729 163.368 40.68 163.61 40.68 163.876H39.6615C39.6685 163.372 39.777 162.945 39.987 162.595C40.197 162.245 40.4805 161.979 40.8375 161.797C41.2015 161.615 41.6075 161.524 42.0555 161.524C42.5245 161.524 42.9305 161.611 43.2735 161.786C43.6165 161.954 43.8825 162.203 44.0715 162.532C44.2605 162.854 44.355 163.249 44.355 163.718C44.355 164.054 44.2885 164.39 44.1555 164.726C44.0225 165.055 43.8405 165.377 43.6095 165.692C43.3855 166.007 43.1335 166.312 42.8535 166.606C42.5735 166.893 42.283 167.166 41.982 167.425C41.688 167.684 41.4045 167.918 41.1315 168.128H44.586V169H39.6195ZM48.17 169.126C47.694 169.126 47.288 169.035 46.952 168.853C46.616 168.664 46.35 168.415 46.154 168.107C45.958 167.792 45.839 167.453 45.797 167.089H46.7735C46.8435 167.453 47.001 167.736 47.246 167.939C47.491 168.135 47.8025 168.233 48.1805 168.233C48.5305 168.233 48.8385 168.128 49.1045 167.918C49.3705 167.708 49.584 167.39 49.745 166.963C49.906 166.536 49.997 165.997 50.018 165.346C50.025 165.325 50.0285 165.304 50.0285 165.283C50.0285 165.262 50.0285 165.241 50.0285 165.22C49.9165 165.43 49.7625 165.622 49.5665 165.797C49.3705 165.972 49.1395 166.112 48.8735 166.217C48.6145 166.315 48.324 166.364 48.002 166.364C47.589 166.364 47.2005 166.27 46.8365 166.081C46.4795 165.885 46.1855 165.608 45.9545 165.251C45.7305 164.894 45.6185 164.478 45.6185 164.002C45.6185 163.575 45.72 163.172 45.923 162.794C46.133 162.416 46.427 162.112 46.805 161.881C47.19 161.643 47.6415 161.524 48.1595 161.524C48.6985 161.524 49.15 161.625 49.514 161.828C49.885 162.024 50.179 162.294 50.396 162.637C50.62 162.973 50.781 163.351 50.879 163.771C50.984 164.184 51.0365 164.611 51.0365 165.052C51.0365 165.857 50.9245 166.567 50.7005 167.183C50.4765 167.792 50.151 168.268 49.724 168.611C49.297 168.954 48.779 169.126 48.17 169.126ZM48.233 165.472C48.534 165.472 48.8035 165.405 49.0415 165.272C49.2795 165.132 49.4685 164.947 49.6085 164.716C49.7485 164.485 49.8185 164.229 49.8185 163.949C49.8185 163.655 49.7485 163.396 49.6085 163.172C49.4685 162.941 49.276 162.763 49.031 162.637C48.793 162.504 48.5235 162.438 48.2225 162.438C47.9285 162.438 47.6625 162.504 47.4245 162.637C47.1865 162.763 46.9975 162.941 46.8575 163.172C46.7245 163.396 46.658 163.659 46.658 163.96C46.658 164.261 46.7245 164.527 46.8575 164.758C46.9975 164.982 47.1865 165.157 47.4245 165.283C47.6625 165.409 47.932 165.472 48.233 165.472Z" fill="#B5B4B0"></path>
<path d="M71.608 169.126C71.139 169.126 70.712 169.042 70.327 168.874C69.949 168.699 69.648 168.44 69.424 168.097C69.2 167.754 69.081 167.327 69.067 166.816H69.9595C69.9665 167.096 70.033 167.355 70.159 167.593C70.292 167.824 70.481 168.009 70.726 168.149C70.971 168.289 71.265 168.359 71.608 168.359C71.951 168.359 72.238 168.293 72.469 168.16C72.7 168.027 72.875 167.852 72.994 167.635C73.113 167.411 73.1725 167.162 73.1725 166.889C73.1725 166.56 73.0885 166.291 72.9205 166.081C72.7595 165.871 72.539 165.717 72.259 165.619C71.986 165.514 71.685 165.461 71.356 165.461H70.81V164.716H71.356C71.846 164.716 72.231 164.604 72.511 164.38C72.791 164.149 72.931 163.834 72.931 163.435C72.931 163.106 72.819 162.833 72.595 162.616C72.378 162.399 72.049 162.29 71.608 162.29C71.174 162.29 70.831 162.409 70.579 162.647C70.334 162.885 70.194 163.19 70.159 163.561H69.2665C69.2875 163.162 69.396 162.808 69.592 162.5C69.788 162.192 70.0575 161.954 70.4005 161.786C70.7435 161.611 71.146 161.524 71.608 161.524C72.091 161.524 72.497 161.608 72.826 161.776C73.162 161.944 73.4105 162.168 73.5715 162.448C73.7395 162.728 73.8235 163.039 73.8235 163.382C73.8235 163.634 73.778 163.876 73.687 164.107C73.596 164.331 73.456 164.527 73.267 164.695C73.078 164.863 72.84 164.982 72.553 165.052C72.84 165.108 73.0955 165.216 73.3195 165.377C73.5505 165.538 73.7325 165.748 73.8655 166.007C73.9985 166.259 74.065 166.553 74.065 166.889C74.065 167.288 73.9705 167.659 73.7815 168.002C73.5995 168.338 73.3265 168.611 72.9625 168.821C72.5985 169.024 72.147 169.126 71.608 169.126ZM78.2514 169.126C77.6354 169.126 77.1034 168.969 76.6554 168.654C76.2074 168.331 75.8644 167.887 75.6264 167.32C75.3884 166.746 75.2694 166.081 75.2694 165.325C75.2694 164.569 75.3884 163.907 75.6264 163.34C75.8644 162.766 76.2074 162.322 76.6554 162.007C77.1034 161.685 77.6354 161.524 78.2514 161.524C78.8744 161.524 79.4064 161.685 79.8474 162.007C80.2884 162.322 80.6279 162.766 80.8659 163.34C81.1039 163.907 81.2229 164.569 81.2229 165.325C81.2229 166.081 81.1039 166.746 80.8659 167.32C80.6279 167.887 80.2884 168.331 79.8474 168.654C79.4064 168.969 78.8744 169.126 78.2514 169.126ZM78.2514 168.349C78.6504 168.349 79.0039 168.23 79.3119 167.992C79.6199 167.747 79.8649 167.4 80.0469 166.952C80.2289 166.497 80.3199 165.955 80.3199 165.325C80.3199 164.688 80.2289 164.145 80.0469 163.698C79.8649 163.249 79.6199 162.906 79.3119 162.668C79.0039 162.43 78.6504 162.311 78.2514 162.311C77.8524 162.311 77.4954 162.43 77.1804 162.668C76.8654 162.906 76.6169 163.249 76.4349 163.698C76.2599 164.145 76.1724 164.688 76.1724 165.325C76.1724 165.955 76.2599 166.497 76.4349 166.952C76.6169 167.4 76.8654 167.747 77.1804 167.992C77.4954 168.23 77.8524 168.349 78.2514 168.349Z" fill="#B5B4B0"></path>
<path d="M103.608 169.126C103.139 169.126 102.712 169.042 102.327 168.874C101.949 168.699 101.648 168.44 101.424 168.097C101.2 167.754 101.081 167.327 101.067 166.816H101.96C101.967 167.096 102.033 167.355 102.159 167.593C102.292 167.824 102.481 168.009 102.726 168.149C102.971 168.289 103.265 168.359 103.608 168.359C103.951 168.359 104.238 168.293 104.469 168.16C104.7 168.027 104.875 167.852 104.994 167.635C105.113 167.411 105.173 167.162 105.173 166.889C105.173 166.56 105.089 166.291 104.921 166.081C104.76 165.871 104.539 165.717 104.259 165.619C103.986 165.514 103.685 165.461 103.356 165.461H102.81V164.716H103.356C103.846 164.716 104.231 164.604 104.511 164.38C104.791 164.149 104.931 163.834 104.931 163.435C104.931 163.106 104.819 162.833 104.595 162.616C104.378 162.399 104.049 162.29 103.608 162.29C103.174 162.29 102.831 162.409 102.579 162.647C102.334 162.885 102.194 163.19 102.159 163.561H101.267C101.288 163.162 101.396 162.808 101.592 162.5C101.788 162.192 102.058 161.954 102.401 161.786C102.744 161.611 103.146 161.524 103.608 161.524C104.091 161.524 104.497 161.608 104.826 161.776C105.162 161.944 105.411 162.168 105.572 162.448C105.74 162.728 105.824 163.039 105.824 163.382C105.824 163.634 105.778 163.876 105.687 164.107C105.596 164.331 105.456 164.527 105.267 164.695C105.078 164.863 104.84 164.982 104.553 165.052C104.84 165.108 105.096 165.216 105.32 165.377C105.551 165.538 105.733 165.748 105.866 166.007C105.999 166.259 106.065 166.553 106.065 166.889C106.065 167.288 105.971 167.659 105.782 168.002C105.6 168.338 105.327 168.611 104.963 168.821C104.599 169.024 104.147 169.126 103.608 169.126ZM108.387 169V162.637L106.948 163.068V162.395L108.681 161.65H109.279V169H108.387Z" fill="#B5B4B0"></path>
</svg>