<svg xmlns="http://www.w3.org/2000/svg" width="100%" height="100%" viewBox="0 0 13 13" fill="#191a1a" preserveAspectRatio="xMidYMid meet" aria-hidden="true" role="img">
<path d="M9.29688 4.5H10.2969C10.8492 4.5 11.2969 4.94772 11.2969 5.5V8.5C11.2969 9.05228 10.8492 9.5 10.2969 9.5H9.29688V11.5L7.29688 9.5H5.29688C5.02073 9.5 4.77073 9.38807 4.58977 9.20711M4.58977 9.20711L6.29688 7.5H8.29688C8.84916 7.5 9.29688 7.05228 9.29688 6.5V3.5C9.29688 2.94772 8.84916 2.5 8.29688 2.5H3.29688C2.74459 2.5 2.29688 2.94772 2.29688 3.5V6.5C2.29688 7.05228 2.74459 7.5 3.29687 7.5H4.29688V9.5L4.58977 9.20711Z" stroke="white" stroke-linecap="round" stroke-linejoin="round"></path>
</svg>