<svg xmlns="http://www.w3.org/2000/svg" width="100%" height="100%" viewBox="0 0 19 18" fill="none" preserveAspectRatio="xMidYMid meet" aria-hidden="true" role="img">
<path d="M0 6C0 2.68629 2.68629 0 6 0H12.5C15.8137 0 18.5 2.68629 18.5 6V12C18.5 15.3137 15.8137 18 12.5 18H6C2.68629 18 0 15.3137 0 12V6Z" fill="#F0FFF4"></path>
<path d="M11.7249 11.9124C10.358 13.2792 8.14196 13.2792 6.77513 11.9124C6.09171 11.229 5.75 10.3332 5.75 9.4375C5.75 8.54177 6.09171 7.64604 6.77513 6.96262C6.77513 6.96262 7.06252 7.68748 7.93752 8.12498C7.93752 7.24998 8.15627 5.93748 9.24382 5.0625C10.125 5.9375 11.0399 6.27763 11.7249 6.96262C12.4083 7.64604 12.75 8.54177 12.75 9.4375C12.75 10.3332 12.4083 11.229 11.7249 11.9124Z" stroke="#5DB48A" stroke-width="1.125" stroke-linecap="round" stroke-linejoin="round"></path>
<path d="M8.32192 10.8031C8.83449 11.3156 9.66551 11.3156 10.1781 10.8031C10.4344 10.5468 10.5625 10.2109 10.5625 9.87499C10.5625 9.53909 10.4344 9.20319 10.1781 8.9469C9.92342 8.69224 9.59014 8.5641 9.25637 8.56249L8.81248 9.87497L7.9375 9.87499C7.9375 10.2109 8.06564 10.5468 8.32192 10.8031Z" stroke="#5DB48A" stroke-width="1.125" stroke-linecap="round" stroke-linejoin="round"></path>
</svg>