<svg width="13" height="12" viewBox="0 0 13 12" fill="none" xmlns="http://www.w3.org/2000/svg">
<path d="M4.83038 6.00006L5.83038 7.00006L7.83038 5.00006M4.24775 2.34858C4.60652 2.31995 4.94711 2.17888 5.22104 1.94543C5.86029 1.40068 6.80048 1.40068 7.43972 1.94543C7.71366 2.17888 8.05425 2.31995 8.41301 2.34858C9.25023 2.4154 9.91505 3.08021 9.98186 3.91743C10.0105 4.2762 10.1516 4.61679 10.385 4.89072C10.9298 5.52996 10.9298 6.47016 10.385 7.1094C10.1516 7.38333 10.0105 7.72393 9.98186 8.08269C9.91505 8.91991 9.25023 9.58473 8.41301 9.65154C8.05425 9.68017 7.71366 9.82125 7.43972 10.0547C6.80048 10.5994 5.86029 10.5994 5.22104 10.0547C4.94711 9.82125 4.60652 9.68017 4.24775 9.65154C3.41054 9.58473 2.74572 8.91991 2.67891 8.08269C2.65028 7.72392 2.5092 7.38333 2.27576 7.1094C1.731 6.47016 1.731 5.52996 2.27576 4.89072C2.5092 4.61679 2.65028 4.2762 2.67891 3.91743C2.74572 3.08021 3.41054 2.41539 4.24775 2.34858Z" stroke="#51B1FB" stroke-width="1.25" stroke-linecap="round" stroke-linejoin="round"></path>
</svg>