<svg xmlns="http://www.w3.org/2000/svg" width="100%" height="100%" viewBox="0 0 85 87" fill="none" preserveAspectRatio="xMidYMid meet" aria-hidden="true" role="img">
<path d="M24.7738 60.934L23.9996 60.7873C23.9613 60.7821 23.916 60.7462 23.8882 60.7591C23.4769 60.9243 23.0325 60.8283 22.6004 60.9553C22.0658 61.1111 21.7136 61.4703 21.347 61.8127C21.091 62.053 20.9846 62.4235 20.7328 62.7015C20.5145 62.9377 20.442 63.3054 20.3228 63.6202C20.2427 63.8432 20.175 64.0705 20.1201 64.3011C20.087 64.4281 20.0691 64.5587 20.067 64.69C20.0879 65.6143 20.2003 66.5343 20.4026 67.4364C20.4352 67.6815 20.5104 67.9189 20.6248 68.1381C20.7016 68.2772 20.7472 68.4313 20.7585 68.5897C20.8142 69.0037 20.986 69.3934 21.2541 69.7137C21.4925 70.0852 21.7095 70.47 21.9039 70.8663C22.0282 71.0357 22.1433 71.2116 22.2486 71.3932C22.4868 71.8604 22.7658 72.3055 23.0825 72.7234C23.1132 72.7658 23.1394 72.8111 23.1608 72.8587C23.4249 73.4039 23.7988 73.8887 24.259 74.2827C24.7681 74.7203 25.2521 75.1863 25.7089 75.6783C26.0672 76.0726 26.4759 76.4179 26.9245 76.7054C26.9467 76.7196 26.9812 76.7261 26.9915 76.7461C27.2084 77.1328 27.5954 77.2136 27.9741 77.3415C28.2397 77.4585 28.4937 77.6003 28.7327 77.765C29.1472 77.9983 29.4364 77.9783 29.7392 77.6811C29.8039 77.5999 29.8602 77.5121 29.907 77.4194C29.9377 77.3715 29.9752 77.3283 30.0075 77.2825C30.0537 77.3253 30.0971 77.3711 30.1376 77.4193C30.3166 77.6613 30.487 77.9115 30.6727 78.1452C31.0171 78.5791 31.3837 78.9862 31.7696 79.3885C31.9912 79.6298 32.2843 79.7937 32.6059 79.8561C32.8451 79.9167 33.0746 80.0106 33.2876 80.1351C33.7721 80.3872 34.3031 80.4895 34.8059 80.6753C35.1713 80.8084 35.5589 80.8695 35.9475 80.8553C36.0005 80.8541 36.0531 80.8651 36.1012 80.8874C36.582 81.1391 37.1003 81.0759 37.613 81.0938C38.0138 81.1172 38.413 81.1637 38.8085 81.2329C39.0513 81.266 39.2768 81.3991 39.5388 81.3326C39.6411 81.3056 39.7659 81.3859 39.8828 81.4018C40.1 81.4315 40.3188 81.4502 40.5368 81.4744L40.8418 81.516L41.5104 81.5906C41.7582 81.6151 42.01 81.6234 42.255 81.668C42.9808 81.8006 43.7004 81.9788 44.431 82.0767C44.8805 82.1569 45.3375 82.1862 45.7935 82.1641C46.259 82.1198 46.732 82.0337 47.1958 81.9464C47.6886 81.8518 48.1616 81.6839 48.6505 81.5498C48.7837 81.514 48.9293 81.4967 48.9299 81.3015C48.9351 81.2632 49.0198 81.1873 49.0337 81.1948C49.2968 81.3386 49.2189 81.0917 49.2657 80.994C49.3282 80.863 49.3784 80.7267 49.4496 80.6006C49.6952 80.2223 49.8477 79.7912 49.8947 79.3427C49.9515 78.8431 49.9067 78.3372 49.763 77.8554C49.7004 77.652 49.6765 77.4387 49.6926 77.2265C49.7316 76.8724 49.6807 76.5144 49.5446 76.1852C49.4051 75.9132 49.5025 75.6215 49.4847 75.3438C49.4784 75.2537 49.4943 75.1368 49.4444 75.0798C49.1719 74.7599 49.2375 74.3746 49.2491 74.0172C49.2838 73.6027 49.2522 73.1853 49.1557 72.7806C49.1235 72.5475 49.1251 72.3109 49.1605 72.0782C49.1416 71.7762 49.1518 71.4731 49.191 71.173C49.2792 70.7874 49.4102 70.4129 49.5815 70.0564C49.7319 69.7951 49.8242 69.5045 49.8522 69.2043C49.8668 69.0731 49.9012 68.9449 49.9544 68.824C50.1779 68.1812 50.3546 67.5135 50.6106 66.8919C50.842 66.2485 51.1977 65.657 51.6573 65.1508C51.9731 64.8273 52.2647 64.4811 52.5296 64.1149C52.6495 63.9174 52.8063 63.7449 52.9914 63.6069C53.2827 63.4346 53.4579 63.1461 53.7338 62.9643C53.8337 62.8998 53.9103 62.8024 54.0055 62.7317C54.1007 62.661 54.216 62.7289 54.202 62.5726C54.4279 62.5662 54.3723 62.2926 54.5322 62.2251C54.6065 62.1958 54.6741 62.1517 54.731 62.0955C54.7879 62.0394 54.8329 61.9723 54.8632 61.8984C54.9035 61.8071 55.0384 61.7456 55.1432 61.7004C55.4568 61.6047 55.7264 61.401 55.9042 61.1254C56.0192 60.9235 56.2846 60.8054 56.4829 60.6465C56.6068 60.572 56.7195 60.4803 56.8177 60.3741C57.0147 60.1231 57.293 59.9487 57.6048 59.8809C57.7182 59.8514 57.8188 59.7853 57.8908 59.693C57.9609 59.5749 58.0555 59.4734 58.1682 59.3951C58.2809 59.3168 58.4092 59.2635 58.5442 59.2391C58.616 59.2363 58.6843 59.2077 58.7365 59.1584C58.7888 59.1091 58.8213 59.0425 58.8282 58.971C58.8429 58.8633 59.029 58.7808 59.1384 58.6879C59.2478 58.5949 59.439 58.5429 59.4611 58.3264C59.4686 58.2717 59.6325 58.188 59.7191 58.1943C59.9991 58.2139 60.1426 58.0345 60.311 57.864C60.5935 57.579 60.8211 57.2474 61.197 57.0551C61.4495 56.9221 61.7228 56.7456 61.7913 56.4071C61.8275 56.3212 61.8859 56.2463 61.9604 56.1903C62.4643 55.7011 62.8518 55.1105 63.2713 54.5578C63.4902 54.2662 63.6843 53.9567 63.8514 53.6326C64.0702 53.2901 64.3166 52.9661 64.5881 52.6637C64.6716 52.5561 64.766 52.5597 64.8472 52.6731C64.9073 52.7453 64.9589 52.8241 65.0012 52.908C65.1668 53.3026 65.3214 53.6956 65.4931 54.0725C65.5677 54.2125 65.6504 54.348 65.7409 54.4783C65.8916 54.7369 66.0309 55.0107 66.2057 55.2559C66.4416 55.5857 66.7038 55.8986 66.9625 56.211C66.9993 56.2551 67.0824 56.2591 67.1396 56.2762C67.2487 56.3078 67.3586 56.3339 67.4701 56.3621C67.5125 56.2295 67.5314 56.0905 67.5262 55.9513C67.4468 55.6332 67.3479 55.3204 67.23 55.0145C67.0559 54.6324 66.9377 54.2273 66.879 53.8116C66.8665 53.6443 66.7245 53.4854 66.6347 53.3262C66.582 53.2354 66.4723 53.1534 66.4678 53.0635C66.4463 52.5807 66.1574 52.1768 66.0945 51.7107C66.0882 51.6615 66.0551 51.577 66.0348 51.5761C65.8219 51.5824 65.966 51.4123 65.9243 51.3639C65.6969 51.0948 65.847 50.8809 66.0153 50.6974C66.502 50.1836 66.8156 49.5624 67.1328 48.9417C67.1343 48.9308 67.1365 48.9144 67.1506 48.907C67.2536 48.8058 67.3638 48.7073 67.4612 48.6071C67.5192 48.7223 67.5651 48.8433 67.5979 48.9681C67.6505 49.2914 67.6783 49.6188 67.7267 49.9453C67.7852 50.3345 67.8376 50.7268 67.9286 51.1093C67.9559 51.2228 68.017 51.3203 67.9706 51.4423C67.9623 51.4813 67.9613 51.5215 67.9674 51.5609C67.9777 51.7986 68.1138 52.0012 68.1563 51.9345C68.2413 51.8084 68.2868 51.6599 68.2871 51.5079C68.2796 51.386 68.1601 51.2804 68.3626 51.2001C68.4611 51.1597 68.4321 51.059 68.344 51.0228C68.1405 50.9336 68.1955 50.8984 68.3598 50.839C68.3928 50.8217 68.422 50.7979 68.4457 50.7692C68.4695 50.7405 68.4872 50.7075 68.498 50.6718C68.5651 50.4981 68.6128 50.3175 68.6403 50.1333C68.6912 49.6381 68.7235 49.1421 68.758 48.6447C68.7843 48.4489 68.787 48.2508 68.766 48.0544C68.7235 47.7014 68.635 47.3553 68.5029 47.0252C68.4329 46.8971 68.3986 46.7526 68.4035 46.6067C68.4083 46.4608 68.4522 46.3189 68.5306 46.1958C68.8764 45.6516 69.0436 45.0402 69.2813 44.457C69.2943 44.4065 69.3172 44.3591 69.3487 44.3175C69.3723 44.2946 69.4564 44.2912 69.4688 44.3096C69.5539 44.428 69.6314 44.5517 69.7009 44.6799C69.8489 44.9586 69.9771 45.2457 70.1333 45.5182C70.2683 45.8169 70.4618 46.0856 70.7024 46.3082C70.7767 46.3637 70.8331 46.4398 70.8645 46.5271C70.8959 46.6144 70.9009 46.709 70.8791 46.7991C70.7756 47.5568 70.6594 48.3128 70.569 49.0704C70.5264 49.3827 70.5424 49.7011 70.5311 50.0157C70.5221 50.0815 70.5555 50.1641 70.5268 50.2104C70.1979 50.7123 70.2996 51.3436 70.0101 51.8565C69.9215 52.0155 69.8817 52.1979 69.7982 52.3595C69.3241 53.2712 69.0379 54.2644 68.5847 55.1864C68.4621 55.4791 68.3777 55.7863 68.3334 56.1006C68.2993 56.2689 68.3993 56.3403 68.5421 56.2612C68.8263 56.114 69.1561 56.0009 69.307 55.6718C69.3283 55.6391 69.3561 55.6112 69.3889 55.59C70.0375 55.048 70.4003 54.2979 70.7688 53.5745C71.0458 53.0302 71.1678 52.4088 71.3505 51.82C71.4672 51.4416 71.566 51.059 71.6738 50.6776C71.6808 50.6264 71.7313 50.5701 71.7203 50.5277C71.5814 50.0196 71.8289 49.5419 71.8318 49.0439C71.831 48.9545 71.8092 48.8547 71.8131 48.7716C71.8225 48.6073 71.8416 48.4407 71.8658 48.2767C71.8839 48.2658 71.9039 48.2587 71.9248 48.2558C71.9456 48.2529 71.9668 48.2542 71.9872 48.2597C72.0523 48.3026 72.108 48.3583 72.1508 48.4235C72.5245 48.9489 72.9512 49.4347 73.4241 49.8731C73.7589 50.2472 74.1332 50.5839 74.5405 50.8774C74.7794 51.0346 75.0395 51.1594 75.2921 51.298C75.3661 51.3265 75.4372 51.3617 75.5047 51.4032C75.8012 51.6427 76.19 51.6419 76.5204 51.7967C76.5459 51.804 76.5724 51.8076 76.5989 51.8074C76.7523 51.8284 76.9204 51.8774 77.0264 51.7003C77.1175 51.5509 77.0698 51.3826 76.9079 51.2061C76.7383 51.0072 76.5399 50.8347 76.3194 50.6943C75.9787 50.4699 75.6526 50.2241 75.343 49.9584C75.3315 49.9508 75.322 49.9406 75.3154 49.9286C75.0797 49.4891 74.6701 49.2063 74.324 48.8801C74.258 48.819 74.2178 48.7316 74.1567 48.6619C74.0635 48.5543 73.9812 48.3943 73.8618 48.3557C73.5056 48.2401 73.442 47.9432 73.2988 47.6707C73.1446 47.3964 72.971 47.1334 72.7795 46.8837C72.6402 46.6917 72.478 46.5171 72.3301 46.3332C72.2807 46.2714 72.2349 46.2068 72.1929 46.1397C72.0518 45.9196 71.9066 45.7026 71.7736 45.478C71.6406 45.2534 71.5269 45.024 71.4055 44.7954C71.3476 44.6491 71.2716 44.5105 71.1791 44.3832C70.7384 43.8925 70.397 43.321 70.1739 42.7004C70.0729 42.4696 70.0468 42.2131 70.0992 41.9668C70.2396 41.4019 70.3241 40.8238 70.491 40.2682C70.6374 39.7823 70.6702 39.2827 70.7672 38.7901C70.7948 38.677 70.8106 38.5613 70.8143 38.445C70.7842 38.1283 70.8221 37.8088 70.9255 37.508C70.9531 37.433 70.9682 37.354 70.9704 37.2742C71.0317 36.6975 71.0562 36.1175 71.0438 35.5378C71.0338 35.1171 71.049 34.6962 71.0894 34.2774C71.1355 33.9116 71.1233 33.5409 71.0534 33.1789C71.0234 33.0576 71.0032 32.9061 71.1367 32.8685C71.2701 32.8309 71.3055 32.9939 71.3586 33.096C71.5296 33.4373 71.7068 33.7739 71.8622 34.1206C71.9235 34.2573 72.0851 34.259 72.1445 34.4233C72.284 34.765 72.4449 35.0975 72.626 35.419C72.7142 35.591 72.7332 35.8056 72.947 35.9017C72.9838 35.9179 73.0023 35.9874 73.0198 36.0363C73.2423 36.6544 73.4648 37.2724 73.6776 37.8929C73.7067 38.0724 73.7484 38.2497 73.8024 38.4233C73.9499 38.6993 74.0686 38.9897 74.1565 39.29C74.2436 39.592 74.3811 39.8786 74.4836 40.1772C74.6386 40.6224 74.7954 41.0678 74.929 41.5194C75.047 41.9224 75.1246 42.3347 75.2371 42.7369C75.3797 43.2455 75.5399 43.7472 75.6906 44.2514C75.7236 44.3638 75.7446 44.482 75.7836 44.5915C75.804 44.6463 75.8483 44.7305 75.8888 44.7341C76.1441 44.7578 76.0666 44.7937 75.9042 44.8664C75.8725 44.8807 75.8565 44.9845 75.8698 45.0365C75.9588 45.3927 76.0632 45.7455 76.154 46.102C76.2256 46.3814 76.2815 46.6662 76.3529 46.9475C76.3881 47.0844 76.4022 47.2945 76.5783 47.2721C76.7847 47.2445 76.7299 47.0194 76.7233 46.8771C76.6856 46.0908 76.633 45.3044 76.5859 44.5187C76.5657 44.1626 76.5603 43.8065 76.5154 43.4545C76.4633 43.0326 76.3768 42.6173 76.3147 42.1996C76.2704 42.0091 76.2434 41.8149 76.234 41.6195C76.2265 41.1756 76.1457 40.7359 75.995 40.3184C75.9341 40.1031 75.885 39.8848 75.8481 39.6642C75.8453 39.6376 75.8402 39.6114 75.8328 39.5858C75.669 39.1914 75.5016 38.7966 75.336 38.402C75.295 38.3072 75.2405 38.216 75.2073 38.1185C75.0595 37.6569 74.9155 37.1952 74.7752 36.7334C74.7505 36.6458 74.731 36.5568 74.7167 36.4669C74.6914 36.3388 74.7109 36.1685 74.6351 36.0838C74.3105 35.7363 74.3236 35.2322 74.0595 34.8502C73.7955 34.4682 73.5488 34.0273 73.3085 33.6076C73.1267 33.2908 72.9527 32.9714 72.7964 32.645C72.5934 32.2249 72.3484 31.8399 72.1512 31.4038C72.0275 31.1247 71.7614 30.9079 71.6471 30.6282C71.4908 30.2947 71.2262 30.0239 70.8964 29.8599C70.838 29.8175 70.791 29.7614 70.7597 29.6964C70.7283 29.6314 70.7135 29.5596 70.7166 29.4876C70.6979 29.0432 70.5967 28.6062 70.4183 28.1989C70.4841 27.7168 70.1772 27.3216 70.1235 26.8567C70.0399 26.3777 69.9077 25.9085 69.7288 25.4563C69.6567 25.2493 69.4854 25.0734 69.4171 24.8651C69.1764 24.0438 68.8419 23.253 68.4202 22.5083C68.3275 22.3562 68.3304 22.1445 68.2398 21.9908C68.0522 21.6751 67.8325 21.3772 67.6208 21.0749C67.5884 21.0338 67.5602 20.9894 67.5366 20.9426C67.5242 20.9111 67.524 20.8441 67.5401 20.8352C67.582 20.8112 67.6317 20.8045 67.6784 20.8168C67.7845 20.8708 67.8841 20.9369 67.9752 21.0136C68.4822 21.4548 68.9874 21.8957 69.4849 22.3523C69.6108 22.4676 69.7236 22.5965 69.8211 22.7367C70.093 23.129 70.5165 23.3785 70.7752 23.7858C70.9283 23.9822 71.0989 24.1642 71.285 24.3296C71.7066 24.7833 72.0095 25.3306 72.4539 25.767C72.6847 25.9907 72.8541 26.27 72.9458 26.578C73.001 26.727 73.0785 26.8668 73.1756 26.9926C73.4562 27.3898 73.7508 27.7796 74.0331 28.1771C74.0871 28.2674 74.1333 28.362 74.1712 28.4601C74.2706 28.7446 74.4026 29.0167 74.5645 29.2708C74.8747 29.6554 74.9938 30.118 75.192 30.5468C75.3369 30.8474 75.4415 31.1574 75.5831 31.4557C75.8894 32.1001 76.2253 32.7318 76.5119 33.3847C76.8078 34.0549 77.0535 34.7462 77.2469 35.4528C77.3821 35.9474 77.5587 36.4253 77.7147 36.9171C77.7178 36.9297 77.7217 36.942 77.7264 36.954C78.0515 37.5564 78.0644 38.2388 78.2185 38.8811C78.2305 38.9292 78.2321 39.0131 78.2587 39.0223C78.4253 39.0823 78.5677 39.1296 78.3082 39.2728C78.2898 39.2851 78.3064 39.3674 78.3127 39.4166C78.3539 39.7421 78.3986 40.0681 78.4397 40.3937C78.4403 40.4733 78.45 40.5527 78.4688 40.6301C78.6281 41.064 78.6967 41.526 78.6704 41.9874C78.6767 42.2384 78.71 42.488 78.7696 42.7319C78.8349 43.0882 78.8479 43.4521 78.8082 43.8121C78.8069 43.891 78.8155 43.9696 78.8339 44.0462C78.9312 44.4642 78.9354 44.8985 78.8462 45.3182C78.8333 45.4231 78.8383 45.5295 78.8609 45.6327C78.9157 46.2514 78.9154 46.8738 78.86 47.4925C78.8235 47.9915 78.8514 48.4956 78.8407 48.9964C78.8315 49.4043 78.7983 49.8108 78.7948 50.2176C78.7906 50.589 78.8047 50.9629 78.8202 51.3258C78.8153 51.3624 78.8809 51.3992 78.9132 51.4353C78.9456 51.4025 78.9978 51.3742 79.009 51.333C79.1296 50.9533 79.2411 50.5724 79.3508 50.1912C79.5069 49.688 79.6902 49.1904 79.6485 48.6509C79.8704 48.2516 79.6723 47.7819 79.8717 47.3702C79.9443 47.1953 79.959 47.0018 79.9136 46.818C79.8854 46.7185 79.8771 46.6144 79.8892 46.5117C79.9013 46.409 79.9336 46.3096 79.9842 46.2194C79.9991 46.1909 80.0072 46.1592 80.0077 46.127C80.0082 46.0948 80.0012 46.0629 79.9872 46.0339C79.8006 45.8336 79.9462 45.6396 79.9717 45.4385C80.0139 45.1299 80.1198 44.817 79.9503 44.5056C79.9306 44.4297 79.937 44.3493 79.9684 44.2774C80.108 43.7999 80.0097 43.3345 79.9039 42.87C79.8914 42.8136 79.8855 42.7561 79.8864 42.6984C79.8891 42.5425 79.9087 42.3852 79.9038 42.2302C79.8924 41.8232 79.8886 41.4153 79.8468 41.0135C79.8049 40.6116 79.7201 40.2113 79.6597 39.8088C79.6167 39.524 79.5793 39.2398 79.5426 38.9502C79.5347 38.8989 79.5491 38.834 79.5223 38.7987C79.3221 38.5352 79.3889 38.2226 79.3418 37.9279C79.2973 37.7082 79.2406 37.4912 79.172 37.2779C79.0154 36.7079 78.8339 36.1436 78.7136 35.5674C78.669 35.3493 78.5834 35.1591 78.5182 34.9549C78.3887 34.5411 78.2853 34.1271 78.1493 33.7199C78.0777 33.5092 77.9509 33.3207 77.8721 33.1073C77.6931 32.6476 77.5398 32.1766 77.353 31.7196C77.2538 31.4907 77.1329 31.2718 76.9921 31.0659C76.775 30.7707 76.6389 30.4239 76.5975 30.0598C76.604 30.0123 76.5527 29.9662 76.5274 29.92C76.1729 29.2467 75.8042 28.5826 75.4697 27.899C75.2787 27.4986 75.0411 27.1221 74.7617 26.7775C74.6532 26.6456 74.7108 26.4284 74.5458 26.3017C74.436 26.2072 74.3382 26.0996 74.2548 25.9812C74.1535 25.8613 74.0641 25.732 73.9876 25.595C73.8734 25.327 73.693 25.0925 73.4632 24.9134C73.333 24.8045 73.2249 24.6716 73.1446 24.5221C72.696 23.8238 72.1576 23.1875 71.5431 22.6296C71.0492 22.1604 70.559 21.6639 70.0762 21.1814C70.0137 21.0957 69.9361 21.0221 69.8474 20.9641C69.5079 20.7891 69.1951 20.5666 68.9183 20.3035C68.3211 19.8451 67.6734 19.4565 66.9878 19.1454C66.8278 19.064 66.8074 19.0092 66.9202 18.8777C67.033 18.7461 67.2007 18.5941 67.334 18.4487C67.4673 18.3032 67.5555 18.1888 67.6634 18.0659C67.7713 17.943 67.8684 17.8037 67.9856 17.7899C68.2541 17.7578 68.4081 17.5835 68.5927 17.4302C69.0031 17.0496 69.5455 16.8435 70.1051 16.8556C70.405 16.8453 70.7038 16.8974 70.9825 17.0088C71.2453 17.0996 71.5221 17.1431 71.8 17.1372C71.9519 17.1219 72.0955 17.0609 72.212 16.9622C72.3284 16.8635 72.4121 16.7318 72.452 16.5845C72.4553 16.5134 72.4771 16.4444 72.5153 16.3843C72.5535 16.3243 72.6068 16.2753 72.6699 16.2422C72.8709 16.1321 72.8678 15.9233 72.8615 15.7104C72.83 14.8785 72.5118 14.1171 72.2958 13.3288C72.2925 13.3162 72.2872 13.3042 72.2801 13.2933C72.0641 12.9776 71.9025 12.6279 71.802 12.2589C71.7254 11.962 71.553 11.6986 71.4724 11.39C71.3918 11.0815 71.1641 10.8421 70.9951 10.5809C70.9617 10.5262 70.9005 10.4843 70.873 10.4266C70.5972 9.83098 70.078 9.43836 69.6532 8.9805C69.6202 8.93897 69.5804 8.90336 69.5355 8.87516C69.4798 8.8471 69.3813 8.80574 69.3559 8.82831C69.3311 8.85479 69.3118 8.88604 69.2991 8.92009C69.2865 8.95413 69.2808 8.99031 69.2824 9.02659C69.2954 9.438 69.399 9.84143 69.586 10.2081C69.6644 10.3603 69.7267 10.5203 69.7719 10.6855C69.8282 10.8457 69.8668 11.0127 69.9352 11.1653C70.2925 11.9673 70.5987 12.7903 70.9914 13.5786C71.2301 14.1226 71.4372 14.6799 71.6116 15.2478C71.6376 15.323 71.6569 15.4003 71.6693 15.4789C71.6904 15.597 71.6225 15.6584 71.5162 15.6606C71.4501 15.6664 71.3836 15.663 71.3186 15.6505C70.9282 15.5804 70.5389 15.5031 70.1484 15.4349C70.0461 15.41 69.9398 15.4056 69.8358 15.422C69.4049 15.5268 68.9643 15.5932 68.5734 15.8411C68.1092 16.1349 67.5988 16.359 67.1439 16.667C66.8445 16.9036 66.5641 17.1632 66.3051 17.4434C66.2859 17.4612 66.2764 17.4897 66.2573 17.5075C66.1637 17.5933 66.0771 17.7377 65.9274 17.6485C65.7778 17.5592 65.8772 17.4166 65.9065 17.2979C65.9809 17.0729 66.0378 16.8425 66.0768 16.6088C66.0851 16.3986 66.0558 16.1887 65.9903 15.9888C65.9528 15.8553 65.9015 15.7814 66.0564 15.6686C66.1731 15.5629 66.2434 15.4154 66.2519 15.2582C66.2746 15.0634 66.3313 14.8742 66.4194 14.699C66.4832 14.5008 66.5291 14.2973 66.5563 14.0909C66.5766 13.9351 66.6069 13.7808 66.6472 13.629C66.7975 13.2357 66.9928 12.861 67.2293 12.5126C67.2848 12.4388 67.3483 12.3713 67.4186 12.3115C67.7836 11.967 68.1505 11.6229 68.514 11.2763C68.5725 11.2229 68.6214 11.1596 68.6585 11.0895C68.6848 11.0382 68.6972 10.9808 68.6945 10.9232C68.6919 10.8655 68.6742 10.8096 68.6433 10.7609C68.6124 10.7122 68.5693 10.6723 68.5183 10.6453C68.4673 10.6183 68.4101 10.6052 68.3524 10.607C68.1667 10.6048 67.9822 10.6363 67.8078 10.7001C67.2711 10.9007 66.7842 11.2149 66.3801 11.6211C65.7747 12.2824 65.2841 13.0152 65.1677 13.9497C65.125 14.2619 64.9507 14.5579 64.8405 14.8609C64.8003 14.9581 64.772 15.0598 64.7564 15.1638C64.718 15.5677 64.5207 15.95 64.5916 16.3707C64.5911 16.4109 64.5806 16.4503 64.5611 16.4855C64.5079 16.6438 64.4226 16.6693 64.3025 16.5544C63.9307 16.1986 63.5807 15.8198 63.1888 15.4892C62.521 14.9312 61.9702 14.2385 61.1695 13.8502C61.1251 13.8212 61.0848 13.7863 61.0497 13.7464C60.7446 13.4611 60.4533 13.1703 60.0318 13.0291C59.7486 12.9292 59.4889 12.7722 59.2689 12.5679C59.0873 12.3998 58.8584 12.3872 58.6812 12.2681C58.341 12.0357 57.9131 11.9959 57.6485 11.6585C57.6246 11.6292 57.584 11.5864 57.5556 11.59C57.1457 11.6363 56.8429 11.3607 56.4759 11.2566C56.1088 11.1526 55.7206 11.094 55.4064 10.8484C55.3852 10.8313 55.3593 10.8212 55.3322 10.8196C54.9419 10.8314 54.6365 10.5889 54.2871 10.478C54.1619 10.4398 54.0341 10.4105 53.9047 10.3904C53.437 10.3154 52.9701 10.248 52.5039 10.175C52.4415 10.1631 52.3817 10.1404 52.327 10.1081C52.1058 9.98493 51.8846 9.86171 51.619 9.98168C51.6059 9.98357 51.5926 9.98176 51.5806 9.97645C51.2928 9.87764 50.9868 9.91213 50.7009 9.86752C50.3093 9.81809 49.9148 9.79465 49.5201 9.79742C49.4275 9.80256 49.3346 9.79863 49.2428 9.78562C48.7593 9.66197 48.2595 9.79457 47.7674 9.69391C47.4878 9.87521 47.1859 9.64804 46.8879 9.74685C46.6073 9.81894 46.3197 9.86071 46.0302 9.87151C45.7812 9.89703 45.5313 9.90203 45.2799 9.91793C45.2157 9.91498 45.1514 9.92382 45.0904 9.94409C44.5907 10.1846 44.015 10.0149 43.5168 10.2445C42.8794 10.1723 42.3572 10.5642 41.7732 10.6872C41.6258 10.7436 41.472 10.7813 41.3152 10.7995C41.0016 10.7808 40.7527 10.9421 40.489 11.0475C40.3016 11.141 40.1229 11.2511 39.955 11.3764C39.9133 11.4079 39.866 11.431 39.8155 11.4447C39.2947 11.5422 38.7922 11.7202 38.3262 11.9723C37.8476 12.1953 37.319 12.3481 36.9337 12.7587C36.8488 12.8494 36.6626 12.837 36.5416 12.906C35.9945 13.2219 35.4666 13.5739 34.9094 13.868C34.2662 14.2061 33.7227 14.6861 33.1063 15.0595C32.8807 15.2205 32.6738 15.4061 32.4895 15.6132C32.1276 15.9618 31.7441 16.1549 31.2026 16.0345C30.914 15.9691 30.6492 15.8381 30.3515 15.7974C29.8567 15.7299 29.3695 15.6206 28.8784 15.5257C28.8273 15.5187 28.7579 15.5093 28.7329 15.4742C28.4823 15.1443 28.0811 15.2215 27.7513 15.117C27.415 14.9948 27.0564 14.9459 26.6997 14.9734C26.3486 15.0082 25.9943 14.9856 25.6505 14.9065C24.9193 14.7453 24.1655 14.6814 23.4213 14.5873C22.7987 14.5023 22.1725 14.4298 21.5468 14.3816C21.1619 14.3532 20.7725 14.3856 20.3855 14.3867C20.2402 14.3904 20.0948 14.3868 19.9499 14.3757C19.2014 14.3255 18.4499 14.4073 17.7297 14.6175C17.5039 14.6778 17.2602 14.678 17.0336 14.7437C16.7704 14.8134 16.516 14.9129 16.2753 15.0402C15.935 15.2299 15.617 15.4617 15.2902 15.6756C15.2679 15.6893 15.2344 15.7164 15.2361 15.7315C15.2842 16.0189 15.0694 16.1346 14.8974 16.2916C14.835 16.376 14.7913 16.4728 14.7693 16.5754C14.7121 16.722 14.6672 16.8739 14.598 17.0133C14.5315 17.1208 14.4921 17.2429 14.4833 17.369C14.4745 17.4952 14.4966 17.6216 14.5475 17.7373C14.6189 17.8937 14.6418 18.0678 14.6132 18.2372C14.5536 18.6736 14.6413 19.039 15.1166 19.2359C15.2877 19.3363 15.4258 19.4844 15.5141 19.6621C15.6553 19.8879 15.8532 20.0727 16.0882 20.198C16.3377 20.3455 16.5873 20.4931 16.841 20.6374C16.955 20.7014 17.0755 20.7588 17.1882 20.8188C17.3495 20.904 17.5088 20.9909 17.6708 21.0707C17.8048 21.1526 17.9471 21.22 18.0953 21.2718C18.9024 21.4769 19.7149 21.6696 20.5194 21.8668C20.5582 21.8712 20.5957 21.8832 20.6298 21.9023C21.1625 22.2782 21.7615 22.3452 22.3919 22.2917C22.5319 22.2706 22.675 22.2837 22.8089 22.33C23.2939 22.5506 23.8044 22.5441 24.3134 22.5354C24.521 22.508 24.7323 22.5368 24.925 22.6189C25.1099 22.6842 25.3032 22.7225 25.4991 22.7326C25.8061 22.7857 25.9023 22.9531 25.7803 23.2341C25.7481 23.3059 25.7037 23.3724 25.6716 23.4443C25.531 23.7524 25.4392 23.7846 25.1239 23.7229C24.726 23.6407 24.321 23.5966 23.9202 23.5214C23.7018 23.4765 23.486 23.4191 23.2741 23.3495C22.9619 23.2529 22.6524 23.1493 22.3167 23.2374C22.2801 23.2472 22.2308 23.2126 22.1859 23.2009L21.0074 22.8969C20.9416 22.8888 20.877 22.873 20.8148 22.8501C20.37 22.6201 19.8775 22.631 19.4 22.5733C19.2975 22.5656 19.1981 22.5348 19.1091 22.4834C18.8716 22.3445 18.598 22.2799 18.3235 22.298C18.0921 22.2897 17.8621 22.2583 17.637 22.2043C17.4306 22.1631 17.2302 22.091 17.0225 22.046C16.9122 22.0198 16.7976 22.0178 16.6864 22.0398C16.5752 22.0619 16.47 22.1077 16.378 22.174C16.2861 22.2403 16.2095 22.3256 16.1534 22.4241C16.0973 22.5227 16.063 22.6321 16.0529 22.745C16.0048 23.0974 15.8428 23.2352 15.4905 23.2001C15.3858 23.1848 15.2827 23.1596 15.1828 23.1247C15.1204 23.105 15.0441 23.0369 15.0062 23.0559C14.706 23.1842 14.4617 22.9574 14.1925 22.9262C13.9072 22.874 13.6254 22.8039 13.3489 22.7162C13.2959 22.709 13.2392 22.6752 13.1937 22.695C12.9094 22.7883 12.638 22.6787 12.3755 22.6261C11.546 22.4627 10.7185 22.2845 9.88671 22.1375C9.35812 22.0449 8.8204 21.992 8.28501 21.9357C8.2065 21.9249 8.08872 22.0112 8.03551 22.0876C7.80956 22.3693 7.67893 22.7155 7.66247 23.0763C7.6076 23.6826 7.46452 24.2675 7.36633 24.8641C7.2704 25.2844 7.21684 25.7133 7.20646 26.1442C7.21962 26.4566 7.35045 26.7516 7.0591 27.0057C7.02748 27.033 7.06747 27.1351 7.05974 27.1917C7.03319 27.423 6.99011 27.6521 6.93083 27.8772C6.83999 28.1641 6.80698 28.4662 6.83368 28.766C6.84864 29.0087 6.81544 29.2519 6.73597 29.4817C6.6738 29.7665 6.62887 30.0547 6.60139 30.3449C6.56749 30.5932 6.49185 30.834 6.44882 31.0811C6.42065 31.2874 6.39199 31.4974 6.36358 31.7055C6.27135 32.3811 6.15904 33.0539 6.05404 33.7277C6.02895 33.8171 6.02399 33.9108 6.03947 34.0024C6.05495 34.0939 6.09051 34.1808 6.1436 34.257C6.18602 34.3352 6.1987 34.4261 6.17933 34.5129C6.11653 34.8912 6.24348 35.0648 6.6089 35.1128C6.77776 35.14 6.94378 35.1825 7.10487 35.24C7.49343 35.3637 7.87559 35.507 8.26697 35.6237C8.46724 35.6827 8.67971 35.693 8.88454 35.7322C9.04213 35.7475 9.19668 35.7855 9.34339 35.845C9.67045 36.018 10.032 36.1157 10.4017 36.1309C10.5449 36.1495 10.6855 36.1843 10.8209 36.2346C10.8693 36.2563 10.9189 36.2754 10.9693 36.292C11.628 36.3987 12.285 36.5182 12.9414 36.6412C13.124 36.6662 13.2999 36.6176 13.4797 36.7036C13.6143 36.7666 13.6645 36.8348 13.6419 36.9731C13.6193 37.1114 13.6095 37.2104 13.5936 37.3273C13.4879 37.7332 13.6248 37.9843 14.0239 38.0853C14.3921 38.1765 14.7617 38.2661 15.1329 38.3539C15.2101 38.3691 15.2881 38.3798 15.3666 38.3858C15.6293 38.4013 15.891 38.4314 16.1503 38.476C17.1586 38.6818 18.1765 38.837 19.2003 38.9408C19.5216 38.9847 19.8357 39.1094 20.1712 39.0492C20.217 39.0406 20.2715 39.0777 20.3204 39.1011C20.4131 39.1436 20.4328 39.2039 20.3535 39.2805C19.8694 39.7482 19.3775 40.2037 18.9085 40.6827C18.4773 41.1167 18.0067 41.4989 17.6483 41.9986C17.5613 42.098 17.4631 42.1869 17.3555 42.2636C17.278 42.3151 17.2072 42.3761 17.1447 42.445C16.7879 42.9878 16.2555 43.3595 15.83 43.8334C15.7821 43.8953 15.7141 43.9386 15.6378 43.9557C15.5614 43.9728 15.4814 43.9626 15.4118 43.9269C14.8894 43.7478 14.3501 43.6109 13.8231 43.4385C13.4055 43.3234 12.9714 43.2793 12.5391 43.3079C12.3949 43.3152 12.2506 43.2955 12.1137 43.2498C11.565 43.0317 11.0567 43.1446 10.563 43.4101C10.5181 43.4455 10.4644 43.4677 10.4076 43.4744C10.3509 43.4811 10.2934 43.472 10.2416 43.4481C10.0069 43.3417 9.76297 43.4664 9.55978 43.5652C8.88003 43.92 8.2428 44.3508 7.66034 44.8495C7.62689 44.8717 7.59781 44.8999 7.57459 44.9327C7.05242 45.8286 6.40842 46.6631 6.10144 47.6721C5.99702 48.0398 5.93656 48.4186 5.92136 48.8006C5.89439 49.2842 5.92087 49.7714 5.93641 50.2571C5.98852 50.951 6.09731 51.6396 6.26169 52.3157C6.26949 52.354 6.27504 52.4087 6.30043 52.427C6.54666 52.5852 6.50686 52.8495 6.55496 53.0829C6.57132 53.1741 6.60269 53.262 6.64779 53.343C6.97214 53.869 7.18976 54.4548 7.58424 54.9438C7.76389 55.1674 7.88958 55.4319 8.043 55.6705C8.1367 55.8116 8.24317 55.9437 8.36107 56.0654C8.55591 56.2593 8.75126 56.4497 8.9324 56.6623C9.17789 56.9557 9.46594 57.2106 9.78697 57.4187C10.2792 57.737 10.717 58.1539 11.3041 58.3215C11.4239 58.3793 11.5391 58.4459 11.6489 58.521C11.8724 58.6278 12.1 58.7314 12.3335 58.8191C12.6535 58.9409 12.9754 59.0629 13.3049 59.1563C13.8601 59.312 14.4213 59.4519 14.9809 59.5897C15.3409 59.6779 15.7031 59.7496 16.0645 59.8269C16.4259 59.9041 16.8085 59.9898 17.1824 60.0576C17.3224 60.0731 17.4634 60.0787 17.6042 60.0742C18.0776 60.0942 18.5512 60.1124 19.0252 60.1418C19.1542 60.1501 19.2818 60.2102 19.4098 60.2128C19.6849 60.2442 19.9635 60.2255 20.2319 60.1577C20.4994 60.0824 20.7762 60.0457 21.054 60.0486C21.7708 60.0162 22.4468 59.7645 23.1509 59.6746C23.5978 59.6166 24.0534 59.5895 24.4611 59.396C25.006 59.1374 25.6175 59.0312 26.0976 58.6206C26.3037 58.4791 26.5306 58.3708 26.7701 58.2995C27.2259 58.1469 27.6417 57.8942 27.987 57.5599C28.0356 57.5149 28.0958 57.4845 28.1608 57.472C28.3017 57.4397 28.4312 57.3695 28.535 57.2689C28.6389 57.1684 28.7133 57.0413 28.7502 56.9015C28.844 56.6502 28.914 56.6411 29.109 56.8203C29.3543 57.0398 29.5834 57.283 29.8349 57.4978C30.2491 57.8841 30.6885 58.2423 31.1504 58.5701C31.5027 58.7962 31.8417 59.0424 32.1656 59.3076C32.3858 59.453 32.6171 59.581 32.8573 59.6903C33.0893 59.8299 33.1081 59.9105 33.0281 60.1693C32.8828 60.6479 32.743 61.1272 32.5969 61.5983C32.5593 61.7233 32.4931 61.8408 32.4535 61.9675C32.3152 62.3279 32.2096 62.7 32.138 63.0794C32.104 63.379 32.0443 63.6751 31.9595 63.9644C31.9032 64.1927 31.8604 64.4242 31.8314 64.6575C31.7457 65.1628 31.6472 65.6664 31.5855 66.1732C31.5324 66.5621 31.5487 66.9604 31.5211 67.3528C31.5038 67.5617 31.4754 67.7695 31.4361 67.9754C31.3957 68.1554 31.4102 68.3433 31.4778 68.5149C31.5217 68.6928 31.5387 68.8764 31.5281 69.0593C31.5276 69.3496 31.6303 69.6306 31.8179 69.8521C31.8571 69.9029 31.9089 69.9425 31.9681 69.9672C32.0274 69.9918 32.0921 70.0005 32.1557 69.9925C32.2194 69.9845 32.2798 69.9599 32.3311 69.9213C32.3824 69.8828 32.4227 69.8315 32.4481 69.7726C32.5123 69.6152 32.5648 69.4533 32.6053 69.2882C32.6408 69.1647 32.669 69.0402 32.6992 68.9142C32.7386 68.7747 32.7692 68.6329 32.7906 68.4895C32.8401 68.0183 32.8786 67.5455 32.9223 67.0754C32.9341 67.0376 32.9395 66.9982 32.9382 66.9586C32.7684 66.3774 33.042 65.8717 33.1949 65.3513C33.3089 64.9928 33.3602 64.6172 33.3464 64.2412C33.3301 63.9656 33.4693 63.6814 33.5429 63.4013C33.5833 63.2896 33.6168 63.1756 33.6434 63.0599C33.6728 62.6643 33.7978 62.2818 34.0076 61.9453C34.0762 61.7918 34.1157 61.6269 34.1242 61.4591C34.1399 61.344 34.1559 61.2271 34.188 61.1143C34.2784 60.7658 34.3028 60.7916 34.6363 60.8278C35.0689 60.8738 35.4221 61.1211 35.822 61.2296C36.4337 61.4079 36.9802 61.7373 37.5659 61.9698C38.0932 62.1993 38.6534 62.3441 39.2259 62.3991C39.5653 62.4194 39.5819 62.4477 39.5324 62.7832C39.5199 62.8886 39.4982 62.9926 39.4676 63.0942C39.3335 63.4906 39.1869 63.8835 39.0632 64.2851C38.955 64.7049 38.8216 65.1177 38.6638 65.5214C38.6334 65.577 38.6103 65.6364 38.5951 65.698C38.5024 66.2709 38.3632 66.8353 38.1787 67.3857C38.0826 67.7222 38.0149 68.0682 37.9328 68.4103C37.9237 68.4355 37.9165 68.4612 37.9111 68.4874C37.8335 69.124 37.7367 69.7655 37.6927 70.4012C37.6538 70.7802 37.5809 71.1549 37.4747 71.5208C37.4104 71.7742 37.299 72.0175 37.4037 72.2866C37.4214 72.3337 37.4004 72.3922 37.4026 72.4446C37.4064 72.6069 37.3205 72.664 37.1749 72.6274C36.9843 72.579 36.7955 72.518 36.6065 72.4587C36.367 72.3869 36.1294 72.3155 35.8928 72.2367C35.745 72.1886 35.6023 72.117 35.4535 72.0762C35.2895 72.0312 35.1225 71.9979 34.9538 71.9764C34.6397 71.9335 34.3214 71.9217 34.0133 71.8629C33.6505 71.7826 33.2775 71.758 32.9073 71.79C32.8149 71.7896 32.7226 71.7826 32.6312 71.7691C32.4473 71.7351 32.2574 71.7724 32.0999 71.8733C32.0319 71.9128 31.9563 71.9373 31.8781 71.9452C31.5647 72.0066 31.2592 72.0783 31.0456 72.3486C31.0286 72.3667 31.008 72.3813 30.9853 72.3913C30.9625 72.4013 30.9379 72.4065 30.913 72.4068C30.5332 72.3828 30.3056 72.6326 30.0846 72.8758C29.9029 73.0507 29.7523 73.2554 29.6393 73.4809C29.4697 73.9059 29.285 74.3327 29.3261 74.8218C29.3805 75.4449 29.6506 76.0007 29.8023 76.5924C29.8178 76.6559 29.864 76.7124 29.8759 76.7754C29.881 76.8496 29.8796 76.9241 29.8715 76.998C29.8182 76.9644 29.7673 76.927 29.7194 76.8861C29.6131 76.7695 29.481 76.6795 29.3337 76.6233C29.1863 76.567 29.0278 76.5459 28.8709 76.5619C28.8077 76.5589 28.7462 76.5396 28.6926 76.506C28.4678 76.3953 28.2458 76.2776 28.0233 76.1636C27.9866 76.1485 27.9518 76.1294 27.9195 76.1065C27.3509 75.5844 26.7417 75.1014 26.3354 74.4266C26.2272 74.2348 26.0613 74.082 25.8612 73.9899C25.6995 73.9013 25.5566 73.782 25.4405 73.6386C25.1773 73.346 24.9291 73.0387 24.683 72.7299C24.6126 72.6349 24.5536 72.5319 24.5073 72.4232C24.3287 72.0417 23.9845 71.7567 23.8805 71.3333C23.882 71.3224 23.8735 71.3026 23.8631 71.2974C23.3633 71.0618 23.3962 70.4526 23.018 70.1034C22.7354 69.8435 22.6103 69.4116 22.417 69.0561L22.0349 68.3678C22.0035 68.3115 21.9445 68.2531 21.9449 68.1955C21.9516 67.6831 21.6586 67.2414 21.6018 66.7445C21.5883 66.6825 21.5813 66.6192 21.5811 66.5557C21.6376 66.0055 21.5181 65.4776 21.429 64.9447C21.42 64.8542 21.4324 64.7629 21.4654 64.6781C21.5232 64.5 21.6195 64.3123 21.6621 64.1229C21.7677 63.6723 21.9925 63.2585 22.3129 62.9247C22.3635 62.864 22.4101 62.8002 22.4525 62.7336C22.5638 62.5862 22.7056 62.4645 22.8681 62.3766C23.0305 62.2887 23.21 62.2367 23.3943 62.2242C23.9717 62.1655 24.555 62.2205 25.1112 62.386C25.3613 62.4514 25.5899 62.5814 25.7739 62.7629C25.9035 62.8904 26.0869 62.9637 26.2164 63.0912C26.4529 63.3195 26.675 63.5623 26.8816 63.8181C27.1868 64.1983 27.4772 64.5913 27.7614 64.989C27.8737 65.1476 27.9509 65.3311 28.0505 65.5009C28.1891 65.7393 28.3253 65.9811 28.4758 66.2136C28.6263 66.4462 28.8389 66.7281 29.0133 66.99C29.0505 67.0591 29.078 67.1329 29.095 67.2095C29.1948 67.5492 29.3422 67.873 29.5328 68.1713C29.6639 68.3845 29.7682 68.6129 29.8435 68.8516C29.9822 69.2797 30.302 69.58 30.5598 69.9258C30.5974 69.9775 30.7047 69.968 30.7725 70.0033C30.8077 70.0286 30.8352 70.0632 30.8518 70.1034C30.6209 70.3229 30.9488 70.3733 30.9825 70.5081C31.0118 70.5373 31.0478 70.5587 31.0874 70.5706C31.127 70.5825 31.1689 70.5844 31.2094 70.5762C31.2906 70.5129 31.3959 70.3822 31.3787 70.3036C31.2971 69.9205 31.1772 69.5452 31.0706 69.168C31.0245 69.0017 30.988 68.8331 30.9341 68.6695C30.8661 68.4593 30.7848 68.2511 30.711 68.042C30.6139 67.7721 30.5247 67.4995 30.4219 67.2307C30.3713 67.0973 30.2954 66.9717 30.238 66.8336C30.0958 66.5129 29.9536 66.1922 29.8117 65.8696C29.8019 65.846 29.8004 65.816 29.7885 65.7939L29.0749 64.5639C28.7792 64.4677 28.7854 64.1635 28.653 63.9483C28.5206 63.7331 28.3661 63.5707 28.2309 63.3755C28.1178 63.2347 28.0252 63.0787 27.9557 62.912C27.921 62.7844 27.859 62.6658 27.7739 62.5645C27.6888 62.4633 27.5827 62.3819 27.4629 62.3258C27.2792 62.2499 27.1242 62.1181 27.0196 61.9491C26.9529 61.8504 26.8651 61.7679 26.7624 61.7076C26.3902 61.459 26.001 61.2369 25.5977 61.0427C25.3411 60.9333 25.0282 60.9501 24.7416 60.911L24.7738 60.934ZM24.9577 38.728L24.9525 38.7663L23.379 38.399L22.6863 38.2412C22.6042 38.23 22.524 38.2042 22.5543 38.0911C22.6408 37.7861 22.6489 37.4642 22.5779 37.1551C22.5766 37.1026 22.5838 37.0502 22.5991 36.9999C22.6313 36.7644 22.6796 36.5329 22.6951 36.297C22.7121 35.9435 22.796 35.5965 22.9426 35.2744C22.9792 35.2057 23.0012 35.1302 23.0073 35.0527C23.0134 34.9751 23.0035 34.8971 22.9781 34.8235C22.9376 34.6475 22.9511 34.4633 23.0167 34.295C23.1106 34.0522 23.1693 33.7972 23.1908 33.5377C23.2007 33.1855 23.2486 32.8353 23.3334 32.4933C23.4458 32.0619 23.5233 31.6222 23.565 31.1784C23.6253 30.6547 23.7516 30.1381 23.8065 29.6137C23.8763 28.8672 24.0114 28.1282 24.2102 27.4053C24.2345 27.2761 24.2444 27.1446 24.2396 27.0132C24.2428 26.9076 24.2351 26.8006 24.2457 26.696C24.2915 26.2243 24.3485 25.7522 24.3849 25.2811C24.395 25.1392 24.4551 25.0935 24.5784 25.0899C24.6445 25.0834 24.7111 25.0843 24.777 25.0927C25.4656 25.2258 26.1552 25.3516 26.842 25.4974C27.3065 25.5962 27.7634 25.7237 28.2266 25.8316C28.4325 25.8567 28.6367 25.8939 28.8382 25.9429C29.5103 26.1835 30.2201 26.2562 30.9018 26.4534C31.4138 26.5995 31.9454 26.6833 32.4681 26.7918C32.8152 26.8652 33.1648 26.9334 33.5127 27.0013C33.6557 27.0302 33.8011 27.0408 33.9431 27.0769C34.2526 27.1396 34.5606 27.2132 34.8711 27.2686C35.245 27.3364 35.6234 27.3844 35.9991 27.4524C36.284 27.5043 36.5636 27.5815 36.8506 27.6318C37.2138 27.6963 37.6029 27.7346 37.9755 27.8115C38.1806 27.8488 38.3755 27.9331 38.5801 27.974C39.0419 28.065 39.5063 28.1376 39.9684 28.2267C40.3164 28.2929 40.6612 28.3697 41.0062 28.4447C41.1615 28.4789 41.1542 28.5597 41.0701 28.671C40.9598 28.8138 40.8597 28.9642 40.7706 29.1212C40.6781 29.2945 40.6189 29.4835 40.5332 29.6615C40.4122 29.9072 40.2 30.1405 40.1747 30.3938C40.1246 30.8835 39.957 31.3758 40.1049 31.8721C40.1274 31.9493 40.129 32.031 40.1098 32.109C40.0249 32.4173 40.0951 32.7208 40.1202 33.0274C40.1543 33.4449 40.1921 33.8629 40.2166 34.2829C40.2268 34.4535 40.1573 34.6356 40.1969 34.7954C40.3147 35.295 40.003 35.7119 39.9689 36.1797C39.953 36.2312 39.9222 36.2768 39.8803 36.3107C39.6145 36.6175 39.3657 36.9388 39.1352 37.2729C38.7187 37.8168 38.2478 38.3235 37.8133 38.85C37.7248 38.9477 37.6435 39.0515 37.57 39.1608C37.3291 39.5631 37.0142 39.9349 36.9738 40.4353C36.627 40.9459 36.766 41.5489 36.817 42.0878C36.8545 42.5944 37.0284 43.0815 37.3202 43.4974C37.4206 43.6339 37.4752 43.8199 37.6927 43.8068C37.9102 43.7937 37.9271 43.5747 38.0384 43.4542C38.0884 43.4015 38.0743 43.2731 38.0743 43.1912C38.0429 42.8901 38.0315 42.5872 38.04 42.2845C38.073 41.8417 38.154 41.4037 38.2815 40.9783C38.4484 40.5646 38.6443 40.1631 38.8677 39.777C38.8898 39.7433 38.9191 39.7148 38.9535 39.6938C39.15 39.5346 39.3556 39.3916 39.5419 39.2255C39.6634 39.1276 39.7656 39.0078 39.8431 38.8723C40.0359 38.4679 40.2874 38.0942 40.5896 37.7634C40.7972 37.5652 40.9713 37.3346 41.105 37.0805C41.4143 36.3955 41.712 35.6997 41.678 34.9269C41.6535 34.3024 41.7508 33.6852 41.6199 33.0498C41.4804 32.3752 41.488 31.6784 41.6421 31.007C41.7516 30.6055 41.894 30.2137 42.068 29.8357C42.162 29.6105 42.3098 29.6176 42.4414 29.8253C42.5293 29.9407 42.6065 30.064 42.672 30.1934C42.8097 30.547 43.0014 30.9005 43.0459 31.2693C43.1188 31.893 43.0839 32.5299 43.2491 33.1457C43.264 33.1967 43.2705 33.2497 43.2686 33.3028C43.229 34.0153 43.1708 34.7271 43.1536 35.4389C43.1189 35.7803 43.1601 36.125 43.2743 36.4486C43.3814 36.669 43.43 36.9133 43.4156 37.1579C43.4058 37.4337 43.3609 37.7084 43.3381 37.9843C43.3326 38.0245 43.373 38.069 43.3915 38.1106C43.4224 38.0887 43.4653 38.0741 43.4805 38.0446C43.6188 37.8063 43.7408 37.5588 43.8457 37.304C44.0198 36.8052 44.1798 36.3007 44.3145 35.7908C44.4994 35.0907 44.8035 34.4162 44.7514 33.667C44.7503 33.6139 44.7575 33.5609 44.7728 33.51C44.902 32.9187 44.9602 32.3141 44.9461 31.7091C44.9246 31.3735 44.9332 31.0367 44.9719 30.7027C45.0505 30.4552 45.164 30.2202 45.309 30.0048C45.338 29.966 45.3734 29.9324 45.4137 29.9056C45.4358 29.9477 45.4749 29.9884 45.4801 30.0319C45.4954 30.3759 45.5658 30.7152 45.6889 31.0368C45.7631 31.1939 45.7877 31.3697 45.7595 31.5411C45.6373 32.0824 45.859 32.5832 45.8467 33.1098C45.8346 33.5935 45.8871 34.0806 45.912 34.5657C45.9144 34.6163 45.9282 34.6925 45.9014 34.7112C45.7479 34.8279 45.8226 34.9756 45.8315 35.1145C45.8471 35.1924 45.8531 35.272 45.8494 35.3513C45.7214 36.0573 45.7927 36.7887 45.5877 37.4861C45.5823 37.5262 45.5984 37.6121 45.6167 37.6146C45.7255 37.6396 45.8378 37.6461 45.9488 37.6339C46.0236 37.6118 46.0881 37.564 46.1309 37.4988C46.2575 37.3464 46.3625 37.1774 46.4432 36.9965C46.5964 36.5413 46.8344 36.1199 46.8609 35.6121C46.8716 35.3978 47.0128 35.1939 47.074 34.9773C47.1352 34.7606 47.1146 34.5438 47.211 34.3692C47.3365 34.1445 47.2062 33.9408 47.2495 33.7328C47.255 33.6926 47.2785 33.6568 47.2856 33.6187C47.3124 33.5312 47.3249 33.4399 47.3224 33.3485C47.3038 33.1898 47.3462 33.03 47.4411 32.9015C47.6317 32.5407 47.8121 32.1729 48.0027 31.812C48.0378 31.7461 48.1098 31.6407 48.139 31.6446C48.2224 31.671 48.2944 31.7247 48.3433 31.7971C48.3846 31.8775 48.4105 31.965 48.4197 32.0549C48.464 32.2618 48.4872 32.4733 48.5491 32.6733C48.6994 33.1663 48.8468 33.6532 48.7459 34.1881C48.7247 34.3433 48.8051 34.518 48.8194 34.6854C48.8219 34.7831 48.8086 34.8805 48.78 34.9739C48.7587 35.0622 48.7058 35.1498 48.6925 35.2335C48.652 35.7207 48.5433 36.1999 48.3698 36.6569C48.2202 36.9899 48.1407 37.3547 48.017 37.7024C47.9273 37.9505 47.795 38.1835 47.7127 38.4326C47.4609 39.2614 47.1026 40.054 46.6468 40.7905C46.5019 41.0279 46.3398 41.2545 46.1619 41.4683C45.8622 41.8105 45.6231 42.2131 45.1979 42.4396C45.075 42.5137 44.9663 42.6091 44.8768 42.7212C44.6046 43.0393 44.3605 43.3835 44.0686 43.6822C43.9584 43.7948 43.8767 43.9321 43.8303 44.0826C43.7838 44.2332 43.774 44.3927 43.8017 44.5478C43.8357 44.6758 43.8503 44.8082 43.8448 44.9405C43.7048 45.5296 43.831 46.1178 43.8437 46.7055C43.8592 46.9021 43.9141 47.0935 44.0049 47.2686C44.1709 47.6335 44.3841 47.9788 44.5344 48.3489C44.5972 48.5026 44.7596 48.5657 44.7918 48.6705C44.9075 49.011 45.106 49.3174 45.3694 49.5621C45.5885 49.7528 45.7927 49.9597 45.9805 50.1812C46.2262 50.5067 46.5787 50.6907 46.8892 50.9228C47.046 51.0409 47.2312 51.1424 47.4003 51.2659C47.5694 51.3894 47.6753 51.6494 47.9655 51.5402C47.9909 51.5307 48.0425 51.6028 48.0851 51.6309C48.2675 51.7659 48.4599 51.8867 48.6607 51.9922C48.9075 52.1059 49.1802 52.1654 49.4339 52.2688C49.6876 52.3723 49.891 52.5173 50.1765 52.4967C50.3091 52.5081 50.4391 52.5409 50.5612 52.5939C50.7726 52.66 50.9874 52.7147 51.2046 52.7579C51.4658 52.7693 51.7263 52.7943 51.9849 52.8329C52.3962 52.9272 52.8242 52.9219 53.2331 52.8173C53.5147 52.7571 53.7907 52.6702 54.0718 52.6137C54.6317 52.5042 55.1369 52.2365 55.6518 52.0074C56.1113 51.8023 56.548 51.5457 56.989 51.299C57.1138 51.2266 57.2266 51.1353 57.3235 51.0285C57.4848 50.8552 57.6149 50.6517 57.782 50.4903C58.0584 50.2231 58.1635 49.8618 58.3374 49.5414C58.3901 49.4045 58.4071 49.2564 58.3869 49.1111C58.3867 49.0681 58.376 49.0258 58.3559 48.9879C58.3357 48.9499 58.3067 48.9175 58.2712 48.8932C58.2357 48.869 58.1949 48.8537 58.1522 48.8487C58.1096 48.8438 58.0663 48.8493 58.0262 48.8647C57.8626 48.9152 57.7086 48.9928 57.5708 49.0945C57.3263 49.2917 57.1153 49.5289 56.8758 49.7306C56.5836 49.9771 56.2752 50.2066 55.9719 50.4386C55.3927 50.8803 54.8514 51.3717 54.2163 51.7463C53.9125 51.9302 53.5802 52.062 53.233 52.1365C52.8837 52.1944 52.5306 52.2264 52.1766 52.2322C52.0302 52.242 51.8414 52.2758 51.7417 52.2027C51.4435 51.989 51.0862 52.0592 50.7727 51.9439C50.7162 51.9229 50.6541 51.9228 50.5975 51.9433C50.5409 51.9638 50.4934 52.0038 50.4635 52.056C50.3939 51.9606 50.31 51.8764 50.2149 51.8064C49.8766 51.6282 49.5259 51.4723 49.1805 51.3043C49.0064 51.2173 48.8328 51.1267 48.6609 51.0232C48.4174 50.8728 48.1725 50.7185 47.9421 50.5531C47.7593 50.4425 47.602 50.2942 47.4807 50.1182C47.3621 49.9461 47.2231 49.7891 47.0666 49.6506C46.775 49.3207 46.3634 49.0654 46.3675 48.5452C46.3745 48.4941 46.3821 48.3427 46.2292 48.3869C46.1319 48.1318 45.8676 47.9562 45.8881 47.6428C45.8951 47.5917 45.8147 47.5399 45.7912 47.4809C45.6458 47.1151 45.4304 46.7583 45.3835 46.3799C45.333 45.8181 45.3212 45.2535 45.3482 44.6901C45.3496 44.5834 45.3812 44.4794 45.4394 44.3901C45.641 44.0847 45.8581 43.7889 46.072 43.4889C46.1867 43.3134 46.3104 43.1441 46.4426 42.9815C46.6954 42.6961 46.992 42.4446 47.2161 42.1385C47.5339 41.7039 47.9061 41.3214 48.2501 40.9127C48.711 40.3735 49.038 39.7331 49.2046 39.0436C49.2143 39.0073 49.2364 38.9755 49.2671 38.9536C49.537 38.7747 49.5768 38.4696 49.6564 38.1996C49.7763 37.7845 49.8281 37.3508 49.9587 36.939C50.0893 36.5272 50.2789 36.1606 50.2715 35.7243C50.2665 35.4744 50.2931 35.2251 50.2945 34.9835C50.2748 34.826 50.2685 34.6671 50.2756 34.5085C50.3689 34.0024 50.2214 33.5433 50.0585 33.0747C50.0152 32.9228 49.981 32.7684 49.9561 32.6125C49.9343 32.4031 49.8928 32.1963 49.8321 31.9948C49.6732 31.5919 49.4459 31.213 49.3006 30.8063C49.2086 30.5563 49.0267 30.3493 48.7905 30.226C48.5543 30.1026 48.2806 30.0717 48.0228 30.1391C47.768 30.1936 47.5315 30.3323 47.2543 30.3187C47.1435 30.3129 47.052 30.5477 46.9353 30.3532C46.8723 30.2341 46.8271 30.1063 46.8011 29.9741C46.7824 29.8736 46.7708 29.772 46.7663 29.6699C46.7611 29.5648 46.7388 29.4613 46.7003 29.3633C46.5285 28.9921 46.2785 28.6624 45.9674 28.3966C45.7747 28.242 45.5733 28.0415 45.2668 28.1615C45.1469 28.2084 45.1097 28.14 45.1391 28.0064C45.1697 27.8807 45.1705 27.7496 45.1412 27.6235C45.1208 27.5537 45.1154 27.4804 45.1252 27.4084C45.135 27.3364 45.1599 27.2672 45.1983 27.2054C45.5101 26.6701 45.7384 26.0905 45.8756 25.4864C45.9857 25.1246 46.0559 24.7519 46.085 24.3748C46.096 24.0363 46.1506 23.7006 46.2474 23.376C46.3345 23.0512 46.4522 22.7343 46.5064 22.4051C46.5804 21.9447 46.5982 21.4877 46.7676 21.0366C46.8037 20.9089 46.8217 20.7768 46.8212 20.6441C46.8594 20.1601 46.6216 19.8449 46.2195 19.6022C45.8757 19.3953 45.4764 19.378 45.1336 19.1917C44.9741 19.1025 44.808 19.0258 44.6367 18.9621C44.1768 18.8026 43.7122 18.6499 43.25 18.5068C43.1503 18.4746 43.0476 18.3955 42.9551 18.4052C42.4954 18.4386 42.0332 18.4118 41.5804 18.3254C41.5162 18.3086 41.4489 18.3071 41.3839 18.3209C41.1526 18.3726 40.9164 18.3989 40.6794 18.3996C40.1401 18.4367 39.6115 18.5685 39.1179 18.7889C38.6298 19.0403 38.2141 19.456 37.8131 19.8458C37.5677 20.1227 37.3493 20.4223 37.1609 20.7406C36.948 21.0463 36.7767 21.3745 36.5307 21.6645C36.3667 21.8579 36.3239 22.144 36.1147 22.3275C36.0683 22.3676 36.0726 22.4724 36.0603 22.5488C36.0539 22.5963 36.0724 22.6788 36.0503 22.6906C35.81 22.8159 35.8284 23.103 35.6685 23.2802C35.4925 23.4962 35.3814 23.7577 35.3479 24.0343C35.2535 24.5627 35.1374 25.0861 35.0302 25.6127C34.9988 25.7609 34.922 25.8602 34.7542 25.8224C34.2779 25.7146 33.8026 25.5996 33.3266 25.4899C33.1462 25.4486 33.1098 25.3338 33.1046 25.1676C33.0936 24.8574 33.0676 24.5488 33.0264 24.2419C33 24.0987 32.9567 23.9591 32.8971 23.8262C32.8497 23.697 32.8656 23.5671 32.9901 23.5265C33.1611 23.4561 33.3469 23.4296 33.5307 23.4496C34.085 23.5718 34.5817 23.4071 35.0659 23.185C35.4992 23.006 35.8438 22.6624 36.0239 22.2295C36.0771 22.0539 36.1778 21.8965 36.3148 21.7746C36.3744 21.7222 36.4194 21.6553 36.4455 21.5804C36.6069 21.1337 36.7648 20.6853 36.9193 20.2352C36.9351 20.1872 36.9372 20.1038 36.9175 20.0843C36.7242 19.9203 36.8134 19.6888 36.7564 19.4932C36.6659 19.1758 36.5794 18.8553 36.4652 18.5477C36.4225 18.4219 36.336 18.3157 36.2215 18.2485C35.7443 18.0383 35.3674 17.6929 34.9506 17.3943C34.6946 17.2124 34.442 17.0329 34.1877 16.8382C33.9335 16.6436 33.9181 16.4834 34.1475 16.2748C34.4906 15.9682 34.8616 15.6897 35.2304 15.4127C35.6564 15.0988 36.0793 14.753 36.6013 14.5806C36.6596 14.5625 36.7006 14.4937 36.7572 14.4605C37.0682 14.2667 37.369 14.066 37.6947 13.8873C37.9305 13.754 38.1829 13.6489 38.4256 13.5333C38.8687 13.2919 39.332 13.0894 39.8101 12.9281C39.954 12.9068 40.0936 12.8631 40.224 12.7986C40.6609 12.4863 41.1711 12.3997 41.662 12.251C42.0503 12.131 42.4492 12.0293 42.8418 11.9192C43.0354 11.8638 43.2429 11.788 43.4478 11.7583C43.6527 11.7286 43.8329 11.7439 44.0135 11.7016C44.3822 11.6162 44.7478 11.5136 45.1072 11.4009C45.2336 11.3605 45.2508 11.3981 45.2942 11.5026C45.354 11.6502 45.4611 11.6425 45.5699 11.5402C45.6391 11.4697 45.7166 11.365 45.7997 11.3559C46.1778 11.3108 46.5519 11.2949 46.9276 11.268C47.1378 11.254 47.3459 11.2285 47.5549 11.2235C47.9282 11.2131 48.2882 11.1376 48.6594 11.2385C48.9552 11.3074 49.2631 11.3061 49.5583 11.2348C49.8326 11.1736 50.1468 11.2835 50.4435 11.3166C50.4563 11.3183 50.4691 11.32 50.4834 11.3108C50.6407 11.3095 50.798 11.3172 50.9545 11.3342C51.4222 11.4092 51.8903 11.5364 52.3537 11.5885C53.2691 11.6949 54.1251 12.0051 54.9844 12.3047C55.4587 12.468 55.9271 12.6473 56.4029 12.8127C56.6994 12.8857 56.9739 13.0291 57.2033 13.2307C57.3059 13.3096 57.4268 13.3612 57.5547 13.3809C57.8129 13.4321 58.0562 13.541 58.2664 13.6994C58.4531 13.8194 58.651 13.9212 58.8572 14.0033C59.0313 14.0948 59.2 14.196 59.3626 14.3066C59.479 14.4101 59.6011 14.5068 59.7285 14.5964C60.2608 14.8663 60.6347 15.3562 61.1791 15.6053C61.217 15.6179 61.2501 15.642 61.2739 15.6741C61.4457 16.0231 61.7991 16.1457 62.095 16.3348C62.2326 16.4075 62.3465 16.518 62.4235 16.6531C62.5273 16.804 62.6531 16.9385 62.7969 17.0519C63.1249 17.3738 63.4719 17.6797 63.7805 18.0212C64.0161 18.284 64.2031 18.5904 64.4079 18.875C64.6807 19.247 64.954 19.6154 65.2271 19.9856C65.3998 20.2193 65.5621 20.461 65.7451 20.6868C65.9282 20.9127 66.1672 21.0829 66.2727 21.4135C66.4054 21.8036 66.702 22.138 66.9105 22.5049C66.9924 22.6685 67.0613 22.8384 67.1164 23.0129C67.1688 23.2173 67.2448 23.4149 67.3429 23.6018C67.629 24.0128 67.7777 24.5036 67.9801 24.9553C68.2103 25.4629 68.2712 26.0385 68.5713 26.5239C68.6 26.5851 68.6187 26.6504 68.6267 26.7175C68.7083 27.1006 68.79 27.4837 68.8734 27.8671C68.8886 27.9172 68.9081 27.9658 68.9316 28.0126C69.0907 28.4316 69.196 28.8691 69.2449 29.3145C69.2818 29.5612 69.3316 29.8058 69.3941 30.0472C69.4197 30.15 69.4359 30.255 69.4425 30.3607C69.4483 30.713 69.437 31.0686 69.4501 31.4219C69.4461 31.5943 69.4744 31.766 69.5335 31.928C69.6507 32.2519 69.6944 32.5977 69.6613 32.9404C69.6471 33.0447 69.6433 33.1501 69.6499 33.2551C69.758 33.9045 69.7537 34.5676 69.6371 35.2155C69.6012 35.409 69.5943 35.6068 69.6165 35.8023C69.7263 36.4422 69.5801 37.0639 69.5008 37.6855C69.4118 38.3373 69.25 38.9773 69.1136 39.6226C68.9571 40.3601 68.7954 41.095 68.6262 41.8307C68.6209 41.869 68.6029 41.9057 68.5904 41.943C68.3589 42.6033 68.1308 43.2659 67.8941 43.9236C67.7468 44.3349 67.5964 44.7422 67.4242 45.1446C67.3133 45.4122 67.1669 45.6674 67.0494 45.9285C66.9319 46.1896 66.8274 46.4376 66.7044 46.6849C66.5525 46.9934 66.3798 47.2915 66.2282 47.5981C65.831 48.3786 65.369 49.1243 64.847 49.8274L64.7769 49.9183C64.7677 49.8863 64.7609 49.8537 64.7568 49.8207C64.7537 49.625 64.7509 49.4275 64.7497 49.232C64.7495 48.6889 64.8358 48.152 64.7305 47.602C64.6743 47.1527 64.5929 46.707 64.4868 46.2668C64.3724 45.8923 64.298 45.4971 64.1767 45.1327C64.0689 44.81 63.9432 44.4936 63.8002 44.1849C63.6703 43.8456 63.4354 43.5568 63.1297 43.3606C63.1186 43.3417 63.1121 43.3205 63.1105 43.2987C63.109 43.2769 63.1125 43.255 63.1208 43.2348C63.2456 43.1384 63.1872 43.0486 63.1166 42.9664C63.0465 42.8891 62.9713 42.8167 62.8913 42.7497C62.8604 42.7311 62.826 42.7188 62.7903 42.7135C62.7855 42.7482 62.7542 42.7867 62.7615 42.8156C62.835 43.0804 62.9089 43.3435 62.9926 43.6022C63.0464 43.7898 63.1154 43.9728 63.1987 44.1493C63.297 44.288 63.34 44.4583 63.3195 44.627C63.3225 44.6941 63.3395 44.7598 63.3694 44.8198C63.4406 44.942 63.4984 45.0715 63.5417 45.2061C63.5462 45.3405 63.5347 45.475 63.5075 45.6068C63.5065 45.6472 63.5164 45.6872 63.5364 45.7223C63.7383 46.0549 63.6192 46.4776 63.8157 46.8095C63.8223 46.826 63.8245 46.8439 63.822 46.8615C63.8196 46.8791 63.8127 46.8957 63.802 46.9099C63.6922 46.9786 63.7509 47.0665 63.7535 47.1562C63.7657 47.6935 63.9205 48.2354 63.7031 48.7656C63.8472 49.1944 63.5926 49.5744 63.5376 49.9779C63.49 50.3266 63.486 50.6962 63.2551 50.9976C63.2412 51.0256 63.2326 51.0559 63.2299 51.0871C63.165 51.3851 63.1057 51.684 63.0335 51.981C63.0022 52.1013 62.9777 52.2673 62.8918 52.3243C62.6532 52.4778 62.5875 52.7142 62.4787 52.9523C62.3234 53.2864 62.2111 53.6727 61.8425 53.8661C61.7746 54.0911 61.5231 54.2168 61.4714 54.4181C61.3622 54.8365 60.9936 55.0298 60.7738 55.3457C60.5957 55.5577 60.3894 55.7442 60.1606 55.9C59.7267 56.2409 59.2699 56.5514 58.7932 56.8293C58.4445 57.0402 58.1302 57.3264 57.7003 57.3831C57.6612 57.3905 57.6264 57.4122 57.6027 57.4441C57.4776 57.6521 57.2519 57.6566 57.0569 57.723C56.9846 57.7484 56.9049 57.7599 56.8339 57.7892C56.5709 57.904 56.3134 58.0325 56.042 58.1406C55.8842 58.2025 55.722 58.2525 55.5566 58.2901C55.395 58.3294 55.2271 58.3473 55.0612 58.3767C54.8583 58.435 54.6501 58.4726 54.4396 58.489C54.2152 58.4844 54.0463 58.6455 53.8131 58.623C53.4533 58.598 53.0918 58.611 52.7347 58.6618C52.2414 58.7202 51.7417 58.691 51.2586 58.5756C51.1186 58.5621 50.9775 58.5685 50.8394 58.5946C50.6742 58.6055 50.4864 58.6729 50.3513 58.6136C50.1297 58.504 49.8814 58.4603 49.6357 58.4879C49.5903 58.486 49.5475 58.4661 49.5168 58.4326C49.4593 58.3782 49.3914 58.336 49.3171 58.3086C49.2428 58.2812 49.1638 58.2691 49.0847 58.2732C48.9269 58.273 48.7697 58.2553 48.6158 58.2204C47.98 58.0276 47.3467 57.8165 46.714 57.6148C46.5181 57.5509 46.5396 57.5296 46.2971 57.331C46.1131 57.2124 45.916 57.1156 45.7097 57.0425C45.4346 57.191 45.2841 56.9583 45.0931 56.8449C44.9817 56.7757 44.8635 56.7149 44.7477 56.6508C44.2753 56.4262 43.8353 56.139 43.4395 55.7971C43.2542 55.6149 43.0473 55.4562 42.8234 55.3243C42.5682 55.1491 42.3352 54.9436 42.1295 54.7125C41.9643 54.5597 41.8379 54.3825 41.678 54.2323C41.4606 54.026 41.2172 53.8477 41.0157 53.6342C40.8142 53.4207 40.6773 53.1975 40.4951 52.9922C40.2702 52.7566 40.0878 52.4838 39.9561 52.1858C39.8698 52.0342 39.7638 51.8946 39.6408 51.7708C39.5205 51.6167 39.3456 51.4812 39.2895 51.3062C39.1333 50.9195 38.9404 50.5488 38.7134 50.1991C38.6266 50.037 38.5538 49.8678 38.496 49.6933C38.3633 49.3032 38.2323 48.9003 38.1003 48.5047C37.9421 48.0293 37.7663 47.559 37.7959 47.0423C37.8143 46.6895 37.8049 46.3367 37.8047 45.9833C37.8061 45.9054 37.8297 45.8007 37.7913 45.7545C37.5712 45.5143 37.5414 45.2146 37.4927 44.9178C37.4758 44.8095 37.4369 44.7 37.3003 44.7055C37.1638 44.7111 37.121 44.8205 37.1229 44.9287C37.1239 45.126 37.2109 45.3331 37.0282 45.4997C37.1083 45.8398 36.9285 46.1352 36.8234 46.4277C36.6101 47.0003 36.6195 47.6321 36.8496 48.1982C36.8659 48.2307 36.8756 48.2662 36.8781 48.3025C36.8738 48.4433 36.8045 48.6644 36.8673 48.7084C36.9988 48.8081 36.9065 49.0206 37.0934 49.0684C37.1227 49.0724 37.1655 49.1676 37.1518 49.1992C37.0257 49.4832 37.2201 49.6939 37.2907 49.9397C37.4079 50.3482 37.709 50.6627 37.7925 51.1C37.8905 51.468 38.049 51.8171 38.2616 52.133C38.4505 52.4663 38.6763 52.7772 38.9348 53.06C39.0981 53.2255 39.0784 53.4516 39.2336 53.5955C39.4052 53.7701 39.563 53.9577 39.7057 54.1565C40.1815 54.7304 40.6932 55.2736 41.2375 55.7829C41.2946 55.8381 41.3545 55.8904 41.417 55.9394L42.3453 56.6465C42.3673 56.6625 42.3973 56.674 42.4095 56.6943C42.6997 57.2249 43.2746 57.4001 43.7249 57.7257C44.0469 57.9556 44.4729 58.0231 44.7904 58.2859C44.8543 58.334 44.9296 58.3647 45.0088 58.3752C45.2035 58.4155 45.3837 58.5076 45.5304 58.6417C45.8316 58.8558 46.1785 58.9967 46.5436 59.0534C46.633 59.0667 46.7197 59.0942 46.8003 59.1349C47.0776 59.3092 47.3861 59.4277 47.7087 59.484C48.093 59.5569 48.467 59.6917 48.8476 59.792C49.0724 59.8488 49.3028 59.8914 49.5311 59.9356C49.6096 59.9463 49.6901 59.9423 49.766 59.9583C50.112 60.026 50.4552 60.1007 50.8012 60.1684C50.8537 60.1732 50.9065 60.1736 50.9591 60.1696C51.0873 60.1703 51.2169 60.1749 51.3454 60.1739C51.4752 60.1501 51.6081 60.1482 51.7386 60.1681C51.9243 60.2381 51.9786 60.0446 52.0816 60.0401C52.1845 60.0355 52.3082 60.1509 52.4298 60.214C52.4421 60.2185 52.4551 60.2203 52.4681 60.2193C52.844 60.1906 53.2314 60.1728 53.6104 60.1353C53.9104 60.1037 54.2082 60.0477 54.5074 60.0085C54.533 60.012 54.5644 60.0405 54.5937 60.0575C54.5804 60.0778 54.5653 60.0969 54.5487 60.1146C54.5475 60.1237 54.5235 60.1223 54.5131 60.1302C54.1678 60.3713 53.7331 60.5036 53.5432 60.9408C53.5021 61.0375 53.3464 61.1835 53.3059 61.1669C53.0127 61.0394 53.0089 61.3123 52.8976 61.4329C52.615 61.7049 52.3276 61.9707 52.0518 62.2473C51.7243 62.5439 51.4205 62.8657 51.143 63.2095C50.9247 63.552 50.6668 63.8676 50.3748 64.1499C50.2405 64.2559 50.1528 64.41 50.1302 64.5796C50.0849 64.743 50.0128 64.8978 49.917 65.0378C49.7228 65.4111 49.5357 65.7873 49.3277 66.1532C49.1805 66.4139 49.0678 66.6943 48.925 66.95C48.7821 67.1869 48.6699 67.4409 48.5912 67.7061C48.4581 68.177 48.3015 68.6429 48.1879 69.1203C48.0053 69.8858 47.6917 70.6298 47.7737 71.4463C47.8231 71.9291 47.6987 72.418 47.8265 72.8986C47.8729 73.063 47.8998 73.2341 47.9576 73.3964C48.1086 73.8299 47.9507 74.264 47.9438 74.6964C47.9517 75.2752 47.9971 75.853 48.0796 76.426C48.1818 77.2714 48.3617 78.1068 48.4524 78.9543C48.5014 79.4129 48.3003 79.7685 48.0704 80.1314C47.9168 80.3709 47.6688 80.3482 47.4453 80.4051C47.2816 80.446 47.1258 80.5252 46.9635 80.583C46.8905 80.6091 46.8156 80.6293 46.7395 80.6435C46.5583 80.6764 46.3774 80.7076 46.1972 80.7332C46.0559 80.7686 45.9104 80.7843 45.7649 80.7802C45.2479 80.6966 44.7253 80.6532 44.2017 80.6505C44.1365 80.6509 44.0558 80.6696 44.0059 80.6405C43.6991 80.4628 43.3699 80.6262 43.0521 80.5698C42.6977 80.5248 42.3411 80.4992 41.9839 80.4928C41.9709 80.4899 41.9584 80.485 41.9468 80.4784C41.8649 80.4372 41.7754 80.4135 41.6838 80.4087C41.5923 80.4039 41.5008 80.4181 41.415 80.4504C41.2334 80.4789 41.0481 80.4738 40.8684 80.4353C40.7004 80.4124 40.5315 80.3689 40.362 80.3439C40.0297 80.2985 39.6935 80.2675 39.3632 80.2075C38.9795 80.144 38.6013 80.0533 38.2185 79.9825C37.8358 79.9116 37.4904 79.8663 37.128 79.7964C36.8052 79.7356 36.488 79.6476 36.1674 79.5853C35.9101 79.5353 35.6452 79.514 35.3905 79.4588C35.2517 79.4133 35.1203 79.3477 35.0004 79.2642C34.8817 79.194 34.6778 79.3522 34.6198 79.1229C34.1499 79.0774 33.7574 78.8192 33.3251 78.6616C33.0321 78.5602 32.7225 78.4845 32.4962 78.2211C31.9761 77.6589 31.5556 77.0121 31.2527 76.3086C31.0763 75.8568 30.9334 75.3909 30.7997 74.9263C30.7768 74.7984 30.7915 74.6667 30.8422 74.5471C31.0321 74.0002 31.5271 73.7534 31.9409 73.4194C32.1162 73.2796 32.2597 73.3736 32.4124 73.3442C32.757 73.2784 33.1071 73.2458 33.4579 73.247C33.9187 73.2504 34.3572 73.4721 34.8146 73.4044C34.8347 73.4031 34.8548 73.4059 34.8737 73.4126C34.8926 73.4193 34.9099 73.4299 34.9246 73.4435C35.0983 73.6291 35.3189 73.6071 35.542 73.6078C35.6476 73.6121 35.7515 73.6357 35.8486 73.6776C36.2839 73.8542 36.7391 73.9665 37.1584 74.206C37.3723 74.3282 37.6063 74.4123 37.8278 74.5206C38.2988 74.7486 38.7815 74.9596 39.2352 75.2187C39.5527 75.3996 39.8285 75.6549 40.1329 75.8638C40.6627 76.2337 41.1871 76.6159 41.7401 76.9518C42.1846 77.2245 42.675 77.4197 43.0828 77.7563C43.193 77.8311 43.3081 77.8984 43.4273 77.9577C43.4482 77.9746 43.4725 77.9868 43.4986 77.9933C43.5246 77.9998 43.5518 78.0005 43.5782 77.9954C43.6046 77.9904 43.6296 77.9796 43.6513 77.9638C43.6731 77.9481 43.6912 77.9278 43.7043 77.9043C43.7218 77.8656 43.7305 77.8235 43.7299 77.7809C43.7293 77.7384 43.7193 77.6966 43.7007 77.6583C43.2786 77.0364 42.8123 76.4456 42.3053 75.8907C42.1882 75.7859 42.0597 75.6947 41.9221 75.6189C41.8849 75.5915 41.8503 75.5589 41.8154 75.5281C41.6988 75.4285 41.5851 75.3218 41.4643 75.2254C41.3091 75.1279 41.1631 75.0164 41.0281 74.8924C40.6234 74.457 40.1366 74.1061 39.5956 73.8599C39.371 73.7474 39.1464 73.6349 38.9296 73.5068C38.8626 73.466 38.7766 73.3743 38.7707 73.3084C38.7854 72.8733 38.8022 72.4367 38.8538 72.0048C38.8941 71.709 39.0081 71.4195 39.0338 71.1217C39.0654 70.754 39.0897 70.3854 39.1487 70.0215C39.2341 69.5049 39.265 68.9791 39.4555 68.4824C39.4771 68.4199 39.4916 68.3552 39.4986 68.2894C39.5623 67.755 39.593 67.2161 39.813 66.7086C39.9104 66.4857 39.9012 66.2259 40.0314 65.9945C40.0616 65.909 40.074 65.8183 40.0678 65.7279C40.0735 65.6859 40.0547 65.6331 40.0738 65.6022C40.2146 65.3339 40.3014 65.0405 40.3293 64.7388C40.3962 64.5123 40.4884 64.2941 40.6041 64.0882C40.6183 64.068 40.6369 64.0514 40.6585 64.0395C40.6801 64.0276 40.7041 64.0209 40.7287 64.0197C40.8107 64.0435 40.8851 64.0882 40.9446 64.1495C41.004 64.2107 41.0465 64.2864 41.0679 64.3691C41.1039 64.6031 41.1003 64.8415 41.0572 65.0743C40.9666 65.3901 40.9219 65.7173 40.9245 66.0458C40.9064 66.3999 40.9266 66.7549 40.9846 67.1048C41.009 67.1646 41.0173 67.2299 41.0086 67.294C40.9998 67.3581 40.9743 67.4188 40.9347 67.4699C40.8858 67.5283 40.8451 67.5953 40.7912 67.6493C40.7553 67.6847 40.7311 67.7303 40.7216 67.7798C40.7122 67.8294 40.7181 67.8806 40.7384 67.9267C40.8086 68.1999 40.8366 68.4822 40.8213 68.7638C40.7982 69.052 40.8253 69.342 40.9014 69.6209C40.9394 69.7867 40.963 69.9555 40.9721 70.1253C40.9874 70.3264 40.9665 70.5338 40.9951 70.7329C41.1158 71.525 41.2479 72.3149 41.38 73.1048C41.4021 73.1928 41.437 73.277 41.4834 73.355C41.5656 73.4849 41.6404 73.6193 41.7075 73.7576C41.7902 73.9703 41.9518 74.143 42.1587 74.2396C42.371 74.3467 42.5385 74.2914 42.5889 74.0584C42.6657 73.7787 42.6972 73.4885 42.6821 73.1988C42.5846 72.5504 42.5496 71.8942 42.5776 71.2391C42.5825 71.1758 42.5767 71.1122 42.5605 71.0508C42.4167 70.5172 42.3505 69.9657 42.3638 69.4133C42.3625 69.2676 42.35 69.1223 42.3264 68.9785C42.257 68.465 42.1209 67.9499 42.3812 67.4461C42.3936 67.4236 42.3605 67.38 42.3595 67.3464C42.3601 67.0284 42.3553 66.7098 42.371 66.3902C42.3841 66.1037 42.3579 65.7913 42.4632 65.5378C42.6184 65.1055 42.6909 64.648 42.6771 64.1889C42.6781 64.0995 42.6903 64.0105 42.7132 63.9241C42.7864 63.7016 42.8809 63.4858 42.9507 63.261C43.0204 63.0362 43.1874 62.8897 43.376 63.0066C43.6829 63.1973 43.9732 63.0733 44.2575 63.0209C44.6639 62.9309 45.0749 62.8629 45.4886 62.817C45.7763 62.7982 46.0595 62.7359 46.3285 62.6322C46.5871 62.5133 46.833 62.3687 47.0626 62.2005C47.1252 62.161 47.1746 62.1035 47.2041 62.0355C47.2336 61.9676 47.2419 61.8923 47.228 61.8195C47.2018 61.6708 47.0586 61.6978 46.9435 61.6561C46.6744 61.5561 46.4164 61.7701 46.145 61.6605C46.0075 61.6249 45.8649 61.6136 45.7236 61.6271C45.3632 61.6244 44.9907 61.6964 44.6696 61.4461C44.6395 61.4215 44.5729 61.4459 44.5226 61.4464C44.2555 61.4416 43.9856 61.4568 43.7219 61.4264C43.4582 61.396 43.1533 61.3134 42.8687 61.2597C42.5167 61.1949 42.1665 61.1304 41.8133 61.0748C41.6616 61.0462 41.5071 61.0351 41.3529 61.0416C40.9445 61.0854 40.5317 61.0592 40.1322 60.9642C39.6185 60.7986 39.0819 60.7154 38.5422 60.7175C38.3776 60.7248 38.2032 60.5986 38.0362 60.5275C37.8693 60.4563 37.7376 60.3714 37.5804 60.3239C36.7282 60.096 35.9018 59.7807 35.1144 59.3828C34.9306 59.2852 34.7784 59.1193 34.5926 59.0363C33.9658 58.7608 33.3742 58.4115 32.8301 57.9959C32.5217 57.7919 32.2288 57.5654 31.9536 57.3183C31.5871 56.9589 31.1881 56.6343 30.7618 56.3484C30.5382 56.1877 30.2702 56.0805 30.2226 55.7616C30.2127 55.722 30.19 55.6869 30.1581 55.6616L29.4602 55.079C29.3617 54.9967 29.2588 54.9195 29.1647 54.8322C29.0706 54.745 28.9376 54.6152 28.8379 54.5012C28.7587 54.4141 28.69 54.3173 28.6209 54.2242C28.5518 54.1311 28.4744 54.0033 28.3956 53.8996C28.0492 53.4394 27.5788 53.0702 27.377 52.5051C27.3722 52.4928 27.3656 52.4813 27.3575 52.4708C27.0998 52.1869 26.889 51.8637 26.7331 51.5133C26.5947 51.2601 26.4275 51.0271 26.2896 50.7702C26.1936 50.5879 26.1049 50.4065 25.9917 50.2274C25.8267 49.9774 25.6861 49.7122 25.5716 49.4354C25.4298 49.0441 25.3211 48.6275 25.0514 48.2875C25 48.1978 24.9605 48.1017 24.9341 48.0018C24.7791 47.6254 24.8291 47.1636 24.4619 46.8698C24.415 46.8318 24.4242 46.7233 24.4027 46.6497C24.3327 46.3027 24.2342 45.9621 24.1084 45.6312C23.955 45.324 23.8893 44.9803 23.9184 44.6381C23.9269 44.5761 23.9386 44.4903 23.9105 44.4511C23.7087 44.1855 23.7296 43.8554 23.6417 43.5588C23.5405 43.3021 23.4808 43.0309 23.465 42.7554C23.4799 42.5392 23.4514 42.3222 23.381 42.1172C23.3444 41.9412 23.3314 41.7613 23.3425 41.5819C23.466 41.6947 23.5818 41.8155 23.6893 41.9436C23.9203 42.2541 24.1623 42.5661 24.5404 42.6846C24.8963 42.802 25.2009 43.0092 25.6137 42.9967C26.1954 42.984 26.7622 42.8096 27.2503 42.4929C27.7934 42.1348 28.2324 41.6398 28.5231 41.0579C28.6542 40.8061 28.6524 40.8058 28.9296 40.9274C28.9753 40.9541 29.0271 40.9689 29.08 40.9703C29.4465 40.9013 29.7826 41.055 30.1329 41.0916C30.5782 41.1402 31.0188 41.2246 31.4505 41.344C31.6406 41.396 31.8232 41.4749 32.0135 41.525C32.2934 41.6004 32.5763 41.667 32.8586 41.7241C33.0651 41.7709 33.2753 41.7996 33.4867 41.8099C33.7091 41.816 33.9395 41.7359 34.1516 41.776C34.3756 41.8377 34.5902 41.9295 34.7895 42.0491C34.8992 42.0958 35.0179 42.1177 35.1371 42.1134C35.2563 42.1091 35.3731 42.0787 35.4792 42.0242C35.5028 42.0144 35.5203 41.9406 35.51 41.9075C35.4996 41.8745 35.4482 41.8284 35.4162 41.7905C35.478 41.7885 35.5399 41.7901 35.6015 41.7954C35.7841 41.8203 35.9237 41.7241 35.9058 41.5691C35.9049 41.442 35.8728 41.3169 35.8121 41.2052C35.7515 41.0934 35.6642 40.9983 35.5581 40.9283C35.1797 40.7297 34.8041 40.5111 34.3501 40.4993C34.1245 40.5158 33.8979 40.511 33.6732 40.485C33.2668 40.396 32.8981 40.1542 32.4588 40.1705C32.4388 40.1677 32.4188 40.1371 32.3939 40.1281C32.0705 39.9909 31.7597 39.8146 31.3945 39.7927C31.2912 39.77 31.1917 39.7326 31.099 39.6817C31.0193 39.6374 30.9335 39.605 30.8443 39.5855C30.2321 39.5336 29.6181 39.4944 29.0033 39.4476C28.5937 39.4334 28.1854 39.3945 27.7806 39.3309C27.3589 39.2455 26.953 39.112 26.5152 39.0634C25.9907 38.9781 25.4709 38.8662 24.9577 38.728ZM6.6918 48.77C6.70669 48.6421 6.73081 48.5155 6.76396 48.3911C7.03615 47.6203 7.45275 46.9083 7.99144 46.2933C8.20628 46.0156 8.46468 45.7746 8.75659 45.5795C9.07283 45.3883 9.40359 45.227 9.71593 45.0371C10.0506 44.7974 10.449 44.6628 10.8605 44.6503C10.9259 44.6501 10.9908 44.6375 11.0515 44.6132C11.4719 44.4574 11.9217 44.3974 12.3681 44.4377C12.5895 44.4511 12.814 44.4 13.0379 44.3952C13.5981 44.3787 14.1568 44.3731 14.716 44.3639C14.7291 44.3628 14.7421 44.3646 14.7544 44.3691C15.1285 44.5578 15.538 44.651 15.8618 44.963C16.1856 45.275 16.6164 45.5662 16.9446 45.9272C17.1068 46.1019 17.3427 46.1992 17.49 46.3737C17.8938 46.9026 18.3478 47.3912 18.8457 47.8328C18.8643 47.8465 18.8872 47.8831 18.8825 47.8899C18.731 48.0868 18.9743 48.1572 19.0135 48.2928C19.0536 48.4454 19.0815 48.6009 19.0969 48.7579C19.1091 48.8731 19.0556 48.9383 18.9181 48.9642C18.3582 49.0738 17.8553 48.8749 17.3442 48.7084C17.3214 48.6957 17.2997 48.681 17.2796 48.6642L15.9771 47.8373C15.9262 47.7944 15.8675 47.7619 15.8043 47.7412C15.3073 47.6622 14.8651 47.427 14.3894 47.2746C14.2643 47.2371 14.1478 47.1915 14.0673 47.2902C13.9869 47.389 14.1173 47.483 14.1838 47.5404C14.469 47.7951 14.7655 48.0346 15.0529 48.2859C15.7662 48.9059 16.4479 49.5662 17.3394 49.9427C17.5892 50.0475 17.64 50.2887 17.4935 50.531C17.4243 50.6424 17.3565 50.7578 17.2793 50.8737C17.0755 51.1676 16.9031 51.2315 16.618 51.0308C16.4288 50.9147 16.2195 50.835 16.001 50.7959C15.9222 50.7852 15.8462 50.7598 15.7769 50.7207C15.4448 50.4831 15.0872 50.2832 14.7107 50.125C14.3607 49.9638 14.0313 49.7887 13.6889 49.6266C13.6329 49.6004 13.5592 49.6089 13.4971 49.6005C13.4401 49.5844 13.3869 49.5568 13.3408 49.5195C13.3062 49.483 13.2639 49.4546 13.2171 49.4362C13.1703 49.4177 13.12 49.4097 13.0698 49.4128C13.0195 49.4159 12.9706 49.4299 12.9264 49.4539C12.8821 49.4779 12.8437 49.5113 12.8138 49.5518C12.7942 49.577 12.7801 49.606 12.7724 49.637C12.7646 49.668 12.7634 49.7001 12.7688 49.7316C12.9457 50.098 13.0995 50.4835 13.4746 50.7058C13.6056 50.7876 13.7247 50.8871 13.8285 51.0015C14.0588 51.2122 14.3118 51.3964 14.583 51.5509C14.8905 51.751 15.2616 51.8388 15.5289 52.1152C15.589 52.1667 15.6348 52.2329 15.6618 52.3073C15.6888 52.3817 15.6961 52.4618 15.683 52.5398C15.6639 52.6312 15.619 52.7153 15.5535 52.7819C15.488 52.8485 15.4048 52.8948 15.3137 52.9153C15.2229 52.934 15.1301 52.9407 15.0375 52.9353C14.8125 52.9213 14.5904 52.9003 14.3666 52.8772C14.1356 52.8652 13.9059 52.8338 13.6801 52.7835C13.2973 52.6717 12.9309 52.4952 12.5466 52.3944C12.3731 52.3458 12.2106 52.2643 12.0679 52.1542C11.688 51.8717 11.2443 51.893 10.8105 51.9101C10.6068 51.9176 10.5628 52.0622 10.6664 52.2438C10.9067 52.6361 11.226 52.9742 11.604 53.2366C12.1149 53.5919 12.6808 53.8607 13.279 54.0325C13.6876 54.1589 14.0807 54.3725 14.5345 54.3043C14.5868 54.3088 14.6384 54.3196 14.6882 54.3364C14.8268 54.366 14.9681 54.381 15.1099 54.381C15.6738 54.3371 16.1215 54.0411 16.5418 53.6874C16.7776 53.4533 16.9424 53.1573 17.0173 52.8336C17.1066 52.5612 17.2361 52.3482 17.5189 52.279C17.8671 52.1945 18.0564 51.9116 18.2979 51.6953C18.4016 51.6035 18.4504 51.4502 18.5499 51.3485C18.66 51.2425 18.7427 51.1113 18.7907 50.9662C18.8387 50.821 18.8506 50.6664 18.8254 50.5156C18.8073 50.3755 18.7343 50.202 18.7907 50.1018C18.8472 50.0016 19.0328 49.9637 19.1635 49.9053C19.2203 49.8866 19.2783 49.8715 19.337 49.8601C19.5002 49.8172 19.6463 49.7256 19.756 49.5975C19.8572 49.4827 19.9311 49.3465 19.9722 49.1991C20.0132 49.0517 20.0204 48.897 19.9931 48.7464C19.9415 48.3209 19.9816 47.8632 19.6542 47.5098C19.6213 47.2058 19.3955 47.0337 19.2015 46.8342C18.8955 46.5234 18.5986 46.2045 18.311 45.8776C18.1491 45.7011 18.1722 45.695 18.3536 45.5653C18.5822 45.4097 18.801 45.2402 19.0087 45.0578C19.5021 44.6044 19.9793 44.1338 20.4677 43.676C20.6292 43.5051 20.8103 43.3538 21.0072 43.2252C21.1749 43.1272 21.2542 42.887 21.399 42.7394C21.5438 42.5918 21.6074 42.4256 21.8268 42.4258C21.864 42.589 21.9073 42.7492 21.9463 42.9126C22.0263 43.3216 21.9664 43.7598 22.2476 44.1255C22.3048 44.2299 22.3244 44.3507 22.3031 44.4679C22.2736 44.8381 22.3486 45.2092 22.5196 45.539C22.59 45.7082 22.6457 45.8832 22.6863 46.062C22.7537 46.3037 22.7962 46.5513 22.8813 46.7861C22.9903 47.0911 23.1498 47.3807 23.2515 47.6847C23.4042 48.1464 23.4646 48.6437 23.7845 49.0389C23.824 49.1074 23.8552 49.1803 23.8776 49.2562C24.0483 49.6403 24.1408 50.0528 24.4039 50.4012C24.5146 50.5293 24.5778 50.6917 24.5829 50.8609C24.5662 50.9832 24.3674 51.077 24.2646 51.1894C24.2281 51.2254 24.2071 51.2839 24.1661 51.3117C23.9577 51.4678 23.7389 51.6094 23.5112 51.7356C23.2069 51.8801 22.8708 51.9718 22.5705 52.1279C22.2319 52.3055 21.8742 52.4438 21.5043 52.5403C21.2927 52.584 21.079 52.617 20.8641 52.6389C20.5131 52.6896 20.1618 52.7421 19.8113 52.7891C19.5632 52.8222 19.3107 52.8323 19.0561 52.872C18.9931 52.8782 18.933 52.901 18.8818 52.9382C18.8307 52.9753 18.7904 53.0255 18.765 53.0834C18.7397 53.1414 18.7302 53.205 18.7377 53.2678C18.7451 53.3306 18.7692 53.3902 18.8073 53.4407C18.8686 53.5433 18.9534 53.6299 19.0546 53.6935C19.1558 53.7571 19.2707 53.7959 19.3897 53.8066C19.5851 53.8333 19.7823 53.8602 19.9758 53.8866C20.3051 53.913 20.6352 53.9338 20.9652 53.9417C21.0815 53.9475 21.1975 53.9236 21.302 53.8723C21.5114 53.7539 21.7584 53.721 21.9915 53.7804C22.0864 53.8019 22.1845 53.8044 22.2803 53.7878C22.3761 53.7712 22.4676 53.7359 22.5497 53.6837C22.7936 53.5516 23.053 53.4502 23.3218 53.3818C23.6566 53.2663 23.9771 53.1128 24.277 52.9245C24.6498 52.7419 24.9841 52.4895 25.2619 52.181C25.2795 52.1611 25.3039 52.1328 25.3239 52.1356C25.344 52.1383 25.4463 52.1523 25.4467 52.1766C25.4792 52.5381 25.7608 52.7774 25.9062 53.0743C26.0413 53.3604 26.2115 53.6286 26.4129 53.8726C26.8233 54.3675 27.2669 54.8373 27.6939 55.3196C27.7472 55.379 27.788 55.4478 27.839 55.5105C27.8588 55.5286 27.8744 55.5508 27.8848 55.5755C27.8952 55.6002 27.9 55.6268 27.899 55.6536C27.898 55.6804 27.8912 55.7066 27.879 55.7305C27.8668 55.7544 27.8496 55.7753 27.8285 55.7918C27.6605 55.9735 27.4975 56.1595 27.3216 56.3308C27.248 56.3852 27.1669 56.4287 27.0808 56.4598C26.9888 56.5067 26.8953 56.5516 26.8057 56.6082C26.5809 56.743 26.361 56.8822 26.1346 57.015C25.9528 57.1203 25.7558 57.2013 25.5866 57.3233C25.381 57.4635 25.1509 57.564 24.9082 57.6194C24.7323 57.6673 24.563 57.7366 24.4039 57.8258C24.0682 58.0346 23.6937 58.1732 23.303 58.2335C23.1147 58.2505 22.9062 58.2109 22.7681 58.2962C22.4408 58.5007 22.0835 58.4613 21.7366 58.5088C21.6702 58.5184 21.6065 58.5357 21.5456 58.546C21.3367 58.577 21.1298 58.6082 20.9214 58.6356C20.6597 58.6548 20.3992 58.6888 20.1413 58.7374C19.7768 58.8514 19.3911 58.8808 19.0136 58.8234C18.5462 58.7596 18.0803 58.6439 17.6246 58.8755C17.6003 58.8865 17.5733 58.8899 17.547 58.8854L16.4205 58.7316C16.2677 58.6875 16.1087 58.669 15.95 58.6767C15.603 58.7521 15.3028 58.6218 14.9841 58.5448C14.8152 58.5013 14.6119 58.5461 14.4567 58.484C14.0523 58.3265 13.6158 58.2818 13.2205 58.0846C12.9165 57.9684 12.6055 57.8713 12.2894 57.7938C12.1457 57.7426 12.0274 57.6149 11.8827 57.5709C11.3493 57.4091 10.855 57.139 10.4306 56.7775C10.0633 56.5039 9.71028 56.2118 9.37279 55.9022C9.01401 55.5616 8.6915 55.1847 8.41039 54.7776C8.31705 54.6034 8.20903 54.4375 8.08753 54.2817C7.70067 53.8457 7.54141 53.2957 7.28445 52.7938C7.14019 52.4859 7.04015 52.1592 6.9873 51.8233C6.9115 51.4522 6.74672 51.1061 6.69457 50.7251C6.61986 50.0756 6.61893 49.4197 6.6918 48.77ZM14.338 34.7488L14.3508 34.7505C14.3186 34.8912 14.2931 35.0366 14.2536 35.1763C14.2371 35.2543 14.201 35.3268 14.1486 35.387C14.0962 35.4471 14.0292 35.4929 13.9542 35.5199C13.8791 35.5469 13.7984 35.5543 13.7197 35.5414C13.641 35.5285 13.5669 35.4956 13.5045 35.446C13.276 35.2903 13.0193 35.1806 12.7488 35.1233C12.4212 35.0433 12.075 35.0313 11.7372 34.9852C11.6077 34.9644 11.4809 34.9289 11.3592 34.8797C11.1207 34.7876 11.0897 34.7424 11.1356 34.5013C11.2004 34.1494 11.2976 33.8055 11.3566 33.4546C11.428 33.0273 11.4738 32.5965 11.5323 32.1675C11.5376 32.1019 11.5465 32.0367 11.559 31.9721C11.6053 31.7832 11.6572 31.5931 11.7053 31.4043C11.7534 31.2156 11.7173 30.9763 11.9078 30.8201C11.9351 30.7978 11.9343 30.7214 11.9275 30.6758C11.8547 30.313 11.9016 29.9363 12.0611 29.6023C12.0912 29.5298 12.1133 29.4543 12.1271 29.377C12.2073 28.9807 12.2911 28.5848 12.3624 28.1853C12.4336 27.7859 12.5012 27.332 12.5679 26.9115C12.579 26.743 12.6068 26.5761 12.6508 26.4131C12.7882 26.0469 12.7552 25.6481 12.8929 25.28C12.963 25.0978 12.9733 24.898 12.9224 24.7094C12.8574 24.4773 13.0949 24.2773 13.3502 24.301C13.5327 24.3259 13.7118 24.3764 13.8942 24.4032C14.347 24.465 14.8044 24.5479 15.2564 24.5742C15.6436 24.5992 15.7675 24.6998 15.7234 25.0769C15.7133 25.1557 15.6977 25.2338 15.6767 25.3104C15.5908 25.613 15.4552 25.9107 15.6141 26.2318C15.6329 26.2716 15.6002 26.3341 15.5932 26.3853C15.4998 26.9193 15.4012 27.4508 15.3118 27.9835C15.2814 28.2063 15.251 28.429 15.2206 28.6518C15.1901 28.8745 15.1843 29.0672 15.1741 29.2778C15.164 29.4884 15.1575 29.6996 15.1492 29.9104C15.1495 29.9617 15.1425 30.0127 15.1285 30.062C15.0305 30.3352 14.9733 30.6213 14.9586 30.9111C14.9416 31.1996 14.9061 31.4868 14.8524 31.7708C14.733 32.2142 14.6658 32.67 14.6521 33.129C14.6449 33.2608 14.6221 33.3913 14.5842 33.5177L14.338 34.7488ZM16.8152 27.2978L16.775 27.2924C16.8253 27.0463 16.8686 26.7974 16.9296 26.5546C16.9605 26.4553 17.0104 26.363 17.0765 26.2827C17.1013 26.2508 17.1876 26.2458 17.2377 26.26C17.5364 26.3473 17.832 26.4435 18.1299 26.5362C18.4279 26.629 18.7434 26.6199 19.0466 26.7283C19.18 26.7611 19.3023 26.8285 19.4013 26.9237C19.5003 27.0188 19.5725 27.1383 19.6106 27.2703C19.6494 27.3946 19.7265 27.5112 19.7578 27.6363C19.8607 27.9898 19.9414 28.3492 19.9995 28.7127C20.0322 29.0791 20.0441 29.4471 20.0351 29.8149C20.0364 30 20.0273 30.185 20.0078 30.3691C19.9828 30.5517 19.9579 30.7343 19.933 30.9169C19.8508 31.3688 19.7901 31.8273 19.6685 32.2682C19.5442 32.7088 19.3865 33.1393 19.197 33.556C18.9932 34.0136 18.9085 34.5656 18.3517 34.789C18.332 34.7975 18.3217 34.8314 18.306 34.8516C18.0612 35.1734 17.7345 35.1958 17.3764 35.1078C17.2253 35.0705 17.072 35.0347 16.9183 35.0025C16.6368 34.9399 16.3527 34.8956 16.077 34.817C15.753 34.7244 15.7547 34.7116 15.7881 34.3851C15.8078 34.2408 15.8275 34.0967 15.8472 33.9524C15.9313 33.4729 16.0338 32.994 16.1054 32.5109C16.1782 31.9777 16.2217 31.4406 16.2927 30.9072C16.3636 30.3738 16.4641 29.8147 16.5426 29.2674C16.6421 28.5929 16.7274 27.9406 16.8164 27.2888L16.8152 27.2978ZM22.1442 24.5697C22.3775 24.6111 22.6086 24.6644 22.8366 24.7293C23.1262 24.8284 23.1542 24.8954 23.0366 25.1714C22.9749 25.2727 22.9348 25.3856 22.9188 25.5031C22.9028 25.6206 22.9111 25.7402 22.9434 25.8543C22.9583 25.9059 22.9573 25.9608 22.9404 26.0119C22.8347 26.3777 22.7793 26.7563 22.7757 27.137C22.734 27.5807 22.6584 28.0205 22.5496 28.4527C22.5084 28.6591 22.4236 28.8577 22.3934 29.0656C22.3238 29.575 22.2707 30.0866 22.1991 30.5976C22.1518 30.9445 22.0809 31.2863 22.0208 31.6315C21.9944 31.8251 21.9479 32.0159 21.9233 32.2097C21.8664 32.626 21.9102 33.082 21.7535 33.4531C21.6065 33.8619 21.5441 34.2963 21.5699 34.7299C21.5403 35.117 21.473 35.5002 21.3691 35.8742C21.2212 36.4264 21.1109 36.988 21.0392 37.5551C21.0258 37.7485 20.9668 37.813 20.7717 37.7976C20.5107 37.7768 20.251 37.7413 19.9939 37.6914C19.3382 37.5628 18.685 37.416 18.0302 37.2801C17.1928 37.1063 16.3172 37.1579 15.4976 36.8674C15.4586 36.8585 15.4189 36.8531 15.3789 36.8512C15.1708 36.8228 15.1617 36.8216 15.2088 36.6123C15.2268 36.5484 15.2484 36.4855 15.2736 36.424C15.3903 36.0866 15.3916 36.0774 15.7523 36.1601C16.4091 36.3075 17.0627 36.4655 17.7193 36.6147C18.0331 36.6872 18.3482 36.7358 18.6154 36.4951C18.9774 36.1726 19.3505 35.8516 19.6816 35.4969C20.2149 34.928 20.4072 34.1602 20.7874 33.4997C20.8648 33.3459 20.9134 33.1792 20.9309 33.0079C20.9404 32.7355 21.0157 32.4695 21.1502 32.2325C21.2222 32.1204 21.2571 31.9885 21.25 31.8555C21.2331 31.5339 21.2497 31.2114 21.2995 30.8933C21.3723 30.442 21.5008 29.9908 21.3541 29.5262C21.3421 29.4911 21.3648 29.4478 21.37 29.4095C21.3833 29.0802 21.4021 28.7517 21.4061 28.4231C21.3961 28.3319 21.3725 28.2428 21.3362 28.1587C21.2915 28.0094 21.2428 27.8614 21.1963 27.7119C21.1515 27.5078 21.0898 27.3077 21.012 27.1138C20.8032 26.6948 20.5807 26.2812 20.3338 25.883C20.2211 25.723 20.0816 25.5837 19.9213 25.4714C19.6413 25.2472 19.2915 25.2478 18.9587 25.1931C18.4309 25.108 17.9037 25.0193 17.3797 24.9199C17.1603 24.8787 17.1577 24.8431 17.2215 24.6212C17.277 24.4443 17.3191 24.2636 17.3474 24.0804C17.3793 23.8467 17.4224 23.7763 17.6156 23.8734C17.8352 23.9629 18.0738 23.9954 18.3094 23.9681C18.6527 23.9411 18.9979 23.9832 19.3247 24.0918C19.4008 24.1151 19.4809 24.1223 19.5599 24.1127C19.9669 24.1054 20.3734 24.1453 20.7712 24.2316C20.9293 24.2379 21.0852 24.2711 21.2321 24.3298C21.5071 24.4952 21.8249 24.5755 22.1454 24.5606L22.1442 24.5697ZM41.271 27.2403L41.2511 27.3045L40.535 27.1007C40.2953 27.0308 40.0587 26.9521 39.8191 26.8952C39.5184 26.8225 39.4911 26.7908 39.5689 26.5076C39.5866 26.4434 39.6088 26.3806 39.6354 26.3196C39.8939 25.8058 40.1248 25.2785 40.3272 24.7401C40.4413 24.3949 40.5494 24.1343 40.8777 23.9225C41.1755 23.7307 41.375 23.386 41.6159 23.1064C41.6841 22.9971 41.7678 22.8983 41.8643 22.8129C42.313 22.5506 42.6853 22.1532 43.2025 22.0155C43.4351 21.9332 43.6609 21.8328 43.8777 21.7152C44.2374 21.5598 44.6104 21.4433 44.9823 21.3081C45.0975 21.268 45.1631 21.3457 45.1612 21.4552C45.1678 21.5474 45.1507 21.64 45.1115 21.7237C44.9689 21.9496 44.913 22.2194 44.9539 22.4833C44.9701 22.6148 44.9414 22.7478 44.8726 22.8609C44.765 23.0401 44.711 23.2464 44.717 23.4553C44.6902 23.911 44.7108 24.3732 44.4535 24.7863C44.413 24.8515 44.4395 24.9705 44.4379 25.0502C44.4302 25.1068 44.4544 25.1752 44.4299 25.2183C44.3737 25.3055 44.3432 25.4069 44.3418 25.5106C44.3405 25.6144 44.3684 25.7164 44.4223 25.805C44.4338 25.8378 44.441 25.872 44.4438 25.9066C44.4091 25.9018 44.3743 25.8841 44.3427 25.8704C44.3111 25.8568 44.2366 25.8169 44.1825 25.7909C44.1649 25.8517 44.1199 25.9219 44.1374 25.9707C44.1589 26.0608 44.1589 26.1546 44.1376 26.2447C44.1162 26.3348 44.0741 26.4187 44.0145 26.4896C43.9613 26.5636 43.9173 26.6437 43.8834 26.7283C43.7443 27.1204 43.6142 27.2291 43.233 27.1194C43.0604 27.0545 42.8737 27.0367 42.692 27.0678C42.5103 27.0989 42.3401 27.1777 42.1989 27.2963C42.0937 27.3712 41.9647 27.4052 41.8362 27.3919C41.6442 27.3535 41.4557 27.2998 41.2723 27.2311L41.271 27.2403ZM38.7099 24.789C38.7019 24.8474 38.6949 24.8986 38.6731 24.9495C38.566 25.3385 38.4645 25.7282 38.3467 26.1139C38.3338 26.1692 38.3092 26.221 38.2745 26.2659C38.2399 26.3109 38.196 26.348 38.1459 26.3746C38.0957 26.4012 38.0405 26.4168 37.9838 26.4203C37.9271 26.4238 37.8704 26.4152 37.8173 26.395C37.6102 26.3052 37.3805 26.2809 37.1591 26.3256C37.1066 26.3282 37.0543 26.3172 37.0073 26.2936C36.7963 26.2314 36.5835 26.1689 36.3754 26.0996C36.2419 26.0553 36.1394 26.0022 36.2136 25.8133C36.2672 25.6359 36.3099 25.4554 36.3413 25.2728C36.4316 24.8082 36.5562 24.3509 36.7141 23.9046C36.9074 23.4315 37.156 22.9829 37.4545 22.568C37.6157 22.3998 37.753 22.2101 37.8625 22.0044C38.0032 21.7058 38.1932 21.4331 38.4246 21.1977C38.5899 20.9624 38.7828 20.7477 38.9991 20.5582C39.3166 20.317 39.5832 20.013 39.9812 19.8628C40.3403 19.7258 40.6598 19.4291 41.0305 19.82C41.0443 19.8344 41.0611 19.8457 41.0797 19.853C41.0982 19.8603 41.1182 19.8636 41.1381 19.8626C41.3579 19.8424 41.5789 19.8874 41.7732 19.9921C41.9878 20.0827 42.21 20.1577 42.4264 20.2486C42.4365 20.2652 42.443 20.2837 42.4455 20.303C42.448 20.3222 42.4464 20.3418 42.4409 20.3604C42.2634 20.4887 42.0783 20.6047 41.9009 20.733C41.4346 21.0693 40.9027 21.3146 40.5461 21.8016C40.3121 22.0823 40.0637 22.3507 39.8021 22.6058C39.5942 22.8341 39.5065 23.1494 39.2646 23.3545C39.2193 23.4031 39.188 23.4631 39.174 23.5281C39.0832 23.8114 38.9977 24.0974 38.9069 24.3807C38.8982 24.4182 38.8766 24.4515 38.8458 24.4746C38.8157 24.4842 38.7881 24.5001 38.7647 24.5212C38.7412 24.5423 38.7225 24.5682 38.7098 24.597C38.6971 24.6258 38.6906 24.6571 38.6908 24.6886C38.6911 24.7201 38.698 24.7512 38.7111 24.7799L38.7099 24.789ZM8.01377 28.3096C8.13511 27.2694 8.39559 26.2504 8.78822 25.2796C8.95993 24.8041 9.23084 24.3707 9.58299 24.0081C9.71106 23.863 9.8731 23.7519 10.0546 23.6848C10.2361 23.6178 10.4314 23.5968 10.6231 23.6237C11.2181 23.7198 11.8079 24.6856 11.6492 25.2758C11.6451 25.3266 11.6254 25.375 11.593 25.4143C11.5605 25.4535 11.5167 25.4819 11.4675 25.4955C11.4184 25.5091 11.3663 25.5072 11.3182 25.4902C11.2702 25.4732 11.2285 25.4418 11.1989 25.4003C11.1383 25.3279 11.0867 25.2485 11.0452 25.1637C10.973 25.0385 10.9153 24.9022 10.8351 24.7815C10.5773 24.3948 10.3499 24.3713 10.0458 24.7185C9.68067 25.1204 9.39107 25.5849 9.19096 26.0897C8.6314 27.5351 8.32487 29.0662 8.28481 30.6156C8.24796 31.318 8.34113 32.0211 8.55964 32.6897C8.63068 32.8878 8.74213 33.0689 8.88689 33.2217C8.93501 33.2727 8.99323 33.3132 9.05786 33.3405C9.12248 33.3678 9.19209 33.3813 9.26224 33.3802C9.33239 33.3791 9.40152 33.3634 9.46526 33.3341C9.529 33.3048 9.58594 33.2625 9.63243 33.21C9.72863 33.1037 9.81845 32.9917 9.90138 32.8747C9.95775 32.8025 10.003 32.7026 10.0768 32.6662C10.1211 32.6435 10.1696 32.63 10.2193 32.6265C10.269 32.6231 10.3189 32.6298 10.3659 32.6462C10.4398 32.715 10.4842 32.8096 10.4898 32.9104C10.4909 32.99 10.4604 33.0668 10.4049 33.1238C10.1942 33.3593 9.9642 33.5768 9.71726 33.7739C9.58534 33.8787 9.4227 33.9375 9.25425 33.941C9.0858 33.9446 8.92084 33.8927 8.78464 33.7935C8.60306 33.6411 8.45818 33.4497 8.36078 33.2336C8.10806 32.6924 7.95876 32.1086 7.92058 31.5126C7.81984 30.4421 7.85155 29.3632 8.01501 28.3005L8.01377 28.3096ZM27.5003 24.2314L27.4958 24.2643C27.4698 24.2679 27.4435 24.2686 27.4174 24.2666C27.1672 24.2325 27.1155 24.0934 27.2408 23.8705C27.3482 23.7043 27.4351 23.5258 27.4994 23.3386C27.5567 23.1232 27.6733 23.1001 27.8518 23.1412L28.0828 23.1932C28.4857 23.3057 28.9045 23.3502 29.322 23.3252C29.4989 23.3102 29.6629 23.2396 29.8086 23.412C29.8721 23.4576 29.9507 23.4771 30.0281 23.4662C30.2655 23.4577 30.5002 23.4414 30.7357 23.4196C30.9394 23.399 30.9911 23.4284 31.025 23.6302C31.0639 23.8624 31.0876 24.0981 31.1302 24.3308C31.1655 24.5216 31.2276 24.7068 31.2666 24.8982C31.2946 25.034 31.2196 25.0926 31.0847 25.0593C30.8364 24.9845 30.5935 24.8973 30.3437 24.8335C30.2159 24.8136 30.0868 24.8029 29.9575 24.8013C29.8022 24.7977 29.6479 24.7766 29.4974 24.7385C29.2746 24.6671 29.0728 24.5242 28.8491 24.4732C28.4016 24.3731 27.9488 24.3113 27.5003 24.2314ZM22.247 39.4701C22.4132 39.4928 22.5446 39.5108 22.6743 39.5285C22.7619 39.5404 22.821 39.6117 22.7295 39.6959C22.5458 39.8568 22.3547 40.0167 22.1691 40.1774C21.8632 40.4425 21.5542 40.7035 21.2551 40.9733C21.0426 41.1675 20.8517 41.3944 20.6161 41.5668C20.2483 41.879 19.8986 42.2119 19.5687 42.5639C19.3319 42.7864 19.1317 43.0398 18.886 43.2592C18.607 43.5187 18.2945 43.7365 18.0197 44.0059C17.7923 44.1807 17.5922 44.3885 17.4259 44.6223C17.2769 44.8828 17.188 44.8669 16.9109 44.7026C16.8887 44.6884 16.8621 44.6792 16.8396 44.6668C16.7574 44.6147 16.7398 44.5528 16.8115 44.477C16.9552 44.3237 17.0895 44.1579 17.2468 44.0138C17.4372 43.8315 17.6928 43.7027 17.8283 43.4868C18.1648 42.9562 18.7012 42.624 19.086 42.1353C19.5043 41.6047 20.0468 41.1729 20.5422 40.7049C20.9073 40.3604 21.2915 40.039 21.645 39.6837C21.8323 39.4972 21.9954 39.3242 22.247 39.4701ZM26.7981 40.3834L26.9424 40.4162C27.1436 40.4678 27.1705 40.5161 27.0642 40.682C26.9533 40.8725 26.823 41.0511 26.6753 41.2147C26.3103 41.5722 25.5103 41.7104 25.0893 41.4428C24.7466 41.2286 24.4063 40.9962 24.2362 40.5935C24.1988 40.5237 24.1683 40.4504 24.1452 40.3747C24.1294 40.3244 24.1276 40.2708 24.14 40.2196C24.1524 40.1684 24.1786 40.1215 24.2156 40.0841C24.2527 40.0466 24.2993 40.0201 24.3504 40.0072C24.4014 39.9943 24.4551 39.9956 24.5055 40.0109C24.7027 40.0379 24.898 40.0645 25.0952 40.0914C25.3695 40.0922 25.6428 40.1232 25.9102 40.1841C26.1906 40.307 26.4921 40.3747 26.7981 40.3834ZM43.4693 28.9167C43.5248 28.8648 43.5573 28.8171 43.5981 28.8041C43.6731 28.7806 43.752 28.7724 43.8302 28.78C43.9546 28.8041 44.0777 28.8345 44.199 28.8712C44.1534 28.9598 44.1047 29.0444 44.0659 29.1377C44.0449 29.2138 44.0192 29.2885 43.9889 29.3614C43.9586 29.3948 43.9165 29.4151 43.8714 29.418C43.7354 29.2562 43.6088 29.0938 43.4693 28.9167Z" fill="currentColor"></path>
<path d="M48.958 25.4241C48.9261 25.6578 48.8979 25.8642 48.8695 26.0723C48.8409 26.3946 48.8709 26.7194 48.9581 27.031C49.1108 27.6694 49.2215 28.3168 49.3698 28.9471C49.4511 29.2755 49.5497 29.5994 49.6651 29.9174C49.8099 30.3277 49.9725 30.7311 50.123 31.1404C50.1525 31.2244 50.1546 31.3177 50.182 31.4033C50.2094 31.4888 50.2333 31.613 50.2948 31.64C50.5085 31.7361 50.5765 31.9333 50.6904 32.1069C50.7948 32.2427 50.9147 32.3658 51.0476 32.4737C51.065 32.491 51.0857 32.5045 51.1084 32.5137C51.1311 32.5229 51.1554 32.5274 51.1798 32.5271C51.4438 32.4739 51.6899 32.5781 51.9462 32.5945C52.3589 32.6229 52.5697 32.3597 52.751 32.0534C52.8284 31.9226 52.8152 31.733 53.0083 31.6812C53.0196 31.6747 53.0291 31.6655 53.0362 31.6545C53.0432 31.6435 53.0474 31.631 53.0485 31.618C53.0752 31.1362 53.4477 30.7648 53.4946 30.2988C53.5375 29.862 53.7387 29.4914 53.8801 29.096C53.9168 29.0119 53.9325 28.9203 53.9259 28.8289C53.8653 28.4824 53.914 28.1258 54.0652 27.8082C54.1044 27.696 54.1034 27.5734 54.0623 27.4618C54.0111 27.3623 53.9443 27.2716 53.8646 27.1931C53.7941 27.2597 53.6975 27.3135 53.6511 27.3945C53.4659 27.7884 53.2877 28.1857 53.1164 28.5863C52.8792 29.1528 52.656 29.7249 52.4205 30.2916C52.3625 30.4306 52.2065 30.5786 52.2317 30.6937C52.2803 30.9235 52.1605 30.9294 52.0065 30.981C51.9705 30.9974 51.9314 31.0062 51.8918 31.007C51.8521 31.0077 51.8127 31.0003 51.7761 30.9852C51.7394 30.9701 51.7063 30.9476 51.6787 30.9191C51.6511 30.8907 51.6296 30.8568 51.6157 30.8197C51.4771 30.6071 51.388 30.3661 51.3548 30.1145C51.3335 29.8754 51.3821 29.6012 51.1285 29.429C51.0945 29.4057 51.1127 29.3134 51.0962 29.2572C50.9441 28.8666 50.8664 28.451 50.8673 28.0319C50.8502 27.848 50.782 27.6725 50.6705 27.5252C50.5409 27.3404 50.4686 27.1216 50.4625 26.8961C50.4711 26.5052 50.3308 26.1257 50.0699 25.8344C50.034 25.7979 49.9791 25.7643 49.97 25.7222C49.8901 25.4592 49.7343 25.2258 49.5222 25.051C49.4415 24.9749 49.2909 24.852 49.2522 24.8765C49.1285 24.9633 49.0255 25.0762 48.9504 25.2073C48.9299 25.2752 48.9576 25.372 48.958 25.4241Z" fill="currentColor"></path>
<path d="M28.8555 29.8438L30.895 30.1223C30.9707 30.1443 31.0511 30.145 31.1272 30.1242C31.1753 30.0961 31.2309 30.0833 31.2864 30.0876C31.342 30.0919 31.3949 30.1129 31.4382 30.148C31.6569 30.2764 31.8641 30.1076 32.0766 30.0492C32.1459 30.0326 32.229 29.9957 32.2857 30.0164C32.4036 30.0586 32.5301 30.0709 32.654 30.0524C32.7778 30.034 32.8952 29.9852 32.9958 29.9106C33.2557 29.7474 33.4581 29.5071 33.575 29.2233C33.6347 29.0816 33.6367 28.9222 33.5805 28.779C33.5243 28.6358 33.4144 28.5202 33.2742 28.4569C33.0473 28.3572 32.8152 28.2697 32.579 28.1947C32.3137 28.123 32.0443 28.0676 31.7722 28.0288C31.2865 27.9625 30.7675 27.9772 30.3364 27.6468C30.2068 27.5813 30.0716 27.5274 29.9325 27.4856C29.7932 27.4163 29.7259 27.4463 29.658 27.5895C29.59 27.7327 29.5848 27.7302 29.4169 27.5566C29.21 27.3424 29.0086 27.1009 28.6321 27.1611C28.385 27.1725 28.1374 27.1642 27.8916 27.1363C27.6727 27.1394 27.4583 27.198 27.2684 27.3068C27.0785 27.4156 26.9194 27.5709 26.8061 27.7581C26.758 27.8241 26.7171 27.9059 26.8452 27.9346C26.9292 27.946 26.9832 27.9868 26.8695 28.029C26.7689 28.0647 26.6844 28.1354 26.6314 28.2282C26.5785 28.321 26.5606 28.4297 26.581 28.5346C26.5939 28.8358 26.664 29.1392 26.941 29.2904C27.225 29.4294 27.5206 29.5432 27.8245 29.6305C28.0015 29.6855 28.182 29.7288 28.3647 29.7601C28.5333 29.7924 28.7025 29.8062 28.8723 29.8294L28.8555 29.8438ZM31.1224 28.565L31.316 28.5914C31.7867 28.633 32.248 28.7487 32.6827 28.9342C32.7316 28.9685 32.7755 29.0096 32.813 29.0561C32.7706 29.1008 32.7246 29.1418 32.6753 29.1787C32.6418 29.2002 32.6028 29.2116 32.5629 29.2117C32.0369 29.2377 31.5098 29.2316 30.9846 29.1934C30.4569 29.1213 29.9414 28.9468 29.3968 29.012C29.3438 29.0112 29.2911 29.004 29.2398 28.9905C28.8637 28.9392 28.4857 28.8876 28.1139 28.8182C28.0524 28.8035 27.9948 28.7757 27.9449 28.7368C27.895 28.6979 27.8541 28.6488 27.8248 28.5927C27.7626 28.4355 27.9593 28.4252 28.0489 28.3816C28.1443 28.3536 28.2452 28.3494 28.3426 28.3696C28.4685 28.3868 28.6073 28.4466 28.7223 28.4214C29.0041 28.3464 29.2758 28.2497 29.5567 28.4126C30.0953 28.3095 30.6035 28.483 31.1224 28.565Z" fill="currentColor"></path>
<path d="M57.2335 35.3287C57.2073 35.1801 57.2322 34.9565 57.1419 34.8958C56.9914 34.786 56.856 34.974 56.7456 35.0742C56.4251 35.3783 56.0357 35.6152 55.8287 36.0277C55.4296 36.2262 55.2848 36.6472 54.9973 36.9409C54.7098 37.2346 54.426 37.4748 54.1276 37.7261C54.0246 37.8053 53.908 37.865 53.7836 37.9023C53.5004 38.0013 53.4033 38.2224 53.5672 38.4791C53.6071 38.5566 53.6686 38.6209 53.7442 38.6642C53.8198 38.7075 53.9063 38.728 53.9933 38.7233C54.5048 38.6905 54.9928 38.4967 55.3875 38.1696C55.7799 37.8239 56.1324 37.4353 56.4384 37.0112C56.8043 36.5106 57.1539 35.98 57.2335 35.3287Z" fill="currentColor"></path>
<path d="M56.4635 39.531C56.8845 39.5401 57.3308 39.3629 57.4421 38.902C57.4617 38.7857 57.5152 38.6779 57.596 38.592C57.8237 38.4092 57.8447 38.1331 57.9532 37.8968C58.0617 37.6605 57.891 37.494 57.6316 37.5274C57.5277 37.5393 57.394 37.5378 57.3295 37.6015C56.9814 37.9446 56.4798 38.1178 56.2805 38.6374C56.2072 38.8339 56.0992 38.9847 56.148 39.2126C56.1969 39.4406 56.2567 39.5065 56.4635 39.531Z" fill="currentColor"></path>
</svg>