<svg xmlns="http://www.w3.org/2000/svg" width="100%" height="100%" viewBox="0 0 82 76" fill="none" preserveAspectRatio="xMidYMid meet" aria-hidden="true" role="img">
<path d="M19.87 4.55105C19.7886 4.53417 19.7052 4.5298 19.6225 4.53808C19.4182 4.5978 19.2773 4.40597 19.0699 4.42864C18.8711 4.424 18.6738 4.39396 18.4827 4.3392C18.2122 4.29596 17.9409 4.25656 17.6689 4.22106C17.6237 4.2187 17.5755 4.24302 17.5288 4.2389C17.4017 4.23224 17.3372 4.0226 17.1422 4.15994C17.0395 4.23336 16.8395 4.1776 16.6841 4.16777C16.4951 4.15787 16.3068 4.13461 16.1184 4.11467C16.095 4.11344 16.0692 4.09364 16.0521 4.09945C15.6818 4.2561 15.3061 4.03351 14.9362 4.11641C14.9145 4.11527 14.8823 4.15386 14.8758 4.1485C14.6276 3.92589 14.4026 4.15554 14.1666 4.17838C13.8678 4.20437 13.5679 4.21439 13.268 4.20841C13.0955 4.22177 12.925 4.25446 12.7598 4.30586C12.3702 4.38269 11.9711 4.41377 11.5777 4.46526C11.3228 4.49885 11.071 4.53594 10.8142 4.57278C10.7685 4.58045 10.7252 4.60669 10.6795 4.61603C10.5603 4.62038 10.4434 4.58215 10.3498 4.5082C10.3677 4.71035 10.1981 4.65118 10.0976 4.68112C9.97145 4.71979 9.84129 4.73978 9.71227 4.76991C9.58326 4.80003 9.46737 4.83591 9.34372 4.85961C8.92526 4.94164 8.49754 5.00806 8.08858 5.10065C7.83583 5.15616 7.59542 5.26429 7.34293 5.31477C7.03877 5.37218 6.73157 5.41207 6.42283 5.43423C6.30164 5.44297 6.21159 5.36951 6.26621 5.22314C6.29568 5.14084 6.33518 5.05907 6.4379 5.14662C6.5989 5.27411 6.60511 5.15539 6.63808 5.03806C6.65083 4.98675 6.73259 4.93069 6.72255 4.89831C6.63202 4.64205 6.79614 4.58186 6.98465 4.5364C6.99671 4.53496 7.00836 4.53102 7.0188 4.52481C7.44741 4.15323 8.04157 4.20616 8.51475 3.97609C8.70375 3.87545 8.90301 3.79537 9.1091 3.73726C9.41642 3.6645 9.73341 3.63081 10.0478 3.58357C10.4973 3.53492 10.9391 3.43137 11.3634 3.27524C11.5218 3.22831 11.6855 3.20142 11.8505 3.19515C12.595 3.10002 13.3396 3.00153 14.0852 2.91653C14.2218 2.90189 14.3666 2.95476 14.5059 2.952C14.6588 2.94229 14.811 2.9234 14.9616 2.8954C15.0084 2.89786 15.059 2.86023 15.1022 2.8692C15.3959 2.92651 15.7 2.82008 15.9743 2.86464C16.3583 2.92836 16.7366 2.87774 17.1139 2.90925C17.4912 2.94076 17.8463 2.94762 18.2114 2.98855C18.339 2.99856 18.4645 3.02662 18.5843 3.07183C19.0131 3.24018 19.4727 3.17371 19.9159 3.25898C20.0972 3.32028 20.2901 3.33902 20.4798 3.31371C20.5036 3.3083 20.5285 3.3096 20.5517 3.31748C20.8807 3.43868 21.2242 3.47511 21.543 3.59913C21.754 3.68396 21.9798 3.72601 22.2072 3.72282C22.3783 3.73361 22.5438 3.78727 22.6887 3.87884C22.9153 4.00038 23.1612 4.08189 23.4155 4.11982C23.7823 4.16613 24.1396 4.26973 24.4743 4.42682C24.7083 4.51114 24.9499 4.57263 25.1957 4.61049C25.267 4.61885 25.3359 4.64128 25.3985 4.67647C25.8349 4.97031 26.3038 5.21266 26.796 5.39864C26.8396 5.41816 26.8792 5.44583 26.9124 5.48019C27.1331 5.71645 27.4362 5.78935 27.7166 5.90968C27.899 5.96389 28.0662 6.05993 28.2049 6.19015C28.3322 6.35276 28.5604 6.31777 28.6648 6.50098C28.6966 6.52531 28.734 6.54116 28.7736 6.54704C28.8132 6.55293 28.8536 6.54864 28.8911 6.53462C28.9476 6.48057 28.9986 6.33904 28.9661 6.28703C28.7793 5.98045 28.9838 5.66251 28.9194 5.35563C28.9084 5.30811 28.9653 5.24737 28.98 5.19113C29.0379 5.01488 29.0783 4.83334 29.1006 4.64914C29.1198 4.28293 29.3374 4.00259 29.4663 3.68573C29.4799 3.65123 29.5443 3.63784 29.5856 3.61654C29.7096 3.55429 29.8172 3.48613 29.7692 3.31425C29.7606 3.2853 29.8021 3.22881 29.8351 3.20706C29.9503 3.10916 30.035 2.98035 30.0793 2.83586C30.1191 2.75772 30.1709 2.6863 30.2329 2.62425C30.5469 2.29463 30.9178 2.0244 31.3277 1.82649C31.4643 1.75679 31.6128 1.71336 31.7654 1.69849C32.054 1.66163 32.3364 1.58588 32.6225 1.53381C32.731 1.49833 32.8465 1.48943 32.9592 1.50786C33.3803 1.66239 33.8417 1.72181 34.205 2.02087C34.344 2.11715 34.446 2.25791 34.4943 2.41999C34.541 2.54417 34.6061 2.66063 34.6874 2.76547C34.8074 2.93206 34.8752 3.13055 34.8822 3.33574C34.8827 3.40597 34.898 3.4753 34.9269 3.53928C35.0366 3.80028 35.0909 4.0812 35.0866 4.36427C35.0991 4.70028 35.0961 5.04552 35.1118 5.38673C35.133 5.70782 35.1222 6.03022 35.0798 6.3492C35.0267 6.72202 35.027 7.10099 34.9955 7.47662C34.9878 7.62377 35.0445 7.63009 35.1564 7.60745C35.3104 7.58031 35.4694 7.5853 35.6217 7.55807C35.7741 7.53084 35.919 7.48477 36.0653 7.44548C36.1198 7.42989 36.188 7.37648 36.2222 7.39504C36.5663 7.58076 36.9197 7.39636 37.2668 7.42797C37.6139 7.45958 37.9575 7.43063 38.3024 7.44032C38.5298 7.45224 38.7561 7.48592 38.9818 7.49775C39.4835 7.52404 39.9859 7.53526 40.4879 7.55654C40.5595 7.56142 40.6302 7.57472 40.6987 7.59612C41.0233 7.71266 41.354 7.81115 41.6894 7.89116C42.1281 7.9501 42.5549 8.07769 42.954 8.2693C42.9747 8.28222 42.9993 8.28766 43.0236 8.2847C43.5145 8.13101 43.8128 8.55075 44.2067 8.68206C44.3419 8.72603 44.4688 8.79978 44.6019 8.85203C45.1693 9.04787 45.7096 9.31449 46.2103 9.6456C46.3023 9.70167 46.3984 9.75094 46.4976 9.79309C46.8893 9.99806 47.281 10.203 47.6708 10.4113C47.7113 10.437 47.7466 10.4701 47.7747 10.509C47.937 10.7167 48.1469 10.8824 48.3866 10.9921C48.5491 11.0585 48.6875 11.1728 48.7836 11.3197C48.8856 11.4844 49.1279 11.5641 49.3112 11.6827C49.4444 11.7635 49.5886 11.8281 49.7165 11.9153C49.8079 11.9679 49.8829 12.045 49.9329 12.1379C50.0144 12.3104 50.1493 12.4521 50.3175 12.542C50.5341 12.6504 50.7154 12.8181 50.8405 13.0255C50.8676 13.0839 50.9428 13.1198 51.0007 13.1681C51.2155 13.3571 51.4476 13.5352 51.5294 13.8296C51.5417 13.8824 51.5685 13.9308 51.6067 13.9692C51.645 14.0077 51.6933 14.0347 51.746 14.0472C52.0633 14.1376 52.2311 14.3895 52.3852 14.6491C52.4579 14.7558 52.5383 14.857 52.6259 14.9518C52.6717 15.0062 52.7417 15.0451 52.7755 15.1039C52.9939 15.4427 53.2365 15.7653 53.5013 16.0692C53.7412 16.3869 53.9584 16.7219 54.1825 17.0522C54.2635 17.1705 54.3375 17.2951 54.4064 17.4194C54.4732 17.5038 54.5218 17.6012 54.5491 17.7053C54.5619 17.9407 54.7094 18.101 54.819 18.2811C54.974 18.524 55.145 18.7493 55.3074 18.9774C55.3675 19.0529 55.414 19.1382 55.4451 19.2295C55.5137 19.4959 55.6212 19.7507 55.7643 19.9857C55.8869 20.2051 56.0077 20.4277 56.108 20.6576C56.1802 20.8445 56.2418 21.0353 56.2927 21.229C56.2993 21.2764 56.3133 21.3224 56.3342 21.3654C56.6618 21.7699 56.7291 22.2764 56.8871 22.7492C56.941 22.8801 57.0038 23.0072 57.0751 23.1296C57.0854 23.1514 57.0984 23.1718 57.1138 23.1903C57.2392 23.326 57.0977 23.498 57.1615 23.6238C57.2254 23.7495 57.4092 23.8245 57.4227 24.0164C57.4317 24.1326 57.508 24.2439 57.3657 24.3353C57.3466 24.3478 57.36 24.444 57.3769 24.4734C57.6105 24.7506 57.6442 25.1012 57.736 25.4279C57.7681 25.5689 57.783 25.7132 57.7806 25.8578C57.7897 26.0136 57.8397 26.1642 57.9253 26.2947C58.0457 26.4688 58.106 26.6774 58.0971 26.8889C58.1018 27.189 58.1501 27.4869 58.2402 27.7733C58.263 27.8467 58.3043 27.913 58.3604 27.9656C58.4164 28.0182 58.4852 28.0554 58.5599 28.0734C58.7953 28.1562 59.0548 28.2285 59.1793 28.4748C59.1788 28.4849 59.1913 28.5023 59.1997 28.5027C59.5996 28.5505 59.8057 28.905 60.1196 29.0908C60.4335 29.2766 60.7302 29.2452 61.048 29.2284C61.1503 29.2262 61.2526 29.2315 61.354 29.2444C61.3758 29.2455 61.4042 29.2789 61.4163 29.2728C61.8348 29.0617 62.2953 29.2971 62.7229 29.1367C63.1505 28.9763 63.6375 28.8996 63.9971 28.5328C64.1741 28.3542 64.4399 28.2743 64.612 28.062C64.8127 27.8143 65.0537 27.6005 65.2706 27.3654C65.3396 27.2976 65.3921 27.2149 65.4241 27.1236C65.4944 26.8372 65.6936 26.6213 65.8175 26.3679C65.9665 26.0312 66.0966 25.6865 66.207 25.3353C66.2683 25.1574 66.2691 24.9495 66.3643 24.7969C66.4584 24.6449 66.498 24.4655 66.4765 24.288C66.4704 24.2288 66.4736 24.169 66.4858 24.1107C66.6055 23.5871 66.5003 23.0669 66.3992 22.5636C66.3396 22.2411 66.3079 21.914 66.3045 21.5861C66.2936 21.2501 66.2367 20.9285 66.1986 20.5996C66.1859 20.4899 66.1682 20.38 66.1605 20.2706C66.1641 20.202 66.1935 20.1214 66.1713 20.0649C66.0151 19.6862 66.0671 19.3016 66.1075 18.9147C66.11 18.8662 66.0741 18.8157 66.06 18.7646C66.0423 18.7242 66.0342 18.6801 66.0366 18.636C66.1435 18.2593 66.2441 17.8772 66.3755 17.5118C66.4408 17.3503 66.5483 17.2094 66.687 17.1039C66.8256 16.9984 66.9901 16.9323 67.1632 16.9126C67.631 16.8238 68.1151 16.9014 68.5317 17.1319C68.5619 17.1513 68.588 17.1766 68.6083 17.2063C68.7654 17.4073 68.9222 17.6151 69.093 17.8102C69.3538 18.1212 69.5758 18.4628 69.754 18.8274C69.7884 18.8744 69.8305 18.9151 69.8785 18.948C69.8942 18.9052 69.9082 18.8607 69.9257 18.8163C70.0896 18.4074 70.2504 17.9949 70.4225 17.5914C70.4855 17.4438 70.5831 17.3098 70.661 17.168C70.8858 16.7606 71.1095 16.3526 71.3321 15.9439C71.3636 15.8869 71.3853 15.8259 71.4135 15.7671C71.4417 15.7082 71.4678 15.5938 71.5256 15.5482C71.8423 15.2949 72.0468 14.9451 72.3153 14.6523C72.3915 14.5469 72.4884 14.4582 72.6 14.3914C72.7116 14.3246 72.8356 14.2812 72.9645 14.2638C73.1735 14.2285 73.3793 14.1758 73.5797 14.1065C73.6571 14.0851 73.7388 14.0854 73.8161 14.1072C74.1174 14.2136 74.4248 14.3956 74.5434 14.6601C74.6754 14.9554 74.8855 15.2666 74.7868 15.6454C74.7642 15.8228 74.7548 16.0017 74.7588 16.1805C74.7087 16.5973 74.5882 17.0026 74.4025 17.3792C74.3748 17.4319 74.3512 17.4867 74.3319 17.5431C74.3031 17.6456 74.2841 17.7519 74.2619 17.8547C74.3325 17.788 74.3984 17.7143 74.4753 17.6546C74.5926 17.5602 74.7212 17.4747 74.8417 17.3821C75.392 16.9615 75.9374 16.5357 76.4904 16.127C76.6641 15.9941 76.8475 15.8742 77.039 15.7684C77.2478 15.6553 77.7263 15.7726 77.9226 15.9623C77.9784 16.0262 78.0392 16.0854 78.1045 16.1395C78.2322 16.2253 78.3275 16.3514 78.3751 16.4976C78.4228 16.6439 78.42 16.8019 78.3673 16.9464C78.2427 17.4221 78.0922 17.8905 77.9165 18.3498C77.8114 18.565 77.6839 18.7685 77.536 18.9569C77.4803 19.019 77.4312 19.0867 77.3896 19.1589C77.3675 19.2466 77.3571 19.3368 77.3587 19.4272C77.4365 19.4286 77.5142 19.4231 77.591 19.4109C77.9727 19.2896 78.3631 19.1979 78.759 19.1367C79.1333 19.1249 79.5077 19.1592 79.8737 19.2387C80.01 19.2724 80.1337 19.3447 80.23 19.4469C80.3813 19.5965 80.5197 19.7586 80.6439 19.9313C80.9323 20.3154 80.8766 20.7384 80.697 21.1263C80.5181 21.5405 80.275 21.9238 79.9768 22.2624C79.9015 22.3491 79.8127 22.4231 79.7138 22.4816C79.4162 22.6616 79.1059 22.8196 78.7853 22.9545C78.2125 23.1642 77.6236 23.3312 77.0406 23.5136C76.9759 23.532 76.7789 23.5804 76.7634 23.5879C76.655 23.6507 76.5399 23.7009 76.4202 23.7376C76.0938 23.8346 75.7887 23.9921 75.5206 24.2019C75.2237 24.396 75.004 24.6209 74.9923 25.0026C74.9793 25.2517 74.946 25.5032 74.9181 25.7465C74.9103 25.8402 74.8914 25.9327 74.8618 26.0219C74.8363 26.0927 74.773 26.1481 74.7409 26.2168C74.6331 26.4493 74.5385 26.6874 74.4259 26.9163C74.3699 27.0192 74.303 27.1158 74.2263 27.2043C74.1168 27.3428 74.0009 27.4759 73.885 27.6073C73.8492 27.6562 73.8036 27.6972 73.7512 27.7277C73.4304 27.8668 73.1412 28.073 72.8007 28.1709C72.7668 28.1831 72.7321 28.193 72.6969 28.2006C72.4384 28.2374 72.1161 28.1166 72.0399 27.9382C71.9225 27.6822 72.1313 27.5388 72.2683 27.3884C72.427 27.2253 72.594 27.0707 72.7688 26.925C73.1953 26.5698 73.4902 26.0815 73.606 25.5386C73.6763 25.1583 73.9161 24.8691 74.0449 24.5237C74.0844 24.4498 74.1462 24.3903 74.2215 24.3535C74.7942 24.0482 75.2671 23.6001 75.7903 23.215C76.0569 22.9912 76.3355 22.7819 76.6246 22.588C76.8523 22.484 77.0909 22.406 77.336 22.3553C77.4636 22.3261 77.5888 22.2879 77.7109 22.2409C78.2133 22.0173 78.6806 21.7221 79.0983 21.3645C79.2193 21.2336 79.3253 21.0896 79.4142 20.935C79.5283 20.7733 79.431 20.614 79.3528 20.4757C79.3297 20.436 79.233 20.4259 79.1725 20.4277C78.9928 20.4351 78.8132 20.4692 78.6339 20.4666C78.3911 20.4561 78.1517 20.5261 77.9528 20.6656C77.8075 20.771 77.6312 20.825 77.4518 20.8188C77.3122 20.8348 77.1756 20.87 77.0456 20.9232C76.8931 20.973 76.7381 21.0147 76.5813 21.0482C76.2986 21.0987 76.0137 21.1274 75.7364 21.1716C75.6054 21.1931 75.4711 21.168 75.3566 21.1008C75.2422 21.0335 75.155 20.9283 75.1101 20.8034C75.0737 20.6992 75.0764 20.6155 75.1945 20.568C75.2236 20.5578 75.2646 20.5432 75.2743 20.5185C75.5335 19.9553 75.9488 19.4858 76.2274 18.937C76.4412 18.4939 76.6877 18.0674 76.965 17.661C77.0038 17.6003 77.0312 17.5329 77.0458 17.4624C77.0698 17.358 77.1124 17.216 76.9887 17.1776C76.9382 17.1774 76.8885 17.1901 76.8444 17.2145C76.8003 17.2389 76.7631 17.2742 76.7366 17.3171C76.6448 17.5319 76.4379 17.5764 76.2855 17.7009C76.1838 17.7861 75.997 17.7662 75.9657 17.9792C75.9598 18.0913 75.7774 18.1806 75.6749 18.2809C75.5515 18.4253 75.4131 18.5564 75.2621 18.6718C75.0204 18.8228 74.816 19.0265 74.6641 19.2675C74.5346 19.467 74.397 19.661 74.2531 19.8479C74.1391 20.0083 73.9905 20.1409 73.8183 20.2361C73.6461 20.3312 73.4548 20.3865 73.2584 20.3978C72.8754 20.4113 72.3267 20.0337 72.4557 19.4922C72.4946 19.3266 72.5008 19.1441 72.5317 18.9713C72.5467 18.8571 72.5786 18.7458 72.6261 18.6409C72.7679 18.3903 72.8619 18.1155 72.9033 17.8305C72.9057 17.7716 72.9244 17.7146 72.9572 17.6656C73.1949 17.4182 73.1789 17.0836 73.2633 16.7846C73.3477 16.4855 73.4253 16.1576 73.4806 15.8385C73.4836 15.7933 73.4767 15.748 73.4603 15.7057C73.444 15.6634 73.4187 15.6253 73.3861 15.5938C73.3525 15.5635 73.2179 15.6034 73.1618 15.6508C72.9418 15.8488 72.7345 16.061 72.5271 16.2748C72.504 16.2987 72.5223 16.3651 72.5202 16.4069C72.437 16.6507 72.409 16.9276 72.1244 17.0485C72.0952 17.0604 72.0521 17.1168 72.0568 17.1221C72.2264 17.3423 71.9636 17.3972 71.9047 17.5283C71.8062 17.7445 71.7144 17.9593 71.601 18.173C71.3133 18.7666 71.0239 19.3618 70.7297 19.9517C70.6785 20.0322 70.6183 20.1067 70.5504 20.1737C70.4053 20.3506 70.388 20.4251 70.527 20.6202C70.8449 21.105 71.0306 21.6644 71.0657 22.243C71.0874 22.5644 71.1597 22.8818 71.1617 23.1955C71.1655 23.7306 71.0347 24.2418 70.6184 24.6342C70.5984 24.659 70.5732 24.6792 70.5446 24.6933C70.5159 24.7075 70.4846 24.7153 70.4526 24.7161C70.4207 24.717 70.389 24.711 70.3597 24.6984C70.3303 24.6858 70.304 24.6671 70.2826 24.6434C70.192 24.5736 70.1246 24.4783 70.089 24.3696C70.0534 24.261 70.0514 24.1441 70.0831 24.0343C70.0933 24.0049 70.0973 23.9738 70.0949 23.9428C70.0925 23.9118 70.0837 23.8817 70.0691 23.8542C69.9638 23.6027 69.9206 23.3295 69.9432 23.0578C69.9484 22.7744 69.9193 22.4913 69.8566 22.2149C69.8395 22.1251 69.7762 22.0531 69.8251 21.9517C69.8289 21.9348 69.8288 21.9173 69.8247 21.9005C69.8206 21.8837 69.8127 21.8681 69.8016 21.8549C69.6432 21.6789 69.4839 21.5179 69.5164 21.2513C69.5178 21.2246 69.4594 21.1863 69.4241 21.156C69.1932 20.9672 69.0223 20.7153 68.9322 20.431C68.7854 19.9901 68.6138 19.5579 68.4182 19.1364C68.3733 19.0334 68.2598 18.9604 68.184 18.8709C68.0264 18.6782 67.8843 18.4779 67.7283 18.287C67.7081 18.2568 67.6801 18.2327 67.6473 18.2171C67.6145 18.2015 67.5782 18.1949 67.542 18.1982C67.5059 18.2014 67.4712 18.2143 67.4418 18.2356C67.4123 18.2568 67.3891 18.2855 67.3745 18.3187C67.3166 18.4211 67.2757 18.5322 67.2533 18.6477C67.2266 18.8135 67.2178 18.9817 67.227 19.1494C67.2549 19.7696 67.271 20.3908 67.3396 20.9998C67.3663 21.3104 67.4598 21.6116 67.6137 21.8827C67.8535 22.2658 67.7669 22.7023 67.9072 23.0953C67.7765 23.7022 67.9698 24.3344 67.7333 24.9424C67.6563 25.1887 67.5619 25.4291 67.4508 25.662C67.357 25.8622 67.2794 26.0695 67.2188 26.282C67.0909 26.6107 66.9706 26.9548 66.8311 27.2812C66.7268 27.4915 66.604 27.6921 66.4643 27.8807C66.2594 28.1751 66.0447 28.464 65.8253 28.7476C65.7557 28.8305 65.6764 28.9046 65.589 28.9683C65.3623 29.1375 65.1524 29.3281 64.9622 29.5375C64.7622 29.7701 64.4401 29.9025 64.1428 30.0395C63.8822 30.1631 63.6084 30.2568 63.3267 30.3186C62.8996 30.4288 62.4624 30.4947 62.0219 30.5152C61.4312 30.5245 60.8504 30.4722 60.2584 30.4412C60.0455 30.4144 59.8373 30.3577 59.6401 30.273C59.2797 30.1434 59.0008 29.8656 58.6537 29.7065C58.6046 29.6838 58.5516 29.671 58.5005 29.6532C58.4982 29.6984 58.4958 29.7435 58.4934 29.7887C58.496 30.0604 58.4985 30.3322 58.5044 30.6042C58.508 30.7586 58.5199 30.9152 58.5303 31.07C58.5364 31.1776 58.5542 31.2842 58.5536 31.3915C58.5531 31.4988 58.5794 31.6678 58.5161 31.7249C58.4173 31.8169 58.6495 31.9297 58.4744 31.9759C58.466 31.9754 58.457 32.0202 58.4712 32.0361C58.6465 32.4024 58.6449 32.4023 58.6133 32.7813C58.5694 33.0393 58.5919 33.3041 58.6786 33.551C58.7558 33.7412 58.6906 33.9927 58.6753 34.2216C58.6704 34.3152 58.6172 34.403 58.6038 34.4978C58.6023 34.5263 58.6691 34.5952 58.6726 34.5937C58.8837 34.4689 59.0516 34.6873 59.2658 34.6633C59.4801 34.6393 59.704 34.75 59.9201 34.8167C60.1173 34.9006 60.3214 34.9674 60.5301 35.0163C61.1967 35.0948 61.8423 35.3819 62.5367 35.1215C62.7332 35.0751 62.935 35.0547 63.1368 35.0607C63.4907 35.0211 63.8396 34.9455 64.1782 34.8352C64.7215 34.6742 65.2194 34.4203 65.7458 34.2316C66.0723 34.1087 66.3684 33.9166 66.6137 33.6684C66.6737 33.6112 66.7337 33.5221 66.8014 33.5106C67.0883 33.4736 67.2641 33.2883 67.4406 33.088C67.5266 32.9949 67.6257 32.9149 67.7347 32.8502C68.1642 32.591 68.4393 32.2047 68.7212 31.817C68.9126 31.5554 69.1282 31.3135 69.3147 31.05C69.521 30.7607 69.708 30.4569 69.9047 30.1587C70.0656 29.966 70.2007 29.7533 70.3068 29.5258C70.4098 29.3116 70.5427 29.113 70.7015 28.9361C70.7239 28.9072 70.7529 28.8841 70.7861 28.8689C70.8193 28.8536 70.8558 28.8467 70.8923 28.8486C70.9287 28.8505 70.9642 28.8612 70.9957 28.8799C71.0271 28.8985 71.0535 28.9245 71.0727 28.9556C71.2085 29.1807 71.3141 29.4059 71.1716 29.6935C71.0698 29.9481 70.9877 30.2101 70.926 30.4771C70.9193 30.522 70.9024 30.5647 70.8766 30.602C70.8508 30.6393 70.8168 30.6702 70.7772 30.6923C70.6917 30.7573 70.6284 30.8471 70.596 30.9495C70.4614 31.2778 70.3922 31.6397 70.0879 31.8786C70.0485 31.9256 70.0218 31.9819 70.0106 32.0422C69.8852 32.3632 69.6798 32.6468 69.414 32.8661C69.3452 32.9147 69.2889 32.979 69.25 33.0537C69.1106 33.474 68.7626 33.6821 68.4299 33.9195C68.2559 34.0395 68.0595 34.1399 67.9709 34.3583C67.9479 34.4141 67.8381 34.4301 67.7786 34.4773C67.542 34.6721 67.2701 34.8195 66.9778 34.9116C66.8356 34.9735 66.7101 35.068 66.6112 35.1875C66.3373 35.4548 65.9739 35.5414 65.6413 35.6816C65.4132 35.777 65.1633 35.8125 64.9838 36.0043C64.9587 36.0306 64.9271 36.0498 64.8921 36.0598C64.6135 36.1489 64.3297 36.2208 64.0424 36.2752C63.4123 36.3629 62.7848 36.4658 62.1575 36.5654C61.6539 36.6749 61.1285 36.6227 60.6563 36.4163C60.3308 36.2633 59.9744 36.1873 59.6149 36.1941C59.3513 36.2004 59.0869 36.0625 58.8204 35.9965C58.5092 35.9182 58.3722 35.973 58.3432 36.2717C58.2834 36.9007 58.0973 37.5063 58.0177 38.1309C57.9803 38.4737 57.8892 38.8084 57.7477 39.1228C57.6926 39.2457 57.7326 39.4105 57.6889 39.5406C57.5615 39.8928 57.5973 40.2971 57.3364 40.6037C57.364 40.9405 57.1746 41.1955 57.0706 41.4852C56.9374 41.8504 56.7975 42.2153 56.6594 42.5787C56.6582 42.6021 56.6302 42.6241 56.6325 42.6443C56.6664 43.1491 56.2717 43.4504 56.088 43.8516C56.0462 43.9466 55.9732 44.0585 55.9905 44.1449C56.0017 44.215 55.996 44.2868 55.9738 44.3542C55.9516 44.4216 55.9136 44.4826 55.8629 44.5323C55.6766 44.8069 55.5253 45.1038 55.4125 45.4158C55.367 45.5478 55.3041 45.6731 55.2253 45.7883C54.8703 46.174 54.5854 46.6187 54.3834 47.1024C54.3059 47.3012 54.1069 47.4518 53.9717 47.6308C53.8542 47.7491 53.7648 47.8922 53.71 48.0497C53.6711 48.3126 53.4869 48.4673 53.3436 48.6425C52.9444 49.1246 52.5108 49.5916 52.0953 50.0644C51.9937 50.1798 52.0163 50.4527 52.1085 50.6118C52.3728 51.0716 52.7634 51.4576 52.9029 51.9948C52.9352 52.1156 53.0475 52.212 53.1068 52.3291C53.2131 52.5393 53.3109 52.754 53.4086 52.9687C53.4326 53.0219 53.4253 53.097 53.46 53.1391C53.8129 53.5734 53.8044 54.1514 54.0527 54.6272C54.1433 54.8231 54.1839 55.0385 54.1708 55.2539C54.1633 55.6207 54.3175 55.9423 54.3952 56.2834C54.4873 56.5788 54.5279 56.8878 54.515 57.1969C54.4942 57.402 54.6239 57.615 54.6185 57.8462C54.5829 58.2341 54.5015 58.6166 54.376 58.9854C54.3519 59.0552 54.304 59.1143 54.2407 59.1524C54.1774 59.1905 54.1027 59.205 54.0297 59.1936C53.9399 59.1886 53.8535 59.1577 53.7809 59.1045C53.7084 59.0512 53.6529 58.9781 53.6212 58.8939C53.5152 58.454 53.3306 58.0402 53.3303 57.5657C53.3109 57.0381 53.2074 56.5171 53.0239 56.0221C52.9585 55.8207 52.9132 55.6133 52.8887 55.403C52.8221 54.9274 52.6762 54.4663 52.4571 54.0389C52.351 53.8257 52.2578 53.6064 52.178 53.3821C52.0223 52.9421 51.8121 52.5232 51.5525 52.1353C51.3725 51.8576 51.2237 51.5614 51.0612 51.2712C51.0313 51.1933 50.9905 51.12 50.9401 51.0536C50.7802 50.906 50.5973 50.7807 50.5885 50.5321C50.3111 50.3214 50.1561 50.0164 49.9767 49.7287C49.9085 49.6212 49.8199 49.5209 49.7567 49.4153C49.7223 49.3666 49.7095 49.2922 49.664 49.2629C49.1782 48.934 48.9018 48.3846 48.4213 48.0509C48.3058 47.9716 48.2197 47.8564 48.1763 47.7231C48.133 47.5899 48.1349 47.4461 48.1816 47.314C48.1959 47.2468 48.2241 47.1834 48.2646 47.128C48.305 47.0726 48.3567 47.0263 48.4163 46.9922C48.4759 46.9581 48.5419 46.937 48.6102 46.9303C48.6785 46.9235 48.7475 46.9312 48.8126 46.953C48.8722 46.9662 48.9281 46.9875 48.9881 46.9957C49.1456 47.0085 49.2973 47.061 49.429 47.1482C49.5608 47.2355 49.6683 47.3546 49.7416 47.4946C49.7714 47.5609 49.8157 47.6197 49.8713 47.6664C49.9269 47.7132 49.9924 47.7468 50.0628 47.7647C50.1504 47.7894 50.2295 47.8374 50.2919 47.9035C50.3543 47.9697 50.3975 48.0516 50.4171 48.1404C50.4579 48.2651 50.5314 48.3766 50.6298 48.4634C50.7384 48.568 50.815 48.7062 50.9183 48.8139C50.9845 48.8811 51.0623 48.9358 51.148 48.9752C51.2738 49.0371 51.3074 48.9097 51.3677 48.8458C51.7014 48.4944 52.0366 48.1448 52.3605 47.7878C52.4475 47.6878 52.5165 47.5734 52.5643 47.4498C52.6799 47.1217 52.889 46.8348 53.166 46.6244C53.2425 46.5671 53.2994 46.4875 53.3288 46.3965C53.4575 45.9875 53.7601 45.6864 53.9765 45.3322C54.0003 45.2932 54.051 45.2539 54.0477 45.2202C54.0139 44.8429 54.2764 44.6001 54.452 44.3225C54.5715 44.0944 54.6784 43.8599 54.7722 43.62C54.9431 43.2701 55.0247 42.8636 55.3407 42.5934C55.2764 42.2848 55.5351 42.0838 55.6011 41.8156C55.6422 41.6778 55.6947 41.5438 55.758 41.4147C55.7714 41.3819 55.8021 41.3415 55.7933 41.3176C55.6436 40.9744 55.9298 40.7278 56.051 40.4625C56.2117 40.1417 56.3188 39.7967 56.3678 39.4412C56.3733 39.3359 56.4173 39.2325 56.4379 39.128C56.4699 38.9892 56.4946 38.8489 56.5119 38.7076C56.5137 38.5797 56.5432 38.4537 56.5983 38.3382C56.6486 38.2062 56.6698 38.0649 56.6603 37.9239C56.6668 37.7099 56.7137 37.499 56.7985 37.3024C56.8858 37.0301 56.9438 36.7493 56.9715 36.4647C56.9882 36.37 56.9699 36.2701 56.9866 36.1771C57.0281 35.9914 57.1047 35.811 57.1296 35.6229C57.1546 35.4347 57.0987 35.2859 57.1225 35.1194C57.1463 34.953 56.9887 34.8576 57.1047 34.6909C57.1753 34.5907 57.1375 34.4177 57.1532 34.2776C57.1847 34.1261 57.2056 33.9726 57.2158 33.8181C57.1997 33.2304 57.329 32.6503 57.211 32.0539C57.1939 31.9166 57.2012 31.7773 57.2326 31.6425C57.3158 31.1853 57.3091 30.7162 57.2127 30.2615C57.1868 30.1337 57.1531 30.0076 57.1118 29.8839C57.0747 29.8088 57.0545 29.7264 57.0525 29.6426C57.0505 29.5588 57.0668 29.4756 57.1003 29.3987C57.1314 29.3327 57.1354 29.257 57.1114 29.188C56.936 28.7915 57.0153 28.3647 56.9581 27.9543C56.9599 27.9192 56.9755 27.8781 56.9637 27.8473C56.7764 27.3562 56.8745 26.7963 56.5961 26.3189C56.5376 26.2157 56.51 26.0978 56.5166 25.9794C56.54 25.7179 56.4811 25.4557 56.348 25.2294C56.3089 25.1545 56.282 25.0738 56.2683 24.9905C56.2009 24.6767 56.1336 24.3613 56.0696 24.0461C56.0553 23.9633 56.0259 23.884 55.983 23.8118C55.8283 23.5541 55.7226 23.27 55.6714 22.9739C55.635 22.8643 55.5841 22.7601 55.5199 22.6641C55.474 22.5812 55.3942 22.5032 55.3821 22.4154C55.315 21.9357 54.9856 21.5345 54.9848 21.0381C54.9824 21.0018 54.9721 20.9664 54.9547 20.9345C54.9372 20.9026 54.913 20.8749 54.8838 20.8534C54.6947 20.7496 54.6495 20.5561 54.5728 20.3877C54.2316 19.6991 53.8317 19.0427 53.4664 18.3679C53.4162 18.2874 53.3551 18.2142 53.2849 18.1505C53.1002 17.9977 52.9769 17.7835 52.9376 17.5471C52.9317 17.5179 52.9199 17.4902 52.9031 17.4657C52.8862 17.4412 52.8645 17.4204 52.8394 17.4044C52.6491 17.2921 52.5818 17.1058 52.4856 16.9247C52.36 16.7249 52.2154 16.5376 52.0538 16.3656C52.0098 16.3096 51.9212 16.2731 51.9057 16.2153C51.8229 15.9074 51.5151 15.7655 51.3919 15.4941C51.2686 15.2228 50.9698 15.1014 50.8335 14.8545C50.6144 14.459 50.217 14.2353 49.9535 13.8878C49.9402 13.8676 49.9221 13.8511 49.9007 13.8398C49.5127 13.6602 49.2849 13.3045 48.9773 13.0301C48.853 12.9192 48.717 12.8221 48.5716 12.7406C48.226 12.5327 47.913 12.2751 47.6425 11.9759C47.5266 11.8739 47.4038 11.7801 47.2749 11.6951C47.1475 11.5995 46.9443 11.604 46.8927 11.4051C46.8933 11.3934 46.8401 11.3856 46.8133 11.3842C46.6856 11.385 46.559 11.3589 46.4421 11.3074C46.3251 11.2559 46.2204 11.1802 46.1348 11.0853C45.9256 10.853 45.6275 10.7502 45.3474 10.6249C45.2338 10.5804 45.1244 10.5259 45.0206 10.4619C44.8111 10.2844 44.5566 10.1683 44.2853 10.1266C44.2184 10.123 44.1538 10.0425 44.0929 9.98903C44.0096 9.90182 43.9092 9.83277 43.7979 9.78625C43.6867 9.73973 43.567 9.71672 43.4464 9.7187C43.1067 9.74312 42.7695 9.64582 42.495 9.44417C42.3771 9.38374 42.2501 9.34308 42.119 9.32384C42.0164 9.29834 41.9237 9.27503 42.003 9.13834C41.9774 9.12115 41.95 9.10679 41.9214 9.0955C41.8048 9.2403 41.6843 9.20382 41.5369 9.13573C41.4127 9.09186 41.2836 9.06316 41.1524 9.0502L40.4881 8.92819C40.1178 8.85848 39.7606 8.73244 39.3677 8.86947C39.1972 8.92425 38.9568 8.96696 38.8305 8.72223C38.8197 8.7093 38.8062 8.69902 38.7908 8.69211C38.7755 8.68521 38.7588 8.68187 38.742 8.68239C38.3485 8.73555 37.9601 8.62801 37.5549 8.71409C37.2157 8.78686 36.8236 8.90882 36.4594 8.72373C36.2082 8.78266 35.9363 8.72318 35.7047 8.8871C35.6277 8.93498 35.5406 8.96426 35.4504 8.97268C35.0685 9.02812 34.676 8.96562 34.3012 9.11198C34.0965 9.17362 33.8872 9.21873 33.6754 9.24686C33.4685 9.29135 33.2919 9.42966 33.0557 9.39214C32.9688 9.38758 32.8695 9.48972 32.7687 9.52635C32.6055 9.59554 32.4339 9.64293 32.2583 9.66728C32.181 9.65943 32.103 9.67323 32.0331 9.70718C31.9632 9.74113 31.9041 9.79389 31.8625 9.85949C31.7997 9.97022 31.7092 9.96883 31.5887 9.96586C31.5029 9.95246 31.4152 9.96016 31.3331 9.98829C31.2509 10.0164 31.1769 10.0641 31.1174 10.1273C30.9961 10.2668 30.7723 10.3121 30.5866 10.4013C30.364 10.4825 30.1543 10.5951 29.9637 10.7358C29.8631 10.8329 29.7476 10.701 29.6698 10.8412C29.6216 10.9292 29.4626 10.9561 29.354 11.0124L29.0091 11.1939C28.9979 11.1973 28.987 11.2018 28.9765 11.2073C28.6807 11.445 28.3851 11.6793 28.0874 11.9203C27.9991 11.9954 27.9059 12.0644 27.8083 12.127C27.6577 12.2163 27.4663 12.2532 27.4089 12.4531C27.3949 12.496 27.3134 12.5152 27.2663 12.5496C27.1278 12.6452 26.9962 12.7503 26.8725 12.8644C26.8339 12.9177 26.7817 12.9597 26.7214 12.986C26.661 13.0124 26.5947 13.0221 26.5293 13.0141C26.4597 13.0145 26.392 13.0374 26.3364 13.0794C26.2275 13.1681 26.1111 13.2472 25.9887 13.316C25.8449 13.3722 25.8658 13.5175 25.7793 13.6002C25.6026 13.772 25.4159 13.9433 25.2484 14.1307C24.7253 14.7388 24.1666 15.3199 23.7271 15.9961C23.6615 16.0949 23.5733 16.1792 23.5028 16.2761C23.407 16.4085 23.3208 16.5499 23.2216 16.6822C23.1225 16.8145 23.0413 16.9226 22.948 17.0401C22.9336 17.0595 22.906 17.0731 22.8999 17.0929C22.8377 17.3211 22.7835 17.5547 22.5064 17.6273C22.5049 17.6577 22.5108 17.6879 22.5236 17.7154C22.5995 17.8351 22.4848 17.9112 22.4613 18.0072C22.4315 18.1281 22.3788 18.2075 22.2373 18.1229C22.2 18.1463 22.1707 18.1804 22.1534 18.2208C21.9959 18.7352 21.781 19.2302 21.5126 19.6964C21.387 19.9178 21.1866 20.0951 21.134 20.3624C21.1111 20.4785 21.0501 20.5876 21.0288 20.7056C21.0233 20.7948 20.9978 20.8817 20.9542 20.9598C20.9107 21.0379 20.8502 21.1053 20.7771 21.1569C20.7268 21.1894 20.7088 21.2757 20.6788 21.3379C20.5059 21.6927 20.4708 22.1066 20.216 22.4253C20.1896 22.4666 20.1798 22.5164 20.1886 22.5647C20.2413 22.9028 20.0665 23.1653 19.9741 23.4572C19.9682 23.4763 19.9581 23.4938 19.9446 23.5085C19.931 23.5232 19.9144 23.5346 19.8959 23.542C19.8716 23.5429 19.848 23.5502 19.8274 23.5632C19.8069 23.5762 19.7902 23.5945 19.779 23.6161C19.7678 23.6376 19.7625 23.6618 19.7637 23.6861C19.7649 23.7104 19.7725 23.7339 19.7858 23.7542C19.9591 24.0316 19.8065 24.2869 19.7445 24.5418C19.694 24.6881 19.6305 24.8296 19.5547 24.9645C19.4943 25.065 19.4569 25.1775 19.4452 25.2941C19.4665 25.592 19.3439 25.8522 19.271 26.1234C19.2397 26.2244 19.2196 26.3284 19.2111 26.4338C19.2088 26.7171 19.1584 26.998 19.0619 27.2644C19.0039 27.4817 18.9719 27.7052 18.9667 27.9301C18.9262 28.3187 18.9007 28.7097 18.8568 29.0981C18.813 29.4865 18.7882 29.896 18.7655 30.2973C18.7361 30.8575 18.8629 31.4141 18.7481 31.9731C18.6961 32.2286 18.79 32.5169 18.8227 32.7886C18.8751 33.0996 18.8923 33.4155 18.874 33.7303C18.8594 33.9221 18.8736 34.115 18.9161 34.3026C19.0081 34.7909 19.0384 35.2888 19.0061 35.7846C19.0013 35.8194 19.0035 35.8549 19.0124 35.8889C19.2354 36.4958 19.3006 37.1397 19.4388 37.7674C19.5065 38.0744 19.5463 38.4035 19.7729 38.6552C19.7917 39.1592 20.164 39.5426 20.2035 40.0359C20.2226 40.3191 20.2796 40.5985 20.373 40.8665C20.5178 41.3033 20.647 41.7494 20.9283 42.1397C21.057 42.3635 21.1571 42.6025 21.2264 42.8512C21.3359 43.1286 21.3778 43.161 21.6327 43.1609C22.2094 43.1626 22.7855 43.1761 23.3602 43.1542C23.8861 43.1331 24.4109 43.0701 24.9348 43.0238C24.9827 43.0184 25.0299 43.0079 25.0756 42.9926C25.4999 42.8639 25.9269 42.7455 26.3486 42.6032C27.1048 42.3477 27.9085 42.2423 28.6391 41.8983C28.8064 41.8503 28.9764 41.8122 29.1481 41.7841C29.375 41.7105 29.5916 41.6095 29.8158 41.5223C29.8821 41.4934 29.9519 41.4733 30.0235 41.4627C30.2903 41.4118 30.5452 41.3115 30.7751 41.1668C31.2657 40.9196 31.7819 40.7268 32.3144 40.5918C32.6881 40.4991 33.0588 40.4011 33.4269 40.288C33.4715 40.27 33.5184 40.2584 33.5662 40.2533C34.2378 40.2366 34.883 40.0189 35.5463 39.9379C35.8132 39.9091 36.0824 39.9063 36.3499 39.9297C36.5567 39.9201 36.7575 39.8573 36.9329 39.7473C37.098 39.6494 37.2529 39.535 37.3951 39.406C37.5308 39.3118 37.6813 39.2409 37.8404 39.1963C38.0911 39.0852 38.3311 38.9513 38.5572 38.7962C38.6472 38.7439 38.6181 38.6904 38.5664 38.6206C38.3821 38.3628 38.1925 38.1081 38.0273 37.8378C37.8869 37.6058 37.7778 37.3519 37.653 37.1089C37.5282 36.866 37.5101 36.637 37.3314 36.4314C37.2416 36.2883 37.2093 36.1164 37.2409 35.9505C37.2509 35.7133 37.229 35.4758 37.1756 35.2445C37.1513 35.0682 37.1607 34.8888 37.2033 34.716C37.3128 34.3545 37.485 34.0115 37.5946 33.6483C37.7042 33.2852 37.9131 33.0413 38.0568 32.7319C38.2461 32.3192 38.3813 31.882 38.551 31.4599C38.6573 31.1903 38.7786 30.9268 38.9143 30.6708C39.0208 30.5142 39.0878 30.3342 39.1095 30.1461C39.126 29.8317 39.3249 29.5873 39.5261 29.3647C39.6061 29.2819 39.7107 29.2271 39.8244 29.2086C39.9381 29.1901 40.0547 29.2088 40.1569 29.262C40.6773 29.4737 41.1919 29.7019 41.7027 29.9366C41.8207 29.9897 41.8934 29.9768 41.9342 29.8716C41.9926 29.6629 42.1068 29.474 42.2646 29.3255C42.289 29.3083 42.2932 29.2599 42.2984 29.225C42.3343 28.8915 42.5538 28.6381 42.7257 28.3654C42.8976 28.0927 43.0755 27.8019 43.2528 27.5227C43.2912 27.4479 43.3436 27.3812 43.4073 27.3263C43.6712 27.1443 43.8902 26.9046 44.0477 26.6254C44.0623 26.5923 44.0859 26.5639 44.1157 26.5435C44.4045 26.4077 44.6286 26.1629 44.9139 26.0303C45.2397 25.8881 45.5736 25.7656 45.9141 25.6635C46.0394 25.631 46.1691 25.6181 46.2984 25.625C46.7301 25.6057 47.1621 25.659 47.5762 25.7824C48.1185 25.9618 48.5369 26.2973 48.9626 26.6533C49.0887 26.7928 49.1934 26.9504 49.2734 27.1206C49.4009 27.3243 49.5092 27.5394 49.5969 27.763C49.6343 27.851 49.6494 27.9468 49.641 28.042C49.6268 28.3044 49.5941 28.5655 49.543 28.8233C49.4407 29.2108 49.3679 29.6055 49.3252 30.0041C49.3254 30.0158 49.3248 30.0275 49.3234 30.0392C49.295 30.1316 49.0401 30.1014 49.2003 30.3077C49.2538 30.3759 49.2129 30.5481 49.1671 30.6531C49.0411 30.9449 49.0572 31.2778 48.8667 31.5545C48.7365 31.7662 48.6234 31.9879 48.5284 32.2176C48.4624 32.3583 48.6354 32.5116 48.8584 32.5132C48.9689 32.5202 49.0766 32.5514 49.1737 32.6046C49.2709 32.6578 49.3552 32.7317 49.4207 32.821C49.453 32.8764 49.5822 32.9402 49.4486 33.0254C49.4722 33.0551 49.4927 33.1115 49.5178 33.1128C49.5991 33.1151 49.6805 33.1081 49.7603 33.092C50.1414 33.0198 50.4204 33.2943 50.287 33.6646C50.1911 33.9262 50.144 34.2171 49.902 34.4191C49.7886 34.538 49.7008 34.6789 49.6439 34.8331C49.4745 35.1864 49.3231 35.5474 49.1504 35.8989C49.0715 36.0306 48.9826 36.156 48.8843 36.2739C48.66 36.5858 48.4293 36.8923 48.2165 37.2098C48.1383 37.3264 48.1199 37.4847 48.0385 37.5979C47.8176 37.9099 47.5773 38.2092 47.345 38.5139C47.3035 38.5687 47.2387 38.6224 47.2271 38.6838C47.1793 38.8449 47.0849 38.9881 46.9557 39.0955C46.7939 39.2889 46.5837 39.4358 46.3465 39.5213C45.9213 39.6667 45.6028 39.9854 45.1992 40.1671C44.5713 40.4394 43.964 40.7966 43.2378 40.735C43.0589 40.7257 43.054 40.7556 43.0833 40.9634C43.1078 41.0931 43.1065 41.2263 43.0795 41.3555C43.0687 41.3836 43.0636 41.4135 43.0645 41.4436C43.0654 41.4736 43.0723 41.5032 43.0848 41.5305C43.0972 41.5579 43.115 41.5825 43.1371 41.6029C43.1592 41.6233 43.1851 41.639 43.2134 41.6493C43.5842 41.8364 43.9433 42.0883 44.3384 42.1945C44.6693 42.2806 44.8592 42.5287 45.1541 42.628C45.2439 42.6626 45.3201 42.7254 45.3711 42.807C45.5066 43.0377 45.6309 43.2678 45.7441 43.4973C45.9284 43.8842 45.7628 44.1958 45.5 44.4738C45.2661 44.6987 44.9829 44.8658 44.673 44.962C44.6291 44.9838 44.5791 44.9901 44.5312 44.9797C44.1767 44.8337 43.7737 44.8746 43.4324 44.6689C43.2254 44.5537 43.0104 44.4534 42.7892 44.3686C42.7465 44.3513 42.6831 44.3764 42.6207 44.3832C42.6324 44.4242 42.6483 44.4638 42.6682 44.5015C42.7188 44.5831 42.7797 44.6579 42.8494 44.7239C43.2322 45.0341 43.3757 45.4943 43.5753 45.9105C43.6974 46.1855 43.7672 46.4809 43.7811 46.7815C43.7857 46.9746 43.7205 47.1629 43.5974 47.3118C43.2604 47.6949 42.8588 47.9673 42.2998 47.8189C42.0997 47.7665 42.073 47.7953 42.0908 47.9992C42.0877 48.0594 42.1131 48.1177 42.1239 48.1686C42.2542 48.8813 41.9142 49.4504 41.5403 49.9942C41.4482 50.106 41.3327 50.1963 41.2019 50.2587C41.0712 50.321 40.9284 50.354 40.7835 50.3553C40.3354 50.4125 39.8816 50.4101 39.4341 50.3483C39.3044 50.328 39.1366 50.3612 39.1095 50.1435C39.1111 50.1117 38.911 50.0593 38.8389 50.0907C38.8045 50.1127 38.7641 50.1233 38.7233 50.1212C38.6825 50.119 38.6434 50.1042 38.6115 50.0788C38.4854 49.99 38.3685 49.885 38.235 49.8076C38.0436 49.7037 37.8936 49.5372 37.8104 49.3359C37.8029 49.3034 37.7878 49.2731 37.7662 49.2476C37.7447 49.2221 37.7173 49.2022 37.6865 49.1894C37.6556 49.1766 37.6222 49.1714 37.5889 49.1742C37.5557 49.177 37.5235 49.1877 37.4953 49.2054C37.3264 49.2654 37.1623 49.3381 37.0043 49.4228C36.9093 49.4924 36.8349 49.5864 36.7888 49.6948C36.5997 50.1041 36.4189 50.5139 36.2212 50.9277C36.1743 51.0225 36.1994 51.0557 36.2659 51.0977C36.3345 51.1422 36.4065 51.1814 36.4811 51.2147C36.6586 51.2843 36.8381 51.3457 37.0158 51.4104C37.2045 51.4789 37.3895 51.5569 37.5703 51.644C37.7871 51.7476 37.9939 51.8706 38.1883 52.0117C38.3995 52.1721 38.4282 52.7118 38.2371 52.903C38.1362 53.005 37.97 53.0399 37.8563 53.1312C37.6969 53.2604 37.5743 53.1684 37.4315 53.109C36.7328 52.8124 36.0298 52.5324 35.3296 52.2308C35.1213 52.1428 34.9203 52.0417 34.7125 51.9436C34.5484 51.87 34.3805 51.8053 34.2096 51.7496C34.0215 51.714 33.8472 51.6265 33.7064 51.4968C33.6106 51.4226 33.498 51.3729 33.3786 51.3522C33.0281 51.261 32.7072 51.0807 32.4469 50.8289C32.3444 50.7163 32.2746 50.578 32.2449 50.4287C32.2152 50.2794 32.2268 50.1248 32.2783 49.9816C32.3058 49.9185 32.3485 49.8632 32.4025 49.8205C32.549 49.7156 32.7243 49.6586 32.9045 49.6572C33.0847 49.6559 33.2609 49.7102 33.4089 49.8128C33.6056 49.9485 33.8109 50.0713 34.0235 50.1804C34.203 50.2753 34.3917 50.354 34.5769 50.4358C34.6653 50.4756 34.7686 50.5213 34.8316 50.4072C34.9558 50.1806 35.0768 49.9506 35.1847 49.7164C35.2925 49.4823 35.2691 49.4173 34.9937 49.361C34.9356 49.3496 34.8733 49.3547 34.8131 49.3515C34.477 49.3258 34.154 49.2098 33.8783 49.0158C33.7465 48.8994 33.5869 48.819 33.4149 48.7824C33.2429 48.7458 33.0644 48.7542 32.8966 48.8068C32.7698 48.8368 32.6379 48.8373 32.5109 48.8083C32.3581 48.776 32.2003 48.7764 32.0477 48.8095C31.8951 48.8425 31.7512 48.9075 31.6255 49.0001C31.4035 49.1692 31.1272 49.2514 30.8488 49.231C30.7796 49.2212 30.709 49.2268 30.6421 49.2474C30.5753 49.2679 30.5138 49.3029 30.4619 49.3499C30.3416 49.4644 30.2043 49.5596 30.0548 49.632C29.7567 49.7522 29.5155 50.0045 29.1681 50.0098C29.121 50.0193 29.0756 50.0356 29.0331 50.058C28.4706 50.265 27.9097 50.4737 27.3457 50.6772C27.256 50.7109 27.1625 50.7331 27.0672 50.7431C26.7874 50.772 26.7759 50.7664 26.7307 51.0206C26.5948 51.7596 26.3202 52.4545 26.0834 53.1665C26.0374 53.3341 26 53.504 25.9712 53.6754C25.8343 54.3037 25.6941 54.9302 25.5639 55.5606C25.5241 55.7117 25.5159 55.8693 25.5396 56.0237C25.5789 56.2594 25.5617 56.501 25.4892 56.7287C25.4264 56.9633 25.3968 57.2056 25.4012 57.4484C25.408 57.97 25.3745 58.4913 25.301 59.0077C25.2662 59.2892 25.168 59.5624 25.2439 59.843C25.0277 60.0967 25.2267 60.3619 25.2215 60.6216C25.2186 60.845 25.203 61.0681 25.1747 61.2898C25.1361 61.5116 25.1596 61.7398 25.2425 61.949C25.272 62.0281 25.2869 62.1118 25.2865 62.1961C25.3122 62.8157 25.3356 63.4356 25.3567 64.056C25.355 64.1404 25.3433 64.2242 25.3219 64.3057C25.283 64.5032 25.243 64.5296 25.0355 64.4903C24.9343 64.4699 24.7947 64.4776 24.7445 64.4113C24.6025 64.2363 24.4867 64.0416 24.4009 63.8332C24.2902 63.5299 24.2006 63.2193 24.1327 62.9037C24.0711 62.6389 24.0385 62.3655 24.0075 62.0939C23.964 61.8232 23.9363 61.5502 23.9246 61.2763C23.9246 61.0151 23.9455 60.7544 23.9872 60.4965C24.0347 60.2892 24.0131 60.0719 23.9258 59.8779C23.8891 59.8089 23.9078 59.7093 23.8866 59.6327C23.8275 59.4167 23.9267 59.2207 23.9457 59.0171C23.9648 58.8135 23.85 58.6365 23.9498 58.4271C23.9865 58.3028 23.9934 58.1716 23.9699 58.0441C23.9283 57.4299 24.1817 56.8497 24.1684 56.2403C24.1393 55.7373 24.2229 55.234 24.4132 54.7675C24.4243 54.7329 24.4262 54.696 24.4188 54.6605C24.3418 54.1148 24.5487 53.6226 24.7173 53.1251C24.7762 52.9605 24.7378 52.7338 24.9123 52.6037C24.9127 52.5954 24.9154 52.5452 24.8966 52.5191C24.847 52.4305 24.8293 52.3275 24.8464 52.2274C24.8636 52.1273 24.9145 52.0361 24.9908 51.969C25.0157 51.9435 25.054 51.9153 25.0589 51.8854C25.0844 51.6553 25.0836 51.4155 25.2995 51.2625C25.2599 51.2185 25.2266 51.1497 25.177 51.1354C24.9475 51.068 24.7336 51.1825 24.5183 51.2266C24.2591 51.2793 23.9954 51.3071 23.7309 51.3094C23.4122 51.3112 23.0924 51.3984 22.7764 51.3818C22.1895 51.351 21.5971 51.4876 21.015 51.3012C20.4776 51.1238 19.9225 50.9975 19.3754 50.8464C19.3296 50.8335 19.285 50.8166 19.2423 50.7958C19.0301 50.682 18.8031 50.5984 18.5678 50.5475C18.3246 50.4905 18.0906 50.3998 17.8726 50.278C17.6151 50.1529 17.3681 50.007 17.1342 49.8419C16.8938 49.6568 16.6324 49.5008 16.3554 49.3769C16.0788 49.2365 15.8283 49.0499 15.6147 48.825C15.415 48.6368 15.215 48.4535 15.0098 48.2718C14.6476 47.9526 14.255 47.637 14.0621 47.159C14.0418 47.0792 14.0011 47.006 13.9441 46.9466C13.773 46.8148 13.6369 46.643 13.5478 46.4463C13.4156 46.1845 13.2764 45.929 13.1412 45.662C12.8765 45.1451 12.7792 44.5699 12.5553 44.0434C12.3219 43.4745 12.3231 42.8759 12.167 42.3027C12.0517 41.8632 12.0087 41.4078 12.0398 40.9546C12.0485 40.7873 12.1403 40.6362 12.0159 40.4503C11.9383 40.3305 12.0173 40.1033 12.0433 39.9269C12.0928 39.4935 12.0503 39.057 12.1636 38.6236C12.2768 38.1902 12.3061 37.7273 12.3766 37.2782C12.3945 37.1618 12.4306 37.048 12.4535 36.9318C12.4763 36.8157 12.4876 36.7291 12.508 36.6278C12.5214 36.4746 12.5564 36.324 12.6119 36.1806C12.832 35.788 12.9887 35.3904 12.8971 34.9295C12.901 34.8714 12.9183 34.8149 12.9477 34.7645C13.0886 34.3795 13.2278 33.9944 13.3736 33.6131C13.435 33.4043 13.5574 33.2185 13.7251 33.0798C13.7962 33.0153 13.8528 32.9366 13.8915 32.8488C14.2148 32.247 14.5315 31.6432 14.8531 31.0413C15.0262 30.715 15.1959 30.3885 15.3806 30.0628C15.5244 29.8155 15.6828 29.5757 15.8429 29.3376C16.0719 28.9587 16.325 28.5951 16.6008 28.2488C16.854 27.9603 17.0828 27.6268 17.4981 27.5094C17.7534 27.4373 17.9116 27.1052 17.8705 26.8012C17.8253 26.5887 17.8492 26.3672 17.9389 26.1693C17.9964 26.0015 18.037 25.8284 18.0599 25.6525C18.123 25.488 18.1685 25.3172 18.1956 25.1431C18.2099 24.5822 18.4194 24.0716 18.5726 23.5481C18.7605 22.9057 18.993 22.2774 19.1991 21.6393C19.2312 21.5387 19.3633 21.4181 19.2157 21.3232C19.0681 21.2283 18.9934 21.3736 18.9057 21.4461C18.8092 21.5345 18.7195 21.6302 18.6376 21.7322C18.5417 21.8668 18.4347 21.993 18.3177 22.1095C17.9544 22.4189 17.5749 22.7085 17.1806 22.9772C16.7345 23.2657 16.353 23.6666 15.8125 23.8059C15.716 23.8519 15.6239 23.9065 15.5373 23.9692C15.3867 24.0676 15.2201 24.1388 15.0451 24.1799C14.8071 24.2123 14.5816 24.3056 14.3903 24.4507C14.2629 24.5608 14.0975 24.6165 13.9295 24.606C13.8392 24.6012 13.7363 24.6763 13.6386 24.7165C13.5399 24.7761 13.4323 24.8197 13.3199 24.8457C13.1972 24.8527 13.0933 24.8187 13.0511 24.9842C13.0488 25.0276 12.933 25.0618 12.8653 25.0734C12.5006 25.1447 12.1487 25.2704 11.8213 25.4463C11.7347 25.4894 11.6395 25.5125 11.5427 25.5138C11.4303 25.4978 11.3157 25.5049 11.2061 25.5346C11.0964 25.5643 10.9939 25.6161 10.9049 25.6866C10.8662 25.7215 10.7912 25.7125 10.7353 25.723C10.5152 25.7635 10.2908 25.7903 10.0748 25.8477C9.81468 25.9162 9.56314 25.8209 9.30704 25.8443C9.13251 25.8451 8.95837 25.8606 8.78648 25.8908C8.45604 25.9557 8.12096 25.9942 7.78442 26.006C7.67754 26.0044 7.57209 25.9813 7.47444 25.9378C7.35553 25.884 7.22556 25.8592 7.09522 25.8655C6.96487 25.8718 6.83787 25.909 6.7247 25.9739C6.68317 25.9986 6.63442 26.0329 6.59446 26.0275C5.99475 25.9524 5.39521 25.8741 4.79945 25.7875C4.74594 25.7847 4.6947 25.7066 4.65896 25.6527C4.62322 25.5989 4.58581 25.5768 4.49253 25.6289C4.37303 25.7014 4.24505 25.6159 4.19354 25.4791C4.1818 25.4519 4.17639 25.4224 4.17771 25.3928C4.17904 25.3632 4.18707 25.3342 4.20118 25.3082C4.2153 25.2821 4.23514 25.2596 4.25922 25.2423C4.2833 25.2251 4.31099 25.2135 4.34019 25.2084C4.53733 25.1614 4.73739 25.1276 4.93906 25.1073C5.4972 25.0477 6.05816 24.9983 6.62431 24.9458C6.81467 24.929 7.00689 24.9408 7.19417 24.9187C7.38144 24.8967 7.60762 24.8364 7.81708 24.8071C8.26318 24.7416 8.70875 24.6862 9.15618 24.6275C9.41767 24.6136 9.67597 24.5634 9.92359 24.4782C10.1537 24.4125 10.3896 24.3687 10.628 24.3474C10.8523 24.319 11.0724 24.2641 11.2838 24.184C11.4555 24.09 11.6545 24.0583 11.8469 24.0944C11.8906 24.1015 11.9355 24.0974 11.9773 24.0826C12.0191 24.0678 12.0565 24.0427 12.086 24.0097C12.2665 23.8856 12.461 23.7832 12.6654 23.7047C12.6878 23.6941 12.713 23.6938 12.7336 23.6831C12.9334 23.5558 13.1457 23.4495 13.3673 23.3659C13.5892 23.3189 13.802 23.236 13.9972 23.1206C14.2184 22.9786 14.4634 22.8778 14.7204 22.8231C15.0599 22.7453 15.3745 22.6277 15.5849 22.3251C15.6333 22.2749 15.6927 22.2367 15.7584 22.2135C15.9838 22.1046 16.2122 22.0025 16.4377 21.8902C16.541 21.8386 16.6591 21.7929 16.6785 21.6463C16.6806 21.6079 16.7329 21.5687 16.7695 21.5421C17.368 21.1291 17.8689 20.5937 18.4514 20.1647C18.6261 20.0314 18.8251 19.9144 18.9953 19.769C19.3818 19.4107 19.7913 19.0782 20.2212 18.7735C20.3971 18.6412 20.5481 18.4788 20.6673 18.2939C20.935 17.9451 21.1835 17.5819 21.4117 17.2061C21.5942 16.8601 21.8056 16.5301 22.0436 16.2197C22.1188 16.1281 22.1569 16.0093 22.2275 15.9108C22.3059 15.7952 22.3918 15.6849 22.4846 15.5805C22.6288 15.4204 22.7906 15.2763 22.9316 15.1126C23.1814 14.8256 23.4199 14.5295 23.6616 14.237L23.8228 14.0426C23.9284 13.914 24.0075 13.7169 24.1456 13.6738C24.2837 13.6308 24.2876 13.3644 24.4926 13.4506C24.5038 13.45 24.5142 13.4451 24.5218 13.437C24.5762 13.1045 24.8803 12.9964 25.0598 12.771C25.0931 12.7134 25.1183 12.6516 25.1348 12.5871C25.0663 12.5836 24.9838 12.5574 24.9303 12.5865C24.5712 12.784 24.113 12.7281 23.7903 13.0298C23.7638 13.0552 23.6745 13.0002 23.6231 13.021C23.4158 13.1041 23.1896 13.1341 23.0042 13.2804C22.8149 13.4189 22.5959 13.5113 22.3646 13.5503C22.2679 13.5607 22.1753 13.5944 22.0945 13.6485C21.8272 13.886 21.4844 13.9636 21.1651 14.0727C20.9659 14.1289 20.7768 14.2163 20.6049 14.3317C20.3923 14.4773 20.1606 14.5927 19.9163 14.6746C19.7792 14.7119 19.6466 14.764 19.5208 14.8299C19.3484 14.9198 19.1748 15.0314 19.0025 15.1213C18.4206 15.4094 17.8477 15.7181 17.2479 15.965C16.9549 16.0855 16.7276 16.2949 16.4416 16.409C16.1366 16.5549 15.851 16.7382 15.5914 16.9547C15.5132 17.0096 15.4266 17.0515 15.335 17.0788C15.1466 17.1275 14.9764 17.2298 14.8451 17.3734C14.5881 17.6684 14.2211 17.7934 13.8958 17.9843C13.8224 18.0088 13.7423 18.0046 13.6718 17.9725C13.6224 17.9548 13.6275 17.9216 13.5932 18.0003C13.463 18.2485 13.2483 18.4419 12.9878 18.5454C12.9001 18.5826 12.8231 18.6415 12.7642 18.7164C12.5223 19.0218 12.2127 19.2668 11.8598 19.4319C11.6644 19.5452 11.4838 19.6822 11.322 19.8397C11.0692 20.0562 10.7972 20.2549 10.5383 20.4593C10.4898 20.4915 10.4371 20.517 10.3818 20.5349C10.3373 20.5511 10.2675 20.5407 10.2458 20.5697C10.1629 20.6936 10.0396 20.7849 9.89691 20.8281C9.74854 20.8757 9.63812 21.0309 9.50225 21.1277C9.36639 21.2246 9.23712 21.2915 9.10855 21.377C8.97999 21.4625 8.83832 21.5742 8.69779 21.664C8.45659 21.8191 8.21538 21.9741 7.96652 22.1153C7.9146 22.1461 7.79694 22.1517 7.77836 22.1222C7.75749 22.0908 7.74405 22.055 7.73904 22.0175C7.73403 21.9801 7.73759 21.942 7.74945 21.9061C7.88828 21.6887 8.04656 21.484 8.20485 21.2794C8.39683 21.011 8.60457 20.7542 8.82698 20.5105C9.04828 20.2873 9.22785 19.9966 9.58155 19.9346C9.70845 19.9128 9.75073 19.6819 9.94314 19.7859C9.96594 19.7988 10.0551 19.7297 9.96617 19.6664C9.79487 19.5434 9.88463 19.4944 10.0192 19.4227C10.1954 19.3138 10.3581 19.1844 10.5039 19.0373C10.823 18.7706 11.1565 18.5181 11.4852 18.2621C11.5411 18.218 11.6179 18.1919 11.6593 18.1387C11.891 17.86 12.1852 17.6399 12.518 17.4962C12.6701 17.4124 12.8056 17.3013 12.9174 17.1684C13.0953 16.9748 13.3708 16.8685 13.611 16.7336C13.6231 16.7258 13.6829 16.801 13.7193 16.8415C13.742 16.8691 13.7629 16.8982 13.7818 16.9286C13.8006 16.9053 13.815 16.8788 13.8245 16.8504C13.8783 16.4306 14.1769 16.2367 14.5121 16.048C14.8023 15.9065 15.0679 15.7194 15.299 15.494C15.3949 15.3934 15.54 15.2149 15.7822 15.298C15.8778 15.3298 16.073 15.2193 16.1488 15.1177C16.2696 14.9857 16.4227 14.8874 16.593 14.8324C16.8748 14.7013 17.1655 14.5941 17.4505 14.4682C17.5381 14.4173 17.6223 14.3607 17.7025 14.2987C17.7783 14.2419 17.8614 14.1955 17.9495 14.1607C18.5418 13.9922 19.0385 13.6342 19.5685 13.3434C19.5892 13.3328 19.6058 13.3035 19.626 13.3012C20.0816 13.2479 20.3856 12.853 20.8275 12.7722C20.9967 12.7425 21.1143 12.5156 21.3131 12.6887C21.3131 12.6887 21.3526 12.6706 21.3734 12.6583C21.8363 12.3856 22.3202 12.1502 22.8205 11.9544C23.1854 11.8059 23.5537 11.6575 23.9287 11.5414C24.0737 11.4936 24.196 11.3676 24.3421 11.3316C24.4083 11.3166 24.5392 11.0267 24.603 11.3453C24.7373 11.3321 24.8695 11.3024 24.9966 11.2569C25.2806 11.1141 25.598 11.0508 25.915 11.0737C25.9982 11.071 26.0803 11.0538 26.1575 11.0227C26.3737 10.9602 26.5787 10.8569 26.8152 10.9833C26.8662 10.9921 26.9186 10.9893 26.9684 10.9751C27.0182 10.9608 27.0641 10.9356 27.1028 10.9012C27.3208 10.7046 27.5713 10.5475 27.8432 10.4369C27.9017 10.4201 27.9563 10.3916 28.0035 10.3531C28.4337 9.91956 28.995 9.70417 29.526 9.42682C29.535 9.4211 29.5438 9.41482 29.5521 9.40805L29.8843 9.14713C29.7448 9.12137 29.6076 9.08398 29.4676 9.06826C28.8843 9.0008 28.2992 8.9668 27.7207 8.87109C27.1422 8.77538 26.5607 8.86396 25.9802 8.87043C25.6382 8.89691 25.2942 8.87888 24.9568 8.8168C24.5582 8.71496 24.1427 8.69777 23.7371 8.7663C23.2462 8.85459 22.74 8.84985 22.245 8.92116C21.4913 9.03257 20.7396 9.16085 19.9897 9.306C19.5272 9.39578 19.0756 9.53476 18.6185 9.64998C18.6085 9.64945 18.5917 9.64857 18.5834 9.64814C18.1998 9.86446 17.8101 10.0687 17.439 10.3042C17.2656 10.4124 17.0788 10.3942 16.9106 10.4676C16.5774 10.6178 16.2385 10.7493 15.9128 10.9183C15.5099 11.1186 15.0555 11.2792 14.7383 11.5728C14.4565 11.8297 14.0996 11.8881 13.8226 12.1184C13.5522 12.3532 13.2605 12.5624 12.9515 12.7434C12.621 12.934 12.3131 13.1614 12.034 13.4214C11.8862 13.5528 11.7623 13.7107 11.6193 13.8474C11.5241 13.9363 11.4132 14.0043 11.3116 14.0861C11.0319 14.2713 10.7699 14.4822 10.5291 14.7158C10.2201 15.0646 9.88922 15.3933 9.53852 15.7002C9.44201 15.7906 9.36015 15.8955 9.29586 16.0111C9.10949 16.2856 8.88787 16.5344 8.63667 16.7512C8.47606 16.9516 8.30199 17.1408 8.11569 17.3175C7.66639 17.6679 7.46294 18.1904 7.12543 18.6154C6.71085 19.1353 6.36572 19.7057 5.93335 20.2129C5.73534 20.4836 5.55265 20.7651 5.38613 21.0562C5.12439 21.4432 4.85455 21.8248 4.59448 22.2119C4.33441 22.5991 4.06336 23.0359 3.78411 23.4371C3.59196 23.7121 3.37718 23.9708 3.16724 24.2331C3.14402 24.2604 3.0722 24.2868 3.05451 24.2725C3.03709 24.2576 3.02344 24.2388 3.01464 24.2177C3.00584 24.1965 3.00216 24.1736 3.00388 24.1508C3.0646 23.8626 3.14669 23.5794 3.24949 23.3035C3.40422 22.9427 3.50615 22.5657 3.65578 22.2063C3.77857 21.911 3.90145 21.6139 4.0371 21.3292C4.25571 20.9014 4.48734 20.4809 4.72874 20.066C4.82446 19.9033 4.97529 19.7771 5.07585 19.618C5.21653 19.3973 5.32798 19.1584 5.46707 18.9359C5.53779 18.8297 5.62416 18.7347 5.72328 18.6543C5.78003 18.6199 5.82776 18.5725 5.86251 18.516C5.89726 18.4595 5.91802 18.3955 5.92307 18.3294C5.92693 18.2558 5.99124 18.1804 6.0369 18.109C6.13931 17.9467 6.24675 17.7846 6.35206 17.6308C6.37016 17.5993 6.39023 17.5691 6.41215 17.5401C6.48342 17.46 6.55469 17.3799 6.63405 17.3052C6.71342 17.2306 6.8602 17.1494 6.85113 17.1305C6.78535 16.9778 6.94244 16.924 6.97154 16.8165C7.01499 16.7196 7.0765 16.6317 7.15279 16.5577C7.20791 16.464 7.27865 16.3804 7.36194 16.3105C7.60648 16.1556 7.7189 15.8982 7.89734 15.693C8.09675 15.4582 8.31395 15.2392 8.54704 15.0379C8.68027 14.9176 8.79111 14.7747 8.87435 14.6157C9.06041 14.2649 9.38203 14.047 9.68905 13.82C9.89192 13.6731 10.0756 13.5013 10.2356 13.3087C10.4206 13.045 10.6694 12.8325 10.9588 12.691C11.0357 12.6566 11.1046 12.6065 11.1611 12.544C11.4426 12.2315 11.775 11.9688 12.1441 11.7671C12.2907 11.6893 12.1965 11.6324 12.1256 11.6086C11.9119 11.5221 11.691 11.4544 11.4655 11.4063C10.9838 11.3097 10.5178 11.147 10.0807 10.9229C9.75332 10.7699 9.42344 10.6655 9.09645 10.5058C8.62106 10.2663 8.16404 9.99581 7.69595 9.74491C7.15437 9.45662 6.74925 8.99609 6.26679 8.63545C6.01751 8.41583 5.7942 8.16841 5.60119 7.898C5.58331 7.86964 5.57168 7.83779 5.56706 7.80459C5.56243 7.77139 5.56494 7.73758 5.5744 7.70542C5.57607 7.67365 5.67981 7.64557 5.72971 7.65322C5.86055 7.67371 5.98911 7.70684 6.11355 7.75214C6.47715 7.88521 6.83678 8.0298 7.20029 8.16455C7.31049 8.20554 7.42657 8.23007 7.53852 8.26947C7.64755 8.30828 7.75437 8.35306 7.85848 8.40361C7.96816 8.4464 8.07077 8.50551 8.16285 8.57888C8.26047 8.66784 8.46879 8.66031 8.46791 8.67703C8.45915 8.84425 8.59626 8.81958 8.67152 8.85538C8.7745 8.90605 8.90546 8.90286 9.00149 8.95819C9.21485 9.07837 9.41149 9.22951 9.62283 9.35628C9.97298 9.55993 10.3428 9.72761 10.7267 9.85679C10.995 9.95301 11.2457 10.097 11.508 10.2113C11.649 10.2724 11.7977 10.3153 11.9423 10.3715C12.0869 10.4277 12.158 10.5422 12.3195 10.5003C12.3637 10.4892 12.4263 10.5428 12.4835 10.5709C12.5407 10.5991 12.5942 10.6656 12.6366 10.6561C12.7597 10.6284 12.8882 10.6384 13.0055 10.685C13.1227 10.7315 13.2232 10.8123 13.2937 10.9169C13.3063 10.9327 13.3756 10.9212 13.4104 10.8979C13.5318 10.8502 13.6446 10.7831 13.7444 10.6991C13.8513 10.5712 14.0002 10.4857 14.1645 10.4578C14.2 10.4557 14.2336 10.4408 14.2589 10.4158C14.4931 10.076 14.8983 9.98991 15.2262 9.81259C15.6273 9.5893 16.0398 9.38704 16.4619 9.20663C16.851 9.04593 17.2537 8.91277 17.647 8.76571C17.818 8.70257 17.9718 8.61504 18.1419 8.57029C18.4178 8.48917 18.7008 8.4319 18.9794 8.36267C19.1494 8.31792 19.3197 8.26816 19.4898 8.22174C19.503 8.21468 19.5139 8.20412 19.5214 8.19118C19.5289 8.17824 19.5327 8.16346 19.5322 8.14851C19.5208 8.11103 19.479 8.0451 19.462 8.04924C19.1583 8.11549 18.9377 7.78198 18.6327 7.87499C18.5394 7.88933 18.4446 7.89171 18.3506 7.88203C18.2804 7.87835 18.1963 7.91583 18.1391 7.88768C17.8023 7.72248 17.4404 7.78065 17.0881 7.75212C16.6138 7.71553 16.1343 7.74743 15.6683 7.61569C15.5964 7.60826 15.5238 7.6207 15.4585 7.65165C15.3511 7.68626 15.2537 7.7197 15.1657 7.60777C15.1421 7.57803 15.0787 7.57137 15.0319 7.56891C14.766 7.57178 14.5001 7.55784 14.236 7.5272C13.9329 7.47674 13.6245 7.46623 13.3187 7.49591C13.0575 7.48286 12.7987 7.43946 12.5475 7.36662C12.3972 7.35473 12.2486 7.32726 12.1041 7.28468C11.9399 7.21739 11.7535 7.35017 11.5705 7.1947C11.4565 7.09818 11.2115 7.16583 11.0286 7.13613C10.9123 7.11345 10.801 7.07011 10.7 7.00821C10.6778 6.99066 10.6604 6.96778 10.6495 6.9417C10.6385 6.91562 10.6344 6.88719 10.6374 6.85907C10.65 6.8342 10.6682 6.81261 10.6906 6.79603C10.713 6.77945 10.739 6.76831 10.7665 6.76353C11.1373 6.72596 11.5076 6.7001 11.8782 6.66754C12.0567 6.65175 12.2342 6.62416 12.4142 6.61347C12.5405 6.60249 12.6677 6.60916 12.7921 6.63328C13.0754 6.7001 13.36 6.54899 13.6445 6.65445C13.7103 6.67802 13.8138 6.62478 13.887 6.60346C14.0564 6.546 14.2395 6.54328 14.4105 6.59569C14.5489 6.62777 14.6931 6.62493 14.8302 6.58747C15.0313 6.56402 15.2347 6.56737 15.435 6.59739C15.6657 6.60949 15.9087 6.74127 16.1429 6.59089C16.1672 6.5754 16.2115 6.59449 16.2483 6.59642L17.1782 6.60994C17.3671 6.61985 17.5455 6.57551 17.7338 6.69437C17.836 6.76009 18.0226 6.68605 18.17 6.68874C18.3473 6.69803 18.5246 6.70732 18.7001 6.71652C18.7904 6.72125 18.9374 6.66861 18.9606 6.70504C19.1157 6.94456 19.3331 6.76478 19.514 6.80109C19.8418 6.84565 20.1722 6.86858 20.503 6.86971C20.8007 6.88531 21.1091 6.82433 21.4095 6.94739C21.5736 7.01468 21.7866 6.95038 21.9713 6.97683C22.2509 7.02062 22.5276 7.08048 22.8003 7.15611C23.3972 7.3165 24.0032 7.30299 24.6122 7.29802C24.6823 7.28558 24.7544 7.28936 24.8229 7.30906C25.2021 7.49661 25.6053 7.44897 26.0083 7.47009C26.3294 7.48692 26.6594 7.49248 26.9728 7.68831C27.1838 7.82178 27.4974 7.81978 27.767 7.8272C27.8959 7.82188 28.0246 7.84114 28.1463 7.88397C28.3138 7.94611 28.4854 7.99656 28.6599 8.03496C28.7307 8.04542 28.8024 8.04918 28.8739 8.04618C28.8337 7.98295 28.7867 7.92427 28.7339 7.87116C28.6759 7.83493 28.6129 7.80735 28.547 7.78928C28.4501 7.75066 28.3249 7.74073 28.2597 7.67192C28.0754 7.47781 27.828 7.43131 27.6065 7.33754C27.5244 7.31871 27.4453 7.28862 27.3714 7.24809C26.9341 6.88982 26.4082 6.68622 25.9285 6.40117C25.7193 6.25181 25.4769 6.15562 25.2222 6.12099C24.9864 6.10863 24.7644 5.92933 24.5325 5.8434C24.2548 5.73494 24.0091 5.52758 23.6817 5.56743C23.6698 5.56945 23.6577 5.56897 23.646 5.56605C23.6343 5.56313 23.6234 5.55781 23.6139 5.55045C23.3147 5.24301 22.8575 5.36157 22.5244 5.15799C22.2631 4.99172 21.9479 5.02384 21.6765 4.92242C21.0511 4.69849 20.4605 4.64069 19.87 4.55105ZM17.4725 29.5655C17.5025 29.4413 17.5274 29.3504 17.544 29.2573C17.5453 29.2323 17.5268 29.2011 17.5182 29.1738C17.499 29.1879 17.4717 29.1966 17.4624 29.2145C17.3187 29.4774 17.1541 29.7284 16.9703 29.9651C16.6973 30.3431 16.4695 30.7537 16.2191 31.1481C16.1151 31.3103 16.0995 31.5442 15.8835 31.6335C15.8695 31.9011 15.5654 32.0394 15.5841 32.3221C15.5822 32.371 15.5638 32.418 15.5319 32.4552C15.2547 32.7861 15.1836 33.2133 14.9964 33.5858C14.8092 33.9583 14.6483 34.3422 14.4758 34.7222C14.3055 35.0435 14.1703 35.3821 14.0724 35.7322C13.9851 36.1386 13.8689 36.5382 13.7247 36.928C13.6205 37.233 13.5582 37.5507 13.5394 37.8724C13.5294 38.256 13.4863 38.638 13.4108 39.0143C13.2426 39.6309 13.4074 40.2616 13.278 40.8752C13.2761 40.899 13.2783 40.923 13.2844 40.946C13.3679 41.5272 13.4549 42.1069 13.5284 42.6893C13.5495 43.0118 13.6387 43.3262 13.7902 43.6118C13.8322 43.7099 13.8595 43.8135 13.8714 43.9195C13.9005 44.0351 13.9211 44.1536 13.9608 44.2596C14.1015 44.6806 14.2896 45.0843 14.5216 45.4627C14.8734 46.0127 15.1538 46.6126 15.6518 47.0612C15.7026 47.1121 15.7497 47.1667 15.7925 47.2245C15.9604 47.4596 16.1796 47.6534 16.4335 47.7913C16.5276 47.8431 16.6135 47.9086 16.6882 47.9858C16.9091 48.1869 17.123 48.3926 17.3422 48.5935C17.3674 48.6188 17.4016 48.6333 17.4373 48.6338C17.7546 48.5313 17.9774 48.7593 18.1827 48.9042C18.3977 49.0397 18.645 49.1152 18.899 49.1228C19.1588 49.1358 19.4151 49.1888 19.6587 49.28C20.0121 49.4478 20.3932 49.5348 20.7448 49.7058C20.8866 49.7736 21.0395 49.8152 21.1961 49.8284C21.9561 49.885 22.7184 49.9283 23.479 49.9732C23.5512 49.968 23.6226 49.9554 23.6922 49.9357C23.8612 49.9111 24.0299 49.8914 24.1991 49.8634C24.6574 49.7885 25.1201 49.7591 25.5565 49.5573C25.887 49.422 26.2348 49.3335 26.5898 49.2945C27.0478 49.2337 27.4911 49.0905 27.8981 48.8718C27.9721 48.8351 28.0515 48.8104 28.1333 48.7986C28.5446 48.7245 28.9587 48.6624 29.3687 48.5816C30.0484 48.4451 30.6974 48.1853 31.2835 47.8151C31.566 47.6076 31.9129 47.5069 32.2626 47.531C32.3315 47.5514 32.4055 47.5446 32.4696 47.5121C32.5336 47.4796 32.5828 47.4239 32.6071 47.3562C32.621 47.3194 32.6427 47.2859 32.6706 47.258C32.6985 47.2301 32.732 47.2086 32.7689 47.1946C32.8058 47.1807 32.8452 47.1747 32.8845 47.1772C32.9239 47.1797 32.9622 47.1906 32.9971 47.209C33.3265 47.3218 33.6791 47.3772 33.9757 47.542C34.3086 47.728 34.664 47.8707 35.0333 47.9663C35.509 48.1168 36.0097 48.1727 36.5069 48.1307C36.8446 48.0864 37.1107 47.8723 37.4419 47.8243C37.6334 47.8 37.8158 47.7283 37.9726 47.6157C38.0688 47.5439 38.1787 47.4929 38.2956 47.4658C38.4125 47.4387 38.5337 47.4362 38.6516 47.4584C38.7257 47.4627 38.7974 47.4864 38.8596 47.5271C38.9218 47.5678 38.9722 47.624 39.0059 47.6902C39.0395 47.7564 39.0553 47.8303 39.0515 47.9044C39.0478 47.9786 39.0247 48.0505 38.9845 48.113C38.9359 48.2099 38.8712 48.2978 38.7931 48.373C38.7662 48.3922 38.7438 48.4169 38.7273 48.4455C38.7108 48.4742 38.7006 48.506 38.6975 48.5389C38.6943 48.5718 38.6983 48.605 38.709 48.6362C38.7198 48.6675 38.7371 48.696 38.7598 48.72C38.8522 48.8808 38.9796 49.0186 39.1326 49.1233C39.2857 49.228 39.4604 49.2969 39.6437 49.3247C39.8353 49.3481 40.0274 49.3616 40.2167 49.3966C40.5125 49.449 40.6195 49.3892 40.7359 49.0885C40.7867 48.9095 40.8571 48.7366 40.9457 48.5729C40.9771 48.539 40.9956 48.4952 40.998 48.4491C41.0004 48.403 40.9866 48.3574 40.9589 48.3204C40.7846 48.0631 40.619 47.7996 40.4239 47.5546C40.2288 47.3097 40.0264 47.1414 39.8241 46.938C39.6218 46.7346 39.5526 46.5197 39.3521 46.3448C39.1517 46.17 39.1582 45.726 39.3224 45.5049C39.3885 45.4207 39.4798 45.3598 39.5829 45.3311C39.6861 45.3024 39.7957 45.3074 39.8958 45.3455C40.0968 45.413 40.1761 45.5966 40.303 45.734C40.5554 46.0054 40.8877 46.1922 41.0796 46.5309C41.1683 46.6451 41.2916 46.7274 41.4311 46.7657C41.669 46.8499 41.9147 46.9105 42.1644 46.9466C42.2815 46.9417 42.3956 46.9079 42.4966 46.8484C42.5143 46.8347 42.5287 46.8171 42.5385 46.797C42.5483 46.7768 42.5532 46.7546 42.553 46.7322C42.5281 46.409 42.409 46.1003 42.2105 45.844C42.0821 45.6696 41.9796 45.4178 41.6947 45.3827C41.6476 45.3711 41.6033 45.3502 41.5645 45.3211C41.5257 45.2919 41.4931 45.2553 41.4689 45.2133C41.3156 44.9386 41.056 44.8362 40.8119 44.6943C40.6379 44.5912 40.489 44.4576 40.3102 44.3493C40.1866 44.276 40.0591 44.2094 39.9283 44.1499C39.7239 44.0504 39.5123 43.9604 39.317 43.8479C39.2323 43.7999 39.1648 43.7264 39.124 43.638C39.0832 43.5495 39.0712 43.4504 39.0896 43.3548C39.1154 43.2735 39.1665 43.2025 39.2355 43.1524C39.3046 43.1023 39.3878 43.0757 39.4731 43.0764C39.5656 43.05 39.6621 43.0403 39.758 43.0478C40.1403 43.1432 40.5319 43.1906 40.888 43.4021C41.1315 43.5697 41.4166 43.6665 41.7118 43.6817C42.129 43.6549 42.4783 43.8375 42.8618 43.9096C43.1661 43.9591 43.4534 44.1083 43.7556 44.1661C43.8889 44.2 44.0279 44.2051 44.1633 44.1809C44.2988 44.1568 44.4275 44.104 44.5409 44.0261C44.7162 43.881 44.719 43.8275 44.5707 43.6487C44.3178 43.3593 44.0107 43.1222 43.6667 42.9508C43.3481 42.7899 43.0116 42.6515 42.7057 42.4728C42.5855 42.403 42.4553 42.3521 42.3196 42.3218C41.8904 42.2255 41.4639 42.1093 41.0316 42.038C40.4037 41.9246 39.8386 41.6066 39.1996 41.5127C38.8955 41.448 38.5793 41.4704 38.2874 41.5773C38.1781 41.6258 38.0581 41.6455 37.939 41.6344C37.3733 41.5495 36.8112 41.4295 36.2449 41.3562C35.8804 41.3012 35.5106 41.2897 35.1434 41.3219C34.6761 41.3763 34.2176 41.5182 33.7534 41.6079C33.4168 41.6686 33.0864 41.7602 32.7666 41.8815C32.3816 42.029 31.9827 42.1523 31.5901 42.286C31.484 42.3055 31.3824 42.3445 31.2906 42.4011C31.0495 42.6182 30.7487 42.6309 30.457 42.6928C30.3283 42.7179 30.2022 42.7565 30.072 42.7765C29.5126 42.8612 29.084 43.3284 28.4911 43.3141C28.4811 43.3136 28.4688 43.3247 28.4585 43.3292C27.9897 43.5075 27.5252 43.6994 27.0506 43.8607C26.7604 43.9595 26.4384 43.9611 26.1665 44.1262C26.149 44.1387 26.1196 44.1238 26.0957 44.1326C25.826 44.1604 25.556 44.1932 25.2849 44.2142C25.117 44.2244 24.9538 44.2733 24.8079 44.3569C24.6764 44.4131 24.5354 44.4438 24.3924 44.4474C24.2508 44.4618 24.1072 44.4492 23.9644 44.4552C23.5836 44.493 23.201 44.5077 22.8185 44.4991C22.3978 44.4636 21.9792 44.5172 21.5698 44.5209C21.2742 44.5347 20.9778 44.5192 20.6852 44.4745C20.2188 44.3847 19.7593 44.2583 19.2998 44.1302C19.2078 44.1026 19.1187 44.066 19.0339 44.0207C18.6715 43.8341 18.3112 43.6374 17.9527 43.4392C17.8744 43.3966 17.7752 43.3377 17.7507 43.261C17.659 43.0513 17.5222 42.8644 17.3502 42.7135C17.2557 42.6238 17.1778 42.5181 17.1201 42.4013C16.9236 41.923 16.8024 41.4172 16.761 40.9018C16.7495 40.8181 16.754 40.733 16.7741 40.651C16.8053 40.5688 16.8696 40.4615 16.9394 40.4417C16.9838 40.4416 17.0276 40.4524 17.0668 40.4732C17.1061 40.4939 17.1396 40.524 17.1645 40.5608C17.2996 40.7993 17.4018 41.0562 17.5334 41.2978C17.6344 41.4808 17.5589 41.8022 17.9162 41.7991C17.9597 41.8014 18.0097 41.8711 18.0475 41.9183C18.2946 42.2264 18.6504 42.3792 18.9794 42.5658C19.0624 42.6137 19.1278 42.582 19.1063 42.4786C19.07 42.309 19.0068 42.138 18.9788 41.9688C18.924 41.639 18.8843 41.3082 18.8429 40.9774C18.7975 40.5021 18.7099 40.0318 18.5812 39.572C18.4478 39.1424 18.3107 38.7194 18.1791 38.2866C18.1651 38.2284 18.1569 38.1691 18.1549 38.1093C18.1152 37.683 17.9466 37.2834 17.9377 36.847C17.9304 36.5699 17.7988 36.2964 17.7294 36.0212C17.7113 35.9411 17.7049 35.8589 17.7103 35.777C17.7003 35.6568 17.7164 35.5358 17.7574 35.4223C17.8515 35.2596 17.6741 35.2201 17.6673 35.094C17.6297 34.5001 17.452 33.9241 17.4723 33.3131C17.488 33.0138 17.5454 32.6848 17.4036 32.3839C17.3899 32.3374 17.389 32.2882 17.401 32.2413C17.4668 31.8425 17.4654 31.4354 17.397 31.0371C17.3721 30.8838 17.3657 30.7281 17.3777 30.5733C17.4017 30.2124 17.4426 29.8792 17.4725 29.5655ZM42.8054 39.4833C43.2232 39.4882 43.6387 39.4203 44.0333 39.2827C44.1948 39.2361 44.3502 39.1705 44.4962 39.0873C44.8528 38.8746 45.1223 38.5316 45.5195 38.3746C45.5633 38.3539 45.6021 38.3239 45.6331 38.2867C45.7857 38.127 45.9456 37.956 46.0841 37.7771C46.3016 37.4984 46.5966 37.2758 46.6866 36.9032C46.7081 36.8121 46.8174 36.7424 46.8935 36.6659C47.1725 36.3972 47.4557 36.1454 47.5904 35.75C47.7261 35.4298 47.8927 35.1234 48.0877 34.8354C48.1724 34.6923 48.2797 34.5638 48.3659 34.4224C48.4521 34.281 48.5318 34.1041 48.6221 33.9496C48.7124 33.795 48.7372 33.6102 48.6125 33.5248C48.4498 33.4314 48.278 33.355 48.0996 33.2968C48.0863 33.2961 48.0551 33.3145 48.0408 33.3322C47.9082 33.493 47.7089 33.6502 47.6601 33.8438C47.5943 34.1087 47.4046 34.2731 47.2685 34.4689C46.9897 34.8496 46.6907 35.2151 46.3728 35.5638C46.254 35.7432 46.1106 35.905 45.9468 36.0445C45.6257 36.2524 45.2706 36.4048 44.9341 36.5867C44.4739 36.8196 43.9801 36.9793 43.4707 37.06C43.0305 37.1392 42.5941 37.1482 42.2119 36.8263C41.9756 36.6312 41.7127 36.4648 41.4673 36.2843C41.4005 36.2355 41.3423 36.1758 41.2955 36.1076C41.0722 35.7605 40.8277 35.4342 40.6403 35.0756C40.4823 34.7619 40.4192 34.409 40.4588 34.06C40.4681 33.8811 40.5126 33.704 40.522 33.5251C40.5668 33.0466 40.6904 32.5788 40.888 32.1408C40.9963 31.8664 41.1687 31.6156 41.2968 31.3473C41.3578 31.2183 41.399 31.0808 41.4188 30.9395C41.4179 30.9008 41.4077 30.8628 41.389 30.8289C41.3704 30.7949 41.3438 30.7659 41.3116 30.7444C41.0816 30.6217 40.8407 30.5152 40.6015 30.4087C40.4228 30.3306 40.3885 30.3456 40.3003 30.5254C40.1432 30.9165 39.9225 31.2789 39.6471 31.5979C39.5962 31.6651 39.5591 31.7418 39.538 31.8235C39.3994 32.165 39.2377 32.4986 39.1321 32.8502C38.9965 33.2942 38.7517 33.709 38.7547 34.1954C38.7474 34.2901 38.7085 34.3796 38.6442 34.4495C38.5449 34.5604 38.4775 34.696 38.4488 34.8421C38.4202 34.9882 38.4316 35.1392 38.4816 35.2793C38.627 35.7062 38.602 36.1828 38.908 36.5509C38.9284 36.5772 38.9278 36.6207 38.9445 36.6534C39.0969 36.9448 39.1424 37.2926 39.4141 37.5164C39.5426 37.6238 39.6622 37.7407 39.7836 37.8561C40.0296 38.0886 40.2277 38.3723 40.5468 38.5232C40.7244 38.5929 40.892 38.6857 41.0454 38.7992C41.2686 39.0244 41.551 39.1817 41.86 39.2527C42.1552 39.3151 42.4522 39.4397 42.8054 39.4833ZM34.2653 5.98962C34.256 5.68731 34.2451 5.31786 34.2344 4.94672C34.2332 4.91235 34.2276 4.87824 34.2179 4.84524C34.0846 4.41402 33.9514 3.97949 33.8113 3.54959C33.7707 3.42841 33.6942 3.32044 33.6482 3.20569C33.5891 3.05336 33.4364 3.15264 33.3495 3.0827C33.3124 3.05393 33.2627 3.04296 33.2221 3.01736C33.0995 2.9339 32.9605 2.87747 32.8144 2.85189C32.6683 2.82631 32.5184 2.83214 32.3748 2.86897C31.8369 2.99001 31.5462 3.1609 31.2407 3.64793C31.0737 3.89579 30.8933 4.1343 30.7002 4.36241C30.5768 4.50615 30.4977 4.68256 30.4724 4.87029C30.4561 5.17788 30.3835 5.47984 30.258 5.76114C30.2033 5.86697 30.1829 5.98725 30.1997 6.1052C30.2379 6.33692 30.3435 6.56213 30.227 6.80084C30.226 6.81923 30.2459 6.85548 30.2614 6.87977C30.4784 7.21812 30.6989 7.55494 30.9142 7.8932C30.9389 7.92765 30.9562 7.96682 30.9652 8.00824C30.9957 8.19429 31.0177 8.38153 31.05 8.56599C31.0584 8.58141 31.0705 8.59451 31.0852 8.60407C31.0999 8.61362 31.1168 8.61934 31.1343 8.62072C31.3668 8.56752 31.5983 8.50251 31.8308 8.4493C32.4365 8.31337 32.961 7.93675 33.5882 7.87069C33.6708 7.86328 33.7593 7.80587 33.83 7.83138C34.0108 7.90121 34.0376 7.80704 34.0545 7.67546C34.1119 7.12513 34.1834 6.59232 34.2653 5.98962ZM46.5711 31.3319C46.5298 31.3516 46.4554 31.3644 46.428 31.4066C46.2446 31.7072 46.0609 32.0128 45.8769 32.3234C45.862 32.3511 45.9298 32.4671 45.9746 32.4761C46.2744 32.5639 46.5643 32.6824 46.8397 32.83C47.1054 32.9428 47.1038 32.9729 47.2992 32.7652C47.3453 32.7156 47.4832 32.7413 47.4443 32.6185C47.3821 32.4308 47.4896 32.2989 47.5887 32.1666C47.7293 31.9812 47.7237 31.9273 47.5319 31.8116C47.4738 31.7717 47.4136 31.735 47.3515 31.7015C47.1014 31.5794 46.8477 31.4605 46.5711 31.3319ZM46.6729 33.9329C46.6389 33.8888 46.5986 33.8499 46.5532 33.8177C46.4106 33.7548 46.2623 33.7052 46.1178 33.6456C45.9308 33.5671 45.7495 33.4754 45.5602 33.4068C45.483 33.3776 45.3755 33.3166 45.313 33.4525C45.1674 33.7669 45.0186 34.0793 44.8714 34.3919C44.8262 34.4868 44.846 34.5582 44.9517 34.5872C45.1992 34.6656 45.447 34.7356 45.694 34.8223C45.7516 34.8528 45.8185 34.8605 45.8815 34.8439C45.9445 34.8273 45.9989 34.7877 46.034 34.7328C46.1742 34.554 46.3417 34.3968 46.4883 34.2234C46.5567 34.1287 46.6184 34.0294 46.6732 33.9262L46.6729 33.9329ZM47.6536 27.0575C47.6318 27.021 47.6041 26.9883 47.5715 26.961C47.4975 26.9015 47.4145 26.8541 47.3256 26.8207C47.0546 26.7461 46.8079 26.5571 46.4972 26.6314C46.4361 26.645 46.3491 26.6739 46.325 26.7179C46.2122 26.982 46.129 27.2576 46.013 27.5199C45.9538 27.6576 46.002 27.7289 46.1189 27.7702C46.356 27.8531 46.6008 27.9179 46.836 28.0056C47.0003 28.0696 47.0779 27.9965 47.1502 27.8645C47.2506 27.6769 47.3608 27.4932 47.471 27.3112C47.5305 27.2305 47.5882 27.1547 47.6536 27.0575ZM48.2812 29.8001C48.2818 29.7884 48.2858 29.7131 48.254 29.6796C48.1464 29.5376 48.0088 29.421 47.851 29.3382C47.5032 29.2244 47.4861 29.1665 47.3182 29.5216C47.1919 29.7883 47.074 30.0554 46.9559 30.3242C46.9445 30.3504 46.9513 30.4112 46.966 30.4187C47.1594 30.5042 47.2328 30.768 47.4875 30.7713C47.6427 30.7889 47.795 30.8256 47.9412 30.8806C48.042 30.9093 48.1077 30.9027 48.114 30.7823C48.1656 30.4698 48.2209 30.1507 48.2762 29.7998L48.2812 29.8001ZM46.5249 28.9502C46.4854 28.8926 46.4379 28.8409 46.3837 28.7969C46.2601 28.7233 46.1164 28.6822 45.9999 28.6007C45.759 28.4304 45.5726 28.4358 45.4254 28.6846C45.3155 28.8965 45.22 29.1156 45.1395 29.3403C45.0438 29.5667 45.0807 29.6625 45.2948 29.7693C45.4271 29.8207 45.5516 29.8905 45.6646 29.9765C45.7494 30.0531 45.8134 30.0481 45.8782 29.9961C45.9635 29.9328 46.0382 29.8563 46.0996 29.7696C46.229 29.5735 46.2671 29.3257 46.4504 29.1559C46.4892 29.1193 46.4931 29.0441 46.5249 28.9502ZM44.0428 31.518C43.9294 31.6663 44.0164 31.6692 44.1272 31.6985C44.2368 31.7463 44.3427 31.8022 44.4438 31.866C44.5632 31.9169 44.6858 31.9598 44.811 31.9943C44.9662 32.0393 45.076 32.0249 45.135 31.8268C45.1995 31.6621 45.2902 31.5088 45.4036 31.373C45.5843 31.1243 45.5328 30.9556 45.2504 30.8402C45.1519 30.7998 45.0611 30.7414 44.9665 30.6911C44.6568 30.5207 44.585 30.5471 44.4291 30.8659C44.3818 30.9595 44.3208 31.0457 44.248 31.1213C44.2288 31.1402 44.2057 31.1547 44.1804 31.1638C44.155 31.1729 44.1279 31.1764 44.1011 31.174C43.8905 31.1294 43.8862 31.1795 44.0087 31.3368C44.0352 31.3751 44.0275 31.4585 44.0395 31.5178L44.0428 31.518ZM44.6048 33.1119C44.5602 33.0677 44.5231 33.007 44.4706 32.9858C44.2081 32.8748 43.943 32.7721 43.6752 32.6775C43.6439 32.6658 43.5644 32.712 43.544 32.7495C43.407 33.0273 43.2782 33.309 43.1478 33.5906C43.1357 33.6081 43.1279 33.6282 43.125 33.6493C43.1221 33.6704 43.1242 33.6918 43.1312 33.712C43.1381 33.7321 43.1497 33.7503 43.1649 33.7651C43.1802 33.7799 43.1988 33.7909 43.2191 33.7972C43.4501 33.8999 43.6811 34.0042 43.9181 34.0887C43.9565 34.0997 43.9969 34.1015 44.036 34.094C44.0752 34.0864 44.112 34.0697 44.1434 34.0452C44.3619 33.78 44.4188 33.4308 44.6015 33.1117L44.6048 33.1119ZM43.9794 30.5204C43.979 30.414 43.9466 30.3103 43.8862 30.2227C43.8259 30.1352 43.7405 30.0679 43.6412 30.0298C43.5312 29.9854 43.4118 29.9608 43.3019 29.9131C43.0707 29.8138 43.071 29.8087 42.9271 30.0276C42.8828 30.0976 42.8448 30.1714 42.8132 30.248C42.7157 30.4776 42.6215 30.7057 42.5305 30.9391C42.5224 30.9679 42.5212 30.9983 42.527 31.0277C42.5327 31.0571 42.5452 31.0848 42.5635 31.1085C42.6353 31.1723 42.7239 31.2142 42.8188 31.2292C42.9744 31.2176 43.1294 31.2587 43.2587 31.3461C43.2683 31.355 43.3598 31.3045 43.3803 31.2653C43.4974 31.0468 43.6032 30.8193 43.7203 30.6007C43.7352 30.573 43.8271 30.5476 43.843 30.5635C43.9412 30.6726 43.9702 30.6322 43.976 30.5202L43.9794 30.5204ZM41.6429 33.0288C41.6591 33.1051 41.6543 33.1971 41.6852 33.2138C41.8492 33.3025 42.0246 33.3681 42.2066 33.4088C42.2768 33.4125 42.3959 33.3147 42.4488 33.2337C42.5967 33.0033 42.7267 32.762 42.8535 32.5188C42.8681 32.4921 42.8769 32.4627 42.8796 32.4324C42.8823 32.4021 42.8787 32.3715 42.869 32.3427C42.8594 32.3139 42.8438 32.2874 42.8235 32.2648C42.8031 32.2422 42.7783 32.2241 42.7506 32.2116C42.5823 32.1197 42.407 32.0416 42.2262 31.9778C42.1949 31.977 42.164 31.9839 42.136 31.9979C42.1081 32.012 42.084 32.0327 42.0661 32.0583C41.9984 32.1831 41.9389 32.3121 41.8882 32.4447C41.8007 32.643 41.7199 32.84 41.6396 33.0286L41.6429 33.0288ZM42.2743 35.5402C42.3292 35.6118 42.3703 35.723 42.4317 35.7362C42.595 35.7762 42.7458 35.8561 42.8705 35.9688C43.0105 36.0818 43.1153 36.0655 43.2083 35.9228C43.3468 35.7147 43.4702 35.4971 43.5778 35.2714C43.6697 35.0851 43.6408 35.0618 43.454 34.9782C43.2164 34.8719 42.9302 34.8954 42.7204 34.7067C42.7092 34.6961 42.6112 34.7429 42.594 34.7822C42.481 35.0194 42.3829 35.2591 42.2743 35.5402ZM44.776 28.0537C44.7685 28.0346 44.7593 28.0161 44.7487 27.9986C44.7183 27.9476 44.6752 27.9052 44.6237 27.8757C44.5722 27.8461 44.514 27.8302 44.4546 27.8297C44.3952 27.8291 44.3366 27.8438 44.2846 27.8723C44.2325 27.9009 44.1886 27.9423 44.1571 27.9927L43.5953 28.8587C43.4896 29.0208 43.4993 29.0582 43.6659 29.1105C43.7913 29.1506 43.9169 29.1857 44.0402 29.2324C44.1635 29.2791 44.2525 29.2435 44.3054 29.0988C44.3746 28.8978 44.4768 28.7087 44.5658 28.5138C44.626 28.356 44.696 28.2054 44.7679 28.0482L44.776 28.0537ZM48.5029 28.4502C48.5065 28.1321 48.4448 27.8167 48.3217 27.5235C48.3002 27.4855 48.2609 27.4365 48.2274 27.4347C48.194 27.4329 48.1479 27.4808 48.1325 27.5186C48.0444 27.7269 47.9581 27.9353 47.8799 28.1475C47.7918 28.3877 47.8011 28.4017 48.0375 28.5633C48.0746 28.5904 48.1044 28.6305 48.1433 28.656C48.2293 28.7108 48.3189 28.7608 48.4067 28.8123C48.4353 28.7149 48.4656 28.6176 48.4925 28.52C48.4951 28.495 48.4959 28.4698 48.4948 28.4447L48.5029 28.4502ZM38.8206 40.4264L38.8221 40.398C38.8686 40.4026 38.9147 40.4106 38.96 40.422C39.074 40.4548 39.1878 40.4893 39.2998 40.5287C39.685 40.6645 39.7875 40.5978 39.7915 40.2006C39.7921 40.1889 39.803 40.1728 39.7933 40.1672C39.7699 40.1325 39.746 40.0775 39.7161 40.0726C39.3343 39.9989 38.9568 39.9708 38.6087 40.1823C38.5064 40.2456 38.5052 40.3328 38.6165 40.3839C38.6794 40.4047 38.7447 40.4171 38.8108 40.4209L38.8206 40.4264ZM41.6676 41.134C41.7241 41.1118 41.8386 41.0692 41.9571 41.0167C41.9687 41.0057 41.9774 40.9919 41.9823 40.9766C41.9872 40.9613 41.9882 40.9451 41.9851 40.9293C41.8685 40.7874 41.8827 40.5483 41.6475 40.4924C41.5349 40.4563 41.4252 40.4119 41.3191 40.3595C41.2798 40.4698 41.2388 40.58 41.2013 40.6887C41.0963 40.9967 41.1024 41.0071 41.4085 41.0852C41.4633 41.0965 41.5233 41.103 41.6578 41.1285L41.6676 41.134ZM44.5458 35.3909C44.4755 35.4208 44.376 35.4307 44.3481 35.4829C44.262 35.6113 44.1886 35.7479 44.1289 35.8906C44.0623 36.0413 44.2315 36.0133 44.2868 36.0766C44.2978 36.0906 44.3721 36.0811 44.3721 36.0811C44.3965 35.8392 44.6312 35.8716 44.767 35.7764C44.8433 35.7325 44.9232 35.6952 45.0059 35.6649C44.9358 35.6058 44.8626 35.5504 44.7866 35.4991C44.7059 35.4553 44.6221 35.4173 44.536 35.3854L44.5458 35.3909ZM41.5679 34.6212L41.6124 34.7644C41.6743 34.7153 41.7331 34.6624 41.7884 34.6059C41.8184 34.5756 41.8617 34.5175 41.8514 34.4902C41.8203 34.4114 41.7824 34.3037 41.7166 34.2785C41.6166 34.2364 41.5909 34.3424 41.5781 34.4255C41.5627 34.4633 41.5643 34.4969 41.5581 34.6156L41.5679 34.6212ZM45.4661 27.0133C45.4171 26.9872 45.3867 26.9605 45.3745 26.9683C45.2603 27.0258 45.1508 27.0924 45.0472 27.1674C45.0332 27.1895 45.0252 27.2148 45.0238 27.2408C45.0225 27.2669 45.0278 27.2929 45.0394 27.3163C45.0661 27.3495 45.1672 27.3732 45.1866 27.3541C45.2825 27.2435 45.3725 27.1279 45.4563 27.0078L45.4661 27.0133Z" fill="currentColor"></path>
<path d="M47.0164 67.312C46.9573 66.9031 47.2065 66.564 47.1834 66.1721C47.1604 65.7802 47.1969 65.4032 47.212 65.0183C47.2257 64.7575 47.2544 64.4974 47.253 64.2374C47.2554 63.6792 47.241 63.1217 47.2352 62.5597C47.2406 62.4577 47.246 62.354 47.2515 62.2503C47.2569 62.1467 47.2454 62.0136 47.2347 61.8973C47.2094 61.6126 47.1808 61.3278 47.1503 61.0445C47.1434 60.9864 47.1295 60.9294 47.1089 60.8746C47.0945 60.8303 47.053 60.7895 47.0536 60.746C47.0576 60.2213 46.8236 59.7278 46.8478 59.2026C46.8515 59.1323 46.8796 59.0751 46.7918 59.0236C46.743 58.9942 46.7226 58.9026 46.7061 58.8347C46.5532 58.2122 46.3383 57.6066 46.0647 57.027C45.8031 56.4516 45.4519 55.9217 45.2091 55.3406C45.1992 55.3064 45.1821 55.2747 45.1589 55.2477C45.1357 55.2208 45.107 55.1991 45.0747 55.1842C45.0424 55.1693 45.0073 55.1615 44.9717 55.1614C44.9361 55.1613 44.9009 55.1689 44.8685 55.1836C44.4546 55.2769 44.0472 55.3973 43.649 55.5439C43.2619 55.669 42.868 55.772 42.4692 55.8526C42.1291 55.9438 41.808 56.0544 41.479 56.1579C41.4556 56.1566 41.4325 56.1806 41.4108 56.1795C41.1273 56.1956 40.8453 56.2313 40.5668 56.2861C40.3039 56.3109 40.0284 56.32 39.7577 56.3343C39.297 56.3588 38.8353 56.4016 38.3723 56.4059C37.9663 56.4097 37.5606 56.3767 37.1543 56.3538C36.8567 56.3382 36.5574 56.3225 36.2608 56.2868C35.9155 56.252 35.786 56.324 35.6663 56.6547C35.6348 56.7453 35.6213 56.8419 35.598 56.9345C35.5747 57.0272 35.5882 57.1218 35.5302 57.1725C35.3004 57.3985 35.2925 57.7083 35.1921 57.9931C35.1078 58.2268 34.8889 58.435 34.8753 58.6623C34.8527 58.9037 34.7899 59.1395 34.6895 59.3602C34.5606 59.6754 34.461 60.0089 34.3044 60.3092C34.0922 60.7424 34.0238 61.2167 33.8201 61.6487C33.7895 61.7241 33.7761 61.8053 33.7808 61.8864C33.7885 62.0547 33.7306 62.2194 33.6192 62.3458C33.5445 62.4247 33.5035 62.5296 33.5049 62.6383C33.5598 62.8709 33.458 63.0533 33.3904 63.256C33.3228 63.4587 33.3377 63.654 33.2907 63.8461C33.2224 64.1259 33.1211 64.3956 33.0496 64.6718C32.9652 65.0028 32.8657 65.3329 32.9493 65.6894C32.9548 65.7376 32.9476 65.7863 32.9285 65.8309C32.7793 66.4201 32.7141 67.0275 32.735 67.635C32.7379 68.0013 32.6576 68.3634 32.5001 68.6941C32.4676 68.756 32.4491 68.8243 32.446 68.8942C32.4441 69.154 32.4741 69.4138 32.4556 69.6711C32.4302 70.156 32.3696 70.6391 32.3176 71.121C32.2943 71.5268 32.1424 71.9147 31.8839 72.2284C31.5286 72.6088 31.1324 72.9385 30.5701 72.9493C30.3053 72.9534 30.0499 73.0483 29.8467 73.2182C29.7313 73.3034 29.5911 73.3484 29.4476 73.3465C29.0516 73.3801 28.6527 73.3479 28.2672 73.2511C28.1827 73.2316 28.1275 73.2924 28.0732 73.3047C27.8923 73.335 27.7077 73.3367 27.5263 73.3096C27.0827 73.2629 26.6416 73.2012 26.1935 73.1458C26.1684 73.1445 26.1239 73.1623 26.1209 73.1554C26.0178 72.9471 25.8512 73.0223 25.683 73.0319C25.4492 73.0542 25.2136 73.0481 24.9814 73.0135C24.254 72.8888 23.5186 72.8172 22.7809 72.7993C22.5485 72.7749 22.3176 72.7382 22.0891 72.6893C21.7028 72.6372 21.3161 72.5934 20.9229 72.546C20.9062 72.5451 20.8733 72.5317 20.8711 72.5433C20.8332 72.6251 20.7868 72.6797 20.6821 72.6608C20.3881 72.6085 20.0913 72.5762 19.8014 72.509C19.6704 72.4803 19.5775 72.3983 19.4168 72.4888C19.3006 72.5616 19.105 72.5195 18.9447 72.506C18.4254 72.4637 17.9516 72.2578 17.4573 72.0927C17.0657 71.9786 16.6919 71.8106 16.3466 71.5935C16.0661 71.3712 15.8179 71.111 15.609 70.8204C15.273 70.4172 15.2287 69.9185 15.1945 69.4204C15.1981 69.3502 15.1818 69.2789 15.1753 69.2098C15.1689 69.1407 15.154 69.041 15.1529 68.9655C15.2329 68.5728 15.3406 68.1862 15.4751 67.8086C15.507 67.7449 15.5257 67.6755 15.5509 67.6097C15.6419 67.3126 15.789 67.0357 15.9844 66.794C16.194 66.5703 16.2809 66.2545 16.5105 66.0335C16.7401 65.8124 16.9058 65.5931 17.1066 65.3773C17.2666 65.2046 17.5184 65.2312 17.7057 65.1119C17.8566 65.0175 18.0246 64.9458 18.1817 64.8601C18.3997 64.7227 18.6591 64.6662 18.9145 64.7007C18.9776 64.7124 19.0486 64.6691 19.1177 64.661C19.6511 64.5934 20.185 64.5174 20.7191 64.4683C20.8833 64.4783 21.0463 64.5014 21.2068 64.5374C21.7085 64.5637 22.2113 64.5666 22.7112 64.628C23.113 64.6921 23.5109 64.7784 23.9032 64.8867C24.1502 64.9273 24.3923 64.9933 24.6256 65.0838C25.1424 65.3339 25.642 65.6234 26.1511 65.8915C26.319 65.9945 26.4988 66.0765 26.6866 66.1359C26.9248 66.197 27.07 66.3706 27.2493 66.5007C27.4496 66.6708 27.6616 66.8265 27.8839 66.9666C28.2096 67.1513 28.3614 67.4544 28.4943 67.7649C28.5128 67.8136 28.518 67.8664 28.5093 67.9179C28.5006 67.9693 28.4783 68.0174 28.4448 68.0574C28.4113 68.0973 28.3677 68.1276 28.3185 68.1451C28.2694 68.1626 28.2165 68.1666 28.1653 68.1567C28.0116 68.1335 27.8625 68.0867 27.7231 68.0179C27.0175 67.6925 26.3192 67.3541 25.6136 67.0287C25.1373 66.8075 24.6568 66.5996 24.1765 66.39C24.1114 66.3686 24.0441 66.355 23.9758 66.3493C23.9177 66.3378 23.8348 66.352 23.8097 66.3188C23.6153 66.0923 23.3575 66.1157 23.1011 66.114C23.0078 66.1005 22.9167 66.0748 22.8301 66.0377C22.765 66.008 22.6971 65.9848 22.6275 65.9684C22.385 65.959 22.1433 65.9362 21.9033 65.9003C21.532 65.8188 21.1479 65.8842 20.7713 65.8409C20.664 65.8395 20.5569 65.8514 20.4525 65.8762C20.358 65.888 20.2321 65.9536 20.1755 65.9137C19.9344 65.7468 19.7029 65.9426 19.4597 65.9114C19.1755 65.9083 18.8949 65.9753 18.6429 66.1067C18.2763 66.2495 17.9285 66.4368 17.6076 66.6645C17.4154 66.812 17.3203 67.0921 17.1946 67.3135C17.1167 67.457 17.1748 67.6914 16.9188 67.7132C16.8111 67.9759 16.7001 68.2384 16.6007 68.5031C16.5715 68.5804 16.592 68.6703 16.5527 68.7488C16.4249 69.0104 16.3579 69.265 16.5608 69.5222C16.5834 69.5512 16.5941 69.5877 16.5906 69.6243C16.5376 70.1246 16.9079 70.3854 17.1909 70.6803C17.3571 70.8307 17.5609 70.9335 17.7806 70.9778C18.0339 71.0412 18.2736 71.1497 18.4882 71.2983C18.5653 71.3465 18.6568 71.3661 18.7469 71.3538C19.0657 71.3487 19.3856 71.3872 19.7045 71.414C19.7747 71.4177 19.857 71.4472 19.9135 71.425C20.003 71.3908 20.0992 71.3781 20.1945 71.3877C20.2898 71.3974 20.3815 71.4292 20.4623 71.4805C20.5742 71.5183 20.6925 71.5336 20.8104 71.5256C20.9701 71.5165 21.1302 71.5165 21.2899 71.5256C21.443 71.5487 21.5865 71.625 21.7458 71.5612C21.781 71.5528 21.8176 71.5513 21.8534 71.5568C21.9893 71.5555 22.0883 71.7133 22.268 71.6121C22.3595 71.5615 22.532 71.6611 22.67 71.6851C22.8079 71.7091 22.9724 71.7362 23.1242 71.7525C23.2282 71.7806 23.3376 71.7823 23.4425 71.7575C23.7077 71.6255 23.9172 71.7538 24.1417 71.8545C24.2006 71.881 24.3254 71.8993 24.3331 71.8813C24.4424 71.6506 24.6202 71.779 24.7725 71.7836C25.2177 71.7985 25.6661 71.7868 26.1111 71.837C26.4546 71.8751 26.8074 71.798 27.1403 71.9395C27.2309 71.9681 27.3264 71.9771 27.4207 71.9659C27.7183 71.9497 28.0149 71.9216 28.3128 71.9004C28.3601 71.8912 28.4089 71.8938 28.4549 71.9078C28.8942 72.132 29.2923 71.9265 29.7028 71.8055C29.834 71.7463 29.9734 71.7072 30.1163 71.6897C30.4077 71.6966 30.5932 71.485 30.8345 71.392C30.8619 71.38 30.9042 71.342 30.902 71.3201C30.8606 71.0211 31.0862 70.7797 31.0577 70.4613C31.0291 70.1429 31.1496 69.7636 31.1964 69.4139C31.2236 69.2141 31.2376 69.012 31.2564 68.8118C31.2923 68.4146 31.3283 68.0157 31.3659 67.6186C31.3889 67.3716 31.3554 67.115 31.5081 66.8899C31.551 66.7896 31.5632 66.6788 31.5432 66.5715C31.5057 66.0078 31.6514 65.4671 31.7554 64.9226C31.8814 64.2786 32.014 63.6349 32.1913 63.0037C32.2744 62.6979 32.2327 62.3737 32.3787 62.0829C32.4725 61.9036 32.5518 61.7172 32.6159 61.5252C32.7367 61.1392 32.8378 60.7471 32.9471 60.3571C32.9596 60.3012 32.9754 60.246 32.9943 60.1919C33.0951 59.9641 33.2091 59.7404 33.3017 59.5088C33.4938 59.0443 33.6625 58.5753 33.8414 58.1068C33.7292 57.6867 34.1254 57.4862 34.2493 57.169C34.2928 57.024 34.345 56.8816 34.4058 56.7429C34.5079 56.5555 34.6345 56.3793 34.7545 56.2012C34.8091 56.1185 34.8559 56.0572 34.6954 56.0488C34.4619 56.0374 34.235 55.9679 34.0353 55.8466C33.9044 55.7881 33.7645 55.7524 33.6216 55.741C33.3378 55.6859 33.0534 55.6409 32.7694 55.5891C32.7222 55.5807 32.6775 55.5624 32.6381 55.5352C32.1154 55.1423 31.4769 55.0384 30.8867 54.8147C30.8538 54.8029 30.8081 54.8105 30.7841 54.7875C30.2468 54.3217 29.5491 54.1644 28.9408 53.8374C28.8667 53.7972 28.7957 53.7514 28.7284 53.7005C28.5863 53.5958 28.448 53.4829 28.3043 53.3765C28.2406 53.3236 28.1702 53.2793 28.0949 53.2448C27.9306 53.1808 27.9133 53.0307 27.9056 52.8894C27.8943 52.7211 27.6435 52.8371 27.6463 52.6545C27.6536 52.5157 27.6125 52.3727 27.6214 52.234C27.6303 52.0953 27.689 52.0313 27.8176 52.1705C27.862 52.2181 27.922 52.1927 27.9153 52.0968C27.8981 51.8494 27.9402 51.8147 28.1673 51.7998C28.4684 51.782 28.6722 51.9571 28.8915 52.1228C29.2107 52.4004 29.5686 52.6299 29.9541 52.804C30.01 52.8253 30.0871 52.826 30.1186 52.8646C30.3386 53.1142 30.6606 53.1462 30.9357 53.2712C31.0251 53.3056 31.111 53.3482 31.1923 53.3987C31.5608 53.6382 31.9472 53.8491 32.3481 54.0294C32.4726 54.0736 32.5993 54.111 32.7279 54.1415C33.0655 54.2581 33.401 54.383 33.7367 54.5046C33.7467 54.5051 33.7576 54.5208 33.7677 54.5213C34.2889 54.495 34.7396 54.8523 35.2742 54.7948C35.4429 54.7751 35.6407 54.9045 35.8288 54.9311C36.2533 54.9903 36.6805 55.0294 37.1073 55.0753C37.3748 55.1301 37.6498 55.1366 37.9196 55.0944C37.9824 55.0792 38.0584 55.1335 38.1272 55.1321C38.2794 55.14 38.4334 55.1129 38.5863 55.1059C38.6902 55.0987 38.7944 55.0975 38.8984 55.1021C38.9679 55.1184 39.0385 55.13 39.1095 55.1366C39.3048 55.1217 39.4774 55.0285 39.7006 55.1206C39.8648 55.1879 40.1002 55.1097 40.3011 55.085C40.3685 55.0642 40.4339 55.0374 40.4964 55.0047C40.5846 54.9662 40.6781 54.9412 40.7737 54.9304C41.2772 54.9216 41.7463 54.7366 42.236 54.6717C42.779 54.5762 43.3083 54.4147 43.8122 54.1909C44.2183 54.0244 44.6633 53.9487 45.0303 53.6963C45.2336 53.5611 45.2926 53.586 45.4477 53.7953C45.5259 53.9017 45.5833 54.0238 45.665 54.127C45.7372 54.2362 45.8303 54.33 45.939 54.403C46.0075 54.4394 46.068 54.4891 46.117 54.5493C46.166 54.6094 46.2024 54.6788 46.2241 54.7533C46.3049 55.0187 46.4804 55.2451 46.7173 55.3894C46.7417 55.4005 46.7636 55.4166 46.7816 55.4365C46.7996 55.4564 46.8134 55.4798 46.8219 55.5053C46.8305 55.5307 46.8338 55.5577 46.8315 55.5844C46.8292 55.6112 46.8214 55.6372 46.8087 55.6608C46.7895 55.7068 46.8272 55.7876 46.8635 55.8314C46.922 55.9082 46.9879 55.979 47.0603 56.0429C47.1303 56.1008 47.1862 56.1739 47.2237 56.2567C47.2612 56.3394 47.2793 56.4296 47.2768 56.5204C47.2706 56.725 47.3458 56.9237 47.4859 57.073C47.5666 57.1906 47.6309 57.3186 47.6772 57.4536C47.7671 57.6897 47.8417 57.93 47.9248 58.1691C47.9291 58.1801 47.9324 58.1915 47.9347 58.2032C47.9694 58.378 47.987 58.5559 47.9874 58.7341C47.9778 58.9164 48.1882 58.9978 48.1308 59.1977C48.0981 59.373 48.0888 59.5518 48.1029 59.7295C48.0968 59.7987 48.1152 59.8679 48.1547 59.925C48.2211 59.9946 48.2724 60.0771 48.3054 60.1674C48.3385 60.2577 48.3526 60.3539 48.3469 60.4498C48.3527 60.7855 48.4808 61.0941 48.4314 61.4285C48.4136 61.5751 48.5027 61.7307 48.5165 61.884C48.5371 62.1299 48.536 62.3763 48.5416 62.6215C48.5445 62.7893 48.5408 62.9568 48.5454 63.1247C48.5429 63.1715 48.5852 63.2291 48.57 63.2635C48.417 63.5908 48.5717 63.9024 48.5751 64.2212C48.5781 64.389 48.5198 64.5721 48.5122 64.7494C48.4702 65.2058 48.4573 65.6644 48.4738 66.1224C48.4867 66.3482 48.4554 66.5744 48.3819 66.7883C48.2803 67.086 48.2799 67.409 48.3807 67.7071C48.5033 68.0158 48.7372 68.2674 49.0362 68.4122C49.5476 68.7022 50.0892 68.6702 50.6345 68.5345C50.8766 68.4859 51.1084 68.3954 51.3193 68.2669C51.5585 68.1394 51.8099 68.0363 52.0698 67.9591C52.1153 67.9467 52.1598 67.9311 52.203 67.9124C52.5758 67.6788 52.945 67.4483 53.3165 67.2078C53.3373 67.1938 53.352 67.1695 53.3725 67.1622C54.1271 66.9368 54.7223 66.3945 55.4498 66.1107C55.5334 66.0658 55.6129 66.0139 55.6877 65.9555C55.7554 65.9121 55.8314 65.8373 55.8999 65.8408C55.9958 65.8393 56.0903 65.8173 56.1769 65.7761C56.2636 65.7349 56.3403 65.6757 56.4021 65.6023C56.6552 65.3472 56.9813 65.2369 57.2864 65.0785C57.6432 64.9267 57.9918 64.7563 58.3309 64.5682C58.4195 64.5091 58.5058 64.4314 58.586 64.3719C58.7165 64.2546 58.8688 64.164 59.0343 64.1053C59.2508 64.0697 59.3842 63.8268 59.6159 63.8859C59.7448 63.6345 60.051 63.6455 60.2314 63.4671C60.265 63.4337 60.3114 63.4126 60.3467 63.3793C60.5227 63.2208 60.7635 63.2 60.9205 62.9885C61.0983 62.7936 61.3044 62.6263 61.5317 62.4923C61.6307 62.4164 61.7081 62.3158 61.7562 62.2007C61.8043 62.0855 61.8214 61.9598 61.8059 61.836C61.7996 61.668 61.7666 61.4986 61.7703 61.3311C61.7816 60.8924 61.5286 60.5672 61.2797 60.2624C61.1097 60.044 60.8801 59.8794 60.6187 59.7884C60.2189 59.6736 59.8698 59.3602 59.3994 59.4747C59.2126 59.5186 58.9962 59.4251 58.7974 59.4432C58.3441 59.4848 57.8944 59.5552 57.4468 59.6172C57.2706 59.6479 57.1039 59.7189 56.9597 59.8247C56.7605 59.9362 56.5531 60.0324 56.3393 60.1125C55.8943 60.3172 55.4476 60.5219 55.0039 60.7334C54.9235 60.7835 54.8494 60.8432 54.7833 60.9113C54.685 61.0163 54.5743 61.109 54.4536 61.1874C54.0823 61.3625 53.8429 61.6752 53.5748 61.9596C53.252 62.2949 52.9084 62.6122 52.5744 62.9384C52.5144 62.9956 52.4654 63.0669 52.3971 63.122C52.3245 63.2012 52.2382 63.2666 52.1422 63.3149C52.054 63.3364 51.961 63.3274 51.8786 63.2893C51.8568 63.2882 51.8672 63.1546 51.889 63.0903C51.9556 62.7993 52.0457 62.514 52.1584 62.2375C52.3047 61.9503 52.4796 61.6786 52.6805 61.4265C52.8859 61.1617 53.1091 60.9113 53.3486 60.6768C53.6338 60.3878 53.9353 60.1153 54.2515 59.8606C54.4893 59.6752 54.6879 59.4039 55.037 59.3987C55.0538 59.3952 55.0695 59.3876 55.0826 59.3766C55.0958 59.3656 55.106 59.3515 55.1124 59.3355C55.1504 59.1866 55.275 59.1764 55.3908 59.1422C55.6519 59.0641 55.8996 58.9465 56.1251 58.7934C56.4894 58.6162 56.8696 58.4738 57.2608 58.3683C57.3962 58.3214 57.5369 58.2911 57.6797 58.2779C58.1023 58.2447 58.5176 58.0938 58.9493 58.1768C59.044 58.1935 59.1416 58.1869 59.2363 58.2019C59.6415 58.2466 60.0528 58.2682 60.4493 58.3493C60.6845 58.4213 60.9106 58.5204 61.123 58.6445C61.2865 58.7251 61.4587 58.8298 61.633 58.8959C62.1931 59.1181 62.5134 59.5658 62.7804 60.0711C62.9105 60.323 63.0263 60.5821 63.127 60.8472C63.18 60.9586 63.2101 61.0796 63.2154 61.2028C63.2208 61.3261 63.2013 61.4492 63.1582 61.5648C63.1315 61.6161 63.1154 61.6723 63.1109 61.73C63.1075 62.1391 62.9908 62.5393 62.7737 62.8861C62.6338 63.1701 62.4276 63.4164 62.1726 63.6041C61.9105 63.7918 61.6259 63.9459 61.3253 64.0627C61.1007 64.1694 60.8845 64.2932 60.6788 64.433C60.3488 64.6186 60.0157 64.7989 59.6842 64.9811C59.4396 64.9146 59.3674 65.1707 59.1957 65.2473C59.0295 65.3382 58.8681 65.4377 58.7123 65.5456C58.6 65.6084 58.4532 65.6259 58.3684 65.7086C58.1924 65.8671 57.9299 65.8533 57.7492 66.0367C57.5933 66.1962 57.3349 66.2631 57.1169 66.3607C56.8988 66.4583 56.6549 66.5377 56.4313 66.6451C56.0545 66.8265 55.6853 67.0252 55.3116 67.2135C55.2149 67.2617 55.1146 67.3024 55.0117 67.3353C54.7383 67.4223 54.4794 67.55 54.244 67.7142C53.8495 67.9786 53.4162 68.184 53.0093 68.4309C52.5487 68.7086 52.0817 68.9809 51.6476 69.2968C51.2984 69.5719 50.8921 69.7652 50.4584 69.8626C50.0247 69.96 49.5747 69.959 49.1415 69.8597C48.8242 69.9303 48.624 69.6867 48.3945 69.5556C48.1143 69.3763 47.8495 69.174 47.6029 68.9508C47.5191 68.8846 47.4483 68.8036 47.3941 68.7118C47.2743 68.5036 47.168 68.288 47.0758 68.0663C47.0151 67.9512 46.9785 67.8249 46.9683 67.6952C46.9581 67.5655 46.9744 67.4351 47.0164 67.312Z" fill="currentColor"></path>
<path d="M39.8121 26.4117C39.7836 26.764 39.7038 26.8788 39.3438 26.9002C39.0428 26.9163 38.7281 26.9702 38.4308 26.8524C38.3864 26.835 38.3381 26.7972 38.2991 26.8052C37.7656 26.9081 37.2784 26.6679 36.7689 26.6009C36.524 26.5697 36.2766 26.555 36.0315 26.5288C35.9608 26.5332 35.8901 26.5203 35.8255 26.4912C35.5571 26.3068 35.2573 26.1729 34.9408 26.096C34.6303 26.006 34.4272 25.7539 34.1242 25.681C34.0602 25.6559 33.9936 25.6378 33.9258 25.627C33.7736 25.619 33.7301 25.6821 33.7845 25.8275C33.8254 25.942 33.8801 26.0505 33.9346 26.1623C33.9452 26.1847 33.966 26.2042 33.9698 26.2262C34.0063 26.5459 34.1418 26.8461 34.3574 27.0849C34.488 27.2661 34.6612 27.4122 34.8616 27.5104C34.9132 27.5346 34.9553 27.5751 34.9814 27.6257C35.0201 27.7124 35.0813 27.7873 35.1585 27.8426C35.2358 27.8979 35.3263 27.9317 35.4209 27.9405C35.4933 27.9478 35.5609 27.9798 35.6124 28.031C35.8393 28.3414 36.2328 28.3184 36.5254 28.4947C36.6376 28.561 36.8007 28.4253 36.9473 28.5722C37.0081 28.6062 37.0755 28.6267 37.1449 28.6323C37.2143 28.638 37.2841 28.6287 37.3496 28.605C37.474 28.5679 37.5126 28.6957 37.6126 28.6741C37.6856 28.6578 37.7782 28.7146 37.8434 28.6862C37.9447 28.6519 38.054 28.6484 38.1573 28.6762C38.2606 28.704 38.3533 28.7619 38.4238 28.8424C38.7252 29.1063 38.7253 29.1046 38.4564 29.3722C38.3298 29.5157 38.1579 29.6114 37.9693 29.6435C37.77 29.67 37.5806 29.7657 37.3827 29.7989C37.2204 29.8156 37.057 29.8172 36.8945 29.8035C36.7089 29.7837 36.5225 29.7739 36.336 29.7742C36.0684 29.7921 35.87 29.6425 35.6527 29.5339C35.566 29.4924 35.4903 29.4331 35.3999 29.3982C35.07 29.268 34.7549 29.103 34.4598 28.9062C33.9104 28.5339 33.4431 28.0529 33.0869 27.4929C32.8382 27.1176 32.7397 26.6933 32.5317 26.3118C32.476 26.22 32.4549 26.1112 32.4723 26.0052C32.5474 25.756 32.4486 25.5294 32.4274 25.2936C32.4043 25.1789 32.4071 25.0604 32.4355 24.9469C32.5602 24.6483 32.6107 24.3239 32.8881 24.0869C33.1654 23.85 33.4718 23.9231 33.7497 24.0282C33.9946 24.1215 34.2758 24.1949 34.4281 24.4561C34.4465 24.4889 34.5153 24.4891 34.5578 24.5098C34.7326 24.5978 34.9091 24.6859 35.082 24.7771C35.1474 24.809 35.2025 24.8773 35.2675 24.8857C35.8873 24.9601 36.4042 25.3679 37.0303 25.4191C37.1685 25.4442 37.3098 25.4476 37.449 25.4293C37.5718 25.4 37.6994 25.3977 37.8231 25.4224C37.9469 25.4471 38.0638 25.4983 38.1659 25.5725C38.27 25.651 38.3994 25.6882 38.5293 25.6771C38.7726 25.6578 39.017 25.656 39.2606 25.6718C39.3447 25.6721 39.4269 25.6971 39.4969 25.7437C39.5669 25.7903 39.6217 25.8564 39.6544 25.9339C39.7127 26.0996 39.8788 26.2274 39.8121 26.4117Z" fill="currentColor"></path>
<path d="M47.1164 15.585C47.0058 15.9683 47.1195 16.3901 46.9537 16.7704C46.9352 16.802 46.9264 16.8382 46.9281 16.8747C47.0219 17.2284 46.8318 17.5286 46.7463 17.8478C46.6608 18.1669 46.601 18.4773 46.4914 18.7767C46.331 19.2127 46.1525 19.6427 45.9545 20.0615C45.7303 20.5327 45.5876 21.0484 45.2361 21.4508C45.1948 21.9517 44.875 22.3273 44.7079 22.7646C44.5875 23.0247 44.4539 23.2785 44.3075 23.525C44.2302 23.6886 44.1729 23.8533 44.1061 24.0074C44.0772 24.0958 44.0379 24.1804 43.989 24.2595C43.9679 24.2837 43.9414 24.3025 43.9116 24.3144C43.8818 24.3262 43.8496 24.3308 43.8177 24.3276C43.3692 24.2152 43.2196 24.0297 43.1526 23.5483C43.0856 23.0669 43.0217 22.6225 43.1449 22.1595C43.1522 22.1159 43.1545 22.0715 43.1519 22.0274C43.1611 21.8518 43.1435 21.6748 43.1627 21.5015C43.1903 21.287 43.2289 21.0741 43.2783 20.8636C43.3154 20.6979 43.3856 20.6714 43.5293 20.7762C43.5665 20.8033 43.5856 20.8546 43.6228 20.88C43.6415 20.8952 43.6641 20.905 43.688 20.9082C43.7119 20.9114 43.7362 20.9079 43.7582 20.8981C43.7803 20.8883 43.7992 20.8726 43.8129 20.8527C43.8265 20.8329 43.8344 20.8096 43.8357 20.7855C43.8428 20.6918 43.8433 20.5977 43.837 20.5039C43.8379 20.4872 43.8187 20.4694 43.8079 20.4521C43.6453 20.6112 43.6663 20.3692 43.5884 20.3534C43.3825 20.3141 43.429 20.1941 43.4764 20.0574C43.6887 19.4632 43.8631 18.8536 44.1147 18.2766C44.3208 17.7994 44.4716 17.2892 44.7726 16.8573C44.8639 16.7203 44.9319 16.5692 44.9738 16.4101C45.0169 16.2598 45.023 16.1108 45.2104 16.0552C45.2411 16.0451 45.2173 15.9232 45.257 15.8699C45.4396 15.5844 45.6056 15.2979 45.8044 15.0233C45.8548 14.9554 45.9232 14.9028 46.0019 14.8717C46.0805 14.8406 46.1663 14.8321 46.2496 14.8471C46.498 14.8723 46.7346 14.9659 46.933 15.1177C47.0662 15.2303 47.1865 15.3674 47.1164 15.585ZM43.8068 22.937L43.7611 22.9447L43.8314 23.3307C43.8767 23.2022 43.922 23.0739 43.9657 22.9437C43.9736 22.9211 43.9749 22.8967 43.9694 22.8734C43.9489 22.7852 43.9247 22.7034 43.9028 22.6084C43.8715 22.6939 43.8372 22.7726 43.8071 22.8666C43.8045 22.89 43.8044 22.9136 43.8068 22.937Z" fill="currentColor"></path>
<path d="M35.506 21.4238C35.3701 21.3932 35.2755 21.3748 35.1745 21.3511C35.1192 21.3404 35.0669 21.3175 35.0215 21.2842C34.9761 21.2509 34.9385 21.208 34.9116 21.1585C34.8848 21.109 34.8691 21.0542 34.8659 20.998C34.8627 20.9418 34.872 20.8855 34.8931 20.8333C34.9547 20.6169 34.9816 20.3919 35.0502 20.1708C35.1373 19.8593 35.2502 19.5556 35.3879 19.2629C35.4629 19.1109 35.4313 18.851 35.7006 18.8316C35.7006 18.8316 35.7158 18.7972 35.711 18.7936C35.5502 18.661 35.7239 18.5461 35.7509 18.4469C35.8525 18.1686 35.9732 17.8975 36.112 17.6358C36.2375 17.3858 36.3087 17.3694 36.5768 17.4707C36.6787 17.5096 36.744 17.4794 36.7496 17.3724C36.7552 17.2654 36.8188 17.1715 36.6494 17.1727C36.6013 17.1752 36.5531 17.1727 36.5056 17.1651C36.4392 17.1516 36.3936 17.1257 36.4365 17.0441C36.6033 16.7393 36.7637 16.4308 36.9339 16.1278C36.9819 16.0432 37.0225 15.9078 37.1773 15.9947C37.1873 15.9952 37.2635 15.9171 37.2604 15.9119C37.0902 15.6716 37.3449 15.5474 37.4139 15.3834C37.5001 15.2148 37.6069 15.0576 37.7318 14.9154C37.7714 14.8566 37.8267 14.8101 37.8915 14.7813C37.937 14.7688 37.9786 14.7451 38.0126 14.7123C38.0465 14.6795 38.0717 14.6386 38.0857 14.5936C38.1271 14.4767 38.2029 14.3734 38.3609 14.4621C38.3609 14.4621 38.4124 14.3759 38.4518 14.3596C38.5067 14.3447 38.5636 14.3386 38.6204 14.3416C38.6026 14.2892 38.588 14.2358 38.5768 14.1817C38.564 14.1045 38.5706 14.0254 38.5962 13.9514C38.6217 13.8775 38.6653 13.8112 38.7231 13.7584C38.9816 13.497 39.2226 13.2178 39.486 12.96C39.6291 12.8189 39.7906 12.6977 39.966 12.5995C40.0317 12.5589 40.1078 12.5381 40.185 12.5396C40.2623 12.5412 40.3375 12.565 40.4016 12.6081C40.4657 12.6513 40.516 12.7121 40.5464 12.7831C40.5769 12.8541 40.5862 12.9324 40.5733 13.0086C40.4669 13.5681 40.5011 14.1635 40.1824 14.6766C40.127 14.7966 40.0839 14.9219 40.0538 15.0505C40.0355 15.1451 39.9971 15.2346 39.9411 15.3129C39.7366 15.5034 39.7274 15.7763 39.6165 16.0035C39.4275 16.4111 39.1841 16.7991 38.9753 17.2006C38.7892 17.5514 38.535 17.86 38.3749 18.2256C38.3117 18.3271 38.2433 18.4254 38.17 18.52C38.0536 18.7252 37.8714 18.8749 37.7817 19.115C37.671 19.3429 37.5064 19.5403 37.3022 19.6902C37.1362 19.8535 36.9929 20.0383 36.876 20.2396C36.5832 20.6276 36.2383 20.9734 35.8513 21.2675C35.7442 21.3356 35.6279 21.3883 35.506 21.4238Z" fill="currentColor"></path>
<path d="M60.9083 61.5625C60.8443 61.651 60.7726 61.7336 60.6942 61.8095C60.6766 61.8253 60.5954 61.7742 60.5465 61.7481C60.3284 61.6223 60.0808 61.5568 59.8291 61.5584C59.5773 61.5599 59.3305 61.6284 59.114 61.7569C58.8162 61.8846 58.512 61.9968 58.2027 62.0931C57.8483 62.2321 57.4985 62.3798 57.1564 62.5413C56.8968 62.6556 56.6496 62.7961 56.4184 62.9604C56.1006 63.202 55.712 63.3526 55.4373 63.635C55.1238 63.954 54.7235 64.1376 54.373 64.3942C53.965 64.6931 53.571 65.0128 53.1659 65.3185C52.9628 65.4833 52.747 65.6318 52.5206 65.7626C52.3607 65.8361 52.1874 65.8756 52.0115 65.8784C51.9696 65.8777 51.9285 65.8673 51.8914 65.848C51.8543 65.8287 51.8221 65.8011 51.7974 65.7674C51.7727 65.7336 51.7562 65.6946 51.7491 65.6534C51.742 65.6121 51.7445 65.5698 51.7564 65.5297C51.7914 65.4138 51.8429 65.3035 51.9094 65.2024C52.2318 64.681 52.7206 64.3126 53.131 63.873C53.4079 63.5908 53.7225 63.3482 54.0659 63.1523C54.3951 62.9158 54.7035 62.6515 54.9876 62.3623C55.0812 62.2575 55.1857 62.1629 55.2992 62.0801C55.7774 61.8168 56.2664 61.5741 56.7493 61.3177C56.908 61.2338 57.0484 61.1137 57.2113 61.0451C57.3742 60.9765 57.5946 60.8976 57.7844 60.8287C57.9905 60.7642 58.2023 60.7191 58.4168 60.6942C58.4404 60.6938 58.4638 60.6899 58.4862 60.6827C59.0028 60.4247 59.5304 60.5312 60.0591 60.6176C60.35 60.6664 60.5375 60.864 60.7405 61.0523C60.8349 61.1395 60.6152 61.2353 60.7861 61.3029C60.8475 61.3464 60.8707 61.4801 60.9083 61.5625Z" fill="currentColor"></path>
<path d="M36.5127 31.6179C36.5157 31.6705 36.5063 31.723 36.4852 31.7712C36.4641 31.8195 36.4319 31.862 36.3913 31.8955C36.3507 31.929 36.3027 31.9524 36.2514 31.9639C36.2 31.9754 36.1466 31.9746 36.0956 31.9616C35.551 31.8627 35.012 31.7354 34.4807 31.5802C34.4008 31.5578 34.3307 31.5093 34.2817 31.4423C34.1839 31.2941 34.0973 31.1388 34.0227 30.9777C34.0016 30.9359 33.9895 30.8902 33.9871 30.8434C33.9848 30.7967 33.9923 30.75 34.0091 30.7063C34.0259 30.6626 34.0517 30.623 34.0848 30.5899C34.1179 30.5568 34.1576 30.531 34.2012 30.5142C34.3397 30.4395 34.5018 30.4215 34.6532 30.4641C34.9372 30.5477 35.2164 30.6468 35.4895 30.7611C35.7218 30.8706 35.9831 30.9412 36.2175 31.0759C36.318 31.123 36.4009 31.201 36.454 31.2985C36.5071 31.396 36.5277 31.5079 36.5127 31.6179Z" fill="currentColor"></path>
</svg>