<svg xmlns="http://www.w3.org/2000/svg" width="100%" height="100%" viewBox="0 0 17 17" fill="none" preserveAspectRatio="xMidYMid meet" aria-hidden="true" role="img">
<path d="M1.83203 6.25V3.58334C1.83203 3.22971 1.97251 2.89058 2.22256 2.64053C2.4726 2.39048 2.81174 2.25 3.16536 2.25H5.76536C5.98836 2.24782 6.20833 2.3016 6.40516 2.40642C6.60199 2.51124 6.76939 2.66375 6.89203 2.85L7.43203 3.65C7.55344 3.83436 7.71872 3.98568 7.91303 4.09041C8.10735 4.19513 8.32463 4.24997 8.54536 4.25H13.832C14.1857 4.25 14.5248 4.39048 14.7748 4.64053C15.0249 4.89058 15.1654 5.22971 15.1654 5.58334V12.25C15.1654 12.6036 15.0249 12.9428 14.7748 13.1928C14.5248 13.4429 14.1857 13.5833 13.832 13.5833H3.16536C2.81174 13.5833 2.4726 13.4429 2.22256 13.1928C1.97251 12.9428 1.83203 12.6036 1.83203 12.25V11.5833M1.83203 8.91667H8.4987M8.4987 8.91667L6.4987 10.9167M8.4987 8.91667L6.4987 6.91667" stroke="currentColor" stroke-width="1.25" stroke-linecap="round" stroke-linejoin="round"></path>
</svg>