<svg xmlns="http://www.w3.org/2000/svg" width="100%" height="100%" viewBox="0 0 517 610" fill="none" preserveAspectRatio="xMidYMid meet" aria-hidden="true" role="img">
<g id="globe" clip-path="url(#clip0_3058_14046)">
<g id="clip-round-bg">
<mask id="mask0_3058_14046" style="mask-type:luminance" maskUnits="userSpaceOnUse" x="-1" y="1" width="517" height="609">
<g id="b">
<path id="Vector" d="M515.5 1.5H-0.5V609.5H515.5V1.5Z" fill="white"></path>
</g>
</mask>
<g mask="url(#mask0_3058_14046)">
<g id="Group">
<path id="Vector_2" d="M115.5 801.5C221.587 801.5 323.328 759.357 398.343 684.343C473.357 609.328 515.5 507.587 515.5 401.5M115.5 801.5C186.224 801.5 254.052 759.357 304.062 684.343C354.072 609.328 382.167 507.587 382.167 401.5C382.167 295.413 354.072 193.672 304.062 118.657C254.052 43.643 186.224 1.5 115.5 1.5M115.5 801.5C9.413 801.5 -92.328 759.357 -167.343 684.343C-242.357 609.328 -284.5 507.587 -284.5 401.5M115.5 801.5C44.776 801.5 -23.052 759.357 -73.062 684.343C-123.072 609.328 -151.167 507.587 -151.167 401.5C-151.167 295.413 -123.072 193.672 -73.062 118.657C-23.052 43.643 44.776 1.5 115.5 1.5M115.5 801.5V1.5M515.5 401.5C515.5 295.413 473.357 193.672 398.343 118.657C323.328 43.643 221.587 1.5 115.5 1.5M515.5 401.5H-284.5M115.5 1.5C9.413 1.5 -92.328 43.643 -167.343 118.657C-242.357 193.672 -284.5 295.413 -284.5 401.5M115.534 801.5C150.896 801.5 184.81 759.357 209.814 684.343C234.819 609.328 248.867 507.587 248.867 401.5C248.867 295.413 234.819 193.672 209.814 118.657C184.81 43.643 150.896 1.5 115.534 1.5M115.466 801.5C80.104 801.5 46.19 759.357 21.186 684.343C-3.81899 609.328 -17.866 507.587 -17.866 401.5C-17.866 295.413 -3.818 193.672 21.186 118.657C46.19 43.643 80.104 1.5 115.466 1.5M-261.624 270.167H492.623M-261.624 534.167H492.623M-182.642 135.833H413.643M-182.642 667.833H413.643" stroke="#84EEA8" stroke-width="3"></path>
</g>
</g>
</g>
<path id="center-to-top" d="M115.5 401.5V135.833H215.21" stroke="#84EEA8" stroke-width="3"></path>
<path id="center-to-tp-small" d="M115.5 401.5V270.167H367.38" stroke="#84EEA8" stroke-width="3"></path>
<path id="random-bottom" d="M115.5 401.5V609.5" stroke="#84EEA8" stroke-width="3"></path>
<path id="random-left" d="M115.5 401.5H-0.5" stroke="#84EEA8" stroke-width="3"></path>
<path id="random-straight-top" d="M115.5 401.5V6.203" stroke="#84EEA8" stroke-width="3"></path>
<path id="bottom-right" d="M115.5 401.5V534.167H367.38" stroke="#84EEA8" stroke-width="3"></path>
</g>
<defs>
<clipPath id="clip0_3058_14046">
<rect width="517" height="610" fill="white"></rect>
</clipPath>
</defs>
</svg>