<svg xmlns="http://www.w3.org/2000/svg" width="100%" height="100%" viewBox="0 0 33 32" fill="none" preserveAspectRatio="xMidYMid meet" aria-hidden="true" role="img">
<path d="M7.11255 25.6C6.117 25.6 5.477 25.0435 5.477 24.1392C5.477 23.5131 6.117 22.9565 6.97033 22.3305C8.10811 21.3565 9.60144 19.8957 9.60144 17.8783C9.60144 16.6957 8.677 16.5565 7.68144 16.2087C5.12144 15.5131 3.69922 13.7739 3.69922 11.4783C3.69922 8.76524 6.04589 6.40002 9.17477 6.40002C12.7303 6.40002 15.3614 9.2522 15.3614 14.0522C15.3614 20.7305 9.67255 25.6 7.11255 25.6ZM21.1214 25.6C20.0548 25.6 19.4859 25.0435 19.4859 24.1392C19.4859 23.5131 20.0548 22.9565 20.9081 22.3305C22.0459 21.3565 23.5392 19.8957 23.5392 17.8783C23.5392 16.6957 22.6148 16.5565 21.6192 16.2087C19.0592 15.5131 17.637 13.7739 17.637 11.4783C17.637 8.76524 19.9837 6.40002 23.1126 6.40002C26.6681 6.40002 29.2992 9.2522 29.2992 14.0522C29.2992 20.7305 23.6103 25.6 21.1214 25.6Z" fill="url(#paint0_linear_848_20592)"></path>
<defs>
<linearGradient id="paint0_linear_848_20592" x1="16.4992" y1="6.40002" x2="16.4992" y2="25.6" gradientUnits="userSpaceOnUse">
<stop stop-color="#6CE49A"></stop>
<stop offset="1" stop-color="#58DF8C"></stop>
</linearGradient>
</defs>
</svg>