<svg width="98" height="28" viewBox="0 0 98 28" fill="none" xmlns="http://www.w3.org/2000/svg">
<path d="M7.587 5.49806C9.495 5.51506 11.317 6.29306 12.65 7.66106V6.31406C12.65 6.19306 12.698 6.07606 12.784 5.98906C12.87 5.90306 12.986 5.85506 13.108 5.85506H14.908C15.159 5.85906 15.365 6.06506 15.365 6.31906V19.0191C15.365 21.6961 14.592 23.8751 13.131 25.3211C11.8 26.6361 9.949 27.3311 7.776 27.3311C6.478 27.3331 5.201 27.0021 4.066 26.3701C3.951 26.3041 3.869 26.1901 3.843 26.0601C3.817 25.9281 3.85 25.7921 3.933 25.6871L5.005 24.3091C5.142 24.1341 5.385 24.0831 5.58 24.1871C6.256 24.5471 7.01 24.7351 7.776 24.7341C11.006 24.7341 12.646 22.8101 12.646 19.0171V18.6581C11.3 19.9981 9.483 20.7541 7.586 20.7641C3.4 20.7591 0.006 17.3591 0 13.1641C0 9.00806 3.474 5.49806 7.587 5.49806ZM56.924 0.671063C57.174 0.673063 57.379 0.879063 57.379 1.13206V20.0741C57.378 20.3271 57.173 20.5321 56.921 20.5331H55.217C54.964 20.5331 54.758 20.3281 54.757 20.0741V18.6511C53.427 20.0691 51.574 20.8801 49.631 20.8931C45.519 20.8931 42.044 17.3841 42.044 13.2291C42.044 9.02906 45.442 5.62306 49.634 5.62006C51.568 5.62806 53.417 6.41806 54.761 7.81006V1.13106C54.761 0.877062 54.967 0.671063 55.221 0.671063H56.924ZM86.247 5.63106C90.295 5.76106 93.589 9.23606 93.589 13.3771V14.0001C93.589 14.2531 93.383 14.4581 93.13 14.4581H81.285C81.838 16.7001 83.78 18.2991 86.002 18.2991C87.478 18.2901 88.867 17.5941 89.759 16.4161L89.827 16.3291H92.238C92.401 16.3281 92.551 16.4141 92.633 16.5541C92.717 16.6961 92.719 16.8711 92.638 17.0151C91.292 19.4181 88.753 20.9021 86.002 20.8931C81.89 20.8931 78.416 17.3841 78.416 13.2291C78.426 11.1741 79.263 9.20906 80.736 7.78006C82.21 6.35006 84.196 5.57506 86.247 5.63106ZM75.188 0.664062C75.31 0.664062 75.427 0.712063 75.513 0.798063C75.599 0.885063 75.647 1.00206 75.647 1.12406V20.0661C75.647 20.3191 75.441 20.5241 75.188 20.5241H73.486C73.232 20.5241 73.027 20.3191 73.026 20.0661V18.6421C71.696 20.0611 69.842 20.8721 67.899 20.8851C63.787 20.8851 60.312 17.3751 60.312 13.2201C60.317 9.02406 63.711 5.62406 67.899 5.62006C69.833 5.62706 71.682 6.41606 73.026 7.81006V1.13006C73.026 0.876063 73.232 0.670063 73.486 0.670063H75.188V0.664062ZM38.37 6.11306C38.623 6.11306 38.829 6.31906 38.829 6.57306V20.3381C38.829 20.4601 38.781 20.5771 38.694 20.6631C38.608 20.7491 38.492 20.7971 38.37 20.7971H36.57C36.448 20.7971 36.332 20.7491 36.245 20.6631C36.159 20.5771 36.111 20.4601 36.111 20.3381V6.57306C36.111 6.31906 36.316 6.11306 36.57 6.11306H38.37ZM31.56 5.85506C31.814 5.85506 32.02 6.06006 32.02 6.31506V20.0831C32.02 20.3371 31.814 20.5431 31.56 20.5431H29.857C29.604 20.5431 29.398 20.3371 29.398 20.0831V19.1511C28.231 20.2121 26.715 20.7691 24.981 20.7691C20.749 20.7691 18.943 18.7991 18.943 14.2001V6.31706C18.943 6.06306 19.148 5.85706 19.402 5.85706H21.106C21.359 5.85706 21.565 6.06306 21.565 6.31706V14.2001C21.565 16.8371 22.713 18.1721 24.981 18.1721C27.831 18.1721 29.398 16.5661 29.398 13.6501V6.31406C29.398 6.06006 29.604 5.85406 29.858 5.85406L31.56 5.85506ZM96.968 17.2671C97.066 17.2671 97.158 17.3061 97.228 17.3751C97.296 17.4441 97.335 17.5371 97.334 17.6351V19.6221C97.334 19.8251 97.17 19.9891 96.968 19.9891H94.984C94.781 19.9891 94.617 19.8251 94.617 19.6221V17.6351C94.617 17.5371 94.656 17.4441 94.724 17.3751C94.793 17.3051 94.886 17.2671 94.984 17.2671H96.968ZM49.57 8.22006C46.872 8.22006 44.761 10.4301 44.761 13.2271C44.761 16.0231 46.921 18.2991 49.57 18.2991C52.267 18.2991 54.632 15.9411 54.632 13.2271C54.632 10.5121 52.314 8.22006 49.57 8.22006ZM67.836 8.22606C65.14 8.22606 63.028 10.4301 63.028 13.2261C63.028 16.0231 65.188 18.2991 67.836 18.2991C70.531 18.2991 72.9 15.9471 72.9 13.2331C72.9 10.5191 70.58 8.22606 67.836 8.22606ZM7.522 8.09306C4.869 8.09306 2.714 10.3561 2.714 13.1641C2.714 15.9731 4.828 18.1711 7.522 18.1711C10.267 18.1711 12.585 15.8661 12.585 13.1641C12.585 10.4621 10.22 8.09306 7.522 8.09306ZM86.002 8.22206C83.764 8.22206 81.864 9.73406 81.29 11.9321H90.715C90.143 9.76606 88.205 8.22206 86.002 8.22206ZM38.461 1.29406C38.663 1.29406 38.827 1.45906 38.828 1.66206V3.64906C38.828 3.85306 38.664 4.01706 38.461 4.01706H36.477C36.38 4.01706 36.287 3.97906 36.217 3.91006C36.148 3.84006 36.11 3.74706 36.11 3.65006V1.66106C36.11 1.45806 36.274 1.29306 36.477 1.29306L38.461 1.29406Z" fill="white"/>
</svg>
