<svg xmlns="http://www.w3.org/2000/svg" width="100%" height="100%" viewBox="0 0 15 15" fill="none" preserveAspectRatio="xMidYMid meet" aria-hidden="true" role="img">
<g clip-path="url(#clip0_1722_5328)">
<path d="M1.52717 10.498C1.10032 8.4836 1.10032 6.40208 1.52717 4.38765C1.58326 4.18308 1.69163 3.99663 1.84162 3.84664C1.99161 3.69665 2.17806 3.58829 2.38263 3.5322C5.6599 2.98927 9.00417 2.98927 12.2814 3.5322C12.486 3.58829 12.6725 3.69665 12.8224 3.84664C12.9724 3.99663 13.0808 4.18308 13.1369 4.38765C13.5637 6.40208 13.5637 8.4836 13.1369 10.498C13.0808 10.7026 12.9724 10.889 12.8224 11.039C12.6725 11.189 12.486 11.2974 12.2814 11.3535C9.00418 11.8965 5.65989 11.8965 2.38263 11.3535C2.17806 11.2974 1.99161 11.189 1.84162 11.039C1.69163 10.889 1.58326 10.7026 1.52717 10.498Z" stroke="#D13B50" stroke-width="1.25" stroke-linecap="round" stroke-linejoin="round"></path>
<path d="M6.10996 9.27595L9.16514 7.44284L6.10996 5.60973V9.27595Z" stroke="#D13B50" stroke-width="1.25" stroke-linecap="round" stroke-linejoin="round"></path>
</g>
<defs>
<clipPath id="clip0_1722_5328">
<rect width="14" height="14" fill="white" transform="translate(0.332031 0.5)"></rect>
</clipPath>
</defs>
</svg>