<svg xmlns="http://www.w3.org/2000/svg" width="100%" height="100%" viewBox="0 0 19 19" fill="none" preserveAspectRatio="xMidYMid meet" aria-hidden="true" role="img">
<path d="M13.4187 5.37202H13.4259M6.125 2.16577H12.875C14.8425 2.16577 16.625 3.94826 16.625 5.91577V12.6658C16.625 14.6333 14.8425 16.4158 12.875 16.4158H6.125C4.15749 16.4158 2.375 14.6333 2.375 12.6658V5.91577C2.375 3.94826 4.15749 2.16577 6.125 2.16577ZM12.35 8.8419C12.4379 9.43487 12.3366 10.0405 12.0606 10.5726C11.7845 11.1047 11.3476 11.5362 10.8122 11.8057C10.2767 12.0752 9.66989 12.169 9.07805 12.0737C8.4862 11.9785 7.93945 11.6991 7.51557 11.2752C7.09169 10.8513 6.81226 10.3046 6.71702 9.71272C6.62179 9.12088 6.7156 8.51407 6.98511 7.97861C7.25462 7.44315 7.68611 7.00631 8.2182 6.73022C8.7503 6.45413 9.3559 6.35284 9.94888 6.44077C10.5537 6.53046 11.1137 6.81231 11.5461 7.24469C11.9785 7.67707 12.2603 8.23704 12.35 8.8419Z" stroke="currentColor" stroke-width="1.25" stroke-linecap="round" stroke-linejoin="round"></path>
</svg>