<svg xmlns="http://www.w3.org/2000/svg" width="100%" height="100%" viewBox="0 0 17 16" fill="#29a36e" preserveAspectRatio="xMidYMid meet" aria-hidden="true" role="img">
<path d="M4.25736 12.2427C1.91421 9.89952 1.91421 6.10053 4.25736 3.75739M12.7426 3.75739C15.0858 6.10053 15.0858 9.89952 12.7426 12.2427M6.14298 10.357C4.84123 9.0553 4.84123 6.94475 6.14298 5.643M10.857 5.643C12.1588 6.94475 12.1588 9.0553 10.857 10.357M9.16667 8.00003C9.16667 8.36822 8.86819 8.66669 8.5 8.66669C8.13181 8.66669 7.83333 8.36822 7.83333 8.00003C7.83333 7.63184 8.13181 7.33336 8.5 7.33336C8.86819 7.33336 9.16667 7.63184 9.16667 8.00003Z" stroke="#29a36e" stroke-width="1.5" stroke-linecap="round" stroke-linejoin="round"></path>
</svg>