<svg xmlns="http://www.w3.org/2000/svg" width="100%" height="100%" viewBox="0 0 281 48" fill="none" preserveAspectRatio="xMidYMid meet" aria-hidden="true" role="img">
<g clip-path="url(#clip0_1282_10660)">
<path d="M181.088 10.2102C181.363 8.12727 184.211 8.62048 186.874 10.1904C187.314 10.4502 187.872 10.1287 187.869 9.62011C187.867 7.46892 187.856 4.57791 187.854 2.96837C187.854 2.53901 187.6 2.14929 187.208 1.96874C178.255 -2.16411 170.727 0.839195 170.727 6.68507C170.727 11.3596 175.864 13.4623 175.864 13.4623L172.87 13.4843C172.505 13.4865 172.213 13.7816 172.213 14.1449V39.4946C172.213 39.8601 172.509 40.1552 172.876 40.1552H182.479C182.847 40.1552 183.143 39.8601 183.143 39.4946V20.4003H187.197C187.564 20.4003 187.861 20.1052 187.861 19.7397V14.1361C187.861 13.775 187.564 13.4777 187.204 13.4755C184.844 13.4689 180.785 12.4935 181.086 10.2102H181.088Z" fill="white"></path>
<path d="M16.9428 12.6719C13.205 12.6719 10.6483 14.3409 9.05588 18.3064L8.40785 14.0502C8.35919 13.7266 8.08052 13.4888 7.75098 13.4888H1.33929C0.972148 13.4888 0.675781 13.7838 0.675781 14.1493V47.2869C0.675781 47.6524 0.972148 47.9475 1.33929 47.9475H10.8982C11.2808 47.9475 11.5838 47.626 11.5595 47.2451L10.8584 36.3724C12.3137 39.8689 14.6758 40.9721 17.3033 40.9721C22.8391 40.9721 25.5684 36.062 25.5684 26.8143C25.5684 17.5666 22.6954 12.6719 16.9428 12.6719ZM13.1895 33.2436C11.2278 33.2436 10.6394 30.368 10.6394 26.8209C10.6394 23.2737 11.2278 20.3981 13.1895 20.3981C15.1513 20.3981 15.7396 23.2737 15.7396 26.8209C15.7396 30.368 15.1513 33.2436 13.1895 33.2436Z" fill="white"></path>
<path d="M109.424 12.1016C113.041 12.1016 115.973 9.67164 115.973 6.6741C115.973 3.67657 113.041 1.24658 109.424 1.24658C105.807 1.24658 102.875 3.67657 102.875 6.6741C102.875 9.67164 105.807 12.1016 109.424 12.1016Z" fill="white"></path>
<path d="M160.802 12.6694C156.717 12.6694 153.481 14.4639 151.86 18.577L151.168 14.05C151.119 13.7263 150.841 13.4885 150.511 13.4885H144.097C143.73 13.4885 143.434 13.7836 143.434 14.1491V39.49C143.434 39.8555 143.73 40.1505 144.097 40.1505H153.707C154.074 40.1505 154.37 39.8555 154.37 39.49L154.381 22.6548C154.381 21.0892 155.445 20.4287 156.368 20.4287C157.29 20.4287 158.334 20.9263 158.334 22.5645V39.49C158.334 39.8555 158.63 40.1505 158.997 40.1505H168.605C168.972 40.1505 169.268 39.8555 169.268 39.49V21.2148C169.268 15.9304 166.475 12.6716 160.798 12.6716L160.802 12.6694Z" fill="white"></path>
<path fill-rule="evenodd" clip-rule="evenodd" d="M40.3511 12.6719C34.4989 12.6719 29.8168 15.8403 28.4035 16.9082C28.1271 17.1174 27.9634 17.441 27.9634 17.7867V24.0818C27.9634 24.619 28.5716 24.9317 29.0117 24.619C30.6617 23.4433 34.0301 21.3889 37.4405 21.3889C39.9485 21.3889 41.1805 22.3071 41.782 24.095C35.0519 23.9673 27.3242 25.306 27.3242 33.3053C27.3242 38.5743 30.1065 40.9699 34.928 40.9699C38.1792 40.9699 41.2844 39.0785 42.9631 36.1104L43.4939 39.5893C43.5425 39.913 43.8212 40.1508 44.1508 40.1508H50.5647C50.9318 40.1508 51.2282 39.8557 51.2282 39.4902V24.0686C51.2282 17.582 47.3931 12.6719 40.3511 12.6719ZM40.3068 33.5343C38.9334 33.5078 38.3097 32.1273 38.3141 30.2711C38.323 27.2833 40.7558 25.9423 42.0231 25.9666C42.0231 25.9666 42.1735 27.499 42.1669 29.9563C42.1602 32.0018 41.6582 33.5607 40.3068 33.5343Z" fill="white"></path>
<path d="M280.321 19.7399V14.1494C280.321 13.7839 280.025 13.4889 279.658 13.4889H272.441V6.56631C272.441 6.20081 272.144 5.90576 271.777 5.90576H265.932C265.6 5.90576 265.319 6.15017 265.275 6.47824C264.722 10.7036 262.603 13.5549 259.79 14.2617C259.491 14.3366 259.281 14.5964 259.281 14.9025V19.7421C259.281 20.1076 259.578 20.4026 259.945 20.4026H261.424L261.411 20.4203C261.411 20.4203 261.502 24.5993 261.502 33.1777C261.502 36.7887 264.032 40.9898 270.736 40.9898C276.024 40.9898 278.934 39.0192 279.927 38.1891C280.177 37.9799 280.321 37.6716 280.321 37.3458V31.7839C280.321 31.2555 279.733 30.945 279.29 31.2335C278.313 31.8742 276.796 32.6977 275.455 32.6977C273.746 32.6977 272.443 32.1252 272.443 29.2672V20.4048H279.66C280.027 20.4048 280.323 20.1098 280.323 19.7443L280.321 19.7399Z" fill="white"></path>
<path fill-rule="evenodd" clip-rule="evenodd" d="M129.142 12.6719C121.742 12.6719 117.152 16.8752 117.152 26.8297C117.152 36.7842 121.742 40.9875 129.142 40.9875C136.542 40.9875 141.131 36.7842 141.131 26.8297C141.131 16.8752 136.542 12.6719 129.142 12.6719ZM129.142 33.2524C127.2 33.2524 126.618 30.3768 126.618 26.8297C126.618 23.2825 127.202 20.4069 129.142 20.4069C131.082 20.4069 131.665 23.2825 131.665 26.8297C131.665 30.3768 131.082 33.2524 129.142 33.2524Z" fill="white"></path>
<path fill-rule="evenodd" clip-rule="evenodd" d="M221.478 12.6719C214.078 12.6719 209.488 16.8752 209.488 26.8297C209.488 36.7842 214.078 40.9875 221.478 40.9875C228.878 40.9875 233.467 36.7842 233.467 26.8297C233.467 16.8752 228.878 12.6719 221.478 12.6719ZM221.478 33.2524C219.536 33.2524 218.954 30.3768 218.954 26.8297C218.954 23.2825 219.538 20.4069 221.478 20.4069C223.418 20.4069 224.001 23.2825 224.001 26.8297C224.001 30.3768 223.418 33.2524 221.478 33.2524Z" fill="white"></path>
<path fill-rule="evenodd" clip-rule="evenodd" d="M246.654 12.6719C239.253 12.6719 234.664 16.8752 234.664 26.8297C234.664 36.7842 239.253 40.9875 246.654 40.9875C254.054 40.9875 258.643 36.7842 258.643 26.8297C258.643 16.8752 254.054 12.6719 246.654 12.6719ZM246.654 33.2524C244.712 33.2524 244.13 30.3768 244.13 26.8297C244.13 23.2825 244.714 20.4069 246.654 20.4069C248.593 20.4069 249.177 23.2825 249.177 26.8297C249.177 30.3768 248.593 33.2524 246.654 33.2524Z" fill="white"></path>
<path d="M88.0641 22.2738C88.0641 21.4239 88.7343 20.4331 89.9131 20.4331C91.1981 20.4331 91.7621 21.3248 91.7621 22.9828V23.2272C91.7621 23.5927 92.0584 23.8878 92.4256 23.8878H100.576C100.952 23.8878 101.255 23.5795 101.239 23.2052C101.04 18.5902 98.7488 12.6694 89.891 12.6694C83.455 12.6694 78.6445 15.4922 78.6445 20.8889C78.6445 30.7597 92.8237 30.2048 92.8237 32.4485C92.8237 34.5337 85.0606 33.6705 79.945 29.9692C79.5093 29.6544 78.8967 29.9692 78.8967 30.5065V37.2089C78.8967 37.6338 79.14 38.0192 79.5248 38.2019C81.1681 38.9836 85.7794 40.9696 90.2227 40.9696C95.3229 40.9696 101.903 39.6353 101.903 33.3601C101.903 24.4779 88.0619 27.3491 88.0619 22.2738H88.0641Z" fill="white"></path>
<path d="M63.2477 22.2738C63.2477 21.4239 63.9179 20.4331 65.0967 20.4331C66.3817 20.4331 66.9457 21.3248 66.9457 22.9828V23.2272C66.9457 23.5927 67.242 23.8878 67.6092 23.8878H75.7592C76.1352 23.8878 76.4382 23.5795 76.4228 23.2052C76.2237 18.5902 73.9324 12.6694 65.0746 12.6694C58.6386 12.6694 53.8281 15.4922 53.8281 20.8889C53.8281 30.7597 68.0073 30.2048 68.0073 32.4485C68.0073 34.5337 60.2442 33.6705 55.1286 29.9692C54.6929 29.6544 54.0803 29.9692 54.0803 30.5065V37.2089C54.0803 37.6338 54.3235 38.0192 54.7084 38.2019C56.3517 38.9836 60.963 40.9696 65.4063 40.9696C70.5065 40.9696 77.0863 39.6353 77.0863 33.3601C77.0863 24.4779 63.2455 27.3491 63.2455 22.2738H63.2477Z" fill="white"></path>
<path d="M114.22 13.4907H104.617C104.25 13.4907 103.953 13.7865 103.953 14.1513V39.5472C103.953 39.912 104.25 40.2078 104.617 40.2078H114.22C114.586 40.2078 114.883 39.912 114.883 39.5472V14.1513C114.883 13.7865 114.586 13.4907 114.22 13.4907Z" fill="white"></path>
<path d="M206.098 12.6452C203.041 12.5637 200.235 13.8474 198.638 18.6958L197.926 14.0257C197.877 13.7021 197.598 13.4643 197.269 13.4643H190.855C190.488 13.4643 190.191 13.7593 190.191 14.1248V39.4657C190.191 39.8312 190.488 40.1263 190.855 40.1263H200.462C200.83 40.1263 201.126 39.8312 201.126 39.4657V24.3435C201.126 21.3468 203.386 20.3516 204.764 20.356C205.695 20.3582 206.135 20.5652 206.635 20.9263C206.969 21.1685 207.443 21.0408 207.622 20.6709L210.543 14.6489C210.687 14.3516 210.581 14.0059 210.311 13.81C209.665 13.3388 208.294 12.7024 206.096 12.6452H206.098ZM199.127 24.4536V24.4316C199.127 24.4316 199.14 24.447 199.149 24.4536H199.127Z" fill="white"></path>
</g>
<defs>
<clipPath id="clip0_1282_10660">
<rect width="280" height="48" fill="white" transform="translate(0.5)"></rect>
</clipPath>
</defs>
</svg>