<svg xmlns="http://www.w3.org/2000/svg" width="100%" height="100%" viewBox="0 0 133 32" fill="none" preserveAspectRatio="xMidYMid meet" aria-hidden="true" role="img">
<path d="M49.1074 20.4487C49.1074 23.2638 46.15 23.8628 43.8587 23.8628C41.8629 23.8628 39.7908 22.9721 39.0522 22.6211C38.879 22.5394 38.7704 22.3663 38.7704 22.1757V19.1681C38.7704 18.9269 39.0453 18.7859 39.242 18.9269C41.5401 20.5878 45.0288 20.9748 45.0288 20.0393C45.0288 19.0329 38.6569 19.2818 38.6569 14.8535C38.6569 12.4322 40.819 11.1662 43.711 11.1662C47.6908 11.1662 48.721 13.8218 48.81 15.893C48.8169 16.0603 48.6809 16.1993 48.5116 16.1993H44.8488C44.6844 16.1993 44.5504 16.0671 44.5504 15.9028V15.7929C44.5504 15.049 44.297 14.6484 43.7198 14.6484C43.1895 14.6484 42.8892 15.0927 42.8892 15.4739C42.8892 17.7513 49.1084 16.4629 49.1084 20.4478L49.1074 20.4487ZM31.7352 15.4749C31.7352 15.0937 32.0365 14.6493 32.5658 14.6493C33.143 14.6493 33.3964 15.05 33.3964 15.7938V15.9037C33.3964 16.0671 33.5295 16.2003 33.6948 16.2003H37.3577C37.526 16.2003 37.6629 16.0613 37.6561 15.894C37.5671 13.8238 36.5369 11.1672 32.557 11.1672C29.6651 11.1672 27.503 12.4332 27.503 14.8545C27.503 19.2828 33.8748 19.0339 33.8748 20.0403C33.8748 20.9758 30.3871 20.5888 28.088 18.9279C27.8923 18.7859 27.6164 18.9279 27.6164 19.169V22.1767C27.6164 22.3673 27.726 22.5404 27.8982 22.622C28.6368 22.9731 30.709 23.8638 32.7047 23.8638C34.997 23.8638 37.9535 23.2658 37.9535 20.4497C37.9535 16.4648 31.7342 17.7532 31.7342 15.4759L31.7352 15.4749ZM52.5844 5.60015C50.8039 5.60015 49.6416 6.51713 49.6416 8.03505C49.6416 9.55297 50.8049 10.4699 52.5844 10.4699C54.364 10.4699 55.5273 9.55297 55.5273 8.03505C55.5273 6.51713 54.364 5.60015 52.5844 5.60015ZM14.905 17.5111C14.905 21.6603 13.6782 23.8628 11.1912 23.8628C10.0114 23.8628 8.94989 23.3679 8.29538 21.7994L8.61041 26.6779C8.62117 26.8491 8.48518 26.993 8.31299 26.993H4.01714C3.85278 26.993 3.71875 26.8607 3.71875 26.6964V11.8187C3.71875 11.6553 3.8518 11.5221 4.01714 11.5221H6.8993C7.04703 11.5221 7.17226 11.629 7.19378 11.7739L7.48533 13.8033C8.13689 12.1172 9.32263 11.1662 11.0288 11.1662C13.6136 11.1662 14.905 13.3619 14.905 17.5111ZM10.4888 17.515C10.4888 15.9241 10.2237 14.6493 9.3422 14.6493C8.46072 14.6493 8.19559 15.9241 8.19559 17.515C8.19559 19.1058 8.46072 20.3962 9.3422 20.3962C10.2237 20.3962 10.4888 19.1058 10.4888 17.515ZM26.4346 16.28V23.1997C26.4346 23.363 26.3016 23.4962 26.1362 23.4962H23.2541C23.1063 23.4962 22.9811 23.3893 22.9596 23.2444L22.7209 21.6837C21.9666 23.0149 20.5715 23.8638 19.1108 23.8638C16.9438 23.8638 15.6935 22.7893 15.6935 20.4254C15.6935 16.8372 19.1656 16.2363 22.1906 16.2937C21.9196 15.4905 21.3669 15.0791 20.2398 15.0791C18.7068 15.0791 17.1933 16 16.4517 16.528C16.2541 16.668 15.9812 16.528 15.9812 16.2868V13.463C15.9812 13.3084 16.0545 13.1625 16.1788 13.0692C16.8137 12.5898 18.9181 11.1681 21.5479 11.1681C24.7118 11.1681 26.4356 13.3706 26.4356 16.281L26.4346 16.28ZM22.3628 18.9211C22.3657 17.8184 22.2982 17.1319 22.2982 17.1319C21.7298 17.1212 20.6361 17.7231 20.6321 19.0631C20.6292 19.8954 20.911 20.5265 21.5283 20.5382C22.1358 20.5499 22.3609 19.839 22.3628 18.9211ZM54.7407 11.5231H50.4253C50.2609 11.5231 50.1269 11.6553 50.1269 11.8196L50.1347 23.1997C50.1347 23.363 50.2677 23.4962 50.4331 23.4962H54.7485C54.9129 23.4962 55.0469 23.364 55.0469 23.1997L55.0391 11.8196C55.0391 11.6563 54.906 11.5231 54.7407 11.5231ZM66.8348 17.5111C66.8348 21.9773 64.7725 23.8628 61.4471 23.8628C58.1218 23.8628 56.0595 21.9773 56.0595 17.5111C56.0595 13.0449 58.1218 11.1594 61.4471 11.1594C64.7725 11.1594 66.8348 13.0449 66.8348 17.5111ZM62.581 17.5111C62.581 15.9203 62.3188 14.6493 61.4471 14.6493C60.5754 14.6493 60.3133 15.9203 60.3133 17.5111C60.3133 19.102 60.5754 20.3923 61.4471 20.3923C62.3188 20.3923 62.581 19.102 62.581 17.5111ZM108.029 17.5111C108.029 21.9773 105.967 23.8628 102.642 23.8628C99.3164 23.8628 97.2541 21.9773 97.2541 17.5111C97.2541 13.0449 99.3164 11.1594 102.642 11.1594C105.967 11.1594 108.029 13.0449 108.029 17.5111ZM103.776 17.5111C103.776 15.9203 103.513 14.6493 102.641 14.6493C101.768 14.6493 101.506 15.9203 101.506 17.5111C101.506 19.102 101.768 20.3923 102.641 20.3923C103.513 20.3923 103.776 19.102 103.776 17.5111ZM128.981 14.6493C129.146 14.6493 129.28 14.5171 129.28 14.3527V11.8177C129.28 11.6543 129.147 11.5211 128.981 11.5211H125.738V8.52028C125.738 8.35691 125.605 8.22369 125.44 8.22369H122.813C122.664 8.22369 122.537 8.33358 122.518 8.48041C122.27 10.3766 121.318 11.6553 120.053 11.9723C119.919 12.0054 119.824 12.123 119.824 12.2601V14.3518C119.824 14.5151 119.957 14.6484 120.123 14.6484H120.814V20.3952C120.814 22.0153 121.959 23.8619 124.971 23.8619C127.348 23.8619 128.656 22.9779 129.102 22.6055C129.214 22.5112 129.279 22.3731 129.279 22.2273V19.7389C129.279 19.5026 129.015 19.3626 128.815 19.4919C128.376 19.7797 127.694 20.1483 127.091 20.1483C126.323 20.1483 125.737 19.8915 125.737 18.6089V14.6474H128.98L128.981 14.6493ZM119.538 17.5111C119.538 21.9773 117.476 23.8628 114.151 23.8628C110.825 23.8628 108.763 21.9773 108.763 17.5111C108.763 13.0449 110.825 11.1594 114.151 11.1594C117.476 11.1594 119.538 13.0449 119.538 17.5111ZM115.285 17.5111C115.285 15.9203 115.023 14.6493 114.15 14.6493C113.277 14.6493 113.015 15.9203 113.015 17.5111C113.015 19.102 113.277 20.3923 114.15 20.3923C115.023 20.3923 115.285 19.102 115.285 17.5111ZM75.674 11.1662C73.8387 11.1662 72.3839 11.9713 71.656 13.8169L71.3459 11.7749C71.3234 11.63 71.1982 11.5231 71.0514 11.5231H68.1693C68.0049 11.5231 67.8709 11.6553 67.8709 11.8196V23.1997C67.8709 23.363 68.0039 23.4962 68.1693 23.4962H72.4876C72.652 23.4962 72.786 23.364 72.786 23.1997L72.7909 15.648C72.7909 14.9449 73.2683 14.6493 73.6831 14.6493C74.0979 14.6493 74.5666 14.872 74.5666 15.6071V23.1987C74.5666 23.362 74.6996 23.4953 74.8649 23.4953H79.1823C79.3467 23.4953 79.4807 23.363 79.4807 23.1987V14.9994C79.4807 12.6287 78.2255 11.1662 75.675 11.1662H75.674ZM97.9262 12.0657L96.6133 14.7903C96.533 14.9556 96.3198 15.013 96.1701 14.9051C95.946 14.7427 95.7484 14.6503 95.3297 14.6493C94.7104 14.6474 93.6949 14.9994 93.6949 16.3432V23.1997C93.6949 23.363 93.5618 23.4962 93.3965 23.4962H89.0791C88.9148 23.4962 88.7807 23.364 88.7807 23.1997V11.8187C88.7807 11.6553 88.9138 11.5221 89.0791 11.5221H91.9613C92.109 11.5221 92.2342 11.629 92.2558 11.7739L92.5767 13.8121C93.2948 11.6378 94.5558 11.1662 95.9294 11.1662C96.9165 11.1662 97.5329 11.4773 97.8234 11.6893C97.9438 11.7768 97.9927 11.9315 97.9271 12.0657H97.9262ZM92.8056 16.4881C92.8056 16.4881 92.7987 16.4813 92.7958 16.4784V16.4881H92.8056ZM87.3895 10.1481C87.5872 10.2648 87.8337 10.1209 87.8337 9.89234V6.90803C87.8337 6.7155 87.7163 6.54047 87.5402 6.45976C83.5173 4.60539 80.1342 5.95314 80.1342 8.5757C80.1342 10.6722 82.4431 11.5221 82.4431 11.5221H81.0979C80.9345 11.5231 80.8024 11.6553 80.8024 11.8187V23.1987C80.8024 23.362 80.9355 23.4953 81.1008 23.4953H85.4163C85.5806 23.4953 85.7146 23.363 85.7146 23.1987V14.6484H87.5373C87.7016 14.6484 87.8357 14.5161 87.8357 14.3518V11.8187C87.8357 11.6572 87.7026 11.5231 87.5402 11.5231C86.4797 11.5201 84.7764 11.138 84.7764 10.1607C84.7764 9.27 86.195 9.44309 87.3915 10.1481H87.3895Z" fill="currentColor"></path>
</svg>