<svg xmlns="http://www.w3.org/2000/svg" width="100%" height="100%" viewBox="0 0 17 17" fill="none" preserveAspectRatio="xMidYMid meet" aria-hidden="true" role="img">
<path d="M11.8333 5.58334H13.1667C13.903 5.58334 14.5 6.18029 14.5 6.91667V10.9167C14.5 11.6531 13.903 12.25 13.1667 12.25H11.8333V14.9167L9.16667 12.25H6.5C6.13181 12.25 5.79848 12.1008 5.55719 11.8595M5.55719 11.8595L7.83333 9.58334H10.5C11.2364 9.58334 11.8333 8.98638 11.8333 8.25001V4.25001C11.8333 3.51363 11.2364 2.91667 10.5 2.91667H3.83333C3.09695 2.91667 2.5 3.51363 2.5 4.25001V8.25001C2.5 8.98638 3.09695 9.58334 3.83333 9.58334H5.16667V12.25L5.55719 11.8595Z" stroke="currentColor" stroke-width="1.25" stroke-linecap="round" stroke-linejoin="round"></path>
</svg>