<svg xmlns="http://www.w3.org/2000/svg" width="100%" height="100%" viewBox="0 0 19 19" fill="none" preserveAspectRatio="xMidYMid meet" aria-hidden="true" role="img">
<path d="M5.45 5.24077H10.85M5.45 7.94077H13.55M10.175 10.6408H13.55M10.175 13.3408H13.55M13.5503 2.54077V4.83577C13.5503 4.88896 13.5608 4.94162 13.5811 4.99076C13.6015 5.0399 13.6313 5.08454 13.6689 5.12215C13.7065 5.15976 13.7512 5.18959 13.8003 5.20994C13.8495 5.2303 13.9021 5.24077 13.9553 5.24077H16.2503M2.75 15.6358V2.94577C2.75 2.83836 2.79267 2.73535 2.86862 2.65939C2.94457 2.58344 3.04759 2.54077 3.155 2.54077H13.7201C13.8275 2.54087 13.9304 2.5836 14.0063 2.65957L16.1312 4.78447C16.169 4.8222 16.1989 4.86703 16.2193 4.91638C16.2397 4.96573 16.2501 5.01863 16.25 5.07202V15.6358C16.25 15.689 16.2395 15.7416 16.2192 15.7908C16.1988 15.8399 16.169 15.8845 16.1314 15.9222C16.0938 15.9598 16.0491 15.9896 16 16.0099C15.9509 16.0303 15.8982 16.0408 15.845 16.0408H3.155C3.10181 16.0408 3.04915 16.0303 3.00001 16.0099C2.95088 15.9896 2.90623 15.9598 2.86862 15.9222C2.83101 15.8845 2.80118 15.8399 2.78083 15.7908C2.76048 15.7416 2.75 15.689 2.75 15.6358ZM5.45031 13.3408V10.6408H7.47531V13.3408H5.45031Z" stroke="currentColor" stroke-width="1.25" stroke-linecap="round" stroke-linejoin="round"></path>
</svg>