<svg xmlns="http://www.w3.org/2000/svg" width="100%" height="100%" viewBox="0 0 28 28" fill="none" preserveAspectRatio="xMidYMid meet" aria-hidden="true" role="img">
<path d="M28 14C28 21.732 21.732 28 14 28C6.26801 28 0 21.732 0 14C0 6.26801 6.26801 0 14 0C21.732 0 28 6.26801 28 14ZM3.5 14C3.5 19.799 8.20101 24.5 14 24.5C19.799 24.5 24.5 19.799 24.5 14C24.5 8.20101 19.799 3.5 14 3.5C8.20101 3.5 3.5 8.20101 3.5 14Z" fill="#EDFDF6"></path>
<path d="M10.404 18.132C9.90536 18.132 9.47636 18.0367 9.11703 17.846C8.76503 17.6553 8.48636 17.4023 8.28103 17.087C8.08303 16.7643 7.95836 16.416 7.90703 16.042H8.93003C9.00336 16.4087 9.16836 16.6947 9.42503 16.9C9.68903 17.098 10.019 17.197 10.415 17.197C10.7817 17.197 11.1007 17.0907 11.372 16.878C11.6507 16.658 11.8707 16.328 12.032 15.888C12.2007 15.448 12.296 14.8907 12.318 14.216C12.3254 14.1867 12.329 14.1573 12.329 14.128C12.329 14.0913 12.329 14.0583 12.329 14.029C12.219 14.249 12.0614 14.4507 11.856 14.634C11.658 14.8173 11.4197 14.964 11.141 15.074C10.8697 15.184 10.5654 15.239 10.228 15.239C9.8027 15.239 9.40303 15.14 9.02903 14.942C8.65503 14.7367 8.35436 14.447 8.12703 14.073C7.8997 13.699 7.78603 13.2627 7.78603 12.764C7.78603 12.3167 7.89236 11.895 8.10503 11.499C8.3177 11.103 8.61836 10.784 9.00703 10.542C9.40303 10.2927 9.86503 10.168 10.393 10.168C10.9577 10.168 11.4307 10.2743 11.812 10.487C12.1934 10.6923 12.4977 10.971 12.725 11.323C12.9597 11.675 13.1284 12.071 13.231 12.511C13.3337 12.951 13.385 13.402 13.385 13.864C13.385 14.7073 13.2677 15.4517 13.033 16.097C12.7984 16.735 12.461 17.2337 12.021 17.593C11.581 17.9523 11.042 18.132 10.404 18.132ZM10.47 14.304C10.778 14.304 11.0567 14.2343 11.306 14.095C11.5554 13.9557 11.7497 13.7687 11.889 13.534C12.0357 13.292 12.109 13.017 12.109 12.709C12.109 12.3937 12.0357 12.1187 11.889 11.884C11.7497 11.642 11.5554 11.455 11.306 11.323C11.0567 11.191 10.778 11.125 10.47 11.125C10.1694 11.125 9.89803 11.1947 9.65603 11.334C9.41403 11.466 9.22336 11.653 9.08403 11.895C8.9447 12.1297 8.87503 12.4047 8.87503 12.72C8.87503 13.0353 8.9447 13.314 9.08403 13.556C9.22336 13.7907 9.41403 13.974 9.65603 14.106C9.89803 14.238 10.1694 14.304 10.47 14.304ZM17.608 18.132C17.0433 18.132 16.5703 18.0293 16.189 17.824C15.8077 17.6113 15.4997 17.329 15.265 16.977C15.0377 16.625 14.8727 16.229 14.77 15.789C14.6673 15.349 14.616 14.898 14.616 14.436C14.616 13.5853 14.7333 12.841 14.968 12.203C15.2027 11.565 15.54 11.0663 15.98 10.707C16.4273 10.3477 16.9663 10.168 17.597 10.168C18.0957 10.168 18.5247 10.2633 18.884 10.454C19.2433 10.6447 19.5257 10.8977 19.731 11.213C19.9363 11.5283 20.0573 11.8767 20.094 12.258H19.071C19.005 11.8913 18.84 11.609 18.576 11.411C18.3193 11.2057 17.9893 11.103 17.586 11.103C17.2193 11.103 16.893 11.2167 16.607 11.444C16.3283 11.6713 16.1083 12.0123 15.947 12.467C15.7857 12.9143 15.694 13.49 15.672 14.194C15.672 14.2013 15.672 14.2123 15.672 14.227C15.672 14.2417 15.672 14.2563 15.672 14.271C15.782 14.051 15.936 13.8493 16.134 13.666C16.3393 13.4827 16.5813 13.336 16.86 13.226C17.1387 13.116 17.443 13.061 17.773 13.061C18.2057 13.061 18.6053 13.1637 18.972 13.369C19.346 13.567 19.6467 13.853 19.874 14.227C20.1013 14.601 20.215 15.0373 20.215 15.536C20.215 15.9833 20.105 16.405 19.885 16.801C19.6723 17.197 19.3717 17.5197 18.983 17.769C18.5943 18.011 18.136 18.132 17.608 18.132ZM17.531 17.175C17.839 17.175 18.1103 17.109 18.345 16.977C18.587 16.8377 18.7777 16.6507 18.917 16.416C19.0563 16.174 19.126 15.8953 19.126 15.58C19.126 15.2647 19.0563 14.9897 18.917 14.755C18.7777 14.513 18.587 14.326 18.345 14.194C18.103 14.062 17.8317 13.996 17.531 13.996C17.223 13.996 16.9443 14.0657 16.695 14.205C16.453 14.3443 16.2587 14.535 16.112 14.777C15.9727 15.0117 15.903 15.283 15.903 15.591C15.903 15.899 15.9727 16.174 16.112 16.416C16.2587 16.6507 16.453 16.8377 16.695 16.977C16.9443 17.109 17.223 17.175 17.531 17.175Z" fill="#595854"></path>
<path d="M14 0C17.5609 4.24628e-08 20.9879 1.35687 23.5837 3.79444C26.1794 6.23201 27.7488 9.5671 27.9724 13.1209C28.196 16.6748 27.057 20.1803 24.7872 22.9239C22.5174 25.6676 19.2874 27.4433 15.7547 27.8896C12.2219 28.3359 8.6518 27.4193 5.771 25.3262C2.89021 23.2332 0.915214 20.1211 0.247977 16.6233C-0.419259 13.1255 0.271408 9.50495 2.17941 6.49842C4.08742 3.49189 7.06936 1.32538 10.5183 0.439834L11.3888 3.82988C8.80202 4.49404 6.56556 6.11892 5.13456 8.37381C3.70356 10.6287 3.18556 13.3442 3.68598 15.9675C4.18641 18.5908 5.66766 20.9249 7.82825 22.4947C9.98885 24.0644 12.6664 24.7519 15.316 24.4172C17.9656 24.0825 20.3881 22.7507 22.0904 20.693C23.7927 18.6352 24.647 16.0061 24.4793 13.3407C24.3116 10.6753 23.1346 8.17401 21.1877 6.34583C19.2409 4.51765 16.6706 3.5 14 3.5V0Z" fill="#3EBB85"></path>
</svg>