<svg xmlns="http://www.w3.org/2000/svg" width="100%" height="100%" viewBox="0 0 23 22" fill="none" preserveAspectRatio="xMidYMid meet" aria-hidden="true" role="img">
<rect x="0.5" width="22" height="22" rx="11" fill="url(#paint0_linear_950_42968)"></rect>
<path fill-rule="evenodd" clip-rule="evenodd" d="M11.4977 6.09985C11.8843 6.09985 12.1977 6.41325 12.1977 6.79985V10.2999H15.6977C16.0843 10.2999 16.3977 10.6133 16.3977 10.9999C16.3977 11.3865 16.0843 11.6999 15.6977 11.6999H12.1977V15.1999C12.1977 15.5865 11.8843 15.8999 11.4977 15.8999C11.1111 15.8999 10.7977 15.5865 10.7977 15.1999V11.6999H7.29766C6.91106 11.6999 6.59766 11.3865 6.59766 10.9999C6.59766 10.6133 6.91106 10.2999 7.29766 10.2999H10.7977V6.79985C10.7977 6.41325 11.1111 6.09985 11.4977 6.09985Z" fill="url(#paint1_linear_950_42968)" stroke="url(#paint2_linear_950_42968)" stroke-width="0.875" stroke-linecap="round" stroke-linejoin="round"></path>
<defs>
<linearGradient id="paint0_linear_950_42968" x1="11.5" y1="0" x2="11.5" y2="22" gradientUnits="userSpaceOnUse">
<stop stop-color="#FBFBF8"></stop>
<stop offset="1" stop-color="#F7F5EE"></stop>
</linearGradient>
<linearGradient id="paint1_linear_950_42968" x1="11.4977" y1="6.09985" x2="11.4977" y2="15.8999" gradientUnits="userSpaceOnUse">
<stop stop-color="#3B3D3D"></stop>
<stop offset="1" stop-color="#191A1A"></stop>
</linearGradient>
<linearGradient id="paint2_linear_950_42968" x1="11.4977" y1="6.09985" x2="11.4977" y2="15.8999" gradientUnits="userSpaceOnUse">
<stop stop-color="#3B3D3D"></stop>
<stop offset="1" stop-color="#191A1A"></stop>
</linearGradient>
</defs>
</svg>