<svg xmlns="http://www.w3.org/2000/svg" width="100%" height="100%" viewBox="0 0 19 21" fill="none" preserveAspectRatio="xMidYMid meet" aria-hidden="true" role="img">
<g filter="url(#filter0_ddddd_1584_140166)">
<rect x="2.5" y="1" width="14" height="14" rx="3.36" fill="#FFF0FA" shape-rendering="crispEdges"></rect>
<rect x="2.71" y="1.21" width="13.58" height="13.58" rx="3.15" stroke="url(#paint0_linear_1584_140166)" stroke-opacity="0.12" stroke-width="0.42" shape-rendering="crispEdges"></rect>
<g clip-path="url(#clip0_1584_140166)">
<path d="M6.87167 11.1182C6.31804 10.7036 5.86873 10.1656 5.55942 9.54703C5.25011 8.92841 5.08933 8.24618 5.08985 7.55454C5.08985 5.09429 7.08415 3.09999 9.5444 3.09999C12.0046 3.09999 13.9989 5.09429 13.9989 7.55454C13.9995 8.24618 13.8387 8.92841 13.5294 9.54703C13.2201 10.1656 12.7707 10.7036 12.2171 11.1182M7.55232 9.33636C7.20834 8.9518 6.98301 8.47589 6.90355 7.96609C6.82409 7.45629 6.89389 6.93438 7.10452 6.46338C7.31515 5.99237 7.65761 5.5924 8.09056 5.31174C8.52351 5.03109 9.02844 4.88174 9.5444 4.88174C10.0604 4.88174 10.5653 5.03109 10.9982 5.31174C11.4312 5.5924 11.7736 5.99237 11.9843 6.46338C12.1949 6.93438 12.2647 7.45629 12.1852 7.96609C12.1058 8.47589 11.8805 8.9518 11.5365 9.33636M9.54427 8.44544C9.78055 8.44544 10.0072 8.35158 10.1742 8.1845C10.3413 8.01742 10.4352 7.79081 10.4352 7.55453C10.4352 7.31825 10.3413 7.09164 10.1742 6.92456C10.0072 6.75748 9.78055 6.66362 9.54427 6.66362C9.30798 6.66362 9.08138 6.75748 8.9143 6.92456C8.74722 7.09164 8.65336 7.31825 8.65336 7.55453C8.65336 7.79081 8.74722 8.01742 8.9143 8.1845C9.08138 8.35158 9.30798 8.44544 9.54427 8.44544ZM8.68721 9.90787L9.05026 9.66599C9.19657 9.5685 9.36845 9.51648 9.54427 9.51648C9.72008 9.51648 9.89197 9.5685 10.0383 9.66599L10.4013 9.90787C10.5441 10.0031 10.6563 10.1375 10.7245 10.295C10.7927 10.4525 10.814 10.6264 10.7858 10.7957L10.559 12.1556C10.5243 12.3636 10.417 12.5525 10.2562 12.6888C10.0954 12.8251 9.8914 12.8999 9.68058 12.9H9.40796C9.19706 12.9 8.993 12.8252 8.83206 12.6889C8.67113 12.5526 8.56377 12.3637 8.52908 12.1556L8.30278 10.7957C8.27454 10.6264 8.2958 10.4525 8.36399 10.295C8.43219 10.1375 8.54443 10.0031 8.68721 9.90787Z" stroke="#F788D2" stroke-width="0.84" stroke-linecap="round" stroke-linejoin="round"></path>
</g>
</g>
<defs>
<filter id="filter0_ddddd_1584_140166" x="0.82" y="0.72" width="17.36" height="19.32" filterUnits="userSpaceOnUse" color-interpolation-filters="sRGB">
<feFlood flood-opacity="0" result="BackgroundImageFix"></feFlood>
<feColorMatrix in="SourceAlpha" type="matrix" values="0 0 0 0 0 0 0 0 0 0 0 0 0 0 0 0 0 0 127 0" result="hardAlpha"></feColorMatrix>
<feMorphology radius="1.68" operator="erode" in="SourceAlpha" result="effect1_dropShadow_1584_140166"></feMorphology>
<feOffset dy="3.36"></feOffset>
<feGaussianBlur stdDeviation="1.68"></feGaussianBlur>
<feComposite in2="hardAlpha" operator="out"></feComposite>
<feColorMatrix type="matrix" values="0 0 0 0 0.109804 0 0 0 0 0.113725 0 0 0 0 0.117647 0 0 0 0.01 0"></feColorMatrix>
<feBlend mode="normal" in2="BackgroundImageFix" result="effect1_dropShadow_1584_140166"></feBlend>
<feColorMatrix in="SourceAlpha" type="matrix" values="0 0 0 0 0 0 0 0 0 0 0 0 0 0 0 0 0 0 127 0" result="hardAlpha"></feColorMatrix>
<feMorphology radius="0.84" operator="erode" in="SourceAlpha" result="effect2_dropShadow_1584_140166"></feMorphology>
<feOffset dy="1.68"></feOffset>
<feGaussianBlur stdDeviation="0.84"></feGaussianBlur>
<feComposite in2="hardAlpha" operator="out"></feComposite>
<feColorMatrix type="matrix" values="0 0 0 0 0.109804 0 0 0 0 0.113725 0 0 0 0 0.117647 0 0 0 0.02 0"></feColorMatrix>
<feBlend mode="normal" in2="effect1_dropShadow_1584_140166" result="effect2_dropShadow_1584_140166"></feBlend>
<feColorMatrix in="SourceAlpha" type="matrix" values="0 0 0 0 0 0 0 0 0 0 0 0 0 0 0 0 0 0 127 0" result="hardAlpha"></feColorMatrix>
<feMorphology radius="0.42" operator="erode" in="SourceAlpha" result="effect3_dropShadow_1584_140166"></feMorphology>
<feOffset dy="0.84"></feOffset>
<feGaussianBlur stdDeviation="0.42"></feGaussianBlur>
<feComposite in2="hardAlpha" operator="out"></feComposite>
<feColorMatrix type="matrix" values="0 0 0 0 0.109804 0 0 0 0 0.113725 0 0 0 0 0.117647 0 0 0 0.02 0"></feColorMatrix>
<feBlend mode="normal" in2="effect2_dropShadow_1584_140166" result="effect3_dropShadow_1584_140166"></feBlend>
<feColorMatrix in="SourceAlpha" type="matrix" values="0 0 0 0 0 0 0 0 0 0 0 0 0 0 0 0 0 0 127 0" result="hardAlpha"></feColorMatrix>
<feMorphology radius="0.14" operator="erode" in="SourceAlpha" result="effect4_dropShadow_1584_140166"></feMorphology>
<feOffset dy="0.28"></feOffset>
<feGaussianBlur stdDeviation="0.14"></feGaussianBlur>
<feComposite in2="hardAlpha" operator="out"></feComposite>
<feColorMatrix type="matrix" values="0 0 0 0 0.109804 0 0 0 0 0.113725 0 0 0 0 0.117647 0 0 0 0.02 0"></feColorMatrix>
<feBlend mode="normal" in2="effect3_dropShadow_1584_140166" result="effect4_dropShadow_1584_140166"></feBlend>
<feColorMatrix in="SourceAlpha" type="matrix" values="0 0 0 0 0 0 0 0 0 0 0 0 0 0 0 0 0 0 127 0" result="hardAlpha"></feColorMatrix>
<feMorphology radius="0.28" operator="dilate" in="SourceAlpha" result="effect5_dropShadow_1584_140166"></feMorphology>
<feOffset></feOffset>
<feComposite in2="hardAlpha" operator="out"></feComposite>
<feColorMatrix type="matrix" values="0 0 0 0 0.109804 0 0 0 0 0.113725 0 0 0 0 0.117647 0 0 0 0.05 0"></feColorMatrix>
<feBlend mode="normal" in2="effect4_dropShadow_1584_140166" result="effect5_dropShadow_1584_140166"></feBlend>
<feBlend mode="normal" in="SourceGraphic" in2="effect5_dropShadow_1584_140166" result="shape"></feBlend>
</filter>
<linearGradient id="paint0_linear_1584_140166" x1="9.5" y1="1" x2="9.5" y2="15" gradientUnits="userSpaceOnUse">
<stop stop-color="#3B3D3D"></stop>
<stop offset="1" stop-color="#191A1A"></stop>
</linearGradient>
<clipPath id="clip0_1584_140166">
<rect width="11.76" height="11.76" fill="white" transform="translate(3.62109 2.12)"></rect>
</clipPath>
</defs>
</svg>