<svg xmlns="http://www.w3.org/2000/svg" width="100%" height="100%" viewBox="0 0 19 19" fill="none" preserveAspectRatio="xMidYMid meet" aria-hidden="true" role="img">
<path d="M5.47728 14.0635C4.6299 13.429 3.94217 12.6056 3.46874 11.6587C2.9953 10.7118 2.74921 9.66759 2.75 8.60896C2.75 4.84328 5.80251 1.79077 9.56819 1.79077C13.3339 1.79077 16.3864 4.84328 16.3864 8.60896C16.3872 9.66759 16.1411 10.7118 15.6676 11.6587C15.1942 12.6056 14.5065 13.429 13.6591 14.0635M6.5191 11.3362C5.99259 10.7476 5.64771 10.0192 5.52608 9.23888C5.40446 8.45857 5.51129 7.65974 5.83369 6.93881C6.15608 6.21788 6.68025 5.60568 7.34293 5.1761C8.00561 4.74653 8.77846 4.51794 9.56819 4.51794C10.3579 4.51794 11.1308 4.74653 11.7935 5.1761C12.4561 5.60568 12.9803 6.21788 13.3027 6.93881C13.6251 7.65974 13.7319 8.45857 13.6103 9.23888C13.4887 10.0192 13.1438 10.7476 12.6173 11.3362M9.568 9.97258C9.92965 9.97258 10.2765 9.82891 10.5322 9.57318C10.788 9.31745 10.9316 8.9706 10.9316 8.60894C10.9316 8.24728 10.788 7.90044 10.5322 7.64471C10.2765 7.38897 9.92965 7.24531 9.568 7.24531C9.20634 7.24531 8.85949 7.38897 8.60376 7.64471C8.34803 7.90044 8.20436 8.24728 8.20436 8.60894C8.20436 8.9706 8.34803 9.31745 8.60376 9.57318C8.85949 9.82891 9.20634 9.97258 9.568 9.97258ZM8.25618 12.211L8.81186 11.8408C9.0358 11.6915 9.29889 11.6119 9.568 11.6119C9.8371 11.6119 10.1002 11.6915 10.3241 11.8408L10.8798 12.211C11.0984 12.3568 11.2702 12.5625 11.3745 12.8036C11.4789 13.0447 11.5115 13.3107 11.4682 13.5699L11.1212 15.6515C11.0681 15.9697 10.9039 16.2589 10.6577 16.4675C10.4115 16.6761 10.0993 16.7906 9.77663 16.7908H9.35936C9.03656 16.7908 8.72421 16.6763 8.47789 16.4677C8.23156 16.2591 8.06723 15.9699 8.01413 15.6515L7.66777 13.5699C7.62454 13.3107 7.65707 13.0447 7.76145 12.8036C7.86584 12.5625 8.03763 12.3568 8.25618 12.211Z" stroke="currentColor" stroke-width="1.25" stroke-linecap="round" stroke-linejoin="round"></path>
</svg>