<svg width="10" height="10" viewBox="0 0 10 10" fill="none" xmlns="http://www.w3.org/2000/svg">
<g clip-path="url(#clip0_1913_326)">
<g clip-path="url(#clip1_1913_326)">
<path d="M5.70391 4.99997C5.70391 5.25897 5.56391 5.48297 5.35391 5.60197V8.49997H4.65391V5.60197C4.44391 5.47947 4.30391 5.25897 4.30391 4.99997C4.30391 4.61497 4.61891 4.29997 5.00391 4.29997C5.38891 4.29997 5.70391 4.61497 5.70391 4.99997ZM5.00391 2.89997C3.84541 2.89997 2.90391 3.84147 2.90391 4.99997C2.90391 5.60897 3.16641 6.15847 3.58291 6.53997L4.07991 6.04297C3.78941 5.78747 3.60391 5.41647 3.60391 4.99997C3.60391 4.22647 4.23041 3.59997 5.00391 3.59997C5.77741 3.59997 6.40391 4.22647 6.40391 4.99997C6.40391 5.41647 6.21841 5.78747 5.92791 6.04297L6.42491 6.53997C6.84141 6.15847 7.10391 5.60897 7.10391 4.99997C7.10391 3.84147 6.16241 2.89997 5.00391 2.89997ZM5.00391 1.49997C3.07191 1.49997 1.50391 3.06797 1.50391 4.99997C1.50391 5.99747 1.92391 6.89347 2.59241 7.53397L3.08941 7.03697C2.54691 6.52597 2.20391 5.80147 2.20391 4.99997C2.20391 3.45647 3.46041 2.19997 5.00391 2.19997C6.54741 2.19997 7.80391 3.45647 7.80391 4.99997C7.80391 5.80147 7.46091 6.52597 6.91841 7.03697L7.41541 7.53397C8.08391 6.89347 8.50391 5.99747 8.50391 4.99997C8.50391 3.06797 6.93591 1.49997 5.00391 1.49997Z" fill="#858480"></path>
</g>
</g>
<defs>
<clipPath id="clip0_1913_326">
<rect width="8.4" height="8.4" fill="white" transform="translate(0.800781 0.799988)"></rect>
</clipPath>
<clipPath id="clip1_1913_326">
<rect width="8.4" height="8.4" fill="white" transform="translate(0.800781 0.799988)"></rect>
</clipPath>
</defs>
</svg>