 <svg width="100%" height="100%" viewBox="0 0 32 32" fill="none" xmlns="http://www.w3.org/2000/svg">
                <path d="M21.3153 20.1649C21.3227 20.2534 21.1899 20.2873 21.2459 20.3729C21.2164 20.3877 21.1825 20.3936 21.1692 20.4142C21.1146 20.4909 21.0674 20.5706 21.0172 20.6503C21.0158 20.6518 21.0158 20.6562 21.0143 20.6577C20.9331 20.6931 20.9228 20.7669 20.9213 20.8466C20.8962 20.8259 20.8771 20.8111 20.8579 20.7949C20.8446 20.8156 20.8313 20.8377 20.8166 20.8569C20.7841 20.8952 20.7516 20.9351 20.7162 20.9705C20.6897 20.9971 20.6572 21.0177 20.6292 21.0384C20.6395 21.0708 20.6483 21.0974 20.6572 21.1225C20.6528 21.1254 20.6469 21.1269 20.6424 21.1299C20.6233 21.1151 20.6056 21.1018 20.5878 21.0885C20.5333 21.1254 20.4787 21.1594 20.4241 21.1963C20.427 21.2066 20.4329 21.2258 20.4388 21.2435C20.4196 21.242 20.399 21.2435 20.3813 21.2361C20.3134 21.2081 20.278 21.2538 20.2396 21.2936C20.2322 21.3025 20.2234 21.3217 20.2219 21.3217C20.1201 21.2833 20.1009 21.422 20.0139 21.4191C20.0021 21.4191 19.9814 21.4353 19.9799 21.4441C19.9711 21.5474 19.8722 21.5769 19.8102 21.6124C19.7335 21.6551 19.7379 21.7112 19.7217 21.7835C19.6951 21.7702 19.6715 21.7584 19.6642 21.754C19.5963 21.7835 19.5358 21.8042 19.4812 21.8381C19.4517 21.8573 19.3971 21.8706 19.4163 21.9325C19.4177 21.9384 19.3868 21.968 19.3764 21.965C19.3189 21.9503 19.2613 21.9266 19.2894 22.0285C19.2908 22.0344 19.2746 22.0521 19.2672 22.0535C19.223 22.0565 19.1758 22.0462 19.1359 22.058C19.0902 22.0712 19.0518 22.1037 19.0105 22.1288C18.9928 22.1391 18.978 22.1539 18.9589 22.1627C18.9043 22.1878 18.8423 22.2026 18.8216 22.2793C18.8098 22.2631 18.8024 22.2513 18.7877 22.2306C18.77 22.2793 18.7582 22.3368 18.711 22.2896C18.6475 22.3206 18.5914 22.3472 18.5354 22.3752C18.5221 22.3811 18.5147 22.3973 18.5014 22.4032C18.4719 22.4165 18.4424 22.4254 18.4114 22.4372C18.3922 22.4446 18.3613 22.446 18.3568 22.4578C18.3258 22.539 18.2462 22.539 18.196 22.5272C18.1399 22.5139 18.1237 22.5346 18.0912 22.5641C18.0588 22.5921 18.013 22.6216 17.9747 22.6187C17.9112 22.6142 17.9024 22.6379 17.9068 22.6747C17.8773 22.6777 17.8522 22.6806 17.8271 22.6851C17.8183 22.6865 17.8094 22.6969 17.8006 22.6954C17.743 22.691 17.6987 22.7072 17.6619 22.7544C17.65 22.7692 17.6191 22.7692 17.5777 22.7825C17.563 22.8223 17.5291 22.8518 17.4538 22.8562C17.4022 22.8592 17.3535 22.9241 17.3048 22.9639C17.2915 22.9743 17.2841 22.9905 17.2753 23.0053C17.1971 22.9521 17.0731 22.9949 17.0643 23.0687C17.0185 23.0584 16.9669 23.0289 16.927 23.0392C16.8769 23.0525 16.837 23.0997 16.7883 23.1366C16.7618 23.0938 16.7323 23.0761 16.6924 23.1233C16.6836 23.1336 16.6614 23.1307 16.6452 23.1351C16.6216 23.141 16.598 23.144 16.5759 23.1513C16.5124 23.1735 16.4608 23.2295 16.3855 23.2192C16.3826 23.2192 16.3796 23.2192 16.3781 23.2192C16.294 23.3402 16.1568 23.2399 16.0565 23.2974C16.0329 23.3107 16.0063 23.3225 15.9768 23.3387C15.9724 23.3299 15.9665 23.3136 15.9591 23.2989C15.9576 23.3063 15.9576 23.3137 15.9561 23.321C15.9133 23.321 15.872 23.321 15.8292 23.324C15.8056 23.3255 15.7805 23.3269 15.7569 23.3343C15.6728 23.3579 15.5917 23.3904 15.5076 23.4081C15.4781 23.414 15.4412 23.3904 15.3999 23.3771C15.391 23.4081 15.3807 23.4464 15.3674 23.4937C15.3276 23.4627 15.3202 23.3564 15.2228 23.4022C15.2287 23.4184 15.2346 23.4346 15.2449 23.4597C15.1564 23.4494 15.1579 23.5128 15.1446 23.5674C15.1402 23.5379 15.1372 23.5099 15.1298 23.4627C15.0324 23.5822 14.9188 23.5173 14.8067 23.5291C14.8023 23.5409 14.7934 23.5571 14.7846 23.5778C14.7757 23.5556 14.7668 23.5379 14.758 23.5143C14.699 23.5453 14.6429 23.5748 14.5883 23.6029C14.5647 23.5807 14.5455 23.563 14.5352 23.5542C14.5042 23.5837 14.4791 23.6088 14.454 23.6338C14.4452 23.625 14.4363 23.6161 14.4289 23.6073C14.4437 23.6029 14.4599 23.597 14.4747 23.5925C14.4717 23.5851 14.4673 23.5778 14.4644 23.5704C14.4127 23.5748 14.3507 23.5615 14.3124 23.5866C14.2386 23.6338 14.1678 23.5778 14.0984 23.5984C14.0748 23.6043 14.0512 23.6058 14.0276 23.6132C13.9435 23.6383 13.8623 23.6501 13.7782 23.6102C13.7605 23.6014 13.7295 23.622 13.7059 23.6294C13.6838 23.6353 13.6484 23.6515 13.6425 23.6442C13.5879 23.5763 13.5274 23.6235 13.4684 23.6294C13.4448 23.6324 13.4182 23.622 13.3931 23.6161C13.3887 23.6147 13.3872 23.6058 13.3828 23.6058C13.2751 23.594 13.1688 23.5822 13.0611 23.5704C13.0316 23.5674 13.0021 23.563 12.9726 23.5645C12.9446 23.566 12.9136 23.5689 12.89 23.5807C12.8324 23.6117 12.7837 23.6058 12.7704 23.5792C12.6554 23.5674 12.555 23.5542 12.4532 23.5453C12.4001 23.5409 12.3455 23.5394 12.2924 23.5379C12.2407 23.5379 12.1891 23.5438 12.1374 23.5394C12.1212 23.5379 12.1065 23.5143 12.0932 23.501C12.0799 23.5217 12.0637 23.5483 12.0415 23.5822C12.0312 23.5453 12.0238 23.5188 12.015 23.4819C11.8851 23.6191 11.7759 23.4774 11.6594 23.4686C11.6535 23.4686 11.649 23.4464 11.6431 23.4317C11.5635 23.4435 11.4941 23.4228 11.4203 23.3771C11.3657 23.3432 11.289 23.3491 11.2241 23.3299C11.1488 23.3092 11.0736 23.2856 11.0027 23.2532C10.9157 23.2133 10.8331 23.1646 10.7475 23.1189C10.7416 23.1159 10.7327 23.11 10.7268 23.113C10.625 23.144 10.5704 23.0495 10.4907 23.023C10.4657 23.0141 10.4479 22.9831 10.414 22.9462C10.414 22.9876 10.414 23.0053 10.414 23.0259C10.3476 23.0289 10.3373 22.9979 10.3609 22.9492C10.3948 22.8798 10.3506 22.8916 10.3063 22.8916C10.3122 22.9271 10.3166 22.9566 10.324 22.9964C10.2399 22.9699 10.1587 22.9669 10.1278 22.8725C10.1233 22.8577 10.085 22.8016 10.0392 22.8503C10.0377 22.8533 10.0082 22.8238 9.99053 22.8193C9.9079 22.7972 9.82379 22.7795 9.74264 22.7559C9.71018 22.747 9.68214 22.7279 9.65263 22.7116C9.62902 22.6984 9.60836 22.6777 9.58328 22.6718C9.51541 22.6541 9.44901 22.6467 9.41064 22.5715C9.40179 22.5537 9.34277 22.5656 9.30883 22.5567C9.27047 22.5478 9.23358 22.5316 9.19521 22.5169C9.17898 22.511 9.16275 22.5021 9.14505 22.4992C9.0875 22.4888 9.02848 22.4814 8.97093 22.4682C8.96503 22.4667 8.9606 22.4298 8.96503 22.4106C8.97536 22.3693 8.93404 22.3 8.89125 22.2985C8.79829 22.297 8.71419 22.2572 8.64189 22.2085C8.54598 22.1435 8.46482 22.0594 8.37924 21.9798C8.33498 21.9399 8.29514 21.8942 8.2553 21.8514C8.24349 21.8396 8.22874 21.8263 8.22579 21.8116C8.20955 21.7393 8.15644 21.6979 8.10922 21.6478C8.03692 21.5696 7.96462 21.4884 7.91002 21.3984C7.88346 21.3541 7.90117 21.2863 7.89674 21.2287C7.89527 21.1992 7.88936 21.1697 7.88494 21.1343C7.91002 21.1048 7.93658 21.0605 7.97494 21.0295C8.08118 20.9425 8.20808 20.9011 8.34235 20.8775C8.4663 20.8554 8.58582 20.8997 8.70386 20.8967C8.80272 20.8938 8.87207 20.9469 8.95765 20.9646C8.98569 20.9705 9.02405 20.9823 9.04028 20.9705C9.08455 20.9366 9.11406 20.969 9.15095 20.9793C9.19521 20.9912 9.23948 20.9956 9.28522 21.003C9.31621 21.0089 9.3472 21.0162 9.37818 21.0221C9.39736 21.0266 9.41654 21.0369 9.43425 21.0339C9.52721 21.0177 9.62017 20.9971 9.71313 20.9808C9.73231 20.9779 9.75149 20.9808 9.77215 20.9808C9.78986 21.0207 9.7574 21.0885 9.8356 21.0959C9.8415 21.0679 9.8474 21.0428 9.85183 21.028C9.89019 21.0221 9.9197 21.0162 9.94921 21.0118C9.95364 21.0103 9.96102 21.0103 9.96397 21.0133C10.0481 21.121 10.1115 20.9926 10.1868 20.9926C10.2222 20.9926 10.2591 20.9705 10.2945 20.9734C10.3742 20.9793 10.4524 20.9616 10.5365 20.9971C10.5911 21.0192 10.6737 20.9838 10.7401 20.9646C10.7917 20.9498 10.8522 20.9557 10.8921 20.8938C10.9098 20.8672 10.9747 20.8598 11.0175 20.8628C11.075 20.8643 11.1326 20.8215 11.1901 20.8584C11.1916 20.8598 11.196 20.8584 11.1975 20.8569C11.2536 20.7521 11.3746 20.8303 11.4484 20.7698C11.4823 20.7418 11.5251 20.727 11.5753 20.699C11.6018 20.7064 11.6313 20.7152 11.6697 20.6621C11.7036 20.6149 11.7759 20.5898 11.835 20.5647C11.8777 20.5455 11.9309 20.55 11.9722 20.5293C11.9987 20.5146 12.012 20.4747 12.0312 20.4452C12.0135 20.4334 11.9987 20.4172 11.9796 20.4113C11.8659 20.3788 11.7508 20.3493 11.6387 20.3198C11.6299 20.2357 11.6092 20.2239 11.5369 20.2608C11.5118 20.274 11.4808 20.2917 11.4661 20.2578C11.4366 20.1944 11.3687 20.2076 11.3215 20.1796C11.289 20.1604 11.2418 20.1649 11.1946 20.1589C11.196 20.1545 11.2019 20.1412 11.2108 20.1206C11.1178 20.1029 11.0249 20.0852 10.9349 20.0689C10.9629 20.0232 10.9511 20.0011 10.8862 19.9996C10.8404 19.9981 10.7947 19.976 10.749 19.9671C10.7224 19.9612 10.7032 19.9583 10.7283 19.9288C10.7047 19.9125 10.6826 19.8919 10.6575 19.8815C10.6162 19.8653 10.5704 19.8594 10.5291 19.8447C10.5084 19.8373 10.4819 19.8196 10.476 19.8004C10.4568 19.7502 10.4273 19.7296 10.3742 19.7266C10.3299 19.7237 10.2974 19.6587 10.3151 19.6189C10.2561 19.5938 10.2045 19.5717 10.1307 19.5746C10.0791 19.5776 10.0127 19.5171 9.97135 19.4684C9.89462 19.3784 9.80756 19.3105 9.70427 19.253C9.6423 19.219 9.5582 19.1585 9.55377 19.1054C9.54492 18.9977 9.46671 18.9977 9.40769 18.9726C9.36195 18.952 9.32654 18.9298 9.30293 18.887C9.26899 18.828 9.21145 18.8044 9.14947 18.7852C9.07717 18.7631 9.01667 18.7321 9.0152 18.6421C9.0152 18.6288 8.98421 18.617 8.96946 18.6037C8.9429 18.5786 8.90601 18.555 8.8942 18.5226C8.86469 18.4429 8.81895 18.4399 8.75108 18.4886C8.73337 18.4503 8.72452 18.4163 8.70386 18.3913C8.6773 18.3588 8.64189 18.3322 8.6109 18.3042C8.59762 18.2924 8.58139 18.2806 8.56811 18.2673C8.53712 18.2378 8.49581 18.2142 8.4781 18.1773C8.46335 18.1448 8.43089 18.1212 8.42203 18.1006C8.3881 18.0179 8.31432 17.9825 8.2553 17.9309C8.23169 17.9102 8.2007 17.8556 8.15201 17.9058C8.15053 17.9073 8.1284 17.891 8.11512 17.8822C8.17709 17.8202 8.10184 17.7656 8.10627 17.7037C8.08856 17.7066 8.07233 17.7096 8.04134 17.7155C8.06643 17.68 8.08266 17.6564 8.09889 17.6314C8.03101 17.624 7.96904 17.5266 7.96757 17.4366C8.00445 17.4233 8.03987 17.4115 8.08413 17.3967C8.0561 17.3746 8.03987 17.3599 8.00445 17.3303C8.09004 17.3554 8.1284 17.3348 8.1402 17.2669C8.14316 17.2521 8.16824 17.2433 8.18152 17.23C8.21546 17.1946 8.24792 17.1577 8.26563 17.14C8.34826 17.1046 8.4117 17.0618 8.48105 17.0529C8.55631 17.0426 8.63599 17.0603 8.71271 17.0751C8.75403 17.0825 8.79239 17.109 8.83666 17.1105C8.8765 17.1636 8.91634 17.2182 8.95913 17.2698C8.96798 17.2817 8.98864 17.2876 9.00487 17.2876C9.09783 17.2905 9.19226 17.2861 9.28522 17.292C9.34129 17.2964 9.39589 17.3156 9.45196 17.3274C9.53164 17.3436 9.60984 17.3599 9.68952 17.3761C9.7028 17.379 9.72198 17.3761 9.73083 17.3835C9.81346 17.4646 9.9138 17.4469 10.0112 17.4263C10.0392 17.4204 10.0643 17.3967 10.0909 17.3805C10.0717 17.3672 10.0525 17.354 10.0333 17.3392C9.98168 17.3023 9.93151 17.2639 9.87986 17.2271C9.81642 17.1813 9.75002 17.1385 9.68804 17.0913C9.63788 17.0529 9.59213 17.0102 9.54492 16.9688C9.54639 16.8774 9.46671 16.836 9.41064 16.7829C9.35457 16.7298 9.28817 16.69 9.22325 16.6457C9.18046 16.6162 9.12882 16.597 9.09045 16.5616C9.05651 16.5306 9.03586 16.4849 9.0093 16.4465C9.00339 16.4391 8.99897 16.4288 8.99159 16.4258C8.88683 16.3875 8.85584 16.3019 8.84699 16.1912C8.8042 16.1912 8.76288 16.1912 8.71714 16.1912C8.72157 16.1809 8.72894 16.1661 8.73042 16.1514C8.73337 16.1278 8.7437 16.0894 8.7319 16.0806C8.68173 16.0451 8.65369 15.995 8.61975 15.9463C8.58582 15.8991 8.5327 15.8666 8.48843 15.8268C8.4781 15.8164 8.47073 15.7987 8.46925 15.784C8.46482 15.6895 8.42941 15.6143 8.35121 15.5553C8.32317 15.5346 8.31874 15.483 8.30251 15.4461C8.29661 15.4564 8.28923 15.4667 8.28333 15.4756C8.27448 15.449 8.26415 15.4239 8.25677 15.3974C8.24939 15.3753 8.24497 15.3531 8.23759 15.3192C8.22874 15.3 8.21398 15.269 8.19627 15.2395C8.18742 15.2247 8.17119 15.2129 8.16086 15.1982C8.14168 15.1687 8.10774 15.1377 8.11069 15.1082C8.1166 15.0403 8.08118 15.03 8.04282 15.03C7.9779 14.9031 7.97642 14.76 7.88051 14.6522C7.87461 14.6463 7.87608 14.6345 7.87461 14.6257C7.8628 14.5401 7.87018 14.4457 7.83624 14.3704C7.80083 14.2878 7.82739 14.2081 7.80821 14.1299C7.79493 14.0738 7.76689 14.0207 7.76247 13.9646C7.75804 13.91 7.77427 13.854 7.7846 13.7979C7.79345 13.7507 7.80378 13.7035 7.81411 13.6563C7.82591 13.6017 7.7905 13.5353 7.8628 13.4969C7.87461 13.491 7.87756 13.4408 7.86575 13.4275C7.81706 13.3759 7.86428 13.3538 7.89084 13.3213C7.93068 13.2726 7.96757 13.2195 8.00741 13.1693C8.09151 13.1398 8.18447 13.1074 8.28628 13.0719C8.37777 13.1487 8.37777 13.1487 8.48843 13.0882C8.46482 13.1575 8.51499 13.1826 8.54598 13.2269C8.62566 13.339 8.77469 13.3523 8.84846 13.4615C8.92667 13.578 9.04766 13.5825 9.16718 13.5943C9.18931 13.5958 9.21145 13.6046 9.24686 13.6149C9.14947 13.4453 9.15095 13.2342 8.99307 13.0941C9.00192 13.0808 9.0152 13.0616 9.02995 13.0395C9.00339 12.9996 8.96798 12.9627 8.95323 12.917C8.937 12.8668 8.93995 12.8093 8.93109 12.7562C8.92814 12.7355 8.91191 12.7178 8.90748 12.6972C8.90011 12.6603 8.90748 12.6175 8.89273 12.585C8.86912 12.5334 8.83076 12.4876 8.80715 12.4522C8.80715 12.4124 8.81305 12.3755 8.80567 12.3415C8.79387 12.2781 8.77173 12.2161 8.75698 12.1527C8.75255 12.1305 8.7496 12.0907 8.75993 12.0848C8.83518 12.0435 8.78944 12.0199 8.75108 11.9918C8.7437 11.9874 8.73632 11.9697 8.73632 11.9697C8.80715 11.9122 8.73042 11.8443 8.74813 11.7779C8.76878 11.6967 8.74665 11.6038 8.74518 11.5167C8.7437 11.3588 8.70681 11.198 8.77616 11.0445C8.77911 11.0372 8.78649 11.0313 8.78649 11.0254C8.78649 10.9442 8.77764 10.8616 8.78354 10.7804C8.79239 10.658 8.75108 10.5325 8.81453 10.4115C8.83223 10.3791 8.816 10.3304 8.81748 10.2891C8.81895 10.2374 8.81895 10.1858 8.82338 10.1341C8.83518 10.0043 8.90453 9.89215 8.93404 9.76968C8.9547 9.68558 9.01225 9.60147 8.97536 9.50556C8.96503 9.479 8.95765 9.45097 8.94585 9.42441C8.88683 9.29751 8.8042 9.17799 8.82338 9.02454C8.83813 8.9124 8.89273 8.82977 9.00635 8.80321C9.06684 8.78845 9.13029 8.78845 9.19226 8.77665C9.24243 8.76779 9.3044 8.76779 9.30293 8.68812C9.30293 8.67779 9.31031 8.66303 9.31916 8.65565C9.41802 8.5745 9.5095 8.47859 9.62017 8.41809C9.68214 8.38415 9.7692 8.34136 9.85478 8.38711C9.88282 8.40186 9.92265 8.39743 9.95217 8.41071C9.97135 8.41957 9.98463 8.44318 9.99938 8.46236C10.0156 8.48301 10.0259 8.51548 10.0481 8.52581C10.1145 8.55974 10.1779 8.6409 10.1691 8.71615C10.1558 8.82977 10.1381 8.94486 10.1115 9.057C10.0909 9.14553 10.054 9.23111 10.0245 9.32112C10.0732 9.37572 10.1337 9.44064 10.1927 9.50556C10.1942 9.50704 10.1971 9.50851 10.1986 9.50999C10.231 9.64279 10.3638 9.69443 10.4317 9.79624C10.4627 9.84199 10.5188 9.8833 10.4568 9.95265C10.4937 9.96446 10.5217 9.97331 10.5557 9.98364C10.5571 9.99692 10.5601 10.0205 10.563 10.0441C10.5675 10.0397 10.5734 10.0353 10.5778 10.0309C10.6088 10.0559 10.6427 10.0781 10.6678 10.1076C10.7194 10.1696 10.7681 10.236 10.8154 10.3009C10.8272 10.3186 10.8316 10.3407 10.8404 10.3599C10.8596 10.3983 10.8803 10.4366 10.9024 10.475C10.9157 10.4986 10.9393 10.5193 10.9423 10.5429C10.9526 10.6181 11.0116 10.6447 11.0603 10.6845C11.0942 10.7126 11.1193 10.7509 11.1474 10.7863C11.1621 10.8055 11.1695 10.8409 11.1857 10.8439C11.2816 10.8616 11.3141 10.9472 11.3584 11.0121C11.3967 11.0682 11.4351 11.1065 11.5059 11.105C11.5103 11.2187 11.5605 11.2851 11.6756 11.291C11.683 11.291 11.6874 11.3116 11.6963 11.3175C11.7553 11.3603 11.8158 11.4016 11.8822 11.4474C11.8807 11.4488 11.8689 11.4695 11.8453 11.5079C11.8969 11.5211 11.9441 11.533 11.9899 11.5477C12.0076 11.5536 12.0282 11.5625 12.0386 11.5757C12.0769 11.6274 12.1094 11.6849 12.1507 11.7366C12.1714 11.7617 12.2009 11.7882 12.2304 11.7971C12.3396 11.8251 12.4148 11.9004 12.5004 11.9638C12.5786 12.0214 12.6686 12.0641 12.769 12.1246C12.7808 12.1586 12.8073 12.191 12.8796 12.1925C12.9018 12.1925 12.98 12.2028 12.9932 12.2692C12.9977 12.2899 13.0257 12.3106 13.0478 12.3238C13.1216 12.3681 13.1983 12.4094 13.278 12.4537C13.2825 12.4389 13.2884 12.4212 13.2898 12.4138C13.3252 12.4404 13.3607 12.467 13.3961 12.4921C13.4448 12.526 13.492 12.5599 13.5422 12.5909C13.5554 12.5998 13.5731 12.6042 13.5894 12.6071C13.6617 12.6145 13.7192 12.6514 13.7738 12.6957C13.79 12.709 13.8107 12.7149 13.8284 12.7237C13.9199 12.7665 14.0173 12.7857 14.1147 12.8049C14.1825 12.8181 14.2548 12.8432 14.3109 12.8816C14.398 12.9406 14.485 12.9731 14.5898 12.9687C14.6134 12.9672 14.64 12.9878 14.6636 12.9982C14.668 12.9996 14.6695 13.0085 14.6739 13.0085C14.7565 13.0218 14.8406 13.0454 14.9218 13.0424C14.9867 13.0395 15.0442 13.01 15.1062 13.0675C15.1328 13.0926 15.1962 13.0764 15.2405 13.0852C15.298 13.097 15.3526 13.1177 15.4102 13.1295C15.453 13.1383 15.4972 13.1369 15.54 13.1428C15.5784 13.1472 15.633 13.1133 15.6448 13.1856C15.6448 13.187 15.6802 13.1826 15.6964 13.19C15.7732 13.2033 15.8514 13.2239 15.9281 13.2298C15.9871 13.2342 16.0461 13.221 16.1052 13.2121C16.1509 13.2047 16.1789 13.1767 16.1789 13.1265C16.1775 13.0528 16.1745 12.979 16.173 12.8875C16.2217 12.8609 16.207 12.7945 16.2025 12.7296C16.2011 12.6913 16.2025 12.6455 16.2217 12.616C16.2601 12.5555 16.2586 12.4965 16.2453 12.4316C16.2394 12.405 16.2439 12.374 16.2527 12.3475C16.2734 12.2825 16.3014 12.222 16.3191 12.1571C16.325 12.1335 16.3073 12.104 16.2999 12.0715C16.3162 12.07 16.3324 12.07 16.3383 12.07C16.3457 12.0125 16.3531 11.9564 16.3604 11.9018C16.3649 11.9018 16.3708 11.9018 16.3752 11.9004C16.3811 11.9181 16.387 11.9358 16.3929 11.9535C16.4106 11.8768 16.4578 11.8118 16.4534 11.7322C16.4519 11.7056 16.4873 11.679 16.5021 11.6495C16.5139 11.6289 16.5227 11.6053 16.5301 11.5816C16.5345 11.5698 16.5272 11.5536 16.5331 11.5462C16.5788 11.4843 16.6275 11.4252 16.6718 11.3633C16.6909 11.3367 16.6969 11.3013 16.7146 11.2762C16.7633 11.2069 16.7411 11.0947 16.8429 11.0549C16.8518 11.0519 16.8621 11.0342 16.8606 11.0254C16.8415 10.9132 16.9329 10.8822 16.9979 10.8232C17.0879 10.7406 17.1734 10.6506 17.2428 10.5517C17.2826 10.4956 17.3166 10.4573 17.3845 10.4263C17.4789 10.385 17.5586 10.3097 17.6427 10.2463C17.6574 10.2345 17.6619 10.2094 17.6707 10.1902C17.6781 10.1755 17.6869 10.1489 17.6943 10.1489C17.7917 10.1504 17.8374 10.0589 17.9156 10.0264C17.9452 10.0146 17.9673 9.98216 17.9865 9.95118C18.0337 9.9438 18.075 9.93494 18.0721 9.86855C18.0721 9.85822 18.0971 9.84199 18.1134 9.83608C18.1753 9.81248 18.2373 9.79034 18.2978 9.76968C18.2978 9.75345 18.2978 9.73427 18.2978 9.71509C18.3111 9.71509 18.3229 9.71804 18.3362 9.71656C18.3952 9.70624 18.4557 9.70033 18.5103 9.67968C18.5959 9.64869 18.677 9.60738 18.7611 9.57049C18.7965 9.55426 18.8305 9.53655 18.8644 9.51737C18.9544 9.46572 19.0474 9.45835 19.1507 9.45835C19.2303 9.45835 19.3086 9.4067 19.3897 9.38309C19.4635 9.36096 19.5358 9.32555 19.6155 9.36539C19.6199 9.36686 19.6273 9.36981 19.6302 9.36834C19.7468 9.27833 19.856 9.43916 19.9711 9.37867C19.977 9.37572 19.9932 9.38457 20.0035 9.39195C20.0316 9.4126 20.0567 9.41556 20.0921 9.39932C20.1142 9.389 20.1496 9.41113 20.1791 9.40965C20.2367 9.40965 20.2942 9.40375 20.3518 9.39932C20.4005 9.39637 20.4491 9.39047 20.4978 9.38752C20.5524 9.38457 20.5893 9.40818 20.6085 9.46425C20.6144 9.48195 20.6439 9.50114 20.6646 9.50261C20.7413 9.50851 20.8195 9.50704 20.8962 9.50704C20.9553 9.50704 21.0084 9.56163 21.0733 9.52327C21.0792 9.52032 21.0984 9.54245 21.1131 9.55131C21.1279 9.56163 21.1441 9.57934 21.1604 9.58082C21.2533 9.5941 21.2607 9.6118 21.2149 9.69886C21.2135 9.70181 21.2149 9.70771 21.2149 9.72394C21.2961 9.72394 21.3787 9.72542 21.4599 9.72394C21.5897 9.72099 21.7019 9.75493 21.7919 9.85674C21.8302 9.89953 21.8848 9.92904 21.9262 9.96888C21.9955 10.0353 22.0634 10.1032 22.1268 10.174C22.1593 10.2109 22.1814 10.2581 22.2109 10.2994C22.2375 10.3378 22.2936 10.3201 22.3334 10.2832C22.3821 10.2625 22.4426 10.2551 22.4751 10.2197C22.5341 10.1563 22.6093 10.1563 22.6816 10.1386C22.7274 10.1268 22.7702 10.1061 22.8071 10.0781C22.8557 10.084 22.9295 10.112 22.9502 10.0899C23.0122 10.0264 23.0992 10.0323 23.1686 9.98511C23.2261 10.022 23.2792 10.0397 23.3382 9.96888C23.3604 9.94232 23.4194 9.94527 23.4637 9.9379C23.4902 9.93199 23.5168 9.93052 23.5507 9.92609C23.5345 9.83018 23.6083 9.80362 23.6717 9.78739C23.7499 9.76821 23.8104 9.73132 23.8694 9.67968C23.9093 9.64426 23.9654 9.62656 24.0155 9.60147C24.1041 9.55868 24.1926 9.51737 24.2811 9.47753C24.3092 9.46425 24.3431 9.45982 24.3741 9.4554C24.4464 9.44507 24.5202 9.43769 24.5821 9.43179C24.5969 9.46277 24.6028 9.49671 24.622 9.50999C24.6338 9.51737 24.6662 9.49523 24.7075 9.48048C24.7459 9.53655 24.7931 9.6059 24.8403 9.67525C24.8138 9.71657 24.7902 9.7564 24.7666 9.79477C24.7739 9.79477 24.7799 9.79329 24.7872 9.79329C24.7976 9.81985 24.8182 9.84789 24.8138 9.8715C24.8049 9.91429 24.8654 9.98806 24.7636 9.99544C24.7518 9.99692 24.7371 10.0264 24.7356 10.0456C24.7282 10.1105 24.7194 10.1681 24.6692 10.2242C24.6338 10.2625 24.6323 10.3333 24.6175 10.3894C24.6087 10.4233 24.6116 10.4632 24.5585 10.4691C24.5482 10.4706 24.5393 10.4986 24.5305 10.5134C24.5452 10.5178 24.5585 10.5222 24.5615 10.5237C24.5172 10.5783 24.47 10.6373 24.4213 10.6948C24.4139 10.7037 24.4006 10.7096 24.3888 10.7126C24.321 10.7258 24.3003 10.7716 24.2988 10.8335C24.2988 10.8394 24.2959 10.8483 24.2929 10.8513C24.2044 10.9147 24.1159 10.9752 24.0288 11.0401C24.0067 11.0564 23.9963 11.0888 23.9845 11.108C24.0627 11.1331 24.1291 11.1552 24.1955 11.1744C24.2162 11.1803 24.2398 11.1847 24.259 11.1788C24.3505 11.1552 24.439 11.1419 24.5364 11.1714C24.5821 11.1862 24.6441 11.1552 24.6957 11.136C24.7371 11.1198 24.7621 11.1198 24.7931 11.1582C24.8153 11.1862 24.8654 11.2128 24.8979 11.2069C24.9776 11.1921 25.0204 11.2275 25.0602 11.2865C25.0868 11.3264 25.1177 11.3647 25.1517 11.3987C25.2402 11.4872 25.2181 11.5831 25.1768 11.682C25.1591 11.7248 25.1443 11.7735 25.1148 11.8059C25.0617 11.8635 25.0012 11.9136 24.9392 11.9609C24.8595 12.0199 24.8359 12.1055 24.8271 12.1955C24.8226 12.2397 24.802 12.2589 24.7695 12.2796C24.7577 12.287 24.7548 12.3106 24.7444 12.3356C24.6913 12.3356 24.6426 12.3637 24.5998 12.4183C24.5438 12.4891 24.47 12.5466 24.4154 12.6189C24.3962 12.644 24.4065 12.6942 24.4021 12.7399C24.3608 12.7281 24.3298 12.7178 24.3165 12.7134C24.2487 12.7798 24.1867 12.8373 24.1218 12.9023C24.1159 12.8993 24.1026 12.8934 24.0878 12.886C24.0908 12.8919 24.0952 12.8978 24.0982 12.9052C24.0716 12.9303 24.0465 12.9568 24.0185 12.979C23.9786 13.01 23.9211 13.066 23.8975 13.0646C23.8193 13.0616 23.8252 13.1619 23.7529 13.1575C23.7278 13.156 23.6924 13.19 23.6717 13.2165C23.6171 13.2829 23.5374 13.2874 23.4651 13.3139C23.415 13.3316 23.3751 13.3789 23.3309 13.4128C23.325 13.4172 23.3235 13.4275 23.3176 13.4305C23.2246 13.4659 23.1995 13.5116 23.2851 13.5854C23.2925 13.5913 23.2896 13.6267 23.2807 13.6341C23.2173 13.6858 23.2586 13.733 23.2704 13.7905C23.2807 13.8363 23.3014 13.8864 23.2748 13.9455C23.2541 13.9912 23.2881 14.0591 23.294 14.1166C23.2969 14.1432 23.2955 14.1697 23.291 14.1948C23.2837 14.2361 23.2689 14.2745 23.263 14.3158C23.2556 14.3616 23.2556 14.4073 23.2512 14.456C23.2586 14.4575 23.2719 14.4604 23.291 14.4663C23.2719 14.4929 23.2527 14.515 23.2409 14.5401C23.2305 14.5608 23.2173 14.5903 23.2261 14.608C23.2586 14.6862 23.2586 14.7408 23.2099 14.8101C23.232 14.819 23.2541 14.8278 23.2778 14.8382C23.204 14.9267 23.1966 15.0256 23.2232 15.1347C23.2276 15.1495 23.1892 15.1761 23.17 15.1967C23.1848 15.2041 23.2084 15.2159 23.2335 15.2277C23.2246 15.2277 23.2173 15.2292 23.2084 15.2292C23.1907 15.3089 23.1745 15.3885 23.1553 15.4726C23.1435 15.4741 23.1228 15.4771 23.0904 15.4815C23.1184 15.5007 23.1376 15.514 23.1509 15.5228C23.1287 15.5951 23.0933 15.6615 23.0933 15.7279C23.0948 15.8017 23.0963 15.8725 23.0638 15.9404C23.0594 15.9507 23.0549 15.9684 23.0608 15.9758C23.1066 16.0496 23.0564 16.1189 23.0461 16.1868C23.0372 16.2443 22.9944 16.296 22.9679 16.3506C22.9487 16.3889 22.9266 16.4273 22.9103 16.4672C22.9044 16.4804 22.9103 16.4981 22.9133 16.5144C22.9162 16.5276 22.928 16.5439 22.9236 16.5542C22.9044 16.6073 22.8749 16.656 22.8602 16.7091C22.8498 16.7475 22.841 16.7991 22.8587 16.8316C22.8867 16.8833 22.8528 16.8936 22.8292 16.9201C22.8115 16.9393 22.7982 16.9659 22.7908 16.991C22.782 17.0249 22.7938 17.0706 22.7746 17.0943C22.7008 17.1872 22.6993 17.32 22.6049 17.4041C22.5828 17.4233 22.5769 17.4868 22.5902 17.5133C22.6182 17.5679 22.5931 17.6033 22.5783 17.6491C22.5547 17.7273 22.54 17.8099 22.5178 17.8896C22.5016 17.9486 22.5119 18.0165 22.4426 18.0578C22.4234 18.0681 22.4337 18.1242 22.4205 18.1537C22.3777 18.2467 22.3275 18.3352 22.2862 18.4296C22.2596 18.4886 22.2449 18.5521 22.2242 18.6141C22.208 18.6628 22.2036 18.7247 22.1696 18.7557C22.0988 18.8221 22.0944 18.9092 22.0708 18.9903C22.0693 18.9977 22.0708 19.0095 22.0663 19.011C21.9926 19.0552 21.9808 19.1423 21.935 19.2043C21.9055 19.2426 21.8966 19.2781 21.8937 19.3208C21.8922 19.3415 21.8863 19.3666 21.873 19.3784C21.8037 19.4389 21.786 19.52 21.7727 19.6056C21.7698 19.6233 21.7609 19.6455 21.7476 19.6558C21.6414 19.7325 21.5632 19.8373 21.4864 19.9406C21.4525 19.9863 21.4245 20.0439 21.4171 20.0999C21.3964 20.1471 21.3802 20.1708 21.3153 20.1649ZM22.9517 11.9933C22.8203 11.9166 22.658 11.924 22.5518 11.8089C22.5651 11.7985 22.5754 11.7912 22.5872 11.7838C22.5503 11.7631 22.5193 11.744 22.506 11.7366C22.4987 11.6835 22.4854 11.6392 22.4898 11.5964C22.4957 11.5492 22.5208 11.5034 22.5356 11.4577C22.5783 11.4164 22.6211 11.3721 22.6684 11.3293C22.692 11.3087 22.7451 11.2895 22.7436 11.2747C22.7289 11.1626 22.8498 11.1449 22.8779 11.0637C22.8395 11.0386 22.8277 11.015 22.8853 10.987C22.9162 10.9722 22.9399 10.9398 22.9753 10.9073C22.9517 10.9014 22.9428 10.897 22.9354 10.8985C22.8853 10.9088 22.8292 10.9383 22.7864 10.925C22.7008 10.9014 22.6359 10.9427 22.5606 10.956C22.5208 10.9634 22.4751 10.9442 22.4323 10.9339C22.4072 10.928 22.3821 10.9073 22.3585 10.9103C22.267 10.9236 22.1711 10.928 22.1032 11.0062C22.0914 11.0195 22.0634 11.0209 22.0427 11.0224C22.0014 11.0239 21.9601 11.0195 21.9188 11.0239C21.8966 11.0254 21.876 11.0386 21.8539 11.046C21.8686 11.0652 21.8819 11.0859 21.8981 11.108C21.845 11.1021 21.7919 11.0977 21.7329 11.0918C21.7314 11.0785 21.727 11.0534 21.7225 11.0268C21.7181 11.0327 21.7122 11.0386 21.7078 11.0431C21.6886 11.0357 21.6679 11.0327 21.6517 11.0224C21.6266 11.0047 21.606 10.9782 21.5794 10.9604C21.544 10.9354 21.4879 10.9236 21.4717 10.8896C21.4141 10.7716 21.3064 10.7701 21.2002 10.7509C21.1869 10.7258 21.1722 10.6978 21.1589 10.6757C21.091 10.6609 21.0276 10.6462 20.9641 10.6329C20.9331 10.6255 20.8992 10.6255 20.8711 10.6122C20.8003 10.5783 20.7354 10.537 20.6646 10.503C20.5731 10.4602 20.486 10.4012 20.3754 10.4322C20.3208 10.447 20.2647 10.4573 20.1909 10.4735C20.1275 10.4617 20.0434 10.4455 19.9593 10.4278C19.8427 10.4042 19.7291 10.4514 19.6125 10.4366C19.5786 10.4322 19.5417 10.4455 19.4989 10.4529C19.49 10.4971 19.4384 10.4853 19.3971 10.4883C19.3381 10.4912 19.279 10.4897 19.22 10.4927C19.1949 10.4942 19.1684 10.503 19.1433 10.5075C19.0636 10.5606 18.978 10.6122 18.8969 10.6698C18.8275 10.7185 18.7198 10.686 18.6726 10.779C18.6328 10.8557 18.5339 10.8306 18.4793 10.894C18.4454 10.9339 18.3731 10.9413 18.317 10.9634C18.317 10.9722 18.3155 10.9796 18.3155 10.9885C18.3288 10.9944 18.3421 11.0003 18.3554 11.0062C18.3539 11.0136 18.3539 11.0195 18.3524 11.0268C18.3126 11.0327 18.2742 11.0386 18.2462 11.0416C18.2108 11.0623 18.1753 11.0755 18.1503 11.0977C18.1163 11.1287 18.0912 11.167 18.0602 11.201C18.0101 11.2541 17.9643 11.3116 17.9068 11.3544C17.8463 11.3987 17.8389 11.4769 17.7696 11.5167C17.6958 11.558 17.6486 11.6318 17.6589 11.7277C17.6604 11.7381 17.6456 11.7513 17.6382 11.7617C17.6146 11.7926 17.5836 11.8207 17.5689 11.8546C17.5276 11.9432 17.4907 12.0346 17.4523 12.1246C17.4494 12.1335 17.4435 12.1453 17.4361 12.1468C17.3358 12.1689 17.3299 12.2692 17.3151 12.3327C17.3018 12.3858 17.293 12.4404 17.2723 12.4935C17.2635 12.5171 17.2679 12.5466 17.2664 12.5732C17.2649 12.5998 17.2664 12.6249 17.2664 12.6514C17.2428 12.6558 17.2221 12.6588 17.2044 12.6617C17.1971 12.7311 17.1882 12.7975 17.1808 12.8698C17.1823 12.8713 17.1956 12.8831 17.2089 12.8934C17.1926 12.9111 17.1764 12.9288 17.172 12.9332C17.172 13.0055 17.172 13.0646 17.172 13.1236C17.1675 13.1206 17.1616 13.1162 17.1572 13.1133C17.1351 13.1546 17.0938 13.1988 17.0982 13.2372C17.1041 13.2859 17.1454 13.3331 17.1764 13.3774C17.2 13.4098 17.2354 13.4334 17.259 13.4659C17.2797 13.4954 17.29 13.5338 17.3077 13.5692C17.3077 13.6076 17.3092 13.6533 17.3077 13.699C17.3062 13.7345 17.3107 13.7758 17.2944 13.8053C17.2605 13.8658 17.2207 13.9263 17.1734 13.9764C17.138 14.0148 17.0849 14.0679 17.0451 14.065C16.9182 14.0532 16.8193 14.1107 16.7116 14.155C16.6541 14.1786 16.5936 14.2066 16.5331 14.2111C16.4386 14.2184 16.3427 14.1978 16.2498 14.2081C16.1922 14.2155 16.148 14.1993 16.0978 14.1845C16.0653 14.1742 16.0329 14.1579 16.0004 14.1565C15.9738 14.155 15.9443 14.1712 15.9178 14.1786C15.9192 14.1845 15.9207 14.1904 15.9222 14.1978C15.8337 14.1933 15.7437 14.1771 15.6566 14.1874C15.6005 14.1933 15.5577 14.2007 15.5297 14.1417C15.4736 14.1815 15.4205 14.1786 15.3659 14.1476C15.3408 14.1343 15.3157 14.1137 15.2892 14.1122C15.2007 14.1078 15.1106 14.1166 15.0236 14.1063C14.9601 14.0989 14.8937 14.096 14.8362 14.062C14.8185 14.0517 14.7934 14.0502 14.7713 14.0487C14.699 14.0414 14.6252 14.0399 14.5544 14.0266C14.5293 14.0222 14.5101 13.9912 14.488 13.9705C14.4791 13.9617 14.4717 13.9528 14.4629 13.944C14.4526 13.9528 14.4408 13.9617 14.4349 13.972C14.426 13.9868 14.423 14.0045 14.423 14.006C14.3699 13.9838 14.3227 13.9691 14.2814 13.9469C14.1899 13.8982 14.1029 13.8422 14.0099 13.7964C13.8727 13.7286 13.7118 13.7271 13.582 13.64C13.4817 13.6622 13.4271 13.5279 13.3223 13.5633C13.3193 13.5648 13.312 13.5589 13.312 13.5559C13.3046 13.4998 13.2603 13.5249 13.2308 13.5176C13.2102 13.5131 13.1851 13.5146 13.1674 13.5043C13.07 13.4423 12.9755 13.3759 12.8796 13.3139C12.8368 13.2874 12.7896 13.2697 12.7454 13.2446C12.7173 13.2298 12.6922 13.2106 12.6672 13.19C12.6214 13.1546 12.5801 13.1088 12.5137 13.1472C12.5107 13.1487 12.5019 13.1324 12.493 13.1295C12.4739 13.1206 12.4532 13.1059 12.4355 13.1074C12.3396 13.1147 12.282 13.0469 12.257 12.9819C12.2171 12.8801 12.0327 12.7842 11.953 12.7886C11.9412 12.7695 11.9309 12.737 11.9161 12.734C11.8246 12.7193 11.7804 12.6499 11.7361 12.5776C11.6461 12.647 11.6003 12.5511 11.5502 12.5216C11.469 12.4729 11.41 12.3888 11.3406 12.3194C11.3303 12.3091 11.3156 12.3047 11.3038 12.2988C11.2521 12.2737 11.199 12.2574 11.1769 12.191C11.1636 12.1512 11.1237 12.1187 11.0928 12.0878C11.019 12.0155 10.9437 11.9461 10.8685 11.8753C10.8434 11.8517 10.8257 11.8148 10.7962 11.8015C10.7091 11.7646 10.6353 11.7174 10.5896 11.6333C10.5793 11.6141 10.5557 11.6023 10.5424 11.5846C10.5129 11.5433 10.4302 11.5256 10.4789 11.4547C10.414 11.3943 10.3225 11.3485 10.2989 11.2777C10.2473 11.1257 10.0864 11.0755 10.0245 10.9398C10.0082 10.9029 9.96545 10.8749 9.95659 10.838C9.93446 10.7421 9.82822 10.7332 9.79576 10.6506C9.78543 10.6875 9.78838 10.7155 9.78543 10.745C9.781 10.8203 9.79576 10.9088 9.7633 10.9693C9.71313 11.0623 9.73821 11.1552 9.72051 11.2467C9.7146 11.2762 9.71165 11.319 9.72788 11.3397C9.7633 11.3839 9.79281 11.4193 9.7692 11.4843C9.74559 11.5507 9.73821 11.623 9.72346 11.6923C9.72198 11.6997 9.72346 11.7071 9.72493 11.7159C9.73821 11.7115 9.75002 11.7071 9.76625 11.7012C9.77363 11.7262 9.78838 11.7499 9.78248 11.7676C9.75297 11.8605 9.74854 11.9491 9.77658 12.0464C9.79281 12.101 9.77658 12.1645 9.81937 12.2147C9.8297 12.2265 9.82527 12.2501 9.82822 12.2678C9.8356 12.3076 9.83265 12.3534 9.8533 12.3858C9.87691 12.4242 9.9197 12.4522 9.95217 12.4832C9.93003 12.5142 9.91528 12.5348 9.90052 12.557C9.93889 12.5791 9.97135 12.5983 10.0112 12.6204C9.992 12.6426 9.97725 12.6603 9.96987 12.6676C9.96545 12.7503 10.0156 12.7768 10.0894 12.7842C10.085 12.7916 10.0805 12.7975 10.0776 12.8049C10.0392 12.8122 10.0009 12.8181 9.93741 12.83C9.992 12.886 10.0377 12.9318 10.0879 12.9834C10.0923 12.9937 10.1012 13.0144 10.11 13.0365C10.082 13.0572 10.0894 13.1251 10.1292 13.1383C10.1676 13.1516 10.175 13.1678 10.1764 13.2092C10.1779 13.2475 10.175 13.2962 10.2192 13.3302C10.2428 13.3493 10.2458 13.3951 10.2591 13.429C10.2738 13.4689 10.2842 13.5117 10.3019 13.55C10.324 13.5943 10.352 13.6371 10.3771 13.6799C10.3948 13.7094 10.4111 13.7374 10.4288 13.7654C10.4553 13.8068 10.4863 13.8466 10.5099 13.8894C10.5306 13.9278 10.538 13.9691 10.5955 13.975C10.6162 13.9779 10.6309 14.0251 10.6486 14.0532C10.6737 14.093 10.6929 14.1402 10.7253 14.1742C10.7696 14.2199 10.8242 14.2568 10.8729 14.2996C10.8832 14.3084 10.8862 14.3291 10.8862 14.3453C10.8877 14.3734 10.8862 14.4014 10.8862 14.4427C10.9083 14.4265 10.9186 14.4176 10.9186 14.4176C10.9673 14.4471 11.019 14.4663 11.0529 14.5017C11.1474 14.6006 11.2374 14.7039 11.3215 14.8131C11.3613 14.8647 11.4159 14.9296 11.3303 14.996C11.3229 15.0019 11.3274 15.0241 11.3244 15.0374C11.3185 15.061 11.317 15.0905 11.3023 15.1067C11.258 15.1554 11.2256 15.2174 11.1533 15.2307C11.1326 15.2351 11.1149 15.2513 11.0942 15.2602C11.0205 15.2971 10.9482 15.3384 10.864 15.2838C10.8552 15.2779 10.8375 15.2852 10.8242 15.2852C10.7888 15.2838 10.7549 15.2823 10.7194 15.2793C10.6471 15.2749 10.5675 15.2469 10.504 15.2675C10.3993 15.303 10.324 15.2247 10.2296 15.2247C10.2089 15.2247 10.1823 15.1849 10.144 15.2085C10.1351 15.2129 10.1115 15.2041 10.1012 15.1938C10.0097 15.1023 9.98315 15.0993 9.87101 15.1613C9.85626 15.1702 9.8297 15.1716 9.81347 15.1643C9.72198 15.1185 9.63197 15.0683 9.54049 15.0211C9.45786 14.9783 9.37375 14.9385 9.2926 14.8942C9.21145 14.85 9.13029 14.8027 9.05061 14.757C9.04619 14.7629 9.04176 14.7688 9.03733 14.7747C9.05651 14.7954 9.0757 14.816 9.09488 14.8367C9.11701 14.8603 9.15685 14.8839 9.15537 14.9075C9.14947 15.0196 9.28227 15.03 9.30588 15.12C9.29555 15.1392 9.28522 15.1584 9.27194 15.182C9.31326 15.2129 9.3531 15.241 9.39146 15.2705C9.38851 15.2882 9.37671 15.3177 9.38556 15.3295C9.4431 15.4062 9.5036 15.48 9.56557 15.5523C9.59951 15.5922 9.63935 15.629 9.67476 15.6659C9.72936 15.7235 9.78395 15.7825 9.84003 15.8386C9.86511 15.8637 9.89757 15.8799 9.92118 15.905C9.96545 15.9522 10.0038 16.0038 10.0481 16.0496C10.0746 16.0776 10.1071 16.0997 10.1337 16.1263C10.1528 16.1455 10.1632 16.1735 10.1823 16.1912C10.2679 16.265 10.2945 16.3314 10.2606 16.4052C10.2797 16.4126 10.3033 16.4303 10.3166 16.4244C10.3638 16.4022 10.3993 16.4185 10.4376 16.4465C10.4878 16.4819 10.5483 16.5026 10.594 16.5424C10.6545 16.597 10.7032 16.6649 10.7903 16.6811C10.8316 16.69 10.8803 16.6885 10.9127 16.7091C10.9762 16.7505 11.0293 16.808 11.0898 16.8552C11.1149 16.8759 11.1459 16.8892 11.1754 16.9039C11.1857 16.9098 11.2078 16.9069 11.2093 16.9128C11.2315 16.9718 11.289 16.9792 11.3347 17.0042C11.3539 17.0146 11.3702 17.0308 11.3879 17.0426C11.4351 17.0721 11.4823 17.1061 11.5325 17.1282C11.5812 17.1489 11.6343 17.1607 11.6874 17.1651C11.8423 17.1769 11.9191 17.3126 12.0415 17.3746C12.046 17.3776 12.0474 17.3879 12.0504 17.3938C12.0961 17.4882 12.1433 17.5827 12.1891 17.6771C12.1832 17.6771 12.1758 17.6771 12.1699 17.6771C12.164 17.714 12.1566 17.7494 12.1492 17.7907C12.0799 17.7774 12.0179 17.7656 11.9427 17.7509C12.0046 17.8497 11.9515 17.9545 11.8512 17.9604C11.8187 17.9619 11.7863 17.956 11.7553 17.9589C11.7346 17.9604 11.7036 17.9678 11.6992 17.9811C11.6771 18.043 11.6328 18.0622 11.5723 18.0548C11.5679 18.0784 11.5649 18.0976 11.5635 18.108C11.5221 18.1153 11.4882 18.1153 11.4572 18.1271C11.4233 18.1404 11.3938 18.1699 11.3584 18.1788C11.227 18.2127 11.0942 18.2422 10.9614 18.2732C10.9747 18.2835 10.9895 18.2939 11.0042 18.3057C10.9703 18.316 10.9437 18.3101 10.9157 18.3071C10.898 18.3042 10.8759 18.2983 10.8626 18.3057C10.8242 18.3249 10.7903 18.3662 10.7534 18.3676C10.7032 18.3691 10.6383 18.465 10.6029 18.3499C10.5232 18.4429 10.4155 18.2983 10.3461 18.3735C10.4273 18.4621 10.504 18.5447 10.5807 18.6288C10.5837 18.6318 10.5852 18.6391 10.5881 18.6406C10.6752 18.6908 10.7696 18.7262 10.8463 18.7956C10.8685 18.8162 10.9068 18.8192 10.9319 18.828C10.9408 18.856 10.9467 18.9047 10.9585 18.9062C11.0205 18.9136 11.0588 18.9962 11.137 18.9608C11.1547 18.9534 11.1887 18.9844 11.2167 18.9962C11.2477 19.0095 11.2801 19.0198 11.3126 19.0302C11.317 19.0228 11.32 19.0154 11.3244 19.008C11.3362 19.0287 11.3451 19.0538 11.3628 19.07C11.3864 19.0907 11.4321 19.1246 11.4425 19.1172C11.5398 19.0464 11.5074 19.1438 11.5221 19.1777C11.59 19.1408 11.6299 19.163 11.6682 19.2235C11.6977 19.2249 11.7228 19.2205 11.7376 19.2294C11.7686 19.25 11.7922 19.284 11.8231 19.3046C11.8689 19.3356 11.9205 19.3385 11.9766 19.3341C12.0253 19.3297 12.074 19.3415 12.1389 19.3489C12.1419 19.3607 12.1507 19.3887 12.1522 19.3961C12.2452 19.3961 12.3337 19.3961 12.4222 19.3961C12.4532 19.4271 12.4975 19.4389 12.5255 19.4669C12.5786 19.5186 12.6391 19.5333 12.7085 19.5392C12.7749 19.5451 12.8413 19.5584 12.9077 19.5658C12.9328 19.5687 12.9608 19.5673 12.9844 19.5599C13.0847 19.5274 13.1821 19.5097 13.2707 19.5879C13.278 19.5938 13.2928 19.5982 13.3002 19.5953C13.3784 19.5687 13.4566 19.5584 13.5362 19.5968C13.5554 19.6056 13.5835 19.5953 13.6086 19.5938C13.6425 19.5909 13.6749 19.585 13.7089 19.5835C13.7325 19.582 13.7546 19.5879 13.7782 19.5894C13.7753 19.5923 13.7723 19.5968 13.7694 19.5997C13.8594 19.6543 13.9494 19.7089 14.0424 19.765C14.0542 19.8594 14.0837 19.9568 14.0704 20.0483C14.0571 20.1368 13.976 20.2106 13.9789 20.3109C13.8623 20.4201 13.7458 20.5293 13.6277 20.637C13.6071 20.6547 13.5761 20.6606 13.5525 20.6754C13.4595 20.7359 13.368 20.7964 13.2766 20.8584C13.2559 20.8731 13.2411 20.8967 13.2205 20.9115C13.1187 20.9838 13.0169 21.059 12.9106 21.1254C12.8427 21.1682 12.7675 21.2051 12.6922 21.2302C12.6435 21.2464 12.589 21.2346 12.5476 21.2863C12.527 21.3128 12.4812 21.3187 12.4458 21.332C12.3661 21.3645 12.2761 21.3822 12.2097 21.4323C12.1581 21.4722 12.102 21.4973 12.046 21.5268C11.9796 21.5622 11.9132 21.5991 11.8394 21.6389C11.8276 21.6389 11.7995 21.636 11.7745 21.6433C11.7199 21.661 11.6682 21.6906 11.6121 21.7053C11.5472 21.723 11.4793 21.7304 11.4129 21.7422C11.3569 21.7525 11.2979 21.757 11.2433 21.7747C11.1769 21.7968 11.1178 21.8352 11.0514 21.8573C10.9806 21.8824 10.9083 21.8957 10.8301 21.9016C10.7578 21.9075 10.6855 21.9458 10.6191 21.9812C10.5837 22.0004 10.594 22.0417 10.6324 22.055C10.7372 22.0904 10.8434 22.1185 10.96 22.1524C10.9836 22.2262 11.0293 22.2409 11.1267 22.1981C11.1444 22.1908 11.1754 22.2055 11.199 22.2144C11.2182 22.2218 11.2344 22.2409 11.2536 22.2483C11.3421 22.2822 11.4292 22.3295 11.5295 22.3088C11.5369 22.3073 11.5472 22.3059 11.5516 22.3103C11.624 22.3826 11.711 22.3236 11.7966 22.3516C11.8674 22.4372 11.9781 22.4608 12.0932 22.4667C12.1492 22.4696 12.2053 22.4652 12.2614 22.4637C12.2924 22.4623 12.3219 22.4608 12.3529 22.4593C12.3529 22.4623 12.3543 22.4652 12.3543 22.4682C12.4576 22.4593 12.5594 22.4519 12.6657 22.4431C12.6716 22.4682 12.676 22.4903 12.6819 22.5139C12.7114 22.511 12.738 22.5051 12.7631 22.508C12.8693 22.5198 12.9741 22.5331 13.0803 22.5464C13.1452 22.5552 13.2087 22.5715 13.2721 22.5685C13.3149 22.567 13.3607 22.5257 13.3621 22.6039C13.4034 22.5892 13.4492 22.5552 13.4772 22.567C13.5584 22.601 13.6336 22.5995 13.7207 22.5936C13.7782 22.5892 13.8373 22.5951 13.8992 22.5818C13.9671 22.567 14.0276 22.5228 14.1088 22.5419C14.1707 22.5567 14.2445 22.5715 14.3021 22.5095C14.3094 22.5006 14.3493 22.5213 14.3729 22.5301C14.3862 22.5346 14.398 22.5523 14.4083 22.5508C14.4658 22.5405 14.5352 22.5405 14.578 22.5065C14.6355 22.4637 14.6724 22.4933 14.7167 22.5095C14.7831 22.4298 15.1948 22.3811 15.2316 22.4505C15.2671 22.4357 15.301 22.415 15.3379 22.4047C15.4323 22.3782 15.5208 22.3236 15.6271 22.3457C15.664 22.3546 15.7068 22.3413 15.7466 22.3383C15.813 22.3324 15.8587 22.2542 15.9414 22.2867C15.9665 22.297 16.0137 22.2704 16.0417 22.2498C16.1052 22.204 16.1686 22.1804 16.2217 22.2026C16.2881 22.1745 16.3368 22.1524 16.387 22.1332C16.4504 22.1111 16.5139 22.0919 16.5773 22.0698C16.629 22.0521 16.688 22.0048 16.7308 22.0167C16.8134 22.0403 16.8901 22.0034 16.9285 21.968C16.9802 21.9193 17.0215 21.934 17.0628 21.9384C17.0731 21.9104 17.082 21.8883 17.0908 21.8661C17.0982 21.8691 17.1041 21.872 17.1115 21.875C17.1071 21.8883 17.1041 21.9016 17.0997 21.9148C17.1454 21.8971 17.1749 21.8617 17.2118 21.8425C17.3048 21.7953 17.4051 21.7643 17.4936 21.7112C17.5586 21.6714 17.6235 21.6492 17.6943 21.6301C17.7371 21.6183 17.7755 21.5932 17.8168 21.5755C17.8345 21.5681 17.8551 21.5696 17.8729 21.5666C17.895 21.5622 17.9171 21.5592 17.9378 21.5519C17.9894 21.5312 18.044 21.4825 18.0898 21.4899C18.1385 21.4987 18.1517 21.4722 18.1783 21.4559C18.2299 21.425 18.2831 21.394 18.3465 21.3571C18.345 21.3468 18.3391 21.3202 18.3332 21.2848C18.3583 21.301 18.3775 21.3128 18.3878 21.3187C18.5295 21.1549 18.7538 21.1505 18.9043 21.0221C18.9751 21.0517 19.012 21.0384 19.0312 20.9646C19.0666 20.8303 19.158 20.7757 19.2879 20.7595C19.313 20.7565 19.3528 20.7241 19.3528 20.7034C19.3543 20.6341 19.3882 20.6119 19.4502 20.6134C19.4841 20.6134 19.5019 20.5987 19.4871 20.5618C19.4797 20.5426 19.4738 20.5234 19.4679 20.5057C19.49 20.5116 19.5137 20.516 19.5314 20.5205C19.5978 20.4688 19.6612 20.4127 19.7335 20.3685C19.8058 20.3242 19.887 20.2917 19.9637 20.2549C19.9327 20.1796 19.9357 20.1767 20.0065 20.184C20.0139 20.1855 20.0257 20.187 20.0286 20.184C20.0685 20.128 20.1555 20.1265 20.1776 20.0483C20.1968 19.9804 20.2411 19.9302 20.2957 19.8845C20.3414 19.8476 20.3739 19.7945 20.4137 19.7502C20.4772 19.6809 20.5406 19.6145 20.607 19.5436C20.607 19.5436 20.5937 19.5348 20.579 19.5259C20.5864 19.5156 20.5923 19.4994 20.5996 19.4979C20.7 19.492 20.7147 19.3931 20.7428 19.3371C20.7841 19.253 20.8431 19.1762 20.8697 19.0833C20.8859 19.0243 20.9272 18.9726 20.9538 18.9165C20.9685 18.8856 20.973 18.8472 20.9921 18.8177C21.0423 18.738 21.0984 18.6613 21.153 18.5845C21.1722 18.558 21.1913 18.5329 21.212 18.5078C21.209 18.468 21.2149 18.4311 21.2327 18.3986C21.2769 18.3175 21.3492 18.2467 21.3168 18.1404C21.3153 18.1345 21.3256 18.1257 21.33 18.1168C21.3448 18.0829 21.3596 18.0475 21.3743 18.0135C21.4156 17.9766 21.5853 17.5502 21.5602 17.4912C21.6192 17.4351 21.6355 17.348 21.6001 17.2757C21.5956 17.2654 21.5868 17.2507 21.5912 17.2418C21.6104 17.1887 21.634 17.1415 21.6443 17.0825C21.662 16.9777 21.7225 16.8803 21.7609 16.7785C21.7875 16.7077 21.8052 16.6339 21.8347 16.5645C21.8435 16.5424 21.8878 16.5336 21.8937 16.5114C21.9144 16.4391 21.9262 16.3639 21.9394 16.2901C21.9571 16.1853 21.935 16.0614 22.0767 16.0201C22.0781 16.0201 22.0781 16.0112 22.0781 16.0112C22.0531 15.9935 22.0309 15.9787 22.0088 15.9625C22.0162 15.9596 22.0235 15.9581 22.0309 15.9551C22.0324 15.9256 22.0324 15.8946 22.0353 15.8651C22.0368 15.8519 22.0457 15.84 22.0486 15.8268C22.056 15.7987 22.0663 15.7722 22.0678 15.7441C22.0693 15.7117 22.0575 15.6792 22.059 15.6482C22.0634 15.5966 22.0781 15.5449 22.0826 15.4933C22.084 15.4785 22.0722 15.4579 22.0604 15.4446C22.0265 15.4092 22.0221 15.3767 22.0486 15.3325C22.0693 15.2971 22.0737 15.2543 22.0826 15.2247C22.0973 15.2085 22.1195 15.1952 22.1195 15.1834C22.118 15.1274 22.1209 15.0772 22.1696 15.0374C22.1829 15.027 22.1829 14.9872 22.174 14.968C22.115 14.8382 22.1637 14.7157 22.208 14.6006C22.2331 14.5327 22.2316 14.4781 22.2227 14.4132C22.2168 14.3719 22.2109 14.3114 22.2345 14.2863C22.2744 14.242 22.2523 14.2007 22.2582 14.1579C22.2641 14.1166 22.2714 14.0753 22.267 14.0355C22.2582 13.9514 22.2404 13.8673 22.2286 13.7831C22.2257 13.7581 22.2183 13.73 22.2272 13.7094C22.2567 13.643 22.2655 13.5869 22.1681 13.5485C22.2065 13.5308 22.2286 13.5205 22.2523 13.5102C22.2596 13.4467 22.267 13.3833 22.2714 13.3405C22.298 13.3066 22.3201 13.2888 22.3305 13.2652C22.357 13.2092 22.3806 13.1531 22.4028 13.0955C22.4308 13.0247 22.4692 13.0144 22.5252 13.0631C22.6064 12.9583 22.6861 12.8536 22.7672 12.7503C22.7834 12.7399 22.779 12.7119 22.7908 12.6986C22.8277 12.6573 22.8661 12.6189 22.9103 12.5865C22.9959 12.523 23.0874 12.4684 23.1258 12.3607C23.1287 12.3504 23.142 12.3415 23.1538 12.3371C23.2453 12.3047 23.3191 12.2501 23.381 12.1748C23.4091 12.1424 23.4519 12.1217 23.4873 12.0966C23.4902 12.101 23.4947 12.1055 23.4976 12.1099C23.5035 12.0789 23.5079 12.0479 23.5153 12.0096C23.446 11.9977 23.381 11.9859 23.3161 11.9756C23.3087 11.9741 23.3014 11.9786 23.294 11.9786C23.2704 11.9786 23.2409 11.9845 23.2246 11.9741C23.1228 11.9033 23.0343 11.9328 22.9517 11.9933ZM8.39547 17.2728C8.39695 17.1975 8.36154 17.171 8.31284 17.1636C8.30399 17.1621 8.27743 17.1931 8.27891 17.1975C8.30399 17.2389 8.3335 17.2772 8.36154 17.3171C8.37629 17.2979 8.38957 17.2802 8.39547 17.2728Z" fill="#FF9966"></path>
            </svg>