<svg width="100%" height="100%" viewBox="0 0 32 32" fill="none" xmlns="http://www.w3.org/2000/svg">
<path d="M9.15848 23.6954C9.3385 23.6821 9.51409 23.632 9.67197 23.6644C9.93757 23.719 10.1899 23.8371 10.454 23.9079C10.7875 23.9979 11.1224 24.1012 11.4633 24.1351C12.0314 24.1912 12.6024 24.2428 13.1778 24.1705C13.4434 24.1366 13.7223 24.2074 13.9953 24.2207C14.0942 24.2251 14.196 24.1897 14.2963 24.1853C14.4645 24.1794 14.6327 24.1853 14.8009 24.1853C14.9632 24.1853 15.1374 24.2237 15.2864 24.1794C15.825 24.0156 16.3724 24.1233 16.9154 24.0938C17.212 24.0791 17.5071 24.0554 17.8037 24.0333C17.8258 24.0318 17.8465 24.0068 17.8671 24.0068C18.2921 24.0112 18.717 24.023 19.142 24.0245C19.4843 24.0259 19.8384 23.9595 20.1645 24.0289C20.4818 24.0968 20.7429 23.8902 21.0676 23.9713C21.2741 24.023 21.5678 23.9433 21.7699 23.7353C21.8614 23.6408 22.0237 23.6172 22.1506 23.5552C22.5652 23.3546 22.8441 23.0049 23.0949 22.6389C23.2425 22.4235 23.3532 22.1786 23.4594 21.9366C23.6202 21.5706 23.6335 21.184 23.5686 20.7945C23.486 20.3076 23.3945 19.8221 23.3045 19.3352C23.3015 19.3204 23.2838 19.3057 23.2853 19.2924C23.3222 18.953 23.3591 18.6122 23.3989 18.2728C23.4033 18.2359 23.424 18.199 23.4225 18.1621C23.4033 17.7874 23.3738 17.414 23.362 17.0393C23.3517 16.7058 23.362 16.3708 23.3576 16.0374C23.3502 15.5859 23.3177 15.1358 23.331 14.6858C23.3487 14.0926 23.3915 13.4994 23.4402 12.9063C23.4564 12.7071 23.5228 12.5108 23.5612 12.3116C23.6335 11.9398 23.5096 11.5975 23.3664 11.2729C23.2425 10.9925 23.061 10.7372 22.9134 10.4672C22.8161 10.2902 22.6892 10.1293 22.5829 9.96848C22.3645 9.63944 22.034 9.53615 21.736 9.38417C21.3302 9.17759 20.8949 9.01824 20.4552 8.89282C20.2058 8.82199 19.924 8.8633 19.6584 8.84855C19.4209 8.83527 19.1833 8.80723 18.9457 8.79986C18.7893 8.79543 18.6329 8.80576 18.478 8.82642C18.1445 8.87216 17.814 8.93265 17.4805 8.9784C17.2562 9.00938 17.029 9.03889 16.8018 9.04184C16.3148 9.0448 15.8294 9.02856 15.3425 9.02414C15.2923 9.02414 15.2421 9.0507 15.192 9.06693C14.8068 9.19825 14.4217 9.07283 14.0366 9.06545C13.3785 9.05217 12.7204 9.0625 12.0623 9.06398C11.6049 9.06398 11.2346 9.28678 10.8317 9.4727C10.5322 9.6114 10.2415 9.7501 9.97445 9.93897C9.86821 10.0142 9.76493 10.0983 9.67049 10.1898C9.49785 10.3551 9.33112 10.5262 9.16733 10.7003C9.0847 10.7889 8.98732 10.8789 8.94305 10.9866C8.78074 11.3865 8.59483 11.7849 8.50187 12.2039C8.41924 12.5728 8.41481 12.9609 8.54023 13.346C8.61106 13.5644 8.58892 13.8152 8.59483 14.0528C8.60515 14.5161 8.61253 14.9809 8.60515 15.4442C8.6022 15.6183 8.7291 15.7467 8.68483 15.9547C8.61991 16.2498 8.68631 16.5745 8.68926 16.8858C8.69664 17.417 8.69516 17.9467 8.70549 18.4779C8.70992 18.6742 8.73943 18.8704 8.74976 19.0667C8.76304 19.3204 8.85895 19.5728 8.74828 19.8295C8.7232 19.8856 8.76304 19.9667 8.76451 20.0376C8.77041 20.3282 8.77041 20.6204 8.78074 20.9111C8.7896 21.1663 8.8132 21.4201 8.82206 21.6754C8.83829 22.124 8.8737 22.5755 8.78369 23.0196C8.76156 23.1318 8.65975 23.2306 8.77927 23.3413C8.70844 23.3959 8.61401 23.5124 8.56827 23.4962C8.32775 23.4106 7.98838 23.4446 7.97215 23.0418C7.9692 22.9458 7.83787 22.8588 7.81869 22.757C7.7759 22.5356 7.76852 22.3069 7.74492 22.0812C7.72278 21.8643 7.68589 21.6488 7.67852 21.4319C7.67261 21.218 7.70655 21.0026 7.7036 20.7871C7.69917 20.4625 7.67704 20.1379 7.66376 19.8118C7.65786 19.6923 7.64015 19.5713 7.65343 19.4547C7.66524 19.3396 7.70655 19.2393 7.59441 19.136C7.55605 19.1006 7.60621 18.9752 7.60621 18.8911C7.60326 18.6166 7.62982 18.3348 7.5767 18.0692C7.53834 17.8759 7.5531 17.7121 7.58556 17.5262C7.61802 17.3403 7.57228 17.1411 7.5708 16.9493C7.56785 16.6453 7.5708 16.3399 7.57228 16.0359C7.57228 16.0049 7.60179 15.9636 7.58998 15.9444C7.3716 15.6021 7.59441 15.2435 7.55014 14.8924C7.47784 14.3169 7.44686 13.7355 7.40702 13.1571C7.40111 13.0656 7.43063 12.9712 7.44981 12.834C7.28602 12.5374 7.7036 10.8479 8.07544 10.6118C7.97067 10.3757 8.13888 10.2208 8.28054 10.0851C8.51072 9.86667 8.77927 9.68813 9.01093 9.4727C9.13487 9.35761 9.2175 9.19973 9.35473 9.01086C9.40194 9.14661 9.41818 9.19383 9.44916 9.28236C9.48457 9.22038 9.51409 9.19235 9.50818 9.17464C9.46982 9.03594 9.45211 8.92528 9.66164 8.93856C9.71033 8.94151 9.77231 8.87806 9.8151 8.83232C10.0527 8.57853 10.3802 8.51065 10.6886 8.40146C10.8893 8.33064 11.0811 8.22587 11.2847 8.17423C11.4662 8.12849 11.6625 8.1521 11.8469 8.11816C12.2069 8.05323 12.595 8.19931 12.9344 7.97503C12.9595 7.9588 12.9978 7.94109 13.0214 7.94995C13.4405 8.09307 13.8699 7.91011 14.2756 7.97798C14.6947 8.04733 15.0887 7.97208 15.4944 7.94995C15.9253 7.92634 16.3576 7.94257 16.7885 7.92929C16.9301 7.92486 17.0703 7.86732 17.212 7.85846C17.4731 7.84076 17.7343 7.84076 17.997 7.83043C18.323 7.81862 18.6491 7.78764 18.9738 7.79649C19.3013 7.80534 19.6274 7.85699 19.9535 7.88207C20.0553 7.88945 20.1601 7.85994 20.2619 7.86437C21.0189 7.8983 21.6858 8.20521 22.3498 8.53721C22.7202 8.72165 23.0182 8.98725 23.3015 9.27646C23.3414 9.31629 23.3738 9.37532 23.3827 9.42991C23.4063 9.58337 23.4476 9.69108 23.6379 9.70731C23.7412 9.71617 23.8076 9.78109 23.8327 9.9375C23.8666 10.1514 24.0201 10.3477 24.1278 10.5469C24.3506 10.9556 24.4421 11.3998 24.4687 11.8557C24.476 11.9723 24.4377 12.1095 24.3772 12.2098C24.2459 12.4282 24.2916 12.6584 24.3565 12.8561C24.4465 13.1335 24.4775 13.3917 24.3816 13.6662C24.3713 13.6957 24.3728 13.7296 24.3742 13.7606C24.4111 14.3405 24.4657 14.9189 24.479 15.4988C24.4878 15.8633 24.4214 16.2277 24.4111 16.5922C24.4037 16.8888 24.4392 17.1868 24.4392 17.4834C24.4392 17.7608 24.4215 18.0367 24.4082 18.3141C24.3949 18.6048 24.3624 18.894 24.3698 19.1832C24.3787 19.5241 24.4436 19.8634 24.4465 20.2043C24.4495 20.5806 24.5749 20.9553 24.4347 21.339C24.3846 21.4792 24.4657 21.6606 24.4583 21.823C24.448 22.0192 24.4244 22.2199 24.3772 22.4102C24.2901 22.754 24.1677 23.0786 23.936 23.3664C23.6217 23.7559 23.3089 24.1174 22.8736 24.4022C22.5401 24.6191 22.1609 24.6914 21.8289 24.8921C21.6312 25.0101 21.339 24.9968 21.0897 24.9939C20.9052 24.9909 20.7223 24.9009 20.5364 24.8655C20.4552 24.8508 20.3652 24.8714 20.2796 24.8817C20.1158 24.9024 19.9358 24.985 19.7942 24.9408C19.4253 24.8257 19.0785 24.9555 18.7377 25.0131C18.3658 25.0765 18.0073 25.078 17.6369 25.0603C17.4141 25.05 17.1884 25.1208 16.9626 25.1282C16.6645 25.1385 16.365 25.1178 16.067 25.1193C15.9519 25.1208 15.8353 25.1577 15.7202 25.1606C15.0975 25.1783 14.4748 25.1872 13.8522 25.2049C13.5394 25.2137 13.228 25.2462 12.9152 25.2418C12.4224 25.2344 11.9281 25.1783 11.4367 25.1916C10.8539 25.2078 10.3433 24.9732 9.82985 24.7711C9.39162 24.5984 9.16733 24.2015 9.15848 23.6954Z" fill="#FFA466"></path>
<path d="M11.514 15.9042C11.5081 15.7817 11.4742 15.6519 11.5022 15.5383C11.5878 15.1974 11.6335 14.8403 11.8976 14.5659C11.967 14.4936 11.9567 14.3416 12.0275 14.2752C12.3462 13.9786 12.6811 13.6983 13.0117 13.4135C13.0176 13.4091 13.0308 13.4105 13.0338 13.4061C13.1725 13.0844 13.5207 13.0003 13.7435 12.7761C13.7937 12.7259 13.8409 12.6624 13.9029 12.6388C14.5536 12.3954 15.2073 12.1622 15.914 12.4116C15.9598 12.4278 16.0129 12.4367 16.0454 12.4662C16.0867 12.5046 16.1132 12.5621 16.1457 12.6108C16.0955 12.6403 16.0424 12.6979 15.9952 12.6934C15.6293 12.6506 15.3076 12.7864 14.9786 12.9162C14.71 13.0225 14.4429 13.111 14.26 13.3618C14.1906 13.4578 14.046 13.4946 13.956 13.5788C13.7332 13.7853 13.506 13.989 13.3097 14.2191C13.0899 14.4774 12.8862 14.7518 12.7062 15.0395C12.4642 15.4247 12.4141 15.8658 12.389 16.3129C12.3536 16.9386 12.5395 17.5111 12.8671 18.0186C13.1164 18.4067 13.4602 18.7358 13.7701 19.084C13.8188 19.1386 13.9117 19.1504 13.9826 19.1873C14.2467 19.326 14.4946 19.5252 14.7749 19.596C15.2132 19.7067 15.6588 19.8498 16.131 19.7258C16.2711 19.689 16.4379 19.7716 16.5898 19.7642C16.7566 19.7554 16.9263 19.717 17.0871 19.6668C17.3557 19.5842 17.6183 19.4853 17.8809 19.385C17.9769 19.3481 18.0654 19.2861 18.1539 19.2315C18.2808 19.1533 18.4195 19.0855 18.5287 18.9866C18.6586 18.8715 18.7751 18.7358 18.874 18.5941C19.0481 18.3447 19.2104 18.085 19.3639 17.8224C19.4052 17.7531 19.3993 17.6571 19.4185 17.5568C19.6117 17.5258 19.5468 17.3429 19.566 17.2027C19.5852 17.0654 19.6088 16.9282 19.6221 16.7895C19.6354 16.6464 19.6634 16.4988 19.6413 16.3601C19.5719 15.9381 19.569 15.5058 19.3447 15.1118C19.0156 14.5349 18.6482 14.014 18.0359 13.7027C17.7511 13.5581 17.4855 13.3766 17.1801 13.1936C17.4958 13.0048 17.7791 13.0948 18.0521 13.1435C18.7633 13.2718 19.3462 13.6319 19.8862 14.1114C20.3156 14.4936 20.5207 14.951 20.6741 15.4837C20.7568 15.7699 20.6845 16.0237 20.68 16.2893C20.6727 16.6921 20.6653 17.1127 20.5502 17.4919C20.4543 17.8091 20.4572 18.181 20.1902 18.4377C20.1798 18.448 20.1769 18.4672 20.1769 18.4834C20.1666 19.0958 19.6678 19.3511 19.2916 19.6934C19.1145 19.8557 18.9345 20.0165 18.7456 20.1641C18.5479 20.319 18.3472 20.4385 18.0683 20.4503C17.8308 20.4607 17.605 20.6244 17.366 20.6746C17.0237 20.7454 16.6725 20.772 16.3272 20.8236C16.2106 20.8414 16.0955 20.8812 15.9804 20.9063C15.9303 20.9181 15.8742 20.9328 15.8255 20.924C15.4375 20.8605 15.045 20.8059 14.6628 20.7159C14.4961 20.6761 14.3485 20.5595 14.1936 20.4769C14.1582 20.4577 14.1316 20.4208 14.0947 20.4105C13.6402 20.2866 13.2596 20.0283 12.8951 19.7465C12.7962 19.6698 12.7372 19.5458 12.6546 19.447C12.4436 19.1947 12.2252 18.9482 12.0201 18.6915C11.9389 18.5912 11.8298 18.4731 11.8253 18.3595C11.8135 18.0895 11.6084 17.9316 11.5243 17.7132C11.4387 17.4904 11.4328 17.2366 11.4004 16.9961C11.3768 16.8249 11.4004 16.6375 11.3399 16.4811C11.2336 16.2052 11.4196 16.0813 11.5745 15.9293C11.5524 15.9219 11.5332 15.9131 11.514 15.9042Z" fill="#FFA466"></path>
<path d="M21.8854 12.0194C21.8603 12.6362 21.5091 13.1423 20.8496 13.2264C20.283 13.2987 19.4832 12.586 19.3829 12.0533C19.3017 11.6254 19.5526 11.3702 19.7326 11.0854C19.9067 10.8109 20.2343 10.6457 20.5545 10.6589C21.1727 10.6826 21.8264 11.1016 21.8854 12.0194ZM20.5368 11.3923C20.1856 11.3657 20.1207 11.562 20.0675 11.95C20.0292 12.2304 20.3376 12.5078 20.6401 12.5107C20.9337 12.5122 21.2214 12.2747 21.2022 12.0032C21.1713 11.6062 21.0222 11.4248 20.5368 11.3923Z" fill="#FFA466"></path>
</svg>