<svg width="100%" height="32" viewBox="0 0 32 32" fill="none" xmlns="http://www.w3.org/2000/svg">
<path d="M4.57218 23.6205C4.6135 23.3077 4.70941 22.9919 4.68285 22.688C4.65186 22.3043 4.4925 21.934 4.44381 21.5503C4.40987 21.2847 4.4748 21.0073 4.48217 20.7343C4.48513 20.6266 4.44086 20.5174 4.43348 20.4082C4.39807 19.9095 4.37151 19.4108 4.33462 18.9135C4.31691 18.6878 4.24166 18.4591 4.26232 18.2377C4.29478 17.8806 4.2033 17.5132 4.36413 17.1635C4.39954 17.0883 4.33905 16.9688 4.32429 16.8699C4.30068 16.712 4.27265 16.5541 4.25789 16.3963C4.24756 16.2826 4.25199 16.1675 4.25937 16.0539C4.2697 15.8798 4.30068 15.7234 4.24019 15.5316C4.15608 15.2675 4.19297 14.965 4.18707 14.6773C4.17379 14.1284 4.15756 13.578 4.16051 13.0276C4.16198 12.7945 4.22691 12.5628 4.23281 12.3297C4.23871 12.067 4.21068 11.8029 4.19887 11.5653C4.28298 11.5299 4.34495 11.5048 4.38036 11.4901C4.37151 11.3558 4.36266 11.2392 4.35823 11.1212C4.35085 10.9751 4.32724 10.8261 4.34643 10.683C4.4261 10.0987 4.50873 9.51434 4.6135 8.93446C4.64448 8.76477 4.74482 8.60394 4.83188 8.45048C4.86286 8.39589 4.9632 8.33539 5.01484 8.34719C5.07239 8.36047 5.13436 8.44901 5.15207 8.51541C5.19486 8.67476 5.21257 8.84002 5.24503 9.03627C5.76884 8.98758 6.28233 8.93446 6.79729 8.89462C7.3034 8.85478 7.81689 8.76772 8.3171 8.81494C8.64762 8.8474 8.91469 8.66148 9.22456 8.6969C9.2762 8.7028 9.32932 8.68362 9.38244 8.68214C9.77936 8.67034 10.1748 8.65263 10.5717 8.65116C10.6898 8.65116 10.8078 8.71313 10.9259 8.7146C11.1457 8.71755 11.3641 8.68952 11.5839 8.68804C11.6843 8.68804 11.7846 8.72641 11.885 8.73526C11.9853 8.74411 12.0871 8.73674 12.1874 8.73526C12.4988 8.73231 12.8101 8.73083 13.12 8.72493C13.3487 8.72051 13.5774 8.70575 13.8061 8.70132C14.1956 8.69542 14.597 8.6364 14.9703 8.71165C15.2979 8.77658 15.5886 8.66296 15.8969 8.67624C16.2083 8.68952 16.5196 8.71903 16.8295 8.72198C17.1762 8.72493 17.5245 8.70427 17.8712 8.69837C18.2578 8.69247 18.6444 8.68214 19.0295 8.69395C19.3541 8.7028 19.6787 8.74264 20.0034 8.76477C20.1052 8.77215 20.2085 8.76772 20.3103 8.77067C20.6659 8.77953 21.02 8.78395 21.3756 8.80314C21.4922 8.80904 21.6058 8.85921 21.7224 8.87396C22.0514 8.91233 22.3805 8.95069 22.7095 8.97577C22.9766 8.99643 23.2451 8.98758 23.5122 9.00971C23.8575 9.03775 24.1998 9.08349 24.5643 9.12333C24.6484 8.88724 24.7325 8.65116 24.8166 8.41654C24.8417 8.40622 24.8682 8.39736 24.8933 8.38703C24.9494 8.47999 25.0335 8.56852 25.0541 8.66886C25.1722 9.21038 25.2858 9.75338 25.3743 10.3008C25.4097 10.5162 25.3743 10.742 25.3699 10.9633C25.3655 11.2452 25.3979 11.5329 25.3478 11.8059C25.2873 12.1438 25.4024 12.4713 25.3389 12.8122C25.2946 13.0527 25.4658 13.336 25.4097 13.5691C25.3404 13.8583 25.4053 14.1225 25.4142 14.3969C25.423 14.6743 25.4658 14.9502 25.4702 15.2276C25.4761 15.6836 25.4481 16.141 25.4584 16.5969C25.4673 16.9673 25.513 17.3362 25.5381 17.7051C25.5484 17.8511 25.5543 17.9972 25.5543 18.1433C25.5573 18.6524 25.5558 19.1614 25.5573 19.669C25.5573 19.7133 25.5455 19.7708 25.5676 19.8018C25.7314 20.0246 25.6355 20.2371 25.5853 20.4702C25.5396 20.6842 25.5824 20.9173 25.5971 21.1431C25.6178 21.4736 25.6517 21.8026 25.6694 22.1331C25.6739 22.2261 25.6399 22.3205 25.6193 22.4386C25.7712 22.5301 25.9395 22.6319 26.1062 22.7322C26.0988 22.7514 26.0929 22.7706 26.0855 22.7912C25.966 22.8163 25.845 22.8414 25.7698 22.8562C25.6724 23.1321 25.5927 23.3888 25.4894 23.6352C25.4319 23.771 25.3448 23.9038 25.1545 23.8802C24.9449 23.8536 24.8564 23.712 24.8018 23.529C24.7502 23.3564 24.6867 23.1867 24.6395 23.0495C24.2721 23.0908 23.9357 23.1203 23.6022 23.1675C23.1595 23.2309 22.7198 23.3165 22.2772 23.3741C22.1532 23.3903 22.0204 23.3195 21.8921 23.3239C21.4376 23.3416 20.9846 23.3741 20.5316 23.4021C20.1701 23.4257 19.8071 23.4951 19.45 23.467C18.727 23.411 18.0173 23.5659 17.2972 23.5511C16.8634 23.5423 16.4281 23.5836 15.9928 23.5851C15.7405 23.5851 15.4882 23.529 15.2374 23.5379C14.7401 23.5556 14.2429 23.6205 13.7456 23.6293C13.21 23.6397 12.6729 23.6072 12.1358 23.5969C12.0399 23.5954 11.944 23.619 11.8466 23.6234C11.6533 23.6308 11.46 23.6397 11.2667 23.6382C10.914 23.6338 10.5629 23.622 10.2102 23.6161C9.78231 23.6087 9.35588 23.5954 8.92797 23.5984C8.77452 23.5998 8.61663 23.6751 8.47056 23.6515C8.08396 23.588 7.72541 23.7149 7.35357 23.7577C7.11011 23.7858 6.86812 23.7725 6.62466 23.861C6.49186 23.9082 6.30889 23.8049 6.14658 23.7828C6.02264 23.7666 5.89574 23.7754 5.7718 23.7607C5.7231 23.7548 5.65523 23.7267 5.63605 23.6884C5.57702 23.5703 5.52833 23.5747 5.41914 23.6426C5.26716 23.7371 5.03255 23.7002 4.97353 23.9377C4.88942 23.9067 4.79499 23.8905 4.72564 23.8389C4.66809 23.7872 4.62825 23.7002 4.57218 23.6205ZM5.27897 9.94225C5.27897 10.3436 5.21404 10.739 5.29372 11.102C5.41619 11.6598 5.29667 12.2072 5.32471 12.7576C5.34389 13.1294 5.27601 13.5057 5.26421 13.8805C5.25683 14.1298 5.28487 14.3792 5.28929 14.63C5.29372 14.9178 5.29372 15.207 5.29077 15.4947C5.28782 15.7278 5.28339 15.961 5.26273 16.1926C5.23765 16.4804 5.19338 16.7681 5.36602 17.0322C5.38225 17.0573 5.36602 17.106 5.35864 17.1414C5.30257 17.407 5.22437 17.6696 5.37488 17.9338C5.40291 17.9825 5.38668 18.0592 5.38373 18.1226C5.3793 18.2628 5.38078 18.4045 5.36307 18.5432C5.32323 18.8456 5.50177 19.1762 5.25093 19.4536C5.23175 19.4742 5.2288 19.5392 5.2465 19.5598C5.38225 19.7251 5.41914 19.8992 5.3616 20.1131C5.32913 20.2312 5.3675 20.3684 5.37192 20.4968C5.38373 20.8789 5.39848 21.2626 5.40291 21.6447C5.40881 22.1169 5.40439 22.5876 5.40439 23.0067C5.88541 22.9491 6.36791 22.899 6.84894 22.8326C7.08355 22.8001 7.31373 22.7381 7.54834 22.6953C7.61769 22.682 7.69 22.6924 7.76082 22.6865C7.91575 22.6717 8.07216 22.6555 8.22709 22.6348C8.2448 22.6334 8.25955 22.5891 8.27283 22.5906C8.5281 22.6083 8.78927 22.6702 9.03716 22.6378C9.29686 22.6038 9.55508 22.5611 9.81625 22.5552C10.104 22.5493 10.3917 22.5743 10.6794 22.5817C10.9421 22.5891 11.2033 22.5979 11.4659 22.5935C11.7226 22.5891 11.9809 22.567 12.2376 22.5581C12.3291 22.5552 12.4294 22.5979 12.5121 22.5743C12.8898 22.4622 13.2661 22.5537 13.6423 22.5552C13.9064 22.5566 14.1691 22.4961 14.4332 22.4784C14.5749 22.4696 14.7195 22.5094 14.8626 22.5006C15.2462 22.477 15.6343 22.4445 16.0106 22.4342C16.859 22.4091 17.7089 22.4902 18.5618 22.3766C19.0177 22.3146 19.4854 22.4106 19.9532 22.3412C20.3309 22.2851 20.7264 22.3648 21.1056 22.3161C21.4892 22.2674 21.8581 22.1715 22.255 22.2409C22.4852 22.2822 22.7375 22.1863 22.9751 22.2055C23.4133 22.2409 23.8501 22.3073 24.2839 22.3766C24.5451 22.4179 24.6233 22.3471 24.5643 22.0845C24.551 22.0254 24.5451 21.9635 24.5436 21.9015C24.5318 21.2449 24.5347 20.5868 24.5097 19.9302C24.492 19.4565 24.4167 18.9844 24.4093 18.5107C24.4019 18.0607 24.2942 17.6121 24.3946 17.1562C24.4256 17.0116 24.3562 16.8463 24.3518 16.6899C24.3385 16.1749 24.3237 15.6614 24.3282 15.1465C24.3311 14.8425 24.4433 14.5341 24.2691 14.2405C24.2662 14.2361 24.275 14.2257 24.275 14.2184C24.2898 13.9247 24.3223 13.6296 24.3134 13.3375C24.3046 13.0866 24.2485 12.8373 24.2131 12.5879C24.2086 12.5569 24.2086 12.5244 24.2131 12.492C24.2278 12.3857 24.2573 12.2795 24.2618 12.1733C24.2721 11.8737 24.2632 11.5742 24.2795 11.2747C24.2942 10.9973 24.3341 10.7213 24.3606 10.4454C24.3842 10.1946 24.4049 9.94373 24.4285 9.67518C24.4256 9.6737 24.3887 9.6501 24.3547 9.65157C23.9312 9.68403 23.5063 9.71354 23.0843 9.75633C22.7523 9.79027 22.4247 9.8611 22.0927 9.88323C21.7652 9.90536 21.4361 9.89208 21.1071 9.88913C20.5567 9.8847 20.0048 9.89946 19.4574 9.86257C18.8362 9.82126 18.218 9.76076 17.5923 9.78142C17.2308 9.79322 16.8678 9.7283 16.5063 9.70321C16.4621 9.70026 16.4163 9.7224 16.3721 9.73568C16.288 9.76076 16.2024 9.81388 16.1183 9.81093C15.7405 9.79912 15.3643 9.76076 14.988 9.75486C14.8523 9.75338 14.6708 9.63239 14.5734 9.84782C14.5675 9.85962 14.4893 9.84339 14.448 9.83159C14.051 9.72092 13.6585 9.75928 13.2572 9.82273C12.9237 9.87585 12.5814 9.85519 12.2656 9.68403C12.183 9.8065 11.7994 9.77847 11.488 9.64862C11.3213 9.69436 11.1546 9.71207 10.9863 9.72092C10.9347 9.72387 10.8772 9.68256 10.8299 9.69289C10.3312 9.8124 9.82067 9.69436 9.31309 9.8006C8.90289 9.88618 8.46023 9.7947 8.03232 9.81388C7.62802 9.83306 7.22668 9.91422 6.82238 9.93192C6.30889 9.95848 5.79393 9.94225 5.27897 9.94225Z" fill="#FFA466"></path>
<path d="M18.4379 16.2266C18.4158 16.4922 18.3744 16.597 18.1354 16.6457C17.9288 16.6885 17.7518 16.8965 17.5732 17.0456C17.1512 17.3997 16.7632 17.7996 16.3102 18.1065C16.0136 18.3071 15.7347 18.5226 15.447 18.7321C15.1238 18.9682 14.7343 19.1084 14.3875 19.3149C14.1942 19.43 14.0246 19.5909 13.8578 19.7443C13.5878 19.9922 13.2617 20.1132 12.9105 20.156C12.7202 20.1796 12.5726 19.9538 12.5682 19.7502C12.5638 19.5053 12.5166 19.2633 12.5062 19.0183C12.4959 18.7778 12.5107 18.5373 12.5121 18.2968C12.5121 18.2422 12.5048 18.1847 12.4915 18.1315C12.4147 17.8423 12.3542 17.5635 12.4738 17.261C12.5298 17.1208 12.4664 16.9378 12.4738 16.7755C12.5003 16.1883 12.5402 15.601 12.5638 15.0137C12.5771 14.7098 12.5505 14.4043 12.5726 14.1019C12.608 13.6046 12.5387 13.0955 12.7541 12.6189C12.9164 12.2619 13.2145 12.2043 13.4963 12.4758C13.576 12.5525 13.6852 12.6116 13.7914 12.647C14.2828 12.8108 14.6399 13.1678 15.0294 13.4821C15.2994 13.699 15.6152 13.8569 15.897 14.0605C16.108 14.2125 16.2939 14.3999 16.5005 14.5593C16.7012 14.7142 16.9166 14.8514 17.1232 14.999C17.4611 15.241 17.8152 15.4638 18.1266 15.7367C18.283 15.8695 18.3582 16.0953 18.4379 16.2266ZM17.166 16.2783C17.1261 16.2325 17.0819 16.1514 17.0125 16.1042C16.6392 15.8415 16.26 15.5877 15.8852 15.328C15.8011 15.269 15.7318 15.1878 15.6462 15.1333C15.3688 14.9577 15.0692 14.8116 14.8081 14.6124C14.4156 14.3143 14.0496 13.9809 13.6734 13.6636C13.6468 13.6754 13.6188 13.6887 13.5922 13.7005C13.6114 13.9189 13.6571 14.1402 13.6439 14.3571C13.6232 14.7201 13.5052 15.0875 13.5362 15.4431C13.5819 15.9522 13.5303 16.4465 13.4919 16.9467C13.4786 17.1134 13.5406 17.2861 13.517 17.4498C13.458 17.8674 13.4845 18.2732 13.5893 18.6923C14.7859 17.8837 15.9708 17.0839 17.166 16.2783Z" fill="#FFA466"></path>
</svg>