<svg width="100%" height="100%" viewBox="0 0 32 32" fill="none" xmlns="http://www.w3.org/2000/svg">
<path d="M23.1353 18.0929C23.1442 18.1386 23.156 18.1725 23.1574 18.2065C23.1619 18.3024 23.1604 18.3998 23.1633 18.4957C23.1633 18.5104 23.1796 18.5223 23.1855 18.537C23.1929 18.5591 23.2091 18.596 23.2017 18.6034C23.1265 18.6698 23.1648 18.7554 23.1663 18.8292C23.1678 18.9384 23.153 19.0475 23.1648 19.1582C23.1707 19.2202 23.1412 19.2822 23.2002 19.3397C23.2194 19.3574 23.1855 19.4282 23.1811 19.474C23.1766 19.5212 23.1707 19.5714 23.1825 19.6171C23.1929 19.6569 23.2312 19.6879 23.1766 19.7263C23.1648 19.7337 23.1751 19.7779 23.1811 19.803C23.1884 19.837 23.2032 19.8679 23.2165 19.9048C23.1633 19.924 23.1014 19.9196 23.1265 19.9978C23.1397 20.0007 23.1619 20.0022 23.1766 20.0111C23.1884 20.0184 23.2017 20.048 23.2002 20.048C23.1383 20.0966 23.1766 20.1645 23.1633 20.2221C23.1545 20.2604 23.1324 20.3018 23.1368 20.3372C23.1456 20.4065 23.1707 20.4729 23.1899 20.5452C23.1737 20.5511 23.153 20.5541 23.1383 20.5659C23.1294 20.5718 23.1279 20.5895 23.1235 20.6028C23.2032 20.6175 23.1235 20.709 23.1855 20.7311C23.187 20.7311 23.187 20.7415 23.1855 20.7429C23.1028 20.8167 23.1737 20.9052 23.1648 20.9864C23.1545 21.0735 23.1633 21.1635 23.1707 21.2505C23.1752 21.3081 23.1619 21.3538 23.1206 21.4128C23.1117 21.4261 23.1265 21.4571 23.1324 21.4925C23.094 21.5338 23.1014 21.7758 23.1383 21.8157C23.1427 21.8688 23.1442 21.8998 23.1471 21.9425C23.091 21.9691 23.0778 22.0237 23.1028 22.0931C23.1117 22.1167 23.1117 22.1432 23.1117 22.1683C23.1132 22.2509 23.1014 22.2598 23.0202 22.2524C22.9863 22.2495 22.9523 22.2554 22.9214 22.2568C22.9081 22.4236 22.9243 22.456 22.7222 22.4413C22.672 22.4383 22.6203 22.4767 22.5672 22.4914C22.5392 22.5003 22.5097 22.5047 22.4802 22.5047C22.4374 22.5047 22.3946 22.4959 22.3518 22.4988C22.312 22.5003 22.2736 22.5106 22.2264 22.518C22.2234 22.5018 22.219 22.4782 22.2131 22.4413C22.1688 22.4531 22.129 22.4649 22.0788 22.4782C22.0213 22.4324 21.9401 22.4339 21.8619 22.4855C21.8427 22.4988 21.797 22.5018 21.7852 22.49C21.7188 22.425 21.6553 22.4295 21.586 22.4811C21.5786 22.487 21.5698 22.4914 21.5609 22.4974C21.5594 22.4988 21.5565 22.4974 21.5535 22.4974C21.5535 22.4914 21.555 22.4855 21.555 22.4782C21.5255 22.4752 21.4945 22.4752 21.465 22.4664C21.3735 22.4398 21.2983 22.5372 21.2068 22.5018C21.1684 22.487 21.1301 22.4649 21.0902 22.4634C20.9648 22.456 20.8379 22.4295 20.714 22.487C20.6844 22.5018 20.6284 22.5092 20.5812 22.4634C20.5561 22.4383 20.4705 22.4516 20.4277 22.4752C20.3834 22.4988 20.3613 22.521 20.3333 22.4649C20.3274 22.4546 20.3097 22.4472 20.2964 22.4457C20.2255 22.4428 20.1444 22.4649 20.0883 22.4369C19.9718 22.3793 19.8213 22.4413 19.7224 22.3218C19.7017 22.2967 19.6412 22.3055 19.594 22.2967C19.5911 22.2731 19.5881 22.2465 19.5837 22.2155C19.5217 22.2081 19.4597 22.2008 19.3992 22.1919C19.3933 22.1831 19.386 22.1727 19.3801 22.1639C19.4081 22.1595 19.4347 22.1536 19.4627 22.1491C19.3019 22.0606 19.2591 21.9617 19.293 21.7965C19.2974 21.7758 19.2945 21.7463 19.2812 21.7315C19.2355 21.6829 19.2473 21.6283 19.2502 21.5707C19.2546 21.4807 19.2502 21.3922 19.2502 21.3022C19.2502 21.2815 19.2487 21.2594 19.2561 21.2431C19.3019 21.1576 19.2384 21.1015 19.2045 21.0366C19.2369 21.01 19.262 20.8447 19.2296 20.8167C19.1661 20.7621 19.2045 20.6957 19.2045 20.6367C19.2045 20.6042 19.2251 20.5703 19.2384 20.5378C19.2473 20.5128 19.2605 20.4891 19.2664 20.4626C19.2738 20.4257 19.2753 20.3888 19.2679 20.3504C19.296 20.315 19.3196 20.2826 19.2694 20.259C19.2856 20.1837 19.3004 20.1173 19.3151 20.0509C19.3225 20.0509 19.3299 20.0509 19.3373 20.0524C19.324 20.0362 19.3107 20.0199 19.2974 20.0037C19.383 19.9078 19.4273 19.744 19.3565 19.6171C19.3461 19.5994 19.3417 19.564 19.352 19.5522C19.4229 19.4651 19.386 19.3648 19.386 19.2718C19.3874 19.1774 19.3535 19.083 19.3535 18.9885C19.3535 18.9339 19.3284 18.8675 19.386 18.8174C19.3919 18.8115 19.3756 18.779 19.3668 18.748C19.3653 18.7495 19.386 18.7392 19.386 18.7318C19.3712 18.5931 19.4775 18.4706 19.4435 18.3304C19.4391 18.3142 19.4347 18.2906 19.4243 18.2862C19.3624 18.2552 19.3978 18.2345 19.4361 18.2139C19.4022 18.1652 19.3919 18.1283 19.4243 18.0663C19.4568 18.0029 19.4745 17.9099 19.4125 17.8332C19.3992 17.8169 19.4022 17.7653 19.4111 17.7594C19.4642 17.7343 19.445 17.6915 19.4465 17.6546C19.4509 17.5469 19.4509 17.4377 19.4612 17.3315C19.4701 17.243 19.4834 17.1515 19.5099 17.0674C19.5202 17.0349 19.5734 17.0172 19.6147 16.9862C19.5527 16.939 19.5261 16.9065 19.5778 16.88C19.5453 16.8372 19.5055 16.8018 19.4878 16.759C19.4597 16.6896 19.4863 16.6188 19.5188 16.5583C19.5483 16.5037 19.5512 16.4506 19.5114 16.4034C19.4937 16.3827 19.4937 16.3488 19.4848 16.3163C19.5291 16.306 19.5586 16.2986 19.6014 16.2883C19.5542 16.2558 19.5114 16.2396 19.4893 16.2071C19.4361 16.1348 19.3933 16.0537 19.3447 15.9769C19.3269 15.9504 19.3033 15.9238 19.2768 15.9091C19.1912 15.8633 19.1027 15.822 19.0053 15.7733C19.0038 15.763 18.9994 15.735 18.9935 15.6995C18.9374 15.7423 18.8813 15.7969 18.8385 15.7202C18.7958 15.7335 18.7618 15.7512 18.7279 15.7512C18.6172 15.7512 18.5184 15.7896 18.4224 15.8397C18.3723 15.8663 18.3133 15.8751 18.2646 15.9032C18.2055 15.9356 18.1495 15.9769 18.0993 16.0212C18.0034 16.1038 17.9163 16.1983 17.8175 16.2765C17.7024 16.3665 17.6655 16.5067 17.5814 16.6159C17.5519 16.6542 17.5711 16.7265 17.5504 16.7767C17.5179 16.8593 17.5504 16.9552 17.4796 17.032C17.4589 17.0541 17.4796 17.1161 17.4929 17.1603C17.4796 17.1928 17.4235 17.2238 17.4958 17.2621C17.4988 17.2636 17.4914 17.2828 17.4914 17.2946C17.4943 17.333 17.4988 17.3699 17.5017 17.4082C17.5032 17.4185 17.5061 17.4289 17.5032 17.4377C17.481 17.5056 17.456 17.572 17.4338 17.6384C17.425 17.6664 17.422 17.6959 17.4146 17.724C17.4073 17.755 17.3984 17.7845 17.3866 17.8258C17.4279 17.8804 17.4324 18.0796 17.3881 18.1578C17.3733 18.1829 17.363 18.2139 17.3601 18.2434C17.3468 18.3319 17.3335 18.4204 17.3291 18.509C17.3261 18.5842 17.3232 18.6624 17.3586 18.7333C17.366 18.7465 17.391 18.751 17.4176 18.7628C17.3896 18.7701 17.3704 18.7746 17.3689 18.7746C17.3527 18.8247 17.335 18.8631 17.3276 18.9044C17.3232 18.9295 17.3423 18.962 17.335 18.9841C17.3099 19.052 17.4043 19.1184 17.3335 19.1877C17.3187 19.2025 17.3173 19.2541 17.3305 19.2718C17.3866 19.3471 17.3778 19.4135 17.3335 19.4917C17.3143 19.5256 17.3246 19.5743 17.3246 19.6171C17.3246 19.6437 17.332 19.6687 17.3379 19.6983C17.3453 19.7469 17.3527 19.7942 17.3615 19.8429C17.3719 19.9078 17.3482 19.9771 17.4058 20.0347C17.4427 20.0716 17.4132 20.2162 17.3748 20.2486C17.4471 20.3386 17.4117 20.4419 17.4043 20.5393C17.3999 20.6101 17.3674 20.6795 17.366 20.7503C17.3615 21.1531 17.3674 21.556 17.3615 21.9588C17.3601 22.0975 17.3335 22.2347 17.3173 22.3719C17.3158 22.3837 17.3114 22.397 17.304 22.4059C17.2243 22.5047 17.0871 22.5313 16.9631 22.4782C16.944 22.4693 16.913 22.4885 16.8835 22.4944C16.848 22.4487 16.7625 22.4442 16.7108 22.4929C16.6666 22.5357 16.519 22.4988 16.4703 22.4339C16.4644 22.4265 16.4585 22.4191 16.4541 22.4132C16.3405 22.4855 16.2298 22.4649 16.1177 22.4221C16.1088 22.4191 16.0955 22.4118 16.0896 22.4162C15.9981 22.4782 15.8963 22.4383 15.8004 22.4501C15.7871 22.4516 15.7783 22.4767 15.765 22.4796C15.7399 22.4841 15.7089 22.4885 15.6883 22.4782C15.672 22.4693 15.6691 22.4206 15.6573 22.4191C15.616 22.4147 15.5732 22.4221 15.5319 22.425C15.4832 22.4295 15.433 22.4369 15.3843 22.4354C15.2707 22.4324 15.1571 22.428 15.0435 22.4191C14.98 22.4147 14.9166 22.4014 14.8428 22.3896C14.8251 22.4221 14.7941 22.4147 14.7631 22.3675C14.6982 22.4132 14.6141 22.4044 14.5359 22.369C14.5005 22.3513 14.4473 22.369 14.4031 22.3896C14.3677 22.3793 14.3337 22.366 14.2983 22.3587C14.1965 22.338 14.1891 22.3306 14.1876 22.2199C14.1567 22.2199 14.1257 22.2214 14.0932 22.2199C14.0755 22.2199 14.0548 22.2214 14.0401 22.2126C13.9294 22.1417 13.9132 22.0281 13.9796 21.9116C14.0106 21.857 14.0253 21.7891 14.0312 21.7256C14.0386 21.6194 14.0519 21.5073 14.0283 21.4055C13.9619 21.1133 14.0283 20.8152 13.9811 20.526C13.8925 19.9698 13.9545 19.4135 13.9471 18.8572C13.9412 18.4662 13.9412 18.0766 13.9324 17.6856C13.9309 17.6399 13.928 17.5941 13.9309 17.5469C13.9339 17.4879 13.9088 17.4274 13.9058 17.3669C13.8984 17.2356 13.8984 17.1043 13.8896 16.9729C13.8866 16.9287 13.866 16.8859 13.8557 16.8401C13.8527 16.8269 13.8586 16.8092 13.866 16.7959C13.8896 16.7501 13.9073 16.7073 13.8394 16.6778C13.8557 16.6586 13.8689 16.6439 13.8837 16.6262C13.8778 16.6173 13.8704 16.61 13.8675 16.6026C13.8601 16.5716 13.8394 16.5273 13.8512 16.5126C13.9014 16.4506 13.8793 16.4004 13.8542 16.337C13.832 16.2794 13.8365 16.2101 13.8365 16.1466C13.835 16.0581 13.8365 15.971 13.8424 15.8825C13.8438 15.8545 13.866 15.8279 13.8748 15.7999C13.8793 15.7851 13.8807 15.7571 13.8734 15.7512C13.8202 15.7173 13.832 15.6907 13.8763 15.6597C13.8866 15.6523 13.8955 15.6243 13.8896 15.614C13.8468 15.5254 13.894 15.4384 13.8999 15.3528C13.9029 15.3026 13.9176 15.2598 13.9029 15.2038C13.8822 15.1197 13.8645 15.0178 13.8955 14.9426C13.925 14.8673 13.9191 14.7965 13.928 14.7242C13.9324 14.6799 13.9545 14.6313 13.8984 14.5958C13.8896 14.5899 13.9029 14.5457 13.9073 14.5191C13.9176 14.466 13.928 14.4129 13.9398 14.3612C13.9486 14.3199 13.9634 14.2801 13.9707 14.2373C13.9737 14.2196 13.9781 14.1901 13.9678 14.1827C13.8911 14.1251 13.9442 14.0838 13.9825 14.0381C13.9486 13.9938 13.9014 13.9584 13.9752 13.8994C14.0091 13.8728 14.0298 13.8094 14.0268 13.7636C14.0239 13.7149 13.9825 13.6692 13.9678 13.619C13.9575 13.5851 13.9604 13.5438 13.9648 13.5084C13.9693 13.4744 13.984 13.442 13.9944 13.4095C14.0047 13.38 14.0194 13.352 14.0224 13.321C14.0253 13.2959 14.015 13.2693 14.0076 13.228C14.0489 13.1764 14.0504 13.0805 14.0017 13.0037C13.9899 12.9846 13.9929 12.955 13.987 12.9314C13.9811 12.9078 13.9781 12.8827 13.9648 12.8636C13.925 12.8016 13.9471 12.744 14.018 12.7278C14.1094 12.7086 14.1227 12.685 14.1021 12.5847C14.1272 12.5773 14.1522 12.5685 14.1773 12.5611C14.1847 12.5375 14.1921 12.5139 14.1995 12.4932C14.2098 12.4932 14.2157 12.4917 14.2186 12.4932C14.2983 12.5773 14.2983 12.5773 14.3795 12.5065C14.3927 12.4947 14.4119 12.4873 14.4282 12.4799C14.468 12.4637 14.5064 12.4445 14.5477 12.4327C14.5713 12.4253 14.5978 12.4298 14.6215 12.4238C14.651 12.4179 14.6805 12.4076 14.7026 12.4017C14.738 12.4076 14.7705 12.4165 14.8015 12.4179C14.9918 12.4209 15.1807 12.4224 15.371 12.4209C15.4286 12.4194 15.4935 12.4416 15.5437 12.384C15.5525 12.3737 15.5953 12.3914 15.6233 12.3988C15.6455 12.4047 15.6691 12.4239 15.6868 12.4179C15.7399 12.4017 15.7901 12.3693 15.8432 12.356C15.8816 12.3471 15.9258 12.3501 15.9642 12.3619C16.0217 12.3796 16.0749 12.3973 16.1295 12.3545C16.1442 12.3427 16.1841 12.3353 16.1885 12.3412C16.218 12.3884 16.2637 12.3663 16.3021 12.3766C16.3788 12.3988 16.4526 12.4327 16.5293 12.4593C16.6031 12.4858 16.6784 12.508 16.7639 12.5345C16.7418 12.5655 16.7285 12.5817 16.7093 12.6068C16.7757 12.626 16.8362 12.6363 16.8923 12.6599C16.9218 12.6732 16.9425 12.7072 16.969 12.7293C16.9941 12.7514 17.0207 12.7736 17.0561 12.8031C16.9602 12.8813 17.0325 12.9964 17.0133 13.0982C17.0089 13.1188 17.031 13.1454 17.0413 13.169C17.0428 13.1734 17.0517 13.1749 17.0517 13.1778C17.0517 13.2472 17.0517 13.3151 17.0517 13.3844C17.0443 13.3844 17.0369 13.3844 17.0295 13.3844C17.0443 13.408 17.059 13.4331 17.0768 13.4612C17.2228 13.3682 17.366 13.2752 17.4825 13.1336C17.5179 13.1115 17.5622 13.0819 17.6065 13.0539C17.6788 13.0082 17.7511 12.9639 17.8204 12.9152C17.8839 12.8724 17.9429 12.8222 18.0063 12.7824C18.0698 12.7426 18.1377 12.7086 18.2026 12.6717C18.3221 12.6053 18.4446 12.5434 18.5611 12.4725C18.6275 12.4312 18.6998 12.4002 18.7662 12.3634C18.8592 12.3117 18.9625 12.3043 19.0495 12.2615C19.1322 12.2217 19.2178 12.2438 19.2915 12.2143C19.3992 12.1701 19.5173 12.2069 19.6132 12.1686C19.8257 12.083 20.0411 12.1346 20.2551 12.1243C20.32 12.1214 20.3834 12.1199 20.4484 12.1642C20.4926 12.1951 20.5723 12.1701 20.6343 12.176C20.773 12.1907 20.9132 12.201 21.0489 12.2291C21.1301 12.2453 21.2068 12.2881 21.285 12.3176C21.3027 12.325 21.3263 12.3176 21.344 12.325C21.3735 12.3368 21.4001 12.356 21.4281 12.3707C21.4635 12.3884 21.5048 12.3988 21.5344 12.4224C21.5875 12.4652 21.6819 12.4681 21.6716 12.5699C21.8059 12.5685 21.8885 12.6526 21.9608 12.7381C22.0036 12.7883 22.0154 12.7632 22.0434 12.7308C22.1098 12.8281 22.1733 12.9196 22.2352 13.0096C22.2308 13.0141 22.2264 13.0185 22.222 13.0229C22.2485 13.0273 22.2751 13.0318 22.3075 13.0362C22.2987 13.0583 22.2913 13.079 22.281 13.1055C22.309 13.1144 22.3356 13.1233 22.3739 13.1365C22.3621 13.1719 22.3488 13.2059 22.3341 13.2472C22.3843 13.318 22.4713 13.3741 22.5097 13.4715C22.5451 13.56 22.5672 13.6604 22.6218 13.7341C22.6676 13.7946 22.6617 13.8876 22.7502 13.9215C22.7738 13.9304 22.7812 13.9879 22.79 14.0233C22.8077 14.0942 22.8668 14.1429 22.8712 14.2255C22.8756 14.3111 22.914 14.3996 22.9833 14.4645C23.0409 14.5176 23.0837 14.6622 23.0438 14.6932C22.9745 14.7478 23.0143 14.8039 23.0276 14.86C23.0409 14.9205 23.066 14.978 23.0763 15.0385C23.0837 15.0872 23.0778 15.1374 23.0778 15.1949C23.0999 15.1831 23.1191 15.1728 23.1383 15.1624C23.1471 15.1654 23.1545 15.1684 23.1633 15.1698C23.1515 15.2185 23.1383 15.2657 23.1294 15.3144C23.1235 15.3484 23.1279 15.3838 23.1279 15.4177C23.1368 15.4192 23.1442 15.4207 23.153 15.4221C23.1397 15.4369 23.125 15.4531 23.1147 15.4649C23.1147 15.4738 23.1132 15.4767 23.1147 15.4782C23.2091 15.5549 23.1486 15.6597 23.1604 15.7512C23.1737 15.8486 23.1574 15.9489 23.1633 16.0478C23.1752 16.2765 23.2017 16.5052 23.2061 16.7354C23.2135 17.1382 23.2061 17.541 23.2091 17.9438C23.2106 18.0161 23.1633 18.0575 23.1353 18.0929ZM22.222 19.2999C22.1792 19.2703 22.1497 19.2438 22.2072 19.2039C22.2175 19.1966 22.2072 19.1523 22.2013 19.1272C22.1954 19.0992 22.1762 19.0726 22.1733 19.0446C22.1585 18.9192 22.1467 18.7938 22.1541 18.6669C22.1644 18.4927 22.16 18.3172 22.1629 18.143C22.1629 18.1239 22.1703 18.0988 22.1836 18.084C22.2131 18.0516 22.2249 17.9645 22.1983 17.9306C22.1556 17.8745 22.1319 17.8155 22.1585 17.7432C22.1674 17.7196 22.1629 17.693 22.1674 17.6679C22.1747 17.6295 22.1836 17.5912 22.191 17.5528C22.2013 17.5351 22.1762 17.5071 22.1806 17.5027C22.2352 17.4377 22.1821 17.3787 22.1762 17.3167C22.1659 17.1972 22.1615 17.0762 22.1629 16.9552C22.1629 16.9021 22.1703 16.8446 22.1924 16.7988C22.2161 16.7487 22.2279 16.6468 22.1998 16.5996C22.1865 16.576 22.1747 16.545 22.1762 16.5185C22.1792 16.4226 22.188 16.3296 22.2042 16.2337C22.2293 16.0802 22.2101 15.9209 22.2131 15.7645C22.2146 15.7143 22.2323 15.6656 22.2426 15.614C22.2367 15.5918 22.2293 15.5608 22.219 15.5328C22.2072 15.5003 22.1924 15.4694 22.1792 15.4384C22.1526 15.3749 22.0892 15.3203 22.1541 15.2407C22.1733 15.2156 22.16 15.1624 22.157 15.1226C22.1541 15.0901 22.1437 15.0577 22.1378 15.0252C22.1364 14.9987 22.1231 14.9736 22.1201 14.947C22.1157 14.9042 22.1142 14.8673 22.0714 14.8378C22.0449 14.8186 22.0375 14.7729 22.0257 14.7375C22.0169 14.7124 22.0198 14.6829 22.011 14.6578C21.9991 14.6268 21.9814 14.5973 21.9667 14.5663C21.9564 14.5457 21.949 14.5235 21.9386 14.5029C21.887 14.4025 21.8191 14.3081 21.8191 14.1886C21.8191 14.1517 21.8324 14.1089 21.7734 14.0942C21.7395 14.0853 21.7099 14.0602 21.676 14.041C21.6347 13.9363 21.614 13.8168 21.5462 13.7164C21.5107 13.6648 21.4886 13.5984 21.4429 13.5615C21.347 13.4877 21.2776 13.3697 21.1404 13.3534C21.0769 13.2295 20.9013 13.2516 20.8394 13.1247C20.8379 13.1203 20.8246 13.1203 20.8172 13.1203C20.7435 13.1085 20.6712 13.0967 20.59 13.0834C20.5797 13.1174 20.5679 13.1587 20.5561 13.1956C20.5339 13.166 20.5177 13.1365 20.4956 13.1144C20.4247 13.0421 20.3288 13.079 20.2433 13.0628C20.1916 13.0524 20.1267 13.0318 20.109 13.1188C20.0573 13.0554 20.0411 13.0554 19.9526 13.1115C19.9186 13.0583 19.9245 13.0642 19.8817 13.0996C19.8434 13.1306 19.7932 13.1498 19.746 13.1675C19.718 13.1793 19.684 13.1779 19.6678 13.1808C19.6206 13.1719 19.5852 13.1587 19.5483 13.1601C19.4981 13.1616 19.4494 13.1719 19.3933 13.1793C19.3874 13.1897 19.3756 13.2118 19.355 13.2487C19.3373 13.1882 19.3328 13.0996 19.2797 13.2103C19.2753 13.2206 19.2473 13.2192 19.2325 13.2265C19.2163 13.2339 19.1912 13.2457 19.1897 13.2575C19.1838 13.3151 19.1455 13.3151 19.1027 13.3151C19.0835 13.3151 19.0599 13.3166 19.0451 13.3269C18.9699 13.3785 18.8961 13.4213 18.809 13.3534C18.7928 13.3416 18.7766 13.3284 18.7618 13.3166C18.7456 13.3652 18.7323 13.4036 18.7175 13.4464C18.7235 13.4567 18.7353 13.4759 18.7456 13.4951C18.6792 13.5143 18.6231 13.532 18.5729 13.5467C18.5493 13.5379 18.5065 13.5157 18.5036 13.5217C18.4534 13.594 18.3797 13.5792 18.3088 13.5777C18.3 13.6058 18.2896 13.6323 18.2808 13.6604C18.2764 13.6559 18.2719 13.6515 18.2675 13.6471C18.2424 13.6648 18.2173 13.6825 18.1937 13.7002C18.1686 13.7194 18.145 13.7548 18.1185 13.7577C18.0329 13.7666 18.0093 13.8286 17.9827 13.892C17.8972 13.8433 17.8514 13.864 17.7998 13.951C17.7747 13.9953 17.7275 14.0469 17.6847 14.0543C17.605 14.0691 17.5696 14.1074 17.5386 14.1753C17.5209 14.2122 17.5017 14.2565 17.4353 14.2668C17.3733 14.2771 17.2878 14.3214 17.2671 14.373C17.2169 14.494 17.1343 14.5471 17.0354 14.5604C16.9956 14.618 16.9661 14.6608 16.9307 14.7124C16.91 14.6873 16.8982 14.674 16.8938 14.6681C16.8613 14.6785 16.8318 14.6977 16.8112 14.6932C16.7639 14.6814 16.7211 14.6563 16.671 14.6342C16.6695 14.615 16.6666 14.587 16.6621 14.5604C16.6562 14.5663 16.6518 14.5708 16.6459 14.5767C16.5943 14.5383 16.5382 14.5044 16.491 14.4601C16.4703 14.4409 16.4747 14.3966 16.457 14.3716C16.4054 14.2993 16.3567 14.2284 16.3641 14.1355C16.3641 14.1266 16.3611 14.1133 16.3552 14.1074C16.2888 14.0514 16.2682 13.9776 16.2711 13.8935C16.2726 13.8477 16.2711 13.802 16.2682 13.7563C16.2667 13.74 16.2608 13.7253 16.2534 13.7105C16.2416 13.6869 16.2254 13.6663 16.2165 13.6412C16.2047 13.6072 16.1973 13.5703 16.187 13.5349C16.19 13.5364 16.1929 13.5379 16.1959 13.5379C16.2032 13.4493 16.2106 13.3593 16.218 13.259C16.1752 13.2634 16.1339 13.2561 16.1191 13.2723C16.0468 13.3475 15.9509 13.3269 15.8801 13.3062C15.8152 13.287 15.7768 13.3313 15.7237 13.3239C15.6986 13.321 15.6706 13.3372 15.644 13.3446C15.6189 13.3446 15.5983 13.3593 15.5776 13.3579C15.4905 13.352 15.405 13.3461 15.3179 13.3534C15.2958 13.3549 15.2707 13.3372 15.2604 13.3328C15.1822 13.3475 15.1143 13.3593 15.0523 13.3711C14.9815 13.3623 14.9121 13.3534 14.8192 13.3416C14.8443 13.4007 14.8575 13.4553 14.8885 13.4951C14.9357 13.5556 14.9416 13.6279 14.8856 13.6899C14.9313 13.712 14.9564 13.7386 14.8885 13.7636C14.8826 13.7666 14.8797 13.7813 14.8767 13.7902C14.8664 13.8227 14.8546 13.8566 14.8428 13.895C14.8841 13.9422 14.8871 14.0042 14.8487 14.0676C14.8044 14.1429 14.8148 14.2343 14.8738 14.3052C14.8826 14.3155 14.8812 14.3332 14.8841 14.3465C14.893 14.376 14.9018 14.407 14.9121 14.438C14.8384 14.4763 14.8103 14.5516 14.8487 14.6386C14.8782 14.705 14.8782 14.767 14.831 14.826C14.8443 14.8408 14.8649 14.8541 14.8679 14.8688C14.8885 14.9677 14.9151 15.0651 14.9195 15.1654C14.9298 15.3631 14.9269 15.5608 14.9284 15.7586C14.9298 15.9769 14.9284 16.1939 14.9343 16.4122C14.9357 16.4683 14.9638 16.5229 14.9653 16.579C14.9667 16.6144 14.9328 16.6513 14.9313 16.6867C14.9254 16.8564 14.9269 17.0261 14.9239 17.1957C14.9239 17.209 14.9166 17.2238 14.9136 17.2371C14.9107 17.2562 14.9003 17.2798 14.9062 17.2946C14.949 17.3876 14.9874 17.479 14.9771 17.5853C14.9741 17.6163 14.9977 17.6532 15.0154 17.6841C15.0405 17.7284 15.0331 17.8568 15.008 17.8892C14.9933 17.9084 14.9785 17.9542 14.9859 17.9615C15.0538 18.0176 15.0213 18.0619 14.9889 18.0899C15.0036 18.1342 15.0199 18.1637 15.0243 18.1947C15.0376 18.2994 15.0479 18.4057 15.0567 18.5104C15.0582 18.5282 15.0508 18.5503 15.0405 18.565C15.0036 18.6226 14.9653 18.6772 14.9697 18.7524C14.9741 18.8233 14.9712 18.8941 14.9771 18.9649C14.9785 18.9944 14.9948 19.021 15.0036 19.0505C14.9697 19.1243 14.9166 19.2143 14.9372 19.2822C14.9653 19.3751 14.9948 19.4548 14.952 19.5463C14.9505 19.5492 14.9535 19.5551 14.9549 19.5581C14.9918 19.6437 14.9756 19.7263 14.9446 19.8089C14.9387 19.8252 14.9416 19.8517 14.9505 19.8665C14.9844 19.927 14.9771 20.0406 14.9313 20.0893C14.9579 20.1247 14.983 20.1616 15.0095 20.197C14.9682 20.2294 14.9579 20.38 14.9948 20.4227C15.0479 20.4832 15.0405 20.5836 14.9815 20.6249C14.9785 20.6264 14.98 20.6337 14.98 20.6396C14.9948 20.6529 15.0095 20.6677 15.0169 20.6736C15.0021 20.7046 14.9903 20.7282 14.98 20.7503C15.0685 20.7872 15.008 20.8344 14.9889 20.8802C15.0464 20.9377 15.0405 21.1325 14.9785 21.1826C15.0553 21.2417 15.0626 21.2727 15.0346 21.3715C15.0258 21.401 15.0228 21.432 15.0228 21.4615C15.0228 21.4733 15.0317 21.4955 15.0405 21.4984C15.1128 21.5205 15.1881 21.5397 15.2618 21.5589C15.281 21.5633 15.3061 21.5589 15.3179 21.5707C15.3577 21.6091 15.3873 21.5973 15.4286 21.5707C15.4492 21.5574 15.4846 21.5633 15.5127 21.5692C15.5422 21.5751 15.5702 21.5973 15.5983 21.5973C15.7148 21.6002 15.8314 21.5973 15.948 21.5943C15.9686 21.5943 15.9922 21.5973 16.007 21.5884C16.1147 21.5279 16.2298 21.5574 16.3405 21.5619C16.4437 21.5663 16.5072 21.5264 16.5101 21.4232C16.5116 21.3302 16.491 21.2254 16.5249 21.1443C16.5603 21.0558 16.55 20.9746 16.5574 20.889C16.5588 20.8757 16.5588 20.8639 16.5588 20.8507C16.5618 20.6249 16.5662 20.3991 16.5662 20.1749C16.5662 20.1099 16.4733 20.0509 16.5574 19.9816C16.5293 19.9329 16.4998 19.8842 16.4777 19.8458C16.491 19.8045 16.5028 19.7706 16.5146 19.7366C16.519 19.7233 16.5293 19.7115 16.5323 19.6968C16.5411 19.6525 16.5588 19.6068 16.5559 19.5625C16.5485 19.4902 16.5293 19.4194 16.5116 19.3486C16.5057 19.3279 16.4895 19.3087 16.4762 19.2851C16.5559 19.2541 16.5028 19.2187 16.4821 19.198C16.5116 19.0992 16.5529 19.0121 16.5603 18.9236C16.5721 18.7731 16.5603 18.6211 16.5647 18.4691C16.5662 18.4101 16.5264 18.3393 16.581 18.3083C16.5898 18.2493 16.5957 18.208 16.6016 18.1666C16.6031 18.1563 16.609 18.143 16.6046 18.1386C16.5515 18.0752 16.5824 18.0176 16.6016 17.9483C16.6311 17.8391 16.6208 17.724 16.6592 17.6089C16.7034 17.479 16.6562 17.3344 16.699 17.1913C16.7403 17.0541 16.7034 16.8977 16.7521 16.7531C16.7875 16.6498 16.7949 16.5377 16.8141 16.4299C16.8156 16.4226 16.8156 16.4122 16.82 16.4078C16.8953 16.3444 16.851 16.2425 16.9026 16.1658C16.944 16.1053 16.9499 16.0197 16.9735 15.946C16.9853 15.9105 17 15.8737 17.0192 15.8412C17.0443 15.7969 17.0753 15.7556 17.1033 15.7128C17.1505 15.642 17.1859 15.5579 17.245 15.5003C17.3276 15.4207 17.4265 15.3587 17.5209 15.2923C17.5711 15.2569 17.6242 15.2244 17.6773 15.1964C17.7319 15.1684 17.7894 15.1447 17.8455 15.1211C17.9149 15.0916 17.9827 15.0636 18.0521 15.0356C18.0609 15.0311 18.0713 15.0311 18.0801 15.0267C18.1332 15.0016 18.1834 14.9647 18.2395 14.9514C18.3575 14.9249 18.4785 14.9013 18.5995 14.8954C18.6733 14.8924 18.7456 14.8555 18.8223 14.885C18.8312 14.888 18.8459 14.8703 18.8592 14.8644C18.874 14.857 18.899 14.8437 18.9064 14.8496C18.9477 14.885 18.9964 14.8762 19.0422 14.8806C19.1602 14.891 19.2753 14.9072 19.3919 14.9396C19.4509 14.9559 19.5202 14.9264 19.5675 14.9957C19.5881 15.0252 19.6324 15.037 19.6663 15.0577C19.715 15.0872 19.743 15.1831 19.8257 15.1064C19.8316 15.1005 19.8537 15.102 19.8626 15.1093C19.9172 15.1492 19.9747 15.1846 20.0219 15.2318C20.0618 15.2716 20.0913 15.3233 20.1237 15.369C20.0736 15.4339 20.0824 15.4605 20.1488 15.4915C20.2255 15.5284 20.286 15.5815 20.2905 15.6774C20.2934 15.7615 20.2698 15.856 20.379 15.8987C20.3834 15.9002 20.3834 15.912 20.3879 15.9194C20.4129 15.9592 20.4395 15.9976 20.4616 16.0389C20.4808 16.0729 20.5 16.1083 20.4498 16.1393C20.4366 16.1481 20.4292 16.1761 20.4306 16.1939C20.4321 16.2086 20.4513 16.2234 20.4661 16.2322C20.4838 16.2425 20.5059 16.2455 20.5354 16.2558C20.5177 16.2794 20.5044 16.2957 20.4985 16.303C20.5251 16.368 20.5502 16.427 20.5708 16.4875C20.5738 16.4963 20.5531 16.5126 20.5531 16.5258C20.5472 16.5893 20.5162 16.6852 20.5457 16.7118C20.6077 16.7678 20.5679 16.7855 20.5457 16.818C20.5103 16.9405 20.6062 17.0467 20.5812 17.1707C20.5679 17.1795 20.5502 17.1928 20.5236 17.212C20.5502 17.2267 20.5693 17.2371 20.5871 17.2489C20.5871 17.2577 20.5885 17.2651 20.5871 17.2725C20.5634 17.3817 20.5133 17.4864 20.5295 17.6015C20.531 17.6089 20.5295 17.6192 20.5251 17.6236C20.4631 17.6709 20.4926 17.7196 20.5133 17.7756C20.5295 17.8199 20.5384 17.8848 20.5177 17.9202C20.4616 18.0117 20.4823 18.0899 20.5162 18.1784C20.531 18.2183 20.5236 18.2699 20.5192 18.3157C20.5148 18.3496 20.4867 18.3835 20.4897 18.416C20.4941 18.4706 20.5148 18.5237 20.531 18.5768C20.5398 18.6049 20.5531 18.63 20.5634 18.658C20.4852 18.6949 20.4823 18.6949 20.4897 18.8085C20.5 18.9797 20.4852 19.1464 20.3997 19.3028C20.4292 19.3146 20.4528 19.3249 20.4911 19.3412C20.4631 19.353 20.4439 19.3559 20.4351 19.3677C20.4144 19.3943 20.3805 19.4282 20.3864 19.4533C20.4011 19.5345 20.4306 19.6112 20.4557 19.6968C20.4115 19.7425 20.4115 19.744 20.472 19.7883C20.3864 19.8591 20.4543 19.9624 20.4218 20.0362C20.382 20.1262 20.3864 20.2073 20.4144 20.2944C20.3967 20.3047 20.379 20.3165 20.3598 20.3283C20.3672 20.3327 20.3746 20.3357 20.382 20.3401C20.3672 20.377 20.3421 20.4124 20.3421 20.4493C20.3377 20.616 20.3067 20.7857 20.3731 20.951C20.3672 20.9525 20.3613 20.9569 20.3539 20.9569C20.3052 20.9598 20.2551 20.9569 20.32 21.0233C20.3333 21.038 20.3259 21.0853 20.3126 21.1103C20.2801 21.1694 20.286 21.3405 20.3288 21.3804C20.2329 21.5146 20.2182 21.5176 20.2698 21.5914C20.2831 21.584 20.2979 21.5751 20.3156 21.5648C20.3362 21.6194 20.3495 21.6873 20.4188 21.6091C20.4262 21.6017 20.4484 21.6076 20.4631 21.6061C20.5767 21.5987 20.6903 21.6032 20.8025 21.6002C20.8246 21.6002 20.86 21.6032 20.8674 21.5914C20.8999 21.5412 20.9456 21.5604 20.9884 21.5604C21.0061 21.5604 21.0238 21.5604 21.04 21.5545C21.1419 21.5205 21.2451 21.4969 21.3529 21.5073C21.3794 21.5102 21.4045 21.5324 21.4311 21.5412C21.4443 21.5456 21.4665 21.5486 21.4753 21.5412C21.5344 21.4896 21.6509 21.4896 21.6893 21.5353C21.735 21.525 21.7734 21.5073 21.8118 21.5102C21.8486 21.5132 21.8855 21.5353 21.9224 21.5501C22.0154 21.5855 22.07 21.4778 22.1659 21.4969C22.1659 21.4335 22.1629 21.3804 22.1674 21.3272C22.1762 21.2151 22.1954 21.1044 22.1998 20.9923C22.2028 20.92 22.1806 20.8462 22.1792 20.7724C22.1777 20.6898 22.1615 20.5969 22.1939 20.526C22.2456 20.4124 22.2072 20.3047 22.2161 20.1955C22.2175 20.1749 22.1792 20.1424 22.1851 20.1335C22.2441 20.0509 22.2042 19.9565 22.219 19.8679C22.2382 19.7514 22.2352 19.6304 22.2367 19.5123C22.2367 19.4784 22.2352 19.4327 22.2146 19.412C22.1585 19.3692 22.1718 19.3367 22.222 19.2999Z" fill="#FFA466"></path>
<path d="M12.8367 22.1818C12.7688 22.2231 12.7039 22.2629 12.6375 22.3028C12.6271 22.3087 12.6124 22.3072 12.6006 22.3072C12.5371 22.3072 12.4796 22.3087 12.4176 22.35C12.3453 22.3972 12.2524 22.412 12.1683 22.4415C12.1373 22.4518 12.1078 22.4651 12.0709 22.4798C12 22.4267 11.972 22.4326 11.9012 22.4916C11.8658 22.5211 11.8156 22.5315 11.7669 22.5536C11.7566 22.5211 11.7477 22.4961 11.7359 22.4651C11.7005 22.4857 11.6621 22.5374 11.6415 22.4769C11.5677 22.499 11.5013 22.5182 11.4216 22.5418C11.3774 22.4887 11.3183 22.502 11.2431 22.5197C11.1914 22.5315 11.128 22.4931 11.0705 22.4754C11.0439 22.4665 11.0188 22.4459 10.9937 22.4459C10.9259 22.4444 10.8491 22.4341 10.7901 22.4606C10.6898 22.5049 10.6086 22.4725 10.5201 22.4385C10.5186 22.4385 10.5171 22.4341 10.5038 22.4149C10.523 22.4061 10.5452 22.3957 10.5717 22.3839C10.5378 22.3574 10.5142 22.3382 10.4861 22.3146C10.4242 22.3987 10.3238 22.4149 10.2279 22.4016C10.1556 22.3913 10.0892 22.3352 10.0154 22.3219C9.92396 22.3072 9.85904 22.2467 9.77936 22.2172C9.72034 22.195 9.66869 22.1906 9.66279 22.1168C9.63328 22.1109 9.60672 22.1065 9.58016 22.1006C9.58459 22.0962 9.59049 22.0918 9.59492 22.0873C9.5418 22.0195 9.49015 21.9516 9.43408 21.8778C9.43999 21.869 9.45179 21.8542 9.46802 21.835C9.39867 21.8026 9.34998 21.7598 9.4208 21.686C9.36916 21.6314 9.36916 21.6314 9.42523 21.5783C9.29538 21.534 9.45474 21.4765 9.41195 21.4204C9.39277 21.416 9.36916 21.4115 9.32489 21.4012C9.33817 21.3673 9.35588 21.3392 9.36031 21.3068C9.36621 21.2625 9.38096 21.2035 9.36031 21.1725C9.31456 21.1076 9.33522 21.0854 9.39719 21.0633C9.40752 21.0589 9.4208 21.0279 9.41638 21.022C9.39277 20.9954 9.36326 20.9718 9.3367 20.9482C9.40605 20.8789 9.40605 20.8715 9.32489 20.7962C9.36031 20.7254 9.39719 20.6546 9.43556 20.5793C9.39719 20.5646 9.37506 20.5542 9.34998 20.5439C9.41785 20.4583 9.37063 20.3742 9.34555 20.2857C9.36031 20.2739 9.37506 20.2636 9.38982 20.2503C9.38539 20.24 9.38539 20.2311 9.37949 20.2267C9.36916 20.2164 9.34555 20.2075 9.34555 20.2001C9.36031 20.088 9.288 19.9714 9.36326 19.8607C9.37211 19.8475 9.34998 19.8121 9.33965 19.7825C9.34408 19.7811 9.35735 19.7766 9.37063 19.7722C9.38834 19.7663 9.40605 19.7589 9.42375 19.753C9.41047 19.7398 9.39424 19.7279 9.38391 19.7132C9.37359 19.6955 9.36473 19.6719 9.36473 19.6527C9.36621 19.4874 9.37063 19.3222 9.36916 19.1584C9.36916 19.1274 9.34112 19.0964 9.31899 19.0522C9.31899 19.0035 9.31899 18.9312 9.31899 18.8589C9.31899 18.8382 9.32047 18.8175 9.31752 18.7984C9.31309 18.7674 9.30719 18.7379 9.29243 18.7069C9.32047 18.6774 9.3544 18.6479 9.28653 18.611C9.27472 18.6051 9.27768 18.5741 9.27325 18.5549C9.32342 18.5224 9.34112 18.4354 9.30719 18.3852C9.26882 18.3277 9.24226 18.2716 9.31752 18.2185C9.3308 18.2096 9.32637 18.1757 9.3308 18.1535C9.34112 18.1004 9.35588 18.0488 9.36178 17.9957C9.36473 17.9676 9.3544 17.9396 9.3426 17.9116C9.34703 17.8835 9.41933 17.8658 9.3485 17.8201C9.34112 17.8156 9.37506 17.7448 9.39572 17.6888C9.37949 17.6533 9.29538 17.6135 9.36621 17.5191C9.39424 17.4807 9.37063 17.4069 9.37506 17.3494C9.37654 17.3272 9.39277 17.3051 9.4031 17.283C9.409 17.2697 9.41933 17.2579 9.4208 17.2461C9.42375 17.1502 9.42671 17.0528 9.42375 16.9569C9.42228 16.9274 9.40457 16.8993 9.38982 16.858C9.40752 16.8359 9.44441 16.8079 9.45917 16.771C9.48573 16.7046 9.43851 16.647 9.4031 16.6013C9.37506 16.5644 9.36178 16.5541 9.41195 16.5393C9.4149 16.5393 9.41785 16.5378 9.41785 16.5364C9.42671 16.47 9.42523 16.4065 9.46212 16.3416C9.48278 16.3032 9.42818 16.225 9.40605 16.1586C9.41047 16.1453 9.42523 16.1158 9.42375 16.0893C9.41785 16.0184 9.46212 15.9402 9.39867 15.8753C9.39867 15.8753 9.41195 15.8635 9.4149 15.8561C9.41933 15.8429 9.42228 15.8281 9.42523 15.8148C9.3544 15.803 9.38687 15.7322 9.35735 15.6953C9.31899 15.6496 9.32194 15.6053 9.35588 15.5551C9.37211 15.5315 9.38096 15.4902 9.37063 15.4651C9.3426 15.3958 9.34998 15.322 9.40162 15.2659C9.4149 15.2526 9.4208 15.232 9.43556 15.2084C9.39867 15.2025 9.37359 15.1995 9.33965 15.1936C9.34408 15.1685 9.33965 15.139 9.35145 15.1228C9.4031 15.0608 9.34998 15.0225 9.31309 15.0062C9.24964 14.9782 9.27325 14.9531 9.31014 14.9369C9.36621 14.9118 9.38687 14.872 9.36621 14.8188C9.35293 14.7849 9.32489 14.7569 9.30276 14.7259C9.32047 14.6949 9.36916 14.6491 9.36621 14.6049C9.36326 14.5591 9.31309 14.5163 9.27915 14.4677C9.30424 14.4632 9.32932 14.4573 9.36031 14.4514C9.36178 14.4396 9.36916 14.4263 9.36473 14.416C9.31604 14.3157 9.35293 14.2345 9.41785 14.1563C9.42671 14.146 9.41933 14.1194 9.4149 14.1032C9.4031 14.0604 9.38687 14.0176 9.37359 13.9733C9.36473 13.9453 9.35736 13.9158 9.34555 13.876C9.36326 13.8538 9.38982 13.8214 9.41933 13.7845C9.39572 13.7609 9.34407 13.7284 9.42228 13.7018C9.41047 13.6354 9.4931 13.5764 9.43113 13.5027C9.40015 13.4658 9.41638 13.4097 9.42966 13.3669C9.44589 13.3138 9.4813 13.268 9.49901 13.2164C9.50638 13.1943 9.4931 13.1662 9.49015 13.1397C9.48278 13.1382 9.4754 13.1367 9.46802 13.1352C9.54032 13.0526 9.60967 12.967 9.68345 12.8859C9.70706 12.8608 9.74247 12.8401 9.77641 12.8298C9.85609 12.8047 9.93577 12.7826 10.0184 12.7693C10.073 12.7605 10.1291 12.7723 10.1851 12.7678C10.2043 12.7664 10.2235 12.7457 10.2427 12.7324C10.3032 12.7826 10.3902 12.7708 10.4817 12.7339C10.5348 12.7118 10.6057 12.7324 10.6676 12.7324C10.6986 12.7324 10.7281 12.7309 10.7591 12.7309C10.8299 12.7309 10.9008 12.6985 10.9716 12.7546C11.0011 12.7782 11.0587 12.7649 11.1014 12.7678C11.1132 12.7383 11.1236 12.7147 11.1324 12.6926C11.1369 12.7 11.1398 12.7073 11.1442 12.7147C11.1723 12.7044 11.2003 12.6896 11.2298 12.6882C11.2652 12.6867 11.3006 12.697 11.342 12.7014C11.3847 12.6793 11.4364 12.6527 11.488 12.6262C11.5175 12.6277 11.5412 12.7073 11.581 12.6291C11.5869 12.6173 11.6636 12.6409 11.7094 12.6454C11.7448 12.6483 11.7905 12.6616 11.8156 12.6454C11.8687 12.6085 11.9071 12.604 11.9587 12.6468C11.9779 12.6631 12.0266 12.6601 12.0517 12.6468C12.124 12.6085 12.1963 12.61 12.2656 12.6572C12.2848 12.6704 12.3188 12.6645 12.3468 12.6645C12.4368 12.6675 12.5312 12.6513 12.6139 12.6764C12.7614 12.7206 12.9031 12.7885 12.9857 12.9331C13.0123 12.9803 13.0064 13.122 12.9695 13.1692C12.8913 13.2695 12.8957 13.3846 12.909 13.5071C12.9311 13.513 12.9547 13.5189 12.9798 13.5248C12.9724 13.6089 12.9591 13.69 12.9591 13.7712C12.9591 13.8332 12.996 13.8981 12.9842 13.9542C12.9621 14.0501 13.0123 14.1357 12.9975 14.2286C12.9931 14.2537 13.027 14.2817 13.0344 14.3112C13.0418 14.3422 13.0506 14.385 13.0359 14.4057C12.9916 14.4647 13.0019 14.5031 13.0344 14.5709C13.058 14.6196 13.0624 14.7126 13.0329 14.7451C12.9901 14.7908 13.0123 14.8041 13.0373 14.8306C12.9901 14.8646 12.9828 14.9177 13.0255 14.9649C13.0182 15.0136 12.999 15.0579 13.0123 15.0726C13.0536 15.1154 13.0506 15.142 13.0167 15.1877C13.0034 15.2054 13.0226 15.2497 13.0388 15.2822C13.0078 15.3397 12.9695 15.3943 13.0432 15.4577C13.0551 15.4666 13.0462 15.5241 13.03 15.5359C12.9783 15.5728 13.0108 15.6023 13.0211 15.6407C13.0329 15.6776 13.0285 15.7189 13.03 15.7588C13.03 15.7691 13.027 15.7824 13.0314 15.7897C13.058 15.8251 13.0462 15.8797 13.061 15.9034C13.1096 15.9786 13.0728 16.0391 13.058 16.107C13.0551 16.1232 13.0713 16.1453 13.0801 16.1645C13.0713 16.1881 13.0551 16.2162 13.0521 16.2457C13.0462 16.2899 13.0551 16.3357 13.0123 16.3726C13.0005 16.3829 13.0019 16.4301 13.0152 16.4449C13.0698 16.5098 13.061 16.5644 12.9828 16.5924C12.9754 16.5954 12.9695 16.5998 12.9769 16.5954C12.968 16.6898 12.9591 16.7754 12.9547 16.8595C12.9532 16.892 12.9577 16.9274 12.968 16.9569C13.0123 17.0867 12.94 17.2136 12.9577 17.342C12.9695 17.4187 12.9946 17.4955 12.9946 17.5737C12.996 17.6681 13.0049 17.764 12.9636 17.857C12.9473 17.8924 12.9739 17.9455 12.9754 17.9898C12.9783 18.0857 12.9769 18.1831 12.9798 18.279C12.9813 18.3439 12.9429 18.4059 12.9783 18.4767C12.9975 18.5151 12.9798 18.5741 12.9695 18.6213C12.9591 18.6715 12.9931 18.7969 13.0255 18.8367C13.0388 18.8544 13.0418 18.9031 13.03 18.9149C12.9783 18.9607 12.999 18.9976 13.027 19.0433C13.0373 19.061 13.0329 19.0905 13.0285 19.1141C13.0211 19.1422 12.996 19.1702 12.9975 19.1968C13.0019 19.2646 13.0152 19.3325 13.0344 19.4004C12.999 19.4269 12.9636 19.4564 13.0403 19.4933C12.9783 19.5509 12.9828 19.6306 13.0388 19.6807C13.0255 19.725 13.0137 19.7634 13.0005 19.8002C12.9916 19.8253 12.9754 19.8489 12.9695 19.8755C12.965 19.9006 12.9636 19.933 12.9739 19.9537C12.9975 19.998 13.027 20.0349 12.9665 20.0732C12.9591 20.0776 12.9577 20.1042 12.9636 20.1145C13.0226 20.209 13.0167 20.3167 12.9931 20.4141C12.9798 20.4701 12.9488 20.5247 12.9518 20.5852C12.9532 20.6147 12.9695 20.6428 12.9798 20.6723C12.9842 20.687 12.9916 20.7003 12.9916 20.7151C12.9975 20.8287 13.0064 20.9408 13.0049 21.0545C13.0034 21.0987 12.9709 21.143 12.9621 21.1887C12.9385 21.3053 12.9208 21.4248 12.8972 21.5414C12.8898 21.5768 12.8529 21.6137 12.8588 21.6447C12.8691 21.714 12.8868 21.7863 12.9208 21.8483C12.9591 21.9176 12.9577 21.9501 12.9134 22.015C12.8677 22.0652 12.8559 22.1301 12.8367 22.1818ZM10.3194 19.033C10.3519 19.089 10.3976 19.1348 10.3991 19.182C10.4065 19.3266 10.4256 19.4712 10.4035 19.6158C10.3991 19.6438 10.3681 19.6675 10.3637 19.694C10.3519 19.7855 10.3578 19.8799 10.315 19.9685C10.3091 19.9803 10.3283 20.0053 10.3371 20.0245C10.3445 20.0393 10.3578 20.0526 10.3607 20.0673C10.3696 20.1116 10.3445 20.1647 10.402 20.1942C10.4079 20.1972 10.4079 20.2326 10.3991 20.2444C10.3445 20.3078 10.3489 20.3654 10.3976 20.4333C10.4153 20.4569 10.4138 20.5218 10.3947 20.5395C10.3253 20.6029 10.3578 20.6944 10.3165 20.7638C10.3091 20.7756 10.3238 20.7992 10.3283 20.8184C10.3312 20.8302 10.3386 20.842 10.3371 20.8538C10.3342 20.9349 10.3224 21.0161 10.3283 21.0972C10.3297 21.1223 10.3622 21.143 10.3268 21.1695C10.3224 21.174 10.3253 21.1946 10.3297 21.205C10.3666 21.2802 10.4227 21.3481 10.4065 21.4425C10.4035 21.4558 10.4242 21.472 10.433 21.4868C10.3961 21.5015 10.3592 21.5148 10.3165 21.5311C10.3696 21.5665 10.4197 21.5886 10.4537 21.6255C10.5053 21.6816 10.5452 21.6816 10.588 21.6181C10.6027 21.6447 10.6145 21.6668 10.6366 21.7096C10.6647 21.593 10.7414 21.6107 10.8137 21.6078C10.855 21.6048 10.8963 21.5871 10.9362 21.5738C10.9819 21.5576 11.0262 21.537 11.0719 21.5207C11.0808 21.5178 11.0955 21.5355 11.1088 21.537C11.1752 21.5443 11.2416 21.5532 11.3065 21.5517C11.3361 21.5517 11.3626 21.5207 11.3921 21.5178C11.4393 21.5119 11.4866 21.5163 11.5397 21.5163C11.5574 21.5679 11.5751 21.5753 11.6238 21.5237C11.6562 21.4897 11.7197 21.4794 11.7713 21.4691C11.8156 21.4602 11.8717 21.4794 11.9056 21.4588C11.9617 21.4248 12.0133 21.4071 12.0797 21.4071C12.1019 21.4071 12.1446 21.3466 12.1373 21.3274C12.1255 21.292 12.0827 21.2684 12.0664 21.2522C12.0797 21.2035 12.0901 21.1681 12.0989 21.1341C12 21.0987 12 21.0987 12.0384 20.9999C12.0414 20.994 12.0399 20.9851 12.0384 20.9777C12.0281 20.9276 12.0414 20.8892 12.0782 20.8612C12.1638 20.7992 12.1683 20.6885 12.1004 20.6118C12.062 20.5705 12.0045 20.5159 12.0856 20.4539C12.096 20.4465 12.0945 20.4141 12.0886 20.3964C12.0738 20.358 12.062 20.3093 12.0325 20.2887C11.9543 20.2341 11.9956 20.1839 12.0251 20.1293C12.0532 20.0791 12.0664 20.0304 12.0074 20.0009C12.0473 19.9463 12.0856 19.8962 12.1225 19.846C12.1166 19.8416 12.1122 19.8371 12.1063 19.8327C12.1284 19.8224 12.1505 19.8121 12.1727 19.8017C12.155 19.7191 12.1004 19.6822 12.0281 19.6719C11.9853 19.666 11.944 19.6689 11.9469 19.6099C11.9484 19.5701 11.9381 19.5066 11.9587 19.4948C12.0207 19.4594 12 19.4092 12.0015 19.362C12.0045 19.2661 12.003 19.1717 12.0089 19.0758C12.0118 19.0256 12.0384 18.9754 12.0369 18.9253C12.0355 18.8839 12.0089 18.8426 11.9956 18.7998C11.9853 18.7674 11.9794 18.7334 11.9735 18.7039C11.9794 18.6818 11.9986 18.6493 11.9897 18.636C11.9691 18.6051 11.9351 18.5829 11.8997 18.5505C12.0118 18.5136 11.8791 18.4752 11.913 18.431C11.9336 18.428 11.9602 18.4221 11.9956 18.4162C11.9705 18.2908 11.9469 18.1713 11.9204 18.0399C11.9218 18.037 11.9307 18.0207 11.944 18.006C11.9573 17.9898 11.972 17.9765 11.9868 17.9617C11.9322 17.8894 11.9336 17.8511 11.9897 17.7817C11.9971 17.7729 12.0015 17.7552 11.9971 17.7463C11.9632 17.6799 11.9263 17.6165 11.8879 17.5471C11.9292 17.5191 11.9027 17.4851 11.854 17.4497C11.8923 17.4438 11.9159 17.4394 11.9528 17.432C11.944 17.3715 11.9351 17.3125 11.9263 17.2535C11.9366 17.2313 11.975 17.2092 11.9218 17.1664C11.9071 17.1546 11.9041 17.0971 11.91 17.0941C11.9868 17.0646 11.9322 17.0395 11.913 17.0189C11.9381 16.9628 11.9617 16.9111 11.9882 16.8551C11.9794 16.8447 11.9499 16.8285 11.9484 16.8093C11.9425 16.7503 11.9469 16.6883 11.9499 16.6293C11.9499 16.616 11.9558 16.5969 11.9646 16.5895C12.0251 16.5452 12.0045 16.5054 11.975 16.4803C11.9897 16.4375 12.0059 16.4065 12.0118 16.374C12.0237 16.3165 12.031 16.259 12.0369 16.2014C12.0384 16.1822 12.0369 16.1557 12.0237 16.1424C11.9823 16.0996 12.0104 16.076 12.0428 16.0539C12.0561 16.045 12.0753 16.0435 12.0886 16.0391C12.1269 15.924 12.0502 15.8517 12.0015 15.7706C12.0163 15.7528 12.0399 15.7366 12.0399 15.7204C12.0399 15.6466 12.0473 15.5669 12.0251 15.4991C12.0089 15.4474 12.0369 15.4268 12.0517 15.3943C12.0561 15.384 12.0694 15.3677 12.0679 15.3648C11.9941 15.2777 12.0576 15.1833 12.0517 15.0918C12.0502 15.0697 12.0723 15.0446 12.0827 15.021C12.0384 14.8867 12.0251 14.7539 12.0886 14.6137C12.0812 14.6078 12.0664 14.5945 12.0605 14.5901C12.093 14.4927 12.1328 14.4072 12.1461 14.3171C12.155 14.2596 12.2022 14.1755 12.1048 14.1342C12.1019 14.1327 12.1004 14.1194 12.1019 14.112C12.1122 14.0338 12.1225 13.9542 12.1328 13.876C12.1358 13.8524 12.1328 13.8258 12.1373 13.8037C12.1461 13.7712 12.1594 13.7387 12.1712 13.7063C12.1786 13.6856 12.1948 13.665 12.1919 13.6473C12.1889 13.6325 12.1624 13.6104 12.1476 13.6104C12.1033 13.6118 12.0605 13.6236 12.0133 13.6325C11.9838 13.5484 11.9853 13.5528 11.885 13.5897C11.8481 13.603 11.8023 13.5912 11.761 13.5897C11.7359 13.5882 11.7094 13.5794 11.6858 13.5868C11.6282 13.603 11.5721 13.6295 11.5352 13.5735C11.4939 13.5779 11.4615 13.5809 11.4202 13.5838C11.4025 13.6679 11.3508 13.6664 11.2815 13.6192C11.2637 13.6059 11.2313 13.6045 11.2077 13.6104C11.0749 13.6414 10.9465 13.5469 10.8137 13.603C10.8063 13.6059 10.7916 13.6045 10.7842 13.5986C10.7503 13.5735 10.7281 13.5764 10.6898 13.6015C10.6617 13.6192 10.6086 13.5986 10.5673 13.5897C10.5334 13.5823 10.5024 13.5691 10.4537 13.5528C10.4743 13.665 10.5053 13.7505 10.5038 13.8346C10.4965 14.1578 10.4788 14.4795 10.467 14.8026C10.464 14.8838 10.4699 14.9649 10.4611 15.0461C10.4552 15.1036 10.4301 15.1597 10.4138 15.2158C10.4124 15.2202 10.4138 15.2261 10.4138 15.2335C10.4315 15.2438 10.4493 15.2556 10.4684 15.2659C10.4611 15.2674 10.4537 15.2703 10.4463 15.2718C10.4625 15.3692 10.4788 15.4681 10.492 15.5655C10.495 15.5861 10.4861 15.6082 10.4802 15.6304C10.4566 15.7145 10.4434 15.7971 10.4802 15.8517C10.4729 15.9211 10.4699 15.9698 10.464 16.017C10.4596 16.0524 10.4507 16.0878 10.4404 16.1365C10.4434 16.1453 10.4581 16.1689 10.4581 16.1926C10.4611 16.3047 10.4625 16.4183 10.4596 16.5305C10.4596 16.5511 10.433 16.5703 10.4227 16.5924C10.4168 16.6057 10.4138 16.6337 10.4183 16.6352C10.5127 16.6795 10.4345 16.7208 10.4271 16.7606C10.4463 16.8315 10.4625 16.9038 10.4625 16.9761C10.4625 17.0321 10.4552 17.0941 10.4286 17.1413C10.4006 17.193 10.4006 17.2254 10.436 17.2505C10.4242 17.2889 10.4094 17.3199 10.4079 17.3523C10.4035 17.4438 10.4124 17.5353 10.405 17.6253C10.3961 17.7286 10.4345 17.8378 10.371 17.9352C10.3651 17.944 10.3755 17.9632 10.3799 17.9765C10.3873 18.0001 10.405 18.0252 10.402 18.0473C10.3947 18.1196 10.374 18.1919 10.3696 18.2642C10.3637 18.3675 10.3681 18.4693 10.3681 18.5741C10.3932 18.58 10.4153 18.5844 10.4301 18.5874C10.4212 18.6242 10.4079 18.6523 10.4065 18.6818C10.4035 18.7393 10.4079 18.7984 10.4065 18.8559C10.4079 18.9356 10.4301 19.0271 10.3194 19.033Z" fill="#FFA466"></path>
<path d="M9.33584 10.5056C9.38749 10.4392 9.35798 10.3138 9.28125 10.2666C9.30043 10.237 9.31814 10.2061 9.34027 10.1795C9.36093 10.1544 9.38601 10.1338 9.41405 10.1072C9.39929 10.088 9.36683 10.0644 9.3624 10.0349C9.35798 10.0142 9.38896 9.98621 9.41257 9.96555C9.42733 9.87259 9.47897 9.80619 9.57341 9.7752C9.54832 9.68815 9.58816 9.6306 9.65751 9.57601C9.68997 9.55092 9.68702 9.48157 9.71949 9.45796C9.77113 9.42107 9.76228 9.37681 9.77113 9.32959C9.77556 9.29713 9.80064 9.24844 9.82425 9.24401C9.9113 9.22335 9.92754 9.1422 9.96147 9.0876C10.0057 9.01678 10.0574 8.99464 10.1312 8.99464C10.1533 8.99464 10.1754 8.99169 10.2035 8.99022C10.2005 8.89431 10.2595 8.8648 10.3392 8.83824C10.4159 8.81168 10.4853 8.75856 10.5546 8.71282C10.5694 8.70249 10.5709 8.67298 10.5812 8.64789C10.6004 8.66412 10.6137 8.67593 10.6314 8.68921C10.6491 8.6715 10.6624 8.65675 10.6786 8.64051C10.7096 8.65527 10.7347 8.75118 10.7686 8.64937C10.7701 8.64642 10.7774 8.64347 10.7819 8.64347C10.8763 8.62281 10.9707 8.60363 11.0637 8.58002C11.1493 8.55788 11.2319 8.52985 11.316 8.50476C11.3352 8.49886 11.3618 8.49001 11.3736 8.49886C11.4798 8.57116 11.5993 8.52985 11.7115 8.54018C11.831 8.55198 11.9446 8.56674 12.0494 8.63461C12.0981 8.66707 12.1615 8.67593 12.2176 8.69954C12.2456 8.71134 12.2692 8.732 12.2943 8.75118C12.3341 8.78069 12.3769 8.80873 12.4123 8.84414C12.4861 8.91939 12.6145 8.88841 12.6735 8.99317C12.7193 9.07285 12.7857 9.14072 12.8343 9.21893C12.8609 9.26172 12.8742 9.31631 12.8875 9.36648C12.8904 9.37828 12.8668 9.39599 12.8609 9.40632C12.9185 9.45796 12.9716 9.51403 13.0321 9.5583C13.0911 9.60257 13.1722 9.62765 13.1221 9.72651C13.19 9.77668 13.1914 9.85193 13.1885 9.92276C13.184 10.0334 13.2047 10.1441 13.1663 10.2548C13.1472 10.3093 13.1604 10.3743 13.1442 10.4303C13.1236 10.5012 13.0852 10.5661 13.0557 10.634C13.0513 10.6443 13.0453 10.665 13.0498 10.6679C13.0896 10.693 13.0498 10.7166 13.0513 10.7358C13.0645 10.873 12.9435 10.9261 12.8801 11.0132C12.8299 11.0825 12.7783 11.1445 12.7842 11.2389C12.7591 11.2345 12.7384 11.2271 12.7178 11.2271C12.6971 11.2271 12.6765 11.233 12.6558 11.236C12.6661 11.2507 12.6853 11.2655 12.6838 11.2788C12.6794 11.326 12.6853 11.3924 12.6558 11.4175C12.5555 11.506 12.43 11.5606 12.3371 11.6639C12.2869 11.7185 12.2013 11.7406 12.1349 11.7819C12.1113 11.7967 12.0981 11.8292 12.0744 11.8631C12.0051 11.8631 11.9357 11.8719 11.8797 11.956C11.8546 11.9944 11.7587 11.987 11.6923 12.0003C11.7159 12.0018 11.7395 12.0033 11.7631 12.0047C11.7616 12.0106 11.7602 12.0165 11.7602 12.0224C11.7188 12.0106 11.679 11.9929 11.6362 11.9885C11.5949 11.9841 11.5506 11.9885 11.5093 11.9944C11.4591 12.0018 11.409 12.0121 11.3588 12.0239C11.3219 12.0328 11.2865 12.0505 11.2481 12.0534C11.1921 12.0593 11.1212 12.08 11.0785 12.0549C10.9988 12.0092 10.9176 12.0269 10.8379 12.0195C10.7833 12.0136 10.7243 12.0254 10.6712 12.0136C10.5974 11.9959 10.5281 11.962 10.4558 11.9354C10.4366 11.928 10.4174 11.9192 10.3982 11.9177C10.3599 11.9147 10.3274 11.9177 10.2994 11.8734C10.2772 11.838 10.2315 11.8085 10.1754 11.8188C10.1592 11.8218 10.1341 11.8011 10.1194 11.7864C10.0485 11.7185 9.97918 11.6477 9.90688 11.5813C9.89507 11.5709 9.86999 11.5768 9.85671 11.5665C9.8272 11.5429 9.78883 11.5193 9.77556 11.4868C9.74162 11.3968 9.69883 11.3186 9.6162 11.2581C9.63538 11.1534 9.54537 11.1371 9.45979 11.1017C9.50258 11.0855 9.53209 11.0752 9.58078 11.0574C9.53357 11.0353 9.50258 11.022 9.49373 11.0176C9.45979 10.9025 9.43028 10.7992 9.39634 10.6856C9.44208 10.631 9.44503 10.6281 9.33584 10.5056ZM10.3938 10.4967C10.385 10.5307 10.3658 10.5602 10.3746 10.5749C10.413 10.6458 10.4528 10.7151 10.475 10.7948C10.4853 10.8346 10.503 10.8863 10.5738 10.8878C10.6151 10.8878 10.6565 10.9246 10.6948 10.9497C10.745 10.9822 10.7819 11.0368 10.8542 11.0265C10.8734 11.0235 10.894 11.0442 10.9147 11.0486C10.9457 11.0545 10.9766 11.056 11.0076 11.0589C11.018 11.0589 11.0298 11.0515 11.0401 11.053C11.1153 11.0589 11.1921 11.0648 11.2673 11.0737C11.3706 11.0855 11.4223 10.9851 11.5093 10.9615C11.5182 10.9601 11.5211 10.9394 11.5285 10.9246C11.5492 10.9424 11.5639 10.9556 11.5831 10.9704C11.5949 10.9512 11.6052 10.9232 11.6126 10.9246C11.6864 10.9276 11.7395 10.9217 11.7734 10.8317C11.7985 10.7609 11.8738 10.7077 11.9254 10.6472C11.9623 10.6281 11.9977 10.6148 12.0169 10.5528C12.0346 10.4953 12.0862 10.448 12.1261 10.392C12.1231 10.3831 12.1054 10.358 12.1099 10.3403C12.1202 10.3079 12.1453 10.2798 12.163 10.2489C12.1851 10.209 12.2131 10.0113 12.1999 9.97145C12.1895 9.94046 12.163 9.91095 12.1615 9.88144C12.1571 9.73979 12.0508 9.66749 11.9638 9.58191C11.9239 9.54207 11.8649 9.52141 11.8221 9.48305C11.8 9.46386 11.7926 9.42698 11.7779 9.39599C11.7587 9.41222 11.7424 9.42698 11.7188 9.44763C11.6967 9.36943 11.6598 9.39009 11.6096 9.41075C11.5314 9.44321 11.4473 9.47862 11.3647 9.4801C11.2452 9.48157 11.1331 9.4978 11.0268 9.54649C10.9973 9.55977 10.9796 9.60109 10.9545 9.62765C10.9206 9.66306 10.8911 9.71618 10.8497 9.72799C10.7922 9.74274 10.7509 9.75602 10.7509 9.82537C10.6328 9.80766 10.6151 9.91981 10.5709 9.97735C10.5414 10.0157 10.531 10.0556 10.4705 10.0497C10.4764 10.1706 10.4617 10.2784 10.3776 10.3698C10.3436 10.4067 10.3481 10.4672 10.3938 10.4967Z" fill="#FFA466"></path>
</svg>