<svg width="22" height="22" viewBox="0 0 22 22" fill="none" xmlns="http://www.w3.org/2000/svg">
<g id="a" clip-path="url(#clip0_3036_13806)">
<path class="aiStar" id="blink-3" d="M17.4707 13.537C17.3707 13.317 17.2007 13.157 16.9507 13.077H16.9407C16.6707 12.997 16.4207 12.877 16.1607 12.777C16.0807 12.747 16.0207 12.697 15.9407 12.667C15.6607 12.557 15.3707 12.457 15.0907 12.347C14.9607 12.287 14.8407 12.197 14.7107 12.137C14.3807 12.007 14.0407 11.887 13.7207 11.747C13.2507 11.547 12.7907 11.337 12.3207 11.147C12.1407 11.077 12.0307 10.977 12.0207 10.797C12.0007 10.417 11.8107 10.087 11.6807 9.737C11.6107 9.527 11.5007 9.327 11.4307 9.117C11.3807 8.937 11.3507 8.747 11.3007 8.567C11.3007 8.546 11.2807 8.527 11.2707 8.517C11.1607 8.307 11.0007 8.107 10.9207 7.877C10.7807 7.487 10.7307 7.037 10.5307 6.677C10.3907 6.427 10.3807 6.187 10.3607 5.947C10.3407 5.717 10.2807 5.557 10.1007 5.437C9.76072 5.217 9.49072 5.137 9.18072 5.517C9.09072 5.617 9.06072 5.757 9.00072 5.867C8.92072 6.007 8.81073 6.137 8.74073 6.287C8.53073 6.707 8.34072 7.127 8.13072 7.547C8.05072 7.707 7.95072 7.857 7.87072 8.007C7.73072 8.277 7.61072 8.547 7.48072 8.807C7.31072 9.127 7.13072 9.437 6.96072 9.747C6.85072 9.937 6.74072 10.117 6.63072 10.307C6.57072 10.417 6.51072 10.537 6.45072 10.647C6.34072 10.847 6.27072 11.097 6.10072 11.227C5.86072 11.407 5.54072 11.487 5.26072 11.637C4.73072 11.927 4.14072 12.077 3.60072 12.377C3.06072 12.687 2.47072 12.957 1.87072 13.157C1.73072 13.207 1.61072 13.347 1.50072 13.457C1.40072 13.567 1.46072 13.697 1.49072 13.827C1.57072 14.127 1.73072 14.317 2.00072 14.307C2.28072 14.307 2.51072 14.427 2.75072 14.527C2.92072 14.607 3.09072 14.677 3.26072 14.747C3.49072 14.847 3.75072 14.887 3.95072 15.027C4.20072 15.207 4.48072 15.297 4.75072 15.407C4.95072 15.487 5.15072 15.557 5.34072 15.637C5.60072 15.747 5.85072 15.887 6.11072 15.977C6.36072 16.057 6.56072 16.177 6.68072 16.407C6.74072 16.517 6.76072 16.647 6.79072 16.777C6.84072 16.977 6.90072 17.197 6.95072 17.407C7.00072 17.607 7.01072 17.827 7.18072 17.987C7.27072 18.077 7.35072 18.187 7.23072 18.317C7.22072 18.327 7.23072 18.377 7.24072 18.407C7.29072 18.557 7.34072 18.697 7.40072 18.837C7.50072 19.077 7.62072 19.307 7.65072 19.587C7.67072 19.787 7.72072 19.967 7.83072 20.147C7.98072 20.387 8.11072 20.647 8.17072 20.917C8.24072 21.217 8.34072 21.497 8.54072 21.717C8.65072 21.847 8.85072 22.017 8.97072 21.997C9.23072 21.937 9.53072 21.857 9.65072 21.547C9.66072 21.517 9.72072 21.517 9.76072 21.497C9.67072 21.397 9.64072 21.317 9.75072 21.227C9.78072 21.197 9.79072 21.137 9.81072 21.087C9.87072 20.957 9.93072 20.807 10.0007 20.677C10.0507 20.577 10.1207 20.497 10.1707 20.397C10.2507 20.227 10.3207 20.057 10.4007 19.877C10.4707 19.707 10.5507 19.527 10.6207 19.347C10.6407 19.317 10.6307 19.277 10.6507 19.247C10.7207 19.097 10.8107 18.967 10.8707 18.817C10.9907 18.557 11.1107 18.287 11.2207 18.017C11.3307 17.767 11.4307 17.517 11.5307 17.257C11.5907 17.107 11.6607 16.957 11.7307 16.807C11.7707 16.717 11.8307 16.637 11.8707 16.557C11.9607 16.407 12.0107 16.217 12.2407 16.187C12.5107 16.147 12.8207 16.177 13.0307 15.917C13.0407 15.907 13.0507 15.907 13.0607 15.907C13.2807 15.797 13.5007 15.687 13.7207 15.587C13.7507 15.567 13.7907 15.537 13.8207 15.537C14.1107 15.517 14.3907 15.497 14.6607 15.337C14.8707 15.217 15.1507 15.207 15.3807 15.117C15.8007 14.967 16.2007 14.787 16.6107 14.627C16.7807 14.557 16.9707 14.517 17.1407 14.437C17.4407 14.287 17.6107 13.837 17.4707 13.537ZM14.5607 14.127C14.1307 14.127 13.8107 14.457 13.3807 14.457C13.2307 14.457 13.0707 14.587 12.9107 14.647C12.7407 14.727 12.5707 14.827 12.3907 14.857C11.8507 14.937 11.4007 15.197 10.9907 15.527C10.9307 15.567 10.8707 15.657 10.8707 15.727C10.8207 16.077 10.6407 16.367 10.4807 16.677C10.4107 16.817 10.3707 16.977 10.3007 17.117C10.1807 17.387 10.0407 17.647 9.92072 17.907C9.85072 18.077 9.81072 18.257 9.74072 18.417C9.61072 18.687 9.48072 18.957 9.34072 19.227C9.27072 19.357 9.18072 19.487 9.11072 19.617C9.07072 19.677 9.06072 19.737 9.01072 19.857C8.95072 19.707 8.87072 19.597 8.86072 19.477C8.86072 19.167 8.74073 18.887 8.62073 18.607C8.51073 18.367 8.43072 18.117 8.38072 17.867C8.33072 17.597 8.32072 17.567 8.02072 17.517C7.97072 17.507 7.91072 17.477 7.83072 17.447C7.88072 17.407 7.91072 17.377 7.94072 17.347C8.08072 17.217 8.13072 17.087 8.04072 16.877C7.95072 16.667 7.94072 16.417 7.89072 16.187C7.89072 16.187 7.90072 16.177 7.89072 16.167C7.70072 15.807 7.67072 15.367 7.33072 15.087C7.29072 15.057 7.25072 15.037 7.21072 15.027C6.77072 14.847 6.33072 14.667 5.90072 14.497C5.74072 14.437 5.57072 14.377 5.41072 14.317C5.41072 14.317 5.40072 14.317 5.39072 14.307C5.21072 13.997 4.85072 14.097 4.60072 13.947C4.38072 13.817 4.14072 13.717 3.92072 13.607C3.91072 13.577 3.91072 13.557 3.90072 13.537C4.12072 13.427 4.34072 13.307 4.56072 13.197C4.84072 13.067 5.14072 12.947 5.42072 12.827C5.44072 12.817 5.46072 12.797 5.47072 12.797C5.86072 12.767 6.19072 12.568 6.47072 12.367C6.77072 12.157 7.20072 12.087 7.31072 11.637C7.34072 11.497 7.50072 11.397 7.60072 11.267C7.62072 11.247 7.65072 11.207 7.66072 11.167C7.69072 10.877 7.90073 10.687 8.03073 10.457C8.14073 10.267 8.27072 10.097 8.29072 9.837C8.30072 9.657 8.51072 9.487 8.61072 9.307C8.74072 9.077 8.86072 8.857 8.98072 8.627C9.02072 8.537 9.06072 8.447 9.11072 8.367C9.14072 8.307 9.19072 8.257 9.22072 8.207C9.29072 8.027 9.37072 7.857 9.43072 7.717C9.78072 7.777 9.74072 8.047 9.81072 8.257C9.89072 8.497 10.0007 8.737 10.0907 8.977C10.2007 9.247 10.3107 9.527 10.4207 9.797C10.5107 10.017 10.6107 10.237 10.6807 10.467C10.7907 10.797 10.8607 11.137 10.8907 11.487C10.9007 11.537 10.9107 11.597 10.9507 11.637C11.1507 11.837 11.3807 12.007 11.6507 12.117C12.0507 12.267 12.4307 12.457 12.8207 12.617C13.1807 12.777 13.5507 12.907 13.9107 13.057C14.1307 13.157 14.3307 13.297 14.5607 13.397C14.7207 13.477 14.9007 13.527 15.0707 13.587C15.1907 13.637 15.3407 13.647 15.3007 13.817C15.0407 13.937 14.8107 14.127 14.5607 14.127Z" fill="#B26BF5"></path>
<path class="aiStar" id="blink-2" d="M21.9187 6.347C21.6887 6.097 21.4787 5.817 21.1087 5.757C21.0887 5.747 21.0687 5.727 21.0487 5.717C20.9587 5.667 20.8587 5.617 20.7687 5.577C20.6287 5.527 20.4687 5.517 20.3387 5.447C20.1987 5.367 20.0787 5.247 19.9387 5.157C19.8887 5.127 19.7887 5.147 19.7587 5.117C19.5487 4.847 19.2487 4.747 18.9587 4.617C18.8287 4.567 18.6587 4.51699 18.5987 4.41699C18.4787 4.22699 18.4287 3.99699 18.3587 3.78699C18.3487 3.74699 18.3287 3.687 18.3387 3.657C18.4587 3.387 18.2887 3.187 18.2187 2.957C18.1687 2.767 18.0687 2.577 18.0687 2.387C18.0687 2.027 17.8687 1.807 17.6187 1.617C17.5787 1.587 17.5287 1.577 17.4787 1.577C17.1887 1.567 16.6987 1.867 16.6287 2.147C16.5687 2.377 16.3087 2.49699 16.3387 2.76699C16.3387 2.77699 16.3187 2.77699 16.3187 2.79699C16.2087 2.96699 16.0987 3.137 16.0187 3.318C15.9387 3.488 15.8687 3.658 15.8287 3.838C15.7487 4.128 15.4387 4.30799 15.4887 4.64799C15.4887 4.66799 15.4387 4.70799 15.4087 4.71799C15.3087 4.75799 15.1787 4.768 15.0887 4.828C14.8387 4.988 14.5587 5.058 14.2787 5.138C14.1187 5.178 13.9687 5.248 13.8287 5.328C13.7787 5.358 13.7787 5.45799 13.7587 5.54799C13.3287 5.45799 13.0287 5.748 12.6787 5.878C12.5387 5.928 12.4187 6.068 12.3087 6.188C12.1587 6.378 12.0387 6.608 12.1287 6.838C12.2187 7.108 12.4887 7.428 12.9287 7.428C13.0687 7.418 13.2287 7.428 13.3587 7.468C13.5887 7.548 13.7887 7.678 14.0387 7.668C14.1287 7.668 14.2187 7.648 14.2987 7.668C14.6287 7.758 14.9687 7.848 15.2987 7.958C15.3487 7.968 15.3887 8.03799 15.4087 8.09799C15.5087 8.41799 15.5987 8.728 15.6887 9.048C15.7487 9.278 15.8187 9.508 15.8787 9.738C15.8887 9.758 15.8987 9.768 15.9087 9.788C16.0487 10.008 16.0287 10.308 16.2687 10.468C16.2287 10.708 16.3987 10.858 16.4987 11.038C16.5787 11.178 16.5987 11.298 16.8087 11.278C16.9487 11.268 17.1087 11.348 17.2187 11.218C17.3487 11.078 17.4487 10.908 17.5887 10.778C17.7687 10.608 17.7987 10.388 17.8087 10.158C17.8087 10.098 17.8287 10.038 17.8487 9.97799C17.9087 9.78799 17.9587 9.598 18.0387 9.408C18.1887 9.018 18.3387 8.628 18.5087 8.248C18.5387 8.168 18.6287 8.098 18.7087 8.068C18.8687 8.008 19.0387 7.968 19.2087 7.928C19.4287 7.878 19.6787 7.888 19.8587 7.788C20.2187 7.578 20.5987 7.478 20.9887 7.418C21.3987 7.358 21.6587 7.088 21.9087 6.808C22.0287 6.678 22.0287 6.477 21.9187 6.347ZM18.9587 6.797H18.9487C18.9387 6.927 18.9187 7.047 18.7687 6.897C18.7387 6.867 18.6787 6.847 18.6387 6.857C18.2187 6.957 17.7887 7.067 17.5387 7.467C17.4187 7.657 17.3587 7.89699 17.2587 8.11699C17.1587 8.33699 17.0587 8.547 16.9587 8.767C16.9287 8.767 16.8987 8.757 16.8787 8.757C16.8487 8.607 16.8387 8.457 16.7987 8.317C16.7287 8.087 16.6487 7.867 16.5687 7.637C16.5287 7.507 16.4687 7.387 16.3987 7.267C16.2687 7.047 16.0587 6.937 15.8287 6.857C15.6487 6.787 15.4687 6.717 15.2787 6.647C15.2487 6.627 15.2287 6.567 15.2287 6.557C14.9187 6.527 14.6387 6.497 14.2887 6.467C14.4487 6.387 14.5487 6.327 14.6487 6.277C14.9187 6.147 15.1787 6.007 15.4587 5.897C15.5487 5.857 15.6687 5.887 15.7787 5.867C16.0987 5.837 16.3787 5.71699 16.5187 5.41699C16.6387 5.15699 16.7187 4.87699 16.8087 4.60699C16.8787 4.36699 17.0087 4.18699 17.1587 3.99699C17.2387 4.23699 17.3187 4.447 17.3887 4.657C17.4387 4.797 17.4887 4.92699 17.5187 5.06699C17.5887 5.38699 17.8887 5.627 18.2087 5.647C18.3287 5.657 18.4487 5.727 18.5687 5.787C18.7587 5.887 18.9487 5.987 19.1387 6.097C19.2387 6.157 19.3287 6.237 19.4287 6.287C19.5387 6.337 19.6587 6.357 19.7787 6.397C19.5787 6.717 19.2987 6.817 18.9587 6.797Z" fill="#B26BF5"></path>
<path class="aiStar" id="blink-1" d="M8.4292 4.03722C8.2592 3.78722 7.9892 3.62722 7.7592 3.42722C7.5192 3.21722 7.1092 3.36722 6.9392 3.02722C6.9392 3.01722 6.9092 3.01722 6.8892 3.01722C6.8092 2.98722 6.7292 2.96722 6.6592 2.93722C6.5392 2.87722 6.4192 2.81722 6.3092 2.74722C6.2192 2.67722 6.1292 2.58722 6.0592 2.49722C6.0192 2.44722 6.0192 2.36722 6.0092 2.29722C5.9592 2.02722 5.9192 1.76722 5.8692 1.49722C5.8492 1.37722 5.8192 1.25722 5.7792 1.13722C5.7292 0.977223 5.6692 0.827223 5.6092 0.667223C5.5592 0.537223 5.5492 0.377223 5.4592 0.307223C5.3292 0.177223 5.1492 0.0572226 4.9692 0.0272226C4.7292 -0.0227774 4.4592 -0.0327774 4.2892 0.257223C4.1892 0.417223 4.0692 0.587223 3.9392 0.727223C3.6892 0.987223 3.4692 1.27722 3.3292 1.59722C3.2092 1.86722 3.0892 2.11722 2.9192 2.36722C2.6792 2.73722 2.3392 2.81722 1.9592 2.85722C1.8292 2.87722 1.7192 2.93722 1.5992 2.98722C1.3892 3.06722 1.1992 3.21722 0.9892 3.22722C0.6992 3.23722 0.4992 3.40722 0.2692 3.54722C0.1692 3.60722 0.0792 3.70722 0.0292 3.81822C-0.0708 4.05822 0.0992 4.51822 0.3392 4.66822C0.4992 4.75822 0.6692 4.82822 0.8292 4.91822C1.0492 5.04822 1.2692 5.17822 1.4792 5.30822C1.5792 5.36822 1.6892 5.41822 1.7892 5.48822C1.9092 5.57822 2.0292 5.68822 2.1592 5.75822C2.5792 5.95822 2.9892 6.16822 3.0892 6.68822C3.0992 6.71822 3.1392 6.75822 3.1492 6.78822C3.1792 6.88822 3.2292 6.98822 3.2392 7.09822C3.2392 7.26822 3.2092 7.43822 3.3892 7.55822C3.4092 7.56822 3.4392 7.61822 3.4292 7.64822C3.3992 7.92822 3.6292 8.09822 3.7392 8.30822C3.7992 8.42822 3.9692 8.50822 4.0992 8.53822C4.4492 8.63822 4.7992 8.32822 4.9492 8.00822C5.0692 7.74822 5.1792 7.47822 5.2892 7.20822C5.3192 7.13822 5.3492 7.03822 5.3192 6.98822C5.2492 6.86822 5.2892 6.81822 5.4092 6.78822C5.5392 6.75822 5.6192 6.67822 5.6592 6.53822C5.7092 6.34822 5.7692 6.16822 5.8692 6.00822C6.0192 5.78822 6.3092 5.77822 6.5292 5.67822C6.6792 5.60822 6.8592 5.61822 7.0192 5.55822C7.2492 5.45822 7.4592 5.31822 7.6892 5.19822C7.7192 5.06822 7.6192 4.88822 7.8292 4.79822C7.8792 4.90822 7.9292 5.00822 7.9892 5.11822C8.2392 5.03822 8.4192 4.85822 8.5192 4.65822C8.6292 4.42822 8.5292 4.18722 8.4292 4.03722ZM6.2092 4.57722C6.0792 4.62722 5.9392 4.67722 5.7992 4.71722C5.6892 4.74722 5.5692 4.77722 5.4592 4.78722C5.1992 4.81722 5.0692 4.96722 4.9592 5.19722C4.8192 5.51722 4.6192 5.80722 4.4592 6.12722C4.3892 6.25722 4.3492 6.39722 4.2692 6.59722C4.2092 6.36722 4.1492 6.18722 4.1192 5.99722C4.0792 5.54722 3.8892 5.22722 3.4292 5.07722C3.3492 5.04722 3.2992 4.93722 3.2192 4.89722C3.0292 4.79722 2.8192 4.72722 2.6292 4.61722C2.4392 4.49722 2.2692 4.34722 2.0892 4.19722C2.0892 4.19722 2.1392 4.09722 2.1592 4.09722C2.5892 4.07722 2.9292 3.80722 3.3192 3.67722C3.6092 3.58722 3.8392 3.36722 3.9792 3.05722C4.1492 2.69722 4.3992 2.36722 4.6092 2.01722H4.6992C4.8092 2.38722 4.9292 2.75722 5.0492 3.12722C5.0792 3.18722 5.1392 3.24722 5.1792 3.30722C5.1992 3.33722 5.2292 3.36722 5.2392 3.40722C5.2692 3.54722 5.3392 3.64722 5.4992 3.65722C5.5692 3.65722 5.6292 3.71722 5.6892 3.75722C5.7392 3.78722 5.7692 3.85722 5.8092 3.85722C6.1292 3.87722 6.3092 4.11722 6.5492 4.26722C6.5792 4.29722 6.6192 4.29722 6.6592 4.30722C6.6592 4.32722 6.6692 4.34722 6.6692 4.37722C6.5192 4.44722 6.3692 4.51722 6.2092 4.57722Z" fill="#B26BF5"></path>
</g>
<defs>
<clipPath id="clip0_3036_13806">
<rect width="22" height="21.999" fill="white"></rect>
</clipPath>
</defs>
</svg>