<svg xmlns="http://www.w3.org/2000/svg" width="100%" height="100%" viewBox="0 0 243 85" fill="none" preserveAspectRatio="xMidYMid meet" aria-hidden="true" role="img">
<g clip-path="url(#clip0_1489_115018)">
<g clip-path="url(#clip1_1489_115018)">
<path d="M0.332031 8.5C0.332031 4.08172 3.91375 0.5 8.33203 0.5H112.332C116.75 0.5 120.332 4.08172 120.332 8.5V76.5C120.332 80.9183 116.75 84.5 112.332 84.5H8.33203C3.91375 84.5 0.332031 80.9183 0.332031 76.5V8.5Z" fill="white"></path>
<mask id="path-3-inside-1_1489_115018" fill="white">
<path d="M0.332031 0.5H120.332V56.5H0.332031V0.5Z"></path>
</mask>
<path d="M0.332031 0.5H120.332V56.5H0.332031V0.5Z" fill="url(#paint0_linear_1489_115018)" fill-opacity="0.16"></path>
<path d="M120.332 55.5H0.332031V57.5H120.332V55.5Z" fill="#E7E6E2" mask="url(#path-3-inside-1_1489_115018)"></path>
<path fill-rule="evenodd" clip-rule="evenodd" d="M60.3305 38.1C65.6324 38.1 69.9305 33.802 69.9305 28.5C69.9305 23.1981 65.6324 18.9 60.3305 18.9C55.0285 18.9 50.7305 23.1981 50.7305 28.5C50.7305 33.802 55.0285 38.1 60.3305 38.1ZM59.7961 25.1016C59.4279 24.8561 58.9544 24.8332 58.5642 25.042C58.1741 25.2508 57.9305 25.6575 57.9305 26.1V30.9C57.9305 31.3426 58.1741 31.7492 58.5642 31.958C58.9544 32.1669 59.4279 32.144 59.7961 31.8985L63.3961 29.4985C63.7299 29.2759 63.9305 28.9012 63.9305 28.5C63.9305 28.0988 63.7299 27.7241 63.3961 27.5016L59.7961 25.1016Z" fill="url(#paint1_linear_1489_115018)" fill-opacity="0.12"></path>
<path d="M9.26203 73.5V66.45H11.752C12.512 66.45 13.1587 66.5867 13.692 66.86C14.2254 67.1333 14.632 67.5333 14.912 68.06C15.192 68.58 15.332 69.2167 15.332 69.97C15.332 70.7233 15.192 71.3633 14.912 71.89C14.632 72.4167 14.2254 72.8167 13.692 73.09C13.1587 73.3633 12.512 73.5 11.752 73.5H9.26203ZM10.222 72.68H11.682C12.5554 72.68 13.212 72.4567 13.652 72.01C14.0987 71.5567 14.322 70.8767 14.322 69.97C14.322 69.0633 14.0987 68.3867 13.652 67.94C13.212 67.4933 12.5554 67.27 11.682 67.27H10.222V72.68ZM18.9183 73.59C18.4249 73.59 17.9949 73.4867 17.6283 73.28C17.2683 73.0667 16.9883 72.77 16.7883 72.39C16.5949 72.0033 16.4983 71.5533 16.4983 71.04C16.4983 70.5267 16.5949 70.08 16.7883 69.7C16.9883 69.32 17.2683 69.0267 17.6283 68.82C17.9949 68.6067 18.4249 68.5 18.9183 68.5C19.4116 68.5 19.8383 68.6067 20.1983 68.82C20.5649 69.0267 20.8449 69.32 21.0383 69.7C21.2383 70.08 21.3383 70.5267 21.3383 71.04C21.3383 71.5533 21.2383 72.0033 21.0383 72.39C20.8449 72.77 20.5649 73.0667 20.1983 73.28C19.8383 73.4867 19.4116 73.59 18.9183 73.59ZM18.9183 72.82C19.3716 72.82 19.7283 72.6633 19.9883 72.35C20.2549 72.0367 20.3883 71.6 20.3883 71.04C20.3883 70.4733 20.2549 70.0367 19.9883 69.73C19.7283 69.4233 19.3716 69.27 18.9183 69.27C18.4649 69.27 18.1049 69.4233 17.8383 69.73C17.5783 70.0367 17.4483 70.4733 17.4483 71.04C17.4483 71.6 17.5783 72.0367 17.8383 72.35C18.1049 72.6633 18.4649 72.82 18.9183 72.82ZM22.6477 73.5V68.59H23.5477V69.65H23.4977C23.6443 69.2767 23.8777 68.9933 24.1977 68.8C24.5177 68.6 24.8777 68.5 25.2777 68.5C25.6777 68.5 26.011 68.5733 26.2777 68.72C26.5443 68.86 26.741 69.0767 26.8677 69.37C27.001 69.6633 27.0677 70.0333 27.0677 70.48V73.5H26.1177V70.53C26.1177 70.2567 26.081 70.03 26.0077 69.85C25.9343 69.6633 25.8177 69.5233 25.6577 69.43C25.5043 69.33 25.2977 69.28 25.0377 69.28C24.7577 69.28 24.5077 69.3433 24.2877 69.47C24.0677 69.5967 23.8977 69.77 23.7777 69.99C23.6577 70.21 23.5977 70.46 23.5977 70.74V73.5H22.6477ZM28.8282 68.91L28.3782 68.57C28.5049 68.4433 28.6015 68.3167 28.6682 68.19C28.7415 68.0567 28.7949 67.9233 28.8282 67.79C28.8615 67.6567 28.8782 67.5267 28.8782 67.4L29.1182 67.58H28.3082V66.45H29.4882V67.26C29.4882 67.46 29.4649 67.6567 29.4182 67.85C29.3782 68.0433 29.3115 68.23 29.2182 68.41C29.1249 68.5833 28.9949 68.75 28.8282 68.91ZM33.048 73.59C32.4413 73.59 31.988 73.4333 31.688 73.12C31.388 72.8 31.238 72.3467 31.238 71.76V69.35H30.268V68.59H31.258V67.12H32.188V68.59H33.828V69.35H32.188V71.69C32.188 72.05 32.268 72.3233 32.428 72.51C32.588 72.69 32.8413 72.78 33.188 72.78C33.308 72.78 33.4246 72.7667 33.538 72.74C33.658 72.7133 33.7713 72.6833 33.878 72.65L34.028 73.38C33.9146 73.4467 33.7646 73.4967 33.578 73.53C33.398 73.57 33.2213 73.59 33.048 73.59ZM37.7191 73.5V66.45H42.2391V67.26H38.6791V69.56H42.0291V70.37H38.6791V73.5H37.7191ZM44.7948 73.59C44.4481 73.59 44.1348 73.5233 43.8548 73.39C43.5814 73.2567 43.3648 73.0767 43.2048 72.85C43.0514 72.6233 42.9748 72.37 42.9748 72.09C42.9748 71.7233 43.0748 71.4333 43.2748 71.22C43.4748 71 43.7914 70.8467 44.2248 70.76C44.6581 70.6667 45.2281 70.62 45.9348 70.62H46.5248V71.23H45.9648C45.5914 71.23 45.2714 71.2433 45.0048 71.27C44.7448 71.2967 44.5348 71.34 44.3748 71.4C44.2214 71.46 44.1081 71.5433 44.0348 71.65C43.9614 71.75 43.9248 71.8767 43.9248 72.03C43.9248 72.29 44.0181 72.4967 44.2048 72.65C44.3981 72.8033 44.6548 72.88 44.9748 72.88C45.2414 72.88 45.4781 72.82 45.6848 72.7C45.8981 72.5733 46.0648 72.4033 46.1848 72.19C46.3114 71.9767 46.3748 71.74 46.3748 71.48V70.34C46.3748 69.9533 46.2814 69.6767 46.0948 69.51C45.9081 69.3367 45.6148 69.25 45.2148 69.25C44.9281 69.25 44.6414 69.2933 44.3548 69.38C44.0748 69.46 43.7848 69.59 43.4848 69.77L43.1848 69.09C43.3714 68.9633 43.5814 68.8567 43.8148 68.77C44.0481 68.6833 44.2881 68.6167 44.5348 68.57C44.7881 68.5233 45.0348 68.5 45.2748 68.5C45.7148 68.5 46.0848 68.57 46.3848 68.71C46.6848 68.8433 46.9114 69.0533 47.0648 69.34C47.2181 69.62 47.2948 69.9867 47.2948 70.44V73.5H46.4348V72.41H46.4748C46.4081 72.6367 46.2948 72.84 46.1348 73.02C45.9814 73.2 45.7914 73.34 45.5648 73.44C45.3381 73.54 45.0814 73.59 44.7948 73.59ZM50.4181 73.59C49.9181 73.59 49.5348 73.4467 49.2681 73.16C49.0081 72.8667 48.8781 72.45 48.8781 71.91V66.45H49.8281V71.83C49.8281 72.0367 49.8581 72.2133 49.9181 72.36C49.9781 72.5067 50.0648 72.6167 50.1781 72.69C50.2981 72.7633 50.4448 72.8 50.6181 72.8C50.7048 72.8 50.7881 72.7967 50.8681 72.79C50.9481 72.7833 51.0315 72.7667 51.1181 72.74V73.5C51.0048 73.5267 50.8915 73.5467 50.7781 73.56C50.6715 73.58 50.5515 73.59 50.4181 73.59ZM53.5724 73.59C53.0724 73.59 52.6891 73.4467 52.4224 73.16C52.1624 72.8667 52.0324 72.45 52.0324 71.91V66.45H52.9824V71.83C52.9824 72.0367 53.0124 72.2133 53.0724 72.36C53.1324 72.5067 53.2191 72.6167 53.3324 72.69C53.4524 72.7633 53.5991 72.8 53.7724 72.8C53.8591 72.8 53.9424 72.7967 54.0224 72.79C54.1024 72.7833 54.1858 72.7667 54.2724 72.74V73.5C54.1591 73.5267 54.0458 73.5467 53.9324 73.56C53.8258 73.58 53.7058 73.59 53.5724 73.59ZM58.0316 73.5V66.45H60.9616C61.6949 66.45 62.2649 66.61 62.6716 66.93C63.0782 67.25 63.2816 67.7033 63.2816 68.29C63.2816 68.7233 63.1616 69.0833 62.9216 69.37C62.6816 69.65 62.3682 69.8333 61.9816 69.92V69.84C62.2682 69.88 62.5216 69.9733 62.7416 70.12C62.9682 70.2667 63.1416 70.46 63.2616 70.7C63.3882 70.94 63.4516 71.2233 63.4516 71.55C63.4516 71.97 63.3582 72.3267 63.1716 72.62C62.9849 72.9067 62.7116 73.1267 62.3516 73.28C61.9982 73.4267 61.5716 73.5 61.0716 73.5H58.0316ZM58.9716 72.72H61.0016C61.2016 72.72 61.3816 72.7033 61.5416 72.67C61.7082 72.6367 61.8482 72.59 61.9616 72.53C62.0816 72.4633 62.1816 72.3833 62.2616 72.29C62.3416 72.19 62.4016 72.0767 62.4416 71.95C62.4816 71.8233 62.5016 71.6833 62.5016 71.53C62.5016 71.3567 62.4816 71.2067 62.4416 71.08C62.4016 70.9533 62.3382 70.8433 62.2516 70.75C62.1716 70.65 62.0716 70.57 61.9516 70.51C61.8382 70.4433 61.6982 70.3967 61.5316 70.37C61.3716 70.3367 61.1949 70.32 61.0016 70.32H58.9716V72.72ZM58.9716 69.54H60.8316C61.3316 69.54 61.7049 69.4433 61.9516 69.25C62.2049 69.05 62.3316 68.7567 62.3316 68.37C62.3316 67.9967 62.2082 67.7133 61.9616 67.52C61.7149 67.3267 61.3382 67.23 60.8316 67.23H58.9716V69.54ZM67.263 73.59C66.7164 73.59 66.2464 73.49 65.853 73.29C65.4597 73.0833 65.1564 72.79 64.943 72.41C64.7364 72.03 64.633 71.5767 64.633 71.05C64.633 70.55 64.733 70.11 64.933 69.73C65.133 69.3433 65.4164 69.0433 65.783 68.83C66.1497 68.61 66.573 68.5 67.053 68.5C67.5197 68.5 67.9164 68.6 68.243 68.8C68.5764 69 68.8297 69.2833 69.003 69.65C69.183 70.0167 69.273 70.4533 69.273 70.96V71.28H65.363V70.66H68.633L68.463 70.83C68.463 70.3033 68.343 69.9 68.103 69.62C67.863 69.34 67.5197 69.2 67.073 69.2C66.7597 69.2 66.4864 69.2733 66.253 69.42C66.0264 69.56 65.8497 69.76 65.723 70.02C65.603 70.28 65.543 70.59 65.543 70.95V71.03C65.543 71.43 65.6097 71.7633 65.743 72.03C65.8764 72.29 66.073 72.49 66.333 72.63C66.593 72.7633 66.9064 72.83 67.273 72.83C67.553 72.83 67.8297 72.79 68.103 72.71C68.3764 72.63 68.633 72.49 68.873 72.29L69.183 72.96C68.943 73.1667 68.6497 73.3233 68.303 73.43C67.9564 73.5367 67.6097 73.59 67.263 73.59ZM70.5578 73.5V66.45H71.4878V69.63H71.4178C71.5645 69.27 71.7945 68.9933 72.1078 68.8C72.4278 68.6 72.7878 68.5 73.1878 68.5C73.5878 68.5 73.9211 68.5733 74.1878 68.72C74.4545 68.86 74.6511 69.0767 74.7778 69.37C74.9111 69.6633 74.9778 70.0333 74.9778 70.48V73.5H74.0278V70.53C74.0278 70.2567 73.9911 70.03 73.9178 69.85C73.8445 69.6633 73.7278 69.5233 73.5678 69.43C73.4078 69.33 73.2011 69.28 72.9478 69.28C72.6678 69.28 72.4178 69.3433 72.1978 69.47C71.9778 69.5967 71.8078 69.77 71.6878 69.99C71.5678 70.21 71.5078 70.46 71.5078 70.74V73.5H70.5578ZM76.4539 67.43V66.41H77.5939V67.43H76.4539ZM76.5539 73.5V68.59H77.5039V73.5H76.5539ZM79.1027 73.5V68.59H80.0027V69.65H79.9527C80.0994 69.2767 80.3327 68.9933 80.6527 68.8C80.9727 68.6 81.3327 68.5 81.7327 68.5C82.1327 68.5 82.4661 68.5733 82.7327 68.72C82.9994 68.86 83.1961 69.0767 83.3227 69.37C83.4561 69.6633 83.5227 70.0333 83.5227 70.48V73.5H82.5727V70.53C82.5727 70.2567 82.5361 70.03 82.4627 69.85C82.3894 69.6633 82.2727 69.5233 82.1127 69.43C81.9594 69.33 81.7527 69.28 81.4927 69.28C81.2127 69.28 80.9627 69.3433 80.7427 69.47C80.5227 69.5967 80.3527 69.77 80.2327 69.99C80.1127 70.21 80.0527 70.46 80.0527 70.74V73.5H79.1027ZM87.0188 73.59C86.5722 73.59 86.1822 73.4867 85.8488 73.28C85.5222 73.0667 85.2655 72.77 85.0788 72.39C84.8988 72.0033 84.8088 71.5533 84.8088 71.04C84.8088 70.5267 84.8988 70.08 85.0788 69.7C85.2588 69.32 85.5122 69.0267 85.8388 68.82C86.1722 68.6067 86.5622 68.5 87.0088 68.5C87.4355 68.5 87.8022 68.6033 88.1088 68.81C88.4155 69.0167 88.6288 69.2933 88.7488 69.64H88.6888V66.45H89.6488V73.5H88.7488V72.4H88.7888C88.6622 72.7667 88.4422 73.0567 88.1288 73.27C87.8155 73.4833 87.4455 73.59 87.0188 73.59ZM87.2388 72.83C87.6922 72.83 88.0488 72.6733 88.3088 72.36C88.5755 72.0467 88.7088 71.6067 88.7088 71.04C88.7088 70.4733 88.5755 70.0367 88.3088 69.73C88.0488 69.4167 87.6922 69.26 87.2388 69.26C86.7855 69.26 86.4255 69.4167 86.1588 69.73C85.8922 70.0367 85.7588 70.4733 85.7588 71.04C85.7588 71.6067 85.8922 72.0467 86.1588 72.36C86.4255 72.6733 86.7855 72.83 87.2388 72.83ZM91.0914 69.72V68.59H92.2714V69.72H91.0914ZM91.0914 73.5V72.37H92.2714V73.5H91.0914ZM96.6967 73.5V72.68H98.4467V67.25L98.9467 67.28L97.0467 68.48L96.6367 67.75L98.7067 66.45H99.4067V72.68H101.027V73.5H96.6967ZM104.673 73.5V72.35H105.853V73.5H104.673ZM107.063 73.5V72.35H108.243V73.5H107.063ZM102.283 73.5V72.35H103.463V73.5H102.283Z" fill="#5C5B57"></path>
</g>
<path d="M0.582031 8.5C0.582031 4.21979 4.05182 0.75 8.33203 0.75H112.332C116.612 0.75 120.082 4.21979 120.082 8.5V76.5C120.082 80.7802 116.612 84.25 112.332 84.25H8.33203C4.05182 84.25 0.582031 80.7802 0.582031 76.5V8.5Z" stroke="url(#paint2_linear_1489_115018)" stroke-opacity="0.12" stroke-width="0.5"></path>
<g clip-path="url(#clip2_1489_115018)">
<path d="M126.332 8.5C126.332 4.08172 129.914 0.5 134.332 0.5H238.332C242.75 0.5 246.332 4.08172 246.332 8.5V76.5C246.332 80.9183 242.75 84.5 238.332 84.5H134.332C129.914 84.5 126.332 80.9183 126.332 76.5V8.5Z" fill="white"></path>
<mask id="path-9-inside-2_1489_115018" fill="white">
<path d="M126.332 0.5H246.332V56.5H126.332V0.5Z"></path>
</mask>
<path d="M126.332 0.5H246.332V56.5H126.332V0.5Z" fill="url(#paint3_linear_1489_115018)" fill-opacity="0.16"></path>
<path d="M246.332 55.5H126.332V57.5H246.332V55.5Z" fill="#E7E6E2" mask="url(#path-9-inside-2_1489_115018)"></path>
<path fill-rule="evenodd" clip-rule="evenodd" d="M186.33 38.1C191.632 38.1 195.93 33.802 195.93 28.5C195.93 23.1981 191.632 18.9 186.33 18.9C181.029 18.9 176.73 23.1981 176.73 28.5C176.73 33.802 181.029 38.1 186.33 38.1ZM185.796 25.1016C185.428 24.8561 184.954 24.8332 184.564 25.042C184.174 25.2508 183.93 25.6575 183.93 26.1V30.9C183.93 31.3426 184.174 31.7492 184.564 31.958C184.954 32.1669 185.428 32.144 185.796 31.8985L189.396 29.4985C189.73 29.2759 189.93 28.9012 189.93 28.5C189.93 28.0988 189.73 27.7241 189.396 27.5016L185.796 25.1016Z" fill="url(#paint4_linear_1489_115018)" fill-opacity="0.12"></path>
<path d="M135.262 73.5V66.45H137.752C138.512 66.45 139.159 66.5867 139.692 66.86C140.225 67.1333 140.632 67.5333 140.912 68.06C141.192 68.58 141.332 69.2167 141.332 69.97C141.332 70.7233 141.192 71.3633 140.912 71.89C140.632 72.4167 140.225 72.8167 139.692 73.09C139.159 73.3633 138.512 73.5 137.752 73.5H135.262ZM136.222 72.68H137.682C138.555 72.68 139.212 72.4567 139.652 72.01C140.099 71.5567 140.322 70.8767 140.322 69.97C140.322 69.0633 140.099 68.3867 139.652 67.94C139.212 67.4933 138.555 67.27 137.682 67.27H136.222V72.68ZM144.918 73.59C144.425 73.59 143.995 73.4867 143.628 73.28C143.268 73.0667 142.988 72.77 142.788 72.39C142.595 72.0033 142.498 71.5533 142.498 71.04C142.498 70.5267 142.595 70.08 142.788 69.7C142.988 69.32 143.268 69.0267 143.628 68.82C143.995 68.6067 144.425 68.5 144.918 68.5C145.412 68.5 145.838 68.6067 146.198 68.82C146.565 69.0267 146.845 69.32 147.038 69.7C147.238 70.08 147.338 70.5267 147.338 71.04C147.338 71.5533 147.238 72.0033 147.038 72.39C146.845 72.77 146.565 73.0667 146.198 73.28C145.838 73.4867 145.412 73.59 144.918 73.59ZM144.918 72.82C145.372 72.82 145.728 72.6633 145.988 72.35C146.255 72.0367 146.388 71.6 146.388 71.04C146.388 70.4733 146.255 70.0367 145.988 69.73C145.728 69.4233 145.372 69.27 144.918 69.27C144.465 69.27 144.105 69.4233 143.838 69.73C143.578 70.0367 143.448 70.4733 143.448 71.04C143.448 71.6 143.578 72.0367 143.838 72.35C144.105 72.6633 144.465 72.82 144.918 72.82ZM148.648 73.5V68.59H149.548V69.65H149.498C149.644 69.2767 149.878 68.9933 150.198 68.8C150.518 68.6 150.878 68.5 151.278 68.5C151.678 68.5 152.011 68.5733 152.278 68.72C152.544 68.86 152.741 69.0767 152.868 69.37C153.001 69.6633 153.068 70.0333 153.068 70.48V73.5H152.118V70.53C152.118 70.2567 152.081 70.03 152.008 69.85C151.934 69.6633 151.818 69.5233 151.658 69.43C151.504 69.33 151.298 69.28 151.038 69.28C150.758 69.28 150.508 69.3433 150.288 69.47C150.068 69.5967 149.898 69.77 149.778 69.99C149.658 70.21 149.598 70.46 149.598 70.74V73.5H148.648ZM154.828 68.91L154.378 68.57C154.505 68.4433 154.602 68.3167 154.668 68.19C154.742 68.0567 154.795 67.9233 154.828 67.79C154.862 67.6567 154.878 67.5267 154.878 67.4L155.118 67.58H154.308V66.45H155.488V67.26C155.488 67.46 155.465 67.6567 155.418 67.85C155.378 68.0433 155.312 68.23 155.218 68.41C155.125 68.5833 154.995 68.75 154.828 68.91ZM159.048 73.59C158.441 73.59 157.988 73.4333 157.688 73.12C157.388 72.8 157.238 72.3467 157.238 71.76V69.35H156.268V68.59H157.258V67.12H158.188V68.59H159.828V69.35H158.188V71.69C158.188 72.05 158.268 72.3233 158.428 72.51C158.588 72.69 158.841 72.78 159.188 72.78C159.308 72.78 159.425 72.7667 159.538 72.74C159.658 72.7133 159.771 72.6833 159.878 72.65L160.028 73.38C159.915 73.4467 159.765 73.4967 159.578 73.53C159.398 73.57 159.221 73.59 159.048 73.59ZM163.719 73.5V66.45H168.239V67.26H164.679V69.56H168.029V70.37H164.679V73.5H163.719ZM170.795 73.59C170.448 73.59 170.135 73.5233 169.855 73.39C169.581 73.2567 169.365 73.0767 169.205 72.85C169.051 72.6233 168.975 72.37 168.975 72.09C168.975 71.7233 169.075 71.4333 169.275 71.22C169.475 71 169.791 70.8467 170.225 70.76C170.658 70.6667 171.228 70.62 171.935 70.62H172.525V71.23H171.965C171.591 71.23 171.271 71.2433 171.005 71.27C170.745 71.2967 170.535 71.34 170.375 71.4C170.221 71.46 170.108 71.5433 170.035 71.65C169.961 71.75 169.925 71.8767 169.925 72.03C169.925 72.29 170.018 72.4967 170.205 72.65C170.398 72.8033 170.655 72.88 170.975 72.88C171.241 72.88 171.478 72.82 171.685 72.7C171.898 72.5733 172.065 72.4033 172.185 72.19C172.311 71.9767 172.375 71.74 172.375 71.48V70.34C172.375 69.9533 172.281 69.6767 172.095 69.51C171.908 69.3367 171.615 69.25 171.215 69.25C170.928 69.25 170.641 69.2933 170.355 69.38C170.075 69.46 169.785 69.59 169.485 69.77L169.185 69.09C169.371 68.9633 169.581 68.8567 169.815 68.77C170.048 68.6833 170.288 68.6167 170.535 68.57C170.788 68.5233 171.035 68.5 171.275 68.5C171.715 68.5 172.085 68.57 172.385 68.71C172.685 68.8433 172.911 69.0533 173.065 69.34C173.218 69.62 173.295 69.9867 173.295 70.44V73.5H172.435V72.41H172.475C172.408 72.6367 172.295 72.84 172.135 73.02C171.981 73.2 171.791 73.34 171.565 73.44C171.338 73.54 171.081 73.59 170.795 73.59ZM176.418 73.59C175.918 73.59 175.535 73.4467 175.268 73.16C175.008 72.8667 174.878 72.45 174.878 71.91V66.45H175.828V71.83C175.828 72.0367 175.858 72.2133 175.918 72.36C175.978 72.5067 176.065 72.6167 176.178 72.69C176.298 72.7633 176.445 72.8 176.618 72.8C176.705 72.8 176.788 72.7967 176.868 72.79C176.948 72.7833 177.031 72.7667 177.118 72.74V73.5C177.005 73.5267 176.891 73.5467 176.778 73.56C176.671 73.58 176.551 73.59 176.418 73.59ZM179.572 73.59C179.072 73.59 178.689 73.4467 178.422 73.16C178.162 72.8667 178.032 72.45 178.032 71.91V66.45H178.982V71.83C178.982 72.0367 179.012 72.2133 179.072 72.36C179.132 72.5067 179.219 72.6167 179.332 72.69C179.452 72.7633 179.599 72.8 179.772 72.8C179.859 72.8 179.942 72.7967 180.022 72.79C180.102 72.7833 180.186 72.7667 180.272 72.74V73.5C180.159 73.5267 180.046 73.5467 179.932 73.56C179.826 73.58 179.706 73.59 179.572 73.59ZM184.032 73.5V66.45H186.962C187.695 66.45 188.265 66.61 188.672 66.93C189.078 67.25 189.282 67.7033 189.282 68.29C189.282 68.7233 189.162 69.0833 188.922 69.37C188.682 69.65 188.368 69.8333 187.982 69.92V69.84C188.268 69.88 188.522 69.9733 188.742 70.12C188.968 70.2667 189.142 70.46 189.262 70.7C189.388 70.94 189.452 71.2233 189.452 71.55C189.452 71.97 189.358 72.3267 189.172 72.62C188.985 72.9067 188.712 73.1267 188.352 73.28C187.998 73.4267 187.572 73.5 187.072 73.5H184.032ZM184.972 72.72H187.002C187.202 72.72 187.382 72.7033 187.542 72.67C187.708 72.6367 187.848 72.59 187.962 72.53C188.082 72.4633 188.182 72.3833 188.262 72.29C188.342 72.19 188.402 72.0767 188.442 71.95C188.482 71.8233 188.502 71.6833 188.502 71.53C188.502 71.3567 188.482 71.2067 188.442 71.08C188.402 70.9533 188.338 70.8433 188.252 70.75C188.172 70.65 188.072 70.57 187.952 70.51C187.838 70.4433 187.698 70.3967 187.532 70.37C187.372 70.3367 187.195 70.32 187.002 70.32H184.972V72.72ZM184.972 69.54H186.832C187.332 69.54 187.705 69.4433 187.952 69.25C188.205 69.05 188.332 68.7567 188.332 68.37C188.332 67.9967 188.208 67.7133 187.962 67.52C187.715 67.3267 187.338 67.23 186.832 67.23H184.972V69.54ZM193.263 73.59C192.716 73.59 192.246 73.49 191.853 73.29C191.46 73.0833 191.156 72.79 190.943 72.41C190.736 72.03 190.633 71.5767 190.633 71.05C190.633 70.55 190.733 70.11 190.933 69.73C191.133 69.3433 191.416 69.0433 191.783 68.83C192.15 68.61 192.573 68.5 193.053 68.5C193.52 68.5 193.916 68.6 194.243 68.8C194.576 69 194.83 69.2833 195.003 69.65C195.183 70.0167 195.273 70.4533 195.273 70.96V71.28H191.363V70.66H194.633L194.463 70.83C194.463 70.3033 194.343 69.9 194.103 69.62C193.863 69.34 193.52 69.2 193.073 69.2C192.76 69.2 192.486 69.2733 192.253 69.42C192.026 69.56 191.85 69.76 191.723 70.02C191.603 70.28 191.543 70.59 191.543 70.95V71.03C191.543 71.43 191.61 71.7633 191.743 72.03C191.876 72.29 192.073 72.49 192.333 72.63C192.593 72.7633 192.906 72.83 193.273 72.83C193.553 72.83 193.83 72.79 194.103 72.71C194.376 72.63 194.633 72.49 194.873 72.29L195.183 72.96C194.943 73.1667 194.65 73.3233 194.303 73.43C193.956 73.5367 193.61 73.59 193.263 73.59ZM196.558 73.5V66.45H197.488V69.63H197.418C197.564 69.27 197.794 68.9933 198.108 68.8C198.428 68.6 198.788 68.5 199.188 68.5C199.588 68.5 199.921 68.5733 200.188 68.72C200.454 68.86 200.651 69.0767 200.778 69.37C200.911 69.6633 200.978 70.0333 200.978 70.48V73.5H200.028V70.53C200.028 70.2567 199.991 70.03 199.918 69.85C199.844 69.6633 199.728 69.5233 199.568 69.43C199.408 69.33 199.201 69.28 198.948 69.28C198.668 69.28 198.418 69.3433 198.198 69.47C197.978 69.5967 197.808 69.77 197.688 69.99C197.568 70.21 197.508 70.46 197.508 70.74V73.5H196.558ZM202.454 67.43V66.41H203.594V67.43H202.454ZM202.554 73.5V68.59H203.504V73.5H202.554ZM205.103 73.5V68.59H206.003V69.65H205.953C206.099 69.2767 206.333 68.9933 206.653 68.8C206.973 68.6 207.333 68.5 207.733 68.5C208.133 68.5 208.466 68.5733 208.733 68.72C208.999 68.86 209.196 69.0767 209.323 69.37C209.456 69.6633 209.523 70.0333 209.523 70.48V73.5H208.573V70.53C208.573 70.2567 208.536 70.03 208.463 69.85C208.389 69.6633 208.273 69.5233 208.113 69.43C207.959 69.33 207.753 69.28 207.493 69.28C207.213 69.28 206.963 69.3433 206.743 69.47C206.523 69.5967 206.353 69.77 206.233 69.99C206.113 70.21 206.053 70.46 206.053 70.74V73.5H205.103ZM213.019 73.59C212.572 73.59 212.182 73.4867 211.849 73.28C211.522 73.0667 211.265 72.77 211.079 72.39C210.899 72.0033 210.809 71.5533 210.809 71.04C210.809 70.5267 210.899 70.08 211.079 69.7C211.259 69.32 211.512 69.0267 211.839 68.82C212.172 68.6067 212.562 68.5 213.009 68.5C213.435 68.5 213.802 68.6033 214.109 68.81C214.415 69.0167 214.629 69.2933 214.749 69.64H214.689V66.45H215.649V73.5H214.749V72.4H214.789C214.662 72.7667 214.442 73.0567 214.129 73.27C213.815 73.4833 213.445 73.59 213.019 73.59ZM213.239 72.83C213.692 72.83 214.049 72.6733 214.309 72.36C214.575 72.0467 214.709 71.6067 214.709 71.04C214.709 70.4733 214.575 70.0367 214.309 69.73C214.049 69.4167 213.692 69.26 213.239 69.26C212.785 69.26 212.425 69.4167 212.159 69.73C211.892 70.0367 211.759 70.4733 211.759 71.04C211.759 71.6067 211.892 72.0467 212.159 72.36C212.425 72.6733 212.785 72.83 213.239 72.83ZM217.091 69.72V68.59H218.271V69.72H217.091ZM217.091 73.5V72.37H218.271V73.5H217.091ZM222.697 73.5V72.68H224.447V67.25L224.947 67.28L223.047 68.48L222.637 67.75L224.707 66.45H225.407V72.68H227.027V73.5H222.697ZM230.673 73.5V72.35H231.853V73.5H230.673ZM233.063 73.5V72.35H234.243V73.5H233.063ZM228.283 73.5V72.35H229.463V73.5H228.283Z" fill="#5C5B57"></path>
</g>
<path d="M126.582 8.5C126.582 4.21979 130.052 0.75 134.332 0.75H238.332C242.612 0.75 246.082 4.21979 246.082 8.5V76.5C246.082 80.7802 242.612 84.25 238.332 84.25H134.332C130.052 84.25 126.582 80.7802 126.582 76.5V8.5Z" stroke="url(#paint5_linear_1489_115018)" stroke-opacity="0.12" stroke-width="0.5"></path>
</g>
<defs>
<linearGradient id="paint0_linear_1489_115018" x1="60.332" y1="0.5" x2="60.332" y2="56.5" gradientUnits="userSpaceOnUse">
<stop stop-color="#FFA466"></stop>
<stop offset="1" stop-color="#FF9147"></stop>
</linearGradient>
<linearGradient id="paint1_linear_1489_115018" x1="60.3305" y1="18.9" x2="60.3305" y2="38.1" gradientUnits="userSpaceOnUse">
<stop stop-color="#3B3D3D"></stop>
<stop offset="1" stop-color="#191A1A"></stop>
</linearGradient>
<linearGradient id="paint2_linear_1489_115018" x1="60.332" y1="0.5" x2="60.332" y2="84.5" gradientUnits="userSpaceOnUse">
<stop stop-color="#3B3D3D"></stop>
<stop offset="1" stop-color="#191A1A"></stop>
</linearGradient>
<linearGradient id="paint3_linear_1489_115018" x1="186.332" y1="0.5" x2="186.332" y2="56.5" gradientUnits="userSpaceOnUse">
<stop stop-color="#F89BDA"></stop>
<stop offset="1" stop-color="#F788D2"></stop>
</linearGradient>
<linearGradient id="paint4_linear_1489_115018" x1="186.33" y1="18.9" x2="186.33" y2="38.1" gradientUnits="userSpaceOnUse">
<stop stop-color="#3B3D3D"></stop>
<stop offset="1" stop-color="#191A1A"></stop>
</linearGradient>
<linearGradient id="paint5_linear_1489_115018" x1="186.332" y1="0.5" x2="186.332" y2="84.5" gradientUnits="userSpaceOnUse">
<stop stop-color="#3B3D3D"></stop>
<stop offset="1" stop-color="#191A1A"></stop>
</linearGradient>
<clipPath id="clip0_1489_115018">
<rect width="242" height="84" fill="white" transform="translate(0.332031 0.5)"></rect>
</clipPath>
<clipPath id="clip1_1489_115018">
<path d="M0.332031 8.5C0.332031 4.08172 3.91375 0.5 8.33203 0.5H112.332C116.75 0.5 120.332 4.08172 120.332 8.5V76.5C120.332 80.9183 116.75 84.5 112.332 84.5H8.33203C3.91375 84.5 0.332031 80.9183 0.332031 76.5V8.5Z" fill="white"></path>
</clipPath>
<clipPath id="clip2_1489_115018">
<path d="M126.332 8.5C126.332 4.08172 129.914 0.5 134.332 0.5H238.332C242.75 0.5 246.332 4.08172 246.332 8.5V76.5C246.332 80.9183 242.75 84.5 238.332 84.5H134.332C129.914 84.5 126.332 80.9183 126.332 76.5V8.5Z" fill="white"></path>
</clipPath>
</defs>
</svg>