<svg width="100%" height="100%" viewBox="0 0 20 20" fill="none" xmlns="http://www.w3.org/2000/svg">
<path d="M1.70735 14.2829C1.09755 11.4051 1.09755 8.43154 1.70735 5.55379C1.78747 5.26155 1.94228 4.99519 2.15655 4.78092C2.37082 4.56665 2.63718 4.41184 2.92942 4.33171C7.61123 3.5561 12.3888 3.5561 17.0706 4.33171C17.3628 4.41184 17.6292 4.56665 17.8434 4.78092C18.0577 4.99519 18.2125 5.26155 18.2927 5.55379C18.9024 8.43154 18.9024 11.4051 18.2927 14.2829C18.2125 14.5751 18.0577 14.8415 17.8434 15.0558C17.6292 15.27 17.3628 15.4248 17.0706 15.505C12.3888 16.2807 7.61122 16.2807 2.92942 15.505C2.63718 15.4248 2.37082 15.27 2.15655 15.0558C1.94228 14.8415 1.78747 14.5751 1.70735 14.2829Z" stroke="url(#paint0_linear_4064_40714)" stroke-width="1.5" stroke-linecap="round" stroke-linejoin="round"></path>
<path d="M8.25418 12.5371L12.6187 9.91834L8.25418 7.29961V12.5371Z" stroke="url(#paint1_linear_4064_40714)" stroke-width="1.5" stroke-linecap="round" stroke-linejoin="round"></path>
<defs>
<linearGradient id="paint0_linear_4064_40714" x1="10" y1="3.75" x2="10" y2="16.0868" gradientUnits="userSpaceOnUse">
<stop stop-color="#3B3D3D"></stop>
<stop offset="1" stop-color="#191A1A"></stop>
</linearGradient>
<linearGradient id="paint1_linear_4064_40714" x1="10" y1="3.75" x2="10" y2="16.0868" gradientUnits="userSpaceOnUse">
<stop stop-color="#3B3D3D"></stop>
<stop offset="1" stop-color="#191A1A"></stop>
</linearGradient>
</defs>
</svg>