<?xml version="1.0" encoding="UTF-8"?>
<svg xmlns="http://www.w3.org/2000/svg" xmlns:xlink="http://www.w3.org/1999/xlink" width="48px" height="48px" viewBox="0 0 48 48" version="1.1">
<g id="surface1">
<path style=" stroke:none;fill-rule:nonzero;fill:rgb(94.509804%,56.862748%,26.274511%);fill-opacity:1;" d="M 36.753906 -0.046875 L 36.976562 -0.0507812 L 37.21875 -0.046875 L 37.480469 -0.0507812 C 37.761719 -0.0507812 38.042969 -0.0507812 38.324219 -0.0507812 C 38.523438 -0.0507812 38.71875 -0.0507812 38.914062 -0.0507812 C 39.324219 -0.0507812 39.738281 -0.0507812 40.148438 -0.0507812 C 40.675781 -0.046875 41.203125 -0.046875 41.730469 -0.0507812 C 42.132812 -0.0507812 42.539062 -0.0507812 42.945312 -0.0507812 C 43.136719 -0.0507812 43.332031 -0.0507812 43.527344 -0.0507812 C 43.800781 -0.0507812 44.070312 -0.0507812 44.34375 -0.046875 L 44.585938 -0.0507812 C 45.132812 -0.0429688 45.132812 -0.0429688 45.421875 0.179688 C 45.683594 0.542969 45.667969 0.832031 45.667969 1.265625 L 45.667969 1.492188 C 45.667969 1.742188 45.667969 1.992188 45.667969 2.242188 L 45.667969 2.78125 C 45.671875 3.277344 45.671875 3.773438 45.667969 4.273438 C 45.671875 4.808594 45.671875 5.34375 45.671875 5.878906 C 45.671875 6.925781 45.671875 7.976562 45.671875 9.027344 C 45.671875 9.878906 45.671875 10.730469 45.671875 11.582031 C 45.671875 13.605469 45.671875 15.625 45.671875 17.648438 L 45.671875 19.417969 C 45.671875 21.46875 45.675781 23.515625 45.675781 25.566406 C 45.675781 27.867188 45.679688 30.167969 45.675781 32.46875 C 45.675781 33.6875 45.679688 34.90625 45.679688 36.125 C 45.679688 37.164062 45.679688 38.199219 45.679688 39.238281 C 45.679688 39.769531 45.679688 40.296875 45.679688 40.828125 C 45.679688 41.3125 45.679688 41.796875 45.679688 42.28125 C 45.679688 42.457031 45.679688 42.632812 45.679688 42.808594 C 45.679688 43.046875 45.679688 43.285156 45.679688 43.523438 L 45.679688 43.730469 C 45.679688 44.074219 45.671875 44.339844 45.46875 44.625 C 45.101562 44.871094 44.789062 44.839844 44.363281 44.839844 L 44.105469 44.839844 C 43.828125 44.84375 43.546875 44.84375 43.269531 44.84375 L 42.6875 44.847656 C 42.28125 44.847656 41.875 44.847656 41.46875 44.847656 C 40.945312 44.847656 40.425781 44.851562 39.902344 44.851562 C 39.503906 44.855469 39.101562 44.855469 38.699219 44.855469 C 38.507812 44.855469 38.316406 44.855469 38.125 44.859375 C 37.855469 44.859375 37.585938 44.859375 37.316406 44.859375 L 36.660156 44.859375 C 36.363281 44.785156 36.214844 44.65625 36 44.4375 C 35.953125 44.175781 35.9375 43.96875 35.941406 43.703125 L 35.9375 43.476562 C 35.9375 43.226562 35.9375 42.972656 35.941406 42.722656 C 35.941406 42.539062 35.941406 42.359375 35.9375 42.175781 C 35.9375 41.675781 35.9375 41.175781 35.941406 40.675781 C 35.941406 40.132812 35.941406 39.59375 35.9375 39.054688 C 35.9375 37.996094 35.9375 36.941406 35.941406 35.882812 C 35.941406 35.023438 35.941406 34.164062 35.941406 33.304688 L 35.941406 32.191406 C 35.941406 29.929688 35.941406 27.667969 35.945312 25.40625 C 35.945312 23.339844 35.949219 21.273438 35.945312 19.207031 L 35.945312 17.425781 C 35.945312 15.453125 35.945312 13.480469 35.945312 11.507812 L 35.945312 11.140625 C 35.945312 10.28125 35.945312 9.421875 35.945312 8.5625 C 35.945312 7.515625 35.945312 6.472656 35.949219 5.425781 C 35.949219 4.890625 35.949219 4.359375 35.949219 3.824219 C 35.949219 3.335938 35.949219 2.847656 35.949219 2.359375 C 35.953125 2.183594 35.953125 2.003906 35.949219 1.828125 C 35.949219 1.585938 35.949219 1.347656 35.953125 1.109375 L 35.949219 0.898438 C 35.953125 0.574219 35.976562 0.40625 36.179688 0.144531 C 36.394531 -0.015625 36.488281 -0.046875 36.753906 -0.046875 M 37.6875 1.6875 L 37.6875 43.125 L 43.96875 43.125 L 43.96875 1.6875 Z M 14.441406 9.503906 L 14.664062 9.5 L 14.898438 9.503906 L 15.152344 9.5 C 15.429688 9.5 15.703125 9.5 15.980469 9.503906 C 16.171875 9.503906 16.363281 9.503906 16.554688 9.503906 C 16.953125 9.503906 17.355469 9.503906 17.757812 9.507812 C 18.269531 9.507812 18.785156 9.507812 19.300781 9.507812 C 19.695312 9.507812 20.089844 9.507812 20.484375 9.507812 C 20.675781 9.507812 20.867188 9.507812 21.054688 9.507812 C 21.320312 9.507812 21.585938 9.511719 21.851562 9.511719 L 22.085938 9.511719 C 22.460938 9.515625 22.644531 9.535156 22.96875 9.742188 C 23.273438 10.058594 23.261719 10.25 23.261719 10.679688 L 23.261719 11.863281 C 23.265625 12.25 23.265625 12.636719 23.261719 13.027344 C 23.265625 13.445312 23.265625 13.863281 23.265625 14.28125 C 23.265625 15.097656 23.265625 15.917969 23.265625 16.738281 C 23.265625 17.402344 23.265625 18.070312 23.265625 18.734375 C 23.265625 20.621094 23.265625 22.503906 23.265625 24.390625 L 23.265625 25.007812 C 23.265625 26.65625 23.269531 28.308594 23.269531 29.960938 C 23.269531 31.652344 23.273438 33.347656 23.269531 35.042969 C 23.269531 35.992188 23.273438 36.945312 23.273438 37.894531 C 23.273438 38.707031 23.273438 39.515625 23.273438 40.328125 C 23.273438 40.738281 23.273438 41.152344 23.273438 41.566406 C 23.273438 41.945312 23.273438 42.324219 23.273438 42.703125 C 23.273438 42.839844 23.273438 42.976562 23.273438 43.113281 C 23.273438 43.300781 23.273438 43.484375 23.273438 43.671875 L 23.273438 43.984375 C 23.25 44.253906 23.210938 44.402344 23.0625 44.625 C 22.695312 44.871094 22.382812 44.839844 21.957031 44.839844 L 21.699219 44.84375 C 21.421875 44.847656 21.140625 44.847656 20.863281 44.847656 L 20.28125 44.851562 C 19.875 44.851562 19.46875 44.851562 19.0625 44.851562 C 18.539062 44.851562 18.019531 44.855469 17.496094 44.859375 C 17.097656 44.863281 16.695312 44.863281 16.292969 44.863281 C 16.101562 44.863281 15.910156 44.867188 15.71875 44.867188 C 15.449219 44.871094 15.179688 44.871094 14.910156 44.867188 L 14.671875 44.871094 L 14.253906 44.871094 C 13.945312 44.777344 13.800781 44.589844 13.59375 44.34375 C 13.535156 44.066406 13.535156 44.066406 13.535156 43.75 L 13.53125 43.386719 L 13.535156 42.988281 C 13.535156 42.847656 13.53125 42.703125 13.53125 42.5625 C 13.53125 42.171875 13.53125 41.785156 13.53125 41.394531 C 13.535156 40.976562 13.53125 40.554688 13.53125 40.136719 C 13.527344 39.3125 13.527344 38.492188 13.53125 37.667969 C 13.53125 37 13.53125 36.332031 13.53125 35.664062 L 13.53125 34.796875 C 13.527344 32.988281 13.53125 31.175781 13.53125 29.363281 C 13.535156 27.808594 13.535156 26.253906 13.53125 24.699219 C 13.53125 22.703125 13.527344 20.707031 13.53125 18.710938 L 13.53125 18.421875 C 13.53125 17.757812 13.53125 17.089844 13.53125 16.421875 C 13.527344 15.609375 13.527344 14.792969 13.53125 13.980469 C 13.53125 13.566406 13.53125 13.152344 13.53125 12.734375 C 13.53125 12.355469 13.53125 11.976562 13.535156 11.597656 C 13.535156 11.457031 13.535156 11.320312 13.53125 11.183594 C 13.53125 10.996094 13.53125 10.808594 13.535156 10.625 L 13.535156 10.308594 C 13.632812 9.84375 13.953125 9.503906 14.441406 9.503906 M 15.28125 11.25 L 15.28125 43.125 L 21.5625 43.125 L 21.5625 11.25 Z M 26.304688 19.097656 L 26.546875 19.097656 C 26.808594 19.097656 27.070312 19.097656 27.332031 19.097656 L 27.882812 19.09375 C 28.265625 19.09375 28.652344 19.09375 29.035156 19.09375 C 29.527344 19.097656 30.015625 19.09375 30.507812 19.09375 C 30.886719 19.089844 31.265625 19.089844 31.644531 19.089844 C 31.824219 19.089844 32.003906 19.089844 32.1875 19.089844 C 32.441406 19.089844 32.695312 19.089844 32.945312 19.089844 L 33.171875 19.089844 C 33.71875 19.09375 34.023438 19.210938 34.40625 19.59375 C 34.429688 19.773438 34.429688 19.773438 34.429688 20.003906 L 34.433594 20.261719 L 34.433594 20.859375 C 34.433594 21.199219 34.433594 21.539062 34.433594 21.878906 C 34.4375 22.121094 34.4375 22.367188 34.4375 22.609375 C 34.4375 23.269531 34.441406 23.933594 34.441406 24.59375 C 34.441406 25.007812 34.441406 25.421875 34.441406 25.835938 C 34.445312 27.351562 34.445312 28.863281 34.445312 30.378906 C 34.445312 31.574219 34.449219 32.773438 34.453125 33.96875 C 34.457031 35.195312 34.457031 36.421875 34.457031 37.648438 C 34.457031 38.339844 34.457031 39.027344 34.460938 39.714844 C 34.464844 40.363281 34.464844 41.011719 34.460938 41.660156 C 34.460938 41.898438 34.464844 42.136719 34.464844 42.375 C 34.464844 42.699219 34.464844 43.023438 34.464844 43.347656 L 34.46875 43.636719 C 34.460938 44.070312 34.453125 44.277344 34.191406 44.636719 C 33.945312 44.804688 33.84375 44.871094 33.550781 44.871094 L 33.328125 44.875 L 33.089844 44.871094 L 32.832031 44.875 C 32.554688 44.875 32.277344 44.875 31.996094 44.871094 C 31.804688 44.871094 31.609375 44.871094 31.414062 44.871094 C 31.011719 44.871094 30.605469 44.871094 30.199219 44.867188 C 29.675781 44.867188 29.15625 44.867188 28.636719 44.867188 C 28.234375 44.867188 27.835938 44.867188 27.433594 44.867188 C 27.242188 44.867188 27.050781 44.867188 26.859375 44.867188 C 26.589844 44.867188 26.324219 44.863281 26.054688 44.863281 L 25.8125 44.863281 C 25.273438 44.855469 25.273438 44.855469 24.984375 44.632812 C 24.78125 44.347656 24.738281 44.191406 24.738281 43.847656 L 24.738281 43.300781 L 24.734375 43 C 24.734375 42.664062 24.734375 42.328125 24.734375 41.988281 L 24.734375 41.269531 C 24.730469 40.613281 24.730469 39.960938 24.730469 39.304688 L 24.730469 38.078125 C 24.730469 36.949219 24.726562 35.820312 24.726562 34.6875 L 24.726562 33.585938 C 24.726562 32.402344 24.726562 31.222656 24.722656 30.039062 C 24.722656 28.828125 24.71875 27.613281 24.71875 26.402344 C 24.71875 25.71875 24.71875 25.039062 24.71875 24.355469 C 24.714844 23.714844 24.714844 23.074219 24.714844 22.433594 C 24.714844 22.199219 24.714844 21.964844 24.714844 21.726562 C 24.714844 21.40625 24.714844 21.085938 24.714844 20.765625 L 24.714844 20.480469 C 24.714844 20.019531 24.71875 19.683594 25.03125 19.3125 C 25.425781 19.074219 25.855469 19.097656 26.304688 19.097656 M 26.4375 20.8125 L 26.4375 43.125 L 32.71875 43.125 L 32.71875 20.8125 Z M 0 46.3125 L 48 46.3125 L 48 48 L 0 48 Z M 3.636719 28.753906 L 3.894531 28.75 C 4.171875 28.746094 4.453125 28.746094 4.730469 28.746094 L 5.3125 28.742188 C 5.71875 28.742188 6.125 28.742188 6.53125 28.742188 C 7.054688 28.742188 7.574219 28.738281 8.097656 28.734375 C 8.496094 28.730469 8.898438 28.730469 9.300781 28.730469 C 9.492188 28.730469 9.683594 28.726562 9.875 28.726562 C 10.144531 28.722656 10.414062 28.722656 10.683594 28.726562 L 10.921875 28.722656 L 11.339844 28.722656 C 11.652344 28.820312 11.796875 28.996094 12 29.25 C 12.058594 29.542969 12.058594 29.542969 12.058594 29.878906 L 12.0625 30.070312 C 12.0625 30.277344 12.0625 30.484375 12.0625 30.691406 C 12.0625 30.839844 12.0625 30.988281 12.0625 31.140625 C 12.066406 31.542969 12.0625 31.949219 12.0625 32.351562 C 12.0625 32.773438 12.0625 33.199219 12.0625 33.621094 C 12.066406 34.332031 12.0625 35.042969 12.0625 35.753906 C 12.058594 36.574219 12.058594 37.398438 12.0625 38.21875 C 12.0625 38.925781 12.066406 39.628906 12.0625 40.335938 C 12.0625 40.757812 12.0625 41.179688 12.0625 41.597656 C 12.066406 41.996094 12.0625 42.390625 12.0625 42.789062 C 12.0625 42.933594 12.0625 43.078125 12.0625 43.222656 C 12.0625 43.421875 12.0625 43.621094 12.058594 43.820312 L 12.058594 44.15625 C 12 44.4375 12 44.4375 11.785156 44.660156 C 11.539062 44.808594 11.425781 44.859375 11.144531 44.859375 L 10.921875 44.863281 L 10.683594 44.859375 L 10.425781 44.863281 C 10.148438 44.863281 9.871094 44.863281 9.589844 44.863281 C 9.398438 44.863281 9.203125 44.863281 9.007812 44.863281 C 8.605469 44.863281 8.199219 44.863281 7.792969 44.859375 C 7.269531 44.859375 6.75 44.859375 6.230469 44.863281 C 5.828125 44.863281 5.429688 44.863281 5.027344 44.863281 C 4.835938 44.863281 4.644531 44.863281 4.453125 44.863281 C 4.183594 44.863281 3.917969 44.863281 3.648438 44.859375 L 3.40625 44.863281 C 2.867188 44.855469 2.867188 44.855469 2.578125 44.632812 C 2.332031 44.292969 2.332031 44.085938 2.332031 43.664062 L 2.332031 43.480469 C 2.332031 43.273438 2.328125 43.070312 2.332031 42.867188 L 2.328125 42.425781 C 2.328125 42.03125 2.328125 41.632812 2.328125 41.234375 C 2.328125 40.902344 2.328125 40.570312 2.328125 40.238281 C 2.328125 39.453125 2.328125 38.671875 2.328125 37.886719 C 2.328125 37.078125 2.324219 36.269531 2.324219 35.460938 C 2.324219 34.769531 2.320312 34.074219 2.324219 33.382812 C 2.324219 32.96875 2.320312 32.550781 2.320312 32.136719 C 2.320312 31.75 2.320312 31.359375 2.320312 30.96875 C 2.320312 30.824219 2.320312 30.683594 2.320312 30.539062 C 2.320312 30.34375 2.320312 30.148438 2.320312 29.953125 L 2.320312 29.621094 C 2.34375 29.347656 2.375 29.195312 2.53125 28.96875 C 2.898438 28.722656 3.210938 28.753906 3.636719 28.753906 M 4.03125 30.46875 L 4.03125 43.125 L 10.3125 43.125 L 10.3125 30.46875 Z M 4.03125 30.46875 "/>
</g>
</svg>
