<?xml version="1.0" encoding="UTF-8"?>
<svg xmlns="http://www.w3.org/2000/svg" xmlns:xlink="http://www.w3.org/1999/xlink" width="48px" height="48px" viewBox="0 0 48 48" version="1.1">
<g id="surface1">
<path style=" stroke:none;fill-rule:nonzero;fill:rgb(94.509804%,56.862748%,26.274511%);fill-opacity:1;" d="M 16.105469 -0.015625 L 16.457031 -0.015625 L 16.84375 -0.0195312 L 17.25 -0.0195312 C 17.695312 -0.0234375 18.140625 -0.0234375 18.585938 -0.0273438 L 19.046875 -0.0273438 C 19.683594 -0.0273438 20.324219 -0.03125 20.960938 -0.03125 C 21.875 -0.0351562 22.789062 -0.0351562 23.703125 -0.0429688 C 24.347656 -0.046875 24.988281 -0.046875 25.632812 -0.046875 C 26.015625 -0.046875 26.402344 -0.0507812 26.785156 -0.0507812 C 27.144531 -0.0546875 27.507812 -0.0546875 27.867188 -0.0546875 C 28 -0.0546875 28.132812 -0.0546875 28.265625 -0.0585938 C 29.042969 -0.0664062 29.65625 -0.0273438 30.28125 0.46875 C 30.832031 1.011719 30.988281 1.597656 31.125 2.34375 L 31.164062 2.550781 C 31.425781 4 31.425781 4 31.40625 4.5 L 31.6875 4.511719 C 32.148438 4.578125 32.492188 4.824219 32.8125 5.15625 C 33.132812 5.648438 33.273438 6.074219 33.371094 6.644531 L 33.417969 6.886719 C 33.449219 7.054688 33.480469 7.226562 33.507812 7.394531 C 33.558594 7.660156 33.605469 7.925781 33.65625 8.191406 C 33.804688 8.980469 33.945312 9.773438 34.066406 10.566406 L 34.125 10.925781 C 34.160156 11.144531 34.191406 11.359375 34.21875 11.574219 C 34.328125 12.261719 34.550781 12.652344 35.0625 13.125 L 35.273438 13.007812 L 35.550781 12.855469 L 35.824219 12.703125 C 36.5 12.351562 37.148438 12.230469 37.90625 12.433594 C 38.742188 12.804688 39.222656 13.65625 39.644531 14.425781 L 39.78125 14.664062 C 40.15625 15.339844 40.324219 15.984375 40.125 16.746094 C 39.769531 17.640625 39.089844 18.066406 38.25 18.46875 L 38.332031 18.832031 C 38.4375 19.304688 38.53125 19.777344 38.625 20.25 L 38.796875 20.242188 C 39.054688 20.234375 39.3125 20.230469 39.570312 20.226562 L 39.835938 20.21875 C 40.539062 20.207031 40.90625 20.339844 41.449219 20.792969 L 41.609375 20.964844 L 41.765625 21.132812 C 42.214844 21.914062 42.121094 22.902344 42.117188 23.773438 C 42.117188 24 42.117188 24.226562 42.121094 24.453125 C 42.121094 26.496094 42.121094 26.496094 41.554688 27.089844 L 41.367188 27.289062 C 40.792969 27.777344 40.296875 27.785156 39.574219 27.769531 L 39.296875 27.765625 C 39.074219 27.761719 38.847656 27.753906 38.625 27.75 C 38.5625 27.992188 38.5 28.238281 38.4375 28.484375 L 38.382812 28.691406 C 38.3125 28.980469 38.25 29.234375 38.25 29.53125 C 38.484375 29.6875 38.484375 29.6875 38.777344 29.835938 C 39.429688 30.203125 39.839844 30.546875 40.121094 31.25 C 40.339844 32.070312 40.128906 32.714844 39.71875 33.441406 L 39.558594 33.722656 L 39.402344 34.003906 C 39.015625 34.671875 38.597656 35.203125 37.90625 35.570312 C 36.980469 35.804688 36.320312 35.5625 35.523438 35.113281 C 35.261719 34.945312 35.261719 34.945312 34.96875 34.96875 C 34.316406 35.53125 34.246094 36.199219 34.113281 37.015625 C 34.089844 37.152344 34.066406 37.289062 34.042969 37.425781 C 33.980469 37.78125 33.921875 38.136719 33.863281 38.496094 C 33.765625 39.066406 33.667969 39.636719 33.570312 40.207031 C 33.535156 40.40625 33.503906 40.601562 33.46875 40.800781 C 33.183594 42.488281 33.183594 42.488281 32.53125 43.125 C 32.144531 43.375 31.871094 43.5 31.40625 43.5 L 31.390625 43.6875 C 31.339844 44.320312 31.257812 44.949219 31.15625 45.574219 L 31.117188 45.835938 C 30.996094 46.535156 30.746094 47.152344 30.167969 47.59375 C 29.726562 47.878906 29.425781 48.011719 28.894531 48.015625 L 28.542969 48.015625 L 28.15625 48.019531 L 27.75 48.019531 C 27.304688 48.023438 26.859375 48.023438 26.414062 48.027344 L 25.953125 48.027344 C 25.316406 48.027344 24.675781 48.03125 24.039062 48.03125 C 23.125 48.035156 22.210938 48.035156 21.296875 48.042969 C 20.652344 48.046875 20.011719 48.046875 19.367188 48.046875 C 18.984375 48.046875 18.597656 48.050781 18.214844 48.050781 C 17.855469 48.054688 17.492188 48.054688 17.128906 48.054688 C 17 48.054688 16.867188 48.054688 16.734375 48.058594 C 15.957031 48.066406 15.34375 48.027344 14.71875 47.53125 C 14.167969 46.988281 14.011719 46.402344 13.875 45.65625 L 13.835938 45.449219 C 13.574219 44 13.574219 44 13.59375 43.5 L 13.3125 43.488281 C 12.851562 43.421875 12.507812 43.175781 12.1875 42.84375 C 11.867188 42.351562 11.726562 41.925781 11.628906 41.355469 L 11.582031 41.113281 C 11.550781 40.945312 11.519531 40.773438 11.492188 40.605469 C 11.441406 40.339844 11.394531 40.074219 11.34375 39.808594 C 11.195312 39.023438 11.058594 38.234375 10.941406 37.441406 L 10.882812 37.085938 C 10.851562 36.875 10.824219 36.660156 10.796875 36.449219 C 10.671875 35.644531 10.296875 35.183594 9.75 34.59375 C 7.523438 31.953125 6.003906 28.476562 5.980469 24.992188 L 5.980469 24.769531 C 5.957031 21.730469 5.957031 21.730469 6.28125 20.4375 L 6.335938 20.207031 C 6.980469 17.570312 8.195312 14.976562 10.121094 13.03125 C 10.425781 12.695312 10.558594 12.445312 10.652344 12 L 10.71875 11.675781 L 10.78125 11.34375 L 10.839844 11.042969 C 10.894531 10.734375 10.949219 10.429688 11.003906 10.125 L 11.125 9.441406 C 11.1875 9.085938 11.25 8.734375 11.3125 8.378906 C 11.371094 8.035156 11.433594 7.691406 11.496094 7.347656 L 11.550781 7.027344 C 11.699219 6.207031 11.851562 5.480469 12.46875 4.875 C 12.855469 4.625 13.128906 4.5 13.59375 4.5 L 13.609375 4.3125 C 13.660156 3.679688 13.742188 3.050781 13.847656 2.425781 C 13.859375 2.339844 13.871094 2.253906 13.882812 2.164062 C 14.003906 1.464844 14.253906 0.847656 14.832031 0.40625 C 15.273438 0.121094 15.574219 -0.0117188 16.105469 -0.015625 M 15.679688 1.855469 C 15.542969 2.09375 15.496094 2.289062 15.453125 2.5625 C 15.4375 2.65625 15.421875 2.75 15.40625 2.847656 L 15.359375 3.148438 L 15.308594 3.445312 C 15.21875 3.96875 15.21875 3.96875 15.1875 4.5 L 29.8125 4.5 C 29.71875 3.15625 29.71875 3.15625 29.214844 1.699219 C 28.898438 1.480469 28.550781 1.488281 28.175781 1.488281 L 27.859375 1.484375 L 27.515625 1.488281 L 27.152344 1.484375 C 26.824219 1.484375 26.496094 1.484375 26.164062 1.484375 L 25.550781 1.484375 C 24.832031 1.484375 24.113281 1.484375 23.398438 1.484375 C 22.730469 1.484375 22.0625 1.480469 21.394531 1.480469 C 20.820312 1.480469 20.246094 1.476562 19.671875 1.480469 C 19.328125 1.480469 18.984375 1.476562 18.640625 1.476562 C 18.261719 1.476562 17.878906 1.476562 17.496094 1.476562 C 17.382812 1.476562 17.269531 1.476562 17.152344 1.476562 L 16.5625 1.476562 C 16.203125 1.511719 15.933594 1.59375 15.679688 1.855469 M 13.40625 6.28125 C 13.300781 6.5 13.300781 6.5 13.253906 6.761719 L 13.191406 7.066406 L 13.125 7.40625 L 13.089844 7.59375 C 13.011719 7.996094 12.933594 8.398438 12.863281 8.800781 C 12.824219 9.015625 12.789062 9.226562 12.75 9.4375 C 12.617188 10.058594 12.617188 10.058594 12.5625 10.6875 C 12.894531 10.566406 13.148438 10.425781 13.429688 10.214844 C 16.054688 8.351562 19.292969 7.550781 22.472656 7.566406 L 22.710938 7.566406 C 23.847656 7.570312 24.953125 7.597656 26.0625 7.875 L 26.292969 7.929688 C 28.40625 8.445312 30.539062 9.320312 32.25 10.6875 L 32.4375 10.6875 C 32.300781 9.894531 32.164062 9.097656 32.027344 8.304688 C 31.980469 8.027344 31.929688 7.746094 31.886719 7.46875 C 31.863281 7.335938 31.839844 7.203125 31.816406 7.074219 L 31.761719 6.738281 C 31.683594 6.457031 31.605469 6.300781 31.40625 6.09375 C 31.078125 5.984375 30.78125 5.988281 30.441406 5.988281 L 30.226562 5.984375 C 29.988281 5.984375 29.753906 5.984375 29.515625 5.984375 L 29.007812 5.984375 C 28.550781 5.980469 28.089844 5.980469 27.628906 5.980469 C 27.339844 5.980469 27.054688 5.980469 26.765625 5.980469 C 25.867188 5.980469 24.96875 5.976562 24.070312 5.976562 C 23.03125 5.976562 21.992188 5.976562 20.953125 5.972656 C 20.152344 5.972656 19.351562 5.96875 18.546875 5.96875 C 18.070312 5.96875 17.589844 5.96875 17.109375 5.96875 C 16.660156 5.964844 16.210938 5.964844 15.757812 5.964844 C 15.59375 5.964844 15.425781 5.964844 15.261719 5.964844 C 15.035156 5.964844 14.808594 5.964844 14.585938 5.964844 L 14.386719 5.964844 C 13.980469 5.96875 13.726562 6.03125 13.40625 6.28125 M 12.054688 13.257812 C 9.539062 15.6875 7.730469 19.234375 7.578125 22.757812 C 7.523438 25.039062 7.523438 25.039062 7.875 27.28125 L 7.933594 27.507812 C 8.792969 30.761719 10.597656 33.773438 13.3125 35.8125 L 13.597656 36.035156 C 15.179688 37.238281 16.945312 37.984375 18.84375 38.53125 L 19.191406 38.632812 C 22.429688 39.441406 25.992188 38.945312 28.96875 37.5 L 29.160156 37.410156 C 32.613281 35.726562 35.335938 32.652344 36.605469 29.03125 C 37.472656 26.433594 37.828125 23.410156 37.125 20.71875 L 37.066406 20.492188 C 36.207031 17.238281 34.402344 14.226562 31.6875 12.1875 L 31.402344 11.964844 C 25.539062 7.5 17.320312 8.328125 12.054688 13.257812 M 36.492188 14.203125 L 36.265625 14.335938 L 36.09375 14.4375 C 36.253906 14.894531 36.496094 15.289062 36.746094 15.703125 L 36.871094 15.914062 C 37.078125 16.265625 37.289062 16.617188 37.5 16.96875 C 37.886719 16.832031 38.207031 16.65625 38.53125 16.40625 C 38.636719 16.167969 38.636719 16.066406 38.546875 15.820312 L 38.417969 15.589844 L 38.28125 15.339844 L 38.132812 15.082031 L 37.988281 14.820312 C 37.726562 14.328125 37.726562 14.328125 37.3125 13.96875 C 36.921875 13.96875 36.816406 14.011719 36.492188 14.203125 M 38.90625 21.75 L 38.90625 26.25 C 39.777344 26.324219 39.777344 26.324219 40.40625 25.96875 C 40.523438 25.621094 40.515625 25.300781 40.519531 24.9375 L 40.519531 24.714844 C 40.523438 24.558594 40.523438 24.40625 40.523438 24.25 C 40.523438 24.011719 40.527344 23.777344 40.53125 23.539062 C 40.53125 23.390625 40.53125 23.238281 40.53125 23.085938 L 40.535156 22.871094 C 40.53125 22.453125 40.488281 22.171875 40.21875 21.84375 C 39.824219 21.695312 39.824219 21.695312 38.90625 21.75 M 37.5 31.03125 C 37.347656 31.242188 37.347656 31.242188 37.199219 31.511719 L 37.023438 31.816406 L 36.835938 32.140625 L 36.652344 32.457031 C 36.335938 32.992188 36.335938 32.992188 36.09375 33.5625 C 36.222656 33.644531 36.351562 33.722656 36.480469 33.804688 L 36.699219 33.9375 C 37.027344 34.066406 37.171875 34.066406 37.5 33.9375 C 37.703125 33.699219 37.84375 33.4375 37.992188 33.164062 L 38.117188 32.945312 C 38.414062 32.429688 38.414062 32.429688 38.625 31.875 C 38.527344 31.546875 38.351562 31.414062 38.0625 31.242188 L 37.863281 31.121094 C 37.691406 31.015625 37.691406 31.015625 37.5 31.03125 M 12.5625 37.3125 C 12.699219 38.105469 12.835938 38.902344 12.972656 39.695312 C 13.019531 39.972656 13.070312 40.253906 13.113281 40.53125 C 13.136719 40.664062 13.160156 40.796875 13.183594 40.929688 L 13.238281 41.261719 C 13.316406 41.542969 13.394531 41.699219 13.59375 41.90625 C 13.921875 42.015625 14.21875 42.011719 14.558594 42.011719 L 14.773438 42.015625 C 15.011719 42.015625 15.246094 42.015625 15.484375 42.015625 L 15.992188 42.015625 C 16.449219 42.019531 16.910156 42.019531 17.371094 42.019531 C 17.660156 42.019531 17.945312 42.019531 18.234375 42.019531 C 19.132812 42.019531 20.03125 42.023438 20.929688 42.023438 C 21.96875 42.023438 23.007812 42.023438 24.046875 42.027344 C 24.847656 42.027344 25.648438 42.03125 26.453125 42.03125 C 26.929688 42.03125 27.410156 42.03125 27.890625 42.03125 C 28.339844 42.035156 28.789062 42.035156 29.242188 42.035156 C 29.40625 42.035156 29.574219 42.035156 29.738281 42.035156 C 29.964844 42.035156 30.191406 42.035156 30.414062 42.035156 L 30.613281 42.035156 C 31.019531 42.03125 31.273438 41.96875 31.59375 41.71875 C 31.699219 41.5 31.699219 41.5 31.746094 41.238281 L 31.808594 40.933594 L 31.875 40.59375 L 31.910156 40.40625 C 31.988281 40.003906 32.066406 39.601562 32.136719 39.199219 C 32.175781 38.984375 32.210938 38.773438 32.25 38.5625 C 32.382812 37.941406 32.382812 37.941406 32.4375 37.3125 C 32.105469 37.433594 31.851562 37.574219 31.570312 37.789062 C 29.773438 39.0625 27.652344 39.808594 25.5 40.21875 L 25.230469 40.269531 C 24.339844 40.429688 23.460938 40.445312 22.558594 40.441406 L 22.320312 40.441406 C 21.035156 40.4375 19.8125 40.34375 18.5625 40.03125 L 18.351562 39.980469 C 16.464844 39.523438 14.613281 38.667969 13.046875 37.519531 C 12.785156 37.292969 12.785156 37.292969 12.5625 37.3125 M 15.1875 43.5 C 15.28125 44.84375 15.28125 44.84375 15.785156 46.300781 C 16.101562 46.519531 16.449219 46.511719 16.824219 46.511719 L 17.140625 46.515625 L 17.484375 46.511719 L 17.847656 46.515625 C 18.175781 46.515625 18.503906 46.515625 18.835938 46.515625 L 19.449219 46.515625 C 20.167969 46.515625 20.886719 46.515625 21.601562 46.515625 C 22.269531 46.515625 22.9375 46.519531 23.605469 46.519531 C 24.179688 46.519531 24.753906 46.523438 25.328125 46.519531 C 25.671875 46.519531 26.015625 46.523438 26.359375 46.523438 C 26.738281 46.523438 27.121094 46.523438 27.503906 46.523438 C 27.617188 46.523438 27.730469 46.523438 27.847656 46.523438 L 28.4375 46.523438 C 28.796875 46.488281 29.066406 46.40625 29.320312 46.144531 C 29.457031 45.90625 29.503906 45.710938 29.546875 45.4375 C 29.5625 45.34375 29.578125 45.25 29.59375 45.152344 C 29.609375 45.054688 29.625 44.953125 29.644531 44.855469 L 29.691406 44.554688 C 29.78125 44.03125 29.78125 44.03125 29.8125 43.5 Z M 15.1875 43.5 "/>
<path style=" stroke:none;fill-rule:nonzero;fill:rgb(94.509804%,56.862748%,26.274511%);fill-opacity:1;" d="M 22.476562 11.222656 L 22.675781 11.222656 C 23.671875 11.226562 24.628906 11.257812 25.59375 11.53125 L 25.820312 11.59375 C 27.472656 12.066406 29.039062 12.78125 30.375 13.875 L 30.53125 14 C 33.097656 16.097656 34.875 19.078125 35.25 22.40625 C 35.277344 22.914062 35.28125 23.417969 35.28125 23.925781 L 35.277344 24.132812 C 35.273438 25.144531 35.246094 26.113281 34.96875 27.09375 L 34.90625 27.320312 C 34.433594 28.972656 33.714844 30.535156 32.625 31.875 L 32.503906 32.027344 C 30.847656 34.101562 28.671875 35.539062 26.132812 36.316406 L 25.910156 36.382812 C 24.792969 36.707031 23.683594 36.785156 22.523438 36.78125 L 22.324219 36.777344 C 21.328125 36.773438 20.371094 36.742188 19.40625 36.46875 L 19.179688 36.40625 C 17.527344 35.933594 15.964844 35.214844 14.625 34.125 L 14.472656 34.003906 C 12.398438 32.347656 10.960938 30.171875 10.183594 27.632812 L 10.117188 27.410156 C 9.792969 26.292969 9.714844 25.183594 9.722656 24.023438 L 9.722656 23.824219 C 9.726562 22.828125 9.757812 21.871094 10.03125 20.90625 L 10.09375 20.679688 C 11.046875 17.335938 13.121094 14.605469 16.125 12.84375 C 18.121094 11.738281 20.195312 11.207031 22.476562 11.222656 M 14.167969 16.449219 C 12.5625 18.214844 11.285156 20.832031 11.34375 23.25 L 11.503906 23.253906 C 11.742188 23.261719 11.980469 23.269531 12.214844 23.277344 L 12.46875 23.285156 L 12.707031 23.296875 L 12.929688 23.304688 C 13.171875 23.351562 13.257812 23.433594 13.40625 23.625 C 13.445312 23.808594 13.445312 23.808594 13.441406 24 L 13.445312 24.195312 C 13.394531 24.429688 13.3125 24.503906 13.125 24.65625 C 12.929688 24.695312 12.929688 24.695312 12.707031 24.703125 L 12.46875 24.714844 L 12.214844 24.71875 L 11.964844 24.730469 C 11.757812 24.738281 11.550781 24.746094 11.34375 24.75 C 11.386719 26.835938 12.160156 28.898438 13.40625 30.5625 L 13.582031 30.800781 C 15.414062 33.195312 18.105469 34.738281 21.09375 35.15625 C 21.3125 35.160156 21.53125 35.160156 21.75 35.15625 L 21.753906 34.996094 C 21.761719 34.757812 21.769531 34.519531 21.777344 34.285156 L 21.785156 34.03125 L 21.796875 33.792969 L 21.804688 33.570312 C 21.851562 33.328125 21.933594 33.242188 22.125 33.09375 C 22.453125 33.027344 22.773438 33.027344 23.058594 33.210938 C 23.289062 33.59375 23.277344 34.039062 23.304688 34.476562 L 23.316406 34.675781 C 23.324219 34.835938 23.335938 34.996094 23.34375 35.15625 C 25.390625 35.113281 27.433594 34.308594 29.0625 33.09375 L 29.300781 32.917969 C 31.695312 31.085938 33.238281 28.394531 33.65625 25.40625 C 33.660156 25.1875 33.660156 24.96875 33.65625 24.75 L 33.496094 24.746094 C 33.257812 24.738281 33.019531 24.730469 32.785156 24.71875 L 32.53125 24.714844 L 32.292969 24.703125 L 32.070312 24.695312 C 31.828125 24.648438 31.742188 24.566406 31.59375 24.375 C 31.554688 24.195312 31.554688 24.195312 31.558594 24 L 31.554688 23.808594 C 31.605469 23.570312 31.6875 23.496094 31.875 23.34375 C 32.070312 23.304688 32.070312 23.304688 32.292969 23.296875 L 32.53125 23.285156 L 32.785156 23.277344 L 33.035156 23.269531 C 33.242188 23.261719 33.449219 23.253906 33.65625 23.25 C 33.613281 21.164062 32.839844 19.101562 31.59375 17.4375 L 31.417969 17.199219 C 29.578125 14.796875 26.898438 13.273438 23.90625 12.84375 C 23.71875 12.839844 23.53125 12.839844 23.34375 12.84375 L 23.328125 13.132812 L 23.308594 13.511719 C 23.304688 13.574219 23.304688 13.636719 23.300781 13.699219 C 23.277344 14.097656 23.21875 14.445312 23.0625 14.8125 C 22.769531 14.957031 22.445312 14.960938 22.125 14.90625 C 21.933594 14.757812 21.851562 14.671875 21.804688 14.429688 L 21.796875 14.207031 L 21.785156 13.96875 L 21.777344 13.714844 L 21.769531 13.464844 C 21.761719 13.257812 21.753906 13.050781 21.75 12.84375 C 18.898438 12.746094 16.074219 14.449219 14.167969 16.449219 "/>
<path style=" stroke:none;fill-rule:nonzero;fill:rgb(94.509804%,56.862748%,26.274511%);fill-opacity:1;" d="M 28.875 17.25 C 29.109375 17.390625 29.109375 17.390625 29.25 17.625 C 29.316406 17.988281 29.351562 18.222656 29.144531 18.53125 C 28.558594 19.175781 27.941406 19.789062 27.328125 20.40625 L 26.957031 20.773438 C 26.703125 21.027344 26.445312 21.285156 26.191406 21.539062 C 25.863281 21.867188 25.535156 22.195312 25.207031 22.523438 C 24.953125 22.777344 24.703125 23.027344 24.449219 23.28125 C 24.328125 23.402344 24.207031 23.523438 24.085938 23.644531 C 23.917969 23.8125 23.75 23.980469 23.582031 24.148438 L 23.429688 24.300781 C 23.117188 24.609375 22.976562 24.734375 22.535156 24.796875 C 22.183594 24.792969 22.03125 24.703125 21.773438 24.46875 L 21.578125 24.285156 C 21.242188 23.96875 20.914062 23.644531 20.585938 23.320312 L 20.371094 23.101562 C 20.222656 22.953125 20.070312 22.800781 19.921875 22.652344 C 19.691406 22.421875 19.460938 22.191406 19.230469 21.964844 L 18.792969 21.527344 L 18.585938 21.316406 L 18.394531 21.125 L 18.222656 20.957031 C 17.972656 20.679688 17.96875 20.429688 17.976562 20.058594 C 18 19.875 18 19.875 18.140625 19.640625 C 18.40625 19.480469 18.617188 19.429688 18.929688 19.449219 C 19.757812 19.667969 20.589844 20.863281 21.1875 21.464844 L 21.542969 21.820312 C 21.832031 22.109375 22.117188 22.398438 22.40625 22.6875 C 22.773438 22.539062 23.019531 22.285156 23.292969 22.007812 L 23.445312 21.855469 C 23.609375 21.6875 23.773438 21.523438 23.9375 21.355469 L 24.28125 21.011719 C 24.585938 20.707031 24.886719 20.40625 25.1875 20.101562 C 25.667969 19.617188 26.152344 19.128906 26.632812 18.644531 C 26.804688 18.476562 26.972656 18.304688 27.140625 18.136719 L 27.449219 17.824219 L 27.589844 17.679688 C 28 17.273438 28.292969 17.171875 28.875 17.25 "/>
</g>
</svg>
