<svg xmlns:xlink="http://www.w3.org/1999/xlink" xmlns="http://www.w3.org/2000/svg" viewBox="0 0 256 256" focusable="false" color="var(--token-44dd7634-948b-4475-884c-16fbad7c474d, rgb(255, 251, 245))" style="user-select: none; width: 100%; height: 100%; display: inline-block; fill: var(--token-44dd7634-948b-4475-884c-16fbad7c474d, rgb(255, 251, 245)); color: var(--token-44dd7634-948b-4475-884c-16fbad7c474d, rgb(255, 251, 245)); flex-shrink: 0;" width="256"  height="256" ><g color="var(--token-44dd7634-948b-4475-884c-16fbad7c474d, rgb(255, 251, 245))" weight="fill" fill="#FFFBF5"><path d="M232,56V88a4,4,0,0,1-4,4H136V52a4,4,0,0,1,4-4h84A8,8,0,0,1,232,56Zm-4,52H184v44h44a4,4,0,0,0,4-4V112A4,4,0,0,0,228,108ZM88,152h80V108H88Zm-60,0H72V108H28a4,4,0,0,0-4,4v36A4,4,0,0,0,28,152Zm200,16H136v36a4,4,0,0,0,4,4h84a8,8,0,0,0,8-8V172A4,4,0,0,0,228,168ZM28,92h92V52a4,4,0,0,0-4-4H32a8,8,0,0,0-8,8V88A4,4,0,0,0,28,92Zm-4,80v28a8,8,0,0,0,8,8h84a4,4,0,0,0,4-4V168H28A4,4,0,0,0,24,172Z" fill="#FFFBF5"></path></g></svg>