<svg width="45" height="45" viewBox="0 0 45 45" fill="none" xmlns="http://www.w3.org/2000/svg">
<path d="M22.5 4.64258C28.442 4.64258 32.608 4.86505 35.2305 5.07812L35.4658 5.10254C37.8836 5.40654 39.7223 7.31552 39.9219 9.76953L40.001 10.8262C40.1865 13.4616 40.3574 17.3007 40.3574 22.5C40.3574 27.6993 40.1865 31.5384 40.001 34.1738L39.9219 35.2305C39.7223 37.6845 37.8836 39.5935 35.4658 39.8975L35.2305 39.9219C32.608 40.135 28.442 40.3574 22.5 40.3574C17.3007 40.3574 13.4616 40.1865 10.8262 40.001L9.76953 39.9219C7.31553 39.7223 5.40654 37.8836 5.10254 35.4658L5.07812 35.2305C4.86505 32.608 4.64258 28.442 4.64258 22.5C4.64258 16.558 4.86505 12.3921 5.07812 9.76953L5.10254 9.53418C5.40653 7.11639 7.31552 5.27767 9.76953 5.07812L10.8262 4.99902C13.4616 4.81355 17.3007 4.64258 22.5 4.64258Z" fill="#FA12E3" stroke="#FA12E3" stroke-width="1.9656" stroke-linejoin="round"/>
<path fill-rule="evenodd" clip-rule="evenodd" d="M27.4666 10.6684C27.1968 9.73703 25.7747 9.73703 25.5049 10.6684L25.1229 11.9877C24.2991 14.8301 23.1732 17.0505 20.1143 17.8158L18.6947 18.1711C17.6923 18.4218 17.6923 19.7433 18.6947 19.994L20.1143 20.3492C23.1732 21.1146 24.2991 23.3349 25.1229 26.1774L25.5049 27.4966C25.7747 28.428 27.1968 28.428 27.4666 27.4966L27.849 26.1774C28.6724 23.3349 29.7987 21.1146 32.8577 20.3492L34.2773 19.994C35.2797 19.7433 35.2797 18.4218 34.2773 18.1711C33.2748 17.9203 32.8577 17.8158 32.8577 17.8158C29.7987 17.0505 28.6724 14.8301 27.849 11.9877L27.4666 10.6684Z" fill="white"/>
<path fill-rule="evenodd" clip-rule="evenodd" d="M15.684 24.0754C15.5221 23.4933 14.6688 23.4933 14.5069 24.0754L14.2778 24.9C13.7834 26.6765 13.1079 28.0642 11.2726 28.5426L10.4208 28.7646C9.81936 28.9213 9.81936 29.7472 10.4208 29.9039L11.2726 30.126C13.1079 30.6043 13.7834 31.992 14.2778 33.7686L14.5069 34.5931C14.6688 35.1752 15.5221 35.1752 15.684 34.5931L15.9134 33.7686C16.4075 31.992 17.0832 30.6043 18.9186 30.126L19.7704 29.9039C20.3718 29.7472 20.3718 28.9213 19.7704 28.7646C19.1689 28.6079 18.9186 28.5426 18.9186 28.5426C17.0832 28.0642 16.4075 26.6765 15.9134 24.9L15.684 24.0754Z" fill="white"/>
</svg>
