<svg width="45" height="46" viewBox="0 0 45 46" fill="none" xmlns="http://www.w3.org/2000/svg">
<path d="M22.4995 5.04254C28.4415 5.04254 32.6075 5.26501 35.23 5.47809L35.4653 5.5025C37.8831 5.8065 39.7219 7.71548 39.9214 10.1695L40.0005 11.2261C40.186 13.8616 40.3569 17.7007 40.3569 22.9C40.3569 28.0993 40.186 31.9384 40.0005 34.5738L39.9214 35.6304C39.7218 38.0844 37.8831 39.9934 35.4653 40.2974L35.23 40.3218C32.6075 40.5349 28.4415 40.7574 22.4995 40.7574C17.3002 40.7574 13.4611 40.5864 10.8257 40.4009L9.76904 40.3218C7.31504 40.1223 5.40605 38.2836 5.10205 35.8658L5.07764 35.6304C4.86456 33.0079 4.64209 28.842 4.64209 22.9C4.64209 16.9579 4.86456 12.792 5.07764 10.1695L5.10205 9.93414C5.40605 7.51635 7.31503 5.67763 9.76904 5.47809L10.8257 5.39899C13.4611 5.21351 17.3002 5.04254 22.4995 5.04254Z" fill="#1F7CFF" stroke="#1F7CFF" stroke-width="1.9656" stroke-linejoin="round"/>
<path fill-rule="evenodd" clip-rule="evenodd" d="M28.3189 15.8951C28.0566 15.3218 27.4635 14.9594 26.818 14.9781C26.1724 14.9967 25.6025 15.3928 25.3757 15.9802L22.0039 24.7149L19.1833 18.2386C18.9486 17.6998 18.421 17.3359 17.8198 17.2985C17.2189 17.2612 16.6477 17.5567 16.3441 18.0621L14.0208 21.9314H10.1621C9.28351 21.9314 8.57129 22.6232 8.57129 23.4768C8.57129 24.3303 9.28351 25.0221 10.1621 25.0221H14.9344C15.5002 25.0221 16.0234 24.7301 16.3085 24.2553L17.4913 22.2856L20.6279 29.4875C20.8815 30.0699 21.475 30.4434 22.1259 30.4304C22.7768 30.4173 23.3539 30.0202 23.5825 29.4279L26.9901 20.6005L28.5932 24.1044C28.8485 24.6624 29.4181 25.0221 30.0468 25.0221H34.0238C34.9023 25.0221 35.6146 24.3302 35.6146 23.4768C35.6146 22.6233 34.9023 21.9314 34.0238 21.9314H31.0806L28.3189 15.8951Z" fill="white"/>
</svg>
