<svg width="45" height="45" viewBox="0 0 45 45" fill="none" xmlns="http://www.w3.org/2000/svg">
<path d="M27.624 10.1365C27.6643 11.5478 28.5549 12.6692 29.9663 12.7122C30.1547 12.7179 30.3577 12.7211 30.5765 12.7211C30.7952 12.7211 30.9983 12.7179 31.1867 12.7122C32.598 12.6692 33.4886 11.5478 33.5289 10.1365C33.5429 9.64574 33.5523 9.08636 33.5523 8.47003C33.5523 7.85369 33.5429 7.29423 33.5289 6.80352C33.4886 5.39218 32.598 4.27067 31.1867 4.22777C30.9983 4.22203 30.7952 4.21887 30.5765 4.21887C30.3577 4.21887 30.1547 4.22203 29.9663 4.22777C28.5549 4.27067 27.6643 5.39218 27.624 6.80352C27.61 7.29423 27.6006 7.85361 27.6006 8.47003C27.6006 9.08644 27.61 9.64574 27.624 10.1365Z" stroke="#2C2A41" stroke-width="1.9656"/>
<path d="M11.4688 10.1365C11.5091 11.5478 12.3997 12.6692 13.811 12.7122C13.9994 12.7179 14.2024 12.7211 14.4212 12.7211C14.6399 12.7211 14.843 12.7179 15.0315 12.7122C16.4428 12.6692 17.3334 11.5478 17.3736 10.1365C17.3877 9.64574 17.3971 9.08636 17.3971 8.47003C17.3971 7.85369 17.3877 7.29423 17.3736 6.80352C17.3334 5.39218 16.4428 4.27067 15.0315 4.22777C14.843 4.22203 14.6399 4.21887 14.4212 4.21887C14.2024 4.21887 13.9994 4.22203 13.811 4.22777C12.3997 4.27067 11.5091 5.39218 11.4688 6.80352C11.4547 7.29423 11.4453 7.85361 11.4453 8.47003C11.4453 9.08644 11.4547 9.64574 11.4688 10.1365Z" stroke="#2C2A41" stroke-width="1.9656"/>
<path d="M13.8123 12.7126C12.401 12.6696 11.5104 11.5482 11.4701 10.1369C11.4581 9.7179 11.4495 9.24889 11.4472 8.73707C10.5669 8.78487 9.78993 8.83534 9.11254 8.88514C6.94152 9.04478 5.2589 10.6819 5.07331 12.8508C4.85955 15.3497 4.64453 19.209 4.64453 24.6246C4.64453 30.0401 4.85955 33.8995 5.07331 36.3984C5.2589 38.5673 6.94152 40.2044 9.11254 40.3641C11.8573 40.5658 16.2372 40.7788 22.4999 40.7788C28.7626 40.7788 33.1426 40.5659 35.8873 40.3641C38.0583 40.2044 39.7411 38.5673 39.9266 36.3984C40.1403 33.8995 40.3553 30.0401 40.3553 24.6246C40.3553 19.2091 40.1403 15.3497 39.9266 12.8508C39.7411 10.6819 38.0583 9.04478 35.8873 8.88514C35.2099 8.83534 34.4329 8.78487 33.5527 8.73707C33.5503 9.24889 33.5418 9.7179 33.5298 10.1369C33.4895 11.5482 32.5989 12.6696 31.1876 12.7126C30.9992 12.7183 30.7961 12.7215 30.5774 12.7215C30.3586 12.7215 30.1556 12.7183 29.9672 12.7126C28.5558 12.6696 27.6652 11.5482 27.625 10.1369C27.6113 9.65961 27.602 9.11753 27.6015 8.52115C26.0636 8.4893 24.3653 8.47043 22.4999 8.47043C20.6346 8.47043 18.9362 8.4893 17.3984 8.52115C17.3979 9.11753 17.3885 9.65961 17.3749 10.1369C17.3347 11.5482 16.4441 12.6696 15.0328 12.7126C14.8443 12.7183 14.6412 12.7215 14.4225 12.7215C14.2037 12.7215 14.0007 12.7183 13.8123 12.7126Z" fill="#2C2A41" stroke="#2C2A41" stroke-width="1.9656"/>
<path fill-rule="evenodd" clip-rule="evenodd" d="M29.7858 18.968C30.5624 18.968 31.192 19.5976 31.192 20.3742V30.8711H33.7536C34.5302 30.8711 35.1598 31.5007 35.1598 32.2773C35.1598 33.054 34.5302 33.6836 33.7536 33.6836H25.8179C25.0412 33.6836 24.4116 33.054 24.4116 32.2773C24.4116 31.5007 25.0412 30.8711 25.8179 30.8711H28.3795V24.4668C27.8922 24.6538 27.363 24.7562 26.8099 24.7562H25.8179C25.0412 24.7562 24.4116 24.1266 24.4116 23.35C24.4116 22.5733 25.0412 21.9437 25.8179 21.9437H26.8099C27.6768 21.9437 28.3795 21.241 28.3795 20.3742C28.3795 19.5976 29.0091 18.968 29.7858 18.968Z" fill="white"/>
<path fill-rule="evenodd" clip-rule="evenodd" d="M12.0234 21.9752C12.514 20.2409 14.1074 18.968 16.0017 18.968H17.4897C19.7728 18.968 21.6238 20.8187 21.6238 23.102C21.6238 24.055 21.3013 24.9328 20.7595 25.632C21.5975 26.4302 22.1198 27.5569 22.1198 28.8056V29.3016C22.1198 31.7218 20.1578 33.6836 17.7377 33.6836H15.7537C13.8435 33.6836 12.2223 32.4621 11.6213 30.762C11.3625 30.0298 11.7462 29.2264 12.4785 28.9675C13.2107 28.7087 14.0142 29.0925 14.273 29.8247C14.4892 30.4363 15.0725 30.8711 15.7537 30.8711H17.7377C18.6046 30.8711 19.3073 30.1683 19.3073 29.3016V28.8056C19.3073 27.939 18.6048 27.2363 17.7382 27.236L17.4919 27.2361C17.4914 27.2361 17.4925 27.2361 17.4919 27.2361L16.7457 27.2361C15.969 27.2361 15.3394 26.6065 15.3394 25.8299C15.3394 25.0532 15.969 24.4236 16.7457 24.4236H17.4892C17.4889 24.4236 17.4895 24.4236 17.4892 24.4236C18.2187 24.4231 18.8113 23.8316 18.8113 23.102C18.8113 22.3722 18.2197 21.7805 17.4897 21.7805H16.0017C15.3988 21.7805 14.8868 22.1854 14.7297 22.7408C14.5183 23.4881 13.7411 23.9226 12.9938 23.7112C12.2464 23.4998 11.812 22.7226 12.0234 21.9752Z" fill="white"/>
</svg>
