<svg width="25" height="25" viewBox="0 0 25 25" fill="none" xmlns="http://www.w3.org/2000/svg"><path d="M23.795 4.68a3.416 3.416 0 00-3.155-3.156c-1.637-.133-4.232-.272-7.93-.272-3.698 0-6.293.14-7.93.272A3.416 3.416 0 001.626 4.68c-.133 1.636-.272 4.231-.272 7.93 0 3.697.14 6.292.272 7.929a3.416 3.416 0 003.156 3.155c1.636.133 4.231.272 7.93.272 3.697 0 6.292-.139 7.929-.272a3.416 3.416 0 003.155-3.155c.133-1.637.272-4.232.272-7.93 0-3.698-.139-6.293-.272-7.93z" fill="#7612FA" stroke="#7612FA" stroke-width="1.747" stroke-linejoin="round"></path><path fill-rule="evenodd" clip-rule="evenodd" d="M4.626 9.756c0-.525.426-.95.951-.95h13.79a.951.951 0 010 1.901H5.577a.951.951 0 01-.95-.95zM4.626 15.462c0-.525.426-.95.951-.95h13.79a.951.951 0 010 1.901H5.577a.951.951 0 01-.95-.95z" fill="#fff"></path><path fill-rule="evenodd" clip-rule="evenodd" d="M15.3 20.69a.951.951 0 01-.864-1.032l1.226-13.79a.951.951 0 111.894.168l-1.225 13.79a.951.951 0 01-1.032.863zM8.25 20.69a.951.951 0 01-.862-1.032l1.226-13.79a.951.951 0 011.894.168l-1.226 13.79a.951.951 0 01-1.031.863z" fill="#fff"></path></svg>