<svg width="45" height="46" viewBox="0 0 45 46" fill="none" xmlns="http://www.w3.org/2000/svg">
<path d="M22.5083 4.84259C28.4503 4.84259 32.6163 5.06506 35.2388 5.27814L35.4741 5.30255C37.8919 5.60655 39.7306 7.51554 39.9302 9.96954L40.0093 11.0262C40.1948 13.6616 40.3657 17.5007 40.3657 22.7C40.3657 27.8993 40.1948 31.7384 40.0093 34.3738L39.9302 35.4305C39.7306 37.8845 37.8919 39.7935 35.4741 40.0975L35.2388 40.1219C32.6163 40.335 28.4503 40.5574 22.5083 40.5574C17.309 40.5574 13.4699 40.3865 10.8345 40.201L9.77783 40.1219C7.32382 39.9223 5.41485 38.0836 5.11084 35.6658L5.08643 35.4305C4.87336 32.808 4.65088 28.6421 4.65088 22.7C4.65088 16.758 4.87335 12.5921 5.08643 9.96954L5.11084 9.73419C5.41483 7.3164 7.32382 5.47769 9.77783 5.27814L10.8345 5.19904C13.4699 5.01356 17.309 4.84259 22.5083 4.84259Z" fill="#2C2A41" stroke="#2C2A41" stroke-width="1.9656" stroke-linecap="round" stroke-linejoin="round"/>
<path d="M29.0166 30.6606C29.0354 31.431 29.4547 32.1319 30.2149 32.258C30.525 32.3094 30.9014 32.345 31.3492 32.345C31.7969 32.345 32.1733 32.3094 32.4835 32.258C33.2437 32.1319 33.663 31.431 33.6818 30.6606C33.7154 29.2848 33.7599 26.7059 33.7599 22.7021C33.7599 18.6983 33.7154 16.1194 33.6818 14.7436C33.663 13.9732 33.2437 13.2724 32.4835 13.1463C32.1734 13.0949 31.7969 13.0593 31.3492 13.0593C30.9014 13.0593 30.525 13.0949 30.2149 13.1463C29.4547 13.2724 29.0354 13.9732 29.0166 14.7436C28.983 16.1194 28.9385 18.6983 28.9385 22.7021C28.9385 26.7059 28.983 29.2848 29.0166 30.6606Z" fill="white"/>
<path d="M20.1573 30.5922C20.1823 31.4736 20.7287 32.2296 21.6069 32.3073C21.8673 32.3304 22.1667 32.345 22.5074 32.345C22.8481 32.345 23.1475 32.3304 23.4079 32.3073C24.2861 32.2296 24.8325 31.4736 24.8574 30.5922C24.8872 29.5398 24.9181 27.8775 24.9181 25.5146C24.9181 23.1517 24.8872 21.4895 24.8574 20.437C24.8325 19.5557 24.2861 18.7997 23.4079 18.722C23.1475 18.6989 22.8481 18.6843 22.5074 18.6843C22.1667 18.6843 21.8673 18.6989 21.6069 18.722C20.7287 18.7997 20.1823 19.5557 20.1573 20.437C20.1276 21.4895 20.0967 23.1517 20.0967 25.5146C20.0967 27.8775 20.1276 29.5398 20.1573 30.5922Z" fill="white"/>
<path d="M11.288 30.5023C11.3178 31.4962 12.0162 32.2922 13.01 32.3283C13.2097 32.3355 13.4291 32.3398 13.669 32.3398C13.9089 32.3398 14.1283 32.3355 14.328 32.3283C15.3219 32.2922 16.0203 31.4962 16.0501 30.5023C16.067 29.9357 16.0797 29.2136 16.0797 28.3219C16.0797 27.4303 16.067 26.7082 16.0501 26.1416C16.0203 25.1477 15.3219 24.3516 14.328 24.3156C14.1283 24.3083 13.9089 24.3041 13.669 24.3041C13.4291 24.3041 13.2097 24.3083 13.01 24.3156C12.0162 24.3516 11.3178 25.1477 11.288 26.1416C11.271 26.7082 11.2583 27.4303 11.2583 28.3219C11.2583 29.2136 11.271 29.9357 11.288 30.5023Z" fill="white"/>
</svg>
