<svg width="23" height="26" viewBox="0 0 23 26" fill="none" xmlns="http://www.w3.org/2000/svg"><path d="M21.24 8.837s0 0 0 0l-.796.363c.135.295.195.616.202.94l.593-1.303zm0 0c.193.424.27.867.28 1.285v0c.018.897.029 1.887.029 2.976 0 3.818-.135 6.429-.264 8.045a3.307 3.307 0 01-3.039 3.06c-1.453.124-3.661.251-6.624.251-2.964 0-5.172-.127-6.625-.251a3.307 3.307 0 01-3.04-3.06c-.127-1.616-.263-4.227-.263-8.046 0-3.818.136-6.429.264-8.045a3.307 3.307 0 013.039-3.06l.06.695-.06-.695c1.453-.124 3.661-.251 6.625-.251.522 0 1.021.004 1.497.01l-.014.874.014-.873c.408.006.843.079 1.261.266.825.369 2.441 1.225 4.054 2.838l-.618.617.618-.617c1.567 1.567 2.42 3.137 2.805 3.98z" fill="#1E78F8" stroke="#1E78F8" stroke-width="1.747" stroke-linejoin="round"></path><path fill-rule="evenodd" clip-rule="evenodd" d="M5.545 8.73c0-.724.587-1.311 1.31-1.311h4.766a1.31 1.31 0 010 2.62H6.856a1.31 1.31 0 01-1.31-1.31zm0 4.804c0-.724.587-1.31 1.31-1.31h9.53a1.31 1.31 0 010 2.62h-9.53a1.31 1.31 0 01-1.31-1.31zm0 4.805c0-.724.587-1.31 1.31-1.31h9.53a1.31 1.31 0 010 2.62h-9.53a1.31 1.31 0 01-1.31-1.31z" fill="#fff"></path></svg>