<svg width="45" height="46" viewBox="0 0 45 46" fill="none" xmlns="http://www.w3.org/2000/svg">
<path d="M22.5005 4.84259C28.4425 4.84259 32.6084 5.06506 35.231 5.27814L35.4663 5.30255C37.8841 5.60655 39.7228 7.51553 39.9224 9.96954L40.0015 11.0262C40.187 13.6616 40.3579 17.5007 40.3579 22.7C40.3579 27.8993 40.187 31.7384 40.0015 34.3738L39.9224 35.4305C39.7228 37.8845 37.8841 39.7935 35.4663 40.0975L35.231 40.1219C32.6084 40.335 28.4425 40.5574 22.5005 40.5574C17.3012 40.5574 13.4621 40.3865 10.8267 40.201L9.77002 40.1219C7.31601 39.9223 5.40703 38.0836 5.10303 35.6658L5.07861 35.4305C4.86554 32.808 4.64307 28.642 4.64307 22.7C4.64307 16.758 4.86554 12.5921 5.07861 9.96954L5.10303 9.73419C5.40702 7.3164 7.31601 5.47768 9.77002 5.27814L10.8267 5.19904C13.4621 5.01356 17.3012 4.84259 22.5005 4.84259Z" fill="#FF6221" stroke="#FF6221" stroke-width="1.9656" stroke-linejoin="round"/>
<path d="M33.5604 32.2986C33.4205 33.1982 32.644 33.7746 31.7341 33.809C30.1164 33.8704 27.1223 33.9503 22.501 33.9503C17.8796 33.9503 14.8855 33.8704 13.2679 33.809C12.358 33.7746 11.5814 33.1982 11.4416 32.2986C11.3378 31.6306 11.251 30.7171 11.251 29.5307C11.251 28.3442 11.3378 27.4307 11.4416 26.7628C11.5814 25.8631 12.358 25.2868 13.2679 25.2523C14.8855 25.1909 17.8796 25.111 22.501 25.111C27.1223 25.111 30.1164 25.1909 31.7341 25.2523C32.644 25.2868 33.4205 25.8631 33.5604 26.7628C33.6641 27.4307 33.751 28.3442 33.751 29.5307C33.751 30.7171 33.6641 31.6306 33.5604 32.2986Z" fill="white"/>
<rect x="11.064" y="11.4498" width="8.4375" height="8.4375" rx="4.21875" fill="white"/>
</svg>
