<svg width="45" height="46" viewBox="0 0 45 46" fill="none" xmlns="http://www.w3.org/2000/svg">
<path d="M22.5 4.84259C28.442 4.84259 32.608 5.06506 35.2305 5.27814L35.4658 5.30255C37.8836 5.60655 39.7223 7.51553 39.9219 9.96954L40.001 11.0262C40.1865 13.6616 40.3574 17.5007 40.3574 22.7C40.3574 27.8993 40.1865 31.7384 40.001 34.3738L39.9219 35.4305C39.7223 37.8845 37.8836 39.7935 35.4658 40.0975L35.2305 40.1219C32.608 40.335 28.442 40.5574 22.5 40.5574C17.3007 40.5574 13.4616 40.3865 10.8262 40.201L9.76953 40.1219C7.31553 39.9223 5.40654 38.0836 5.10254 35.6658L5.07812 35.4305C4.86505 32.808 4.64258 28.642 4.64258 22.7C4.64258 16.758 4.86505 12.5921 5.07812 9.96954L5.10254 9.73419C5.40653 7.3164 7.31552 5.47768 9.76953 5.27814L10.8262 5.19904C13.4616 5.01356 17.3007 4.84259 22.5 4.84259Z" fill="#F00250" stroke="#F00250" stroke-width="1.9656" stroke-linejoin="round"/>
<path d="M22.8685 14.726C22.7973 15.6216 22.0326 16.1884 21.1346 16.2142C20.1395 16.2428 18.6109 16.2714 16.4725 16.2714C14.3341 16.2714 12.8055 16.2428 11.8104 16.2142C10.9124 16.1884 10.1477 15.6216 10.0765 14.726C10.0565 14.474 10.0439 14.1862 10.0439 13.8607C10.0439 13.5353 10.0565 13.2474 10.0765 12.9954C10.1477 12.0999 10.9124 11.5331 11.8104 11.5072C12.8055 11.4786 14.3341 11.45 16.4725 11.45C18.6109 11.45 20.1395 11.4786 21.1346 11.5072C22.0326 11.5331 22.7973 12.0999 22.8685 12.9954C22.8886 13.2474 22.9011 13.5353 22.9011 13.8607C22.9011 14.1862 22.8886 14.474 22.8685 14.726Z" fill="white"/>
<path d="M24.4755 30.6725C24.4043 29.7769 23.6395 29.2102 22.7415 29.1843C21.7465 29.1557 20.2178 29.1271 18.0795 29.1271C15.9411 29.1271 14.4124 29.1557 13.4174 29.1843C12.5194 29.2102 11.7546 29.7769 11.6834 30.6725C11.6634 30.9245 11.6509 31.2123 11.6509 31.5378C11.6509 31.8632 11.6634 32.1511 11.6834 32.4031C11.7546 33.2987 12.5194 33.8654 13.4174 33.8913C14.4124 33.9199 15.9411 33.9485 18.0795 33.9485C20.2178 33.9485 21.7465 33.9199 22.7415 33.8913C23.6395 33.8654 24.4043 33.2987 24.4755 32.4031C24.4955 32.1511 24.508 31.8632 24.508 31.5378C24.508 31.2123 24.4955 30.9245 24.4755 30.6725Z" fill="white"/>
<path d="M34.9208 23.5645C34.8496 24.4601 34.0848 25.0269 33.1868 25.0527C32.1918 25.0813 30.6631 25.1099 28.5248 25.1099C26.3864 25.1099 19.2327 25.0813 18.2377 25.0527C17.3397 25.0269 16.5749 24.4601 16.5037 23.5645C16.4837 23.3125 16.4712 23.0247 16.4712 22.6992C16.4712 22.3738 16.4837 22.0859 16.5037 21.8339C16.5749 20.9384 17.3397 20.3716 18.2377 20.3457C19.2327 20.3171 26.3864 20.2885 28.5248 20.2885C30.6631 20.2885 32.1918 20.3171 33.1868 20.3457C34.0848 20.3716 34.8496 20.9384 34.9208 21.8339C34.9408 22.0859 34.9533 22.3738 34.9533 22.6992C34.9533 23.0247 34.9408 23.3125 34.9208 23.5645Z" fill="white"/>
</svg>
