<svg width="25" height="26" viewBox="0 0 25 26" fill="none" xmlns="http://www.w3.org/2000/svg"><path d="M20.137 23.312a2.542 2.542 0 002.355-2.356c.131-1.611.27-4.182.27-7.858 0-3.677-.139-6.248-.27-7.86a2.542 2.542 0 00-2.355-2.355c-1.611-.13-4.183-.269-7.859-.269s-6.247.138-7.859.27a2.542 2.542 0 00-2.355 2.355c-.13 1.611-.269 4.182-.269 7.859 0 3.676.138 6.247.27 7.858a2.542 2.542 0 002.354 2.356c1.612.13 4.183.269 7.86.269 3.675 0 6.247-.139 7.858-.27z" fill="#7612FA"></path><path fill-rule="evenodd" clip-rule="evenodd" d="M4.278 1.142c1.662-.135 4.28-.275 8-.275 3.72 0 6.339.14 8 .275a4.29 4.29 0 013.956 3.955c.135 1.662.275 4.28.275 8 0 3.72-.14 6.339-.275 8a4.29 4.29 0 01-3.955 3.956c-1.662.135-4.28.275-8 .275-3.72 0-6.339-.14-8-.275a4.29 4.29 0 01-3.956-3.955c-.135-1.662-.275-4.28-.275-8 0-3.72.14-6.339.275-8l1.741.14-1.741-.14a4.29 4.29 0 013.955-3.956z" fill="#7612FA"></path><path d="M9.755 6.227c.558.087.917.57.938 1.135.038 1.005.088 2.865.088 5.736 0 2.87-.05 4.73-.088 5.735-.021.566-.38 1.048-.938 1.135-.415.064-.983.118-1.72.118s-1.304-.054-1.72-.118c-.558-.087-.916-.57-.938-1.135a154.728 154.728 0 01-.087-5.735c0-2.871.05-4.731.087-5.736.022-.566.38-1.048.939-1.135.415-.064.982-.118 1.72-.118.736 0 1.304.054 1.719.118zM14.952 6.16c-.63.046-1.089.545-1.12 1.176a51.126 51.126 0 00-.055 2.517c0 1.11.026 1.938.055 2.516.031.63.49 1.13 1.12 1.176.398.029.918.052 1.57.052.653 0 1.173-.023 1.571-.052.63-.046 1.09-.545 1.12-1.176.03-.578.055-1.406.055-2.516 0-1.111-.026-1.94-.054-2.517-.032-.63-.49-1.13-1.12-1.176-.4-.029-.919-.051-1.571-.051-.653 0-1.173.022-1.571.051z" fill="#fff"></path></svg>