<svg width="45" height="46" viewBox="0 0 45 46" fill="none" xmlns="http://www.w3.org/2000/svg">
<path d="M22.4995 5.4426C28.4415 5.4426 32.6075 5.66507 35.23 5.87814L35.4653 5.90256C37.8831 6.20656 39.7218 8.11554 39.9214 10.5695L40.0005 11.6262C40.186 14.2616 40.3569 18.1007 40.3569 23.3C40.3569 28.4993 40.186 32.3384 40.0005 34.9738L39.9214 36.0305C39.7218 38.4845 37.8831 40.3935 35.4653 40.6975L35.23 40.7219C32.6075 40.935 28.4415 41.1574 22.4995 41.1574C17.3002 41.1574 13.4611 40.9865 10.8257 40.801L9.76904 40.7219C7.31504 40.5224 5.40605 38.6836 5.10205 36.2658L5.07764 36.0305C4.86456 33.408 4.64209 29.2421 4.64209 23.3C4.64209 17.358 4.86456 13.1921 5.07764 10.5695L5.10205 10.3342C5.40605 7.91641 7.31503 6.07769 9.76904 5.87814L10.8257 5.79904C13.4611 5.61356 17.3002 5.4426 22.4995 5.4426Z" fill="#03AACE" stroke="#03AACE" stroke-width="1.9656" stroke-linejoin="round"/>
<rect x="9.84375" y="29.7408" width="4.82143" height="4.82143" rx="0.9828" fill="white"/>
<rect x="9.84375" y="12.05" width="4.82143" height="4.82143" rx="0.9828" fill="white"/>
<rect x="9.84375" y="20.8813" width="4.82143" height="4.82143" rx="0.9828" fill="white"/>
<path d="M35.0615 33.3964C34.9464 34.0917 34.4469 34.4496 33.9117 34.4656C32.7773 34.4995 30.4584 34.5501 26.7188 34.5501C22.9791 34.5501 20.6602 34.4995 19.5258 34.4656C18.9906 34.4496 18.4912 34.0917 18.376 33.3964C18.3213 33.0658 18.2812 32.6512 18.2812 32.1454C18.2812 31.6397 18.3213 31.2251 18.376 30.8945C18.4912 30.1992 18.9906 29.8413 19.5258 29.8253C20.6602 29.7913 22.9791 29.7408 26.7188 29.7408C30.4584 29.7408 32.7773 29.7913 33.9117 29.8253C34.4469 29.8413 34.9464 30.1992 35.0615 30.8945C35.1162 31.2251 35.1562 31.6397 35.1562 32.1454C35.1562 32.6512 35.1162 33.0658 35.0615 33.3964Z" fill="white"/>
<path d="M35.0615 15.7056C34.9464 16.401 34.4469 16.7589 33.9117 16.7748C32.7773 16.8088 30.4584 16.8594 26.7188 16.8594C22.9791 16.8594 20.6602 16.8088 19.5258 16.7748C18.9906 16.7589 18.4912 16.401 18.376 15.7056C18.3213 15.3751 18.2812 14.9605 18.2812 14.4547C18.2812 13.9489 18.3213 13.5344 18.376 13.2038C18.4912 12.5084 18.9906 12.1505 19.5258 12.1346C20.6602 12.1006 22.9791 12.05 26.7188 12.05C30.4584 12.05 32.7773 12.1006 33.9117 12.1346C34.4469 12.1505 34.9464 12.5084 35.0615 13.2038C35.1162 13.5344 35.1562 13.9489 35.1562 14.4547C35.1562 14.9605 35.1162 15.3751 35.0615 15.7056Z" fill="white"/>
<path d="M35.0615 24.5369C34.9464 25.2323 34.4469 25.5902 33.9117 25.6061C32.7773 25.6401 30.4584 25.6907 26.7188 25.6907C22.9791 25.6907 20.6602 25.6401 19.5258 25.6061C18.9906 25.5902 18.4912 25.2323 18.376 24.5369C18.3213 24.2064 18.2812 23.7918 18.2812 23.286C18.2812 22.7802 18.3213 22.3657 18.376 22.0351C18.4912 21.3397 18.9906 20.9818 19.5258 20.9659C20.6602 20.9319 22.9791 20.8813 26.7188 20.8813C30.4584 20.8813 32.7773 20.9319 33.9117 20.9659C34.4469 20.9818 34.9464 21.3397 35.0615 22.0351C35.1162 22.3657 35.1562 22.7802 35.1562 23.286C35.1562 23.7918 35.1162 24.2064 35.0615 24.5369Z" fill="white"/>
</svg>
