<svg width="45" height="45" viewBox="0 0 45 45" fill="none" xmlns="http://www.w3.org/2000/svg">
<path d="M9.84952 38.9419C7.79615 38.775 6.22493 37.2038 6.0581 35.1505C5.84733 32.5564 5.625 28.4175 5.625 22.5C5.625 16.5825 5.84732 12.4436 6.05809 9.84952C6.22492 7.79615 7.79615 6.22493 9.84951 6.0581C12.4436 5.84733 16.5825 5.625 22.5 5.625C28.4175 5.625 32.5564 5.84732 35.1505 6.05809C37.2038 6.22493 38.7751 7.79615 38.9419 9.84951C39.1526 12.4436 39.375 16.5825 39.375 22.5C39.375 28.4175 39.1526 32.5564 38.9419 35.1505C38.7751 37.2038 37.2038 38.775 35.1505 38.9419C32.5564 39.1526 28.4175 39.375 22.5 39.375C16.5825 39.375 12.4436 39.1526 9.84952 38.9419Z" fill="white" stroke="#21C828" stroke-width="3.9312" stroke-linejoin="round"/>
<path d="M16.875 39.2466V5.74591" stroke="#21C828" stroke-width="3.9312" stroke-linejoin="round"/>
<path d="M5.82568 16.875H39.1739" stroke="#21C828" stroke-width="3.9312" stroke-linecap="round" stroke-linejoin="round"/>
<path d="M5.82568 28.1249H39.1739" stroke="#21C828" stroke-width="3.9312" stroke-linecap="round" stroke-linejoin="round"/>
</svg>
