<svg width="29" height="29" viewBox="0 0 32 32" fill="none" xmlns="http://www.w3.org/2000/svg"><path d="M25.64 2.296l-.089 1.088.089-1.088c-2.046-.166-5.29-.34-9.912-.34-4.623 0-7.866.174-9.912.34A4.27 4.27 0 001.872 6.24c-.167 2.046-.34 5.29-.34 9.912 0 4.622.173 7.866.34 9.912a4.27 4.27 0 003.944 3.944c2.046.166 5.29.34 9.912.34 4.622 0 7.866-.174 9.912-.34a4.27 4.27 0 003.944-3.944c.166-2.046.34-5.29.34-9.912 0-4.622-.174-7.866-.34-9.912a4.27 4.27 0 00-3.944-3.944z" fill="gold" stroke="gold" stroke-width="2.184" stroke-linejoin="round"></path><path d="M11.698 8.621s-6.674 6.941-4.33 9.04c2.56 2.29 8.3-5.45 10.624-2.8 1.983 2.26-3.862 6.408-1.872 8.224 2.22 2.026 6.213-4.602 8.558-2.504" stroke="#000" stroke-width="2.905" stroke-linecap="round" stroke-linejoin="round"></path></svg>