<?xml version="1.0" encoding="UTF-8"?>
<svg fill="none" viewBox="0 0 292 245" xmlns="http://www.w3.org/2000/svg">
<path d="m219.09 36.554c0.147-3.4099-6.497-6.4646-14.839-6.823s-15.224 2.1153-15.37 5.5251c-0.147 3.4099 6.497 6.4646 14.839 6.823s15.224-2.1153 15.37-5.5251z" fill="#5DD470"/>
<path d="m203.71 42.079c5.653 0.2475 11.177-1.7375 15.38-5.5267l-30.205-1.298c3.856 4.1303 9.18 6.5811 14.825 6.8247z" fill="#46B252"/>
<path d="m218.78 97.552c3.329-0.7509 4.539-7.9626 2.702-16.108-1.837-8.1452-6.025-14.14-9.355-13.389-3.329 0.7509-4.539 7.9627-2.702 16.108 1.837 8.1453 6.026 14.14 9.355 13.389z" fill="#5DD470"/>
<path d="m209.43 84.178c1.236 5.5214 4.597 10.334 9.355 13.396l-6.653-29.503c-2.981 4.8058-3.951 10.591-2.702 16.106z" fill="#46B252"/>
<path d="m130.85 30.858c3.332-0.7382 4.569-7.9452 2.764-16.098-1.806-8.1522-5.971-14.163-9.304-13.424-3.332 0.73813-4.569 7.9452-2.763 16.097 1.805 8.1522 5.971 14.163 9.303 13.424z" fill="#5DD470"/>
<path d="m133.61 14.772c-1.217-5.5233-4.557-10.347-9.299-13.429l6.531 29.527c2.999-4.7951 3.993-10.577 2.768-16.098z" fill="#46B252"/>
<path d="m231.09 73.908-39.046-17.306-2.449-1.1429c-0.139-0.0657-0.251-0.1766-0.319-0.3145-0.067-0.1378-0.086-0.2945-0.053-0.4443 0.034-0.1499 0.117-0.284 0.236-0.3805 0.119-0.0964 0.268-0.1495 0.421-0.1505h33.732c1.013 0 1.985-0.4026 2.701-1.119 0.717-0.7165 1.119-1.6883 1.119-2.7015 0-1.0133-0.402-1.9851-1.119-2.7015-0.716-0.7165-1.688-1.119-2.701-1.119h-44.23c-0.225 1e-4 -0.444-0.0734-0.623-0.2095s-0.308-0.3271-0.369-0.5438c-0.06-0.2168-0.047-0.4473 0.036-0.6563 0.083-0.2089 0.233-0.3848 0.426-0.5007l1.82-1.0857 26.009-16.507c0.239-0.1506 0.446-0.3468 0.609-0.5775 0.163-0.2306 0.28-0.4912 0.342-0.7667 0.063-0.2756 0.07-0.5607 0.023-0.8392-0.048-0.2785-0.15-0.5449-0.301-0.784-0.15-0.2391-0.347-0.4461-0.577-0.6093-0.231-0.1633-0.491-0.2795-0.767-0.342-0.275-0.0626-0.561-0.0702-0.839-0.0225-0.279 0.0476-0.545 0.1497-0.784 0.3003l-25.707 16.327s-4.408 2.449-5.078 2.8082c-5.028 2.449-9.363 3.9919-15.6 3.9919h-44.017c-0.221-6e-3 -0.435-0.0832-0.609-0.2201-0.173-0.1368-0.298-0.3261-0.356-0.5396s-0.045-0.44 0.036-0.6458c0.081-0.2057 0.226-0.3799 0.414-0.4966l1.813-1.0857 26.008-16.506c0.446-0.3175 0.753-0.7937 0.858-1.3306s1e-3 -1.0937-0.292-1.5559-0.751-0.7946-1.282-0.9289c-0.53-0.1342-1.092-0.0601-1.569 0.2071l-25.715 16.302s-4.417 2.449-5.078 2.8082c-5.029 2.449-9.3634 3.9919-15.608 3.9919h-57.267c-1.0133 0-1.9851 0.4025-2.7015 1.119-0.7165 0.7165-1.119 1.6883-1.119 2.7015 0 1.0133 0.4025 1.9851 1.119 2.7015 0.7164 0.7165 1.6882 1.119 2.7015 1.119h84.222 5.078c3.363 0 8.033 1.8368 10.425 8.9799 0.985 2.9771 1.471 6.097 1.436 9.2328-0.014 0.2692 0.025 0.5385 0.115 0.7926s0.229 0.488 0.41 0.6882c0.18 0.2002 0.398 0.3628 0.642 0.4785 0.243 0.1158 0.507 0.1823 0.776 0.1959h0.107c0.526-0.0014 1.032-0.2044 1.413-0.5674 0.381-0.3629 0.608-0.8581 0.636-1.3837 0.067-3.6263-0.485-7.2375-1.633-10.678-0.903-2.8292-2.354-5.4532-4.27-7.7226h36.287c3.436 0.022 6.829 0.7645 9.959 2.1796l3.266 1.4449 45.185 20.025c0.258 0.1225 0.538 0.192 0.823 0.2045s0.57-0.0323 0.838-0.1317 0.513-0.2515 0.721-0.4472 0.375-0.4311 0.49-0.6923c0.116-0.2611 0.178-0.5428 0.183-0.8284s-0.047-0.5693-0.154-0.8343c-0.106-0.2651-0.265-0.5061-0.466-0.7089s-0.441-0.3633-0.705-0.472h-0.032z" fill="#A86456"/>
<path d="m137.4 244.72c39.55 0 71.61-38.673 71.61-86.378s-32.06-86.378-71.61-86.378c-39.549 0-71.61 38.673-71.61 86.378s32.061 86.378 71.61 86.378z" fill="#FFD251"/>
<path d="m192.59 96.104h-110.39c-5.4463 0-9.8614 4.4135-9.8614 9.8575s4.4151 9.857 9.8614 9.857h110.39c5.446 0 9.861-4.413 9.861-9.857s-4.415-9.8575-9.861-9.8575z" fill="#FFB127"/>
<path d="m205.17 128.67h-135.54c-5.4464 0-9.8615 4.413-9.8615 9.857s4.4151 9.858 9.8615 9.858h135.54c5.447 0 9.862-4.414 9.862-9.858s-4.415-9.857-9.862-9.857z" fill="#FFB127"/>
<path d="m205.17 163.85h-135.54c-5.4464 0-9.8615 4.413-9.8615 9.857s4.4151 9.857 9.8615 9.857h135.54c5.447 0 9.862-4.413 9.862-9.857s-4.415-9.857-9.862-9.857z" fill="#FFB127"/>
<path d="m192.59 199.05h-110.39c-5.4463 0-9.8614 4.413-9.8614 9.857s4.4151 9.858 9.8614 9.858h110.39c5.446 0 9.861-4.414 9.861-9.858s-4.415-9.857-9.861-9.857z" fill="#FFB127"/>
<path d="m171.56 71.296h-68.303c-3.8912 0-7.0454 3.1542-7.0454 7.0451v0.0081c0 3.8909 3.1542 7.0451 7.0454 7.0451h68.303c3.891 0 7.045-3.1542 7.045-7.0451v-0.0081c0-3.8909-3.154-7.0451-7.045-7.0451z" fill="#FFB127"/>
<path d="m171.56 230.62h-68.303c-3.8912 0-7.0454 3.154-7.0454 7.045v8e-3c0 3.891 3.1542 7.045 7.0454 7.045h68.303c3.891 0 7.045-3.154 7.045-7.045v-8e-3c0-3.891-3.154-7.045-7.045-7.045z" fill="#FFB127"/>
<path d="m239.26 219.36c-0.055 4e-3 -0.109-5e-3 -0.16-0.024-0.052-0.019-0.098-0.049-0.137-0.088-0.038-0.038-0.068-0.085-0.088-0.136-0.019-0.051-0.027-0.106-0.023-0.16v-3.674c0-0.108 0.043-0.212 0.119-0.288 0.077-0.077 0.181-0.12 0.289-0.12s0.212 0.043 0.289 0.12c0.076 0.076 0.119 0.18 0.119 0.288v3.674c4e-3 0.054-4e-3 0.109-0.024 0.16-0.019 0.051-0.049 0.098-0.087 0.136-0.039 0.039-0.086 0.069-0.137 0.088s-0.106 0.028-0.16 0.024z" fill="#5C626D"/>
<path d="m245.46 206.71c0.322-0.321 0.577-0.703 0.751-1.123 0.174-0.421 0.264-0.871 0.264-1.326s-0.09-0.905-0.264-1.325-0.429-0.802-0.751-1.124c-0.321-0.321-0.703-0.576-1.123-0.751-0.421-0.174-0.871-0.263-1.326-0.263s-0.905 0.089-1.325 0.263c-0.42 0.175-0.802 0.43-1.124 0.751-0.395 0.41-0.677 0.917-0.816 1.47l-2.123 6.449 6.531-2.123c0.495-0.202 0.94-0.508 1.306-0.898z" fill="#C6CBCD"/>
<path d="m241.3 202.06c-0.016-0.912-0.38-1.783-1.017-2.436-0.638-0.652-1.5-1.037-2.412-1.074-0.451-4e-3 -0.899 0.081-1.317 0.252s-0.798 0.423-1.117 0.743c-0.319 0.319-0.572 0.698-0.742 1.116-0.171 0.418-0.257 0.866-0.253 1.318 0.019 0.593 0.158 1.176 0.409 1.714l3.02 6.041 3.102-6.123c0.225-0.485 0.337-1.016 0.327-1.551z" fill="#E0E0E0"/>
<path d="m236.48 209h4.898c1.3 0 2.545 0.516 3.464 1.435 0.918 0.918 1.435 2.164 1.435 3.463s-0.517 2.545-1.435 3.464c-0.919 0.918-2.164 1.434-3.464 1.434h-4.898c-1.299 0-2.545-0.516-3.463-1.434-0.919-0.919-1.435-2.165-1.435-3.464s0.516-2.545 1.435-3.463c0.918-0.919 2.164-1.435 3.463-1.435z" fill="#354153"/>
<path d="m236.48 209c-0.672 0.018-1.335 0.156-1.959 0.408v9.086c0.624 0.253 1.287 0.391 1.959 0.408h0.654v-9.877l-0.654-0.025z" fill="#FFD251"/>
<path d="m241.38 209h-0.653v9.878h0.653c0.673-0.018 1.336-0.156 1.96-0.408v-9.062c-0.624-0.252-1.287-0.39-1.96-0.408z" fill="#FFD251"/>
<path d="m228.07 213.9h3.674c0.033-4e-3 0.066-1e-3 0.098 0.01 0.031 0.011 0.06 0.029 0.084 0.053 0.023 0.023 0.041 0.052 0.052 0.083 0.011 0.032 0.014 0.065 0.011 0.099v0.081c3e-3 0.033 0 0.067-0.011 0.098-0.011 0.032-0.029 0.06-0.052 0.084-0.024 0.024-0.053 0.042-0.084 0.052-0.032 0.011-0.065 0.015-0.098 0.011h-3.674c-0.033 4e-3 -0.067 0-0.098-0.011-0.032-0.01-0.06-0.028-0.084-0.052-0.023-0.024-0.041-0.052-0.052-0.084-0.011-0.031-0.015-0.065-0.011-0.098v-0.081c4e-3 -0.064 0.031-0.124 0.076-0.169s0.105-0.073 0.169-0.076z" fill="#C6CBCD"/>
<path d="m232.56 213.08c0.857 0 1.551-0.694 1.551-1.551s-0.694-1.551-1.551-1.551-1.551 0.694-1.551 1.551 0.694 1.551 1.551 1.551z" fill="#fff"/>
<mask id="c" x="231" y="209" width="4" height="5" maskUnits="userSpaceOnUse">
<path d="m232.56 213.08c0.857 0 1.551-0.694 1.551-1.551s-0.694-1.551-1.551-1.551-1.551 0.694-1.551 1.551 0.694 1.551 1.551 1.551z" fill="#fff"/>
</mask>
<g mask="url(#c)">
<path d="m231.58 212.51c0.721 0 1.306-0.585 1.306-1.306 0-0.722-0.585-1.306-1.306-1.306-0.722 0-1.307 0.584-1.307 1.306 0 0.721 0.585 1.306 1.307 1.306z" fill="#5C626D"/>
</g>
<path d="m240.99 78.707c8.176-1.6961 14.242-5.7801 13.548-9.1219-0.693-3.3419-7.883-4.676-16.059-2.9799-8.175 1.6961-14.241 5.7802-13.548 9.122s7.883 4.6759 16.059 2.9798z" fill="#5DD470"/>
<path d="m240.99 78.692c5.54-1.1404 10.408-4.4162 13.551-9.1186l-29.609 6.1471c4.754 3.0627 10.523 4.1302 16.058 2.9715z" fill="#46B252"/>
<path d="m258.59 168.76h16.809c4.199 4e-3 8.225 1.674 11.194 4.643s4.639 6.995 4.643 11.194c-2e-3 4.2-1.671 8.226-4.641 11.196-2.969 2.97-6.996 4.639-11.196 4.641h-16.809c-4.199-2e-3 -8.226-1.671-11.196-4.641-2.969-2.97-4.639-6.996-4.641-11.196-1e-3 -2.08 0.408-4.14 1.204-6.062 0.795-1.922 1.962-3.668 3.432-5.139 1.471-1.471 3.218-2.637 5.139-3.433 1.922-0.795 3.982-1.204 6.062-1.203z" fill="#5AAEFF"/>
<path d="m264.19 193.18c-1.681 3.356-3.59 6.594-5.714 9.69-2.346 3.531-5.177 6.716-8.408 9.461 0 0 1.632-1.486 4.334-8.629 1.306-3.477 2.148-7.111 2.507-10.808l7.281 0.286z" fill="#5AAEFF"/>
<path d="m267 192.25c4.229 0 7.657-3.428 7.657-7.657s-3.428-7.658-7.657-7.658-7.658 3.429-7.658 7.658 3.429 7.657 7.658 7.657z" fill="#FFD251"/>
<path d="m264.08 184.2c0.564-6e-3 1.014-0.69 1.006-1.528-9e-3 -0.839-0.472-1.514-1.036-1.509-0.563 6e-3 -1.013 0.69-1.005 1.529 8e-3 0.838 0.472 1.513 1.035 1.508z" fill="#354153"/>
<path d="m269.88 184.14c0.564-5e-3 1.014-0.69 1.006-1.528-8e-3 -0.839-0.472-1.514-1.035-1.509-0.564 6e-3 -1.014 0.69-1.006 1.529 8e-3 0.838 0.472 1.514 1.035 1.508z" fill="#354153"/>
<path d="m269.18 189.23c-1.242 0.515-2.626 0.576-3.909 0.171-1.283-0.404-2.382-1.249-3.103-2.384-0.038-0.063-0.051-0.137-0.037-0.209 0.013-0.072 0.053-0.137 0.11-0.182 0.063-0.038 0.138-0.051 0.21-0.038 0.072 0.014 0.137 0.053 0.182 0.111 0.365 0.575 0.839 1.072 1.396 1.463s1.185 0.668 1.85 0.816c0.664 0.148 1.351 0.163 2.021 0.045s1.31-0.366 1.884-0.732c0.663-0.411 1.222-0.97 1.633-1.633 0.02-0.032 0.046-0.059 0.077-0.08 0.031-0.022 0.066-0.036 0.103-0.043s0.075-6e-3 0.111 2e-3c0.037 9e-3 0.071 0.025 0.101 0.048 0.057 0.035 0.099 0.092 0.116 0.157 0.016 0.066 7e-3 0.135-0.026 0.194-0.639 1.034-1.592 1.838-2.719 2.294z" fill="#354153"/>
<path d="m40.919 135.96c-0.0546 3e-3 -0.1092-5e-3 -0.1604-0.024s-0.0976-0.049-0.1363-0.088c-0.0386-0.039-0.0686-0.085-0.0878-0.136s-0.0273-0.106-0.0237-0.161v-3.673c0-0.108 0.043-0.212 0.1195-0.289 0.0766-0.076 0.1804-0.119 0.2887-0.119 0.1082 0 0.212 0.043 0.2886 0.119 0.0765 0.077 0.1195 0.181 0.1195 0.289v3.673c0.0036 0.055-0.0044 0.11-0.0237 0.161-0.0192 0.051-0.0492 0.097-0.0878 0.136-0.0387 0.039-0.0851 0.069-0.1363 0.088-0.0511 0.019-0.1058 0.027-0.1603 0.024z" fill="#5C626D"/>
<path d="m34.731 123.31c-0.6495-0.649-1.0144-1.53-1.0144-2.449s0.3649-1.8 1.0144-2.449c0.6495-0.65 1.5305-1.014 2.4491-1.014 0.9185 0 1.7995 0.364 2.449 1.014 0.3957 0.41 0.6771 0.917 0.8164 1.469l2.1225 6.45-6.5471-2.098c-0.4963-0.203-0.9381-0.519-1.2899-0.923z" fill="#C6CBCD"/>
<path d="m38.895 118.65c-0.0108-0.92 0.3444-1.807 0.9874-2.465s1.5211-1.034 2.4413-1.045c0.9201-0.011 1.8069 0.344 2.4652 0.987s1.0343 1.521 1.0451 2.441c-0.0186 0.594-0.1575 1.177-0.4082 1.715l-3.0205 6.041-3.1021-6.123c-0.2862-0.465-0.4282-1.005-0.4082-1.551z" fill="#E0E0E0"/>
<path d="m44.364 135.47h-5.5512c-1.299 0-2.5449-0.516-3.4634-1.435-0.9186-0.918-1.4347-2.164-1.4347-3.463s0.5161-2.545 1.4347-3.464c0.9185-0.918 2.1644-1.434 3.4634-1.434h4.8981c1.2991 0 2.5449 0.516 3.4635 1.434 0.9185 0.919 1.4346 2.165 1.4346 3.464v0.653c-0.0064 1.124-0.4557 2.2-1.2505 2.995-0.7947 0.794-1.8707 1.244-2.9945 1.25z" fill="#354153"/>
<path d="m43.711 125.59c0.6723 0.018 1.3359 0.156 1.9592 0.408v9.062c-0.6233 0.252-1.2869 0.391-1.9592 0.408h-0.6531v-9.878h0.6531z" fill="#FFD251"/>
<path d="m38.813 125.59h0.6531v9.878h-0.6531c-0.6723-0.017-1.3359-0.156-1.9592-0.408v-9.062c0.6233-0.252 1.2869-0.39 1.9592-0.408z" fill="#FFD251"/>
<path d="m52.12 131.06h-3.6735c-0.0332 4e-3 -0.0667 0-0.0982-0.011s-0.0602-0.029-0.0837-0.052c-0.0236-0.024-0.0415-0.053-0.0524-0.084-0.011-0.032-0.0146-0.065-0.0107-0.098v-0.057c-0.0039-0.033-3e-4 -0.067 0.0107-0.099 0.0109-0.031 0.0288-0.06 0.0524-0.083 0.0235-0.024 0.0522-0.042 0.0837-0.053s0.065-0.014 0.0982-0.01h3.6735c0.0331-4e-3 0.0667-1e-3 0.0982 0.01s0.0601 0.029 0.0837 0.053c0.0236 0.023 0.0415 0.052 0.0524 0.083 0.0109 0.032 0.0146 0.066 0.0106 0.099v0.081c2e-4 0.031-0.0062 0.062-0.0188 0.091-0.0125 0.028-0.031 0.054-0.0541 0.074-0.0232 0.021-0.0505 0.037-0.0801 0.046-0.0296 0.01-0.0609 0.013-0.0919 0.01z" fill="#C6CBCD"/>
<path d="m47.63 129.68c0.8566 0 1.551-0.695 1.551-1.551 0-0.857-0.6944-1.551-1.551-1.551-0.8567 0-1.5511 0.694-1.5511 1.551 0 0.856 0.6944 1.551 1.5511 1.551z" fill="#fff"/>
<mask id="b" x="46" y="126" width="4" height="4" maskUnits="userSpaceOnUse">
<path d="m47.63 129.68c0.8566 0 1.551-0.695 1.551-1.551 0-0.857-0.6944-1.551-1.551-1.551-0.8567 0-1.5511 0.694-1.5511 1.551 0 0.856 0.6944 1.551 1.5511 1.551z" fill="#fff"/>
</mask>
<g mask="url(#b)">
<path d="m48.609 129.18c0.7214 0 1.3062-0.585 1.3062-1.306s-0.5848-1.306-1.3062-1.306-1.3061 0.585-1.3061 1.306 0.5847 1.306 1.3061 1.306z" fill="#5C626D"/>
</g>
<path d="m53.483 90.18c-0.0022 4.1989-1.6701 8.2255-4.6376 11.196-2.9676 2.971-6.9925 4.643-11.191 4.649h-16.817c-4.2003-4e-3 -8.2273-1.675-11.197-4.646-2.9693-2.9709-4.6383-6.9987-4.6405-11.199 0.00432-4.1989 1.6743-8.2247 4.6434-11.194 2.9691-2.9691 6.9948-4.639 11.194-4.6433h16.817c2.0794 0 4.1384 0.4097 6.0594 1.2057 1.9209 0.796 3.6663 1.9626 5.1362 3.4334 1.47 1.4707 2.6358 3.2166 3.4308 5.138s1.2036 3.9806 1.2026 6.06z" fill="#6942FF"/>
<path d="m31.27 95.658c0.3571 3.7007 1.2026 7.3383 2.5143 10.816 2.694 7.135 4.3267 8.629 4.3267 8.629-3.2337-2.746-6.0644-5.934-8.4084-9.47-2.1221-3.094-4.0313-6.3283-5.7144-9.6814l7.2818-0.2939z" fill="#6942FF"/>
<path d="m37.515 84.163c-2.3102-2.3838-6.596-0.7511-8.2532 1.1429-1.6327-1.9103-5.9022-3.494-8.2451-1.1429-1.845 1.8368-1.396 5.5838 1.9674 8.5635 2.3429 2.1633 6.2777 6.2858 6.2777 6.2858s3.8776-4.1878 6.2858-6.343c3.1756-2.7266 3.8124-6.6042 1.9674-8.5063z" fill="#FF6CA4"/>
<path d="m51.593 240.92c-0.0545 3e-3 -0.1092-5e-3 -0.1604-0.024-0.0511-0.019-0.0976-0.049-0.1362-0.088-0.0387-0.038-0.0686-0.085-0.0879-0.136-0.0192-0.051-0.0273-0.106-0.0237-0.16v-3.674c0-0.108 0.043-0.212 0.1196-0.289 0.0765-0.076 0.1803-0.119 0.2886-0.119 0.1082 0 0.2121 0.043 0.2886 0.119 0.0766 0.077 0.1196 0.181 0.1196 0.289v3.674c0.0036 0.054-0.0045 0.109-0.0238 0.16-0.0192 0.051-0.0491 0.098-0.0878 0.136-0.0386 0.039-0.0851 0.069-0.1362 0.088-0.0512 0.019-0.1059 0.027-0.1604 0.024z" fill="#5C626D"/>
<path d="m45.389 228.26c-0.6495-0.649-1.0144-1.53-1.0144-2.449 0-0.918 0.3649-1.799 1.0144-2.449 0.6496-0.649 1.5305-1.014 2.4491-1.014 0.9185 0 1.7995 0.365 2.449 1.014 0.3957 0.41 0.6771 0.917 0.8164 1.469l2.1225 6.45-6.5308-2.123c-0.4997-0.193-0.9471-0.5-1.3062-0.898z" fill="#C6CBCD"/>
<path d="m49.552 223.61c-0.0108-0.92 0.3443-1.807 0.9873-2.465s1.5212-1.034 2.4414-1.045c0.9201-0.011 1.8069 0.344 2.4652 0.987s1.0342 1.521 1.045 2.442c-0.0186 0.593-0.1574 1.176-0.4081 1.714l-3.0205 6.041-3.1021-6.123c-0.2862-0.465-0.4282-1.005-0.4082-1.551z" fill="#E0E0E0"/>
<path d="m55.022 240.43h-5.5512c-1.2991 0-2.5449-0.516-3.4635-1.435-0.9185-0.919-1.4346-2.164-1.4346-3.464 0-1.299 0.5161-2.544 1.4346-3.463 0.9186-0.919 2.1644-1.435 3.4635-1.435h4.8981c1.299 0 2.5449 0.516 3.4634 1.435 0.9186 0.919 1.4347 2.164 1.4347 3.463v0.654c-0.0065 1.123-0.4558 2.199-1.2505 2.994s-1.8707 1.244-2.9945 1.251z" fill="#354153"/>
<path d="m54.369 230.55c0.6723 0.017 1.3359 0.156 1.9593 0.408v9.061c-0.6234 0.253-1.287 0.391-1.9593 0.409h-0.6857v-9.878h0.6857z" fill="#FFD251"/>
<path d="m49.471 230.55h0.6531v9.878h-0.6531c-0.6723-0.018-1.3359-0.156-1.9592-0.409v-9.061c0.6233-0.252 1.2869-0.391 1.9592-0.408z" fill="#FFD251"/>
<path d="m62.777 236.02h-3.6736c-0.0331 4e-3 -0.0667 1e-3 -0.0982-0.01s-0.0601-0.029-0.0837-0.053c-0.0235-0.023-0.0415-0.052-0.0524-0.083-0.0109-0.032-0.0145-0.065-0.0106-0.099v-0.081c-0.0039-0.033-3e-4 -0.067 0.0106-0.098 0.0109-0.032 0.0289-0.061 0.0524-0.084 0.0236-0.024 0.0522-0.042 0.0837-0.053 0.0315-0.01 0.0651-0.014 0.0982-0.01h3.6736c0.0331-4e-3 0.0667 0 0.0982 0.01 0.0315 0.011 0.0601 0.029 0.0837 0.053 0.0236 0.023 0.0415 0.052 0.0524 0.084 0.0109 0.031 0.0145 0.065 0.0106 0.098v0.081c0.0039 0.034 3e-4 0.067-0.0106 0.099-0.0109 0.031-0.0288 0.06-0.0524 0.083-0.0236 0.024-0.0522 0.042-0.0837 0.053s-0.0651 0.014-0.0982 0.01z" fill="#C6CBCD"/>
<path d="m58.287 234.63c0.8567 0 1.5511-0.694 1.5511-1.551 0-0.856-0.6944-1.551-1.5511-1.551-0.8566 0-1.551 0.695-1.551 1.551 0 0.857 0.6944 1.551 1.551 1.551z" fill="#fff"/>
<mask id="a" x="56" y="231" width="4" height="4" maskUnits="userSpaceOnUse">
<path d="m58.287 234.63c0.8567 0 1.5511-0.694 1.5511-1.551 0-0.856-0.6944-1.551-1.5511-1.551-0.8566 0-1.551 0.695-1.551 1.551 0 0.857 0.6944 1.551 1.551 1.551z" fill="#fff"/>
</mask>
<g mask="url(#a)">
<path d="m59.267 234.14c0.7214 0 1.3062-0.585 1.3062-1.306 0-0.722-0.5848-1.307-1.3062-1.307s-1.3062 0.585-1.3062 1.307c0 0.721 0.5848 1.306 1.3062 1.306z" fill="#5C626D"/>
</g>
<path d="m48.475 204.18c-0.0022 4.2-1.6714 8.226-4.641 11.196s-6.9965 4.639-11.196 4.641h-16.8c-4.1996-2e-3 -8.2266-1.671-11.196-4.641s-4.6388-6.996-4.641-11.196c0.0021631-4.2 1.6714-8.227 4.641-11.196 2.9696-2.97 6.9965-4.639 11.196-4.641h16.8c2.0803-2e-3 4.1407 0.406 6.0631 1.201s3.6692 1.962 5.1402 3.433 2.6375 3.217 3.4326 5.14c0.7952 1.922 1.2033 3.983 1.2012 6.063z" fill="#5DD470"/>
<path d="m34.091 211.95c0.3589 3.697 1.2015 7.33 2.5061 10.808 2.694 7.135 4.3348 8.629 4.3348 8.629-3.2316-2.745-6.062-5.93-8.4083-9.462-2.1222-3.096-4.0314-6.334-5.7145-9.69l7.2819-0.285z" fill="#5DD470"/>
<path d="m25.927 211.53h-3.7389c-0.2077-4e-3 -0.4106-0.063-0.5877-0.171-0.291-0.184-0.5643-0.395-0.8164-0.629-0.2414-0.196-0.4331-0.445-0.5593-0.729-0.1263-0.284-0.1836-0.594-0.1672-0.904v-6.326c-0.0041-0.213 0.0392-0.423 0.1268-0.617 0.0875-0.193 0.2171-0.365 0.3793-0.502 0.9143-0.857 1.8531-1.706 2.694-2.628 0.8601-1.072 1.3676-2.384 1.453-3.756 0.1388-1.02 0.8164-1.396 1.6817-0.873 0.265 0.147 0.4904 0.355 0.6568 0.609 0.1664 0.253 0.2688 0.542 0.2983 0.844 0.1233 1.365-0.0839 2.74-0.6041 4.008-0.2367 0.694-0.2367 0.702 0.498 0.735 1.2654 0.057 2.5307 0.139 3.796 0.122 0.477 0.014 0.9329 0.2 1.2828 0.524 0.3499 0.325 0.57 0.765 0.6193 1.24 0.0054 0.683-0.0465 1.366-0.1551 2.041-0.2122 1.632-0.4816 3.265-0.6694 4.963-0.0218 0.389-0.155 0.764-0.3836 1.079-0.2287 0.316-0.5433 0.559-0.9062 0.701-0.426 0.174-0.8789 0.274-1.3388 0.293-1.1837 0.033-2.3674-0.024-3.5593-0.024z" fill="#fff"/>
<path d="m17.804 200.82h-4.343c-0.5816 0-1.0531 0.471-1.0531 1.053v9.167c0 0.582 0.4715 1.053 1.0531 1.053h4.343c0.5816 0 1.0531-0.471 1.0531-1.053v-9.167c0-0.582-0.4715-1.053-1.0531-1.053z" fill="#6942FF"/>
<path d="m15.633 204.21c0.3922 0 0.7102-0.318 0.7102-0.71s-0.318-0.71-0.7102-0.71c-0.3923 0-0.7102 0.318-0.7102 0.71s0.3179 0.71 0.7102 0.71z" fill="#fff"/>
<path d="m137.4 224.74c15.429 0 27.936-14.864 27.936-33.2 0-18.337-12.507-33.201-27.936-33.201-15.428 0-27.935 14.864-27.935 33.201 0 18.336 12.507 33.2 27.935 33.2z" fill="#AF4120"/>
<path d="m119.9 196.91c0-18.335 12.506-33.201 27.935-33.201 1.893-2e-3 3.778 0.223 5.617 0.67-4.467-3.847-10.154-5.985-16.05-6.033-15.429 0-27.935 14.865-27.935 33.201 0 16.049 9.584 29.437 22.311 32.531-7.184-6.008-11.878-15.935-11.878-27.168z" fill="#7F2E1B"/>
<path d="m145.58 101.45h-16.327c-1.119-2e-3 -2.22 0.292-3.19 0.851s-1.776 1.363-2.337 2.332l-8.163 14.164c-0.558 0.971-0.851 2.072-0.851 3.192s0.293 2.221 0.851 3.192l8.163 14.155c0.552 0.976 1.351 1.788 2.317 2.356 0.966 0.567 2.065 0.87 3.186 0.877h16.327c1.131-3e-3 2.242-0.307 3.217-0.881 0.976-0.574 1.781-1.397 2.334-2.384l8.163-14.156c0.561-0.97 0.857-2.071 0.857-3.192 0-1.12-0.296-2.221-0.857-3.192l-8.163-14.163c-0.567-0.962-1.375-1.758-2.344-2.311-0.97-0.553-2.067-0.843-3.183-0.84z" fill="#FFA515"/>
<path d="m132.75 121.82c-0.277-0.118-0.586-0.136-0.875-0.051s-0.539 0.268-0.708 0.517l-3.56 3.886c-0.259 0.26-0.405 0.612-0.405 0.979s0.146 0.72 0.405 0.98h0.041l3.559 3.763c0.195 0.203 0.445 0.345 0.719 0.408 0.286 0.072 0.588 0.051 0.862-0.059s0.507-0.303 0.664-0.553c0.082-0.296 0.132-0.6 0.147-0.906v-7.617c5e-3 -0.282-0.073-0.56-0.223-0.8-0.151-0.239-0.369-0.429-0.626-0.547z" fill="#fff"/>
<path d="m135.03 118.08c0.075-0.336 0.015-0.688-0.169-0.979s-0.475-0.497-0.811-0.573h-0.196l-5.143-1.175c-0.343-0.074-0.702-0.017-1.005 0.162-0.302 0.178-0.526 0.465-0.627 0.801l-1.568 5.029c-0.084 0.212-0.114 0.441-0.088 0.667 0.025 0.227 0.106 0.443 0.235 0.631 0.207 0.308 0.525 0.523 0.889 0.6 0.363 0.076 0.741 7e-3 1.054-0.192l6.67-3.82c0.216-0.109 0.399-0.273 0.532-0.475 0.134-0.202 0.212-0.435 0.227-0.676z" fill="#fff"/>
<path d="m131.5 113.95 6.678 3.821c0.251 0.149 0.54 0.22 0.831 0.202 0.292-0.017 0.571-0.122 0.802-0.3 0.237-0.177 0.41-0.427 0.494-0.711s0.074-0.587-0.029-0.865l-1.633-5.069c-0.097-0.35-0.328-0.647-0.643-0.827s-0.688-0.229-1.038-0.137l-5.086 1.217c-0.274 0.063-0.524 0.205-0.719 0.408-0.187 0.217-0.309 0.483-0.351 0.767-0.101 0.291-0.085 0.609 0.045 0.888 0.129 0.279 0.362 0.496 0.649 0.606z" fill="#fff"/>
<path d="m141.34 121.16c0.17 0.236 0.394 0.426 0.653 0.555 0.131 0.074 0.277 0.117 0.427 0.127 0.149 0.01 0.299-0.014 0.439-0.069 0.27-0.073 0.518-0.213 0.718-0.409l3.559-3.894c0.257-0.258 0.4-0.607 0.4-0.971s-0.143-0.713-0.4-0.972l-0.049-0.04-3.559-3.772c-0.191-0.203-0.438-0.345-0.71-0.408-0.288-0.059-0.587-0.04-0.865 0.057-0.269 0.111-0.496 0.303-0.651 0.548-0.155 0.246-0.23 0.534-0.215 0.824l0.066 7.608c-0.017 0.284 0.048 0.568 0.187 0.816z" fill="#fff"/>
<path d="m149.14 120.88c-0.204-0.312-0.523-0.53-0.887-0.606-0.365-0.077-0.745-6e-3 -1.056 0.198l-6.621 3.894c-0.144 0.042-0.275 0.121-0.381 0.228s-0.182 0.239-0.223 0.384c-0.131 0.251-0.166 0.541-0.098 0.816 0.039 0.281 0.161 0.544 0.352 0.754s0.441 0.357 0.717 0.422l5.143 1.175c0.352 0.084 0.722 0.03 1.035-0.15 0.313-0.181 0.544-0.475 0.647-0.821l1.527-4.988c0.084-0.213 0.114-0.445 0.087-0.672-0.027-0.228-0.111-0.446-0.242-0.634z" fill="#fff"/>
<path d="m143.38 129.61-6.694-3.821c-0.242-0.157-0.53-0.226-0.816-0.196-0.286 0.059-0.561 0.161-0.817 0.302-0.239 0.176-0.413 0.426-0.496 0.711-0.082 0.284-0.069 0.589 0.039 0.865l1.576 5.045c0.101 0.349 0.334 0.646 0.649 0.827s0.688 0.233 1.041 0.144l5.085-1.224c0.289-0.072 0.55-0.227 0.753-0.444 0.202-0.217 0.338-0.488 0.39-0.781 0.028-0.28-0.024-0.563-0.149-0.816-0.126-0.253-0.32-0.465-0.561-0.612z" fill="#fff"/>
<path d="m145.58 101.45c1.119 1e-3 2.219 0.296 3.188 0.854 0.97 0.559 1.776 1.362 2.339 2.33l8.163 14.163c0.561 0.97 0.857 2.071 0.857 3.192s-0.296 2.222-0.857 3.192l-8.163 14.123c-0.56 0.97-1.366 1.776-2.336 2.336s-2.07 0.855-3.191 0.856h-16.327c-1.12 1e-3 -2.221-0.293-3.192-0.854-0.97-0.56-1.775-1.367-2.334-2.338l-8.164-14.156c-0.558-0.971-0.851-2.071-0.851-3.192 0-1.12 0.293-2.22 0.851-3.191l8.164-14.164c0.56-0.969 1.366-1.774 2.336-2.333s2.071-0.852 3.19-0.851h16.327m0-3.2652h-16.327c-1.692 0.0028-3.355 0.4489-4.821 1.2939-1.467 0.8453-2.687 2.0593-3.538 3.5223l-8.164 14.164c-0.846 1.467-1.291 3.131-1.291 4.824 0 1.694 0.445 3.358 1.291 4.825l8.164 14.156c0.838 1.475 2.049 2.705 3.512 3.564 1.463 0.86 3.126 1.32 4.823 1.334h16.327c1.704-6e-3 3.376-0.462 4.847-1.322s2.688-2.094 3.528-3.576l8.164-14.156c0.846-1.467 1.291-3.131 1.291-4.825 0-1.693-0.445-3.357-1.291-4.824l-8.164-14.164c-0.849-1.463-2.067-2.677-3.532-3.5224-1.466-0.8451-3.127-1.2912-4.819-1.2938z" fill="#FFD251"/>
</svg>
