<svg xmlns="http://www.w3.org/2000/svg" width="52" height="50" viewBox="0 0 52 50" fill="none">
  <rect x="0.5" y="0.5" width="51" height="49" rx="7.5" stroke="#F3F4F6"/>
  <path d="M31.7542 16.984C32.1392 16.5337 32.3867 16.0627 32.3867 15.5643C32.3867 14.729 31.6958 14.1997 30.8502 14.1997C30.063 14.1997 29.4099 14.7084 29.2862 15.5643L28.1346 15.2859C28.3546 13.8834 29.4993 13 30.8433 13C32.3523 13 33.552 14.0278 33.552 15.554C33.552 16.3893 33.167 17.149 32.6102 17.7917C31.4964 19.0877 31.4689 19.1358 30.2658 20.5554H33.5795V21.7448H28.2378V21.236L31.7542 16.984Z" fill="#425F6F"/>
  <path d="M28.2584 27.5746L28.2687 23.2332H37.6872C37.7835 23.8382 37.8316 24.4638 37.8316 25.0859C37.8316 31.6548 32.483 37 25.9175 37C19.3486 37.0103 14 31.6651 14 25.0962C14 18.5274 19.3486 13.1822 25.9141 13.1822V17.3861C21.662 17.3861 18.204 20.8442 18.204 25.0962C18.204 29.3483 21.662 32.8064 25.9141 32.8064C29.293 32.8064 32.1839 30.6167 33.222 27.5746" fill="#425F6F"/>
</svg>