<svg xmlns="http://www.w3.org/2000/svg" width="25" height="25" viewBox="0 0 25 25" fill="none"><g clip-path="url(#clip0_55_21326)"><path fill-rule="evenodd" clip-rule="evenodd" d="M17.4714 3.4409C18.116 1.79032 19.9668 0.871982 21.6768 1.5222C23.3588 2.16175 24.1012 4.05724 23.4681 5.67823L18.187 19.2015C17.9738 19.7474 17.6429 20.2433 17.2072 20.6477C16.7077 21.1113 15.9231 21.8285 15.2236 22.419C14.8761 22.7122 14.5348 22.9869 14.2535 23.1851C14.1158 23.2821 13.9692 23.3775 13.8305 23.4473C13.7626 23.4815 13.6695 23.5235 13.563 23.5516C13.4817 23.573 13.2557 23.6255 13.0006 23.5285C12.7402 23.4294 12.6057 23.2347 12.558 23.1598C12.4971 23.0643 12.457 22.9679 12.4308 22.8959C12.3771 22.7489 12.3365 22.5783 12.3039 22.4145C12.2373 22.0793 12.1811 21.6482 12.1336 21.2012C12.0382 20.3007 11.9702 19.253 11.9324 18.5893C11.9001 18.0242 11.9943 17.4658 12.1971 16.9465L17.4714 3.4409ZM21.1082 3.01773C20.2721 2.69982 19.308 3.13621 18.9617 4.02294L14.4493 15.5778C14.8745 15.6259 15.3859 15.7235 15.951 15.9104C16.5783 16.1178 17.0904 16.3751 17.481 16.6109L21.9778 5.0962C22.3091 4.24784 21.9041 3.32039 21.1082 3.01773ZM16.8876 18.1303C16.8769 18.123 16.866 18.1157 16.8549 18.1082C16.5421 17.8993 16.0694 17.6347 15.4487 17.4295C14.8284 17.2244 14.2982 17.1574 13.9308 17.1405C13.8994 17.1391 13.8692 17.138 13.8403 17.1373L13.6875 17.5285C13.5651 17.8418 13.5111 18.1711 13.5298 18.4983C13.5672 19.1554 13.6335 20.1718 13.7247 21.0325C13.7436 21.2106 13.7632 21.3786 13.7834 21.5331C13.9105 21.431 14.0476 21.3178 14.1915 21.1963C14.8615 20.6308 15.6239 19.9344 16.1187 19.475C16.3716 19.2403 16.5681 18.9486 16.6966 18.6194L16.8876 18.1303ZM13.399 17.1518C13.3982 17.1519 13.3984 17.1519 13.3995 17.1517L13.399 17.1518ZM17.2904 18.442C17.2914 18.4428 17.2916 18.4431 17.2912 18.4427L17.2904 18.442Z" fill="#5D5D85"></path><path fill-rule="evenodd" clip-rule="evenodd" d="M4.41476 6.02879C4.41476 6.02879 4.41476 6.02879 4.41476 6.02879L4.41476 6.02879C4.41476 6.02879 4.41476 6.02879 4.41476 6.02879ZM4.41922 6.01977C4.61039 5.62706 4.45101 5.15242 4.05971 4.95532C3.66512 4.75656 3.18411 4.91532 2.98535 5.30991L3.69983 5.6698C2.98535 5.30991 2.98511 5.31038 2.98488 5.31085L2.98439 5.31183L2.98336 5.31388L2.98112 5.31843L2.97586 5.32928C2.97202 5.3373 2.96752 5.34691 2.96241 5.35817C2.95219 5.38069 2.93951 5.4098 2.92475 5.44597C2.89523 5.51832 2.85736 5.61895 2.81414 5.7517C2.72772 6.0171 2.61968 6.41142 2.51399 6.96549C2.30278 8.07282 2.09983 9.82418 2.09983 12.4698C2.09983 15.1154 2.30278 16.8668 2.51399 17.9741C2.61968 18.5282 2.72772 18.9225 2.81414 19.1879C2.85736 19.3207 2.89522 19.4213 2.92474 19.4936C2.93951 19.5298 2.95218 19.5589 2.96241 19.5814C2.96752 19.5927 2.97202 19.6023 2.97586 19.6103L2.98111 19.6212L2.98336 19.6257L2.98439 19.6278L2.98487 19.6288C2.98511 19.6292 2.98534 19.6297 3.68744 19.276L2.98534 19.6297C3.18411 20.0243 3.66512 20.183 4.05971 19.9843C4.451 19.7872 4.61039 19.3125 4.41922 18.9198C4.41768 18.9164 4.41319 18.9064 4.40615 18.8891C4.39192 18.8543 4.36729 18.7901 4.33551 18.6925C4.27193 18.4973 4.17997 18.1688 4.08566 17.6743C3.89687 16.6846 3.69983 15.036 3.69983 12.4698C3.69983 9.90365 3.89687 8.25501 4.08566 7.26528C4.17997 6.77082 4.27194 6.44235 4.33551 6.24709C4.36729 6.14951 4.39193 6.08535 4.40616 6.05048C4.41319 6.03325 4.41767 6.02318 4.41922 6.01977Z" fill="#5D5D85"></path><path fill-rule="evenodd" clip-rule="evenodd" d="M5.01428 4.0812C4.78696 3.70234 4.90982 3.21093 5.28868 2.98361L5.70028 3.6696C5.28868 2.98361 5.28912 2.98335 5.28957 2.98308L5.29048 2.98253L5.29237 2.98141L5.29642 2.97902L5.30565 2.97368C5.3123 2.96987 5.31995 2.96557 5.32864 2.96082C5.34603 2.95132 5.36757 2.93999 5.39358 2.92707C5.44558 2.90121 5.51543 2.86897 5.60549 2.83217C5.78556 2.75859 6.04677 2.66668 6.40846 2.57113C7.13114 2.38024 8.25959 2.17363 9.95188 2.07107C11.6429 1.96858 12.9573 2.01937 13.8571 2.09761C14.3069 2.13673 14.6531 2.18271 14.8908 2.21979C15.0096 2.23834 15.1014 2.25466 15.1654 2.26679C15.1974 2.27286 15.2225 2.27788 15.2406 2.2816L15.2625 2.28619L15.2695 2.2877L15.272 2.28825L15.2734 2.28857C15.2736 2.28861 15.2738 2.28866 15.1003 3.06961M5.01428 4.0812C5.23877 4.45535 5.72081 4.57982 6.09767 4.36393L5.01428 4.0812Z" fill="#5D5D85"></path><path fill-rule="evenodd" clip-rule="evenodd" d="M5.7002 20.4698L9.9002 20.4698C10.342 20.4698 10.7002 20.828 10.7002 21.2698C10.7002 21.7117 10.342 22.0698 9.9002 22.0698L5.7002 22.0698C5.25837 22.0698 4.9002 21.7117 4.9002 21.2698C4.9002 20.828 5.25837 20.4698 5.7002 20.4698Z" fill="#5D5D85"></path><path fill-rule="evenodd" clip-rule="evenodd" d="M1.2998 3.86953C1.2998 2.43359 2.46386 1.26953 3.8998 1.26953C5.33575 1.26953 6.4998 2.43359 6.4998 3.86953C6.4998 5.30547 5.33575 6.46953 3.8998 6.46953C2.46386 6.46953 1.2998 5.30547 1.2998 3.86953ZM3.8998 2.86953C3.34752 2.86953 2.8998 3.31725 2.8998 3.86953C2.8998 4.42182 3.34752 4.86953 3.8998 4.86953C4.45209 4.86953 4.89981 4.42182 4.89981 3.86953C4.89981 3.31725 4.45209 2.86953 3.8998 2.86953Z" fill="#5D5D85"></path><path fill-rule="evenodd" clip-rule="evenodd" d="M1.2998 21.0697C1.2998 19.6338 2.46386 18.4697 3.8998 18.4697C5.33575 18.4697 6.4998 19.6338 6.4998 21.0697C6.4998 22.5057 5.33575 23.6697 3.8998 23.6697C2.46386 23.6697 1.2998 22.5057 1.2998 21.0697ZM3.8998 20.0697C3.34752 20.0697 2.8998 20.5174 2.8998 21.0697C2.8998 21.622 3.34752 22.0697 3.8998 22.0697C4.45209 22.0697 4.89981 21.622 4.89981 21.0697C4.89981 20.5174 4.45209 20.0697 3.8998 20.0697Z" fill="#5D5D85"></path></g><defs><clipPath id="clip0_55_21326"><rect x="0.5" y="0.469727" width="24" height="24" fill="white"></rect></clipPath></defs></svg>