<svg width="84" height="13" viewBox="0 0 84 13" fill="none" xmlns="http://www.w3.org/2000/svg"><path d="M2.94017 2.84316V4.73113H7.30938V7.23102H2.94017V11.6823H0V0.347H7.63026V2.84316H2.94017ZM9.97717 11.6823V0.347H12.9173V11.6823H9.97717ZM24.0661 11.6823L18.6484 4.74606V11.6786H15.7083V0.347H18.6484L24.0698 7.27953V0.347H27.01V11.6823H24.0661ZM37.3752 11.6823L36.6439 9.71225H32.5844L31.8046 11.6823H28.7151L32.9948 0.347H36.2559L40.5206 11.6823H37.3752ZM34.6216 3.8655L33.3978 7.46982H35.8454L34.6216 3.8655ZM57.2475 2.84316V11.6786H54.3073V2.84316H51.5835V0.347H60.0234V2.84316H57.2475ZM67.747 11.6823L64.9262 7.33176V11.6823H61.9861V0.347H66.5754C67.6462 0.347 68.579 0.552212 69.3439 1.35068C69.9894 2.01483 70.314 2.94763 70.314 3.8655C70.314 4.57816 70.0939 5.37663 69.6685 5.95496C69.2096 6.5818 68.5977 6.87283 67.8515 7.04073L71.4035 11.6786H67.747V11.6823ZM65.4859 2.62302H64.9262V5.42886H65.4859C66.4038 5.42886 67.2881 5.07067 67.2881 4.01848C67.2881 2.96255 66.3851 2.62302 65.4859 2.62302ZM80.8509 11.6823L80.1196 9.71225H76.0601L75.2802 11.6823H72.1722L76.5227 0.347H79.7353L84 11.6823H80.8509ZM78.0973 3.8655L76.8735 7.46982H79.3211L78.0973 3.8655ZM49.9269 10.007C49.1881 11.4473 47.4195 12.0144 45.8935 12.0144C44.4682 12.0144 43.0391 11.507 41.8713 10.701L43.1809 8.32426C43.9197 8.97721 44.7928 9.49212 45.8077 9.49212C46.5278 9.49212 47.233 9.18243 47.233 8.35784C47.233 6.36539 42.375 7.87651 42.375 3.86177C42.375 1.54471 43.9533 0 46.2554 0C47.524 0 48.6396 0.272376 49.7553 0.85444L48.7553 3.27597C48.1882 2.81331 47.5091 2.47377 46.7517 2.47377C46.1696 2.47377 45.4831 2.79838 45.4831 3.46999C45.4831 5.15275 50.356 4.05206 50.356 7.96606C50.356 8.61902 50.2366 9.42495 49.9269 10.007Z" fill="url(#paint0_linear_192_10200)"></path><defs><linearGradient id="paint0_linear_192_10200" x1="0.000447741" y1="6.00898" x2="83.9929" y2="6.00898" gradientUnits="userSpaceOnUse"><stop stop-color="#C137A2"></stop><stop offset="1" stop-color="#694ED6"></stop></linearGradient></defs></svg>