<svg width="84" height="13" viewBox="0 0 84 13" fill="none" xmlns="http://www.w3.org/2000/svg"><path d="M10.9085 8.34191C10.2305 10.4484 9.04382 12.2767 5.96832 12.3977C1.39222 12.3977 0 8.58416 0 6.53772C0 1.27156 4.22546 -0.000183105 5.92039 -0.000183105C7.84506 -0.000183105 10.5695 0.884205 10.5695 3.15995C10.5695 3.95883 10.0608 4.73397 9.23771 4.73397C8.43882 4.73397 7.84505 4.20152 7.84505 3.34175C7.84505 2.19179 8.78947 2.03417 8.78947 1.71936C8.78947 0.920478 6.92526 0.593583 6.27147 0.593583C3.42614 0.593583 2.68728 2.66378 2.68728 6.53815C2.68728 8.31773 3.13552 9.67367 3.30479 10.0852C3.75303 11.0659 4.66074 11.6834 6.19849 11.768C7.93013 11.8652 9.57669 10.4726 10.2909 8.34191H10.9085ZM14.5661 6.18708C14.5661 8.6688 14.5907 11.8048 17.5811 11.8048C20.5715 11.8048 20.5953 8.6688 20.5953 6.18665C20.5953 3.72953 20.5715 0.593583 17.5811 0.593583C14.5907 0.593583 14.5661 3.7291 14.5661 6.18708ZM23.2955 6.18708C23.2955 9.7704 20.6924 12.3977 17.5932 12.3977C14.4935 12.3977 11.8788 9.75831 11.8788 6.18708C11.8788 2.61541 14.4814 0.000248796 17.5811 0.000248796C20.6803 0.000248796 23.2955 2.60332 23.2955 6.18708ZM25.3899 0.980503H23.7675V0.30253H24.385C24.9421 0.315053 25.4866 0.29087 26.0432 0.242074C26.6003 0.206232 27.1574 0.121161 27.7023 0.000248796V3.13577H27.7628C28.5858 1.27156 29.7362 0.000248796 31.8911 0.000248796C32.9568 0.000248796 35.4144 0.242074 35.4144 2.95397V11.3202H37.0121V11.9982H31.5646V11.3202H33.1019V3.32966C33.1019 1.17483 32.424 0.847499 31.2377 0.847499C29.228 0.847499 27.6907 3.5961 27.6907 5.81139V11.3081H29.2884V11.9861H23.7675V11.3081H25.3899V0.980503ZM43.9983 0.302962V0.980935H45.802L42.8116 9.46812H42.7512L39.8817 0.980503H41.4557V0.30253H36.1286V0.980503H37.545L41.504 12.3972H42.521L46.6009 0.980503H48.0178V0.30253H43.9983V0.302962ZM55.9708 4.40707V3.40221C55.9708 1.27156 54.7237 0.593583 53.2468 0.593583C51.4668 0.593583 50.6679 2.25181 50.6074 2.45779C50.4256 3.0874 50.3168 3.75328 50.3168 4.40707H55.9708ZM58.6343 8.34191C58.041 11.0901 56.0312 12.3977 53.4282 12.3977C50.4136 12.3977 47.5078 9.97638 47.5078 6.68325C47.5078 3.19665 49.8202 0.000248796 53.3314 0.000248796C56.346 0.000248796 58.6222 2.04626 58.6585 5.26685H50.2806V6.47727C50.2806 9.40723 50.6679 11.768 53.8885 11.768C55.5713 11.768 57.5569 10.2912 57.9684 8.34191H58.6343ZM60.9113 0.980503H59.289V0.30253H59.906C60.4631 0.315053 61.0081 0.29087 61.5647 0.242074C62.1218 0.206232 62.6788 0.121161 63.2234 0.000248796V3.13577H63.2843C64.1073 1.27156 65.2577 0.000248796 67.4246 0.000248796C68.49 0.000248796 70.9479 0.242074 70.9479 2.95397V11.3202H72.5461V11.9982H67.0977V11.3202H68.6355V3.32966C68.6355 1.17483 67.9575 0.847499 66.7708 0.847499C64.7611 0.847499 63.2234 3.5961 63.2234 5.81139V11.3081H64.8216V11.9861H59.289V11.3081H60.9113V0.980503ZM81.2998 4.40707V3.40221C81.2998 1.27156 80.0531 0.593583 78.5758 0.593583C76.7962 0.593583 75.9969 2.25181 75.9485 2.45779C75.7672 3.0874 75.6579 3.75328 75.6579 4.40707H81.2998ZM83.9633 8.34191C83.3704 11.0901 81.3607 12.3977 78.7576 12.3977C75.743 12.3977 72.8493 9.97638 72.8493 6.68325C72.8493 3.19665 75.1496 0.000248796 78.6729 0.000248796C81.6876 0.000248796 83.9633 2.04626 84 5.26685H75.6216V6.47727C75.6216 9.40723 76.009 11.768 79.2296 11.768C80.9124 11.768 82.898 10.2912 83.3095 8.34191H83.9633Z" fill="black"></path></svg>