<svg xmlns="http://www.w3.org/2000/svg" width="25" height="25" viewBox="0 0 25 25" fill="none"><path fill-rule="evenodd" clip-rule="evenodd" d="M8.5058 4.98021C8.88663 5.20423 9.01375 5.69455 8.78973 6.07537L7.02833 9.06976L8.78973 12.0641C9.01375 12.445 8.88663 12.9353 8.5058 13.1593C8.12497 13.3833 7.63465 13.2562 7.41064 12.8754L5.52994 9.67818C5.30903 9.30264 5.30903 8.83687 5.52994 8.46133L7.41064 5.26414C7.63465 4.88331 8.12498 4.75619 8.5058 4.98021Z" fill="#5D5D85"></path><path fill-rule="evenodd" clip-rule="evenodd" d="M16.4942 19.9592C16.1134 19.7352 15.9862 19.2449 16.2103 18.8641L17.9717 15.8697L16.2103 12.8753C15.9863 12.4945 16.1134 12.0042 16.4942 11.7801C16.875 11.5561 17.3653 11.6833 17.5894 12.0641L19.4701 15.2613C19.691 15.6368 19.691 16.1026 19.4701 16.4781L17.5894 19.6753C17.3653 20.0561 16.875 20.1833 16.4942 19.9592Z" fill="#5D5D85"></path><path fill-rule="evenodd" clip-rule="evenodd" d="M10.7751 23.26C10.3387 23.1909 10.041 22.7811 10.1101 22.3447L13.3101 2.14473C13.3793 1.70834 13.7891 1.41062 14.2254 1.47975C14.6618 1.54889 14.9596 1.95869 14.8904 2.39507L11.6904 22.5951C11.6213 23.0315 11.2115 23.3292 10.7751 23.26Z" fill="#5D5D85"></path><path fill-rule="evenodd" clip-rule="evenodd" d="M12.4998 2.86953C9.81241 2.86953 7.72713 3.00546 6.21133 3.16336C4.57735 3.33357 3.36384 4.54707 3.19363 6.18105C3.03573 7.69685 2.8998 9.78214 2.8998 12.4695C2.8998 15.236 3.04385 17.3644 3.20763 18.8904C3.37615 20.4605 4.51924 21.6159 6.07412 21.7791C7.56239 21.9353 9.66586 22.0695 12.4998 22.0695C15.3337 22.0695 17.4372 21.9353 18.9255 21.7791C20.4804 21.6159 21.6235 20.4605 21.792 18.8904C21.9558 17.3644 22.0998 15.236 22.0998 12.4695C22.0998 9.78214 21.9639 7.69685 21.806 6.18106C21.6358 4.54708 20.4223 3.33357 18.7883 3.16336C17.2725 3.00546 15.1872 2.86953 12.4998 2.86953ZM6.04556 1.57197C7.61774 1.4082 9.75838 1.26953 12.4998 1.26953C15.2412 1.26953 17.3819 1.4082 18.9541 1.57197C21.3405 1.82057 23.1488 3.62881 23.3974 6.01528C23.5611 7.58746 23.6998 9.7281 23.6998 12.4695C23.6998 15.2916 23.5529 17.4771 23.3828 19.0611C23.1355 21.3654 21.4131 23.1267 19.0925 23.3703C17.5435 23.5329 15.384 23.6695 12.4998 23.6695C9.61563 23.6695 7.45611 23.5329 5.90709 23.3703C3.58649 23.1267 1.86408 21.3654 1.61676 19.0611C1.44675 17.4771 1.2998 15.2916 1.2998 12.4695C1.2998 9.7281 1.43847 7.58746 1.60224 6.01528C1.85084 3.62881 3.65908 1.82057 6.04556 1.57197Z" fill="#5D5D85"></path></svg>