<svg width="57" height="20" viewBox="0 0 57 20" fill="none" xmlns="http://www.w3.org/2000/svg"><path d="M15.7161 16.7085L17.4282 5.32714C17.4418 5.23631 17.4813 5.1513 17.5418 5.08219C17.6022 5.01307 17.6813 4.96275 17.7695 4.93717L21.1911 3.94516C21.2427 3.93021 21.2973 3.92846 21.3497 3.9401C21.4021 3.95173 21.4508 3.97637 21.4912 4.01173C21.5316 4.0471 21.5625 4.09206 21.581 4.14249C21.5995 4.19292 21.605 4.24719 21.5971 4.30031L19.8847 15.716C19.8185 16.2674 20.0391 16.4879 20.5684 16.4879C20.7422 16.4866 20.9155 16.4708 21.0866 16.4407C21.1402 16.4313 21.1953 16.4348 21.2473 16.4509C21.2993 16.4669 21.3467 16.4951 21.3857 16.533C21.4247 16.5709 21.4541 16.6176 21.4716 16.6691C21.4891 16.7206 21.4941 16.7755 21.4862 16.8294L21.1329 19.1734C21.1158 19.2864 21.0651 19.3917 20.9874 19.4754C20.9096 19.5592 20.8084 19.6176 20.697 19.6431C20.1139 19.7885 19.5152 19.8622 18.9143 19.8625C16.5322 19.8625 15.4074 18.7597 15.7161 16.7085ZM36.6568 16.7085L38.3689 5.32714C38.3826 5.23631 38.422 5.1513 38.4825 5.08219C38.543 5.01307 38.622 4.96275 38.7102 4.93717L42.1319 3.94516C42.1835 3.93021 42.238 3.92846 42.2904 3.9401C42.3429 3.95173 42.3915 3.97636 42.432 4.01173C42.4724 4.0471 42.5033 4.09206 42.5218 4.14249C42.5403 4.19292 42.5458 4.24719 42.5378 4.30031L40.8254 15.716C40.7592 16.2674 40.9798 16.4879 41.5091 16.4879C41.6829 16.4866 41.8563 16.4708 42.0274 16.4407C42.081 16.4313 42.136 16.4348 42.188 16.4509C42.24 16.4669 42.2874 16.4951 42.3264 16.533C42.3654 16.5709 42.3949 16.6176 42.4123 16.6691C42.4298 16.7206 42.4348 16.7755 42.4269 16.8294L42.0737 19.1734C42.0566 19.2864 42.0059 19.3917 41.9281 19.4754C41.8504 19.5592 41.7492 19.6176 41.6378 19.6431C41.0546 19.7885 40.456 19.8622 39.855 19.8625C37.4729 19.8625 36.3481 18.7597 36.6568 16.7085ZM35.7844 16.8235L35.4424 19.2018C35.4272 19.3063 35.3806 19.4038 35.3088 19.4814C35.2371 19.5589 35.1435 19.6129 35.0404 19.6362C34.4479 19.7818 33.8404 19.8577 33.2303 19.8625C31.6864 19.8625 30.7159 19.3552 30.319 18.4951C29.3926 19.311 28.003 19.8625 26.4812 19.8625C23.614 19.8625 22.026 17.9436 22.4451 15.1205L23.3722 8.84132C23.3842 8.75976 23.4252 8.68525 23.4876 8.63138C23.55 8.57751 23.6297 8.54787 23.7121 8.54787H27.0315C27.0808 8.54787 27.1296 8.55851 27.1745 8.57906C27.2194 8.59962 27.2593 8.6296 27.2916 8.66697C27.3239 8.70435 27.3477 8.74823 27.3614 8.79565C27.3752 8.84306 27.3786 8.89288 27.3714 8.94172L26.5695 14.3706C26.3709 15.6498 26.9224 16.4439 28.1133 16.4439C29.3265 16.4439 30.1865 15.694 30.363 14.4367L31.2014 8.84059C31.2136 8.75918 31.2546 8.68486 31.317 8.63114C31.3793 8.57742 31.4589 8.54787 31.5412 8.54787H34.8613C34.9107 8.54787 34.9595 8.55851 35.0044 8.57906C35.0493 8.59962 35.0892 8.6296 35.1215 8.66697C35.1537 8.70435 35.1775 8.74824 35.1913 8.79565C35.2051 8.84306 35.2085 8.89288 35.2013 8.94172L34.2008 15.716C34.1125 16.2453 34.3331 16.4879 34.8844 16.4879C35.0507 16.4868 35.2164 16.4699 35.3795 16.4374C35.4332 16.4272 35.4886 16.43 35.541 16.4455C35.5935 16.461 35.6415 16.4888 35.6811 16.5265C35.7206 16.5643 35.7507 16.6109 35.7686 16.6625C35.7866 16.7142 35.792 16.7694 35.7844 16.8235ZM56.7473 16.8235L56.3878 19.3224C56.3777 19.3913 56.347 19.4555 56.2998 19.5066C56.2525 19.5577 56.1909 19.5933 56.1231 19.6088C55.4923 19.7708 54.8443 19.856 54.1931 19.8625C52.6492 19.8625 51.6787 19.3552 51.2818 18.4951C50.3554 19.311 48.9659 19.8625 47.444 19.8625C44.5769 19.8625 42.9888 17.9436 43.4079 15.1205L44.335 8.84132C44.347 8.75976 44.388 8.68525 44.4504 8.63138C44.5128 8.57751 44.5925 8.54787 44.6749 8.54787H47.9943C48.0436 8.54787 48.0924 8.55851 48.1373 8.57906C48.1822 8.59962 48.2221 8.6296 48.2544 8.66697C48.2867 8.70435 48.3105 8.74823 48.3243 8.79565C48.338 8.84306 48.3414 8.89288 48.3342 8.94172L47.5323 14.3706C47.3337 15.6498 47.8852 16.4439 49.0762 16.4439C50.2893 16.4439 51.1494 15.694 51.3258 14.4367L52.1642 8.84059C52.1764 8.75918 52.2174 8.68486 52.2798 8.63114C52.3421 8.57742 52.4217 8.54787 52.504 8.54787H55.8241C55.8735 8.54787 55.9223 8.55851 55.9672 8.57906C56.0121 8.59962 56.052 8.6296 56.0843 8.66697C56.1165 8.70435 56.1404 8.74824 56.1541 8.79565C56.1679 8.84306 56.1713 8.89288 56.1641 8.94172L55.1636 15.716C55.0753 16.2453 55.2959 16.4879 55.8472 16.4879C56.0135 16.4868 56.1793 16.4699 56.3423 16.4374C56.396 16.4272 56.4514 16.43 56.5039 16.4455C56.5563 16.461 56.6043 16.4888 56.6439 16.5265C56.6835 16.5643 56.7135 16.6109 56.7315 16.6626C56.7494 16.7142 56.7549 16.7694 56.7473 16.8235Z" fill="#000083"></path><path d="M11.1842 19.7289C9.51486 15.5537 4.2163 14.3683 3.17714 14.1735C3.12952 14.1646 3.08721 14.1376 3.05911 14.0982C3.03101 14.0587 3.01933 14.0099 3.02652 13.962L4.52985 3.98564C3.69011 3.89896 2.84536 3.87097 2.00173 3.90187C1.95892 3.90431 1.91825 3.92143 1.88659 3.95036C1.85494 3.97929 1.83424 4.01826 1.82797 4.06068L0.00216784 16.1772C-0.00197415 16.2041 -0.000166702 16.2316 0.00746984 16.2578C0.0151064 16.2839 0.0283839 16.308 0.0463643 16.3285C0.0643447 16.349 0.0865999 16.3652 0.111546 16.3761C0.136493 16.3871 0.163523 16.3924 0.190749 16.3917C1.51287 16.3595 8.35846 16.3576 10.3488 19.6773C10.391 19.7489 10.4557 19.8044 10.5328 19.8353C10.6099 19.8662 10.6951 19.8706 10.775 19.8478L11.1842 19.7289Z" fill="url(#paint0_linear_192_9205)"></path><path d="M11.9145 19.2904C11.4998 16.6254 8.3673 13.7953 8.3673 13.7953C7.43189 12.657 8.21541 11.0759 8.59789 10.4455C8.61443 10.4183 8.62372 10.3873 8.62485 10.3555C8.62598 10.3236 8.61892 10.2921 8.60435 10.2637C8.58978 10.2354 8.56819 10.2113 8.54164 10.1937C8.51509 10.1761 8.48447 10.1657 8.45271 10.1633C7.85715 10.1173 6.6531 9.85415 6.65354 8.4783C6.65483 8.36056 6.66488 8.24307 6.68361 8.12682L7.24825 4.36843L7.2474 4.36829C6.66335 4.25724 6.08044 4.16637 5.51838 4.09472L5.5116 4.09385C5.17518 4.05104 4.84652 4.01508 4.5297 3.98581L4.52883 3.98572L3.02551 13.9621C3.01832 14.01 3.03 14.0588 3.0581 14.0983C3.08619 14.1377 3.12851 14.1647 3.17613 14.1736C4.21529 14.3683 9.51384 15.5538 11.1832 19.729L11.6498 19.5935C11.7183 19.5736 11.7797 19.5344 11.8267 19.4807C11.8737 19.427 11.9043 19.361 11.9149 19.2904L11.9776 18.8743C11.9365 19.1449 11.9145 19.2904 11.9145 19.2904Z" fill="url(#paint1_linear_192_9205)"></path><path d="M5.51195 4.09377L5.51873 4.09462C6.08079 4.16627 6.6637 4.25715 7.24775 4.3682L7.24861 4.36833L7.60281 2.01069C6.76409 1.8041 5.90609 1.6856 5.04277 1.65712C4.99767 1.6565 4.9539 1.67228 4.91958 1.70154C4.88526 1.7308 4.86274 1.77153 4.85621 1.81616L4.5293 3.98563L4.53016 3.98571C4.84699 4.01497 5.17553 4.05096 5.51195 4.09377Z" fill="#22B5F0"></path><path d="M13.5596 8.38165C13.8896 6.27362 10.5561 4.99726 7.24901 4.36835L6.68437 8.12674C6.66564 8.24298 6.65559 8.36047 6.6543 8.47821C6.65387 9.85407 7.85791 10.1172 8.45347 10.1632C8.48523 10.1656 8.51585 10.1761 8.5424 10.1936C8.56895 10.2112 8.59054 10.2353 8.60511 10.2637C8.61968 10.292 8.62674 10.3236 8.62561 10.3554C8.62448 10.3872 8.61521 10.4182 8.59867 10.4454C8.21619 11.0758 7.43267 12.6569 8.36808 13.7952C8.36808 13.7952 11.5006 16.6253 11.9152 19.2903C11.9152 19.2903 12.7138 14.0481 13.6681 7.66146L13.5596 8.38165Z" fill="url(#paint2_linear_192_9205)"></path><path d="M13.6685 7.66066C14.524 1.93554 9.22044 0.286109 8.11197 0.00571611C8.0867 -0.000688759 8.06035 -0.00172584 8.03465 0.00267891C8.00895 0.00708366 7.98447 0.0168274 7.96277 0.0312836C7.94107 0.0457397 7.92264 0.0645887 7.90868 0.0866077C7.89471 0.108627 7.88552 0.133329 7.88169 0.159121L7.60352 2.01071C10.6865 2.74712 14.1223 4.62938 13.6685 7.66066Z" fill="url(#paint3_linear_192_9205)"></path><path d="M7.6042 2.01074L7.25 4.36839C10.5571 4.99731 13.8906 6.2737 13.5606 8.38172L13.6692 7.66069C14.123 4.62941 10.6872 2.74715 7.6042 2.01074Z" fill="url(#paint4_linear_192_9205)"></path><defs><linearGradient id="paint0_linear_192_9205" x1="6.19501" y1="19.18" x2="-0.18052" y2="4.47424" gradientUnits="userSpaceOnUse"><stop stop-color="#000083"></stop><stop offset="1" stop-color="#22B5F0"></stop></linearGradient><linearGradient id="paint1_linear_192_9205" x1="9.87966" y1="20.4518" x2="3.02418" y2="4.18833" gradientUnits="userSpaceOnUse"><stop stop-color="#000083"></stop><stop offset="0.08408" stop-color="#091C95"></stop><stop offset="0.25492" stop-color="#1850B5"></stop><stop offset="0.42293" stop-color="#267BCF"></stop><stop offset="0.58458" stop-color="#309DE4"></stop><stop offset="0.73819" stop-color="#37B5F3"></stop><stop offset="0.88033" stop-color="#3BC3FC"></stop><stop offset="1" stop-color="#3DC8FF"></stop></linearGradient><linearGradient id="paint2_linear_192_9205" x1="16.2784" y1="17.193" x2="5.42271" y2="5.32186" gradientUnits="userSpaceOnUse"><stop stop-color="#2083E6"></stop><stop offset="0.03759" stop-color="#2488E8"></stop><stop offset="0.3881" stop-color="#44B0F4"></stop><stop offset="0.66581" stop-color="#58C9FC"></stop><stop offset="0.83453" stop-color="#5FD2FF"></stop></linearGradient><linearGradient id="paint3_linear_192_9205" x1="13.7615" y1="3.8303" x2="7.60351" y2="3.8303" gradientUnits="userSpaceOnUse"><stop stop-color="#099CD6"></stop><stop offset="0.04624" stop-color="#0EA1DB"></stop><stop offset="0.20514" stop-color="#19ACE7"></stop><stop offset="0.42511" stop-color="#20B3EE"></stop><stop offset="1" stop-color="#22B5F0"></stop></linearGradient><linearGradient id="paint4_linear_192_9205" x1="7.25" y1="5.19623" x2="13.7098" y2="5.19623" gradientUnits="userSpaceOnUse"><stop stop-color="#3DC8FF"></stop><stop offset="0.3969" stop-color="#36C3FB"></stop><stop offset="0.96322" stop-color="#23B6F1"></stop><stop offset="1" stop-color="#22B5F0"></stop></linearGradient></defs></svg>