<svg xmlns="http://www.w3.org/2000/svg" width="25" height="25" viewBox="0 0 25 25" fill="none"><path d="M12.4904 2.06982C16.0616 2.06982 18.4854 2.16659 20.0448 2.26795C21.4631 2.36014 22.5406 3.46694 22.6588 4.88336C22.7731 6.25389 22.8877 7.98881 22.89 9.45648C22.8924 11.024 22.7666 12.8964 22.6485 14.3041C22.541 15.5858 21.6379 16.6307 20.3643 16.8099C18.909 17.0147 16.6455 17.2297 13.4325 17.2648C13.1334 17.2681 13.2161 17.2698 12.9004 17.2698C12.9004 17.2698 11.6193 18.7659 9.90059 20.2698C7.93537 21.9894 6.50043 22.8698 6.50043 22.8698C6.50043 22.8698 6.70059 21.4193 6.70059 19.8698C6.70059 18.8315 6.61069 17.8884 6.55139 17.3792C6.5248 17.1509 6.33024 16.9831 6.10043 16.9831C5.55185 16.9276 5.07195 16.8685 4.65747 16.8103C3.38226 16.631 2.47508 15.5846 2.36439 14.3018C2.24296 12.8943 2.11255 11.0231 2.11011 9.45648C2.10783 7.98795 2.21809 6.25185 2.32914 4.88094C2.44378 3.46568 3.51742 2.36028 4.93435 2.2681C6.49333 2.16668 8.91749 2.06982 12.4904 2.06982Z" fill="#5D5D85" fill-opacity="0.1"></path><path fill-rule="evenodd" clip-rule="evenodd" d="M4.88067 1.46949C6.4599 1.36676 8.90167 1.26953 12.4887 1.26953C16.0739 1.26953 18.5153 1.36666 20.0949 1.46934C21.9277 1.58847 23.306 3.02483 23.4555 4.8178C23.5704 6.19488 23.6871 7.95553 23.6895 9.45619C23.692 11.0586 23.5638 12.9582 23.4452 14.3719C23.3095 15.9897 22.1536 17.3659 20.4764 17.6018C18.9844 17.8117 16.6865 18.029 13.4419 18.0645C13.3591 18.0654 13.3059 18.0662 13.2639 18.0669C13.1126 18.2354 12.8951 18.4733 12.6243 18.7577C12.078 19.3315 11.3102 20.0995 10.4274 20.8719C9.42337 21.7505 8.55317 22.4161 7.93107 22.8639C7.61993 23.0879 7.37057 23.2575 7.19722 23.3723C7.11054 23.4297 7.04284 23.4734 6.9959 23.5033C6.97242 23.5183 6.95414 23.5298 6.94126 23.5378L6.92602 23.5473L6.9215 23.5501L6.91947 23.5513C6.91938 23.5514 6.91906 23.5516 6.49991 22.8695L6.91906 23.5516C6.65543 23.7133 6.3219 23.7084 6.06269 23.5388C5.80351 23.3693 5.66515 23.0656 5.7074 22.7591C5.7074 22.7591 5.70741 22.759 5.7074 22.7591L5.70774 22.7566L5.70916 22.746C5.71046 22.7363 5.71244 22.7212 5.715 22.7012C5.72013 22.6612 5.72759 22.6014 5.73662 22.5244C5.75467 22.3702 5.77892 22.1477 5.80321 21.8777C5.85195 21.3358 5.90007 20.6112 5.90007 19.8683C5.90007 19.0407 5.84037 18.2728 5.78731 17.7545C5.32439 17.7052 4.91157 17.6535 4.54682 17.6022C2.86763 17.3662 1.70655 15.9883 1.56684 14.369C1.44489 12.9556 1.31209 11.0574 1.3096 9.45619C1.30726 7.95437 1.41965 6.19233 1.53124 4.81482C1.67637 3.02318 3.04966 1.58861 4.88067 1.46949ZM7.45693 21.2249C7.9868 20.8268 8.6418 20.3067 9.37274 19.6671C10.2087 18.9356 10.9408 18.2037 11.4647 17.6534C11.7262 17.3788 11.9347 17.1506 12.0771 16.992C12.1483 16.9127 12.2029 16.8508 12.2392 16.8093C12.2574 16.7885 12.271 16.7728 12.2799 16.7626L12.2895 16.7514L12.2917 16.7489C12.4417 16.5738 12.6604 16.4717 12.8911 16.4696L13.422 16.4646C13.4221 16.4646 13.4222 16.4646 13.4224 16.4646C16.6037 16.4298 18.8326 16.217 20.2511 16.0174C21.1211 15.895 21.7715 15.1813 21.8508 14.2357C21.9684 12.834 22.0918 10.9888 22.0895 9.45619C22.0872 8.02151 21.9748 6.31232 21.861 4.94833C21.7743 3.90846 20.9975 3.13122 19.9936 3.06597C18.4545 2.96592 16.0483 2.86953 12.4912 2.86953C8.93229 2.86953 6.52574 2.96602 4.98701 3.06612C3.98415 3.13136 3.21017 3.9076 3.12602 4.94647C3.0155 6.31078 2.90737 8.02094 2.9096 9.45619C2.91198 10.9883 3.04 12.8324 3.16092 14.2339C3.24258 15.1804 3.89586 15.8953 4.76709 16.0178C5.16354 16.0735 5.62319 16.1302 6.1491 16.1838C6.75069 16.2078 7.27235 16.6595 7.34551 17.2876C7.40682 17.814 7.50007 18.7904 7.50007 19.8708C7.50007 20.3446 7.48214 20.8078 7.45693 21.2249Z" fill="#5D5D85"></path><path fill-rule="evenodd" clip-rule="evenodd" d="M6.90039 11.2697C6.90039 10.8279 7.25856 10.4697 7.70039 10.4697L13.3004 10.4697C13.7422 10.4697 14.1004 10.8279 14.1004 11.2697C14.1004 11.7116 13.7422 12.0697 13.3004 12.0697L7.70039 12.0697C7.25856 12.0697 6.90039 11.7116 6.90039 11.2697Z" fill="#5D5D85"></path><path fill-rule="evenodd" clip-rule="evenodd" d="M6.90039 7.26973C6.90039 6.8279 7.25856 6.46973 7.70039 6.46973L17.3004 6.46973C17.7422 6.46973 18.1004 6.8279 18.1004 7.26973C18.1004 7.71155 17.7422 8.06973 17.3004 8.06973L7.70039 8.06973C7.25856 8.06973 6.90039 7.71155 6.90039 7.26973Z" fill="#5D5D85"></path></svg>