<svg xmlns="http://www.w3.org/2000/svg" width="25" height="25" viewBox="0 0 25 25" fill="none"><path d="M21.8175 20.6005C22.2848 19.3418 22.8996 16.9673 22.8996 13.1853C22.8996 12.048 22.6996 9.26973 22.6996 9.26973C22.6996 9.26973 19.0996 8.46973 12.4996 8.46973C5.89961 8.46973 2.09963 9.26973 2.09963 9.26973L2.09961 13.1853C2.09961 17.0418 2.73884 19.4128 3.20922 20.6354C3.48114 21.3422 4.03836 21.8714 4.76541 22.0833C5.95635 22.4303 8.29458 22.8697 12.4996 22.8697C16.5931 22.8697 18.9175 22.4724 20.1366 22.1459C20.926 21.9345 21.533 21.3666 21.8175 20.6005Z" fill="#5D5D85" fill-opacity="0.1"></path><path fill-rule="evenodd" clip-rule="evenodd" d="M12.4998 4.46963C9.89012 4.46963 7.84707 4.58515 6.34091 4.72233C4.63604 4.87761 3.35245 6.13806 3.17504 7.83496C3.15915 7.98688 3.14354 8.14396 3.12833 8.30617C3.57695 8.23744 4.16463 8.15599 4.88097 8.07473C6.6707 7.87169 9.26444 7.66963 12.4998 7.66963C15.7352 7.66963 18.3289 7.87169 20.1186 8.07473C20.835 8.15599 21.4227 8.23744 21.8713 8.30617C21.8561 8.14396 21.8405 7.98688 21.8246 7.83496C21.6472 6.13806 20.3636 4.87761 18.6587 4.72233C17.1525 4.58515 15.1095 4.46963 12.4998 4.46963ZM21.9968 9.94623C21.9732 9.94232 21.9488 9.93832 21.9238 9.93425C21.4748 9.86121 20.8063 9.763 19.9383 9.66453C18.2021 9.46757 15.6689 9.26963 12.4998 9.26963C9.33074 9.26963 6.79749 9.46757 5.06133 9.66453C4.19332 9.763 3.52477 9.86121 3.07586 9.93425C3.05081 9.93832 3.02645 9.94232 3.00277 9.94623C2.94029 10.9839 2.8998 12.1662 2.8998 13.4878C2.8998 15.8048 3.02425 17.6233 3.17294 18.9691C3.34484 20.5251 4.50809 21.6601 6.07718 21.8083C7.5677 21.949 9.67046 22.0696 12.4998 22.0696C15.3291 22.0696 17.4319 21.949 18.9224 21.8083C20.4915 21.6601 21.6548 20.5251 21.8267 18.9691C21.9754 17.6233 22.0998 15.8048 22.0998 13.4878C22.0998 12.1662 22.0593 10.9839 21.9968 9.94623ZM6.19578 3.12893C7.75136 2.98724 9.84285 2.86963 12.4998 2.86963C15.1568 2.86963 17.2482 2.98724 18.8038 3.12893C21.2639 3.353 23.1584 5.20596 23.4159 7.66858C23.4649 8.13738 23.5112 8.65215 23.5517 9.21196C23.6396 10.4279 23.6998 11.8563 23.6998 13.4878C23.6998 15.8622 23.5723 17.7393 23.417 19.1448C23.1606 21.4653 21.3866 23.1827 19.0728 23.4012C17.5275 23.5471 15.3743 23.6696 12.4998 23.6696C9.62528 23.6696 7.47206 23.5471 5.92676 23.4012C3.61303 23.1827 1.83899 21.4653 1.58262 19.1448C1.42734 17.7393 1.2998 15.8622 1.2998 13.4878C1.2998 11.8563 1.36002 10.4279 1.44791 9.21196C1.48837 8.65215 1.53469 8.13738 1.58371 7.66858C1.84119 5.20596 3.73569 3.353 6.19578 3.12893Z" fill="#5D5D85"></path><path fill-rule="evenodd" clip-rule="evenodd" d="M7.72946 2.10794C7.72945 2.10801 7.72946 2.10787 7.72946 2.10794C7.75054 1.66691 7.41029 1.29192 6.9692 1.27049C6.52789 1.24905 6.15276 1.58942 6.13132 2.03073L6.92546 2.06931C6.13132 2.03073 6.13133 2.03063 6.13132 2.03073L6.13123 2.03259L6.13111 2.03536L6.13074 2.0438L6.12959 2.07345C6.12864 2.09931 6.12737 2.13808 6.12587 2.19304C6.12287 2.30288 6.11896 2.47824 6.11508 2.74542C6.10731 3.27965 6.09961 4.18374 6.09961 5.66955C6.09961 6.11138 6.45778 6.46955 6.89961 6.46955C7.34144 6.46955 7.69961 6.11138 7.69961 5.66955C7.69961 4.18868 7.70729 3.29278 7.71491 2.76867C7.71872 2.50669 7.7225 2.3383 7.72527 2.23668C7.72666 2.18591 7.72779 2.15203 7.72853 2.13166L7.72933 2.11097L7.72946 2.10794ZM18.03 1.27049C18.4713 1.24905 18.8465 1.58942 18.8679 2.03073L18.0688 2.06955C18.8679 2.03073 18.8679 2.03063 18.8679 2.03073L18.868 2.03259L18.8681 2.03536L18.8685 2.0438L18.8696 2.07345C18.8706 2.09931 18.8719 2.13808 18.8734 2.19304C18.8763 2.30288 18.8803 2.47824 18.8841 2.74542C18.8919 3.27965 18.8996 4.18374 18.8996 5.66955C18.8996 6.11138 18.5414 6.46955 18.0996 6.46955C17.6578 6.46955 17.2996 6.11138 17.2996 5.66955C17.2996 4.18868 17.2919 3.29278 17.2843 2.76867C17.2805 2.50669 17.2767 2.3383 17.2739 2.23668C17.2726 2.18591 17.2714 2.15203 17.2707 2.13166L17.2699 2.11097L17.2698 2.10837C17.2483 1.66706 17.5887 1.29193 18.03 1.27049Z" fill="#5D5D85"></path><path fill-rule="evenodd" clip-rule="evenodd" d="M12.5 18.6699C10.8431 18.6699 9.5 17.3268 9.5 15.6699C9.5 14.0131 10.8431 12.6699 12.5 12.6699C14.1569 12.6699 15.5 14.0131 15.5 15.6699C15.5 17.3268 14.1569 18.6699 12.5 18.6699ZM10.7 15.6699C10.7 16.664 11.5059 17.4699 12.5 17.4699C13.4941 17.4699 14.3 16.664 14.3 15.6699C14.3 14.6758 13.4941 13.8699 12.5 13.8699C11.5059 13.8699 10.7 14.6758 10.7 15.6699Z" fill="currentColor"></path></svg>