<svg xmlns="http://www.w3.org/2000/svg" width="25" height="25" viewBox="0 0 25 25" fill="none"><path d="M22.6586 15.7337C22.7935 14.5784 22.8996 13.0427 22.8996 11.0697C22.8996 9.11475 22.7955 7.53706 22.6623 6.3189C22.4444 4.32512 20.8854 2.8904 18.8872 2.71766C17.3418 2.58406 15.2235 2.46973 12.4996 2.46973C9.77569 2.46973 7.65745 2.58406 6.11205 2.71766C4.11385 2.8904 2.55482 4.32512 2.3369 6.3189C2.20376 7.53706 2.09961 9.11475 2.09961 11.0697C2.09961 13.0427 2.20569 14.5784 2.34059 15.7337C2.55378 17.5593 3.9725 18.843 5.80295 19.0093C7.33192 19.1482 9.5209 19.2697 12.4996 19.2697C15.4783 19.2697 17.6673 19.1482 19.1963 19.0093C21.0267 18.843 22.4454 17.5593 22.6586 15.7337Z" fill="#5D5D85" fill-opacity="0.1"></path><path fill-rule="evenodd" clip-rule="evenodd" d="M12.4998 3.26992C9.79829 3.26992 7.70305 3.38331 6.18115 3.51488C4.53933 3.65681 3.30618 4.81568 3.13236 6.40602C3.00243 7.59475 2.8998 9.14341 2.8998 11.0699C2.8998 13.0143 3.00435 14.5189 3.13539 15.6411C3.30133 17.0621 4.39257 18.078 5.87552 18.2128C7.37801 18.3492 9.5427 18.4699 12.4998 18.4699C15.4569 18.4699 17.6216 18.3492 19.1241 18.2128C20.607 18.078 21.6983 17.0621 21.8642 15.6411C21.9953 14.5189 22.0998 13.0143 22.0998 11.0699C22.0998 9.14341 21.9972 7.59475 21.8673 6.40602C21.6934 4.81568 20.4603 3.65681 18.8185 3.51488C17.2966 3.38331 15.2013 3.26992 12.4998 3.26992ZM6.04334 1.92082C7.61224 1.78519 9.75348 1.66992 12.4998 1.66992C15.2461 1.66992 17.3874 1.78519 18.9563 1.92082C21.3109 2.12438 23.1958 3.83495 23.4578 6.23218C23.5941 7.47976 23.6998 9.08648 23.6998 11.0699C23.6998 13.0716 23.5922 14.6383 23.4534 15.8267C23.193 18.0568 21.4468 19.6083 19.2688 19.8062C17.7134 19.9475 15.5001 20.0699 12.4998 20.0699C9.49949 20.0699 7.28622 19.9475 5.73077 19.8062C3.55281 19.6083 1.80661 18.0568 1.54619 15.8267C1.40742 14.6383 1.2998 13.0716 1.2998 11.0699C1.2998 9.08648 1.40547 7.47976 1.54183 6.23218C1.80384 3.83495 3.68876 2.12438 6.04334 1.92082Z" fill="#5D5D85"></path><path d="M18.4996 15.6699C18.2787 15.6699 18.0996 15.4908 18.0996 15.2699C18.0996 15.049 18.2787 14.8699 18.4996 14.8699C18.7205 14.8699 18.8996 15.049 18.8996 15.2699C18.8996 15.4908 18.7205 15.6699 18.4996 15.6699Z" fill="#5D5D85"></path><path fill-rule="evenodd" clip-rule="evenodd" d="M18.4998 16.4697C17.8371 16.4697 17.2998 15.9325 17.2998 15.2697C17.2998 14.607 17.8371 14.0697 18.4998 14.0697C19.1625 14.0697 19.6998 14.607 19.6998 15.2697C19.6998 15.9325 19.1625 16.4697 18.4998 16.4697ZM18.8998 15.2697C18.8998 15.0488 18.7207 14.8697 18.4998 14.8697C18.2789 14.8697 18.0998 15.0488 18.0998 15.2697C18.0998 15.4906 18.2789 15.6697 18.4998 15.6697C18.7207 15.6697 18.8998 15.4906 18.8998 15.2697Z" fill="#5D5D85"></path><path fill-rule="evenodd" clip-rule="evenodd" d="M7.25069 21.4728C8.38377 21.3705 10.1078 21.2695 12.4996 21.2695C14.8913 21.2695 16.6154 21.3705 17.7484 21.4728C18.315 21.5239 18.7338 21.5754 19.0146 21.6148C19.1549 21.6345 19.2608 21.6511 19.3333 21.6632C19.3695 21.6693 19.3974 21.6742 19.4172 21.6777L19.4406 21.682L19.4478 21.6834L19.4503 21.6839L19.4516 21.6841C19.4518 21.6841 19.452 21.6842 19.2996 22.4695L19.4516 21.6841C19.8853 21.7683 20.1691 22.1882 20.0849 22.6219C20.0008 23.0553 19.5816 23.3386 19.1482 23.2551C19.1482 23.2551 19.1483 23.2551 19.1482 23.2551L19.1477 23.255C19.1476 23.255 19.1473 23.2549 19.1472 23.2549L19.1464 23.2547L19.1334 23.2524C19.1206 23.2501 19.0996 23.2464 19.0702 23.2415C19.0115 23.2317 18.9192 23.2171 18.7923 23.1993C18.5384 23.1637 18.1457 23.1151 17.6046 23.0663C16.5223 22.9686 14.8464 22.8695 12.4996 22.8695C10.1528 22.8695 8.47683 22.9686 7.39455 23.0663C6.85342 23.1151 6.46074 23.1637 6.20685 23.1993C6.07991 23.2171 5.98767 23.2317 5.92892 23.2415C5.89955 23.2464 5.87854 23.2501 5.86577 23.2524L5.85275 23.2547L5.85195 23.2549C5.85185 23.2549 5.85205 23.2549 5.85195 23.2549M5.85195 23.2549C5.41832 23.3389 4.99835 23.0556 4.91421 22.6219C4.83005 22.1882 5.11344 21.7683 5.54718 21.6842L5.69956 22.4695C5.54718 21.6842 5.547 21.6842 5.54718 21.6842L5.54887 21.6839L5.55132 21.6834L5.5585 21.682L5.58198 21.6777C5.60171 21.6742 5.62963 21.6693 5.66588 21.6632C5.73837 21.6511 5.8442 21.6345 5.98456 21.6148C6.26528 21.5754 6.68413 21.5239 7.25069 21.4728" fill="#5D5D85"></path></svg>