<svg xmlns="http://www.w3.org/2000/svg" width="25" height="25" viewBox="0 0 25 25" fill="none"><path d="M10.8996 6.46982C10.8996 6.00123 10.8899 5.575 10.8739 5.19021C10.8016 3.45934 9.51009 2.16787 7.77923 2.09557C7.39443 2.0795 6.9682 2.06982 6.49961 2.06982C6.03102 2.06982 5.60479 2.0795 5.21999 2.09557C3.48913 2.16787 2.19765 3.45934 2.12535 5.19021C2.10928 5.575 2.09961 6.00123 2.09961 6.46982C2.09961 6.9856 2.11133 7.45004 2.1304 7.8644C2.20719 9.53268 3.43436 10.7705 5.10289 10.8417C5.51384 10.8592 5.97812 10.8698 6.49961 10.8698C7.0211 10.8698 7.48538 10.8592 7.89633 10.8417C9.56486 10.7705 10.792 9.53268 10.8688 7.8644C10.8879 7.45004 10.8996 6.9856 10.8996 6.46982Z" fill="#5D5D85" fill-opacity="0.1"></path><path fill-rule="evenodd" clip-rule="evenodd" d="M6.4998 2.86953C6.04222 2.86953 5.62713 2.87898 5.25358 2.89458C3.93831 2.94952 2.97979 3.90804 2.92485 5.2233C2.90925 5.59685 2.8998 6.01195 2.8998 6.46953C2.8998 6.97318 2.91125 7.42536 2.92975 7.82732C2.98772 9.08675 3.88774 9.98882 5.13716 10.0421C5.53629 10.0591 5.98919 10.0695 6.4998 10.0695C7.01042 10.0695 7.46332 10.0591 7.86245 10.0421C9.11187 9.98882 10.0119 9.08675 10.0699 7.82732C10.0884 7.42536 10.0998 6.97318 10.0998 6.46953C10.0998 6.01195 10.0904 5.59685 10.0748 5.2233C10.0198 3.90804 9.0613 2.94952 7.74603 2.89458C7.37249 2.87898 6.95739 2.86953 6.4998 2.86953ZM5.1868 1.29597C5.58284 1.27943 6.0202 1.26953 6.4998 1.26953C6.97941 1.26953 7.41677 1.27943 7.81281 1.29597C9.95927 1.38563 11.5837 3.01006 11.6734 5.15653C11.6899 5.55257 11.6998 5.98993 11.6998 6.46953C11.6998 6.99742 11.6878 7.47413 11.6682 7.9009C11.5726 9.97802 10.0182 11.5516 7.9306 11.6406C7.50782 11.6587 7.03218 11.6695 6.4998 11.6695C5.96743 11.6695 5.49179 11.6587 5.06901 11.6406C2.98137 11.5516 1.42705 9.97802 1.33144 7.90089C1.3118 7.47413 1.2998 6.99742 1.2998 6.46953C1.2998 5.98993 1.3097 5.55257 1.32625 5.15653C1.4159 3.01006 3.04034 1.38563 5.1868 1.29597Z" fill="#5D5D85"></path><path d="M22.8996 6.46982C22.8996 6.00123 22.8899 5.575 22.8739 5.19021C22.8016 3.45934 21.5101 2.16787 19.7792 2.09557C19.3944 2.0795 18.9682 2.06982 18.4996 2.06982C18.031 2.06982 17.6048 2.0795 17.22 2.09557C15.4891 2.16787 14.1977 3.45934 14.1254 5.19021C14.1093 5.575 14.0996 6.00123 14.0996 6.46982C14.0996 6.9856 14.1113 7.45004 14.1304 7.8644C14.2072 9.53268 15.4344 10.7705 17.1029 10.8417C17.5138 10.8592 17.9781 10.8698 18.4996 10.8698C19.0211 10.8698 19.4854 10.8592 19.8963 10.8417C21.5649 10.7705 22.792 9.53268 22.8688 7.8644C22.8879 7.45004 22.8996 6.9856 22.8996 6.46982Z" fill="#5D5D85" fill-opacity="0.1"></path><path fill-rule="evenodd" clip-rule="evenodd" d="M18.4998 2.86953C18.0422 2.86953 17.6271 2.87898 17.2536 2.89458C15.9383 2.94952 14.9798 3.90804 14.9249 5.2233C14.9092 5.59685 14.8998 6.01195 14.8998 6.46953C14.8998 6.97318 14.9112 7.42536 14.9297 7.82732C14.9877 9.08675 15.8877 9.98882 17.1372 10.0421C17.5363 10.0591 17.9892 10.0695 18.4998 10.0695C19.0104 10.0695 19.4633 10.0591 19.8625 10.0421C21.1119 9.98882 22.0119 9.08675 22.0699 7.82732C22.0884 7.42536 22.0998 6.97318 22.0998 6.46953C22.0998 6.01195 22.0904 5.59685 22.0748 5.2233C22.0198 3.90804 21.0613 2.94952 19.746 2.89458C19.3725 2.87898 18.9574 2.86953 18.4998 2.86953ZM17.1868 1.29597C17.5828 1.27943 18.0202 1.26953 18.4998 1.26953C18.9794 1.26953 19.4168 1.27943 19.8128 1.29597C21.9593 1.38563 23.5837 3.01006 23.6734 5.15653C23.6899 5.55257 23.6998 5.98993 23.6998 6.46953C23.6998 6.99742 23.6878 7.47413 23.6682 7.9009C23.5726 9.97802 22.0182 11.5516 19.9306 11.6406C19.5078 11.6587 19.0322 11.6695 18.4998 11.6695C17.9674 11.6695 17.4918 11.6587 17.069 11.6406C14.9814 11.5516 13.4271 9.97802 13.3314 7.90089C13.3118 7.47413 13.2998 6.99742 13.2998 6.46953C13.2998 5.98993 13.3097 5.55257 13.3262 5.15653C13.4159 3.01006 15.0403 1.38563 17.1868 1.29597Z" fill="#5D5D85"></path><path d="M10.8996 18.4698C10.8996 18.0012 10.8899 17.575 10.8739 17.1902C10.8016 15.4593 9.51009 14.1679 7.77923 14.0956C7.39443 14.0795 6.9682 14.0698 6.49961 14.0698C6.03102 14.0698 5.60479 14.0795 5.21999 14.0956C3.48913 14.1679 2.19765 15.4593 2.12535 17.1902C2.10928 17.575 2.09961 18.0012 2.09961 18.4698C2.09961 18.9856 2.11133 19.45 2.1304 19.8644C2.20719 21.5327 3.43436 22.7705 5.10289 22.8417C5.51384 22.8592 5.97812 22.8698 6.49961 22.8698C7.0211 22.8698 7.48538 22.8592 7.89633 22.8417C9.56486 22.7705 10.792 21.5327 10.8688 19.8644C10.8879 19.45 10.8996 18.9856 10.8996 18.4698Z" fill="#5D5D85" fill-opacity="0.1"></path><path fill-rule="evenodd" clip-rule="evenodd" d="M6.4998 14.8695C6.04222 14.8695 5.62713 14.879 5.25358 14.8946C3.93831 14.9495 2.97979 15.908 2.92485 17.2233C2.90925 17.5969 2.8998 18.0119 2.8998 18.4695C2.8998 18.9732 2.91125 19.4254 2.92975 19.8273C2.98772 21.0868 3.88774 21.9888 5.13716 22.0421C5.53629 22.0591 5.98919 22.0695 6.4998 22.0695C7.01042 22.0695 7.46332 22.0591 7.86245 22.0421C9.11187 21.9888 10.0119 21.0868 10.0699 19.8273C10.0884 19.4254 10.0998 18.9732 10.0998 18.4695C10.0998 18.0119 10.0904 17.5969 10.0748 17.2233C10.0198 15.908 9.0613 14.9495 7.74603 14.8946C7.37249 14.879 6.95739 14.8695 6.4998 14.8695ZM5.1868 13.296C5.58284 13.2794 6.0202 13.2695 6.4998 13.2695C6.97941 13.2695 7.41677 13.2794 7.81281 13.296C9.95927 13.3856 11.5837 15.0101 11.6734 17.1565C11.6899 17.5526 11.6998 17.9899 11.6998 18.4695C11.6998 18.9974 11.6878 19.4741 11.6682 19.9009C11.5726 21.978 10.0182 23.5516 7.9306 23.6406C7.50782 23.6587 7.03218 23.6695 6.4998 23.6695C5.96743 23.6695 5.49179 23.6587 5.06901 23.6406C2.98137 23.5516 1.42705 21.978 1.33144 19.9009C1.3118 19.4741 1.2998 18.9974 1.2998 18.4695C1.2998 17.9899 1.3097 17.5526 1.32625 17.1565C1.4159 15.0101 3.04034 13.3856 5.1868 13.296Z" fill="#5D5D85"></path><path d="M22.8996 18.4698C22.8996 18.0012 22.8899 17.575 22.8739 17.1902C22.8016 15.4593 21.5101 14.1679 19.7792 14.0956C19.3944 14.0795 18.9682 14.0698 18.4996 14.0698C18.031 14.0698 17.6048 14.0795 17.22 14.0956C15.4891 14.1679 14.1977 15.4593 14.1254 17.1902C14.1093 17.575 14.0996 18.0012 14.0996 18.4698C14.0996 18.9856 14.1113 19.45 14.1304 19.8644C14.2072 21.5327 15.4344 22.7705 17.1029 22.8417C17.5138 22.8592 17.9781 22.8698 18.4996 22.8698C19.0211 22.8698 19.4854 22.8592 19.8963 22.8417C21.5649 22.7705 22.792 21.5327 22.8688 19.8644C22.8879 19.45 22.8996 18.9856 22.8996 18.4698Z" fill="#5D5D85" fill-opacity="0.1"></path><path fill-rule="evenodd" clip-rule="evenodd" d="M18.4998 14.8695C18.0422 14.8695 17.6271 14.879 17.2536 14.8946C15.9383 14.9495 14.9798 15.908 14.9249 17.2233C14.9092 17.5969 14.8998 18.0119 14.8998 18.4695C14.8998 18.9732 14.9112 19.4254 14.9297 19.8273C14.9877 21.0868 15.8877 21.9888 17.1372 22.0421C17.5363 22.0591 17.9892 22.0695 18.4998 22.0695C19.0104 22.0695 19.4633 22.0591 19.8625 22.0421C21.1119 21.9888 22.0119 21.0868 22.0699 19.8273C22.0884 19.4254 22.0998 18.9732 22.0998 18.4695C22.0998 18.0119 22.0904 17.5968 22.0748 17.2233C22.0198 15.908 21.0613 14.9495 19.746 14.8946C19.3725 14.879 18.9574 14.8695 18.4998 14.8695ZM17.1868 13.296C17.5828 13.2794 18.0202 13.2695 18.4998 13.2695C18.9794 13.2695 19.4168 13.2794 19.8128 13.296C21.9593 13.3856 23.5837 15.0101 23.6734 17.1565C23.6899 17.5526 23.6998 17.9899 23.6998 18.4695C23.6998 18.9974 23.6878 19.4741 23.6682 19.9009C23.5726 21.978 22.0182 23.5516 19.9306 23.6406C19.5078 23.6587 19.0322 23.6695 18.4998 23.6695C17.9674 23.6695 17.4918 23.6587 17.069 23.6406C14.9814 23.5516 13.4271 21.978 13.3314 19.9009C13.3118 19.4741 13.2998 18.9974 13.2998 18.4695C13.2998 17.9899 13.3097 17.5526 13.3262 17.1565C13.4159 15.0101 15.0403 13.3856 17.1868 13.296Z" fill="#5D5D85"></path></svg>