<?xml version="1.0" encoding="UTF-8"?>
<svg xmlns="http://www.w3.org/2000/svg" xmlns:xlink="http://www.w3.org/1999/xlink" width="48px" height="px" viewBox="0 0 48 48" version="1.1">
<g id="surface1">
<path style=" stroke:none;fill-rule:nonzero;fill:rgb(94.509804%,56.862748%,26.274511%);fill-opacity:1;" d="M 5.871094 4.953125 C 5.933594 4.953125 5.992188 4.953125 6.054688 4.953125 C 6.261719 4.953125 6.464844 4.953125 6.667969 4.953125 C 6.816406 4.953125 6.960938 4.949219 7.109375 4.949219 C 7.589844 4.949219 8.070312 4.949219 8.550781 4.945312 C 8.71875 4.945312 8.882812 4.945312 9.050781 4.945312 C 9.832031 4.945312 10.613281 4.941406 11.394531 4.941406 C 12.292969 4.941406 13.191406 4.9375 14.089844 4.933594 C 14.785156 4.929688 15.480469 4.929688 16.179688 4.929688 C 16.59375 4.929688 17.007812 4.929688 17.425781 4.925781 C 17.816406 4.925781 18.207031 4.921875 18.597656 4.925781 C 18.742188 4.925781 18.882812 4.925781 19.027344 4.921875 C 20.660156 4.910156 21.945312 5.296875 23.167969 6.414062 C 23.863281 7.140625 24.34375 8.050781 24.65625 9 C 24.75 9 24.84375 9 24.941406 9 C 27.222656 8.992188 29.503906 8.984375 31.785156 8.980469 C 32.890625 8.980469 33.992188 8.976562 35.097656 8.972656 C 36.058594 8.96875 37.019531 8.964844 37.980469 8.964844 C 38.492188 8.964844 39 8.964844 39.507812 8.960938 C 39.988281 8.957031 40.46875 8.957031 40.949219 8.957031 C 41.125 8.957031 41.300781 8.957031 41.476562 8.957031 C 42.65625 8.945312 43.699219 9.015625 44.710938 9.703125 C 44.792969 9.757812 44.875 9.808594 44.957031 9.863281 C 46.074219 10.671875 46.757812 11.792969 47.023438 13.140625 C 47.089844 13.582031 47.089844 14.019531 47.085938 14.460938 C 47.089844 14.566406 47.089844 14.667969 47.089844 14.773438 C 47.089844 15.113281 47.089844 15.453125 47.089844 15.796875 C 47.089844 16.039062 47.089844 16.285156 47.089844 16.53125 C 47.09375 17.125 47.09375 17.722656 47.09375 18.320312 C 47.09375 18.804688 47.09375 19.289062 47.09375 19.773438 C 47.097656 21.148438 47.097656 22.527344 47.097656 23.90625 C 47.097656 23.980469 47.097656 24.054688 47.097656 24.128906 C 47.097656 24.203125 47.097656 24.277344 47.097656 24.355469 C 47.097656 25.554688 47.097656 26.757812 47.101562 27.960938 C 47.105469 29.195312 47.105469 30.433594 47.105469 31.667969 C 47.105469 32.363281 47.105469 33.054688 47.109375 33.75 C 47.109375 34.402344 47.109375 35.054688 47.109375 35.707031 C 47.109375 35.945312 47.109375 36.183594 47.109375 36.421875 C 47.117188 38.367188 47.035156 40.117188 45.625 41.613281 C 44.660156 42.519531 43.4375 43.042969 42.109375 43.042969 C 42.015625 43.042969 42.015625 43.042969 41.917969 43.042969 C 41.703125 43.042969 41.492188 43.042969 41.277344 43.042969 C 41.125 43.042969 40.96875 43.046875 40.816406 43.046875 C 40.390625 43.046875 39.964844 43.046875 39.542969 43.046875 C 39.085938 43.046875 38.625 43.046875 38.167969 43.046875 C 37.167969 43.050781 36.167969 43.050781 35.167969 43.050781 C 34.542969 43.050781 33.917969 43.050781 33.292969 43.050781 C 31.5625 43.050781 29.832031 43.054688 28.101562 43.054688 C 27.933594 43.054688 27.933594 43.054688 27.765625 43.054688 C 27.65625 43.054688 27.542969 43.054688 27.429688 43.054688 C 27.203125 43.054688 26.980469 43.054688 26.753906 43.054688 C 26.585938 43.054688 26.585938 43.054688 26.417969 43.054688 C 24.609375 43.054688 22.800781 43.054688 20.992188 43.058594 C 19.136719 43.058594 17.28125 43.0625 15.425781 43.0625 C 14.382812 43.0625 13.339844 43.0625 12.300781 43.0625 C 11.410156 43.066406 10.523438 43.066406 9.636719 43.066406 C 9.183594 43.066406 8.730469 43.066406 8.28125 43.066406 C 7.863281 43.066406 7.449219 43.066406 7.035156 43.066406 C 6.886719 43.066406 6.734375 43.066406 6.585938 43.066406 C 4.914062 43.074219 3.605469 42.742188 2.371094 41.570312 C 1.238281 40.371094 0.910156 39.027344 0.914062 37.421875 C 0.910156 37.242188 0.910156 37.242188 0.910156 37.0625 C 0.910156 36.734375 0.910156 36.402344 0.910156 36.074219 C 0.910156 35.71875 0.910156 35.363281 0.910156 35.007812 C 0.90625 34.3125 0.90625 33.617188 0.90625 32.921875 C 0.90625 32.355469 0.90625 31.789062 0.90625 31.222656 C 0.902344 29.617188 0.902344 28.011719 0.902344 26.402344 C 0.902344 26.316406 0.902344 26.230469 0.902344 26.140625 C 0.902344 26.054688 0.902344 25.96875 0.902344 25.878906 C 0.902344 24.476562 0.902344 23.074219 0.898438 21.671875 C 0.894531 20.226562 0.894531 18.785156 0.894531 17.34375 C 0.894531 16.53125 0.894531 15.722656 0.890625 14.914062 C 0.890625 14.226562 0.890625 13.535156 0.890625 12.847656 C 0.890625 12.496094 0.890625 12.144531 0.890625 11.792969 C 0.882812 9.761719 0.890625 7.957031 2.371094 6.386719 C 3.332031 5.488281 4.554688 4.960938 5.871094 4.953125 Z M 3.679688 8.136719 C 3.003906 9.09375 2.984375 10.039062 2.988281 11.175781 C 2.988281 11.289062 2.988281 11.402344 2.988281 11.519531 C 2.988281 11.835938 2.984375 12.148438 2.988281 12.464844 C 2.988281 12.804688 2.984375 13.144531 2.984375 13.484375 C 2.984375 14.152344 2.984375 14.816406 2.984375 15.484375 C 2.984375 16.023438 2.984375 16.566406 2.984375 17.109375 C 2.984375 18.644531 2.984375 20.179688 2.984375 21.714844 C 2.984375 21.800781 2.984375 21.882812 2.984375 21.96875 C 2.984375 22.050781 2.984375 22.132812 2.984375 22.21875 C 2.984375 23.5625 2.980469 24.902344 2.980469 26.246094 C 2.980469 27.625 2.976562 29.007812 2.980469 30.386719 C 2.980469 31.160156 2.976562 31.933594 2.976562 32.707031 C 2.976562 33.367188 2.976562 34.027344 2.976562 34.6875 C 2.976562 35.023438 2.976562 35.359375 2.976562 35.695312 C 2.976562 36.058594 2.976562 36.425781 2.976562 36.789062 C 2.976562 36.894531 2.976562 37 2.976562 37.109375 C 2.980469 38.203125 3.078125 39.222656 3.851562 40.054688 C 4.582031 40.734375 5.253906 40.980469 6.253906 40.980469 C 6.316406 40.980469 6.378906 40.980469 6.441406 40.980469 C 6.652344 40.980469 6.859375 40.980469 7.070312 40.980469 C 7.222656 40.980469 7.371094 40.984375 7.523438 40.984375 C 7.941406 40.984375 8.355469 40.984375 8.773438 40.984375 C 9.222656 40.984375 9.671875 40.984375 10.117188 40.984375 C 11.101562 40.988281 12.082031 40.988281 13.0625 40.988281 C 13.675781 40.988281 14.289062 40.988281 14.902344 40.988281 C 16.597656 40.988281 18.292969 40.992188 19.988281 40.992188 C 20.152344 40.992188 20.152344 40.992188 20.320312 40.992188 C 20.480469 40.992188 20.480469 40.992188 20.648438 40.992188 C 20.867188 40.992188 21.089844 40.992188 21.308594 40.992188 C 21.417969 40.992188 21.527344 40.992188 21.640625 40.992188 C 23.414062 40.992188 25.1875 40.992188 26.960938 40.996094 C 28.777344 40.996094 30.597656 41 32.417969 41 C 33.441406 41 34.460938 41 35.484375 41 C 36.355469 41.003906 37.222656 41.003906 38.09375 41.003906 C 38.539062 41.003906 38.980469 41.003906 39.425781 41.003906 C 39.832031 41.003906 40.238281 41.003906 40.644531 41.003906 C 40.792969 41.003906 40.9375 41.003906 41.085938 41.003906 C 42.222656 41.011719 43.207031 40.945312 44.0625 40.125 C 44.867188 39.226562 45.015625 38.292969 45.011719 37.128906 C 45.011719 37.046875 45.011719 36.964844 45.011719 36.878906 C 45.015625 36.609375 45.015625 36.339844 45.011719 36.066406 C 45.015625 35.871094 45.015625 35.675781 45.015625 35.480469 C 45.015625 34.953125 45.015625 34.421875 45.015625 33.894531 C 45.015625 33.5625 45.015625 33.234375 45.015625 32.902344 C 45.015625 31.746094 45.015625 30.59375 45.015625 29.4375 C 45.015625 28.363281 45.019531 27.285156 45.019531 26.210938 C 45.019531 25.289062 45.023438 24.363281 45.019531 23.4375 C 45.019531 22.886719 45.023438 22.335938 45.023438 21.785156 C 45.023438 21.265625 45.023438 20.746094 45.023438 20.226562 C 45.023438 20.039062 45.023438 19.847656 45.023438 19.65625 C 45.054688 17.613281 45.054688 17.613281 44.101562 15.859375 C 43.324219 15.128906 42.324219 14.988281 41.296875 14.988281 C 41.230469 14.988281 41.164062 14.988281 41.09375 14.988281 C 40.867188 14.988281 40.644531 14.988281 40.417969 14.988281 C 40.257812 14.988281 40.09375 14.988281 39.933594 14.988281 C 39.585938 14.988281 39.238281 14.988281 38.890625 14.988281 C 38.339844 14.992188 37.789062 14.988281 37.238281 14.988281 C 37.148438 14.988281 37.054688 14.988281 36.957031 14.988281 C 36.769531 14.988281 36.578125 14.988281 36.386719 14.988281 C 35.109375 14.984375 33.828125 14.980469 32.550781 14.984375 C 31.683594 14.984375 30.820312 14.984375 29.957031 14.980469 C 29.5 14.980469 29.042969 14.976562 28.585938 14.980469 C 28.15625 14.980469 27.726562 14.980469 27.296875 14.976562 C 27.140625 14.976562 26.980469 14.976562 26.824219 14.980469 C 26.609375 14.980469 26.394531 14.980469 26.179688 14.976562 C 26.058594 14.976562 25.9375 14.976562 25.8125 14.976562 C 25.375 14.878906 25.28125 14.710938 25.03125 14.34375 C 24.917969 14.148438 24.816406 13.945312 24.714844 13.742188 C 24.6875 13.683594 24.660156 13.628906 24.632812 13.570312 C 24.570312 13.445312 24.511719 13.324219 24.453125 13.199219 C 24.355469 13.003906 24.261719 12.804688 24.164062 12.609375 C 23.890625 12.054688 23.621094 11.496094 23.351562 10.941406 C 23.183594 10.597656 23.019531 10.257812 22.847656 9.914062 C 22.785156 9.785156 22.722656 9.65625 22.660156 9.527344 C 22.175781 8.507812 21.632812 7.617188 20.535156 7.1875 C 20.140625 7.058594 19.800781 7.019531 19.386719 7.019531 C 19.207031 7.015625 19.207031 7.015625 19.023438 7.015625 C 18.890625 7.015625 18.757812 7.015625 18.625 7.015625 C 18.484375 7.015625 18.34375 7.015625 18.203125 7.015625 C 17.824219 7.011719 17.445312 7.011719 17.066406 7.011719 C 16.828125 7.011719 16.589844 7.011719 16.351562 7.011719 C 15.609375 7.011719 14.863281 7.007812 14.121094 7.007812 C 13.261719 7.007812 12.40625 7.007812 11.546875 7.003906 C 10.882812 7.003906 10.21875 7 9.558594 7 C 9.160156 7 8.765625 7 8.367188 7 C 7.996094 6.996094 7.625 6.996094 7.25 6.996094 C 7.113281 6.996094 6.976562 6.996094 6.839844 6.996094 C 5.515625 6.988281 4.621094 7.179688 3.679688 8.136719 Z M 25.78125 11.0625 C 25.917969 11.507812 26.097656 11.90625 26.308594 12.316406 C 26.355469 12.40625 26.355469 12.40625 26.402344 12.5 C 26.476562 12.644531 26.550781 12.792969 26.625 12.9375 C 26.746094 12.9375 26.746094 12.9375 26.871094 12.9375 C 28.84375 12.945312 30.820312 12.949219 32.796875 12.960938 C 33.75 12.964844 34.707031 12.96875 35.660156 12.96875 C 36.496094 12.972656 37.328125 12.976562 38.160156 12.980469 C 38.601562 12.980469 39.042969 12.984375 39.480469 12.984375 C 39.898438 12.984375 40.3125 12.988281 40.730469 12.988281 C 40.878906 12.992188 41.03125 12.992188 41.183594 12.992188 C 42.382812 12.988281 43.472656 13.097656 44.539062 13.6875 C 44.710938 13.796875 44.710938 13.796875 44.90625 13.78125 C 44.84375 12.886719 44.542969 12.316406 43.890625 11.695312 C 43.269531 11.1875 42.671875 11.050781 41.878906 11.050781 C 41.777344 11.050781 41.777344 11.050781 41.671875 11.050781 C 41.441406 11.050781 41.210938 11.050781 40.980469 11.050781 C 40.8125 11.050781 40.648438 11.050781 40.484375 11.050781 C 40.035156 11.050781 39.585938 11.050781 39.136719 11.054688 C 38.667969 11.054688 38.195312 11.054688 37.726562 11.054688 C 36.839844 11.054688 35.949219 11.054688 35.0625 11.054688 C 34.050781 11.058594 33.039062 11.058594 32.027344 11.058594 C 29.945312 11.058594 27.863281 11.058594 25.78125 11.0625 Z M 25.78125 11.0625 "/>
</g>
</svg>
