<?xml version="1.0" encoding="UTF-8"?>
<svg xmlns="http://www.w3.org/2000/svg" xmlns:xlink="http://www.w3.org/1999/xlink" width="48px" height="px" viewBox="0 0 48 48" version="1.1">
<g id="surface1">
<path style=" stroke:none;fill-rule:nonzero;fill:rgb(94.509804%,56.862748%,26.274511%);fill-opacity:1;" d="M 18.53125 16.03125 C 19.550781 16.84375 20.546875 17.738281 21.375 18.75 C 21.460938 18.851562 21.550781 18.953125 21.636719 19.054688 C 21.730469 19.164062 21.824219 19.273438 21.921875 19.382812 C 21.964844 19.433594 22.011719 19.488281 22.054688 19.539062 C 22.445312 20 22.644531 20.292969 22.621094 20.910156 C 22.574219 21.222656 22.457031 21.359375 22.21875 21.5625 C 21.855469 21.730469 21.578125 21.777344 21.1875 21.671875 C 20.699219 21.316406 20.339844 20.855469 19.964844 20.382812 C 17.890625 17.785156 15.164062 15.945312 11.824219 15.53125 C 9.355469 15.273438 7.019531 15.902344 5.074219 17.464844 C 4.84375 17.667969 4.625 17.875 4.40625 18.09375 C 4.347656 18.152344 4.289062 18.210938 4.230469 18.269531 C 2.613281 20.003906 1.972656 22.308594 2.050781 24.625 C 2.160156 26.570312 3.042969 28.359375 4.3125 29.8125 C 4.367188 29.875 4.421875 29.9375 4.476562 30.003906 C 5.28125 30.875 6.394531 31.554688 7.5 31.96875 C 7.59375 32.003906 7.683594 32.039062 7.777344 32.074219 C 10.207031 32.898438 12.992188 32.585938 15.289062 31.5 C 16.589844 30.847656 17.695312 29.964844 18.75 28.96875 C 18.808594 28.914062 18.863281 28.863281 18.925781 28.804688 C 19.367188 28.382812 19.746094 27.910156 20.128906 27.429688 C 20.257812 27.273438 20.386719 27.117188 20.515625 26.957031 C 21.113281 26.222656 21.671875 25.46875 22.210938 24.691406 C 22.507812 24.269531 22.808594 23.855469 23.109375 23.4375 C 23.457031 22.960938 23.800781 22.480469 24.136719 21.992188 C 24.988281 20.777344 25.875 19.582031 26.890625 18.496094 C 27.070312 18.308594 27.238281 18.113281 27.40625 17.914062 C 29.511719 15.507812 32.652344 13.675781 35.878906 13.417969 C 38.789062 13.253906 41.753906 13.6875 44.039062 15.65625 C 44.109375 15.71875 44.179688 15.78125 44.25 15.84375 C 44.328125 15.90625 44.402344 15.972656 44.480469 16.039062 C 46.433594 17.714844 47.738281 20.117188 48 22.6875 C 48.214844 25.871094 47.496094 28.613281 45.402344 31.058594 C 43.628906 33.066406 41.03125 34.433594 38.335938 34.613281 C 34.117188 34.746094 30.839844 33.351562 27.777344 30.476562 C 27.367188 30.085938 26.984375 29.6875 26.625 29.25 C 26.539062 29.148438 26.449219 29.046875 26.363281 28.945312 C 26.269531 28.835938 26.175781 28.726562 26.078125 28.617188 C 26.035156 28.566406 25.988281 28.511719 25.945312 28.460938 C 25.550781 28 25.359375 27.707031 25.375 27.089844 C 25.425781 26.789062 25.5625 26.640625 25.78125 26.4375 C 26.175781 26.203125 26.46875 26.242188 26.90625 26.34375 C 27.144531 26.542969 27.144531 26.542969 27.363281 26.800781 C 27.484375 26.941406 27.484375 26.941406 27.605469 27.085938 C 27.820312 27.347656 28.035156 27.613281 28.25 27.878906 C 30.3125 30.421875 33.109375 32.144531 36.386719 32.488281 C 38.785156 32.695312 41.042969 32.046875 42.925781 30.535156 C 43.15625 30.332031 43.375 30.125 43.59375 29.90625 C 43.652344 29.847656 43.710938 29.789062 43.769531 29.730469 C 45.386719 27.996094 46.027344 25.691406 45.949219 23.375 C 45.839844 21.429688 44.957031 19.640625 43.6875 18.1875 C 43.605469 18.09375 43.605469 18.09375 43.523438 17.996094 C 42.71875 17.125 41.605469 16.445312 40.5 16.03125 C 40.40625 15.996094 40.316406 15.960938 40.222656 15.925781 C 37.792969 15.101562 35.007812 15.414062 32.710938 16.5 C 31.410156 17.152344 30.304688 18.035156 29.25 19.03125 C 29.191406 19.085938 29.136719 19.136719 29.074219 19.195312 C 28.632812 19.617188 28.253906 20.089844 27.871094 20.570312 C 27.742188 20.726562 27.613281 20.882812 27.484375 21.042969 C 26.886719 21.777344 26.328125 22.53125 25.789062 23.308594 C 25.492188 23.730469 25.191406 24.144531 24.890625 24.5625 C 24.542969 25.039062 24.199219 25.519531 23.863281 26.007812 C 23.011719 27.222656 22.125 28.417969 21.109375 29.503906 C 20.929688 29.691406 20.761719 29.886719 20.59375 30.085938 C 18.488281 32.492188 15.347656 34.324219 12.121094 34.582031 C 9.210938 34.746094 6.246094 34.3125 3.960938 32.34375 C 3.890625 32.28125 3.820312 32.21875 3.75 32.15625 C 3.671875 32.09375 3.597656 32.027344 3.519531 31.960938 C 1.566406 30.285156 0.261719 27.882812 0 25.3125 C -0.214844 22.128906 0.503906 19.386719 2.597656 16.941406 C 6.699219 12.289062 13.789062 12.441406 18.53125 16.03125 Z M 18.53125 16.03125 "/>
</g>
</svg>
