<svg xmlns:xlink="http://www.w3.org/1999/xlink" xmlns="http://www.w3.org/2000/svg" width="18" height="18" viewBox="0 0 18 18" fill="none">
<path d="M-0.000976562 1.68738C-0.000976562 1.53819 0.0582867 1.39512 0.163776 1.28963C0.269265 1.18414 0.412339 1.12488 0.561523 1.12488H2.24902C2.3745 1.12491 2.49635 1.1669 2.59522 1.24416C2.69409 1.32141 2.76428 1.42951 2.79465 1.55125L3.25027 3.37488H16.3115C16.3941 3.37495 16.4757 3.39322 16.5504 3.42837C16.6252 3.46353 16.6912 3.51471 16.744 3.57828C16.7967 3.64186 16.8348 3.71626 16.8555 3.79621C16.8762 3.87616 16.8791 3.95969 16.8639 4.04088L15.1764 13.0409C15.1523 13.1698 15.0839 13.2862 14.983 13.37C14.8821 13.4538 14.7552 13.4998 14.624 13.4999H4.49902C4.36788 13.4998 4.24091 13.4538 4.14005 13.37C4.03919 13.2862 3.97078 13.1698 3.94665 13.0409L2.26027 4.05775L1.81027 2.24988H0.561523C0.412339 2.24988 0.269265 2.19061 0.163776 2.08513C0.0582867 1.97964 -0.000976562 1.83656 -0.000976562 1.68738ZM3.48877 4.49988L4.9659 12.3749H14.1571L15.6343 4.49988H3.48877ZM5.62402 13.4999C5.02729 13.4999 4.45499 13.7369 4.03303 14.1589C3.61108 14.5808 3.37402 15.1531 3.37402 15.7499C3.37402 16.3466 3.61108 16.9189 4.03303 17.3409C4.45499 17.7628 5.02729 17.9999 5.62402 17.9999C6.22076 17.9999 6.79306 17.7628 7.21501 17.3409C7.63697 16.9189 7.87402 16.3466 7.87402 15.7499C7.87402 15.1531 7.63697 14.5808 7.21501 14.1589C6.79306 13.7369 6.22076 13.4999 5.62402 13.4999ZM13.499 13.4999C12.9023 13.4999 12.33 13.7369 11.908 14.1589C11.4861 14.5808 11.249 15.1531 11.249 15.7499C11.249 16.3466 11.4861 16.9189 11.908 17.3409C12.33 17.7628 12.9023 17.9999 13.499 17.9999C14.0958 17.9999 14.6681 17.7628 15.09 17.3409C15.512 16.9189 15.749 16.3466 15.749 15.7499C15.749 15.1531 15.512 14.5808 15.09 14.1589C14.6681 13.7369 14.0958 13.4999 13.499 13.4999ZM5.62402 14.6249C5.92239 14.6249 6.20854 14.7434 6.41952 14.9544C6.6305 15.1654 6.74902 15.4515 6.74902 15.7499C6.74902 16.0482 6.6305 16.3344 6.41952 16.5454C6.20854 16.7564 5.92239 16.8749 5.62402 16.8749C5.32565 16.8749 5.03951 16.7564 4.82853 16.5454C4.61755 16.3344 4.49902 16.0482 4.49902 15.7499C4.49902 15.4515 4.61755 15.1654 4.82853 14.9544C5.03951 14.7434 5.32565 14.6249 5.62402 14.6249ZM13.499 14.6249C13.7974 14.6249 14.0835 14.7434 14.2945 14.9544C14.5055 15.1654 14.624 15.4515 14.624 15.7499C14.624 16.0482 14.5055 16.3344 14.2945 16.5454C14.0835 16.7564 13.7974 16.8749 13.499 16.8749C13.2007 16.8749 12.9145 16.7564 12.7035 16.5454C12.4925 16.3344 12.374 16.0482 12.374 15.7499C12.374 15.4515 12.4925 15.1654 12.7035 14.9544C12.9145 14.7434 13.2007 14.6249 13.499 14.6249Z" fill="#0C3A30"/>
</svg>