<svg xmlns:xlink="http://www.w3.org/1999/xlink" xmlns="http://www.w3.org/2000/svg" width="206" height="45" viewBox="0 0 206 45" fill="none">
<path d="M47.9834 20.6024C48.0345 21.2275 48.0607 21.8597 48.062 22.499C48.0616 26.5187 46.9927 30.4649 44.9662 33.9274C42.9398 37.39 40.0298 40.2423 36.5389 42.1881C33.048 44.1338 29.1036 45.1018 25.1156 44.9915C21.1277 44.8812 17.2419 43.6966 13.8622 41.5609C16.8116 41.7464 19.7716 41.4649 22.6345 40.7267C27.2148 41.5149 31.9213 40.5242 35.8053 37.9542C39.6893 35.3842 42.4618 31.4261 43.5641 26.8778C45.2386 24.9377 46.7189 22.8356 47.9834 20.6024ZM25.7315 0.00203002C28.6638 -0.00133169 31.5679 0.578925 34.2771 1.70949C36.9863 2.84005 39.4472 4.49865 41.5185 6.59008L41.7008 6.7768L39.0077 9.73999C38.907 9.63344 38.8063 9.52892 38.7056 9.42541C35.5746 6.27347 31.4187 4.36776 27.0034 4.05935C22.5882 3.75093 18.211 5.06061 14.6784 7.74709C11.1457 10.4336 8.69564 14.3159 7.77945 18.6787C6.86325 23.0416 7.54268 27.5911 9.69258 31.4891C8.09625 31.0415 6.62279 30.2896 5.42428 29.1144C4.76467 28.4662 4.22241 27.7069 3.8219 26.8707C3.54103 25.4307 3.39971 23.9666 3.3999 22.499C3.4007 16.5318 5.75381 10.8092 9.94167 6.58998C14.1295 2.37071 19.8092 0.000269054 25.7315 0V0.00203002Z" fill="#FFDF6C"/>
<path fill-rule="evenodd" clip-rule="evenodd" d="M47.9494 1.87598L37.8981 12.9372L40.0524 14.2291C40.0524 14.2291 33.4878 30.1948 19.0785 32.8779C4.66916 35.5611 0.277984 26.7323 2.11402 20.7623C-6.57769 38.1254 13.4425 44.4578 27.4882 37.5287C37.3341 32.6709 44.359 25.334 47.8981 17.8935L50 19.1853L47.9494 1.87598Z" fill="#29594B"/>
<path fill-rule="evenodd" clip-rule="evenodd" d="M22.7941 14.0217H28.6708V27.011C26.8817 28.4217 24.9031 29.5697 22.7941 30.4207V14.0217ZM30.5119 9.45508H36.3886V18.295C35.6212 19.4968 34.7922 20.6576 33.905 21.7727C32.8671 23.0804 31.7329 24.3073 30.5119 25.4432V9.45508ZM15.0743 18.5629H20.951V31.0611C20.2552 31.2669 19.5492 31.4362 18.836 31.5685C17.5927 31.8037 16.3348 31.9522 15.0713 32.0129L15.0743 18.5629Z" fill="#29594B"/>
<path d="M89.066 35H67.52V9.54H89.066V14.67H73.22V19.648H88.496V24.74H73.22V29.87H89.066V35ZM101.787 35.38C95.2511 35.38 91.0711 31.504 91.0711 25.5C91.0711 19.42 95.2511 15.582 101.787 15.582C107.905 15.582 112.085 18.85 112.085 23.79V24.322H106.423V24.018C106.423 21.586 104.637 20.712 101.673 20.712C98.2911 20.712 96.7331 21.966 96.7331 25.5C96.7331 28.996 98.2911 30.25 101.673 30.25C104.637 30.25 106.423 29.376 106.423 26.944V26.64H112.085V27.172C112.085 32.074 107.905 35.38 101.787 35.38ZM124.684 35.38C118.186 35.38 113.816 31.504 113.816 25.5C113.816 19.42 118.186 15.582 124.684 15.582C131.182 15.582 135.552 19.42 135.552 25.5C135.552 31.504 131.182 35.38 124.684 35.38ZM124.684 30.326C128.522 30.326 129.89 28.844 129.89 25.5C129.89 22.156 128.522 20.598 124.684 20.598C120.808 20.598 119.478 22.156 119.478 25.5C119.478 28.844 120.808 30.326 124.684 30.326ZM145.099 35H139.399V20.674H136.701V15.962H139.513C140.121 12.124 143.465 9.54 149.317 9.54H150.989V13.682H148.405C145.897 13.682 144.719 14.1 144.871 15.962H150.989V20.674H145.099V35ZM158.589 14.024H152.889V9.54H158.589V14.024ZM158.589 35H152.889V15.962H158.589V35ZM167.292 35H161.592V15.962H166.874V21.814H167.216C167.71 18.622 169.99 15.582 174.968 15.582C180.174 15.582 182.644 18.926 182.644 23.144V35H176.944V25.044C176.944 22.004 175.69 20.712 172.194 20.712C168.584 20.712 167.292 22.156 167.292 25.386V35ZM195.142 35.38C188.72 35.38 185.186 32.872 185.186 28.464V28.35H190.886V28.692C190.886 30.402 191.95 30.858 195.18 30.858C198.22 30.858 198.942 30.364 198.942 29.224C198.942 28.16 198.372 27.856 196.13 27.552L190.772 26.906C186.972 26.488 184.844 24.778 184.844 21.586C184.844 18.242 187.694 15.582 194.23 15.582C200.462 15.582 203.996 17.938 203.996 22.574V22.688H198.296V22.46C198.296 20.902 197.536 20.104 194.04 20.104C191.19 20.104 190.468 20.598 190.468 21.814C190.468 22.802 191 23.22 193.508 23.524L197.574 24.018C202.666 24.588 204.566 26.298 204.566 29.452C204.566 33.024 201.032 35.38 195.142 35.38Z" fill="#29594B"/>
</svg>