<svg xmlns:xlink="http://www.w3.org/1999/xlink" xmlns="http://www.w3.org/2000/svg" width="17" height="18" viewBox="0 0 17 18" fill="none">
<path d="M1 10.334C1 8.44837 1 7.50556 1.58579 6.91977C2.17157 6.33398 3.11438 6.33398 5 6.33398H11.3501C13.2357 6.33398 14.1785 6.33398 14.7643 6.91977C15.3501 7.50556 15.3501 8.44837 15.3501 10.334V11.0006C15.3501 13.8291 15.3501 15.2433 14.4714 16.122C13.5927 17.0007 12.1785 17.0007 9.35009 17.0007H7C4.17157 17.0007 2.75736 17.0007 1.87868 16.122C1 15.2433 1 13.8291 1 11.0007V10.334Z" stroke="#19352D" stroke-width="1.5"/>
<path d="M11.7649 5.44444V4.58752C11.7649 2.60619 10.1587 1 8.17737 1V1C6.19603 1 4.58984 2.60619 4.58984 4.58752V5.44444" stroke="#19352D" stroke-width="1.5" stroke-linecap="round"/>
<ellipse cx="8.17462" cy="11.6664" rx="1.79376" ry="1.77778" fill="#19352D"/>
</svg>