<svg xmlns:xlink="http://www.w3.org/1999/xlink" xmlns="http://www.w3.org/2000/svg" width="146" height="39" viewBox="0 0 146 39" fill="none">
<path d="M77.3998 19.2728C76.487 20.1603 76.0305 21.4535 76.0305 23.1524V33.7645H69.9448V12.9208H74.7754V19.7992C75.0067 17.8358 75.5899 16.253 76.525 15.0508C77.7929 13.4533 79.6186 12.6545 82.0021 12.6545H82.8009V17.9035H81.2795C79.6059 17.9035 78.3127 18.3599 77.3998 19.2728Z" fill="white"/>
<path fill-rule="evenodd" clip-rule="evenodd" d="M95.8467 31.2158C96.1081 30.7725 96.3236 30.2835 96.4934 29.7486V33.7642H101.324V20.9841C101.324 19.0569 100.944 17.4847 100.183 16.2676C99.4222 15.0252 98.3064 14.0995 96.8357 13.491C95.3904 12.8824 93.6026 12.5782 91.4727 12.5782C90.7372 12.5782 89.9511 12.5908 89.1143 12.6162C88.2777 12.6415 87.4662 12.6796 86.6801 12.7303C85.894 12.781 85.2094 12.8317 84.6262 12.8824V18.0172C85.4122 17.9666 86.2871 17.9159 87.2507 17.8652C88.2142 17.8145 89.1525 17.7763 90.0653 17.751C90.9782 17.7256 91.7136 17.713 92.2714 17.713C93.3872 17.713 94.1985 17.9792 94.7057 18.5118C95.2128 19.0443 95.4664 19.8431 95.4664 20.908V20.9841H91.7009C89.8497 20.9841 88.2142 21.225 86.7942 21.7067C85.3742 22.1632 84.2711 22.8858 83.4851 23.8748C82.699 24.8383 82.3059 26.0809 82.3059 27.6023C82.3059 28.997 82.623 30.2014 83.2569 31.2158C83.8908 32.2046 84.7656 32.9654 85.8813 33.4979C87.0224 34.0304 88.341 34.2967 89.8371 34.2967C91.2824 34.2967 92.4995 34.0304 93.4885 33.4979C94.5029 32.9654 95.2889 32.2046 95.8467 31.2158ZM94.8579 28.4771C95.2128 27.8939 95.4157 27.0825 95.4664 26.0429V24.3693H91.6627C90.5978 24.3693 89.7737 24.6356 89.1905 25.1681C88.6326 25.6751 88.3537 26.3725 88.3537 27.26C88.3537 28.0968 88.6326 28.7814 89.1905 29.3139C89.7737 29.8211 90.5978 30.0747 91.6627 30.0747C92.3475 30.0747 92.956 29.9605 93.4885 29.7324C94.0464 29.4788 94.5029 29.0603 94.8579 28.4771Z" fill="white"/>
<path d="M113.942 34.4871C112.142 34.4871 110.57 34.1955 109.226 33.6123C107.907 33.0037 106.804 32.1923 105.916 31.1781C105.029 30.1637 104.37 29.0226 103.939 27.7548C103.508 26.4616 103.292 25.1303 103.292 23.7611V23.0383C103.292 21.6183 103.52 20.2617 103.977 18.9685C104.433 17.6499 105.105 16.4835 105.993 15.4691C106.88 14.4549 107.983 13.6561 109.302 13.0729C110.646 12.4897 112.18 12.1981 113.904 12.1981C115.78 12.1981 117.441 12.5658 118.887 13.3011C120.332 14.0111 121.486 15.0128 122.348 16.3059C123.21 17.5992 123.692 19.0826 123.793 20.7562H117.822C117.72 19.818 117.34 19.0319 116.681 18.398C116.047 17.7386 115.121 17.409 113.904 17.409C112.89 17.409 112.04 17.6626 111.356 18.1698C110.696 18.6769 110.202 19.3742 109.872 20.2617C109.543 21.1492 109.378 22.2015 109.378 23.4186C109.378 24.5344 109.53 25.5487 109.834 26.4616C110.138 27.349 110.62 28.0464 111.28 28.5535C111.964 29.0353 112.852 29.2762 113.942 29.2762C114.753 29.2762 115.438 29.1368 115.996 28.8579C116.579 28.5535 117.036 28.1478 117.365 27.6406C117.72 27.1081 117.936 26.4996 118.012 25.815H123.946C123.869 27.5393 123.388 29.0607 122.5 30.3793C121.613 31.6724 120.433 32.6868 118.963 33.4222C117.492 34.1321 115.818 34.4871 113.942 34.4871Z" fill="white"/>
<path fill-rule="evenodd" clip-rule="evenodd" d="M130.769 33.5743C132.138 34.1828 133.71 34.4871 135.485 34.4871C137.235 34.4871 138.782 34.1828 140.126 33.5743C141.47 32.9657 142.585 32.1162 143.473 31.0259C144.361 29.9355 144.957 28.693 145.261 27.2984H139.669C139.416 27.9323 138.934 28.4648 138.224 28.8959C137.514 29.3269 136.601 29.5425 135.485 29.5425C134.268 29.5425 133.279 29.2889 132.519 28.7817C131.758 28.2745 131.2 27.5646 130.845 26.6518C130.647 26.1286 130.504 25.558 130.417 24.9402H145.641V22.8861C145.641 20.9844 145.235 19.2348 144.424 17.6372C143.612 16.0143 142.433 14.7085 140.886 13.7195C139.365 12.7052 137.489 12.1981 135.257 12.1981C133.558 12.1981 132.037 12.5024 130.693 13.1109C129.374 13.6942 128.271 14.493 127.384 15.5072C126.496 16.5215 125.812 17.6753 125.33 18.9685C124.874 20.2363 124.645 21.5676 124.645 22.9623V23.7229C124.645 25.0669 124.874 26.3855 125.33 27.6787C125.812 28.9466 126.496 30.1003 127.384 31.14C128.297 32.1543 129.425 32.9657 130.769 33.5743ZM130.463 21.4788C130.558 20.9335 130.698 20.4391 130.883 19.9954C131.263 19.0572 131.821 18.3472 132.557 17.8655C133.292 17.3837 134.192 17.1427 135.257 17.1427C136.297 17.1427 137.159 17.3837 137.844 17.8655C138.554 18.3218 139.086 18.9939 139.441 19.8814C139.633 20.3618 139.774 20.8943 139.862 21.4788H130.463Z" fill="white"/>
<path d="M55.4544 33.7644V11.4373H47.6571V5.9982H69.5277V11.4373H61.6923V33.7644H55.4544Z" fill="white"/>
<path fill-rule="evenodd" clip-rule="evenodd" d="M19.2371 4.08976C10.563 4.08976 3.53123 11.1216 3.53123 19.7957C3.53123 28.4699 10.563 35.5016 19.2371 35.5016C27.9114 35.5016 34.9431 28.4699 34.9431 19.7957C34.9431 11.1216 27.9114 4.08976 19.2371 4.08976ZM0.0410156 19.7957C0.0410156 9.19395 8.63542 0.599548 19.2371 0.599548C29.839 0.599548 38.4333 9.19395 38.4333 19.7957C38.4333 30.3975 29.839 38.9919 19.2371 38.9919C8.63542 38.9919 0.0410156 30.3975 0.0410156 19.7957Z" fill="white"/>
<path fill-rule="evenodd" clip-rule="evenodd" d="M28.8126 13.2872C29.3242 11.6757 27.796 10.1622 26.1894 10.6893L15.2469 14.2798C14.6135 14.4876 14.1186 14.9874 13.917 15.6228L10.5263 26.3033C10.0147 27.9148 11.5429 29.4283 13.1494 28.9012L24.0919 25.3107C24.7254 25.1028 25.2203 24.6031 25.4219 23.9677L28.8126 13.2872ZM19.6674 22.2882C21.0442 22.2882 22.1603 21.172 22.1603 19.7952C22.1603 18.4183 21.0442 17.3022 19.6674 17.3022C18.2906 17.3022 17.1745 18.4183 17.1745 19.7952C17.1745 21.172 18.2906 22.2882 19.6674 22.2882Z" fill="white"/>
</svg>