<svg xmlns:xlink="http://www.w3.org/1999/xlink" xmlns="http://www.w3.org/2000/svg" width="20" height="20" viewBox="0 0 20 20" fill="none">
<path fill-rule="evenodd" clip-rule="evenodd" d="M5.83464 2.29102C4.48883 2.29102 3.27184 2.62737 2.38852 3.4476C1.49682 4.27562 1.04297 5.50522 1.04297 7.08268V12.916C1.04297 14.4935 1.49682 15.7231 2.38852 16.5511C3.27184 17.3713 4.48883 17.7077 5.83464 17.7077H14.168C15.5138 17.7077 16.7308 17.3713 17.6141 16.5511C18.5058 15.7231 18.9596 14.4935 18.9596 12.916V7.08268C18.9596 5.50522 18.5058 4.27562 17.6141 3.4476C16.7308 2.62737 15.5138 2.29102 14.168 2.29102H5.83464ZM16.0251 6.96793C16.2981 6.75688 16.3485 6.36437 16.1374 6.09123C15.9264 5.81809 15.5339 5.76777 15.2607 5.97882L10.6381 9.55068C10.2631 9.8406 9.73947 9.8406 9.3643 9.55068L4.7418 5.97882C4.46866 5.76777 4.07615 5.81809 3.86509 6.09123C3.65404 6.36437 3.70436 6.75688 3.9775 6.96793L8.60005 10.5398C9.42538 11.1775 10.5771 11.1775 11.4025 10.5398L16.0251 6.96793Z" fill="#FFDB1E"/>
</svg>