<svg xmlns:xlink="http://www.w3.org/1999/xlink" xmlns="http://www.w3.org/2000/svg" width="20" height="20" viewBox="0 0 20 20" fill="none">
<g clip-path="url(#clip0_547_14482)">
<path fill-rule="evenodd" clip-rule="evenodd" d="M10.0002 8V10H12.0002C12.0002 8.895 11.1052 8 10.0002 8ZM10.0002 4V6C12.2062 6 14.0002 7.794 14.0002 10H16.0002C16.0002 6.686 13.3142 4 10.0002 4ZM10.0002 0V2C14.4112 2 18.0002 5.589 18.0002 10H20.0002C20.0002 4.477 15.5232 0 10.0002 0ZM14.6522 18.2339C14.6402 18.2699 14.6412 18.2649 14.6522 18.2339V18.2339ZM14.1172 15.5781C13.4222 15.2041 12.7192 14.778 11.9922 14.481C10.5872 13.908 10.6822 15.6019 9.67917 16.1509C9.02717 16.5079 8.10717 15.8609 7.53817 15.5029C6.54417 14.8769 5.66317 14.0531 4.93117 13.1001C4.55617 12.6131 3.72817 11.6972 3.83017 11.0142C3.99217 9.93016 5.27417 9.8758 4.90717 8.5498C4.71117 7.8398 4.36017 7.14103 4.09717 6.45703C3.74517 5.54003 3.60017 4.95293 2.57317 5.00293C1.83117 5.03893 1.33918 5.35617 0.883175 5.95117C-0.350825 7.55817 -0.164826 9.72479 0.664174 11.4878C1.83817 13.9828 3.85017 16.335 5.99917 17.855C7.46117 18.889 9.38717 19.8278 11.1572 19.9868C12.4532 20.1038 14.2662 19.4031 14.7302 17.9961C14.6982 18.0941 14.6672 18.1889 14.6522 18.2339C14.6632 18.1989 14.6872 18.1281 14.7302 17.9961C14.7772 17.8541 14.8002 17.783 14.8112 17.751C14.7972 17.793 14.7652 17.8912 14.7312 17.9932C15.1392 16.7532 15.1892 16.1551 14.1172 15.5781ZM14.8112 17.751C14.8192 17.725 14.8192 17.727 14.8112 17.751V17.751Z" fill="#FFDB1E"/>
</g>
<defs>
<clipPath id="clip0_547_14482">
<rect width="20" height="20" fill="white"/>
</clipPath>
</defs>
</svg>