<?xml version="1.0" encoding="UTF-8"?>
<svg color="var(--token-c8809533-d74e-4474-af14-ef3a211efd13, rgb(20, 20, 20))" display="inline-block" fill="var(--token-c8809533-d74e-4474-af14-ef3a211efd13, rgb(20, 20, 20))" style="flex-shrink:0;height:100%;user-select:none;width:100%" focusable="false" viewBox="0 0 256 256" xmlns="http://www.w3.org/2000/svg">
<g color="var(--token-c8809533-d74e-4474-af14-ef3a211efd13, rgb(20, 20, 20))" weight="fill">
<path d="M216,48H56A16,16,0,0,0,40,64V184a8,8,0,0,1-16,0V88A8,8,0,0,0,8,88v96.11A24,24,0,0,0,32,208H208a24,24,0,0,0,24-24V64A16,16,0,0,0,216,48ZM176,152H96a8,8,0,0,1,0-16h80a8,8,0,0,1,0,16Zm0-32H96a8,8,0,0,1,0-16h80a8,8,0,0,1,0,16Z"/>
</g>
</svg>
