<svg width="141" height="34" viewBox="0 0 141 34" fill="none" xmlns="http://www.w3.org/2000/svg">
<g id="T-Mobile_logo (1) 1">
<path id="path3209" d="M103.364 8.66852C103.365 8.89734 103.321 9.12395 103.236 9.33538C103.151 9.54681 103.026 9.73894 102.869 9.90078C102.711 10.0626 102.524 10.191 102.319 10.2786C102.113 10.3662 101.893 10.4113 101.67 10.4113C101.448 10.4113 101.228 10.3662 101.022 10.2786C100.816 10.191 100.63 10.0626 100.472 9.90078C100.315 9.73894 100.19 9.54681 100.105 9.33538C100.02 9.12395 99.9765 8.89734 99.9766 8.66852C99.9765 8.4397 100.02 8.21311 100.105 8.00167C100.19 7.79024 100.315 7.59811 100.472 7.43627C100.63 7.27443 100.816 7.14605 101.022 7.05846C101.228 6.97087 101.448 6.92578 101.67 6.92578C101.893 6.92578 102.113 6.97087 102.319 7.05846C102.524 7.14605 102.711 7.27443 102.869 7.43627C103.026 7.59811 103.151 7.79024 103.236 8.00167C103.321 8.21311 103.365 8.4397 103.364 8.66852Z" fill="#A0A0B9"/>
<path id="rect3211" d="M133.483 16.3203H129.172V20.7302H133.483V16.3203Z" fill="#A0A0B9"/>
<path id="rect3213" d="M47.9718 16.3203H43.6602V20.7302H47.9718V16.3203Z" fill="#A0A0B9"/>
<path id="rect3215" d="M35.0382 16.3203H30.7266V20.7302H35.0382V16.3203Z" fill="#A0A0B9"/>
<path id="rect3217" d="M22.3038 16.3203H17.9922V20.7302H22.3038V16.3203Z" fill="#A0A0B9"/>
<path id="rect3219" d="M9.11241 16.3203H4.80078V20.7302H9.11241V16.3203Z" fill="#A0A0B9"/>
<path id="path3221" d="M15.1593 7.51765H15.6708C18.9749 7.51765 20.5149 9.28919 21.1584 14.0136L22.1815 13.9682L22.045 6.47266H5.2321L5.06641 13.9682L6.05096 14.0136C6.22147 12.242 6.42599 11.288 6.86981 10.3339C7.6544 8.56212 9.29184 7.51765 11.3043 7.51765H12.0206V23.8256C12.0206 25.5518 11.9184 26.0969 11.5094 26.5058C11.1681 26.8237 10.4857 26.96 9.70086 26.96H8.91627V28.0501H18.2636V26.96H17.4742C16.6944 26.96 16.0073 26.8235 15.6711 26.5058C15.2618 26.0969 15.1595 25.5515 15.1595 23.8256V7.51765" fill="#A0A0B9"/>
<path id="path3223" d="M59.6305 28.0483L65.0779 8.99786V23.9474C65.0779 25.5789 64.9853 26.1522 64.6159 26.549C64.3386 26.8576 63.6958 26.9901 62.9833 26.9901H62.7062V28.0483H70.4062V26.9901H70.0055C69.2972 26.9901 68.6504 26.8578 68.3734 26.549C68.0035 26.1522 67.9111 25.5789 67.9111 23.9474V11.203C67.9111 9.5712 68.0035 8.95386 68.3734 8.55706C68.6812 8.29252 69.2972 8.11598 70.0055 8.11598H70.4062V7.10156H64.4312L59.9343 22.4919L55.5344 7.10156H49.5901V8.11598H50.1442C51.7768 8.11598 52.0847 8.46879 52.0847 10.5856V22.7124C52.0847 24.6527 51.9923 25.4466 51.715 26.02C51.4072 26.5933 50.7559 26.9901 50.0827 26.9901H49.5898V28.0483H55.9343V26.9901H55.5341C54.7334 26.9901 54.0864 26.6813 53.7125 26.064C53.3474 25.4466 53.255 24.8733 53.255 22.7124V8.99812L58.6711 28.0485H59.6305" fill="#A0A0B9"/>
<path id="path3225" d="M77.0285 13.1445C73.2094 13.1445 70.7148 16.1432 70.7148 20.862C70.7148 25.4042 73.2094 28.4911 76.9321 28.4911C80.6891 28.4911 83.1839 25.4042 83.1839 20.818C83.1839 16.2755 80.6891 13.1445 77.0285 13.1445ZM76.9054 14.1587C78.0098 14.1587 78.9644 14.8643 79.488 16.055C79.9808 17.1574 80.1963 18.6569 80.1963 20.8177C80.1963 25.2714 79.1183 27.4762 76.9319 27.4762C74.7494 27.4762 73.6977 25.2711 73.6977 20.7734C73.6977 18.6566 73.9174 17.1574 74.4103 16.055C74.899 14.9086 75.889 14.1587 76.9054 14.1587Z" fill="#A0A0B9"/>
<path id="path3227" d="M88.3034 6.88281L83.9297 7.10335V8.0735H84.1409C85.4346 8.0735 85.7162 8.51457 85.7162 10.5871V24.9191C85.7162 26.7711 85.6547 27.2564 85.4084 28.05H86.4248C87.1901 26.7711 87.3794 26.5508 87.6875 26.5508C87.8371 26.5508 87.9865 26.5948 88.2068 26.8154C89.72 28.05 90.3667 28.3146 91.7528 28.3146C95.0745 28.3146 97.477 25.0953 97.477 20.5091C97.477 16.1875 95.255 13.277 91.9332 13.277C90.2085 13.277 88.9501 14.1149 88.3034 15.6141V6.88281ZM91.4977 14.3795C93.4735 14.3795 94.4897 16.4963 94.4897 20.6414C94.4897 25.0071 93.4425 27.2562 91.4404 27.2562C89.2229 27.2562 88.0566 24.9628 88.0566 20.7737C88.0566 18.6568 88.3342 17.2019 88.9809 16.0992C89.5615 15.0411 90.5517 14.3795 91.4977 14.3795Z" fill="#A0A0B9"/>
<path id="path3229" d="M103.173 13.3633L98.6809 13.6278V14.598H99.0198C100.309 14.598 100.586 15.039 100.586 17.0676V24.5202C100.586 26.5491 100.309 27.0341 99.0198 27.0341H98.5312V28.048H105.237V27.0341H104.753C103.455 27.0341 103.173 26.5928 103.173 24.5202V13.3633" fill="#A0A0B9"/>
<path id="path3231" d="M110.966 6.88281L106.474 7.10335V8.0735H106.809C108.102 8.0735 108.379 8.51457 108.379 10.5871V24.522C108.379 26.5948 108.102 27.0359 106.809 27.0359H106.32V28.0498H113.03V27.0359H112.537C111.239 27.0359 110.966 26.5945 110.966 24.522V6.88281Z" fill="#A0A0B9"/>
<path id="path3233" d="M125.283 20.7294C125.133 16.055 122.916 13.1445 119.563 13.1445C116.325 13.1445 113.988 16.3195 113.988 20.7294C113.988 25.4479 116.294 28.4909 119.867 28.4909C122.177 28.4909 123.778 27.2559 125.103 24.5218L124.179 24.0367C123.101 26.3298 122.023 27.2559 120.359 27.2559C117.926 27.2559 116.884 25.3159 116.853 20.7294H125.283ZM116.884 19.6268C116.91 16.3195 117.983 14.2469 119.712 14.2469C121.437 14.2469 122.453 16.2755 122.423 19.6268H116.884Z" fill="#A0A0B9"/>
<g id="g3235">
<g id="g3237">
<path id="path3239" d="M135.102 12.7852C135.362 12.7852 135.616 12.852 135.864 12.9858C136.112 13.1197 136.305 13.3113 136.443 13.5603C136.582 13.8092 136.651 14.0689 136.651 14.3394C136.651 14.6071 136.583 14.8644 136.446 15.1113C136.31 15.3584 136.119 15.5502 135.873 15.6867C135.627 15.8233 135.37 15.8917 135.102 15.8917C134.833 15.8917 134.576 15.8236 134.33 15.6867C134.085 15.5502 133.893 15.3586 133.756 15.1113C133.619 14.8644 133.551 14.6071 133.551 14.3394C133.551 14.0689 133.62 13.8092 133.759 13.5603C133.898 13.3113 134.092 13.1195 134.339 12.9858C134.588 12.852 134.842 12.7852 135.102 12.7852ZM135.102 13.0438C134.885 13.0438 134.673 13.0996 134.467 13.2115C134.261 13.3234 134.1 13.4827 133.984 13.6904C133.867 13.898 133.81 14.1145 133.81 14.3391C133.81 14.5626 133.867 14.7767 133.981 14.9817C134.095 15.1866 134.255 15.3463 134.46 15.4608C134.665 15.5754 134.879 15.6325 135.102 15.6325C135.325 15.6325 135.539 15.5754 135.744 15.4608C135.949 15.3465 136.109 15.1869 136.222 14.9817C136.336 14.7767 136.393 14.5626 136.393 14.3391C136.393 14.1145 136.335 13.898 136.219 13.6904C136.103 13.483 135.943 13.3234 135.736 13.2115C135.53 13.0996 135.318 13.0438 135.102 13.0438ZM134.422 15.1963V13.5248H134.996C135.192 13.5248 135.334 13.5404 135.422 13.5713C135.51 13.6021 135.58 13.656 135.632 13.733C135.684 13.8098 135.71 13.8916 135.71 13.978C135.71 14.1001 135.666 14.2066 135.579 14.297C135.492 14.3874 135.376 14.4384 135.232 14.4494C135.291 14.4741 135.338 14.5036 135.374 14.5379C135.441 14.6036 135.524 14.7142 135.621 14.8693L135.825 15.1966H135.494L135.346 14.9328C135.229 14.7265 135.136 14.5972 135.066 14.5446C135.016 14.5057 134.944 14.4864 134.85 14.4864H134.691V15.1966H134.422V15.1963ZM134.692 14.2567H135.02C135.176 14.2567 135.283 14.2334 135.34 14.1864C135.398 14.1395 135.426 14.0775 135.426 14.0003C135.426 13.9506 135.412 13.9061 135.384 13.8669C135.357 13.8277 135.319 13.7982 135.27 13.7789C135.221 13.7596 135.131 13.7502 134.999 13.7502H134.692V14.2567Z" fill="#A0A0B9"/>
</g>
</g>
</g>
</svg>
