<svg width="120" height="50" viewBox="0 0 100 34" fill="none" xmlns="http://www.w3.org/2000/svg">
<path d="M31.0788 27.248V19.7244C31.0788 18.7941 30.818 18.0455 30.2965 17.4789C29.7606 16.9062 29.0055 16.5961 28.2262 16.6289C27.4333 16.5943 26.6635 16.9036 26.1104 17.4789C25.5801 18.0455 25.3149 18.7941 25.3149 19.7244V27.248L20.1211 27.2901V6.01172H25.3149V13.4223C26.5158 12.3298 28.0368 11.7836 29.8779 11.7836C31.7986 11.7836 33.3442 12.4006 34.5148 13.6348C35.6854 14.8689 36.2707 16.4055 36.2707 18.2446V27.2556L31.0788 27.248Z" fill="#A0A0B9"/>
<path d="M42.8756 9.85721C42.0252 10.7149 40.7476 10.9712 39.6375 10.5068C38.5274 10.0423 37.8029 8.94843 37.8011 7.73417C37.7885 6.93514 38.104 6.16654 38.6725 5.61112C39.2296 5.0473 39.9856 4.73047 40.774 4.73047C41.5624 4.73047 42.3185 5.0473 42.8756 5.61112C43.443 6.16713 43.7577 6.93551 43.745 7.73417C43.7576 8.53282 43.443 9.3012 42.8756 9.85721ZM43.3548 27.2456H38.161V12.2291H43.3548V27.2456Z" fill="#A0A0B9"/>
<path d="M9.9007 5.55648C11.392 5.5312 12.8759 5.77296 14.2838 6.27056C15.5642 6.74533 16.5549 7.30623 17.2557 7.95329C17.7122 8.36871 18.3922 9.0464 18.3922 9.0464L14.8274 12.7278C14.8274 12.7278 14.1133 12.2128 13.7742 11.962C12.3928 10.9295 11.0915 10.4139 9.87039 10.4152C9.24787 10.3922 8.63 10.5319 8.07662 10.821C7.59551 11.0929 7.35495 11.4617 7.35495 11.9275C7.35495 12.655 7.89542 13.1509 8.97635 13.415L12.812 14.2937C16.815 15.205 18.8165 17.3395 18.8165 20.6973C18.8165 22.5581 18.0588 24.1911 16.5435 25.5962C15.0282 27.0014 12.8764 27.7033 10.0882 27.7021C8.20795 27.7021 6.55688 27.429 5.135 26.8827C3.71312 26.3365 2.57031 25.639 1.70658 24.7903L0.5 23.5689L4.60463 19.9316C4.60463 19.9316 5.38692 20.6054 5.69946 20.9309C6.88757 22.1462 8.51149 22.8243 10.2019 22.8108C11.0403 22.8108 11.6957 22.6494 12.168 22.3265C12.6403 22.0036 12.8752 21.6207 12.8726 21.1779C12.8901 20.6851 12.6431 20.2211 12.2267 19.9641C11.7974 19.6872 11.1123 19.4453 10.1716 19.2386L6.87005 18.5111C5.26759 18.1691 3.97136 17.4671 2.98135 16.4053C1.99133 15.3434 1.49633 14.0034 1.49633 12.3851C1.49633 10.3967 2.28682 8.76435 3.86781 7.48811C5.4488 6.21185 7.45976 5.56797 9.9007 5.55648Z" fill="#A0A0B9"/>
<path d="M73.9348 25.1302L71.8058 21.7188C71.5267 21.9385 71.2358 22.1424 70.9344 22.3295C70.5826 22.583 70.1668 22.7304 69.7354 22.7545C68.9538 22.7545 68.563 22.2893 68.563 21.3589V21.0507H68.5762V16.5653H73.3116V12.2273H68.5762V7.82422H63.3711V22.6587C63.3711 24.3179 63.8914 25.5616 64.9319 26.3899C65.9724 27.2182 67.2434 27.633 68.7448 27.6344C69.6706 27.6401 70.5902 27.4808 71.461 27.1633C72.2394 26.9014 72.9372 26.4396 73.4859 25.8232C73.6741 25.6203 73.826 25.3858 73.9348 25.1302Z" fill="#A0A0B9"/>
<path d="M59.6517 13.9429C58.322 12.5359 56.4739 11.7504 54.5489 11.774C52.8441 11.774 51.5138 12.2902 50.5579 13.3227V12.2296H45.3906V33.9808H50.5541V19.7531C50.5401 18.9362 50.8537 18.1483 51.4235 17.5688C51.9825 16.9861 52.7514 16.6572 53.5544 16.6572C54.3575 16.6572 55.1263 16.9861 55.6854 17.5688C56.8472 18.7883 56.8472 20.7179 55.6854 21.9374C55.1348 22.5322 54.3602 22.8628 53.5544 22.8467C53.1935 22.8483 52.8329 22.8269 52.4748 22.7816V27.4757C53.1232 27.635 53.7889 27.7109 54.4561 27.7016C56.4147 27.7286 58.2944 26.9228 59.6366 25.4809C61.0686 24.0043 61.7839 22.0727 61.7827 19.6861C61.7811 17.2995 61.0711 15.3851 59.6517 13.9429Z" fill="#A0A0B9"/>
<path d="M89.0671 28.4943C86.2213 28.4975 83.4003 27.9594 80.7517 26.9073C79.3922 26.3572 78.5405 24.9817 78.6454 23.5054L79.3898 11.2323L83.0853 11.4601L82.3542 23.5207C86.682 25.1716 91.4582 25.1627 95.78 23.4958C95.689 22.1424 95.2117 15.0323 94.92 10.882C91.2245 12.7657 88.101 12.9131 85.8034 11.2802C84.3559 10.2452 83.5057 8.55601 83.5305 6.76413C83.5147 4.88986 84.4004 3.12455 85.9057 2.02985C87.2304 1.05501 88.9204 0.738334 90.5028 1.16841C92.2549 1.64508 93.7892 3.0062 94.6094 4.80572L91.2454 6.36785C90.8855 5.57721 90.232 4.96844 89.5406 4.77892C89.0196 4.63608 88.4624 4.75112 88.0386 5.08904C87.5185 5.4823 87.217 6.104 87.2279 6.76031C87.2093 7.33359 87.4715 7.87925 87.9287 8.21906C89.336 9.22028 92.1773 8.45837 95.528 6.18217C96.1119 5.78544 96.8678 5.75724 97.479 6.10937C98.339 6.60712 98.3882 7.31163 98.4545 8.28796L99.4887 23.4575C99.6099 24.9493 98.7472 26.3445 97.3673 26.8881C94.726 27.9494 91.9094 28.4943 89.0671 28.4943Z" fill="#A0A0B9"/>
</svg>
