<svg width="72" height="55" viewBox="0 0 72 55" fill="none" xmlns="http://www.w3.org/2000/svg">
<path fill-rule="evenodd" clip-rule="evenodd" d="M9.89 20.9876C9.89 20.9876 8.15377 21.6649 6.57183 22.7941C5.07468 23.8633 0.894113 26.3165 0.309384 32.5183C-0.111881 36.9836 3.29719 37.6212 3.86206 37.6227C4.81917 37.625 5.54979 36.8608 5.54979 36.8608V44.4078C5.54979 44.4078 3.80897 47.0924 4.33145 48.2097C4.77143 49.1511 7.31391 51.5273 8.15682 51.8238C9.29725 52.2246 10.9277 50.3438 11.9887 49.5896C13.0176 48.8573 16.3025 45.9085 16.4801 46.0883C21.4181 51.0957 28.829 54.9639 36.3861 54.9639C48.9099 54.9639 59.4614 46.4502 62.6562 34.8518L62.6474 34.8464C62.6718 35.0713 63.3329 30.634 63.3329 30.634C65.3224 30.7099 67.8408 29.9514 68.9163 29.3543C68.9163 29.3543 71.9053 27.7415 71.7181 23.4652C71.5883 20.4956 69.4483 19.8803 69.4483 19.8803C69.4483 19.8803 69.4953 19.8803 69.87 19.5658C71.8258 17.9226 70.0812 13.4653 69.5813 12.7103C69.0821 11.9557 65.6799 11.5711 64.6857 11.4752C62.0661 11.2234 59.4365 12.7908 59.4365 12.7908C54.6304 4.9697 46.1833 0 36.3865 0C23.5496 0.000770019 12.7846 8.94454 9.89 20.9876Z" fill="white"/>
<path fill-rule="evenodd" clip-rule="evenodd" d="M36.3568 53.0264C50.2761 53.0264 61.5609 41.6513 61.5609 27.6189C61.5609 13.5864 50.2761 2.21094 36.3568 2.21094C22.4367 2.21094 11.1523 13.5864 11.1523 27.6189C11.1527 41.6517 22.4371 53.0264 36.3568 53.0264Z" fill="white"/>
<path d="M36.3577 52.7069C43.2285 52.7069 49.4497 49.899 53.9523 45.3593C58.4556 40.8205 61.241 34.549 61.241 27.6227C61.241 20.6956 58.4556 14.4246 53.9523 9.88534C49.4497 5.34608 43.2285 2.53821 36.3577 2.53821C29.4861 2.53821 23.2653 5.34608 18.7623 9.88534C14.2594 14.4246 11.4744 20.6956 11.4744 27.6223C11.4744 34.5487 14.2594 40.8201 18.7627 45.359C23.2656 49.899 29.4865 52.7069 36.3577 52.7069ZM36.3577 53.3533C29.3089 53.3533 22.9276 50.4734 18.3082 45.8171C13.6892 41.1608 10.832 34.7277 10.832 27.6223C10.832 20.5166 13.6892 14.0839 18.3086 9.42718C22.9276 4.77088 29.3092 1.89062 36.3577 1.89062C43.4061 1.89062 49.7878 4.77088 54.4068 9.42718C59.0258 14.0839 61.8834 20.5166 61.8834 27.6223C61.8834 34.7277 59.0265 41.1608 54.4068 45.8171C49.7881 50.4734 43.4065 53.3533 36.3577 53.3533Z" fill="#A0A0B9"/>
<path d="M36.3641 51.8019C42.9897 51.8019 48.9886 49.0942 53.33 44.717C57.6721 40.3406 60.3582 34.2932 60.3582 27.6141C60.3582 20.9353 57.6721 14.888 53.33 10.5108C48.9886 6.13366 42.9897 3.42627 36.3641 3.42627C29.7384 3.42627 23.7399 6.13366 19.3977 10.5108C15.0556 14.888 12.3699 20.935 12.3699 27.6141C12.3699 34.2932 15.0556 40.3406 19.3977 44.717C23.7399 49.0942 29.7384 51.8019 36.3641 51.8019ZM36.3641 52.0087C29.6815 52.0087 23.6318 49.2782 19.2522 44.8633C14.8731 40.4492 12.1641 34.3498 12.1641 27.6137C12.1641 20.8772 14.8727 14.7787 19.2522 10.3641C23.6314 5.94962 29.6815 3.21875 36.3641 3.21875C43.0462 3.21875 49.0967 5.94962 53.4755 10.3641C57.855 14.7787 60.5637 20.8776 60.5637 27.6137C60.5637 34.3498 57.855 40.4492 53.4755 44.8633C49.0967 49.2782 43.0462 52.0087 36.3641 52.0087Z" fill="#A0A0B9"/>
<path fill-rule="evenodd" clip-rule="evenodd" d="M24.9613 42.7602C25.04 42.694 25.2203 42.5519 25.2657 42.4865C25.3345 42.3879 25.3417 42.3194 25.179 42.2039C25.1194 42.1619 25.0163 42.0888 25.0736 42.0068C25.1156 41.9467 25.1867 41.9721 25.2302 42.0029C25.344 42.0841 25.4876 42.2262 25.8291 42.4684C26.1655 42.7067 26.5803 42.96 26.9546 43.2249C27.6218 43.6981 27.4118 44.1613 27.2972 44.3249C27.0608 44.6641 26.6193 44.7511 26.3023 44.706C26.0384 44.666 25.8546 44.5932 25.5289 44.4442L25.5212 44.4554C26.2847 45.0449 25.918 45.7571 25.7882 45.9427C25.5063 46.3473 24.7299 46.8105 23.7754 46.1337C23.5425 45.9689 23.1877 45.6524 22.564 45.2104C22.2386 44.9794 21.9097 44.8127 21.8498 44.7696C21.8284 44.7546 21.7791 44.7199 21.8211 44.6598C21.8784 44.5778 21.9643 44.6056 22.0656 44.6695C22.3665 44.8416 22.4001 44.8169 22.7473 44.5401L24.9613 42.7602ZM23.5726 44.7988C23.5218 44.8366 23.2033 45.0837 23.1422 45.1719C23.0509 45.3028 23.0979 45.4095 23.4397 45.6516C23.8136 45.9169 24.0294 45.9797 24.2521 45.9743C24.5611 45.9727 24.9594 45.7729 25.1882 45.4449C25.6572 44.7727 25.1309 44.3996 24.7348 44.1193C24.5775 44.008 24.5668 44.0003 24.4167 44.1231L23.5726 44.7988ZM24.7169 43.8775C24.8051 43.9484 24.8433 43.9753 24.8758 43.9984C25.1305 44.179 25.3937 44.3241 25.6278 44.3842C25.9497 44.4566 26.3699 44.3299 26.6216 43.9691C26.9683 43.4713 26.5635 43.193 26.3244 43.0239C26.0426 42.8237 26.0334 42.826 25.9207 42.9173L24.7169 43.8775ZM30.3026 46.0678C30.345 46.0867 30.4305 46.1237 30.4019 46.1903C30.3809 46.2399 28.8001 47.9409 28.6878 48.2046C28.6668 48.2543 28.6553 48.3144 28.7042 48.3355C28.8505 48.3994 29.3646 48.1053 29.4864 48.0048C29.5265 47.9786 29.5586 47.9709 29.583 47.9813C29.6136 47.994 29.6273 48.0294 29.6143 48.0602C29.549 48.2135 28.6282 48.7679 28.0859 48.5338C28.019 48.5053 27.8422 48.4287 27.9518 48.1707C28.0171 48.0175 28.278 47.7083 28.4009 47.5728L28.6794 47.2571C28.7046 47.2309 28.7768 47.1459 28.7936 47.1239L28.7863 47.1066C28.7148 47.1567 28.6401 47.2023 28.5629 47.2429C27.8903 47.621 27.0478 48.0926 26.4871 47.8512C26.1457 47.7037 26.1063 47.3376 26.253 46.9938C26.7514 45.8206 28.4911 45.3583 29.3138 45.7132C29.4902 45.7891 29.6002 45.8876 29.6453 45.9508C29.6453 45.9508 29.7064 46.0282 29.7243 46.0359C29.7488 46.0463 29.7965 46.002 29.8129 45.98C29.8802 45.9073 29.9271 45.898 30.104 45.9739L30.3026 46.0678ZM27.0356 47.5794C27.4923 47.7765 29.3157 46.7612 29.5166 46.2881C29.6208 46.042 29.3607 45.9084 29.2878 45.8769C28.4834 45.5296 27.1738 46.5918 26.9336 47.1574C26.8996 47.2375 26.798 47.4766 27.0356 47.5794ZM29.9546 48.6201C29.9798 48.5161 30.1055 48.2786 30.2598 48.3171C30.395 48.3502 30.4523 48.4811 30.5871 48.796C30.7483 49.1729 30.8835 49.2615 30.9996 49.29C31.2379 49.3485 31.4292 49.1209 31.472 48.9454C31.5205 48.744 31.4396 48.5723 31.1814 48.1446C30.9121 47.6791 30.8048 47.4188 30.8583 47.1978C30.9465 46.8348 31.4953 46.3716 32.2744 46.5633C32.7121 46.6715 33.0203 46.8921 32.9642 47.1251C32.9375 47.2356 32.8229 47.5101 32.6621 47.4708C32.5334 47.4392 32.452 47.2949 32.3795 47.174C32.3077 47.0461 32.1423 46.7716 31.8463 46.6989C31.8012 46.6877 31.5438 46.6523 31.4858 46.8921C31.4354 47.0997 31.5686 47.3938 31.9613 48.0549C32.1301 48.3444 32.2294 48.5542 32.1664 48.8137C32.0514 49.2873 31.4002 49.5814 30.7372 49.4182C30.6146 49.3881 29.819 49.1783 29.9546 48.6201ZM33.7663 48.6828C33.7418 48.8018 33.7372 48.8484 33.7338 48.888C33.6719 49.5398 34.0951 49.6407 34.2204 49.6534C34.3391 49.6638 34.6642 49.6754 35.1183 49.3096C35.2775 49.1772 35.292 49.1652 35.3249 49.1683C35.3646 49.1722 35.3745 49.2068 35.3715 49.2399C35.3608 49.3535 34.6325 50.0823 33.9133 50.013C33.4187 49.9649 32.952 49.5514 33.0215 48.8187C33.1452 47.5155 34.4682 46.9041 35.174 46.9726C35.5437 47.008 35.9768 47.2848 35.9325 47.7507C35.8642 48.4687 34.8471 48.5923 34.5721 48.6124L33.7663 48.6828ZM35.3352 47.5185C35.3409 47.4585 35.3703 47.1462 35.0537 47.1154C34.5656 47.0681 34.0405 47.763 33.8098 48.5057C34.2704 48.4961 35.2504 48.4098 35.3352 47.5185ZM37.2105 48.3983C37.6798 47.6521 38.1504 46.9268 38.6984 46.8852C39.135 46.8521 39.5429 47.249 39.5899 47.8689C39.6743 49.0012 38.5373 50.0592 37.44 50.1428C37.1364 50.1662 36.5047 50.0796 36.4516 49.3666C36.4271 49.0401 36.5337 48.5966 36.6127 48.2297L36.9664 46.7416C36.9909 46.6257 37.0455 46.3739 37.0382 46.2807C37.0321 46.1941 36.9756 46.1452 36.8832 46.1521C36.8495 46.1545 36.6788 46.1806 36.6719 46.1814C36.6322 46.1845 36.56 46.1895 36.5539 46.1167C36.5451 45.9966 36.6903 45.9858 36.8889 45.9708C37.1697 45.9457 37.4406 45.854 37.6795 45.7032C37.7056 45.6822 37.7366 45.6683 37.7696 45.6628C37.8158 45.6589 37.8441 45.684 37.8479 45.7371C37.8532 45.8033 37.2742 48.0991 37.196 48.3864L37.2105 48.3983ZM38.9016 47.7338C38.8844 47.5074 38.7859 47.2471 38.5144 47.2675C37.8341 47.3195 36.9137 48.9639 36.963 49.6234C36.9889 49.9699 37.3075 49.9657 37.3606 49.9618C38.2787 49.8917 38.9559 48.4599 38.9016 47.7338ZM43.0295 45.8907C43.0742 45.8788 43.1639 45.8538 43.183 45.9246C43.1972 45.9766 43.0157 48.3001 43.0914 48.5769C43.1055 48.6289 43.1345 48.6828 43.1853 48.6686C43.3381 48.6258 43.5585 48.073 43.5917 47.9182C43.6066 47.8724 43.6268 47.8458 43.652 47.8385C43.6596 47.8363 43.6674 47.8356 43.6752 47.8365C43.683 47.8375 43.6905 47.84 43.6973 47.8439C43.7041 47.8478 43.7101 47.853 43.7148 47.8593C43.7196 47.8656 43.723 47.8728 43.725 47.8805C43.7697 48.0414 43.3938 49.0543 42.8255 49.2122C42.7553 49.2318 42.5697 49.2838 42.4959 49.0128C42.452 48.8518 42.4646 48.4456 42.4757 48.2632L42.4982 47.8412C42.5021 47.805 42.5059 47.6929 42.5051 47.666L42.4887 47.6564C42.4644 47.7407 42.4343 47.8231 42.3985 47.9032C42.1068 48.6227 41.7413 49.5214 41.1535 49.6846C40.796 49.7847 40.5389 49.5237 40.4404 49.1629C40.1032 47.9328 41.176 46.4767 42.0384 46.2368C42.2232 46.1849 42.3703 46.1933 42.444 46.2134C42.444 46.2134 42.5402 46.2353 42.559 46.2299C42.5842 46.223 42.5941 46.1575 42.5941 46.1306C42.601 46.0313 42.6323 45.9943 42.8171 45.9435L43.0295 45.8907ZM41.4139 49.1271C41.8929 48.9939 42.688 47.0531 42.5521 46.5576C42.481 46.2996 42.1954 46.3589 42.1186 46.3801C41.2749 46.6145 40.9102 48.2689 41.0729 48.8615C41.0954 48.945 41.1645 49.196 41.4139 49.1271ZM44.9361 46.8051C44.9555 47.0157 45.0121 47.6918 45.0705 47.8262C45.09 47.8689 45.1263 47.9036 45.1748 47.882C45.326 47.815 45.4849 47.2329 45.5112 47.0608C45.5189 47.0284 45.5223 47.0046 45.5471 46.9938C45.5777 46.9803 45.6247 46.9884 45.6403 47.0253C45.7209 47.209 45.3913 48.2601 44.9666 48.4487C44.7787 48.5323 44.6191 48.4503 44.5259 48.2358C44.4319 48.0214 44.3617 47.4469 44.3468 47.2132L44.1504 44.8612C44.1371 44.7137 44.126 44.6387 44.0989 44.5778C44.0408 44.4431 43.8713 44.5043 43.8468 44.5147C43.6379 44.6006 43.6142 44.611 43.5871 44.5493C43.5417 44.4454 43.6444 44.4003 43.8147 44.3245C43.8999 44.2868 44.1661 44.1682 44.4293 43.8906C44.5255 43.7974 44.535 43.7855 44.553 43.777C44.5774 43.7666 44.6397 43.7605 44.6611 43.8094C44.6714 43.834 44.6687 43.8425 44.6767 43.9118L44.9361 46.8051ZM46.6177 45.9477C46.6566 46.1552 46.7735 46.8228 46.8446 46.9514C46.8671 46.9918 46.9072 47.0238 46.9534 46.9972C47.0982 46.9168 47.2032 46.3227 47.2139 46.1491C47.2185 46.116 47.2208 46.0921 47.2437 46.079C47.2727 46.0624 47.3204 46.0663 47.3399 46.1017C47.4362 46.2769 47.2028 47.3545 46.7968 47.5817C46.6169 47.6818 46.4508 47.614 46.3389 47.4096C46.2262 47.2051 46.1048 46.6396 46.0681 46.407L45.6617 44.0827C45.635 43.9376 45.617 43.8633 45.585 43.8051C45.5139 43.6765 45.3508 43.7524 45.3275 43.7651C45.1278 43.8694 45.1045 43.8825 45.0724 43.8236C45.017 43.7243 45.1156 43.6696 45.2783 43.5784C45.5 43.4563 45.6948 43.2902 45.8512 43.0902C45.9386 42.9878 45.9474 42.975 45.9646 42.9654C45.9879 42.9527 46.0498 42.9416 46.075 42.9881C46.0883 43.0116 46.0853 43.0205 46.1002 43.089L46.6177 45.9477ZM49.9504 39.7148C50.0623 39.6097 50.3823 39.3094 50.4858 39.4214C50.5492 39.4899 50.7761 39.9801 50.8334 40.0817C50.9476 40.2938 50.961 40.3177 50.8983 40.3774C50.8445 40.4271 50.7933 40.4113 50.7394 40.3527C50.6894 40.2992 50.4797 39.9939 50.4263 39.9346C50.3629 39.8669 50.2406 39.7344 50.0226 39.9392C49.2071 40.7046 48.85 42.4742 49.8981 43.608C50.3537 44.102 51.0992 44.3984 51.637 43.8921C52.195 43.3689 51.9868 42.6147 51.8818 42.2843C51.852 42.1935 51.8535 42.1369 51.8929 42.0999C51.9414 42.0549 51.9822 42.0795 52.0101 42.1088C52.0368 42.138 52.054 42.1673 52.1766 42.4268C52.2469 42.5808 52.3386 42.7683 52.4413 42.9088C52.5444 43.0501 52.1384 43.6592 51.7111 44.06C50.6207 45.0849 49.6036 44.5239 49.2198 44.1081C48.2615 43.0721 48.6996 40.8891 49.9504 39.7148ZM52.8068 40.5757C52.921 40.7532 53.2827 41.3245 53.3976 41.4165C53.4335 41.445 53.4828 41.4585 53.5157 41.4165C53.6188 41.2856 53.4905 40.6969 53.4335 40.5322C53.4255 40.4998 53.4179 40.4763 53.4343 40.4563C53.4553 40.4301 53.5008 40.4151 53.5321 40.4398C53.6871 40.5645 53.8819 41.6506 53.5932 42.0168C53.4656 42.1785 53.2857 42.1808 53.1047 42.0349C52.9233 41.8897 52.5952 41.4138 52.4738 41.2136L51.2138 39.2239C51.134 39.1007 51.0893 39.0391 51.037 38.9975C50.9228 38.9059 50.8013 39.0387 50.7849 39.0599C50.6394 39.2335 50.6229 39.2547 50.5706 39.2131C50.4828 39.1423 50.5527 39.053 50.6684 38.9063C50.7257 38.8335 50.9071 38.6033 51.0114 38.234C51.053 38.1054 51.0568 38.0912 51.0687 38.0754C51.0851 38.0542 51.1382 38.0196 51.1798 38.0527C51.2 38.0693 51.2016 38.0789 51.2409 38.1362L52.8068 40.5757ZM54.7008 37.4994C54.7118 37.5064 55.5712 39.195 55.0968 40.0305C54.9357 40.3146 54.671 40.1622 54.6366 40.1418C54.3777 39.9928 53.9572 39.4957 53.8705 39.3921C53.7227 39.2224 53.0363 38.3184 52.9791 38.2852C52.9389 38.2618 52.9023 38.2868 52.8889 38.3099C52.8427 38.3911 52.8794 38.7973 53.0547 39.1211C53.0734 39.1558 53.086 39.2008 53.0696 39.2301C53.0493 39.2647 53.0054 39.2616 52.9764 39.2451C52.8041 39.1457 52.5154 38.2406 52.8347 37.6781C52.9107 37.5449 53.0085 37.4937 53.1414 37.5699C53.377 37.7062 54.6072 39.3467 54.8138 39.4665C54.9063 39.52 54.9571 39.4568 54.9803 39.416C55.122 39.1665 54.9406 38.3692 54.5751 37.573C54.4372 37.2781 54.3169 37.0317 53.7987 36.4788C53.7093 36.381 53.6421 36.3109 53.7055 36.1862L53.8861 35.8281C53.9056 35.7935 53.9495 35.7415 54.0068 35.7746C54.1164 35.8377 55.4532 37.5326 55.7927 37.7281C55.8271 37.7485 55.8771 37.7535 55.9008 37.7139C55.9203 37.6785 55.9753 37.3793 55.7186 36.8238C55.6919 36.7622 55.6961 36.7417 55.703 36.7298C55.7125 36.7125 55.753 36.6817 55.7931 36.7052C56.0348 36.8442 56.2892 37.931 56.0222 38.4C56.0055 38.4289 55.9831 38.4541 55.9565 38.4742C55.9299 38.4942 55.8995 38.5087 55.8672 38.5167C55.835 38.5247 55.8014 38.5261 55.7686 38.5208C55.7358 38.5155 55.7044 38.5036 55.6762 38.4858C55.515 38.3927 55.0266 37.8413 54.7191 37.4948L54.7008 37.4994ZM55.7018 34.8991C55.1977 34.1764 54.7126 33.4607 54.8841 32.9336C55.0205 32.5147 55.5422 32.286 56.1277 32.4801C57.1982 32.8351 57.7321 34.2992 57.3892 35.3534C57.2937 35.6452 56.9729 36.2 56.2991 35.9767C55.9909 35.8743 55.6247 35.606 55.3176 35.3915L54.0897 34.4921C53.9935 34.4244 53.783 34.2777 53.6952 34.2484C53.6131 34.2215 53.5458 34.2554 53.5168 34.3447C53.5065 34.3762 53.4652 34.5453 53.463 34.5514C53.4511 34.5899 53.4278 34.6596 53.3587 34.6365C53.2453 34.5988 53.2907 34.459 53.3533 34.2688C53.4419 33.9959 53.4534 33.704 53.4106 33.4295C53.4013 33.3972 53.4003 33.363 53.4076 33.3302C53.4217 33.2859 53.4553 33.2693 53.5061 33.2851C53.5687 33.3063 55.4509 34.7251 55.6842 34.9079L55.7018 34.8991ZM55.74 33.0695C55.5257 32.9987 55.2492 32.9914 55.1648 33.2516C54.9513 33.9058 56.1063 35.3927 56.7299 35.5994C57.0573 35.7076 57.1753 35.4092 57.1925 35.358C57.4793 34.4756 56.4267 33.2967 55.74 33.0695Z" fill="#A0A0B9"/>
<path d="M34.3683 43.1866V34.1659H34.5719V43.1866H34.3683ZM45.3812 40.3853V14.8654H45.5847V40.3853H45.3812ZM26.1084 39.5991V15.7994H26.312V39.5991H26.1084ZM28.8621 41.548V13.8458H29.0653V41.548H28.8621ZM31.615 42.6322V12.6277H31.8186V42.6322H31.615ZM37.1212 43.301V12.0078H37.3248V43.301H37.1212ZM39.8745 42.9722V12.3497H40.0781V42.9722H39.8745ZM42.6278 42.0066V13.2984H42.8314V42.0066H42.6278ZM23.5587 18.7385V36.74H23.3555V18.7385H23.5587ZM34.3683 19.7427V12.0521H34.5719V19.7427H34.3683ZM48.4641 17.669V37.7068H48.2605V17.669H48.4641Z" fill="#A0A0B9"/>
<path d="M36.3542 10.8985C27.1918 10.8985 19.7641 18.3862 19.7641 27.6226C19.7641 32.2404 21.621 36.4216 24.6233 39.4481C27.6253 42.4739 31.773 44.3466 36.3542 44.3466C40.935 44.3466 45.0827 42.4743 48.085 39.4481C51.0866 36.4216 52.9443 32.2404 52.9443 27.6226C52.9443 23.0044 51.087 18.8236 48.085 15.797C45.0827 12.7708 40.9354 10.8985 36.3542 10.8985ZM36.3542 10.6914C40.9919 10.6914 45.1908 12.5868 48.2306 15.6503C51.2696 18.7142 53.1494 22.947 53.1494 27.6226C53.1494 32.2977 51.2696 36.5305 48.2306 39.5948C45.1908 42.6583 40.9919 44.5534 36.3542 44.5534C31.7161 44.5534 27.5172 42.6583 24.4778 39.5948C21.4384 36.5305 19.5586 32.2977 19.5586 27.6226C19.559 18.2722 27.0787 10.6914 36.3542 10.6914Z" fill="#A0A0B9"/>
<path d="M36.3572 12.1277C32.1137 12.1277 28.2715 13.8618 25.4907 16.665C22.7099 19.4683 20.9897 23.3415 20.9897 27.6193C20.9897 31.8971 22.7099 35.7699 25.4907 38.5732C28.2715 41.3764 32.1137 43.1105 36.3572 43.1105C40.6008 43.1105 44.4426 41.3764 47.2234 38.5732C50.0042 35.7699 51.7244 31.8971 51.7244 27.6193C51.7244 23.3415 50.0042 19.4683 47.2234 16.665C44.4426 13.8618 40.6012 12.1277 36.3572 12.1277ZM36.3572 11.4805C40.7777 11.4805 44.7806 13.2869 47.6779 16.2072C50.5744 19.1279 52.3668 23.1624 52.3668 27.6193C52.3668 32.0754 50.5744 36.1107 47.6779 39.0314C44.7806 41.9513 40.778 43.7581 36.3572 43.7581C31.9364 43.7581 27.9339 41.9513 25.0366 39.0314C22.1397 36.1107 20.3477 32.0758 20.3477 27.6193C20.3477 23.1624 22.1397 19.1279 25.0366 16.2072C27.9339 13.2869 31.9364 11.4805 36.3572 11.4805Z" fill="#A0A0B9"/>
<path fill-rule="evenodd" clip-rule="evenodd" d="M17.5083 17.0505C17.5358 17.064 17.5529 17.0986 17.5327 17.1402C17.4174 17.3762 16.6642 16.7094 16.2028 17.6542C15.9385 18.1963 16.1364 18.562 16.474 18.7295C17.4666 19.2219 18.3531 17.072 19.7731 17.7762C20.6626 18.2174 20.7401 19.0587 20.3296 19.8996C20.2719 20.0178 20.0607 20.31 19.8972 20.5221C19.5974 20.9083 19.4358 20.9233 19.0157 20.715C18.8293 20.6226 18.426 20.3966 18.494 20.2576C18.5819 20.077 18.7075 20.3288 19.1884 20.3084C19.3465 20.3003 19.8613 20.2622 20.1462 19.6786C20.4686 19.0187 20.1974 18.5559 19.8529 18.3853C18.8049 17.8656 17.8566 19.9846 16.5328 19.3282C15.9538 19.041 15.5853 18.3229 16.0157 17.4405C16.0631 17.3431 16.1379 17.2076 16.2334 17.0821C16.5981 16.5985 16.6738 16.6358 16.9358 16.766L17.5083 17.0505ZM21.1702 14.8806C20.9807 14.8101 20.962 14.8348 20.5683 15.3303C20.2406 15.7403 20.189 15.8573 20.2184 15.9197C20.4017 16.2997 21.0147 17.2445 21.0816 17.2973C21.2026 17.3928 21.3504 17.3027 21.4005 17.2634C21.5953 17.1121 21.714 17.0093 21.7629 17.0474C21.8355 17.1048 21.7599 17.2022 21.7266 17.2449C21.5991 17.4097 21.4234 17.586 21.2863 17.7631C21.1068 17.9953 20.9464 18.2521 20.7856 18.4596C20.7478 18.5085 20.7107 18.5185 20.6565 18.4758C20.5774 18.4138 20.7126 18.2648 20.7764 18.0692C20.8287 17.9137 20.81 17.8498 20.7669 17.767L18.4673 13.4503C18.4605 13.4358 18.458 13.4198 18.4599 13.404C18.4619 13.3882 18.4683 13.3732 18.4784 13.3609C18.5066 13.324 18.5486 13.3078 18.5777 13.3209L22.6719 14.7169C23.0947 14.8632 23.2681 14.8032 23.3536 14.7427C23.5297 14.6161 23.6015 14.4859 23.692 14.5575C23.7528 14.6053 23.7272 14.6634 23.6703 14.737C23.4671 14.9995 23.2818 15.1878 23.0974 15.4257C22.9224 15.6517 22.7808 15.8839 22.5967 16.1222C22.5493 16.1834 22.4878 16.1742 22.4638 16.155C22.3912 16.098 22.4676 15.9617 22.6012 15.7133C22.6238 15.6722 22.665 15.5178 22.5619 15.4369C22.5199 15.4034 22.4405 15.3803 22.3824 15.3545L21.1702 14.8806ZM19.8457 15.42C19.8728 15.4608 19.89 15.5139 19.9266 15.5424C19.9568 15.5659 20.2597 15.1755 20.2975 15.1266C20.3257 15.09 20.6282 14.6992 20.5919 14.6704C20.5618 14.6465 20.5217 14.6349 20.4533 14.6107L19.246 14.1806C19.2292 14.1772 19.2002 14.1645 19.1815 14.1887C19.1723 14.201 19.1746 14.2226 19.188 14.243L19.8457 15.42Z" fill="#A0A0B9"/>
<path fill-rule="evenodd" clip-rule="evenodd" d="M24.22 8.94321C24.0848 8.76495 24.0073 8.83426 23.6269 9.07874C23.5505 9.12725 23.4409 9.21234 23.3756 9.12609C23.3011 9.02753 23.395 8.94514 23.4611 8.89432C23.6643 8.73762 23.8919 8.60133 24.0955 8.44501C24.2547 8.32219 24.4449 8.137 24.5603 8.04807C24.6206 8.00148 24.7005 7.96914 24.7612 8.04922C24.8108 8.13739 24.7589 8.20708 24.6489 8.29139C24.3029 8.55782 24.3705 8.68141 24.7199 9.14303L26.9813 12.1276C27.0699 12.2447 27.1475 12.3702 27.065 12.4337C26.9935 12.4888 26.8568 12.4576 26.7254 12.4222L22.0915 11.1863C22.0709 11.1824 22.0453 11.1828 22.0285 11.1955C22.0121 11.2082 22.0354 11.239 22.1007 11.3249L23.6085 13.2919C23.725 13.4455 23.8014 13.5237 23.8992 13.6526C24.1512 13.9849 24.3006 13.9183 24.4419 13.829C24.7299 13.6465 24.8845 13.5175 24.959 13.6161C25.0197 13.6962 24.9701 13.7343 24.9151 13.7762C24.7394 13.9118 24.4954 14.0608 24.2589 14.2425C23.8033 14.594 23.7445 14.6775 23.5745 14.8084C23.536 14.8381 23.471 14.8785 23.4244 14.8169C23.3591 14.7307 23.382 14.7033 23.7277 14.3788C23.8335 14.2775 23.8358 14.1882 23.7609 14.09L21.985 11.6082C21.8834 11.4623 21.7909 11.3287 21.7581 11.286C21.4461 10.8737 21.3548 10.9145 21.176 11.023C20.8281 11.2417 20.7624 11.2925 20.6925 11.2001C20.6413 11.1324 20.691 11.0261 20.7792 10.9584C20.856 10.8991 21.0011 10.8263 21.1825 10.6869C21.3418 10.5641 21.4002 10.4802 21.4663 10.4294C21.587 10.3366 21.7119 10.3862 21.7978 10.4078L26.1059 11.5925C26.1262 11.5963 26.1457 11.6102 26.1732 11.5894C26.2117 11.5597 26.1548 11.4966 26.08 11.3976L24.22 8.94321ZM30.6344 9.4599C30.7654 9.98582 31.2929 10.0998 31.7772 9.97735C32.3581 9.83066 33.6226 8.99172 33.2434 7.46709C32.8603 5.92744 31.3189 5.59017 30.395 5.82387C29.7839 5.97826 29.8026 6.11725 29.8286 6.22274L30.6344 9.4599ZM30.4209 10.5121C30.2048 10.5668 29.9367 10.6665 29.7579 10.7116C29.7205 10.7212 29.6235 10.7454 29.6051 10.6708C29.5903 10.6107 29.6258 10.5298 29.8397 10.4359C29.9962 10.3643 30.162 10.2984 30.0535 9.863L29.1751 6.33247C29.1396 6.19001 28.8306 6.28395 28.6331 6.31783C28.4582 6.34594 28.4059 6.35942 28.3857 6.27664C28.354 6.1492 28.5549 6.09838 28.6442 6.07566L29.3221 5.90434C29.6873 5.81193 30.0264 5.67833 30.5031 5.55783C32.0678 5.16242 33.5291 5.62289 33.9793 7.43321C34.2597 8.56013 33.4615 9.74365 32.1801 10.0678L30.4209 10.5121ZM36.1674 9.07912C36.1739 9.28818 36.3519 9.32168 36.4363 9.33438C36.6838 9.37327 36.8526 9.36827 36.8556 9.47645C36.8587 9.56154 36.7204 9.57348 36.5745 9.5781C36.3756 9.58426 36.2129 9.55807 35.8214 9.57001C35.4456 9.58156 35.2313 9.61891 35.0392 9.62507C34.8627 9.63046 34.7543 9.61044 34.7516 9.51765C34.7486 9.41716 34.7948 9.42332 35.1393 9.37404C35.2771 9.3544 35.5139 9.3082 35.5051 9.02176L35.3967 5.4146C35.389 5.16704 35.3035 5.13085 35.0797 5.09928C34.8555 5.05962 34.7944 5.07695 34.7913 4.96876C34.7879 4.86019 34.9036 4.85673 34.9957 4.85403C35.234 4.84672 35.3573 4.87405 35.7183 4.86288C36.0257 4.85364 36.1785 4.81784 36.4084 4.81091C36.5776 4.8059 36.7537 4.80051 36.7567 4.8933C36.7613 5.03267 36.6223 5.01342 36.2629 5.06347C36.0559 5.09312 36.0551 5.32567 36.0612 5.52664L36.1674 9.07912ZM38.5896 5.44502C38.6201 5.24597 38.5499 5.1963 38.2787 5.09119C38.0503 5.00842 37.9541 4.978 37.9686 4.88599C37.9789 4.81745 38.0885 4.81091 38.2027 4.82862C38.483 4.87251 39.1017 4.99995 39.2912 5.02921C39.5196 5.06463 40.5943 5.20054 41.2398 5.30064C41.354 5.31835 41.3414 5.40267 41.3165 5.5636L41.2039 6.29858C41.1993 6.32939 41.1664 6.33978 41.1359 6.33516C41.0373 6.31976 41.0648 6.23814 40.9839 5.95862C40.9109 5.67294 40.8915 5.54474 39.6009 5.34376C39.3278 5.30141 39.2667 5.39343 39.227 5.65408L39.0242 6.97813C39.0009 7.13097 39.1121 7.16409 39.3786 7.20528L40.039 7.30808C40.6008 7.39548 40.5267 6.71016 40.7169 6.73942C40.8154 6.75482 40.8124 6.82489 40.7998 6.90882C40.7731 7.08516 40.7261 7.18719 40.6707 7.54717C40.6214 7.86865 40.6207 8.08002 40.5878 8.29409C40.5767 8.363 40.5603 8.42307 40.4843 8.41113C40.3701 8.39342 40.3812 8.26983 40.3778 8.04229C40.3701 7.63341 40.3098 7.56912 39.376 7.42435C39.0192 7.36853 38.9589 7.40626 38.936 7.55949L38.7084 9.04447C38.6553 9.38906 38.6801 9.43179 39.5608 9.56885C40.0772 9.64894 40.2636 9.60004 40.4507 9.44065C40.8796 9.07643 40.8727 8.87122 41.0011 8.89162C41.0698 8.90202 41.0713 8.94167 41.066 8.97979C41.0606 9.01059 41.0324 9.04524 41.0167 9.0976L40.7528 9.85569C40.7119 9.97465 40.6596 10.0058 40.5538 9.98928L38.3898 9.65279C37.5469 9.5215 37.4663 9.54036 37.3911 9.52881C37.33 9.51919 37.2082 9.50032 37.2227 9.40869C37.2399 9.29396 37.3739 9.33053 37.5725 9.30628C37.7791 9.27586 37.9942 9.34824 38.0423 9.02676L38.5896 5.44502ZM45.4116 10.3104C45.6025 9.87032 45.6292 9.78946 45.2137 9.6062C44.8131 9.4291 44.7489 9.38367 44.7856 9.29858C44.8444 9.16382 44.9846 9.2262 45.0907 9.27278C45.386 9.4033 45.669 9.54498 45.9642 9.67512C46.2663 9.80872 46.5753 9.92807 46.7861 10.0212C46.9412 10.0894 47.0122 10.1379 46.9816 10.2087C46.9324 10.3223 46.7773 10.2542 46.5879 10.1702C46.4393 10.1052 46.2537 10.0313 46.1494 10.2723L45.6625 11.393C45.6224 11.4854 45.5425 11.6106 45.3879 11.6186C44.9135 11.629 44.4017 11.5721 43.6772 11.2521C42.4172 10.6958 41.5594 9.44642 42.1854 8.00649C42.8358 6.50957 44.3322 6.09645 45.8099 6.74905C46.2812 6.95734 46.5634 7.17487 46.8976 7.44899C47.1386 7.64843 47.1161 7.75662 46.8109 8.45926C46.7865 8.51585 46.7578 8.50353 46.6944 8.47543C46.5401 8.4069 46.8361 7.45592 45.7591 6.98044C45.2668 6.76291 43.822 6.28549 42.9588 8.27176C42.3821 9.59811 43.0795 10.7347 43.8682 11.0827C44.0443 11.1605 44.2711 11.2352 44.4613 11.2602C44.7245 11.2918 44.9521 11.3668 45.2355 10.7143L45.4116 10.3104ZM51.0358 10.0582C52.418 11.229 52.1063 12.8064 51.4341 13.6122C50.7322 14.4542 49.264 15.0718 47.8238 13.8509C46.7296 12.9242 46.5474 11.445 47.4919 10.3131C48.3818 9.24622 49.9125 9.10684 51.0358 10.0582ZM48.0014 13.6985C49.2957 14.7946 50.6382 13.2919 50.8853 12.9954C51.5231 12.2308 51.7993 11.0084 50.8643 10.2161C50.2288 9.67781 49.1487 9.60196 48.1049 10.8529C46.9786 12.205 47.5186 13.29 48.0014 13.6985Z" fill="#A0A0B9"/>
<path fill-rule="evenodd" clip-rule="evenodd" d="M45.558 19.8044C45.4461 19.4836 45.2948 19.0732 45.0126 19.0798C44.8037 19.0844 44.8239 19.3916 44.8239 19.3916L44.8232 22.2769C44.4615 22.6095 44.0272 22.5895 44.0272 22.5895V19.0567C44.0272 18.7548 44.1303 18.2655 44.8239 18.4707C45.1577 18.5685 45.5397 19.3327 45.558 19.8044ZM63.3783 25.5121C63.3783 25.5121 62.7874 25.4174 62.6377 24.7814C62.5548 24.4295 62.4319 24.0194 62.2604 23.8808C62.0881 23.7422 61.1085 22.9799 60.5417 22.8764C60.9198 22.9803 61.2712 23.2448 61.4354 23.8808C61.678 24.8245 62.2344 25.5749 63.3783 25.5121ZM13.5174 42.6058C13.3494 42.5861 12.9041 42.5087 12.8498 42.4907C12.7372 42.4522 12.5508 42.3393 12.5508 42.3393L12.5492 37.1852C12.5492 37.1852 13.7218 37.5702 14.8427 37.4536C15.8579 37.3485 16.535 36.9211 17.1366 36.5038C17.5513 36.2165 19.0183 34.4952 19.3193 31.8798C19.3594 31.5294 19.5022 27.7048 16.4861 25.1002L16.2241 24.987C18.1552 25.9753 19.8731 28.0262 20.247 29.1193C20.5556 30.021 18.4523 36.4961 18.4523 36.4961C18.4523 36.4961 17.7396 38.1262 16.0557 38.5077C14.6456 38.8265 13.6343 38.6806 13.6343 38.6806L13.6389 42.3043C13.6389 42.436 13.8043 42.5781 13.9165 42.6065C14.198 42.6789 14.7446 42.8583 15.3178 43.2638C15.6581 43.5036 15.7647 44.264 15.0925 44.8496C15.0925 44.8496 14.0048 45.7166 12.6661 46.6973C11.5482 47.5162 10.556 48.2412 9.40103 49.1232C8.85755 49.5382 8.40459 49.1594 8.40459 49.1594L7.37109 48.4768C7.83284 48.7867 8.5818 48.2978 8.5818 48.2978C8.5818 48.2978 13.9838 44.1835 14.3351 43.9002C14.5101 43.7596 14.7831 43.0339 13.9131 42.6639C13.857 42.6277 13.6859 42.6239 13.5174 42.6058ZM21.1476 38.403C21.0513 38.3626 20.9203 38.3091 20.8791 38.3052C20.6533 38.2864 20.3337 38.3052 20.2962 38.0399L20.7668 35.9366L23.813 34.149L24.1869 35.1085L21.6448 36.6516L21.3019 38.1578C21.2365 38.4404 21.3924 38.5863 21.4512 38.6413C21.6055 38.788 22.0371 38.9112 22.3441 39.3001C22.4175 39.3925 22.6863 40.0489 21.9756 40.5017C21.2079 40.9907 20.247 41.6117 19.2704 42.2373C18.8354 42.5157 18.5287 42.3975 18.3603 42.3413C18.1918 42.2843 17.2313 41.5458 17.2313 41.5458C17.6678 41.7564 18.2678 41.5016 18.2678 41.5016L21.222 39.6712C21.5734 39.4418 21.3759 38.8924 21.3091 38.656C21.2717 38.5243 21.2132 38.4504 21.1476 38.403ZM35.063 19.6777C38.0657 20.0923 39.7344 23.1012 39.7344 23.1012L39.7351 28.6261C39.7351 28.6261 39.7523 29.0681 39.6492 29.1893C39.4747 29.3953 38.8063 29.9428 38.9369 30.466C38.943 30.493 39.2532 30.2974 39.1852 30.9023C39.092 31.7316 37.5268 33.18 36.2363 33.689C34.5444 34.3566 32.1134 35.2683 25.9889 38.4407C25.8258 38.5251 25.5004 38.5401 25.233 38.4407C24.8774 38.3091 24.0506 37.6746 24.0506 37.6746C24.4619 37.849 24.9561 37.5852 24.9561 37.5852C30.9986 34.6157 35.0061 32.932 35.0061 32.932C37.9718 31.8274 40.0105 28.9992 39.357 24.9115C38.7043 20.8235 36.0767 20.0589 35.063 19.6777Z" fill="#A0A0B9"/>
<path fill-rule="evenodd" clip-rule="evenodd" d="M44.5525 28.055C44.2646 27.9595 44.2898 27.8941 44.1698 27.7558C44.0499 27.6176 44.0805 27.3312 44.0805 27.3312V24.7751L45.0108 26.133L44.9959 27.7016C45.0078 28.1409 45.1048 28.2768 45.4012 28.455C45.7735 28.6799 46.1627 28.9136 46.3262 29.0198C46.5828 29.1862 46.794 29.4214 46.7856 29.704C46.7761 30.0813 46.6283 30.4047 45.9255 30.6373C45.9255 30.6373 43.0424 31.3434 41.9012 31.7338C41.1771 31.9813 40.6607 31.9563 40.3804 31.7299C40.1776 31.5659 39.2266 30.9156 39.2266 30.9156C39.5669 31.0284 39.8548 31.1112 40.1524 31.0134L44.7622 29.6012C44.7622 29.6012 45.5081 29.3394 45.1529 28.6237C45.0406 28.3973 44.6377 28.0839 44.5525 28.055ZM48.3882 16.6406C48.3882 16.6406 50.4201 17.5716 50.4201 19.9775C50.4208 22.301 48.8626 22.9848 48.8626 22.9848L50.6125 25.8243L50.7057 26.1446C50.7057 26.1446 50.823 26.6027 50.409 26.6574C50.0599 26.7036 49.9083 26.4684 49.9083 26.4684C49.9083 26.4684 47.6824 23.0557 47.5331 22.8297C48.2431 22.3773 50.1707 21.3285 49.6738 18.6673C49.5527 18.0136 48.9649 17.0272 48.3882 16.6406Z" fill="#A0A0B9"/>
<path fill-rule="evenodd" clip-rule="evenodd" d="M67.2248 19.8723C68.3289 20.8056 70.6105 22.058 69.4529 25.2444C68.628 27.5136 66.176 28.6548 63.8455 28.6475C62.9438 28.6444 61.9282 28.2467 61.3083 28.0777C60.6885 27.909 60.4356 28.0484 60.0075 27.5013C59.7218 27.1382 59.9074 28.3287 58.1517 28.4084C56.4338 28.4865 50.8451 29.4071 49.4606 29.6304C47.8829 29.8837 46.0061 27.8744 46.0435 27.837C46.1203 27.7596 47.3192 28.8407 48.18 28.6521C49.5668 28.3483 58.4271 27.1502 58.4271 27.1502C58.4271 27.1502 58.9083 27.1956 59.1314 26.642C59.1314 26.642 59.3388 26.4314 59.367 26.4556C59.8845 26.8968 60.9184 27.0046 60.9134 27.0023C61.6521 27.2795 62.2597 27.4235 64.1159 27.4582C67.976 27.5298 68.7578 23.6816 68.7391 22.8662C68.7017 21.2564 67.1503 19.9851 67.2248 19.8723ZM65.1608 16.2332C64.5627 15.5356 63.407 15.8671 63.1668 16.1655C62.943 16.4427 62.8891 17.3228 63.3555 17.759C63.4754 17.8718 63.8875 18.0786 64.2267 18.2618C64.2267 18.2618 63.6748 17.9769 63.7431 17.3879C63.7962 16.9351 64.0869 16.7122 64.431 16.7122C65.6276 16.7122 66.5293 17.9808 66.8104 18.1506C66.8104 18.1506 67.6609 18.8609 68.3304 18.5668C68.8331 18.3462 68.8159 17.8915 68.7975 17.6462C68.7792 17.401 68.5283 15.8752 68.5237 15.8282C68.4916 15.5267 68.4213 15.1467 68.086 14.9038C67.5952 14.5477 66.9005 14.1615 66.7413 14.1804C66.7225 14.2558 67.2695 14.8553 67.2649 14.8083C67.261 14.7609 67.591 16.8612 67.591 16.8612C67.5872 16.8223 67.7075 17.6362 67.3642 17.8095C67.0224 17.9819 66.5048 17.5969 66.2245 17.3709C65.9438 17.1449 65.7597 16.9305 65.1608 16.2332ZM57.5395 17.3898C57.5395 17.3898 58.0414 18.2718 58.6456 17.9677C59.1363 17.7209 59.0722 17.0783 59.0722 17.0783C59.0722 17.0783 59.0802 15.5525 59.0714 15.4678C59.0619 15.3827 58.9274 14.9227 58.6009 14.6108C58.6009 14.6108 59.516 15.1386 59.6878 15.2372C59.9498 15.3881 59.9743 15.6927 59.9743 15.6927C59.6489 16.2444 59.4327 16.9501 59.3506 17.848C59.3426 17.9319 59.3739 18.5363 59.3739 18.5363C59.3739 18.5363 59.2055 18.7485 58.6818 18.5879C58.4237 18.5086 58.0673 18.1864 57.7496 17.8326C57.5078 17.5634 57.2313 17.3863 57.1133 17.3863C56.8238 17.3863 56.2463 17.4244 56.2463 17.4244C56.1562 17.4414 56.1016 17.4741 56.1016 17.6062L56.0962 19.5551L55.2785 19.5689C55.2785 19.5689 55.0165 19.5285 55.0165 19.3033L55.0157 17.3551C54.9947 16.6848 55.5214 16.629 55.5214 16.629L56.4667 16.6013C56.4667 16.6013 56.9529 16.5817 57.0911 16.778L57.5395 17.3898Z" fill="#A0A0B9"/>
<path fill-rule="evenodd" clip-rule="evenodd" d="M56.0927 25.4724V23.1843C56.0927 22.8555 56.0762 22.7354 56.182 22.6823C56.2298 22.6584 56.4146 22.6438 56.488 22.6988C57.7495 23.6486 58.2299 23.4153 58.4705 23.2297C58.7959 22.9803 58.7994 22.7181 58.7994 22.3889V19.8775C58.7994 19.5829 58.5935 19.3924 58.542 19.3408C58.4904 19.2884 57.9645 18.7375 57.5864 18.5469C57.9996 18.8379 57.9019 19.4497 57.9019 19.4497L57.898 21.985C57.898 21.985 58.0092 22.7893 57.0834 22.7246C56.6782 22.6961 56.5262 22.3558 56.3375 21.9681C56.2317 21.749 56.1278 21.5704 55.9689 21.5704C55.8845 21.5704 55.3857 21.6019 55.3857 21.6019C55.3857 21.6019 55.0195 21.6054 55.0156 21.8999L55.0164 25.422C55.0164 25.422 55.3193 25.5806 55.8177 25.546L56.0927 25.4724ZM8.54973 29.8946C8.54973 29.8946 8.62573 28.3411 9.69092 27.3709C11.2423 25.9587 12.8999 26.2829 12.8999 26.2829C11.7762 25.6137 10.7817 26.0161 10.1634 26.1758C8.90492 26.5012 8.30148 27.6192 7.75685 28.4874C7.30579 29.2078 7.08008 30.6485 7.08008 31.3681C7.08008 32.0884 6.74169 32.3541 6.74169 32.3541L3.54535 34.6287C3.54535 34.6287 3.18175 34.78 2.84375 34.534C2.84375 34.534 3.54306 34.9671 3.8421 35.1184C4.14154 35.2698 4.40812 35.5358 5.04403 35.0838C5.56956 34.7092 7.7939 32.9732 7.7939 32.9732V31.2549C7.7939 31.2549 7.7939 30.7625 7.90695 30.5353C8.0242 30.2985 8.28276 30.0794 8.28276 30.0794L8.54973 29.8946ZM14.1297 28.2033C14.2183 28.3057 14.4772 28.802 14.2477 29.2682C14.0231 29.7256 13.5892 29.9231 13.5892 30.2623L13.5923 34.4154C13.4754 34.5833 13.2806 34.7311 13.2184 34.7427C12.8044 34.8178 12.6726 34.6276 12.6726 34.6276L12.6539 30.0051C12.6539 29.6636 12.7666 29.7021 13.0675 29.3606C13.3681 29.0199 13.9223 28.8855 13.5186 27.95C13.4376 27.7621 13.2913 27.6816 13.1703 27.6069C13.1699 27.6069 13.9987 28.0528 14.1297 28.2033ZM22.1463 32.8257L21.4214 33.2346C21.4352 33.2257 22.2769 29.8885 22.2769 29.8885L22.5958 30.8676L22.1463 32.8257ZM34.8763 24.2235C34.4142 22.5048 33.3979 21.9534 33.0656 21.8761C32.6191 21.7721 32.529 22.1933 32.529 22.1933L32.5294 31.1009C32.5294 31.1009 32.4469 31.6799 32.9621 31.6453C33.1339 31.6333 33.3562 31.5529 33.5804 31.3504V23.2617C33.5804 23.0022 33.7007 22.9183 33.787 22.9009C33.873 22.884 34.1434 22.9591 34.418 23.2879C34.6937 23.6171 34.8763 24.2235 34.8763 24.2235ZM25.309 24.019C24.9728 23.8382 24.6176 23.6958 24.25 23.5947C24.5326 23.7037 24.8775 23.7826 25.0711 24.4056L28.0199 33.074L28.0219 30.1445L26.2321 24.9534C26.0645 24.4637 25.6806 24.2223 25.309 24.019ZM64.416 25.1305C64.416 25.1305 65.092 24.4217 64.4905 23.5555C64.2628 23.2286 61.7864 21.799 61.7864 21.799C62.0236 21.948 61.6871 21.7213 62.3429 22.0659C63.1327 22.4817 64.8166 22.7931 64.9201 23.9016C64.9557 24.2816 64.8197 24.8187 64.416 25.1305Z" fill="#A0A0B9"/>
<path d="M8.31562 45.1671V31.142C8.31562 31.142 8.30034 31.0292 8.35305 30.7631C8.39086 30.5737 8.56005 30.479 8.56005 30.479L12.2082 28.1093C12.2082 28.1093 12.8785 27.6857 13.0729 28.2236C13.362 29.0213 12.2006 28.8604 12.2006 30.3893C12.2006 30.3893 12.2525 34.8569 12.2193 34.8569C13.0393 35.3359 13.6381 34.9478 14.2672 34.3314C15.8793 32.7494 16.4277 25.8034 11.4612 25.5755C7.71561 25.4038 6.68021 30.0767 6.82992 31.2556C6.90631 31.8577 6.49154 32.1272 6.49154 32.1272C6.49154 32.1272 4.27025 33.6846 3.85854 33.9853C3.4472 34.2875 2.9633 34.2259 2.92511 33.9364C2.29417 29.1769 9.55115 20.3598 16.5079 25.656C20.5403 28.726 19.0424 35.0017 16.7883 36.3639C15.1307 37.3649 13.954 37.4234 12.2017 36.6006C12.2105 36.5841 12.2017 42.1282 12.2017 42.1952C12.2017 42.2614 12.2139 42.9067 13.1653 42.9306C13.4292 42.9367 13.7848 42.8886 13.9685 43.2563C14.2149 43.7487 13.4499 44.2196 13.4499 44.2196C13.4499 44.2196 8.5547 47.9026 8.39773 48.0185C8.1491 48.2029 7.80002 48.2703 7.60333 48.072C7.34782 47.814 7.38334 47.3817 7.80918 46.7214C8.21288 46.0942 8.05285 46.2655 8.16552 46.001C8.27819 45.7358 8.316 45.2048 8.316 45.2048M8.31562 45.2044V45.1667M18.0708 41.2473C18.0708 41.2473 17.6785 41.3886 17.4719 41.1488C17.2779 40.9231 17.5021 40.6132 17.8099 40.2012C17.9803 39.9733 18.1116 39.765 18.1945 39.5148C18.1945 39.5148 20.9593 28.0554 21.0735 27.5745C21.2419 26.8676 21.2125 26.6843 21.0846 26.565C20.9822 26.4695 20.8608 26.4379 20.7744 26.4156C20.2817 26.2874 20.3723 25.723 20.7183 25.5628C20.8325 25.5101 23.7936 24.1414 23.9246 24.0848C24.0556 24.0282 24.4543 24.0027 24.6159 24.469C24.6159 24.469 27.5143 32.8995 27.9375 34.0727C28.0868 34.4877 28.5684 34.5447 28.5497 33.8101C28.5172 32.5272 28.5443 24.9106 28.5443 24.345C28.5443 22.7234 27.2725 23.3825 27.1568 23.0013C27.035 22.6009 27.2592 22.4696 27.4459 22.3942C27.5785 22.3407 27.8095 22.3002 32.6966 20.3086C35.5852 19.1312 38.4992 21.6573 39.0221 24.7843C39.5129 27.7216 38.3499 31.13 35.6065 32.2701C32.1547 33.705 28.4004 35.2246 25.332 36.9872C24.9061 37.2321 24.3542 37.6044 24.1663 37.0931C24.0254 36.7096 24.2893 36.4389 24.4306 36.2961C24.6372 36.0878 24.7495 35.5954 24.7018 35.4441L23.988 33.613L20.3501 35.6524L19.8796 37.8323C19.8796 37.8323 19.8761 38.1715 19.9541 38.3436C20.0484 38.5526 20.1423 38.7987 20.5182 38.7987C20.6683 38.7987 20.8562 38.7609 20.9692 38.8745C21.0823 38.9881 21.1197 39.2722 20.9318 39.3977L18.0715 41.2469M58.6913 17.2173C58.6913 17.7798 58.1348 17.6836 57.9848 17.4199C57.8125 17.1203 57.6385 16.8218 57.4627 16.5243C57.1682 16.0908 56.446 16.1705 56.446 16.1705C56.446 16.1705 55.2815 16.3126 55.1986 16.3284C55.0485 16.3565 54.7743 16.5597 54.7743 16.9748V19.4277C54.7743 19.7669 54.819 20.128 55.2299 20.128C55.7551 20.128 55.6244 20.1103 56.111 20.0348C56.5976 19.9594 56.5712 18.8841 57.1411 18.8617C57.5356 18.8459 57.5417 19.2498 57.5417 19.4288V21.9364C57.5417 22.0873 57.5356 22.5193 57.1411 22.5039C56.5712 22.4812 56.6026 21.2765 56.111 21.2765C55.6993 21.2765 55.6806 21.2904 55.2299 21.3281C54.8197 21.3624 54.775 21.586 54.775 21.9256V25.3326C54.775 25.4177 54.8064 25.8339 55.257 25.8851C55.519 25.9151 57.2026 25.795 57.5112 25.4485C57.8209 25.1023 58.4771 23.6582 58.5317 23.5488C58.6184 23.3775 58.7906 23.1773 59.0828 23.2462C59.3715 23.3147 59.3841 23.6089 59.3467 23.8349C59.3093 24.0613 58.9231 26.143 58.9231 26.143C58.7994 26.5919 58.773 26.7017 58.4793 26.734C56.9807 26.8988 51.2151 27.5244 48.5939 28.316C48.5939 28.316 47.9481 28.4076 47.3638 28.2687C46.844 28.1454 46.3887 27.5799 46.3887 27.5799C46.3887 27.5799 44.688 24.8378 44.2992 24.2053C43.813 23.4133 43.9119 23.2 44.0612 23.0868C44.4 22.8308 45.8991 22.7411 45.9128 19.9721C45.9189 18.7062 45.2506 17.975 44.4424 18.0443C43.6549 18.1117 43.6385 19.0523 43.6385 19.0523L43.6572 27.7108C43.6572 27.7108 43.7087 28.1528 43.9318 28.2394C44.1556 28.3268 44.6479 28.4415 44.7357 28.6552C44.9416 29.1576 44.4462 29.307 44.4462 29.307L39.9876 30.5922C39.3452 30.7743 39.1527 29.9689 39.6118 29.692C40.1339 29.3763 40.0862 28.3996 40.0862 28.3996C40.0862 28.3996 40.1144 20.515 40.1041 19.9301C40.098 19.5936 39.8184 19.2198 39.629 19.1628C39.2383 19.045 39.071 18.9356 39.0481 18.7073C39.0106 18.3466 39.2658 18.1672 39.5656 18.1106C39.7573 18.0744 45.4973 16.6317 45.4973 16.6317C45.4973 16.6317 48.7647 15.9418 49.3651 18.7416C49.9154 21.315 47.6449 22.3272 47.4203 22.4781C47.1957 22.629 46.9555 22.5694 47.4046 23.2481C48.1066 24.31 49.7111 26.821 49.7111 26.821C49.7111 26.821 50.0376 27.2734 50.4967 27.1413C51.2739 26.9169 51.1731 26.113 51.1731 26.113L51.1723 17.5338C51.1819 17.3182 51.0658 16.8277 50.8225 16.6779C50.5987 16.5409 50.3206 16.5005 50.305 16.1786C50.284 15.7489 50.5414 15.6661 50.8779 15.6284C51.1047 15.603 57.2243 14.9928 57.7854 14.9173C58.3464 14.8422 58.6142 15.1256 58.6157 15.5891L58.6913 17.2173ZM60.0132 26.3906C60.2901 26.4549 60.8202 26.4587 61.047 26.5026C61.7765 26.6443 62.21 26.9323 63.6518 27.0486C68.0455 27.4039 69.48 22.4927 67.198 20.4564C65.6657 19.0889 64.2365 18.8894 63.2198 18.2091C61.7937 17.2543 62.6068 14.2747 65.4862 15.8602C65.6569 15.9545 66.1702 16.7988 66.5445 17.289C66.9188 17.7791 67.3404 17.5831 67.2659 17.0553C67.1907 16.5274 66.8764 15.0836 66.8764 15.0836C66.8764 15.0836 66.7943 14.5766 66.5502 14.6505C66.3375 14.7148 65.6878 14.7879 65.2387 14.6747C64.7903 14.5619 64.7387 14.4437 63.6804 14.3298C59.598 13.8886 58.4408 19.3888 61.7612 21.2692C62.3513 21.6034 63.1003 21.9672 63.8523 22.1913C65.9059 22.8027 65.65 24.8209 64.6998 25.5104C63.1774 26.6162 61.6077 25.5817 61.3041 25.0635C60.958 24.4709 60.9283 23.8287 60.6938 23.5176C60.379 23.0999 60.0067 23.446 59.988 23.5973C59.9417 23.9731 59.703 25.5586 59.703 25.5586C59.703 25.5586 59.5663 26.2862 60.0132 26.3906ZM23.6797 32.5842L20.7324 34.1805L22.2112 28.3337C22.2112 28.3337 23.7 32.5873 23.6797 32.5842ZM32.0172 31.3676L32.0168 22.5081C32.0168 22.0558 32.3418 21.0821 33.5785 21.5907C36.4407 22.768 36.0251 30.514 33.6709 31.815C32.4644 32.4818 32.0172 31.8196 32.0172 31.3676Z" stroke="white" stroke-width="0.55903" stroke-miterlimit="2.613" stroke-linecap="round" stroke-linejoin="round"/>
<mask id="path-16-inside-1_2496_172957" fill="white">
<path fill-rule="evenodd" clip-rule="evenodd" d="M8.31562 45.166V31.1408C8.31562 31.1408 8.30034 31.028 8.35305 30.762C8.39086 30.5726 8.56005 30.4778 8.56005 30.4778L12.2082 28.1085C12.2082 28.1085 12.8785 27.685 13.0729 28.2228C13.362 29.0206 12.2006 28.8596 12.2006 30.3885C12.2006 30.3885 12.2525 34.8562 12.2193 34.8562C13.0393 35.3351 13.6381 34.947 14.2672 34.3306C15.8793 32.7486 16.4277 25.8027 11.4612 25.5747C7.71561 25.403 6.68021 30.0759 6.82992 31.2548C6.90631 31.8569 6.49154 32.1265 6.49154 32.1265C6.49154 32.1265 4.27025 33.6838 3.85854 33.9845C3.4472 34.2867 2.9633 34.2251 2.92511 33.9356C2.29417 29.1757 9.55115 20.3586 16.5079 25.6548C20.5403 28.7249 19.0424 35.0005 16.7883 36.3627C15.1307 37.3637 13.954 37.4223 12.2017 36.5995C12.2105 36.5829 12.2017 42.1271 12.2017 42.1941C12.2017 42.2603 12.2139 42.9056 13.1653 42.9294C13.4292 42.9356 13.7848 42.8875 13.9685 43.2551C14.2149 43.7476 13.4499 44.2184 13.4499 44.2184C13.4499 44.2184 8.5547 47.9014 8.39773 48.0173C8.1491 48.2017 7.80002 48.2691 7.60333 48.0708C7.34782 47.8129 7.38334 47.3805 7.80918 46.7202C8.21288 46.0931 8.05285 46.2644 8.16552 45.9999C8.27819 45.7346 8.316 45.2037 8.316 45.2037L8.31562 45.166ZM60.0132 26.3894C60.2901 26.4537 60.8202 26.4576 61.047 26.5015C61.7765 26.6432 62.21 26.9311 63.6518 27.0474C68.0455 27.4028 69.48 22.4916 67.198 20.4553C65.6657 19.0877 64.2365 18.8883 63.2198 18.208C61.7937 17.2532 62.6068 14.2736 65.4862 15.859C65.6569 15.9534 66.1702 16.7977 66.5445 17.2878C66.9188 17.7779 67.3404 17.582 67.2659 17.0541C67.1907 16.5263 66.8764 15.0825 66.8764 15.0825C66.8764 15.0825 66.7943 14.5754 66.5502 14.6493C66.3375 14.7136 65.6878 14.7868 65.2387 14.6736C64.7903 14.5608 64.7387 14.4426 63.6804 14.3286C59.598 13.8874 58.4408 19.3876 61.7612 21.268C62.3513 21.6022 63.1003 21.9661 63.8523 22.1901C65.9059 22.8015 65.65 24.8197 64.6998 25.5093C63.1774 26.615 61.6077 25.5805 61.3041 25.0623C60.958 24.4698 60.9283 23.8276 60.6937 23.5165C60.379 23.0988 60.0067 23.4449 59.988 23.5962C59.9417 23.972 59.703 25.5574 59.703 25.5574C59.703 25.5574 59.5663 26.2851 60.0132 26.3894ZM23.6797 32.5831L20.7324 34.1793L22.2112 28.3326C22.2112 28.333 23.7004 32.5862 23.6797 32.5831ZM32.6966 20.3074C27.8095 22.2991 27.5785 22.3395 27.4459 22.393C27.2592 22.4685 27.035 22.5998 27.1568 23.0002C27.2725 23.3814 28.5443 22.7222 28.5443 24.3439C28.5443 24.9095 28.5172 32.5261 28.5497 33.8089C28.5684 34.5435 28.0868 34.4866 27.9375 34.0715C27.5143 32.8984 24.6159 24.4678 24.6159 24.4678C24.4543 24.0016 24.0556 24.027 23.9246 24.0836C23.7936 24.1402 20.8325 25.5089 20.7183 25.5617C20.3723 25.7218 20.2817 26.2862 20.7744 26.4145C20.8608 26.4368 20.9822 26.4684 21.0846 26.5638C21.2125 26.6832 21.2419 26.8665 21.0735 27.5733C20.9593 28.0542 18.1945 39.5136 18.1945 39.5136C18.1116 39.7639 17.9803 39.9722 17.8099 40.2001C17.5021 40.6121 17.2779 40.922 17.4719 41.1476C17.6785 41.3875 18.0708 41.2462 18.0708 41.2462L20.931 39.397C21.1189 39.2715 21.0815 38.9873 20.9685 38.8737C20.8554 38.7602 20.6675 38.7979 20.5174 38.7979C20.1416 38.7979 20.0476 38.5519 19.9533 38.3428C19.8754 38.1707 19.8788 37.8315 19.8788 37.8315L20.3493 35.6516L23.9872 33.6122L24.701 35.4433C24.7488 35.5946 24.6365 36.087 24.4298 36.2953C24.2885 36.4382 24.0246 36.7088 24.1656 37.0923C24.3535 37.6036 24.9053 37.2313 25.3312 36.9864C28.3996 35.2239 32.1539 33.7042 35.6058 32.2693C38.3492 31.1293 39.5121 27.7208 39.0213 24.7836C38.4992 21.6561 35.5852 19.1301 32.6966 20.3074ZM32.0172 31.3664L32.0168 22.507C32.0168 22.0546 32.3418 21.0809 33.5785 21.5895C36.4407 22.7669 36.0251 30.5129 33.6709 31.8138C32.4644 32.4807 32.0172 31.8184 32.0172 31.3664ZM58.6913 16.5617C58.6913 17.1242 58.1348 17.0279 57.9848 16.7638C57.8354 16.4997 57.4627 15.8687 57.4627 15.8687C57.1682 15.4348 56.446 15.5148 56.446 15.5148C56.446 15.5148 55.2815 15.6569 55.1986 15.6727C55.0485 15.7008 54.7743 15.9045 54.7743 16.3191V18.772C54.7743 19.1112 54.819 19.4723 55.2299 19.4723C55.7551 19.4723 55.6244 19.4546 56.111 19.3792C56.5972 19.3037 56.5712 18.2284 57.1411 18.2057C57.5356 18.1899 57.5417 18.5938 57.5417 18.7732V21.2804C57.5417 21.4313 57.5356 21.8633 57.1411 21.8479C56.5712 21.8248 56.6026 20.6201 56.111 20.6201C55.6993 20.6201 55.6806 20.6339 55.2299 20.6717C54.8197 20.7059 54.775 20.9296 54.775 21.2692V24.6765C54.775 24.7612 54.8064 25.1774 55.257 25.229C55.519 25.2587 57.2026 25.1389 57.5112 24.7924C57.8209 24.4459 58.4771 23.0021 58.5317 22.8928C58.6184 22.7214 58.7906 22.5212 59.0828 22.5902C59.3715 22.6587 59.3841 22.9528 59.3467 23.1788C59.3093 23.4052 58.9231 25.487 58.9231 25.487C58.7994 25.9359 58.773 26.0456 58.4793 26.078C56.9807 26.2427 51.2151 26.868 48.5939 27.66C48.5939 27.66 47.9481 27.7516 47.3638 27.6126C46.844 27.4898 46.3887 26.9238 46.3887 26.9238C46.3887 26.9238 44.688 24.1818 44.2992 23.5492C43.813 22.7573 43.9119 22.5436 44.0612 22.4308C44.4 22.1747 45.8991 22.085 45.9128 19.316C45.9189 18.0501 45.2506 17.319 44.4424 17.3883C43.6549 17.4557 43.6385 18.3962 43.6385 18.3962L43.6572 27.0547C43.6572 27.0547 43.7087 27.4967 43.9318 27.5837C44.1556 27.6707 44.6479 27.7855 44.7357 27.9992C44.9416 28.5016 44.4462 28.651 44.4462 28.651L39.9876 29.9361C39.3452 30.1182 39.1527 29.3128 39.6118 29.036C40.1339 28.7203 40.0862 27.7443 40.0862 27.7443C40.0862 27.7443 40.1144 19.8593 40.1041 19.2741C40.098 18.9376 39.8184 18.5637 39.629 18.5067C39.2383 18.3893 39.071 18.28 39.0481 18.0517C39.0107 17.6909 39.2658 17.5115 39.5656 17.4553C39.7573 17.4187 45.4973 15.9765 45.4973 15.9765C45.4973 15.9765 48.7647 15.2865 49.3651 18.0863C49.9154 20.6597 47.6449 21.6719 47.4203 21.8228C47.1957 21.9738 46.9555 21.9137 47.4046 22.5929C48.1066 23.6547 49.7111 26.1657 49.7111 26.1657C49.7111 26.1657 50.0376 26.6185 50.4967 26.4861C51.2739 26.2616 51.1731 25.4577 51.1731 25.4577L51.1723 16.8785C51.1819 16.6629 51.0658 16.1724 50.8225 16.0227C50.5987 15.8852 50.3206 15.8452 50.305 15.5233C50.284 15.0936 50.5414 15.0109 50.8779 14.9731C51.1047 14.9477 57.2243 14.3375 57.7854 14.262C58.3464 14.1869 58.6142 14.4699 58.6157 14.9339L58.6913 16.5617Z"/>
</mask>
<path fill-rule="evenodd" clip-rule="evenodd" d="M8.31562 45.166V31.1408C8.31562 31.1408 8.30034 31.028 8.35305 30.762C8.39086 30.5726 8.56005 30.4778 8.56005 30.4778L12.2082 28.1085C12.2082 28.1085 12.8785 27.685 13.0729 28.2228C13.362 29.0206 12.2006 28.8596 12.2006 30.3885C12.2006 30.3885 12.2525 34.8562 12.2193 34.8562C13.0393 35.3351 13.6381 34.947 14.2672 34.3306C15.8793 32.7486 16.4277 25.8027 11.4612 25.5747C7.71561 25.403 6.68021 30.0759 6.82992 31.2548C6.90631 31.8569 6.49154 32.1265 6.49154 32.1265C6.49154 32.1265 4.27025 33.6838 3.85854 33.9845C3.4472 34.2867 2.9633 34.2251 2.92511 33.9356C2.29417 29.1757 9.55115 20.3586 16.5079 25.6548C20.5403 28.7249 19.0424 35.0005 16.7883 36.3627C15.1307 37.3637 13.954 37.4223 12.2017 36.5995C12.2105 36.5829 12.2017 42.1271 12.2017 42.1941C12.2017 42.2603 12.2139 42.9056 13.1653 42.9294C13.4292 42.9356 13.7848 42.8875 13.9685 43.2551C14.2149 43.7476 13.4499 44.2184 13.4499 44.2184C13.4499 44.2184 8.5547 47.9014 8.39773 48.0173C8.1491 48.2017 7.80002 48.2691 7.60333 48.0708C7.34782 47.8129 7.38334 47.3805 7.80918 46.7202C8.21288 46.0931 8.05285 46.2644 8.16552 45.9999C8.27819 45.7346 8.316 45.2037 8.316 45.2037L8.31562 45.166ZM60.0132 26.3894C60.2901 26.4537 60.8202 26.4576 61.047 26.5015C61.7765 26.6432 62.21 26.9311 63.6518 27.0474C68.0455 27.4028 69.48 22.4916 67.198 20.4553C65.6657 19.0877 64.2365 18.8883 63.2198 18.208C61.7937 17.2532 62.6068 14.2736 65.4862 15.859C65.6569 15.9534 66.1702 16.7977 66.5445 17.2878C66.9188 17.7779 67.3404 17.582 67.2659 17.0541C67.1907 16.5263 66.8764 15.0825 66.8764 15.0825C66.8764 15.0825 66.7943 14.5754 66.5502 14.6493C66.3375 14.7136 65.6878 14.7868 65.2387 14.6736C64.7903 14.5608 64.7387 14.4426 63.6804 14.3286C59.598 13.8874 58.4408 19.3876 61.7612 21.268C62.3513 21.6022 63.1003 21.9661 63.8523 22.1901C65.9059 22.8015 65.65 24.8197 64.6998 25.5093C63.1774 26.615 61.6077 25.5805 61.3041 25.0623C60.958 24.4698 60.9283 23.8276 60.6937 23.5165C60.379 23.0988 60.0067 23.4449 59.988 23.5962C59.9417 23.972 59.703 25.5574 59.703 25.5574C59.703 25.5574 59.5663 26.2851 60.0132 26.3894ZM23.6797 32.5831L20.7324 34.1793L22.2112 28.3326C22.2112 28.333 23.7004 32.5862 23.6797 32.5831ZM32.6966 20.3074C27.8095 22.2991 27.5785 22.3395 27.4459 22.393C27.2592 22.4685 27.035 22.5998 27.1568 23.0002C27.2725 23.3814 28.5443 22.7222 28.5443 24.3439C28.5443 24.9095 28.5172 32.5261 28.5497 33.8089C28.5684 34.5435 28.0868 34.4866 27.9375 34.0715C27.5143 32.8984 24.6159 24.4678 24.6159 24.4678C24.4543 24.0016 24.0556 24.027 23.9246 24.0836C23.7936 24.1402 20.8325 25.5089 20.7183 25.5617C20.3723 25.7218 20.2817 26.2862 20.7744 26.4145C20.8608 26.4368 20.9822 26.4684 21.0846 26.5638C21.2125 26.6832 21.2419 26.8665 21.0735 27.5733C20.9593 28.0542 18.1945 39.5136 18.1945 39.5136C18.1116 39.7639 17.9803 39.9722 17.8099 40.2001C17.5021 40.6121 17.2779 40.922 17.4719 41.1476C17.6785 41.3875 18.0708 41.2462 18.0708 41.2462L20.931 39.397C21.1189 39.2715 21.0815 38.9873 20.9685 38.8737C20.8554 38.7602 20.6675 38.7979 20.5174 38.7979C20.1416 38.7979 20.0476 38.5519 19.9533 38.3428C19.8754 38.1707 19.8788 37.8315 19.8788 37.8315L20.3493 35.6516L23.9872 33.6122L24.701 35.4433C24.7488 35.5946 24.6365 36.087 24.4298 36.2953C24.2885 36.4382 24.0246 36.7088 24.1656 37.0923C24.3535 37.6036 24.9053 37.2313 25.3312 36.9864C28.3996 35.2239 32.1539 33.7042 35.6058 32.2693C38.3492 31.1293 39.5121 27.7208 39.0213 24.7836C38.4992 21.6561 35.5852 19.1301 32.6966 20.3074ZM32.0172 31.3664L32.0168 22.507C32.0168 22.0546 32.3418 21.0809 33.5785 21.5895C36.4407 22.7669 36.0251 30.5129 33.6709 31.8138C32.4644 32.4807 32.0172 31.8184 32.0172 31.3664ZM58.6913 16.5617C58.6913 17.1242 58.1348 17.0279 57.9848 16.7638C57.8354 16.4997 57.4627 15.8687 57.4627 15.8687C57.1682 15.4348 56.446 15.5148 56.446 15.5148C56.446 15.5148 55.2815 15.6569 55.1986 15.6727C55.0485 15.7008 54.7743 15.9045 54.7743 16.3191V18.772C54.7743 19.1112 54.819 19.4723 55.2299 19.4723C55.7551 19.4723 55.6244 19.4546 56.111 19.3792C56.5972 19.3037 56.5712 18.2284 57.1411 18.2057C57.5356 18.1899 57.5417 18.5938 57.5417 18.7732V21.2804C57.5417 21.4313 57.5356 21.8633 57.1411 21.8479C56.5712 21.8248 56.6026 20.6201 56.111 20.6201C55.6993 20.6201 55.6806 20.6339 55.2299 20.6717C54.8197 20.7059 54.775 20.9296 54.775 21.2692V24.6765C54.775 24.7612 54.8064 25.1774 55.257 25.229C55.519 25.2587 57.2026 25.1389 57.5112 24.7924C57.8209 24.4459 58.4771 23.0021 58.5317 22.8928C58.6184 22.7214 58.7906 22.5212 59.0828 22.5902C59.3715 22.6587 59.3841 22.9528 59.3467 23.1788C59.3093 23.4052 58.9231 25.487 58.9231 25.487C58.7994 25.9359 58.773 26.0456 58.4793 26.078C56.9807 26.2427 51.2151 26.868 48.5939 27.66C48.5939 27.66 47.9481 27.7516 47.3638 27.6126C46.844 27.4898 46.3887 26.9238 46.3887 26.9238C46.3887 26.9238 44.688 24.1818 44.2992 23.5492C43.813 22.7573 43.9119 22.5436 44.0612 22.4308C44.4 22.1747 45.8991 22.085 45.9128 19.316C45.9189 18.0501 45.2506 17.319 44.4424 17.3883C43.6549 17.4557 43.6385 18.3962 43.6385 18.3962L43.6572 27.0547C43.6572 27.0547 43.7087 27.4967 43.9318 27.5837C44.1556 27.6707 44.6479 27.7855 44.7357 27.9992C44.9416 28.5016 44.4462 28.651 44.4462 28.651L39.9876 29.9361C39.3452 30.1182 39.1527 29.3128 39.6118 29.036C40.1339 28.7203 40.0862 27.7443 40.0862 27.7443C40.0862 27.7443 40.1144 19.8593 40.1041 19.2741C40.098 18.9376 39.8184 18.5637 39.629 18.5067C39.2383 18.3893 39.071 18.28 39.0481 18.0517C39.0107 17.6909 39.2658 17.5115 39.5656 17.4553C39.7573 17.4187 45.4973 15.9765 45.4973 15.9765C45.4973 15.9765 48.7647 15.2865 49.3651 18.0863C49.9154 20.6597 47.6449 21.6719 47.4203 21.8228C47.1957 21.9738 46.9555 21.9137 47.4046 22.5929C48.1066 23.6547 49.7111 26.1657 49.7111 26.1657C49.7111 26.1657 50.0376 26.6185 50.4967 26.4861C51.2739 26.2616 51.1731 25.4577 51.1731 25.4577L51.1723 16.8785C51.1819 16.6629 51.0658 16.1724 50.8225 16.0227C50.5987 15.8852 50.3206 15.8452 50.305 15.5233C50.284 15.0936 50.5414 15.0109 50.8779 14.9731C51.1047 14.9477 57.2243 14.3375 57.7854 14.262C58.3464 14.1869 58.6142 14.4699 58.6157 14.9339L58.6913 16.5617Z" fill="#A0A0B9" stroke="white" stroke-width="0.408647" mask="url(#path-16-inside-1_2496_172957)"/>
</svg>
