<svg width="171" height="22" viewBox="0 0 171 22" fill="none" xmlns="http://www.w3.org/2000/svg">
<path id="Vector" d="M83.9522 8.84414H73.2762V0.662037H70.0462V21.4398H73.2762V11.5941H83.9522V21.4398H87.1482V0.662037H83.9522M52.4512 0.594136C51.2782 0.560185 48.8982 0.560185 46.7902 0.560185V21.4228H50.0542V13.5123C50.8702 13.5123 52.5532 13.4444 53.9132 13.4105C55.8172 13.3765 60.7812 12.4259 60.7472 6.70525C60.7982 0.254629 53.6412 0.594136 52.4512 0.594136ZM52.2812 10.7454H50.1222V3.22531H51.9582C52.8082 3.22531 57.8232 2.85185 57.9762 6.7392C58.1802 10.5586 54.2192 10.7454 52.2812 10.7454ZM22.3272 0.560185L22.3612 21.4228H35.4682V18.7068H25.6252V11.6281H32.5952C32.5952 11.0339 32.5612 10.1682 32.5952 9.03086H25.6252V3.34414H35.4682C35.4342 1.69753 35.4682 0.560185 35.4682 0.560185H22.3272ZM3.27022 5.65278C3.27022 2.24074 7.79222 2.10494 10.4612 4.29475C11.3792 1.66358 11.4472 1.47685 11.4472 1.47685C3.66122 -2.25772 0.108219 2.6821 0.108219 5.83951C0.108219 13.3935 10.8352 11.7809 9.28822 17.0941C8.74422 19.0293 5.29322 20.1327 1.31522 17.7222C1.02622 18.537 0.550219 19.5216 0.0742188 20.5062C5.32722 23.2562 12.1442 21.9321 12.3652 16.2623C12.6712 9.13272 3.27022 9.64197 3.27022 5.65278ZM141.038 6.41667C140.562 0.220679 134.544 0.695988 133.218 0.628086C132.113 0.594136 129.767 0.560185 127.744 0.560185V21.3889H131.008V12.6296C132.113 12.6296 132.47 12.6296 134.136 12.5617L140.086 21.3889H144.047L137.468 12.0185C139.236 11.3735 141.293 9.86265 141.038 6.41667ZM133.031 10.1852C132.3 10.1852 131.739 10.1852 131.008 10.1512V3.10648H132.725C133.541 3.10648 137.825 2.85185 138.199 6.26389C138.658 10.304 133.915 10.1852 133.031 10.1852ZM162.577 0.594136H158.803L151.969 21.4568H155.199C156.219 17.6883 156.559 16.6188 156.559 16.6188L165.008 16.5849C165.994 19.3688 166.725 21.4907 166.725 21.4907H170.074L162.577 0.594136ZM157.307 14.2253L160.605 3.9213H160.639L164.09 14.1914L157.307 14.2253ZM107.412 0C100.765 0 96.4302 4.90586 96.4302 11C96.4302 17.0941 100.765 22 107.412 22C114.059 22 118.394 17.0941 118.394 11C118.394 4.90586 114.059 0 107.412 0ZM107.412 18.9954C102.533 18.9954 99.7792 15.4475 99.7792 11C99.7792 6.60339 102.533 3.00463 107.412 3.00463C112.257 3.00463 115.045 6.55247 115.045 11C115.045 15.3966 112.291 18.9954 107.412 18.9954Z" fill="#A0A0B9"/>
</svg>
