<svg width="133" height="34" viewBox="0 0 133 34" fill="none" xmlns="http://www.w3.org/2000/svg">
<g id="Page-1">
<g id="g25">
<g id="Framework-_x26_-Grid">
<g id="NAV_x2C_-Utility---Desktop">
<g id="utility-nav">
<g id="logitechg">
<g id="Layer_1_1_">
<g id="Group">
<g id="Logo_1_">
<path id="Shape-5" d="M28.4862 20.502C26.2909 20.502 24.5914 18.8024 24.5914 16.5363C24.5914 14.3411 26.2909 12.6415 28.4862 12.6415C30.6815 12.6415 32.3811 14.3411 32.3811 16.5363C32.3811 18.7316 30.6107 20.502 28.4862 20.502ZM35.5678 12.4999V9.80888H30.8231C30.0442 9.4548 29.2652 9.38398 28.4862 9.38398C24.3789 9.38398 21.1922 12.4999 21.1922 16.6072C21.1922 20.7145 24.3789 23.7595 28.4154 23.7595C32.4519 23.7595 35.6386 20.6436 35.6386 16.6072C35.6386 15.1909 35.2137 13.9162 34.5055 12.9248L35.5678 12.4999ZM12.6944 20.502C10.4991 20.502 8.79952 18.8024 8.79952 16.5363C8.79952 14.3411 10.4991 12.6415 12.6944 12.6415C14.8897 12.6415 16.5892 14.3411 16.5892 16.5363C16.5892 18.7316 14.9605 20.502 12.6944 20.502ZM12.6944 9.38398C8.58708 9.38398 5.4712 12.4999 5.4712 16.5363C5.4712 20.5728 8.65789 23.7595 12.6944 23.7595C16.7308 23.7595 19.9175 20.6436 19.9175 16.6072C19.9175 12.5707 16.8017 9.38398 12.6944 9.38398ZM0.726562 23.4054H4.05489V4.14364H0.726562V23.4054ZM37.0549 23.4054H40.3832V9.80888H37.0549V23.4054ZM28.4862 28.1501C26.2909 28.1501 24.5914 26.4505 24.5914 24.2552H21.1922C21.1922 28.3625 24.3789 31.4076 28.4154 31.4076C32.4519 31.4076 35.7094 28.2917 35.7094 24.2552H32.3811C32.3102 26.5213 30.6107 28.1501 28.4862 28.1501ZM52.9175 15.1909C53.4132 13.4205 54.6879 12.4291 56.4583 12.4291C58.2287 12.4291 59.5742 13.4205 59.9283 15.1909H52.9175ZM56.5999 9.38398C52.4926 9.38398 49.4476 12.4999 49.4476 16.6072C49.4476 20.7145 52.2094 23.6179 56.5999 23.6179C58.9369 23.6179 61.1321 22.6973 62.7609 21.0685L60.424 18.7316C59.2909 19.8647 58.0871 20.502 56.6708 20.502C54.7587 20.502 53.4132 19.369 52.9884 17.7402H63.5399V16.9612C63.5399 12.4999 60.6364 9.38398 56.5999 9.38398ZM86.4841 9.38398C84.7845 9.38398 83.3682 9.95051 82.3768 11.0836V4.07283H79.0484V23.3346H82.3768V15.9698C82.3768 13.987 83.5806 12.7123 85.6343 12.7123C87.5463 12.7123 88.6085 13.9162 88.6085 15.9698V23.3346H91.9369V15.4033C92.0785 11.6501 89.6708 9.38398 86.4841 9.38398ZM71.8253 12.7123C73.2416 12.7123 74.3746 13.4205 75.2952 14.4827L77.6321 12.1458C76.2866 10.4462 74.3038 9.4548 71.8253 9.4548C67.718 9.4548 64.6021 12.5707 64.6021 16.6072C64.6021 20.6436 67.7888 23.7595 71.8253 23.7595C74.1622 23.7595 76.2866 22.6265 77.6321 21.0685L75.2952 18.7316C74.3746 19.723 73.1708 20.502 71.8253 20.502C69.63 20.502 68.072 18.8024 68.072 16.6072C67.9304 14.4119 69.7008 12.7123 71.8253 12.7123ZM47.1815 5.63077H43.8532V9.80888H42.0828V12.7831H43.8532V23.3346H47.1815V12.7831H49.0935V9.80888H47.1815V5.63077ZM38.8253 3.71875C37.6214 3.71875 36.63 4.71017 36.63 6.05566C36.63 7.25952 37.6214 8.25094 38.8253 8.25094C40.1708 8.25094 41.1622 7.25952 41.1622 6.05566C41.0205 4.71017 40.0291 3.71875 38.8253 3.71875Z" fill="#A0A0B9"/>
<path id="Shape-path-7" fill-rule="evenodd" clip-rule="evenodd" d="M114.376 0.980469V7.84957C108.994 7.84957 104.745 12.0985 104.745 17.4805C104.745 22.7208 108.994 27.1114 114.376 27.1114V33.9805C105.24 33.9805 97.8047 26.6157 97.8047 17.4805C97.8047 8.34528 105.24 0.980469 114.376 0.980469Z" fill="#A0A0B9"/>
<path id="polygon10-45" fill-rule="evenodd" clip-rule="evenodd" d="M132.656 11.1523H117.855V17.8798H125.858V25.882H132.656V11.1523Z" fill="#A0A0B9"/>
</g>
</g>
</g>
</g>
</g>
</g>
</g>
</g>
</g>
</svg>
