<svg width="45" height="20" viewBox="0 0 56 34" fill="none" xmlns="http://www.w3.org/2000/svg">
<path d="M27.6367 0.980469H55.2732V28.5414H27.6367V0.980469Z" fill="white"/>
<path d="M0 0.980469H27.6364V28.5414H0V0.980469Z" fill="#A0A0B9"/>
<path d="M25.3526 8.66158L18.4886 12.5786C17.4829 10.9682 16.051 10.352 14.7168 10.3408C12.2872 10.3205 10.1918 12.2662 10.1931 14.7482C10.1919 17.3014 12.2939 19.1534 14.5932 19.1923C15.9677 19.2154 17.64 18.4518 18.4897 16.9376L25.3533 20.8647C22.8582 25.1549 18.5808 27.0919 14.5841 27.085C8.24641 27.0746 2.28446 22.0202 2.28516 14.7587C2.28494 7.53527 8.2712 2.39319 14.6082 2.43383C18.7179 2.46052 22.9075 4.38915 25.3533 8.66107L25.3526 8.66158Z" fill="white"/>
<path d="M29.6149 2.94922H37.5072L45.4078 12.8013V2.94922H53.2938L53.2943 26.57H45.4082L37.5076 16.7345V26.57H29.6133L29.6149 2.94922Z" fill="#A0A0B9"/>
<path d="M3.06674 30.5418C3.50086 30.6635 3.86585 30.9666 4.1018 31.3461L3.19304 31.8646C3.03462 31.6444 2.77374 31.4864 2.4937 31.5283C2.21712 31.5551 1.97474 31.765 1.90203 32.0318C1.78992 32.5054 2.1297 32.8987 2.5452 32.9191C2.77763 32.926 3.02554 32.8237 3.19302 32.5767L4.10177 33.1C3.80182 33.5948 3.27068 33.9303 2.69149 33.9791C1.61761 34.012 0.691786 33.1917 0.839847 31.9425C1.03935 30.8594 2.04956 30.2604 3.06672 30.5418L3.06674 30.5418Z" fill="#A0A0B9"/>
<path d="M17.2505 30.477C16.9117 30.4532 16.5631 30.526 16.2499 30.7072C15.4146 31.1904 15.1257 32.274 15.61 33.1072C16.0944 33.9405 17.1808 34.2287 18.0161 33.7456C18.8153 33.2835 19.1063 32.2739 18.7067 31.4575C18.694 31.4187 18.6772 31.3814 18.6564 31.3463C18.6563 31.3461 18.6562 31.3458 18.6561 31.3456C18.656 31.3455 18.6559 31.3454 18.6558 31.3453C18.6352 31.3089 18.6105 31.2749 18.5822 31.2439C18.2709 30.7883 17.7753 30.5139 17.2504 30.477L17.2505 30.477ZM17.1777 31.5906C17.3803 31.6036 17.5708 31.7152 17.683 31.9081L17.6831 31.9082L17.6832 31.9085C17.8624 32.2171 17.7613 32.596 17.4519 32.7749C17.1424 32.9539 16.7625 32.8531 16.5831 32.5444C16.4036 32.2357 16.5047 31.8568 16.8142 31.6779V31.6778C16.9302 31.6106 17.0561 31.5829 17.1777 31.5907L17.1777 31.5906Z" fill="#A0A0B9"/>
<path d="M45.481 30.477C45.1421 30.4532 44.7936 30.526 44.4803 30.7072C43.645 31.1904 43.3562 32.274 43.8405 33.1072C44.3249 33.9405 45.4112 34.2287 46.2465 33.7456C47.0458 33.2834 47.3369 32.2736 46.9371 31.4571C46.9245 31.4185 46.9077 31.3813 46.887 31.3463C46.887 31.3461 46.887 31.3458 46.8865 31.3456V31.3453C46.8658 31.3089 46.8411 31.2748 46.8128 31.2438C46.5015 30.7882 46.0058 30.5139 45.481 30.477L45.481 30.477ZM45.4082 31.5906C45.6108 31.6036 45.8013 31.7152 45.9134 31.9081V31.9082V31.9085C46.0927 32.2171 45.9917 32.596 45.6823 32.7749C45.3728 32.9539 44.993 32.8531 44.8136 32.5444C44.6341 32.2357 44.7351 31.8568 45.0446 31.6779V31.6778C45.1606 31.6106 45.2865 31.5829 45.4081 31.5907L45.4082 31.5906Z" fill="#A0A0B9"/>
<path d="M6.91265 30.543H5.22731L4.17188 33.9087H5.3581L5.53148 33.3442H6.61213L6.78226 33.9087H7.96814L6.91265 30.543ZM6.07022 31.4715L6.37162 32.5159H5.76812L6.07022 31.4715Z" fill="#A0A0B9"/>
<path d="M8.30859 30.543V33.9087H9.42614V32.9247H9.79033L10.2912 33.9087H11.5343L10.8829 32.8047C11.3845 32.4839 11.5563 32.0863 11.5374 31.6868C11.5378 31.0834 10.993 30.5599 10.3973 30.543H8.30859ZM10.1696 31.5246C10.3136 31.5265 10.4187 31.6662 10.425 31.7857C10.4287 31.9566 10.2982 32.0848 10.1685 32.0879L9.4261 32.089V31.5246L10.1696 31.5246Z" fill="#A0A0B9"/>
<path d="M11.8438 31.5256V30.543H15.2246V31.5256H14.1667V33.9087H12.9023V31.5256H11.8438Z" fill="#A0A0B9"/>
<path d="M23.043 30.543H24.1582L25.3006 31.9425V30.543H26.4166V33.9087H25.3006L24.1582 32.5061V33.9087H23.043V30.543Z" fill="#A0A0B9"/>
<path d="M28.7031 30.543H29.8183L30.9607 31.9425V30.543H32.0766V33.9087H30.9607L29.8183 32.5061V33.9087H28.7031V30.543Z" fill="#A0A0B9"/>
<path d="M32.5586 30.543H35.5051L35.5051 31.5249H33.6746V31.8695H35.2159V32.6557H33.6746V33.0099H35.5051L35.5051 33.9087H32.5586L32.5586 30.543Z" fill="#A0A0B9"/>
<path d="M35.8789 31.5256V30.543H39.2597V31.5256H38.2019V33.9087H36.9375V31.5256H35.8789Z" fill="#A0A0B9"/>
<path d="M39.543 30.543H40.6772C40.6772 30.543 40.9608 32.0127 40.962 32.0187L41.5209 30.6634L42.0901 32.0156L42.375 30.543H43.4987L42.8562 33.9087H41.921L41.5209 33.0001L41.1159 33.9087H40.1964C40.1964 33.9087 39.5552 30.6189 39.543 30.543H39.543Z" fill="#A0A0B9"/>
<path d="M47.4492 30.543V33.9087H48.5667L48.5689 32.9247H48.9309L49.4316 33.9087H50.6749L50.0235 32.8047C50.5251 32.4839 50.6971 32.0863 50.6781 31.6868C50.6786 31.0834 50.1336 30.5599 49.5378 30.543H47.4492ZM49.3103 31.5246C49.4542 31.5265 49.5592 31.6662 49.5655 31.7857C49.5692 31.9566 49.4389 32.0848 49.3092 32.0879L48.5667 32.089V31.5246L49.3103 31.5246Z" fill="#A0A0B9"/>
<path d="M51.0391 33.9087V30.543H52.1676V31.6333L53.0091 30.543H54.4481L53.1422 32.1476L54.4481 33.9087H53.0091L52.1676 32.6561V33.9087H51.0391Z" fill="#A0A0B9"/>
<path d="M21.063 30.477C20.7242 30.4532 20.3756 30.526 20.0624 30.7072C19.2271 31.1904 18.9382 32.274 19.4225 33.1072C19.9069 33.9405 20.9931 34.2287 21.8285 33.7456C22.6277 33.2835 22.9188 32.2739 22.5192 31.4575C22.5066 31.4187 22.4897 31.3814 22.4689 31.3463C22.4688 31.3461 22.4687 31.3458 22.4686 31.3456C22.4685 31.3455 22.4684 31.3454 22.4684 31.3453C22.4477 31.3089 22.4229 31.2748 22.3946 31.2438C22.0833 30.7882 21.5877 30.5139 21.0629 30.477L21.063 30.477ZM20.9902 31.5906C21.1928 31.6036 21.3832 31.7152 21.4954 31.9081L21.4955 31.9082L21.4956 31.9085C21.6749 32.2171 21.5738 32.596 21.2644 32.7749C20.9549 32.9539 20.575 32.8531 20.3956 32.5444C20.2161 32.2357 20.3171 31.8568 20.6266 31.6779V31.6778C20.7426 31.6106 20.8686 31.5829 20.9902 31.5907L20.9902 31.5906Z" fill="#A0A0B9"/>
</svg>
