<svg width="121" height="28" viewBox="0 0 121 28" fill="none" xmlns="http://www.w3.org/2000/svg">
<g id="Group">
<path id="Vector" d="M56.9784 16.5657C56.7797 16.5657 56.7797 16.2222 56.9784 16.1731L58.2207 16.075C58.9164 16.075 59.2642 15.7315 59.2642 14.9955L58.9661 1.94302H58.8667L53.202 16.1731C53.202 16.3203 53.0529 16.4185 52.9038 16.4185H52.5063C52.3572 16.4185 52.2081 16.3203 52.1584 16.1731L46.8415 2.43372C46.8415 2.23744 46.6428 1.99209 46.4937 1.84489L46.1459 14.7501C46.1459 15.7315 46.3943 15.9769 47.9844 16.1241L48.8292 16.2222C49.0279 16.2222 49.0279 16.6148 48.8292 16.6148H42.6178C42.4191 16.6148 42.4191 16.2713 42.6178 16.2222L43.6116 16.1241C44.7545 16.0259 45.152 15.7806 45.152 14.7501L45.4999 2.33558C45.5496 1.30512 45.2017 1.01071 44.1582 0.912569L43.065 0.81443C42.8663 0.81443 42.8663 0.421875 43.065 0.421875H47.8354C47.9844 0.421875 48.0838 0.520014 48.1335 0.667222L53.1026 13.5725L58.3201 0.667222C58.3201 0.520014 58.4692 0.421875 58.6182 0.421875H63.3389C63.5376 0.421875 63.5376 0.76536 63.3389 0.81443L61.7984 0.912569C61.1028 0.912569 60.904 1.20698 60.904 1.69768L61.2022 15.0445C61.2022 15.8297 61.4009 16.0259 62.3947 16.1241L63.4879 16.2222C63.6867 16.2222 63.6867 16.6148 63.4879 16.6148H56.9784V16.5657Z" fill="#A0A0B9"/>
<path id="Vector_2" d="M65.235 16.5657C65.0362 16.5657 65.0362 16.2222 65.235 16.1731L66.3282 16.075C67.3717 15.9769 67.5208 15.4862 67.5208 14.8973V2.09023C67.5208 1.45233 67.3717 0.961638 66.3282 0.912568L65.235 0.81443C65.0362 0.81443 65.0362 0.421875 65.235 0.421875H71.8439C72.0426 0.421875 72.0426 0.76536 71.8439 0.81443L70.7507 0.912568C69.7072 1.01071 69.5581 1.5014 69.5581 2.09023V14.8973C69.5581 15.5352 69.7072 16.0259 70.7507 16.075L71.8439 16.1731C72.0426 16.1731 72.0426 16.5657 71.8439 16.5657H65.235Z" fill="#A0A0B9"/>
<path id="Vector_3" d="M83.2257 16.5677C83.0269 16.5677 83.0269 16.1751 83.2257 16.1751L84.4182 16.077C85.3624 16.077 85.6108 15.7826 85.1636 14.6049L83.6729 10.2377H78.3063L77.3622 12.8875C76.4677 15.4882 76.4677 15.8317 78.4057 16.077L79.151 16.1751C79.3498 16.1751 79.3498 16.5677 79.151 16.5677H73.1881C72.9894 16.5677 72.9894 16.2242 73.1881 16.1751L73.8838 16.077C75.1261 15.8807 75.3745 15.6844 76.6665 12.1514L80.3436 1.99409L80.1945 1.40526C80.1448 1.25805 80.1945 1.11084 80.2939 1.01271L81.5859 0.129458C81.7846 -0.0177504 82.0828 -0.0668197 82.1325 0.129458L87.0518 14.1633C87.5984 15.7335 87.7972 15.9298 88.7413 16.0279L89.7351 16.1261C89.9339 16.1261 89.9339 16.5186 89.7351 16.5186H83.2257V16.5677ZM81.1387 2.68106H81.0393L78.6541 9.3545H83.4244L81.1387 2.68106Z" fill="#A0A0B9"/>
<path id="Vector_4" d="M105.435 16.5752C105.237 16.5752 105.237 16.2317 105.435 16.1827L106.678 16.0845C107.373 16.0845 107.721 15.741 107.721 15.005L107.423 1.95255H107.324L101.659 16.1827C101.609 16.3299 101.51 16.428 101.361 16.428H100.963C100.814 16.428 100.665 16.3299 100.615 16.1827L95.2489 2.44324C95.1992 2.24697 95.0501 2.00162 94.901 1.85441L94.6029 14.7597C94.6029 15.741 94.8513 15.9864 96.4414 16.1336L97.2862 16.2317C97.485 16.2317 97.485 16.6243 97.2862 16.6243H91.0749C90.8761 16.6243 90.8761 16.2808 91.0749 16.2317L92.0687 16.1336C93.2116 16.0355 93.5594 15.7901 93.6091 14.7597L93.9569 2.3451C94.0066 1.36372 93.6588 1.0693 92.6153 0.971162L91.5221 0.873024C91.3233 0.873024 91.3233 0.480469 91.5221 0.480469H96.2924C96.4415 0.480469 96.5408 0.578607 96.5905 0.725816L101.56 13.6311H101.659L106.777 0.725816C106.827 0.578607 106.926 0.480469 107.075 0.480469H111.796C111.995 0.480469 111.995 0.823954 111.796 0.873024L110.255 0.971162C109.56 0.971162 109.311 1.26558 109.311 1.75627L109.609 15.1031C109.659 15.8882 109.808 16.0845 110.802 16.1827L111.895 16.2808C112.094 16.2808 112.094 16.6734 111.895 16.6734L105.435 16.5752Z" fill="#A0A0B9"/>
<path id="Vector_5" d="M113.731 16.5657C113.532 16.5657 113.532 16.2222 113.731 16.1731L114.824 16.075C115.917 15.9769 116.017 15.4862 116.017 14.8973V2.09023C116.017 1.45233 115.868 0.961638 114.824 0.912568L113.731 0.81443C113.532 0.81443 113.532 0.421875 113.731 0.421875H120.34C120.539 0.421875 120.539 0.76536 120.34 0.81443L119.247 0.912568C118.154 1.01071 118.054 1.5014 118.054 2.09023V14.8973C118.054 15.5352 118.203 16.0259 119.247 16.075L120.34 16.1731C120.539 16.1731 120.539 16.5657 120.34 16.5657H113.731Z" fill="#A0A0B9"/>
<path id="Vector_6" d="M49.9288 20.8839C49.9288 20.0007 49.6803 19.8044 48.935 19.7063H48.5871C48.4877 19.7063 48.4877 19.4609 48.5871 19.4609H51.7673C51.8667 19.4609 51.8667 19.6572 51.7673 19.6572H51.3698C50.8232 19.8044 50.5251 19.9516 50.5251 20.8839V24.6132C50.5251 26.6741 49.4815 27.999 47.1958 27.999C44.91 27.999 43.7671 27.1158 43.7671 24.9076V20.3442C43.7671 19.9516 43.5684 19.7063 43.0714 19.6572H42.5745C42.4752 19.6572 42.4752 19.4609 42.5745 19.4609H46.351C46.4504 19.4609 46.4504 19.6572 46.351 19.6572H45.7547C45.4069 19.6572 45.1088 20.0007 45.1088 20.3442V24.3679C45.1088 26.2325 45.9038 27.1648 47.5436 27.1648C49.1834 27.1648 49.9785 26.0853 49.9288 24.3188V20.8839Z" fill="#A0A0B9"/>
<path id="Vector_7" d="M60.3135 27.9009C60.2141 27.9009 60.1147 27.9009 60.0153 27.7537L54.45 20.7367V26.4288C54.45 27.312 54.6984 27.4592 55.4438 27.5574H55.8413C55.9407 27.5574 55.9407 27.8027 55.8413 27.8027H52.6114C52.512 27.8027 52.512 27.6065 52.6114 27.6065H53.0089C53.6052 27.4592 53.8537 27.312 53.8537 26.3797V20.9821C53.9531 20.3442 53.4562 19.7554 52.8102 19.7063H52.512C52.4127 19.6081 52.4127 19.4609 52.512 19.4609H54.9469C55.0463 19.4609 55.1456 19.4609 55.245 19.6081L60.065 25.7418V20.8839C60.065 20.0007 59.8166 19.8535 59.0712 19.7554H58.6737C58.5743 19.7554 58.5743 19.51 58.6737 19.51H61.9036C62.003 19.51 62.003 19.7063 61.9036 19.7063H61.5061C60.9595 19.8535 60.6613 20.0007 60.6613 20.933V27.7537C60.6613 27.8518 60.5619 27.9499 60.4626 27.9499H60.3135V27.9009Z" fill="#A0A0B9"/>
<path id="Vector_8" d="M62.6995 27.8027C62.6002 27.8027 62.6002 27.6065 62.6995 27.6065H63.2461C63.743 27.5083 63.8921 27.312 63.8921 26.8213V20.4423C63.8921 19.9516 63.743 19.7554 63.2461 19.7063H62.6995C62.6002 19.7063 62.6002 19.4609 62.6995 19.4609H66.3766C66.476 19.4609 66.476 19.6572 66.3766 19.6572H65.8301C65.3331 19.7554 65.1841 19.9516 65.1841 20.4423V26.7723C65.1841 27.263 65.3331 27.4592 65.8301 27.5083H66.3766C66.476 27.5083 66.476 27.7537 66.3766 27.7537H62.6995V27.8027Z" fill="#A0A0B9"/>
<path id="Vector_9" d="M71.3508 27.9599C71.2514 27.9599 71.152 27.9599 71.1023 27.8127L68.5681 20.943C68.1706 19.9126 68.0215 19.7654 67.4252 19.6672H67.0277C66.9283 19.6672 66.9283 19.4219 67.0277 19.4219H70.7048C70.8042 19.4219 70.8042 19.6182 70.7048 19.6182H70.3073C69.6613 19.6182 69.5122 19.9616 69.8103 20.8449L71.7483 26.1934H71.8477L73.3881 21.8753C74.0341 20.0107 73.9844 19.7163 72.8415 19.6182H72.5433C72.444 19.6182 72.444 19.4219 72.5433 19.4219H75.9223C76.0217 19.4219 76.0217 19.5691 75.9223 19.6182H75.6739C75.0279 19.8144 74.8291 19.9126 74.0341 22.0225L71.8974 27.7637C71.8477 27.8618 71.7483 27.9109 71.6489 27.9109H71.3508V27.9599Z" fill="#A0A0B9"/>
<path id="Vector_10" d="M76.5706 27.8027C76.4713 27.8027 76.4216 27.6065 76.5706 27.6065H77.0676C77.5645 27.5083 77.6638 27.312 77.6638 26.8213V20.4423C77.6638 20.0007 77.6142 19.7554 77.0179 19.7063H76.6203C76.521 19.7063 76.521 19.4609 76.6203 19.4609H82.9311C83.0304 19.4609 83.1298 19.4609 83.1298 19.6081L83.2292 22.1107C83.2292 22.2579 82.9808 22.2579 82.9808 22.1107L82.8317 21.62C82.5335 20.3933 82.0863 20.0498 80.049 20.0498H78.9061V23.2393H79.8005C81.2416 23.2393 81.3907 22.8958 81.49 22.307V21.9635C81.5894 21.8163 81.8379 21.8163 81.8379 21.9635V25.0548C81.8379 25.2021 81.5894 25.2021 81.5397 25.0548V24.7114C81.3906 24.1225 81.2913 23.8281 79.8005 23.779H78.9061V27.1648H80.1981C82.2354 27.263 82.782 26.8704 83.2292 25.5455L83.3783 25.0548C83.428 24.9076 83.6764 24.9567 83.6764 25.0548L83.2789 27.6555C83.2789 27.7537 83.1795 27.8027 83.0801 27.8027H76.5706Z" fill="#A0A0B9"/>
<path id="Vector_11" d="M90.5303 27.8123C90.3315 27.8123 90.1327 27.7141 90.083 27.5669L87.9463 24.132C87.5488 24.132 87.201 24.132 86.8035 23.9848V26.8799C86.8035 27.4197 87.0022 27.5669 87.4494 27.616H87.8967C87.996 27.616 87.996 27.8613 87.8967 27.8613H84.4183C84.3189 27.8613 84.2692 27.665 84.4183 27.665H84.9152C85.3624 27.5669 85.5115 27.3216 85.5115 26.8799V20.5009C85.5115 20.0102 85.3624 19.7649 84.9152 19.7649H84.4183C84.3189 19.7649 84.3189 19.5195 84.4183 19.5195H87.847C90.0334 19.5195 91.1266 20.4028 91.1266 21.7767C91.1266 23.1507 90.3812 23.8376 89.288 24.132L90.9278 26.5855C91.4247 27.3706 91.7228 27.5669 92.2694 27.665H92.5676C92.667 27.665 92.667 27.9104 92.5676 27.9104L90.5303 27.8123ZM86.8035 20.0593V23.3469C87.1513 23.4451 87.4991 23.4941 87.8967 23.4941C89.0892 23.4941 89.8346 23.0525 89.8346 21.7277C89.8346 20.4028 89.1389 20.0102 87.5488 20.0102H86.8035V20.0593Z" fill="#A0A0B9"/>
<path id="Vector_12" d="M93.1641 25.2955C93.1641 25.1974 93.3628 25.1483 93.4125 25.2955L93.6113 25.8353C93.9094 26.8167 94.9032 27.4546 95.9467 27.4055C97.0896 27.4055 97.7853 26.8658 97.7853 25.8844C97.7853 24.903 96.9903 24.4123 95.7977 23.9707C94.456 23.48 93.4125 22.8911 93.4125 21.5172C93.4125 20.1433 94.3566 19.2109 96.0958 19.2109C97.835 19.2109 97.2884 19.3091 97.8847 19.4563C98.0834 19.4563 98.2822 19.3091 98.3319 19.3091C98.3816 19.3091 98.4313 19.3091 98.4313 19.4072V21.6644C98.481 21.7625 98.2822 21.8116 98.2325 21.6644L97.835 20.8302C97.5368 20.1923 97.0399 19.7998 96.0461 19.7998C95.0523 19.7998 94.456 20.2905 94.456 21.0756C94.456 21.8607 95.3505 22.4004 96.394 22.7439C97.8847 23.2837 98.9282 23.9216 98.9282 25.3446C98.9282 26.7676 97.7853 27.9453 95.8971 27.9453C94.0088 27.9453 94.2573 27.7981 93.4622 27.5527C93.3628 27.5527 93.2634 27.4055 93.2634 27.2583L93.1641 25.2955Z" fill="#A0A0B9"/>
<path id="Vector_13" d="M99.723 27.8027C99.6236 27.8027 99.6236 27.6065 99.723 27.6065H100.27C100.766 27.5083 100.916 27.312 100.916 26.8213V20.4423C100.916 19.9516 100.766 19.7554 100.27 19.7063H99.723C99.6236 19.7063 99.6236 19.4609 99.723 19.4609H103.4C103.499 19.4609 103.499 19.6572 103.4 19.6572H102.853C102.357 19.7554 102.208 19.9516 102.208 20.4423V26.7723C102.208 27.263 102.357 27.4592 102.853 27.5083H103.4C103.499 27.5083 103.499 27.7537 103.4 27.7537H99.723V27.8027Z" fill="#A0A0B9"/>
<path id="Vector_14" d="M105.985 27.8002C105.886 27.8002 105.886 27.6039 105.985 27.6039H106.631C106.979 27.6039 107.277 27.2604 107.277 26.9169V20.0472H106.88C105.489 20.0472 104.793 20.636 104.445 21.5193L104.197 22.1081C104.147 22.3044 103.898 22.2553 103.898 22.1081L104.296 19.6056C104.296 19.5074 104.395 19.4093 104.495 19.4584H111.352C111.451 19.4584 111.551 19.5565 111.551 19.6546L111.799 22.1081C111.799 22.2553 111.601 22.3044 111.551 22.1081L111.402 21.6174C111.054 20.4888 110.358 20.0963 108.967 20.0963H108.52V26.9169C108.52 27.2604 108.768 27.5548 109.116 27.5548H109.812C109.911 27.5548 109.911 27.8002 109.812 27.8002H105.985Z" fill="#A0A0B9"/>
<path id="Vector_15" d="M114.624 27.8027C114.524 27.8027 114.524 27.6064 114.624 27.6064H115.27C115.618 27.6064 115.916 27.263 115.916 26.9195V24.2207L113.729 20.5405C113.381 19.9516 113.133 19.7554 112.636 19.7063H112.239C112.139 19.7063 112.139 19.4609 112.239 19.4609H115.816C115.916 19.4609 115.916 19.6572 115.816 19.6572H115.568C114.872 19.6572 114.773 20.0007 115.27 20.8839L116.76 23.4846H116.81L117.953 21.3746C118.599 20.1479 118.649 19.8044 117.804 19.7063H117.506C117.406 19.7063 117.406 19.4609 117.506 19.4609H120.636C120.736 19.4609 120.736 19.6572 120.636 19.6572H120.338C119.792 19.7554 119.444 20.0498 118.748 21.2765L117.158 24.0735V26.9195C117.158 27.263 117.406 27.5574 117.754 27.6064H118.45C118.549 27.6064 118.549 27.8518 118.45 27.8518H114.624V27.8027Z" fill="#A0A0B9"/>
<path id="Vector_16" d="M33.0852 20.0496V8.17483H33.6318L38.4021 0.421875H25.085L19.619 9.40157L14.1531 0.421875H0.835938L5.60625 8.17483H6.15285V20.0496H5.60625L0.835938 27.8026H38.4021L33.6318 20.0496H33.0852Z" fill="#A0A0B9"/>
<path id="Vector_17" d="M20.1699 27.0214L23.9464 20.8877H24.8408V16.5696L19.6233 25.1077L14.4058 16.5696V20.8877H15.3002L19.0767 27.0214H2.28125L6.05775 20.8877H6.95218V7.39368H6.05775L2.28125 1.21094H13.6604L19.6233 10.9267L25.5862 1.21094H36.9654L33.1889 7.39368H32.2448V20.8877H33.1889L36.9654 27.0214H20.1699Z" fill="white"/>
<path id="Vector_18" d="M8.586 5.76838H6.9959L5.20703 2.82422H12.76L19.6173 14.0611L26.4747 2.82422H34.0277L32.2388 5.76838H30.6487V22.452H32.2388L34.0277 25.3961H23.046L24.8846 22.452H26.4747V10.7735L22.0522 18.0357L19.6173 22.0103L17.1825 18.0357L12.76 10.7735V22.452H14.3501L16.1887 25.3961H5.20703L6.9959 22.452H8.586V5.76838Z" fill="#A0A0B9"/>
</g>
</svg>
