<svg xmlns:xlink="http://www.w3.org/1999/xlink" xmlns="http://www.w3.org/2000/svg" viewBox="0 0 256 256" focusable="false" color="var(--token-c8809533-d74e-4474-af14-ef3a211efd13, rgb(20, 20, 20))" style="user-select: none; width: 100%; height: 100%; display: inline-block; fill: var(--token-c8809533-d74e-4474-af14-ef3a211efd13, rgb(20, 20, 20)); color: var(--token-c8809533-d74e-4474-af14-ef3a211efd13, rgb(20, 20, 20)); flex-shrink: 0;" width="256"  height="256" ><g color="var(--token-c8809533-d74e-4474-af14-ef3a211efd13, rgb(20, 20, 20))" weight="fill" fill="#211F1A"><path d="M240,208H224V136l2.34,2.34A8,8,0,0,0,237.66,127L139.31,28.68a16,16,0,0,0-22.62,0L18.34,127a8,8,0,0,0,11.32,11.31L32,136v72H16a8,8,0,0,0,0,16H240a8,8,0,0,0,0-16Zm-88,0H104V160a4,4,0,0,1,4-4h40a4,4,0,0,1,4,4Z" fill="#211F1A"></path></g></svg>