<svg xmlns:xlink="http://www.w3.org/1999/xlink" xmlns="http://www.w3.org/2000/svg" viewBox="0 0 256 256" focusable="false" color="var(--token-c8809533-d74e-4474-af14-ef3a211efd13, rgb(20, 20, 20))" style="user-select: none; width: 100%; height: 100%; display: inline-block; fill: var(--token-c8809533-d74e-4474-af14-ef3a211efd13, rgb(20, 20, 20)); color: var(--token-c8809533-d74e-4474-af14-ef3a211efd13, rgb(20, 20, 20)); flex-shrink: 0;" width="256"  height="256" ><g color="var(--token-c8809533-d74e-4474-af14-ef3a211efd13, rgb(20, 20, 20))" weight="fill" fill="#211F1A"><path d="M223.45,40.07a8,8,0,0,0-7.52-7.52C139.8,28.08,78.82,51,52.82,94a87.09,87.09,0,0,0-12.76,49A101.72,101.72,0,0,0,46.7,175.2a4,4,0,0,0,6.61,1.43l85-86.3a8,8,0,0,1,11.32,11.32L56.74,195.94,42.55,210.13a8.2,8.2,0,0,0-.6,11.1,8,8,0,0,0,11.71.43l16.79-16.79c14.14,6.84,28.41,10.57,42.56,11.07q1.67.06,3.33.06A86.93,86.93,0,0,0,162,203.18C205,177.18,227.93,116.21,223.45,40.07Z" fill="#211F1A"></path></g></svg>