<?xml version="1.0" encoding="UTF-8"?>
<svg xmlns="http://www.w3.org/2000/svg" xmlns:xlink="http://www.w3.org/1999/xlink" width="48px" height="px" viewBox="0 0 48 48" version="1.1">
<g id="surface1">
<path style=" stroke:none;fill-rule:nonzero;fill:rgb(94.509804%,56.862748%,26.274511%);fill-opacity:1;" d="M 28.988281 8.066406 C 29.253906 8.210938 29.429688 8.394531 29.625 8.625 C 29.695312 8.707031 29.765625 8.789062 29.835938 8.871094 C 30.21875 9.609375 30.105469 10.378906 29.871094 11.144531 C 29.847656 11.234375 29.820312 11.328125 29.792969 11.417969 C 29.707031 11.730469 29.613281 12.039062 29.523438 12.347656 C 29.457031 12.578125 29.390625 12.808594 29.324219 13.039062 C 29.191406 13.496094 29.058594 13.957031 28.925781 14.417969 C 28.601562 15.527344 28.285156 16.636719 27.96875 17.746094 C 27.855469 18.144531 27.742188 18.539062 27.628906 18.9375 C 27.601562 19.039062 27.570312 19.136719 27.542969 19.242188 C 27.210938 20.394531 26.882812 21.550781 26.550781 22.703125 C 26.519531 22.8125 26.488281 22.917969 26.457031 23.027344 C 26.335938 23.460938 26.210938 23.894531 26.085938 24.328125 C 25.742188 25.527344 25.398438 26.726562 25.054688 27.925781 C 24.929688 28.351562 24.808594 28.78125 24.6875 29.210938 C 24.65625 29.3125 24.625 29.417969 24.59375 29.527344 C 24.421875 30.128906 24.25 30.730469 24.078125 31.335938 C 24.023438 31.523438 23.96875 31.714844 23.914062 31.90625 C 23.78125 32.363281 23.652344 32.820312 23.519531 33.28125 C 23.285156 34.09375 23.050781 34.90625 22.824219 35.722656 C 22.722656 36.089844 22.621094 36.457031 22.515625 36.824219 C 22.46875 36.996094 22.421875 37.167969 22.375 37.339844 C 22.308594 37.578125 22.242188 37.816406 22.175781 38.050781 C 22.15625 38.121094 22.136719 38.191406 22.121094 38.261719 C 21.921875 38.953125 21.578125 39.421875 21 39.84375 C 20.429688 40.113281 19.84375 40.140625 19.242188 39.949219 C 18.691406 39.699219 18.394531 39.429688 18.09375 38.90625 C 17.730469 37.820312 18.160156 36.671875 18.46875 35.625 C 18.519531 35.449219 18.570312 35.273438 18.617188 35.09375 C 18.753906 34.613281 18.894531 34.132812 19.035156 33.652344 C 19.183594 33.140625 19.328125 32.628906 19.476562 32.113281 C 19.753906 31.132812 20.039062 30.152344 20.320312 29.171875 C 20.632812 28.09375 20.941406 27.011719 21.25 25.933594 C 21.648438 24.550781 22.042969 23.171875 22.441406 21.792969 C 22.46875 21.6875 22.5 21.582031 22.53125 21.472656 C 22.5625 21.371094 22.59375 21.265625 22.625 21.15625 C 22.683594 20.945312 22.746094 20.734375 22.804688 20.523438 C 22.835938 20.421875 22.867188 20.316406 22.898438 20.207031 C 23.324219 18.71875 23.75 17.230469 24.171875 15.742188 C 24.347656 15.125 24.523438 14.507812 24.699219 13.886719 C 24.863281 13.308594 25.027344 12.726562 25.191406 12.144531 C 25.292969 11.789062 25.394531 11.433594 25.496094 11.078125 C 25.542969 10.917969 25.585938 10.753906 25.632812 10.589844 C 26.140625 8.777344 26.140625 8.777344 26.730469 8.265625 C 26.792969 8.230469 26.855469 8.195312 26.917969 8.164062 C 26.980469 8.125 27.042969 8.089844 27.105469 8.054688 C 27.714844 7.757812 28.375 7.804688 28.988281 8.066406 Z M 28.988281 8.066406 "/>
<path style=" stroke:none;fill-rule:nonzero;fill:rgb(94.509804%,56.862748%,26.274511%);fill-opacity:1;" d="M 35.929688 13.933594 C 36.082031 13.929688 36.082031 13.929688 36.234375 13.925781 C 37.074219 14.035156 37.585938 14.566406 38.15625 15.140625 C 38.238281 15.21875 38.320312 15.300781 38.402344 15.382812 C 38.621094 15.601562 38.84375 15.820312 39.0625 16.042969 C 39.292969 16.273438 39.523438 16.503906 39.753906 16.734375 C 40.140625 17.121094 40.527344 17.507812 40.914062 17.894531 C 41.359375 18.34375 41.804688 18.789062 42.253906 19.234375 C 42.636719 19.617188 43.023438 20.003906 43.40625 20.386719 C 43.636719 20.617188 43.863281 20.847656 44.09375 21.074219 C 44.351562 21.328125 44.605469 21.585938 44.859375 21.84375 C 44.933594 21.917969 45.011719 21.992188 45.089844 22.070312 C 45.574219 22.5625 45.960938 23.027344 46.082031 23.730469 C 46.082031 23.820312 46.078125 23.910156 46.078125 24 C 46.078125 24.132812 46.078125 24.132812 46.082031 24.269531 C 45.941406 25.085938 45.425781 25.597656 44.859375 26.15625 C 44.78125 26.238281 44.699219 26.320312 44.617188 26.402344 C 44.398438 26.621094 44.179688 26.84375 43.957031 27.0625 C 43.726562 27.292969 43.496094 27.523438 43.265625 27.753906 C 42.878906 28.140625 42.492188 28.527344 42.105469 28.914062 C 41.65625 29.359375 41.210938 29.804688 40.765625 30.253906 C 40.382812 30.636719 39.996094 31.023438 39.613281 31.40625 C 39.382812 31.636719 39.152344 31.863281 38.925781 32.09375 C 38.671875 32.351562 38.414062 32.605469 38.15625 32.859375 C 38.046875 32.972656 38.046875 32.972656 37.929688 33.089844 C 37.351562 33.660156 36.804688 34.085938 35.953125 34.085938 C 35.296875 34.0625 34.914062 33.875 34.449219 33.421875 C 34.074219 33 33.910156 32.59375 33.902344 32.03125 C 33.898438 31.949219 33.898438 31.867188 33.894531 31.78125 C 34.007812 31.050781 34.453125 30.554688 34.964844 30.054688 C 35.03125 29.988281 35.097656 29.921875 35.164062 29.855469 C 35.375 29.644531 35.589844 29.433594 35.804688 29.21875 C 35.953125 29.074219 36.101562 28.925781 36.25 28.777344 C 36.640625 28.386719 37.03125 28 37.425781 27.613281 C 37.824219 27.21875 38.222656 26.820312 38.621094 26.421875 C 39.402344 25.644531 40.183594 24.871094 40.96875 24.09375 C 40.847656 23.828125 40.71875 23.636719 40.511719 23.429688 C 40.457031 23.375 40.402344 23.320312 40.34375 23.261719 C 40.285156 23.203125 40.222656 23.144531 40.160156 23.085938 C 40.097656 23.019531 40.035156 22.957031 39.96875 22.894531 C 39.832031 22.757812 39.691406 22.621094 39.554688 22.484375 C 39.335938 22.269531 39.117188 22.050781 38.898438 21.835938 C 38.277344 21.21875 37.65625 20.601562 37.035156 19.988281 C 36.652344 19.613281 36.273438 19.234375 35.894531 18.859375 C 35.75 18.714844 35.601562 18.574219 35.457031 18.429688 C 35.253906 18.230469 35.050781 18.027344 34.851562 17.828125 C 34.789062 17.769531 34.730469 17.710938 34.667969 17.648438 C 34.1875 17.167969 33.898438 16.695312 33.898438 15.992188 C 33.914062 15.402344 34.0625 14.980469 34.46875 14.554688 C 34.941406 14.136719 35.289062 13.941406 35.929688 13.933594 Z M 35.929688 13.933594 "/>
<path style=" stroke:none;fill-rule:nonzero;fill:rgb(94.509804%,56.862748%,26.274511%);fill-opacity:1;" d="M 12.882812 14.054688 C 13.449219 14.386719 13.851562 14.84375 14.0625 15.46875 C 14.09375 15.714844 14.09375 15.714844 14.097656 15.96875 C 14.101562 16.050781 14.101562 16.132812 14.105469 16.21875 C 13.992188 16.949219 13.546875 17.445312 13.035156 17.945312 C 12.96875 18.011719 12.902344 18.078125 12.835938 18.144531 C 12.625 18.355469 12.410156 18.566406 12.195312 18.78125 C 12.046875 18.925781 11.898438 19.074219 11.75 19.222656 C 11.359375 19.613281 10.96875 20 10.574219 20.386719 C 10.175781 20.78125 9.777344 21.179688 9.378906 21.578125 C 8.597656 22.355469 7.816406 23.128906 7.03125 23.90625 C 7.152344 24.171875 7.28125 24.363281 7.488281 24.570312 C 7.570312 24.652344 7.570312 24.652344 7.65625 24.738281 C 7.714844 24.796875 7.777344 24.855469 7.839844 24.914062 C 7.902344 24.980469 7.964844 25.042969 8.03125 25.105469 C 8.167969 25.242188 8.308594 25.378906 8.445312 25.515625 C 8.664062 25.730469 8.882812 25.949219 9.101562 26.164062 C 9.722656 26.78125 10.34375 27.398438 10.964844 28.011719 C 11.347656 28.386719 11.726562 28.765625 12.105469 29.140625 C 12.25 29.285156 12.398438 29.425781 12.542969 29.570312 C 12.746094 29.769531 12.949219 29.972656 13.148438 30.171875 C 13.210938 30.230469 13.269531 30.289062 13.332031 30.351562 C 13.8125 30.832031 14.101562 31.304688 14.101562 32.007812 C 14.085938 32.597656 13.9375 33.019531 13.53125 33.445312 C 13.058594 33.863281 12.710938 34.058594 12.070312 34.066406 C 11.96875 34.070312 11.867188 34.070312 11.765625 34.074219 C 10.925781 33.964844 10.414062 33.433594 9.84375 32.859375 C 9.761719 32.78125 9.679688 32.699219 9.597656 32.617188 C 9.378906 32.398438 9.15625 32.179688 8.9375 31.957031 C 8.707031 31.726562 8.476562 31.496094 8.246094 31.265625 C 7.859375 30.878906 7.472656 30.492188 7.085938 30.105469 C 6.640625 29.65625 6.195312 29.210938 5.746094 28.765625 C 5.363281 28.382812 4.976562 27.996094 4.59375 27.613281 C 4.363281 27.382812 4.136719 27.152344 3.90625 26.925781 C 3.648438 26.671875 3.394531 26.414062 3.140625 26.15625 C 3.066406 26.082031 2.988281 26.007812 2.910156 25.929688 C 2.425781 25.4375 2.039062 24.972656 1.917969 24.269531 C 1.917969 24.179688 1.921875 24.089844 1.921875 24 C 1.921875 23.910156 1.921875 23.820312 1.917969 23.730469 C 2.058594 22.914062 2.574219 22.402344 3.140625 21.84375 C 3.21875 21.761719 3.300781 21.679688 3.382812 21.597656 C 3.601562 21.378906 3.820312 21.15625 4.042969 20.9375 C 4.273438 20.707031 4.503906 20.476562 4.734375 20.246094 C 5.121094 19.859375 5.507812 19.472656 5.894531 19.085938 C 6.34375 18.640625 6.789062 18.195312 7.234375 17.746094 C 7.617188 17.363281 8.003906 16.976562 8.386719 16.59375 C 8.617188 16.363281 8.847656 16.136719 9.074219 15.90625 C 9.328125 15.648438 9.585938 15.394531 9.84375 15.140625 C 9.917969 15.066406 9.992188 14.988281 10.070312 14.910156 C 10.851562 14.140625 11.765625 13.632812 12.882812 14.054688 Z M 12.882812 14.054688 "/>
</g>
</svg>
