<?xml version="1.0" encoding="UTF-8"?>
<svg xmlns="http://www.w3.org/2000/svg" xmlns:xlink="http://www.w3.org/1999/xlink" width="48px" height="px" viewBox="0 0 48 48" version="1.1">
<g id="surface1">
<path style=" stroke:none;fill-rule:nonzero;fill:rgb(94.509804%,56.862748%,26.274511%);fill-opacity:1;" d="M 22.398438 5.402344 C 22.851562 5.921875 22.917969 6.515625 22.910156 7.175781 C 22.910156 7.253906 22.910156 7.332031 22.910156 7.410156 C 22.910156 7.667969 22.910156 7.925781 22.90625 8.179688 C 22.90625 8.367188 22.90625 8.550781 22.90625 8.734375 C 22.90625 9.234375 22.90625 9.738281 22.902344 10.238281 C 22.902344 10.761719 22.902344 11.285156 22.902344 11.808594 C 22.898438 12.796875 22.898438 13.789062 22.894531 14.78125 C 22.890625 15.90625 22.890625 17.035156 22.890625 18.164062 C 22.886719 20.484375 22.882812 22.804688 22.875 25.125 C 22.96875 25.125 23.066406 25.125 23.164062 25.125 C 25.484375 25.117188 27.808594 25.113281 30.128906 25.109375 C 31.25 25.109375 32.375 25.105469 33.496094 25.105469 C 34.476562 25.101562 35.453125 25.097656 36.433594 25.097656 C 36.949219 25.097656 37.46875 25.097656 37.988281 25.09375 C 38.476562 25.09375 38.960938 25.09375 39.449219 25.09375 C 39.628906 25.09375 39.808594 25.09375 39.988281 25.089844 C 40.230469 25.089844 40.476562 25.089844 40.722656 25.089844 C 40.792969 25.089844 40.863281 25.089844 40.933594 25.089844 C 41.542969 25.09375 42.152344 25.195312 42.601562 25.625 C 42.957031 26.234375 42.960938 26.757812 42.925781 27.445312 C 42.921875 27.542969 42.917969 27.640625 42.910156 27.742188 C 42.660156 32.132812 41.097656 36.40625 38.34375 39.84375 C 38.273438 39.933594 38.199219 40.027344 38.125 40.121094 C 36.992188 41.519531 35.691406 42.835938 34.21875 43.875 C 34.125 43.941406 34.125 43.941406 34.027344 44.011719 C 30.691406 46.347656 26.6875 47.996094 22.566406 48.019531 C 22.484375 48.019531 22.40625 48.019531 22.320312 48.019531 C 18.96875 48.042969 18.96875 48.042969 17.4375 47.71875 C 17.300781 47.691406 17.300781 47.691406 17.160156 47.664062 C 15.25 47.265625 13.425781 46.671875 11.703125 45.75 C 11.53125 45.65625 11.359375 45.570312 11.183594 45.480469 C 9.84375 44.808594 8.632812 43.914062 7.5 42.9375 C 7.425781 42.875 7.351562 42.808594 7.273438 42.742188 C 6.140625 41.746094 5.117188 40.683594 4.21875 39.46875 C 4.140625 39.363281 4.058594 39.257812 3.980469 39.152344 C 3.347656 38.304688 2.835938 37.402344 2.34375 36.46875 C 2.292969 36.375 2.292969 36.375 2.242188 36.277344 C -0.351562 31.429688 -0.710938 25.453125 0.855469 20.226562 C 1.265625 18.929688 1.792969 17.695312 2.4375 16.5 C 2.46875 16.4375 2.503906 16.375 2.539062 16.3125 C 3.460938 14.574219 4.644531 13.050781 6 11.625 C 6.046875 11.574219 6.09375 11.523438 6.144531 11.472656 C 6.835938 10.746094 7.5625 10.09375 8.367188 9.496094 C 8.472656 9.417969 8.582031 9.335938 8.683594 9.257812 C 11.949219 6.769531 15.898438 5.433594 19.96875 5.117188 C 20.128906 5.101562 20.128906 5.101562 20.296875 5.089844 C 21.027344 5.042969 21.742188 5.039062 22.398438 5.402344 Z M 10.03125 11.8125 C 9.902344 11.910156 9.902344 11.910156 9.773438 12.007812 C 8.449219 13.039062 7.253906 14.289062 6.28125 15.65625 C 6.222656 15.742188 6.222656 15.742188 6.160156 15.828125 C 4.539062 18.125 3.449219 20.753906 3 23.53125 C 2.984375 23.621094 2.96875 23.710938 2.953125 23.804688 C 2.804688 24.71875 2.777344 25.613281 2.78125 26.539062 C 2.785156 26.613281 2.785156 26.691406 2.785156 26.769531 C 2.804688 31.578125 4.707031 36.054688 8.023438 39.519531 C 8.148438 39.644531 8.269531 39.773438 8.390625 39.90625 C 9.007812 40.546875 9.691406 41.089844 10.40625 41.625 C 10.519531 41.710938 10.519531 41.710938 10.636719 41.800781 C 12.878906 43.441406 15.546875 44.519531 18.28125 45 C 18.375 45.015625 18.464844 45.03125 18.5625 45.050781 C 19.496094 45.203125 20.417969 45.226562 21.363281 45.222656 C 21.445312 45.222656 21.523438 45.222656 21.605469 45.222656 C 22.933594 45.21875 24.207031 45.128906 25.5 44.8125 C 25.585938 44.792969 25.671875 44.769531 25.761719 44.75 C 27.390625 44.335938 28.890625 43.722656 30.375 42.9375 C 30.457031 42.894531 30.457031 42.894531 30.542969 42.847656 C 31.5 42.34375 32.339844 41.726562 33.1875 41.0625 C 33.238281 41.023438 33.289062 40.984375 33.34375 40.941406 C 33.851562 40.546875 34.308594 40.148438 34.71875 39.652344 C 34.878906 39.464844 35.046875 39.296875 35.226562 39.128906 C 36.179688 38.183594 36.921875 37.0625 37.59375 35.90625 C 37.648438 35.8125 37.648438 35.8125 37.703125 35.714844 C 38.324219 34.636719 38.777344 33.515625 39.1875 32.34375 C 39.226562 32.234375 39.265625 32.128906 39.304688 32.015625 C 39.507812 31.402344 39.644531 30.777344 39.765625 30.140625 C 39.785156 30.0625 39.800781 29.984375 39.816406 29.902344 C 39.902344 29.441406 39.957031 28.984375 39.988281 28.515625 C 39.996094 28.40625 40.003906 28.296875 40.011719 28.1875 C 40.019531 28.105469 40.023438 28.023438 40.03125 27.9375 C 39.882812 27.9375 39.882812 27.9375 39.734375 27.9375 C 37.347656 27.933594 34.964844 27.929688 32.578125 27.921875 C 31.425781 27.917969 30.273438 27.914062 29.121094 27.910156 C 28.113281 27.910156 27.109375 27.910156 26.105469 27.902344 C 25.570312 27.902344 25.039062 27.902344 24.507812 27.902344 C 24.007812 27.902344 23.503906 27.898438 23.003906 27.894531 C 22.820312 27.894531 22.636719 27.894531 22.453125 27.894531 C 22.203125 27.894531 21.949219 27.894531 21.699219 27.890625 C 21.628906 27.894531 21.554688 27.894531 21.480469 27.894531 C 20.996094 27.886719 20.710938 27.785156 20.34375 27.46875 C 20.082031 27.132812 20.128906 26.730469 20.128906 26.324219 C 20.128906 26.246094 20.128906 26.164062 20.128906 26.085938 C 20.125 25.820312 20.125 25.558594 20.125 25.296875 C 20.125 25.105469 20.125 24.917969 20.125 24.730469 C 20.121094 24.21875 20.121094 23.707031 20.117188 23.195312 C 20.117188 22.660156 20.113281 22.125 20.113281 21.589844 C 20.109375 20.574219 20.105469 19.5625 20.101562 18.546875 C 20.097656 17.394531 20.09375 16.242188 20.089844 15.089844 C 20.078125 12.714844 20.070312 10.34375 20.0625 7.96875 C 16.472656 7.96875 12.816406 9.671875 10.03125 11.8125 Z M 10.03125 11.8125 "/>
<path style=" stroke:none;fill-rule:nonzero;fill:rgb(94.509804%,56.862748%,26.274511%);fill-opacity:1;" d="M 33.449219 1.023438 C 34.558594 1.410156 35.621094 1.878906 36.65625 2.4375 C 36.71875 2.46875 36.777344 2.5 36.839844 2.535156 C 39.566406 3.976562 42.09375 6.101562 43.875 8.625 C 43.941406 8.71875 43.941406 8.71875 44.011719 8.816406 C 45.980469 11.632812 47.222656 14.710938 47.8125 18.09375 C 47.832031 18.207031 47.855469 18.320312 47.878906 18.4375 C 48.003906 19.214844 48.023438 19.988281 48.035156 20.773438 C 48.039062 20.878906 48.039062 20.984375 48.042969 21.09375 C 48.042969 21.683594 48.03125 22.054688 47.625 22.5 C 47.082031 22.902344 46.523438 22.890625 45.871094 22.886719 C 45.75 22.886719 45.75 22.886719 45.621094 22.890625 C 45.347656 22.890625 45.074219 22.890625 44.796875 22.890625 C 44.601562 22.890625 44.402344 22.890625 44.207031 22.890625 C 43.667969 22.894531 43.132812 22.894531 42.597656 22.894531 C 42.261719 22.894531 41.929688 22.894531 41.59375 22.894531 C 40.542969 22.894531 39.496094 22.898438 38.449219 22.898438 C 37.238281 22.898438 36.03125 22.898438 34.820312 22.902344 C 33.882812 22.902344 32.949219 22.90625 32.015625 22.90625 C 31.457031 22.90625 30.898438 22.90625 30.339844 22.90625 C 29.8125 22.910156 29.289062 22.910156 28.761719 22.910156 C 28.570312 22.910156 28.378906 22.910156 28.183594 22.910156 C 27.921875 22.910156 27.660156 22.910156 27.394531 22.910156 C 27.28125 22.910156 27.28125 22.910156 27.164062 22.910156 C 26.542969 22.90625 25.921875 22.816406 25.460938 22.378906 C 25.140625 21.828125 25.097656 21.34375 25.101562 20.726562 C 25.101562 20.644531 25.101562 20.5625 25.097656 20.476562 C 25.097656 20.199219 25.097656 19.921875 25.097656 19.644531 C 25.097656 19.445312 25.097656 19.246094 25.097656 19.046875 C 25.097656 18.503906 25.097656 17.964844 25.097656 17.421875 C 25.097656 16.96875 25.097656 16.519531 25.097656 16.066406 C 25.09375 15 25.09375 13.933594 25.09375 12.871094 C 25.097656 11.769531 25.09375 10.671875 25.09375 9.570312 C 25.089844 8.628906 25.089844 7.683594 25.089844 6.738281 C 25.089844 6.175781 25.089844 5.613281 25.089844 5.046875 C 25.089844 4.519531 25.089844 3.988281 25.089844 3.457031 C 25.089844 3.261719 25.089844 3.070312 25.089844 2.875 C 25.089844 2.609375 25.089844 2.34375 25.089844 2.078125 C 25.089844 2 25.089844 1.925781 25.085938 1.84375 C 25.09375 1.328125 25.191406 0.941406 25.40625 0.46875 C 27.035156 -1.082031 31.554688 0.394531 33.449219 1.023438 Z M 27.9375 2.8125 C 27.9375 8.503906 27.9375 14.199219 27.9375 20.0625 C 33.628906 20.0625 39.324219 20.0625 45.1875 20.0625 C 45.042969 18.6875 45.042969 18.6875 44.789062 17.34375 C 44.757812 17.214844 44.757812 17.214844 44.726562 17.082031 C 43.492188 11.996094 40.261719 7.925781 35.832031 5.21875 C 34.871094 4.644531 33.859375 4.230469 32.8125 3.84375 C 32.75 3.820312 32.683594 3.796875 32.621094 3.773438 C 31.082031 3.207031 29.574219 2.984375 27.9375 2.8125 Z M 27.9375 2.8125 "/>
</g>
</svg>
