<svg xmlns:xlink="http://www.w3.org/1999/xlink" xmlns="http://www.w3.org/2000/svg" width="24" height="24" viewBox="0 0 24 24" fill="none">
<path d="M16.303 2.22266H7.60257C6.25698 2.22411 4.96691 2.76353 4.01543 3.72257C3.06396 4.68161 2.52878 5.98193 2.52734 7.33822V16.1077C2.52878 17.464 3.06396 18.7644 4.01543 19.7234C4.96691 20.6824 6.25698 21.2219 7.60257 21.2233H16.303C17.6485 21.2219 18.9386 20.6824 19.8901 19.7234C20.8416 18.7644 21.3767 17.464 21.3782 16.1077V7.33822C21.3767 5.98193 20.8416 4.68161 19.8901 3.72257C18.9386 2.76353 17.6485 2.22411 16.303 2.22266ZM11.9528 16.1077C11.0924 16.1077 10.2513 15.8506 9.53592 15.3688C8.82054 14.887 8.26296 14.2022 7.93371 13.401C7.60445 12.5997 7.5183 11.7181 7.68616 10.8676C7.85401 10.017 8.26833 9.23571 8.87671 8.62248C9.4851 8.00926 10.2602 7.59166 11.1041 7.42247C11.9479 7.25328 12.8226 7.34011 13.6175 7.67199C14.4124 8.00386 15.0918 8.56587 15.5698 9.28694C16.0478 10.008 16.303 10.8558 16.303 11.723C16.3018 12.8855 15.8431 14.0001 15.0275 14.8221C14.2119 15.6442 13.1061 16.1065 11.9528 16.1077ZM17.3905 7.33822C17.1754 7.33822 16.9651 7.27393 16.7863 7.15348C16.6074 7.03302 16.4681 6.86182 16.3857 6.66152C16.3034 6.46122 16.2819 6.24081 16.3239 6.02817C16.3658 5.81553 16.4694 5.62021 16.6215 5.4669C16.7736 5.3136 16.9674 5.20919 17.1783 5.1669C17.3893 5.1246 17.608 5.14631 17.8067 5.22928C18.0054 5.31224 18.1753 5.45275 18.2948 5.63301C18.4143 5.81328 18.4781 6.02522 18.4781 6.24202C18.4781 6.53275 18.3635 6.81157 18.1595 7.01715C17.9556 7.22273 17.6789 7.33822 17.3905 7.33822ZM14.8529 11.723C14.8529 12.3011 14.6828 12.8663 14.3641 13.347C14.0455 13.8277 13.5925 14.2024 13.0626 14.4236C12.5327 14.6449 11.9495 14.7028 11.387 14.59C10.8244 14.4772 10.3077 14.1988 9.90206 13.79C9.49647 13.3812 9.22026 12.8603 9.10836 12.2933C8.99646 11.7262 9.05389 11.1385 9.27339 10.6043C9.4929 10.0702 9.86461 9.61365 10.3415 9.29245C10.8185 8.97125 11.3792 8.79981 11.9528 8.79981C12.7219 8.79981 13.4596 9.10778 14.0035 9.65598C14.5473 10.2042 14.8529 10.9477 14.8529 11.723Z" fill="white"/>
</svg>