<svg xmlns:xlink="http://www.w3.org/1999/xlink" xmlns="http://www.w3.org/2000/svg" width="23" height="19" viewBox="0 0 23 19" fill="none">
<path d="M5.52641 18.5462H0.928804V6.33598H5.52641V18.5462ZM3.22513 4.67039C1.75497 4.67039 0.5625 3.66614 0.5625 2.45369C0.5625 1.87131 0.843027 1.31278 1.34237 0.900971C1.84171 0.489164 2.51896 0.257812 3.22513 0.257812C3.93131 0.257812 4.60856 0.489164 5.1079 0.900971C5.60724 1.31278 5.88777 1.87131 5.88777 2.45369C5.88777 3.66614 4.6948 4.67039 3.22513 4.67039ZM22.7338 18.5462H18.1461V12.6023C18.1461 11.1858 18.1114 9.36915 15.7557 9.36915C13.3653 9.36915 12.999 10.9082 12.999 12.5003V18.5462H8.40636V6.33598H12.8159V8.00157H12.8802C13.494 7.04222 14.9934 6.02981 17.2303 6.02981C21.8834 6.02981 22.7387 8.55676 22.7387 11.839V18.5462H22.7338Z" fill="white"/>
</svg>