<svg xmlns:xlink="http://www.w3.org/1999/xlink" xmlns="http://www.w3.org/2000/svg" width="21" height="21" viewBox="0 0 21 21" fill="none">
<path d="M19.4245 12.4074C19.5551 11.7723 19.6361 11.0963 19.6361 10.4203C19.6361 5.271 15.4996 1.1062 10.3954 1.1062C9.72478 1.1062 9.05863 1.18332 8.42398 1.31943C7.56878 0.652516 6.50653 0.257812 5.34976 0.257812C2.56812 0.257812 0.308594 2.5353 0.308594 5.33906C0.308594 6.50502 0.700185 7.57571 1.35734 8.43317C1.22681 9.06833 1.14579 9.74431 1.14579 10.4203C1.14579 15.5696 5.28225 19.7344 10.3864 19.7344C11.0571 19.7344 11.7232 19.6573 12.3579 19.5212C13.2131 20.1835 14.2753 20.5783 15.4276 20.5783C18.2092 20.5783 20.4688 18.3008 20.4688 15.497C20.4733 14.3356 20.0817 13.2649 19.4245 12.4074ZM10.6655 16.5586C7.71281 16.5586 5.24174 15.2339 5.24174 13.6097C5.24174 12.8838 5.64683 12.2214 6.56955 12.2214C7.97387 12.2214 8.1044 14.2585 10.535 14.2585C11.6917 14.2585 12.4389 13.7413 12.4389 13.0653C12.4389 12.2169 11.7187 12.0853 10.5485 11.795C7.73532 11.0963 5.24624 10.7969 5.24624 7.83885C5.24624 5.15305 7.88385 4.15948 10.1569 4.15948C12.637 4.15948 15.144 5.15305 15.144 6.67288C15.144 7.43961 14.6309 8.11559 13.7802 8.11559C12.5064 8.11559 12.4659 6.59576 10.4044 6.59576C9.24767 6.59576 8.514 6.91333 8.514 7.61654C8.514 8.51483 9.45022 8.60557 11.6242 9.1137C13.4877 9.53562 15.7067 10.3296 15.7067 12.6343C15.7067 15.3155 13.1366 16.5586 10.6655 16.5586Z" fill="white"/>
</svg>