<svg xmlns:xlink="http://www.w3.org/1999/xlink" xmlns="http://www.w3.org/2000/svg" width="24" height="19" viewBox="0 0 24 19" fill="none">
<path d="M21.1547 4.90763C21.169 5.11031 21.169 5.31304 21.169 5.51573C21.169 11.6979 16.5007 18.8213 7.96838 18.8213C5.33973 18.8213 2.89783 18.0539 0.84375 16.722C1.21723 16.7654 1.5763 16.7799 1.96415 16.7799C4.13311 16.7799 6.12975 16.0415 7.72418 14.7819C5.68447 14.7384 3.97513 13.3919 3.38619 11.5387C3.67349 11.5821 3.96076 11.6111 4.26243 11.6111C4.67898 11.6111 5.09557 11.5531 5.48338 11.4518C3.35749 11.0175 1.76302 9.1353 1.76302 6.86221V6.80431C2.38065 7.1518 3.09892 7.36897 3.86017 7.39789C2.61048 6.55813 1.79176 5.1248 1.79176 3.50321C1.79176 2.63453 2.02154 1.83822 2.42376 1.14326C4.70768 3.98101 8.14073 5.8342 11.9903 6.03693C11.9185 5.68945 11.8754 5.32753 11.8754 4.96556C11.8754 2.38839 13.9438 0.289062 16.515 0.289062C17.8509 0.289062 19.0574 0.853715 19.9049 1.76585C20.9535 1.56316 21.959 1.17223 22.8496 0.636544C22.5048 1.72244 21.7723 2.63458 20.8099 3.21367C21.7436 3.11237 22.6485 2.8517 23.4816 2.48978C22.8497 3.41635 22.0596 4.24159 21.1547 4.90763Z" fill="white"/>
</svg>