<svg xmlns:xlink="http://www.w3.org/1999/xlink" xmlns="http://www.w3.org/2000/svg" viewBox="0 0 256 256" focusable="false" color="var(--token-230c3248-009b-4ccd-bda2-d16c47a758d2, rgb(255, 213, 0))" style="user-select: none; width: 100%; height: 100%; display: inline-block; fill: var(--token-230c3248-009b-4ccd-bda2-d16c47a758d2, rgb(255, 213, 0)); color: var(--token-230c3248-009b-4ccd-bda2-d16c47a758d2, rgb(255, 213, 0)); flex-shrink: 0;" width="256" height="256"><g color="var(--token-230c3248-009b-4ccd-bda2-d16c47a758d2, rgb(255, 213, 0))" weight="fill" fill="#FF833B"><path d="M208,80H32a8,8,0,0,0-8,8v48a96.3,96.3,0,0,0,32.54,72H32a8,8,0,0,0,0,16H208a8,8,0,0,0,0-16H183.46a96.59,96.59,0,0,0,27-40.09A40,40,0,0,0,248,128v-8A40,40,0,0,0,208,80Zm24,48a24,24,0,0,1-17.2,23,95.78,95.78,0,0,0,1.2-15V97.38A24,24,0,0,1,232,120ZM112,56V24a8,8,0,0,1,16,0V56a8,8,0,0,1-16,0Zm32,0V24a8,8,0,0,1,16,0V56a8,8,0,0,1-16,0ZM80,56V24a8,8,0,0,1,16,0V56a8,8,0,0,1-16,0Z" fill="#FF833B"></path></g></svg>