<svg xmlns:xlink="http://www.w3.org/1999/xlink" xmlns="http://www.w3.org/2000/svg" width="80" height="80" viewBox="0 0 80 80" fill="none">
<rect x="0.5" y="0.5" width="79" height="79" rx="19.5" fill="#CFFF45"/>
<rect x="0.5" y="0.5" width="79" height="79" rx="19.5" stroke="#29594B"/>
<g clip-path="url(#clip0_499_5588)">
<path d="M29.2578 21.3828C28.9141 21.5625 28.6797 21.7969 28.4922 22.1484C28.3203 22.4609 28.3203 22.4922 28.2969 28.2266L28.2734 33.9922L28.1016 33.9375C28.0078 33.9062 27.3906 33.7109 26.7344 33.5078C26.0781 33.2969 25.4297 33.125 25.2891 33.125C24.7109 33.125 24.0859 33.4531 23.7734 33.9219C23.5312 34.3047 20 45.2656 20 45.6562C20 46.2812 20.5234 47.0625 21.0859 47.2812C22.1016 47.6719 25.6484 48.75 25.9375 48.75C26.2812 48.75 26.2969 48.7656 26.6797 49.2812L27.0703 49.8047L26.5312 50.5859C25.7734 51.6953 25.5938 52.1094 25.5938 52.7344C25.6016 53.4141 25.8438 53.9609 26.3359 54.4062C26.7266 54.7578 27.2734 55 27.6719 55C27.875 55 27.8906 55.0234 27.8906 55.2969C27.8906 55.9062 28.1094 56.4062 28.5859 56.8828C28.9453 57.2422 29.1328 57.3594 29.4922 57.4609C30.1172 57.6484 30.6641 57.5859 31.2656 57.2812C31.5234 57.1406 31.75 57.0391 31.7578 57.0469C31.7656 57.0625 31.8828 57.2344 32.0156 57.4297C32.4688 58.0938 33.3594 58.5156 34.1094 58.4062C34.5312 58.3516 35.1797 58.0859 35.3516 57.8906C35.4688 57.7578 35.5 57.7734 35.8828 58.1562C36.3359 58.6094 36.6875 58.75 37.3594 58.75C38.0156 58.75 38.7266 58.3359 39.0469 57.7656C39.0938 57.6719 39.2578 57.7344 39.9219 58.0938C40.9609 58.6484 41.4922 58.7891 42.0625 58.6719C43.0156 58.4766 43.8281 57.6016 43.8281 56.7734V56.5078L44.3984 56.4688C45.6641 56.3828 46.6406 55.4531 46.7734 54.2031L46.8125 53.7891L47.3438 53.7812C48.3125 53.7734 49.1641 53.2109 49.5781 52.3047C49.6797 52.0859 49.7656 51.7422 49.7734 51.5391L49.7891 51.1719H50.4219C50.9531 51.1719 51.125 51.1406 51.5234 50.9453C52.3594 50.5547 52.9688 49.6406 52.9688 48.7891V48.4453L53.3047 48.5938C53.9609 48.8906 54.2578 48.8281 58.5312 47.4219C58.8125 47.3281 59.1797 47.1406 59.3359 47.0078C59.6953 46.7188 60 46.0938 60 45.6562C60 45.2578 56.4688 34.3047 56.2266 33.9219C55.9141 33.4531 55.2891 33.125 54.7109 33.125C54.5703 33.125 53.9219 33.2969 53.2656 33.5078C52.6094 33.7109 51.9922 33.9062 51.8984 33.9375L51.7188 33.9922V31.5625C51.7188 29.6562 51.6953 29.0781 51.6094 28.8828C51.5469 28.7422 49.8984 27.0391 47.7969 24.9375L44.1016 21.25H36.7969C30.2891 21.2578 29.4688 21.2734 29.2578 21.3828ZM43.2031 25.9141C43.2109 28.8438 43.2266 29.3594 43.3281 29.4922C43.4375 29.6406 43.5625 29.6484 46.9375 29.6875L50.4297 29.7266V32.0703V34.4062L50.0391 34.5469C49.5 34.7422 48.9531 35.3281 48.8281 35.8516C48.7266 36.2734 48.7578 36.4922 49 37.25C49.0859 37.5234 49.1406 37.7656 49.1172 37.7812C49.0156 37.8828 48.1875 38.0469 47.7578 38.0469C47.3203 38.0469 47.1953 38.0078 46.4609 37.6172C45.0547 36.875 43.8516 36.5703 42.8438 36.7109C42.4375 36.7734 41.25 37.1328 40.5 37.4297C40.2812 37.5156 40.1797 37.4922 39.3672 37.1641C38.875 36.9688 38.1484 36.7188 37.7422 36.6016C37.1016 36.4141 36.9062 36.3906 36.2578 36.4219C35.3281 36.4688 34.2734 36.8047 33.3125 37.3594C32.5469 37.7969 32.1641 37.8672 31.4453 37.7188C30.9062 37.6016 30.9141 37.6094 31.1328 36.8047C31.2109 36.4922 31.2422 36.2031 31.2109 36.0312C31.0859 35.3594 30.6016 34.7891 29.9609 34.5547L29.5703 34.4062L29.5469 28.6406C29.5312 23.5625 29.5469 22.8438 29.6484 22.6797L29.7656 22.5H36.4844H43.2031V25.9141ZM46.9922 25.9375L49.4922 28.4375H46.9688H44.4531V25.9375C44.4531 24.5625 44.4609 23.4375 44.4766 23.4375C44.4844 23.4375 45.6172 24.5625 46.9922 25.9375ZM27.5312 35.0703C28.7188 35.4531 29.7266 35.7969 29.7656 35.8203C29.8125 35.8516 29.8906 35.9688 29.9297 36.0781C29.9922 36.2422 29.7188 37.1641 28.2422 41.75C26.9922 45.6094 26.4219 47.2656 26.3125 47.3594C26.2266 47.4375 26.0703 47.5 25.9609 47.5C25.6328 47.5 21.6172 46.1641 21.4219 45.9922C21.3281 45.9062 21.25 45.7656 21.25 45.6797C21.25 45.5938 22.0391 43.0781 23.0078 40.0859C24.7969 34.5625 24.875 34.375 25.2344 34.375C25.3125 34.375 26.3438 34.6875 27.5312 35.0703ZM55.0703 34.5078C55.1875 34.6094 55.7109 36.1484 56.9922 40.0938C57.9609 43.0859 58.75 45.5859 58.75 45.6562C58.75 45.9922 58.4219 46.1484 56.3125 46.8281C55.1719 47.1953 54.1328 47.5 54 47.5C53.875 47.5 53.7188 47.4375 53.6562 47.3594C53.5859 47.2891 52.7344 44.7656 51.7656 41.75C50.2812 37.1641 50.0078 36.2422 50.0703 36.0781C50.1094 35.9688 50.1797 35.8516 50.2266 35.8281C50.3828 35.7266 54.5781 34.3828 54.7344 34.375C54.8281 34.375 54.9766 34.4375 55.0703 34.5078ZM37.8125 37.9375C38.2891 38.0859 38.6719 38.2188 38.6719 38.2344C38.6719 38.2422 38.2734 38.4922 37.7812 38.7812C36.4609 39.5703 35.3281 40.4531 34.1562 41.6016C32.9375 42.7969 32.9453 42.7734 33.4609 43.8125C33.9219 44.7578 34.625 45.4766 35.2656 45.6641C35.5703 45.7578 35.8594 45.7812 36.1094 45.7578C36.3203 45.7266 37.9688 45.2188 39.7656 44.6172L43.0391 43.5312L44.0703 43.875C46.2422 44.6016 48.1953 45.6016 50.3516 47.0938C51.1484 47.6406 51.3828 47.8594 51.5703 48.2188C51.7656 48.6016 51.7578 48.9531 51.5391 49.3281C51.3203 49.7109 50.9375 49.9219 50.4453 49.9219C50.1016 49.9219 49.8125 49.7891 47.5547 48.5781C45.9453 47.7188 44.9609 47.2422 44.8125 47.2422C44.5391 47.2422 44.2188 47.5703 44.2188 47.8516C44.2188 48.1797 44.5312 48.4062 46.25 49.3047C47.1719 49.7891 48.0391 50.2969 48.1719 50.4297C48.6562 50.9062 48.6719 51.6094 48.2031 52.1406C47.9375 52.4375 47.3984 52.625 47.0547 52.5391C46.9375 52.5156 46.0469 52.0703 45.0781 51.5547C44.1094 51.0391 43.2266 50.5938 43.1094 50.5703C42.9453 50.5391 42.8438 50.5781 42.6562 50.7656C42.1641 51.2578 42.3594 51.5156 43.7969 52.2812C44.4375 52.625 45.0703 53.0156 45.2109 53.1641C45.9062 53.8906 45.3984 55.1172 44.3672 55.2188C44.0078 55.25 43.9062 55.2109 42.2734 54.3438C40.4453 53.375 40.1562 53.2891 39.8828 53.5938C39.7109 53.7812 39.6875 54.2266 39.8359 54.4062C39.8906 54.4688 40.4766 54.8125 41.1406 55.1641C42.4531 55.8594 42.5781 55.9844 42.5781 56.5469C42.5781 56.9141 42.3516 57.2422 41.9766 57.3906C41.6406 57.5391 41.4453 57.4844 40.5625 57.0078C40.0156 56.7188 39.8438 56.5938 39.8828 56.5C40.2969 55.4062 39.8672 54.3047 38.8281 53.8359C38.375 53.6328 37.7266 53.625 37.2969 53.8203L36.9688 53.9688L36.8281 53.6641C36.5703 53.0859 35.8359 52.5703 35.1094 52.4531C34.6641 52.3828 33.9766 52.5469 33.5781 52.8125L33.2422 53.0391L33.1328 52.8281C32.8516 52.2734 31.9844 51.6484 31.4844 51.6406C31.1797 51.6406 31.125 51.5547 31.0703 51.1016C30.9766 50.3203 30.5078 49.6406 29.8203 49.2891C29.5938 49.1719 29.2812 49.1016 28.8125 49.0703C28.1719 49.0234 28.1172 49.0078 27.8594 48.7578C27.4688 48.3828 27.375 48.125 27.5312 47.8281C27.6016 47.6953 28.2891 45.625 29.0703 43.2266C29.8516 40.8281 30.5 38.8438 30.5156 38.8203C30.5312 38.7969 30.7266 38.8203 30.9531 38.8828C31.1797 38.9453 31.7031 39.0078 32.1172 39.0078C32.8203 39.0234 32.8906 39.0078 33.3281 38.7734C35.5312 37.5703 36.2578 37.4297 37.8125 37.9375ZM44.4375 38.1016C45 38.2578 45.4609 38.4688 46.2031 38.8984C46.8047 39.2422 46.8438 39.2578 47.5703 39.2812C48.1328 39.2969 48.4688 39.2656 48.9062 39.1562C49.2266 39.0703 49.5156 39.0234 49.5469 39.0469C49.6172 39.1172 52.0469 46.6484 52.0156 46.6875C52 46.7031 51.6875 46.5 51.3281 46.2422C49.5938 45.0156 47.2656 43.7344 45.5938 43.0859C44.6328 42.7188 43.2188 42.2656 43.0156 42.2656C42.9453 42.2656 41.3359 42.7812 39.4375 43.4062C36.8984 44.2422 35.9297 44.5312 35.7578 44.5C35.3906 44.4297 35.1016 44.1641 34.7734 43.6172C34.4766 43.1172 34.4688 43.0938 34.5938 42.9062C34.7891 42.6094 36.1875 41.3906 37.0703 40.7422C38.4609 39.7266 39.9453 38.9531 41.6172 38.3594C42.9375 37.8828 43.4844 37.8359 44.4375 38.1016ZM29.3594 50.4688C29.6406 50.6406 29.8438 51.0312 29.8438 51.3984C29.8438 51.7188 28.6875 53.4609 28.3672 53.625C27.8203 53.9141 27.2188 53.7031 26.9453 53.1406C26.8047 52.8672 26.7891 52.75 26.8516 52.5078C26.9453 52.1406 28.0547 50.5234 28.2969 50.4062C28.5859 50.2734 29.0781 50.2969 29.3594 50.4688ZM31.6641 53.0234C32 53.1875 32.2188 53.7344 32.1172 54.125C32 54.5312 30.9844 55.9922 30.6797 56.1797C29.9844 56.6016 29.0938 56.0469 29.1641 55.2344C29.1875 54.9531 29.3047 54.7109 29.7422 54.0625C30.0469 53.6094 30.3672 53.1797 30.4531 53.1016C30.7734 52.8125 31.1953 52.7891 31.6641 53.0234ZM35.1797 53.7812C35.625 53.9688 35.8203 54.2578 35.8203 54.7266C35.8203 55.1172 35.7812 55.1953 35.2344 56.0078C34.5625 57 34.2344 57.25 33.7266 57.1562C33.1172 57.0391 32.7266 56.4375 32.8984 55.8594C32.9375 55.7109 33.2266 55.2188 33.5391 54.7656C34.25 53.7266 34.5859 53.5234 35.1797 53.7812ZM38.3906 55.0078C38.6328 55.125 38.8359 55.5312 38.7734 55.7891C38.7031 56.0547 37.8438 57.3203 37.6641 57.4219C37.4609 57.5312 37.0234 57.5156 36.8672 57.3984C36.6875 57.2656 36.5625 56.9922 36.5625 56.7578C36.5625 56.5312 37.3984 55.2344 37.6719 55.0469C37.8828 54.8984 38.125 54.8906 38.3906 55.0078Z" fill="#29594B"/>
<path d="M38.6339 24.8589C38.3917 24.9917 38.2823 25.1636 38.2823 25.4292C38.2823 25.6479 38.2432 25.687 37.8604 25.8511C37.2432 26.1011 36.7745 26.5542 36.4698 27.1714C36.2354 27.6401 36.212 27.7573 36.212 28.3979C36.212 29.0073 36.2432 29.1636 36.4307 29.5464C36.7042 30.1011 37.3761 30.7261 37.8995 30.9136L38.2823 31.0542V32.4761C38.2823 33.2651 38.2589 33.9057 38.2354 33.9057C38.212 33.9057 38.087 33.8354 37.9698 33.7495C37.7042 33.562 37.4229 33.0073 37.4229 32.687C37.4229 32.0073 36.5557 31.7261 36.2511 32.3042C36.1104 32.5698 36.1964 33.2495 36.4464 33.7729C36.7042 34.3198 37.3682 34.9448 37.8995 35.1323C38.2511 35.2573 38.2823 35.2964 38.2823 35.5151C38.2823 35.6479 38.3526 35.8511 38.4464 35.9682C38.7901 36.4057 39.5323 36.1089 39.5323 35.5307C39.5323 35.2886 39.5636 35.2573 39.9151 35.1323C40.4386 34.9448 41.1104 34.3198 41.3839 33.7651C41.5714 33.3823 41.6026 33.2261 41.6026 32.6167C41.6026 32.0151 41.5714 31.8511 41.3917 31.4682C41.0636 30.7729 40.4464 30.2339 39.6729 29.9761C39.5479 29.9292 39.5323 29.7886 39.5323 28.4761C39.5323 27.1167 39.5401 27.0307 39.6729 27.1011C40.0401 27.3042 40.3917 27.9057 40.3917 28.3589C40.3917 28.9136 41.0636 29.1792 41.462 28.7807C41.6417 28.5932 41.6573 28.5386 41.6182 28.1089C41.5323 27.1323 40.8682 26.2261 39.9542 25.8511C39.6182 25.7104 39.5323 25.6401 39.5323 25.4995C39.5323 25.2182 39.3761 24.9448 39.1651 24.8511C38.9307 24.7417 38.837 24.7495 38.6339 24.8589ZM38.2511 29.6714C38.1651 29.7495 37.7354 29.3432 37.587 29.0386C37.2823 28.4136 37.4464 27.6792 37.9776 27.2339L38.2432 27.0073L38.2667 28.3198C38.2745 29.0386 38.2667 29.6479 38.2511 29.6714ZM39.9776 31.5776C40.3995 32.0229 40.5011 32.6948 40.2276 33.2573C40.087 33.5464 39.7276 33.9057 39.5792 33.9057C39.5557 33.9057 39.5323 33.3042 39.5323 32.5776C39.5323 31.3276 39.5401 31.2495 39.6729 31.3198C39.7432 31.3589 39.8839 31.4761 39.9776 31.5776Z" fill="#29594B"/>
<path d="M27.7331 36.3047C27.6706 36.3281 27.5378 36.4219 27.444 36.5078C27.0534 36.8594 27.3503 37.5 27.8893 37.5C28.4284 37.5 28.694 36.9297 28.3425 36.5312C28.1472 36.3281 27.9206 36.2422 27.7331 36.3047Z" fill="#29594B"/>
<path d="M51.8197 36.2491C51.4525 36.3975 51.3666 36.9678 51.6635 37.2491C51.976 37.5381 52.4291 37.4678 52.6244 37.1006C52.765 36.8194 52.7025 36.5303 52.4447 36.3272C52.226 36.1553 52.0854 36.1397 51.8197 36.2491Z" fill="#29594B"/>
</g>
<defs>
<clipPath id="clip0_499_5588">
<rect width="40" height="40" fill="white" transform="translate(20 20)"/>
</clipPath>
</defs>
</svg>