<svg xmlns:xlink="http://www.w3.org/1999/xlink" xmlns="http://www.w3.org/2000/svg" width="80" height="80" viewBox="0 0 80 80" fill="none">
<rect x="0.5" y="0.5" width="79" height="79" rx="19.5" fill="#CFFF45"/>
<rect x="0.5" y="0.5" width="79" height="79" rx="19.5" stroke="#29594B"/>
<g clip-path="url(#clip0_656_926)">
<g clip-path="url(#clip1_656_926)">
<path d="M42.4562 20.0389C42.3938 20.0545 42.0741 20.1091 41.7545 20.1559C39.7428 20.4834 37.7467 21.7231 36.4445 23.4541C35.8441 24.2495 35.2593 25.4502 34.9942 26.4327C34.8071 27.1345 34.7837 27.345 34.7837 28.5769C34.7837 29.8089 34.8071 30.0194 34.9942 30.7212C35.6336 33.115 37.2944 35.1578 39.4932 36.2729C40.1482 36.6081 41.2398 36.959 42.004 37.076C42.8773 37.2163 44.5849 37.1384 45.4192 36.92C46.9162 36.5224 48.117 35.8518 49.2554 34.7524C50.4016 33.653 51.2203 32.2573 51.6336 30.7212C51.8207 30.0194 51.8441 29.8089 51.8441 28.5769C51.8441 27.3528 51.8207 27.1345 51.6336 26.4561C50.7837 23.2748 48.273 20.8732 45.0761 20.1871C44.5693 20.0779 42.7291 19.9688 42.4562 20.0389ZM45.0683 21.7933C48.0546 22.5653 50.1599 25.1695 50.3081 28.2651C50.5498 33.3489 45.5049 36.959 40.7252 35.1189C38.5966 34.2923 36.9123 32.2962 36.4445 30.0194C35.6492 26.1754 38.1755 22.4093 42.043 21.6764C42.8617 21.5204 44.2418 21.575 45.0683 21.7933Z" fill="#29594B"/>
<path d="M42.7525 23.2515C42.464 23.4309 42.3782 23.6648 42.3782 24.2808C42.3782 24.8032 42.3704 24.8188 42.1365 24.9123C42.004 24.9669 41.7311 25.1775 41.5283 25.3802C40.3821 26.4874 40.6862 28.3977 42.1209 29.1151C42.3003 29.2008 42.6901 29.31 42.9786 29.3568C43.4231 29.4114 43.5478 29.466 43.7272 29.6687C43.9611 29.9338 43.9923 30.1911 43.8207 30.5264C43.54 31.0722 42.8227 31.0488 42.3003 30.4874C41.8558 30.0118 41.3334 29.9494 40.9669 30.3392C40.7018 30.62 40.7174 31.0332 41.0059 31.4075C41.232 31.7038 42.0819 32.3198 42.2613 32.3198C42.3315 32.3198 42.3704 32.5069 42.386 32.9903C42.4172 33.6063 42.4328 33.6687 42.6355 33.848C42.7837 33.9728 42.9474 34.0352 43.158 34.0352C43.3685 34.0352 43.5322 33.9728 43.6804 33.848C43.8831 33.6765 43.8987 33.6063 43.9221 32.9981C43.9533 32.3821 43.9689 32.3276 44.1248 32.2886C44.2262 32.2652 44.4679 32.1014 44.6706 31.9221C46.1833 30.5888 45.4816 28.1638 43.4932 27.8597C42.8305 27.7584 42.6278 27.6648 42.4874 27.3919C42.3081 27.0488 42.3548 26.7915 42.6433 26.503C43.0254 26.1209 43.4309 26.1677 44.0391 26.6745C44.5927 27.1346 45.4582 26.6277 45.3022 25.926C45.2398 25.6531 44.7642 25.2008 44.2886 24.9747L43.9377 24.8032V24.2652C43.9377 23.6726 43.8051 23.3451 43.4932 23.2047C43.2359 23.0878 43.002 23.1034 42.7525 23.2515Z" fill="#29594B"/>
<path d="M55.9378 36.7485C55.3296 36.9512 54.9319 37.2475 54.0352 38.1832C53.6064 38.6198 52.507 39.7504 51.5947 40.6861L49.9339 42.3937L49.583 42.0662C49.1308 41.6452 48.507 41.3645 47.852 41.2787C47.5635 41.2475 45.4037 41.2163 43.0489 41.2085H38.7682L38.043 40.9746C36.9436 40.6237 36.0937 40.499 34.815 40.499C32.6161 40.499 30.8462 41.0058 29.1386 42.113C28.2653 42.6822 27.0879 43.8596 26.5265 44.7251L26.0898 45.3957L25.544 45.4347C24.6161 45.5048 24.468 45.614 22.1678 47.9142L20.0781 49.9961V50.3625V50.7368L24.5694 55.2748C27.0411 57.7621 29.1386 59.844 29.2321 59.8986C29.4504 60.0234 29.7078 60.0234 29.9651 59.8908C30.082 59.8284 31.1113 58.8382 32.2497 57.6842C34.62 55.2982 34.62 55.2904 34.5733 54.1676L34.5421 53.5672L35.1347 53.0214C36.0781 52.1403 35.5869 52.2027 41.9885 52.2027C45.3647 52.2027 47.7428 52.1715 48.1405 52.1247C49.4504 51.9532 50.7838 51.384 51.7896 50.5497C52.3666 50.074 59.5089 41.5048 59.735 41.0136C59.8988 40.6783 59.9222 40.499 59.9222 39.7271C59.9222 38.9005 59.9066 38.7914 59.7039 38.3625C59.3998 37.731 58.8695 37.2007 58.2224 36.8966C57.5518 36.5848 56.6239 36.5224 55.9378 36.7485ZM57.6142 38.3469C58.121 38.6354 58.3861 39.0331 58.4251 39.5555C58.4485 39.8518 58.4173 40.1013 58.3393 40.2885C58.1912 40.6393 51.6181 48.538 50.9163 49.2085C50.3471 49.7543 49.622 50.1598 48.7721 50.4171C48.1951 50.5965 48.1405 50.5965 42.1054 50.6432C37.8949 50.6744 35.9456 50.7134 35.774 50.7758C35.236 50.9629 34.581 51.3762 34.0586 51.8518L33.5128 52.3508L30.4641 49.2943L27.4076 46.2378L27.7818 45.653C29.2789 43.3294 31.7584 42.0584 34.7994 42.0584C35.9924 42.0584 36.7409 42.1754 37.6688 42.5107L38.2848 42.729L43.0801 42.768C47.8598 42.807 47.8754 42.807 48.2029 42.9785C49.3257 43.5789 49.3257 45.154 48.2029 45.7543C47.8832 45.9259 47.8208 45.9259 44.3042 45.9649L40.7253 46.0039L40.5382 46.2222C40.2731 46.5341 40.2887 46.9083 40.5772 47.228L40.8033 47.4853L44.0547 47.5087C47.5323 47.5321 48.1405 47.4931 48.8033 47.189C49.8871 46.69 50.7292 45.3255 50.6356 44.2183C50.6122 43.961 50.737 43.8128 53.2399 41.2319C54.7916 39.6413 56.0079 38.4483 56.1951 38.3391C56.6239 38.1052 57.2009 38.1052 57.6142 38.3469ZM29.5284 50.5419L33.0216 54.035V54.3859V54.7368L31.353 56.3898C30.4329 57.3021 29.6532 58.0506 29.6142 58.0506C29.583 58.0506 27.8286 56.3274 25.7311 54.23L21.9105 50.4093L23.6415 48.6783L25.3725 46.9551L25.7 47.0019C26.0196 47.0409 26.199 47.2124 29.5284 50.5419Z" fill="#29594B"/>
<path d="M37.4581 45.9257C37.0449 46.1518 36.9825 46.7444 37.3256 47.1109C37.6608 47.4696 38.3002 47.3994 38.5185 46.9706C38.9006 46.2298 38.1833 45.5281 37.4581 45.9257Z" fill="#29594B"/>
</g>
</g>
<defs>
<clipPath id="clip0_656_926">
<rect width="40" height="40" fill="white" transform="translate(20 20)"/>
</clipPath>
<clipPath id="clip1_656_926">
<rect width="39.922" height="40" fill="white" transform="translate(20 20)"/>
</clipPath>
</defs>
</svg>