<svg xmlns:xlink="http://www.w3.org/1999/xlink" xmlns="http://www.w3.org/2000/svg" width="80" height="80" viewBox="0 0 80 80" fill="none">
<rect x="0.5" y="0.5" width="79" height="79" rx="19.5" fill="#CFFF45"/>
<rect x="0.5" y="0.5" width="79" height="79" rx="19.5" stroke="#29594B"/>
<g clip-path="url(#clip0_656_918)">
<g clip-path="url(#clip1_656_918)">
<path d="M22.7032 20.3594C21.3672 20.6797 20.2969 21.8594 20.0625 23.2579C19.7579 25.0704 20.9532 26.8829 22.7422 27.3047C23.1485 27.3985 23.8672 27.4219 26.5391 27.4219H29.836L29.6485 27.7579C29.0938 28.7422 29.0938 30.1641 29.6485 31.1485L29.836 31.4844H28.6485C27.8672 31.4844 27.2891 31.5235 26.961 31.6016C25.6876 31.9063 24.6407 32.9532 24.336 34.2266C24.0469 35.4454 24.3282 36.5469 25.1719 37.461L25.5626 37.8907L25.1719 38.3204C23.9063 39.711 23.9063 41.7032 25.1719 43.086L25.5626 43.5157L25.1719 43.9454C23.8985 45.336 23.8985 47.3204 25.1719 48.711L25.5626 49.1407L25.1719 49.5704C24.3282 50.4844 24.0469 51.586 24.336 52.8047C24.6407 54.0782 25.6876 55.1251 26.961 55.4297C27.3751 55.5235 28.2422 55.5469 32.211 55.5469H36.961L37.6797 56.1954C39.3672 57.7032 41 58.6407 42.9922 59.2188C47.6641 60.5782 52.6485 59.3047 56.1016 55.8594C60.5704 51.3985 61.2657 44.3751 57.75 39.1172C56.1407 36.7032 53.75 34.8672 50.9766 33.9063C50.3438 33.6876 50.2579 33.6329 50.0938 33.3594L49.9141 33.0469H51.0782C51.7188 33.0469 52.4375 33.0079 52.6641 32.9688C53.2891 32.8516 53.8907 32.5235 54.4219 32.0157C55.8829 30.6172 55.9063 28.3594 54.4766 26.9297C53.9844 26.4375 53.2813 26.0547 52.6641 25.9375C52.4297 25.8907 50.8204 25.8594 48.9688 25.8594H45.6954L45.8907 25.5235C46.3047 24.8125 46.4219 23.8907 46.211 22.9766C45.8985 21.6641 44.7422 20.5547 43.4454 20.3125C43.1797 20.2657 39.4454 20.2344 33.0938 20.2422C24.7813 20.25 23.086 20.2657 22.7032 20.3594ZM43.6329 22.0079C44 22.2032 44.3829 22.586 44.5782 22.9688C44.6797 23.1641 44.7266 23.4063 44.7266 23.8282C44.7266 24.25 44.6797 24.4922 44.5782 24.6875C44.3829 25.0704 44 25.4532 43.6329 25.6485L43.3204 25.8204H33.1641H23.0079L22.6954 25.6485C22.3282 25.4532 21.9454 25.0704 21.75 24.6875C21.6485 24.4922 21.6016 24.25 21.6016 23.8282C21.6016 23.1797 21.7188 22.8829 22.1407 22.4375C22.3907 22.1719 22.6954 21.9766 23.0469 21.8672C23.1563 21.836 27.7579 21.8125 33.2813 21.8204L43.3204 21.836L43.6329 22.0079ZM52.8516 27.6329C53.2188 27.8282 53.6016 28.211 53.7969 28.5938C53.8985 28.7891 53.9454 29.0313 53.9454 29.4532C53.9454 29.8751 53.8985 30.1172 53.7969 30.3126C53.6016 30.6954 53.2188 31.0782 52.8516 31.2735L52.5391 31.4454H42.3829H32.2266L31.9141 31.2735C31.5469 31.0782 31.1641 30.6954 30.9688 30.3126C30.8672 30.1172 30.8204 29.8751 30.8204 29.4532C30.8204 28.8047 30.9375 28.5079 31.3594 28.0626C31.6094 27.7969 31.9141 27.6016 32.2657 27.4922C32.375 27.461 36.9766 27.4375 42.5 27.4454L52.5391 27.461L52.8516 27.6329ZM47.5 33.1251C47.625 33.1641 47.4063 33.1876 46.875 33.1954C43.461 33.2344 40.5079 34.3282 37.9766 36.5079L37.2657 37.1172L32.25 37.0938C27.2735 37.0704 27.2266 37.0704 26.9141 36.8985C26.5469 36.7032 26.1641 36.3204 25.9688 35.9376C25.8672 35.7422 25.8204 35.5001 25.8204 35.0782C25.8204 34.4297 25.9376 34.1329 26.3594 33.6876C26.6094 33.4219 26.9141 33.2266 27.2657 33.1172C27.5235 33.0391 47.25 33.0469 47.5 33.1251ZM49.0235 35.0001C53.7032 35.9844 57.2032 39.4922 58.211 44.2188C58.3594 44.8985 58.3907 45.2813 58.3907 46.4844C58.3907 47.6876 58.3594 48.0704 58.211 48.7501C57.2032 53.4922 53.7266 56.9688 48.9844 57.9766C47.8047 58.2344 45.6329 58.2344 44.4532 57.9766C42.0391 57.461 40.0547 56.3829 38.3829 54.6797C37.6172 53.8907 37.4766 53.7266 36.9766 52.9688C36.1329 51.711 35.5625 50.336 35.2266 48.7501C34.9922 47.6641 34.9688 45.4844 35.1797 44.4141C35.9063 40.7032 38.1954 37.6641 41.5235 36.0001C42.6797 35.4141 43.9454 35.0313 45.3125 34.8438C46.1407 34.7266 48.1329 34.8126 49.0235 35.0001ZM35.9375 38.7032C35.9375 38.711 35.7813 38.9688 35.5782 39.2657C35.1016 40.0001 34.5313 41.1407 34.2188 42.0157L33.961 42.7422L30.5938 42.7188C27.3125 42.6954 27.2188 42.6876 26.9141 42.5235C26.5469 42.3282 26.1641 41.9454 25.9688 41.5626C25.8672 41.3672 25.8204 41.1251 25.8204 40.7032C25.8204 40.0547 25.9376 39.7579 26.3594 39.3126C26.6094 39.0469 26.9141 38.8516 27.2657 38.7422C27.4532 38.6876 35.9375 38.6407 35.9375 38.7032ZM33.5391 44.8594C33.461 45.5547 33.461 47.7579 33.5391 48.1094L33.5938 48.3672L30.4063 48.3438C27.3204 48.3204 27.2188 48.3126 26.9141 48.1485C26.5469 47.9532 26.1641 47.5704 25.9688 47.1876C25.8672 46.9922 25.8204 46.7501 25.8204 46.3282C25.8204 45.6797 25.9376 45.3829 26.3594 44.9376C26.6094 44.6719 26.9141 44.4766 27.2657 44.3672C27.3751 44.336 28.8438 44.3047 30.5313 44.3047L33.6016 44.2969L33.5391 44.8594ZM34.1329 50.6797C34.4141 51.5547 34.9063 52.6094 35.375 53.3829C35.5547 53.6719 35.7032 53.9297 35.7032 53.9532C35.7032 53.9688 33.7969 53.9766 31.4688 53.9688C27.2891 53.9454 27.2188 53.9454 26.9141 53.7735C26.5469 53.5782 26.1641 53.1954 25.9688 52.8126C25.8672 52.6172 25.8204 52.3751 25.8204 51.9532C25.8204 51.3047 25.9376 51.0079 26.3594 50.5626C26.6094 50.2969 26.9141 50.1016 27.2657 49.9922C27.3751 49.961 28.9063 49.9297 30.6719 49.9297L33.8829 49.9219L34.1329 50.6797Z" fill="#29594B"/>
<path d="M47.5078 36.4377C47.4062 36.4924 47.2734 36.6252 47.2187 36.7268C46.789 37.5081 47.7812 38.2659 48.4453 37.6721C48.6484 37.4846 48.6953 37.3909 48.6953 37.1096C48.6953 36.8284 48.6484 36.7346 48.4453 36.5471C48.1719 36.3049 47.8203 36.2659 47.5078 36.4377Z" fill="#29594B"/>
<path d="M50.2734 37.4453C50.1406 37.5547 50.0546 37.7266 50.0234 37.9297C49.9765 38.3125 50.1718 38.5938 50.6484 38.8438C52.7656 39.9141 54.4062 42.0078 55.0546 44.4375C55.2343 45.1094 55.2577 45.3438 55.2577 46.4844C55.2577 47.625 55.2343 47.8594 55.0546 48.5391C54.9452 48.9609 54.7187 49.5938 54.5624 49.9453C54.2031 50.75 54.1718 50.9375 54.3281 51.2344C54.4843 51.5312 54.6718 51.6406 55.0156 51.6406C55.4062 51.6406 55.6171 51.4453 55.8984 50.8203C57.1952 47.9844 57.1796 44.8203 55.8593 42.0703C54.9843 40.25 53.3906 38.5625 51.6171 37.5859C50.9374 37.2109 50.5859 37.1719 50.2734 37.4453Z" fill="#29594B"/>
<path d="M46.4376 40.0703C46.1407 40.1953 45.9376 40.5391 45.9376 40.9062C45.9376 41.1875 45.9142 41.25 45.797 41.25C45.5236 41.25 44.7189 41.7109 44.3439 42.0859C44.1329 42.2969 43.8595 42.6875 43.7189 42.9687C43.5001 43.4219 43.4767 43.5547 43.4767 44.1797C43.4767 44.8203 43.5001 44.9375 43.7267 45.3984C44.2345 46.4297 45.2189 47.0703 46.4767 47.1875C47.2814 47.2656 47.7736 47.4531 48.0704 47.8047C48.6407 48.4922 48.5001 49.3906 47.7267 49.8984C47.4298 50.0937 47.3282 50.1172 46.7111 50.1172C46.0782 50.1172 46.0079 50.1016 45.6876 49.8828C45.3126 49.6172 45.0001 49.1328 45.0001 48.8125C45.0001 48.2891 44.6486 47.9297 44.1564 47.9453C43.9376 47.9531 43.8126 48.0156 43.6486 48.2109C43.4298 48.4453 43.422 48.4922 43.4611 48.9453C43.5392 49.9531 44.1954 50.875 45.1798 51.3672C45.4767 51.5156 45.7736 51.6406 45.8282 51.6406C45.9064 51.6406 45.9376 51.7422 45.9376 51.9531C45.9376 52.3828 46.2579 52.7422 46.6564 52.7578C47.1564 52.7734 47.5001 52.4141 47.5001 51.8672C47.5001 51.7266 47.5392 51.6406 47.6095 51.6406C47.6642 51.6406 47.9611 51.5156 48.2579 51.3672C48.9142 51.0391 49.4532 50.4922 49.7501 49.8594C49.9298 49.4844 49.9611 49.3125 49.9611 48.7109C49.9611 48.1094 49.9298 47.9375 49.7501 47.5547C49.2657 46.5156 48.2892 45.8359 47.0548 45.6953C46.2032 45.5937 45.8907 45.5078 45.5548 45.25C45.2579 45.0312 45.0079 44.5312 45.0001 44.1641C44.9923 42.7734 47.1251 42.1562 48.0704 43.2734C48.2736 43.5234 48.3907 43.8125 48.4767 44.3125C48.5548 44.8125 49.1564 45.0859 49.6173 44.8437C50.2736 44.4922 50.0236 43.0859 49.1329 42.1484C48.7345 41.7266 47.9454 41.25 47.6407 41.25C47.5236 41.25 47.5001 41.1875 47.5001 40.8984C47.5001 40.3125 46.9298 39.8672 46.4376 40.0703Z" fill="#29594B"/>
<path d="M37.9219 41.5236C37.5625 41.8908 36.9844 43.3752 36.7422 44.5939C36.5547 45.5393 36.5547 47.5236 36.75 48.4299C37.1719 50.3986 37.9922 52.0002 39.2813 53.3674C40.3594 54.5236 41.9219 55.6018 42.6094 55.6799C43.0469 55.7346 43.3516 55.4924 43.4141 55.0393C43.461 54.6564 43.2656 54.3752 42.7891 54.1252C40.6719 53.0549 39.0313 50.9611 38.3828 48.5314C38.2031 47.8596 38.1797 47.6252 38.1797 46.4846C38.1797 45.3439 38.2031 45.1096 38.3828 44.4299C38.4922 44.008 38.7188 43.3752 38.875 43.0236C39.0313 42.6721 39.1719 42.2893 39.1953 42.1799C39.2422 41.9377 39.0469 41.5236 38.836 41.4064C38.5547 41.258 38.1328 41.3127 37.9219 41.5236Z" fill="#29594B"/>
<path d="M44.9922 55.2968C44.7891 55.4843 44.7422 55.578 44.7422 55.8593C44.7422 56.1405 44.7891 56.2343 44.9922 56.4218C45.3828 56.7733 46.0312 56.6639 46.2344 56.2108C46.6016 55.4061 45.6484 54.7108 44.9922 55.2968Z" fill="#29594B"/>
</g>
</g>
<defs>
<clipPath id="clip0_656_918">
<rect width="40" height="40" fill="white" transform="translate(20 20.0059)"/>
</clipPath>
<clipPath id="clip1_656_918">
<rect width="40" height="40" fill="white" transform="translate(20 20)"/>
</clipPath>
</defs>
</svg>