<svg xmlns:xlink="http://www.w3.org/1999/xlink" xmlns="http://www.w3.org/2000/svg" width="80" height="80" viewBox="0 0 80 80" fill="none">
<rect x="0.5" y="0.5" width="79" height="79" rx="19.5" fill="#CFFF45"/>
<rect x="0.5" y="0.5" width="79" height="79" rx="19.5" stroke="#29594B"/>
<g clip-path="url(#clip0_499_5536)">
<path d="M36.1008 20.1148C35.8821 20.232 35.7102 20.5211 35.7024 20.7633C35.7024 20.857 35.9055 21.4664 36.1633 22.1148L36.6243 23.2867H32.9602C30.2883 23.2867 29.2493 23.3102 29.1008 23.3805C28.8821 23.482 28.6711 23.8102 28.6711 24.0602C28.6711 24.1461 29.1946 25.568 29.843 27.2242C30.4914 28.8883 31.0149 30.2555 31.0149 30.2789C31.0149 30.3023 30.7414 30.318 30.4133 30.318C27.4914 30.318 24.7336 31.7633 23.0461 34.1617C22.3664 35.1227 22.2571 35.9586 22.6946 36.8414C23.2961 38.068 24.8586 38.4898 26.0461 37.7398C26.2493 37.607 26.5696 37.2789 26.7961 36.9664C27.6789 35.7555 28.7336 35.1383 30.1086 35.0289L30.7336 34.982L30.5461 35.2867C30.4368 35.4508 28.6868 38.1227 26.6477 41.2164C24.6086 44.3102 22.7649 47.1773 22.5618 47.5836C20.9133 50.8727 21.5227 54.7398 24.1008 57.3883C25.2493 58.568 26.5383 59.3102 28.1946 59.7477C28.8821 59.9352 29.1086 59.9508 30.9993 59.9898C32.5305 60.0133 33.1086 59.9977 33.2883 59.9273C33.5383 59.818 33.7493 59.4977 33.7493 59.2242C33.7493 58.9586 33.5383 58.6305 33.3039 58.5367C33.1711 58.482 32.2727 58.4352 31.093 58.4195C28.843 58.3883 28.4289 58.3102 27.2414 57.7555C23.7649 56.1148 22.2336 51.9039 23.8664 48.4508C24.0227 48.1305 26.0461 44.982 28.3743 41.443L32.6086 35.0055H36.4836H40.3586L44.593 41.443C46.9211 44.982 48.9446 48.1305 49.1008 48.4508C49.5618 49.4352 49.7102 50.1227 49.718 51.3727C49.718 52.1539 49.6789 52.6148 49.5852 52.9977C48.9446 55.568 47.0227 57.5367 44.4914 58.2164C43.9446 58.3648 43.6086 58.3961 41.8743 58.4195C40.6946 58.4352 39.7961 58.482 39.6633 58.5367C39.4289 58.6305 39.218 58.9586 39.218 59.2242C39.218 59.4977 39.4289 59.818 39.6789 59.9273C39.8586 59.9977 40.4368 60.0133 41.968 59.9898C43.8586 59.9508 44.0852 59.9352 44.7727 59.7477C46.4055 59.318 47.7024 58.5758 48.8352 57.4273L49.4993 56.7477L50.2883 56.7008C52.3743 56.5602 54.343 55.6695 55.8274 54.193C58.4446 51.568 59.093 47.5992 57.4368 44.3023C57.2258 43.8961 55.2571 40.8258 53.0539 37.482L49.0461 31.3961L49.3586 31.1305C49.7493 30.7945 50.0696 30.1617 50.1321 29.5992C50.2102 28.8102 49.7961 27.8883 49.1789 27.4898C49.0305 27.3883 48.9055 27.2711 48.9055 27.232C48.9055 27.1852 49.4524 25.7555 50.1164 24.0445C50.7805 22.3336 51.3274 20.8648 51.3274 20.7867C51.3274 20.5289 51.1477 20.232 50.9289 20.1148C50.6164 19.9586 36.3899 19.9586 36.1008 20.1148ZM49.3743 21.607C49.3743 21.6852 47.3274 26.9195 47.2727 26.982C47.2414 27.0133 46.3118 27.0289 45.218 27.0211L43.2102 26.9977L43.7571 25.607C44.0539 24.8414 44.2961 24.1383 44.2961 24.0602C44.2961 23.8102 44.0852 23.482 43.8664 23.3805C43.7258 23.3102 42.8977 23.2867 40.9758 23.2867H38.2883L37.9758 22.4664C37.7961 22.0133 37.6555 21.6227 37.6555 21.607C37.6555 21.5836 40.2961 21.568 43.5149 21.568C46.7414 21.568 49.3743 21.5836 49.3743 21.607ZM42.3118 24.9898C42.2805 25.068 41.8118 26.2867 41.2649 27.7086L40.2649 30.2789H36.4836H32.7024L31.7024 27.7086C31.1555 26.2867 30.6868 25.068 30.6555 24.9898C30.6164 24.857 30.8586 24.8492 36.4836 24.8492C42.1086 24.8492 42.3508 24.857 42.3118 24.9898ZM48.1946 28.7086C48.7102 28.982 48.7102 29.7789 48.1946 30.0523C48.0149 30.1383 47.4211 30.1617 44.9993 30.1617C43.3664 30.1617 42.0305 30.1383 42.0305 30.0992C42.0305 30.068 42.1555 29.7164 42.3118 29.318L42.593 28.5992H45.2805C47.4602 28.5992 48.0149 28.6227 48.1946 28.7086ZM51.6243 38.1617C53.9524 41.7008 55.9758 44.8492 56.1321 45.1695C56.6086 46.1773 56.7415 46.8414 56.7415 48.1305C56.7415 49.0523 56.7102 49.3805 56.5696 49.8883C55.8977 52.3648 53.9524 54.3102 51.5305 54.9273C50.9602 55.068 50.5461 55.1227 50.5461 55.0523C50.5461 55.0367 50.6399 54.7867 50.7493 54.4898C51.6086 52.2086 51.4836 49.7398 50.4055 47.5836C50.1946 47.1773 48.2258 44.107 46.0227 40.7633L42.0149 34.6773L42.3274 34.4117C42.7961 34.0133 43.0774 33.3805 43.0852 32.7398C43.0852 32.4586 43.0539 32.1148 43.0227 31.9742L42.9524 31.7242H45.1711H47.3899L51.6243 38.1617ZM29.8743 32.3727C29.8508 32.6383 29.8586 32.9898 29.9055 33.1461L29.9836 33.4352L29.7024 33.482C27.9602 33.7633 26.6711 34.5289 25.6477 35.9039C25.4524 36.1617 25.218 36.4117 25.1321 36.4664C24.6243 36.7477 23.9836 36.357 23.9836 35.7633C23.9836 35.3023 25.218 33.857 26.1555 33.2242C27.2493 32.482 28.5227 32.0211 29.8274 31.8883C29.9055 31.8805 29.9133 31.9977 29.8743 32.3727ZM41.1321 31.9742C41.3586 32.0758 41.5618 32.4039 41.5618 32.6617C41.5618 32.9195 41.3586 33.2477 41.1321 33.3492C40.9836 33.4195 39.7649 33.443 36.4836 33.443C33.2024 33.443 31.9836 33.4195 31.8352 33.3492C31.2961 33.107 31.2805 32.2789 31.8039 31.9898C32.0618 31.8492 40.8196 31.8336 41.1321 31.9742Z" fill="#29594B"/>
<path d="M35.9271 39.913C35.7162 40.1005 35.6693 40.2021 35.6302 40.6239L35.5833 41.1161L35.1537 41.2802C34.5521 41.4989 33.8412 42.2255 33.5833 42.8583C33.3333 43.4989 33.3255 44.5536 33.5755 45.1083C33.8021 45.6083 34.3333 46.1005 35.0365 46.4599L35.6224 46.7646V48.7333V50.7099H35.4427C35.3412 50.7099 34.974 50.5692 34.6224 50.3974C34.2787 50.2255 33.9037 50.0849 33.7943 50.0849C33.6849 50.0849 33.4818 50.1864 33.3412 50.3114C33.013 50.6083 32.9818 51.0614 33.2787 51.3739C33.5521 51.6708 34.6458 52.1786 35.1537 52.2489L35.5833 52.3114L35.6302 52.8114C35.6693 53.2489 35.7162 53.3427 35.9271 53.538C36.2005 53.7802 36.4583 53.8114 36.7943 53.6396C37.1068 53.4755 37.1849 53.3036 37.1849 52.7411C37.1849 52.3583 37.2083 52.2567 37.3255 52.2255C38.3255 51.8896 39.1068 51.2333 39.5208 50.3817C40.349 48.6708 39.7552 46.8974 38.0912 46.1083C37.7474 45.9442 37.3958 45.788 37.3255 45.7646C37.2005 45.7177 37.1849 45.5692 37.1849 44.1864C37.1849 43.163 37.2083 42.663 37.2708 42.663C37.388 42.663 37.6615 42.8192 37.9115 43.0224C38.224 43.288 38.599 43.2724 38.9193 42.9833C39.1302 42.7958 39.1771 42.7021 39.1771 42.4286C39.1771 42.1317 39.1302 42.0614 38.8099 41.7646C38.4662 41.4599 37.9037 41.1786 37.4037 41.0692C37.2005 41.0224 37.1849 40.9911 37.1849 40.6239C37.1849 40.1474 37.099 39.9677 36.7943 39.8114C36.4583 39.6396 36.2005 39.6708 35.9271 39.913ZM35.6224 43.913C35.6224 44.9364 35.6146 45.0067 35.4896 44.9364C35.0208 44.6864 34.8177 44.1083 34.9974 43.5692C35.0912 43.2724 35.4271 42.8192 35.5521 42.8192C35.5912 42.8192 35.6224 43.3114 35.6224 43.913ZM37.7787 47.7099C38.349 48.1317 38.4818 49.0302 38.0833 49.7567C37.8724 50.1396 37.4505 50.5536 37.2708 50.5536C37.2083 50.5536 37.1849 50.0458 37.1849 48.9833V47.4208L37.3646 47.4677C37.4583 47.4989 37.6458 47.6083 37.7787 47.7099Z" fill="#29594B"/>
<path d="M36.1007 58.5527C35.421 58.9277 35.7101 60.0059 36.4835 60.0059C36.8819 60.0059 37.2647 59.623 37.2647 59.2324C37.2647 58.6465 36.6163 58.2637 36.1007 58.5527Z" fill="#29594B"/>
</g>
<defs>
<clipPath id="clip0_499_5536">
<rect width="40" height="40" fill="white" transform="translate(20 20.0059)"/>
</clipPath>
</defs>
</svg>