<svg xmlns:xlink="http://www.w3.org/1999/xlink" xmlns="http://www.w3.org/2000/svg" width="80" height="80" viewBox="0 0 80 80" fill="none">
<rect x="0.5" y="0.5" width="79" height="79" rx="19.5" fill="#CFFF45"/>
<rect x="0.5" y="0.5" width="79" height="79" rx="19.5" stroke="#29594B"/>
<g clip-path="url(#clip0_802_837)">
<g clip-path="url(#clip1_802_837)">
<path d="M39.25 20.1174C38.8828 20.219 31.3672 24.3284 31.0781 24.5862C30.75 24.883 31.0156 25.5471 31.4609 25.5471C31.5938 25.5471 33.1641 24.719 35.5859 23.383L39.4922 21.2112H40H40.5078L47.5781 25.133C51.4688 27.2815 55.2109 29.3596 55.8984 29.7424L57.1484 30.4299L48.5703 30.4534C43.8594 30.4612 36.1484 30.4612 31.4375 30.4534L22.8672 30.4299L26.1562 28.6096C27.9609 27.6096 29.4844 26.7346 29.5391 26.6721C29.8047 26.344 29.5156 25.7502 29.0859 25.758C28.8594 25.758 20.5 30.344 20.1719 30.6487C20.0078 30.7971 20 30.8674 20 31.9534C20 33.3674 20.0938 33.7346 20.6016 34.3049C21.0391 34.7815 21.5625 35.0549 22.2109 35.1252L22.6641 35.1799L23.6719 36.594L24.6797 38.008L24.6875 45.2034V52.4065L23.6562 53.8596L22.625 55.3127H21.8594C21 55.3127 20.7031 55.3987 20.375 55.7502C20.0469 56.1096 20 56.3362 20 57.6643C20 58.9846 20.0703 59.2893 20.4453 59.6252C20.8828 60.0237 19.7109 60.0002 40 60.0002C56.7734 60.0002 58.8672 59.9846 59.1172 59.883C59.8594 59.5705 59.9922 59.2268 60 57.6409C60 56.3362 59.9531 56.1096 59.625 55.7502C59.2969 55.3987 59 55.3127 58.1406 55.3127H57.375L56.3438 53.8596L55.3125 52.4065V45.2034L55.3203 38.008L56.3281 36.594L57.3359 35.1721L57.7109 35.1252C58.4688 35.0159 58.8438 34.844 59.3125 34.3752C59.9062 33.7815 60 33.4534 60 31.969C60 30.8518 60 30.844 59.7891 30.633C59.6641 30.5159 59.0938 30.1643 58.5156 29.844C57.9375 29.5315 53.7891 27.2346 49.3125 24.7502C43.7734 21.6799 41.0156 20.1955 40.7188 20.1174C40.1875 19.9768 39.7734 19.9768 39.25 20.1174ZM58.8281 32.3049C58.8281 33.1018 58.7188 33.4143 58.3125 33.719L58.0234 33.9455H39.9922H21.9609L21.75 33.7815C21.2891 33.4455 21.2109 33.2502 21.1875 32.4143L21.1562 31.6409H39.9922H58.8281V32.3049ZM30.4219 36.2112L29.6719 37.2659H27.625H25.5781L24.875 36.2737C24.4922 35.7268 24.1719 35.258 24.1562 35.219C24.1406 35.1877 25.7109 35.1565 27.6484 35.1565H31.1641L30.4219 36.2112ZM48.4219 36.6018L49.4531 38.0549V41.6955C49.4531 45.3284 49.4531 45.344 49.625 45.5237C49.8281 45.7424 50.1484 45.758 50.3984 45.5549L50.5859 45.4065L50.6094 41.9221L50.6328 38.4377H52.3828H54.1406V45.2346V52.0315H52.3828H50.625V49.9221C50.625 47.6955 50.6016 47.508 50.2578 47.3518C49.9922 47.2268 49.8906 47.2424 49.6562 47.4299L49.4531 47.5862V49.9846V52.383L48.4141 53.844L47.3828 55.3049H40H32.6172L31.5859 53.844L30.5469 52.383V45.219V38.0549L31.5781 36.6018L32.6016 35.1565H40H47.3984L48.4219 36.6018ZM55.8438 35.219C55.8359 35.258 55.5078 35.7268 55.125 36.2737L54.4219 37.2659H52.375H50.3281L49.5781 36.2112L48.8359 35.1565H52.3516C54.2891 35.1565 55.8594 35.1877 55.8438 35.219ZM29.375 45.2346V52.0315H27.6172H25.8594V45.2346V38.4377H27.6172H29.375V45.2346ZM30.4453 54.258L31.1719 55.2737L29.3672 55.2971C28.3828 55.3049 26.7812 55.3049 25.8281 55.2971L24.0859 55.2737L24.8203 54.2346L25.5625 53.2034L27.6406 53.219L29.7188 53.2424L30.4453 54.258ZM55.1797 54.2346L55.9141 55.2737L54.125 55.2971C53.1406 55.3049 51.5469 55.3049 50.5781 55.2971L48.8281 55.2737L49.3828 54.4924C49.6875 54.0627 50.0234 53.594 50.1328 53.4534L50.3203 53.2034H52.3828H54.4375L55.1797 54.2346ZM58.7891 57.6565V58.7893H40H21.2109L21.1875 57.7424C21.1797 57.1643 21.1875 56.6409 21.2031 56.5862C21.2344 56.5002 24.6562 56.4846 40.0156 56.5002L58.7891 56.5237V57.6565Z" fill="#29594B"/>
<path d="M38.6326 38.6406C36.2498 39.1719 34.3592 40.8906 33.6092 43.2031C32.6951 46.0156 33.8123 49.1484 36.3201 50.8125C37.4139 51.5391 38.617 51.8984 39.9998 51.8984C41.3748 51.8984 42.5857 51.5469 43.6795 50.8125C46.1873 49.1562 47.3045 46.0156 46.3904 43.2031C45.6873 41.0312 43.9764 39.375 41.7967 38.75C41.0076 38.5234 39.4139 38.4687 38.6326 38.6406ZM41.1951 39.8125C43.1873 40.25 44.8201 41.8281 45.367 43.8281C45.5311 44.4453 45.5545 45.8594 45.3982 46.4844C45.242 47.1406 44.6639 48.2656 44.242 48.7578C43.1014 50.0703 41.6873 50.7344 39.9998 50.7266C37.8357 50.7266 35.9842 49.5703 35.0389 47.6172C34.2732 46.0391 34.2732 44.3594 35.0389 42.7734C36.1248 40.5234 38.7342 39.2656 41.1951 39.8125Z" fill="#29594B"/>
<path d="M39.5938 40.6797C39.5234 40.7578 39.4531 40.9531 39.4219 41.1094C39.375 41.3672 39.3438 41.3984 39.0625 41.4453C38.5625 41.5312 38.0938 41.8828 37.8594 42.3516C37.6797 42.7188 37.6562 42.8516 37.6562 43.6094C37.6562 44.1484 37.6953 44.5547 37.7578 44.7109C38.0078 45.2891 38.6328 45.7812 39.1406 45.7812H39.375V46.7969C39.375 47.7578 39.3672 47.8125 39.2188 47.8125C39.0312 47.8125 38.8594 47.5547 38.7969 47.1719C38.6641 46.4141 37.6562 46.5078 37.6562 47.2734C37.6562 48.1328 38.3906 48.9844 39.1328 48.9844C39.3359 48.9844 39.3672 49.0156 39.4141 49.2969C39.4688 49.625 39.75 49.9219 40 49.9219C40.25 49.9219 40.5312 49.625 40.5859 49.2969C40.6328 49.0234 40.6641 48.9844 40.8438 48.9844C41.1641 48.9766 41.6641 48.7188 41.9062 48.4297C42.2734 48 42.3438 47.7344 42.3438 46.8125C42.3438 46.0547 42.3203 45.9219 42.1406 45.5547C41.9062 45.0859 41.4375 44.7344 40.9297 44.6484L40.625 44.5938V43.5859C40.625 42.8047 40.6484 42.5781 40.7266 42.5781C40.8984 42.5781 41.1719 42.9297 41.1719 43.1484C41.1719 43.4609 41.4844 43.7734 41.7969 43.7734C42.3516 43.7734 42.5156 43.1094 42.1406 42.3516C41.9062 41.8828 41.4375 41.5312 40.9375 41.4453C40.6562 41.3984 40.625 41.3672 40.5781 41.1094C40.5078 40.7031 40.3438 40.5469 40 40.5469C39.8203 40.5469 39.6641 40.6016 39.5938 40.6797ZM39.375 43.5938C39.375 44.4453 39.3594 44.6094 39.2578 44.6094C39.1953 44.6094 39.0703 44.5391 38.9844 44.4531C38.8516 44.3203 38.8281 44.1953 38.8281 43.6172C38.8281 43.0312 38.8516 42.9141 39 42.7578C39.3359 42.4062 39.375 42.5 39.375 43.5938ZM40.9688 45.9453C41.1641 46.0938 41.1719 46.1406 41.1719 46.7891C41.1719 47.5156 41.0625 47.8125 40.7734 47.8125C40.6328 47.8125 40.625 47.75 40.625 46.7969C40.625 46.2344 40.6562 45.7812 40.6953 45.7812C40.7266 45.7812 40.8516 45.8516 40.9688 45.9453Z" fill="#29594B"/>
<path d="M39.5236 23.5938C38.7502 23.7266 37.9533 24.3359 37.5705 25.0781C37.3049 25.6094 37.2736 26.6016 37.508 27.2266C37.7424 27.8594 38.383 28.5078 39.008 28.7344C39.6174 28.9609 40.383 28.9609 40.9924 28.7344C41.6174 28.5078 42.258 27.8594 42.4924 27.2266C42.7267 26.6016 42.6955 25.6094 42.4299 25.0859C41.8674 24.0078 40.6877 23.3984 39.5236 23.5938ZM40.6955 24.9062C40.8439 24.9766 41.0705 25.1719 41.2033 25.3359C41.3986 25.5781 41.4455 25.7188 41.4689 26.125C41.5314 27.0781 40.9377 27.7344 40.0002 27.7344C39.1252 27.7344 38.5158 27.1172 38.5158 26.25C38.5158 25.0781 39.6408 24.3906 40.6955 24.9062Z" fill="#29594B"/>
</g>
</g>
<defs>
<clipPath id="clip0_802_837">
<rect width="40" height="40" fill="white" transform="translate(20 20)"/>
</clipPath>
<clipPath id="clip1_802_837">
<rect width="40" height="40" fill="white" transform="translate(20 20)"/>
</clipPath>
</defs>
</svg>