<svg width="109" height="32" viewBox="0 0 109 32" fill="none" xmlns="http://www.w3.org/2000/svg">
<path d="M9.07102 0H15.826H22.5811L17.177 3.08801V11.387L22.5811 8.29902L24.7041 7.08588V0H31.6521V5.21101L28.3711 7.08588L26.2481 8.29902L20.8441 11.387L17.563 13.2619L17.177 13.4825V21.8091L24.7041 17.5079V11.773L31.6521 7.52702V15.633L28.3711 17.5079L20.8441 21.8091L17.563 23.6839L17.177 23.9045V31.1282H15.826H14.475V23.9045L14.089 23.6839L10.808 21.8091L3.28101 17.5079L0 15.633V7.52702L6.94802 11.773V17.5079L14.475 21.8091V13.4825L14.089 13.2619L10.808 11.387L5.40401 8.29902L3.28101 7.08588L0 5.21101V0H6.94802V7.08588L9.07102 8.29902L14.475 11.387V3.08801L9.07102 0Z" fill="white"/>
<path d="M6.94802 22.1951V27.9299L12.545 31.1282H8.87802L3.28101 27.9299L0 26.0551V17.949L6.94802 22.1951Z" fill="white"/>
<path d="M0 28.3711L4.82501 31.1282H0V28.3711Z" fill="white"/>
<path d="M24.7041 22.1951V27.9299L19.107 31.1282H22.7741L28.3711 27.9299L31.6521 26.0551V17.949L24.7041 22.1951Z" fill="white"/>
<path d="M31.6521 28.3711L26.8271 31.1282H31.6521V28.3711Z" fill="white"/>
<path fill-rule="evenodd" clip-rule="evenodd" d="M104.255 27.5147C104.652 27.6839 105.077 27.7685 105.532 27.7685C105.987 27.7685 106.413 27.6839 106.81 27.5147C107.206 27.3456 107.553 27.1123 107.851 26.8148C108.154 26.5115 108.39 26.1615 108.56 25.7649C108.729 25.3682 108.813 24.9424 108.813 24.4875C108.813 24.0325 108.729 23.6067 108.56 23.2101C108.39 22.8134 108.154 22.4664 107.851 22.1689C107.553 21.8656 107.206 21.6293 106.81 21.4602C106.413 21.291 105.987 21.2065 105.532 21.2065C105.077 21.2065 104.652 21.291 104.255 21.4602C103.858 21.6293 103.508 21.8656 103.205 22.1689C102.907 22.4664 102.674 22.8134 102.505 23.2101C102.336 23.6067 102.251 24.0325 102.251 24.4875C102.251 24.9424 102.336 25.3682 102.505 25.7649C102.674 26.1615 102.907 26.5115 103.205 26.8148C103.508 27.1123 103.858 27.3456 104.255 27.5147ZM106.6 27.0598C106.267 27.2056 105.911 27.2785 105.532 27.2785C105.147 27.2785 104.786 27.2056 104.447 27.0598C104.115 26.914 103.82 26.7127 103.564 26.4561C103.313 26.1994 103.115 25.9019 102.969 25.5636C102.829 25.2253 102.759 24.8666 102.759 24.4875C102.759 24.1083 102.829 23.7496 102.969 23.4113C103.115 23.073 103.313 22.7755 103.564 22.5189C103.82 22.2622 104.115 22.061 104.447 21.9152C104.786 21.7693 105.147 21.6964 105.532 21.6964C105.911 21.6964 106.267 21.7693 106.6 21.9152C106.938 22.061 107.233 22.2622 107.483 22.5189C107.74 22.7755 107.941 23.073 108.087 23.4113C108.233 23.7496 108.306 24.1083 108.306 24.4875C108.306 24.8666 108.233 25.2253 108.087 25.5636C107.941 25.9019 107.74 26.1994 107.483 26.4561C107.233 26.7127 106.938 26.914 106.6 27.0598ZM104.159 22.6064V26.3686H104.841V24.7762H105.646C105.874 24.7762 106.043 24.8345 106.153 24.9512C106.264 25.0678 106.32 25.2428 106.32 25.4761V25.9224C106.32 26.0215 106.323 26.109 106.328 26.1848C106.334 26.2548 106.343 26.3161 106.355 26.3686H107.046C107.034 26.2753 107.023 26.1936 107.011 26.1236C107.005 26.0478 107.002 25.9807 107.002 25.9224V25.3012C107.002 25.0328 106.921 24.8258 106.757 24.68C106.667 24.5993 106.558 24.5428 106.43 24.5103C106.852 24.3383 107.063 24.0478 107.063 23.6388C107.063 23.318 106.95 23.0672 106.722 22.8863C106.495 22.6997 106.18 22.6064 105.777 22.6064H104.159ZM104.841 24.2337V23.1751H105.742C105.952 23.1751 106.11 23.2188 106.215 23.3063C106.326 23.3938 106.381 23.525 106.381 23.7C106.381 23.8692 106.326 24.0004 106.215 24.0937C106.104 24.1871 105.946 24.2337 105.742 24.2337H104.841Z" fill="white"/>
<path d="M38.0521 11.7641V0.244114H40.1321V11.7641H38.0521ZM39.0441 7.14011V5.49211H45.5241V7.14011H39.0441ZM39.0441 1.89211V0.244114H45.9081V1.89211H39.0441Z" fill="white"/>
<path d="M47.3121 11.7641V3.60411H49.2801V5.57211H49.3281V11.7641H47.3121ZM49.3281 7.50811L49.1201 5.57211C49.3121 4.87878 49.6374 4.35078 50.0961 3.98811C50.5548 3.62545 51.1041 3.44411 51.7441 3.44411C51.9681 3.44411 52.1281 3.46545 52.2241 3.50811V5.41211C52.1708 5.39078 52.0961 5.38011 52.0001 5.38011C51.9041 5.36945 51.7868 5.36411 51.6481 5.36411C50.8694 5.36411 50.2881 5.53478 49.9041 5.87611C49.5201 6.21745 49.3281 6.76145 49.3281 7.50811Z" fill="white"/>
<path d="M56.7186 11.9241C55.8546 11.9241 55.0973 11.7428 54.4466 11.3801C53.8066 11.0174 53.3053 10.5161 52.9426 9.87611C52.5906 9.23611 52.4146 8.50011 52.4146 7.66811C52.4146 6.83611 52.5906 6.10545 52.9426 5.47611C53.3053 4.83611 53.8066 4.34011 54.4466 3.98811C55.0866 3.62545 55.8333 3.44411 56.6866 3.44411C57.4973 3.44411 58.2013 3.61478 58.7986 3.95611C59.3959 4.28678 59.8599 4.75611 60.1906 5.36411C60.5213 5.97211 60.6866 6.68145 60.6866 7.49211C60.6866 7.64145 60.6813 7.78011 60.6706 7.90811C60.6599 8.03611 60.6439 8.16411 60.6226 8.29211H53.6626V6.88411H59.0706L58.6546 7.26811C58.6546 6.50011 58.4786 5.92411 58.1266 5.54011C57.7746 5.15611 57.2839 4.96411 56.6546 4.96411C55.9719 4.96411 55.4279 5.19878 55.0226 5.66811C54.6279 6.13745 54.4306 6.81478 54.4306 7.70011C54.4306 8.57478 54.6279 9.24678 55.0226 9.71611C55.4279 10.1748 55.9986 10.4041 56.7346 10.4041C57.1613 10.4041 57.5346 10.3241 57.8546 10.1641C58.1746 10.0041 58.4093 9.75878 58.5586 9.42811H60.4626C60.1959 10.1961 59.7426 10.8041 59.1026 11.2521C58.4733 11.7001 57.6786 11.9241 56.7186 11.9241Z" fill="white"/>
<path d="M65.0421 11.9241C63.9114 11.9241 63.0101 11.6894 62.3381 11.2201C61.6661 10.7401 61.2981 10.0788 61.2341 9.23611H63.0741C63.1274 9.65211 63.3248 9.96678 63.6661 10.1801C64.0074 10.3934 64.4661 10.5001 65.0421 10.5001C65.5648 10.5001 65.9541 10.4201 66.2101 10.2601C66.4768 10.0894 66.6101 9.84945 66.6101 9.54011C66.6101 9.31611 66.5354 9.13478 66.3861 8.99611C66.2368 8.84678 65.9541 8.72411 65.5381 8.62811L64.2261 8.32411C63.3301 8.13211 62.6634 7.83345 62.2261 7.42811C61.7994 7.01211 61.5861 6.49478 61.5861 5.87611C61.5861 5.11878 61.8741 4.52678 62.4501 4.10011C63.0368 3.66278 63.8421 3.44411 64.8661 3.44411C65.8794 3.44411 66.6901 3.66278 67.2981 4.10011C67.9168 4.52678 68.2581 5.11878 68.3221 5.87611H66.4821C66.4288 5.54545 66.2581 5.29478 65.9701 5.12411C65.6928 4.95345 65.3088 4.86811 64.8181 4.86811C64.3594 4.86811 64.0128 4.94278 63.7781 5.09211C63.5434 5.23078 63.4261 5.43878 63.4261 5.71611C63.4261 5.92945 63.5168 6.11078 63.6981 6.26011C63.8794 6.39878 64.1834 6.52145 64.6101 6.62811L66.0181 6.94811C66.8181 7.12945 67.4208 7.44411 67.8261 7.89211C68.2421 8.34011 68.4501 8.86811 68.4501 9.47611C68.4501 10.2548 68.1514 10.8574 67.5541 11.2841C66.9568 11.7108 66.1194 11.9241 65.0421 11.9241Z" fill="white"/>
<path d="M69.5083 11.7641V0.244114H71.5243V11.7641H69.5083ZM75.2364 11.7641V6.61211C75.2364 6.11078 75.1083 5.73211 74.8523 5.47611C74.5963 5.22011 74.223 5.09211 73.7323 5.09211C73.3057 5.09211 72.9217 5.18811 72.5803 5.38011C72.2497 5.57211 71.9883 5.83878 71.7963 6.18011C71.615 6.52145 71.5243 6.91611 71.5243 7.36411L71.3163 5.41211C71.5937 4.81478 71.999 4.34011 72.5323 3.98811C73.0657 3.62545 73.7057 3.44411 74.4524 3.44411C75.3377 3.44411 76.0257 3.69478 76.5163 4.19611C77.0177 4.69745 77.2683 5.36411 77.2683 6.19611V11.7641H75.2364Z" fill="white"/>
<path d="M79.3596 11.7641V2.85211C79.3596 1.95611 79.6049 1.27345 80.0956 0.804113C80.5969 0.324114 81.3436 0.0841141 82.3356 0.0841141C82.5596 0.0841141 82.7463 0.0947806 82.8956 0.116114C83.0449 0.137447 83.1889 0.169447 83.3276 0.212113V1.89211C83.2529 1.86011 83.1569 1.83878 83.0396 1.82811C82.9223 1.80678 82.7889 1.79611 82.6396 1.79611C82.2129 1.79611 81.8929 1.90278 81.6796 2.11611C81.4769 2.31878 81.3756 2.61745 81.3756 3.01211V11.7641H79.3596ZM84.5916 11.7641V3.60411H86.6236V11.7641H84.5916ZM77.8876 5.28411V3.60411H85.2156V5.28411H77.8876ZM84.5596 2.37211V0.244114H86.6556V2.37211H84.5596Z" fill="white"/>
<path d="M91.8136 11.9241C90.9496 11.9241 90.1923 11.7428 89.5416 11.3801C88.9016 11.0174 88.4003 10.5161 88.0376 9.87611C87.6856 9.23611 87.5096 8.50011 87.5096 7.66811C87.5096 6.83611 87.6856 6.10545 88.0376 5.47611C88.4003 4.83611 88.9016 4.34011 89.5416 3.98811C90.1816 3.62545 90.9283 3.44411 91.7816 3.44411C92.5923 3.44411 93.2963 3.61478 93.8936 3.95611C94.4909 4.28678 94.9549 4.75611 95.2856 5.36411C95.6163 5.97211 95.7816 6.68145 95.7816 7.49211C95.7816 7.64145 95.7763 7.78011 95.7656 7.90811C95.7549 8.03611 95.7389 8.16411 95.7176 8.29211H88.7576V6.88411H94.1656L93.7496 7.26811C93.7496 6.50011 93.5736 5.92411 93.2216 5.54011C92.8696 5.15611 92.3789 4.96411 91.7496 4.96411C91.0669 4.96411 90.5229 5.19878 90.1176 5.66811C89.7229 6.13745 89.5256 6.81478 89.5256 7.70011C89.5256 8.57478 89.7229 9.24678 90.1176 9.71611C90.5229 10.1748 91.0936 10.4041 91.8296 10.4041C92.2563 10.4041 92.6296 10.3241 92.9496 10.1641C93.2696 10.0041 93.5043 9.75878 93.6536 9.42811H95.5576C95.2909 10.1961 94.8376 10.8041 94.1976 11.2521C93.5683 11.7001 92.7736 11.9241 91.8136 11.9241Z" fill="white"/>
<path d="M96.9702 11.7641V0.244114H98.9862V11.7641H96.9702Z" fill="white"/>
<path d="M106.63 11.7641V9.92411L106.79 9.95611C106.652 10.5534 106.316 11.0334 105.782 11.3961C105.249 11.7481 104.614 11.9241 103.878 11.9241C103.132 11.9241 102.481 11.7534 101.926 11.4121C101.382 11.0601 100.961 10.5694 100.662 9.94011C100.364 9.31078 100.214 8.56945 100.214 7.71611C100.214 6.85211 100.369 6.10011 100.678 5.46011C100.988 4.82011 101.42 4.32411 101.974 3.97211C102.54 3.62011 103.196 3.44411 103.942 3.44411C104.71 3.44411 105.345 3.63078 105.846 4.00411C106.348 4.36678 106.657 4.87345 106.774 5.52411L106.566 5.54011V0.244114H108.598V11.7641H106.63ZM104.47 10.2761C105.121 10.2761 105.638 10.0521 106.022 9.60411C106.417 9.14545 106.614 8.50545 106.614 7.68411C106.614 6.86278 106.417 6.22811 106.022 5.78011C105.628 5.33211 105.105 5.10811 104.454 5.10811C103.814 5.10811 103.297 5.33745 102.902 5.79611C102.508 6.24411 102.31 6.87878 102.31 7.70011C102.31 8.52145 102.508 9.15611 102.902 9.60411C103.297 10.0521 103.82 10.2761 104.47 10.2761Z" fill="white"/>
<path d="M43.5721 27.9241C42.3561 27.9241 41.3054 27.6841 40.4201 27.2041C39.5348 26.7134 38.8521 26.0308 38.3721 25.1561C37.8921 24.2708 37.6521 23.2361 37.6521 22.0521C37.6521 20.8681 37.8921 19.8334 38.3721 18.9481C38.8521 18.0521 39.5188 17.3534 40.3721 16.8521C41.2254 16.3401 42.2174 16.0841 43.3481 16.0841C44.2654 16.0841 45.0868 16.2548 45.8121 16.5961C46.5481 16.9268 47.1401 17.3854 47.5881 17.9721C48.0468 18.5481 48.3241 19.2201 48.4201 19.9881H46.3401C46.2334 19.3054 45.9134 18.7668 45.3801 18.3721C44.8468 17.9774 44.1801 17.7801 43.3801 17.7801C42.6548 17.7801 42.0201 17.9508 41.4761 18.2921C40.9321 18.6334 40.5108 19.1188 40.2121 19.7481C39.9134 20.3774 39.7641 21.1294 39.7641 22.0041C39.7641 22.9001 39.9134 23.6681 40.2121 24.3081C40.5214 24.9374 40.9641 25.4174 41.5401 25.7481C42.1268 26.0788 42.8414 26.2441 43.6841 26.2441C44.3348 26.2441 44.8948 26.1641 45.3641 26.0041C45.8334 25.8334 46.2121 25.5828 46.5001 25.2521L48.5001 26.0361C47.8921 26.6548 47.1881 27.1241 46.3881 27.4441C45.5881 27.7641 44.6494 27.9241 43.5721 27.9241ZM46.4201 26.0361V22.6761L46.9161 23.1721H43.6681V21.5401H48.5001V26.0361H46.4201Z" fill="white"/>
<path d="M50.0308 27.7641V19.6041H51.9988V21.5721H52.0469V27.7641H50.0308ZM52.0469 23.5081L51.8389 21.5721C52.0309 20.8788 52.3562 20.3508 52.8148 19.9881C53.2735 19.6254 53.8229 19.4441 54.4629 19.4441C54.6869 19.4441 54.8469 19.4654 54.9429 19.5081V21.4121C54.8895 21.3908 54.8148 21.3801 54.7188 21.3801C54.6228 21.3694 54.5055 21.3641 54.3668 21.3641C53.5882 21.3641 53.0069 21.5348 52.6229 21.8761C52.2389 22.2174 52.0469 22.7614 52.0469 23.5081Z" fill="white"/>
<path d="M59.5791 27.9241C58.7151 27.9241 57.9524 27.7428 57.2911 27.3801C56.6404 27.0174 56.1338 26.5161 55.7711 25.8761C55.4084 25.2254 55.2271 24.4841 55.2271 23.6521C55.2271 22.8201 55.4084 22.0894 55.7711 21.4601C56.1338 20.8308 56.6404 20.3401 57.2911 19.9881C57.9524 19.6254 58.7151 19.4441 59.5791 19.4441C60.4538 19.4441 61.2164 19.6254 61.8671 19.9881C62.5178 20.3401 63.0244 20.8308 63.3871 21.4601C63.7498 22.0894 63.9311 22.8201 63.9311 23.6521C63.9311 24.4841 63.7444 25.2254 63.3711 25.8761C63.0084 26.5161 62.5018 27.0174 61.8511 27.3801C61.2004 27.7428 60.4431 27.9241 59.5791 27.9241ZM59.5791 26.3081C60.0058 26.3081 60.3898 26.2014 60.7311 25.9881C61.0724 25.7641 61.3391 25.4548 61.5311 25.0601C61.7231 24.6548 61.8191 24.1801 61.8191 23.6361C61.8191 22.8361 61.6058 22.2068 61.1791 21.7481C60.7631 21.2894 60.2298 21.0601 59.5791 21.0601C58.9284 21.0601 58.3898 21.2894 57.9631 21.7481C57.5364 22.2068 57.3231 22.8361 57.3231 23.6361C57.3231 24.1801 57.4191 24.6548 57.6111 25.0601C57.8138 25.4548 58.0804 25.7641 58.4111 25.9881C58.7524 26.2014 59.1418 26.3081 59.5791 26.3081Z" fill="white"/>
<path d="M67.734 27.9241C67.1686 27.9241 66.678 27.8068 66.262 27.5721C65.8566 27.3268 65.542 26.9961 65.318 26.5801C65.1046 26.1641 64.998 25.6948 64.998 25.1721V19.6041H67.014V24.7561C67.014 25.2574 67.1366 25.6361 67.382 25.8921C67.638 26.1481 67.9953 26.2761 68.454 26.2761C68.87 26.2761 69.2326 26.1801 69.542 25.9881C69.862 25.7961 70.1126 25.5294 70.294 25.1881C70.486 24.8361 70.582 24.4414 70.582 24.0041L70.79 25.9561C70.5233 26.5534 70.1233 27.0334 69.59 27.3961C69.0673 27.7481 68.4486 27.9241 67.734 27.9241ZM70.646 27.7641V25.8441H70.582V19.6041H72.614V27.7641H70.646Z" fill="white"/>
<path d="M79.0862 27.9241C78.3076 27.9241 77.6729 27.7428 77.1822 27.3801C76.7022 27.0068 76.4036 26.4948 76.2862 25.8441L76.4462 25.8281V31.0441H74.4302V19.6041H76.3982V21.4441L76.2382 21.4121C76.3876 20.8041 76.7289 20.3241 77.2622 19.9721C77.7956 19.6201 78.4462 19.4441 79.2142 19.4441C79.9396 19.4441 80.5689 19.6201 81.1022 19.9721C81.6462 20.3134 82.0676 20.7988 82.3662 21.4281C82.6649 22.0574 82.8142 22.7988 82.8142 23.6521C82.8142 24.5161 82.6596 25.2681 82.3502 25.9081C82.0409 26.5481 81.6089 27.0441 81.0542 27.3961C80.4996 27.7481 79.8436 27.9241 79.0862 27.9241ZM78.5742 26.2601C79.2249 26.2601 79.7422 26.0361 80.1262 25.5881C80.5102 25.1294 80.7022 24.4894 80.7022 23.6681C80.7022 22.8468 80.5049 22.2121 80.1102 21.7641C79.7262 21.3161 79.2089 21.0921 78.5582 21.0921C77.9182 21.0921 77.4009 21.3214 77.0062 21.7801C76.6116 22.2281 76.4142 22.8628 76.4142 23.6841C76.4142 24.5054 76.6116 25.1401 77.0062 25.5881C77.4009 26.0361 77.9236 26.2601 78.5742 26.2601Z" fill="white"/>
</svg>
