<svg width="29" height="25" viewBox="0 0 29 25" fill="none" xmlns="http://www.w3.org/2000/svg">
<path d="M16.8 24.96V16.32C16.8 12.032 17.76 8.416 19.68 5.472C21.664 2.464 24.768 0.639999 28.992 0V4.992C26.496 5.248 24.768 6.144 23.808 7.68C22.912 9.152 22.464 11.36 22.464 14.304L18.624 13.728H28.896V24.96H16.8ZM0 24.96V16.32C0 12.032 0.96 8.416 2.88 5.472C4.864 2.464 7.968 0.639999 12.192 0V4.992C9.696 5.248 7.968 6.144 7.008 7.68C6.112 9.152 5.664 11.36 5.664 14.304L1.824 13.728H12.096V24.96H0Z" fill="white"/>
</svg>
