<svg xmlns:xlink="http://www.w3.org/1999/xlink" xmlns="http://www.w3.org/2000/svg" viewBox="0 0 256 256" focusable="false" color="var(--token-44dd7634-948b-4475-884c-16fbad7c474d, rgb(253, 253, 253))" style="user-select: none; width: 100%; height: 100%; display: inline-block; fill: var(--token-44dd7634-948b-4475-884c-16fbad7c474d, rgb(253, 253, 253)); color: var(--token-44dd7634-948b-4475-884c-16fbad7c474d, rgb(253, 253, 253)); flex-shrink: 0;" width="256"  height="256" ><g color="var(--token-44dd7634-948b-4475-884c-16fbad7c474d, rgb(253, 253, 253))" weight="duotone" fill="#FFFBF5"><path d="M224,128a96,96,0,1,1-96-96A96,96,0,0,1,224,128Z" opacity="0.2" fill="#FFFBF5"></path><path d="M128,24A104,104,0,1,0,232,128,104.11,104.11,0,0,0,128,24Zm0,192a88,88,0,1,1,88-88A88.1,88.1,0,0,1,128,216Zm64-88a8,8,0,0,1-8,8H128a8,8,0,0,1-8-8V72a8,8,0,0,1,16,0v48h48A8,8,0,0,1,192,128Z" fill="#FFFBF5"></path></g></svg>