<svg width="40" height="54" viewBox="0 0 40 54" fill="none" xmlns="http://www.w3.org/2000/svg">
    <path d="M25.0711 0.334045H4.47111C2.47111 0.334045 0.835693 1.97988 0.835693 3.97884V50.0309C0.835693 52.0309 2.47111 53.6663 4.47111 53.6663H35.9742C37.9742 53.6663 39.6096 52.0309 39.6096 50.0309V14.883L31.1221 8.82259L25.0711 0.334045Z" fill="#0F9D58"/>
    <path d="M10.5325 26.3904V43.9695H29.9241V26.3904H10.5325ZM19.0106 41.5435H12.9502V38.5133H19.0106V41.5435ZM19.0106 36.6904H12.9502V33.6602H19.0106V36.6904ZM19.0106 31.8477H12.9502V28.8175H19.0106V31.8477ZM27.4981 41.5435H21.4366V38.5133H27.497V41.5435H27.4981ZM27.4981 36.6904H21.4366V33.6602H27.497V36.6904H27.4981ZM27.4981 31.8477H21.4366V28.8175H27.497V31.8477H27.4981Z" fill="#F1F1F1"/>
    <path d="M26.1326 13.8204L39.6086 27.2965V14.8829L26.1326 13.8204Z" fill="url(#paint0_linear_1595_82921)"/>
    <path d="M25.074 0.338501V11.2427C25.074 13.252 26.699 14.8781 28.7094 14.8781H39.6125L25.074 0.338501Z" fill="#87CEAC"/>
    <path d="M4.47111 0.334111C2.47111 0.334111 0.835693 1.97994 0.835693 3.9789V4.28099C0.835693 2.28099 2.47111 0.645569 4.47111 0.645569H25.0711V0.333069H4.47111V0.334111Z" fill="white" fill-opacity="0.2"/>
    <path d="M35.9753 53.3528H4.47111C2.47111 53.3528 0.835693 51.7174 0.835693 49.7174V50.0195C0.835693 52.0195 2.47111 53.6549 4.47111 53.6549H35.9742C37.9742 53.6549 39.6096 52.0195 39.6096 50.0195V49.7174C39.6096 51.7184 37.9742 53.3528 35.9753 53.3528Z" fill="#263238" fill-opacity="0.2"/>
    <path d="M28.7055 14.883C26.6961 14.883 25.0701 13.258 25.0701 11.2476V11.5497C25.0701 13.5591 26.6951 15.1851 28.7055 15.1851H39.6086V14.883H28.7055Z" fill="#263238" fill-opacity="0.1"/>
    <path d="M25.0704 0.334106H4.47038C2.47038 0.334106 0.834961 1.97994 0.834961 3.9789V50.031C0.834961 52.031 2.47038 53.6664 4.47038 53.6664H35.9735C37.9735 53.6664 39.6089 52.031 39.6089 50.031V14.8831L25.0704 0.334106Z" fill="url(#paint1_radial_1595_82921)"/>
    <defs>
        <linearGradient id="paint0_linear_1595_82921" x1="32.8704" y1="14.9758" x2="32.8704" y2="27.2963" gradientUnits="userSpaceOnUse">
            <stop stop-color="#263238" stop-opacity="0.2"/>
            <stop offset="1" stop-color="#263238" stop-opacity="0.02"/>
        </linearGradient>
        <radialGradient id="paint1_radial_1595_82921" cx="0" cy="0" r="1" gradientUnits="userSpaceOnUse" gradientTransform="translate(2.06325 1.7851) scale(62.5338 62.5338)">
            <stop stop-color="white" stop-opacity="0.1"/>
            <stop offset="1" stop-color="white" stop-opacity="0"/>
        </radialGradient>
    </defs>
</svg>
