<svg xmlns="http://www.w3.org/2000/svg" width="54" height="54" viewBox="0 0 54 54" fill="none">
    <g clip-path="url(#clip0_1595_82913)">
        <path d="M49.2719 25.6674C48.0837 23.6393 46.3884 21.9552 44.3524 20.7805C42.798 19.8771 41.1908 19.3034 39.376 19.0552V12.5569C40.2561 12.1922 41.0065 11.5718 41.5303 10.7761C42.054 9.98028 42.327 9.04567 42.3138 8.0931C42.317 7.44981 42.1931 6.81224 41.9492 6.217C41.7052 5.62176 41.3461 5.08059 40.8923 4.62458C40.4386 4.16857 39.8992 3.80672 39.3052 3.5598C38.7112 3.31289 38.0742 3.18579 37.4309 3.18579C36.1279 3.18579 34.8781 3.70228 33.9552 4.62212C33.0323 5.54195 32.5117 6.7901 32.5074 8.0931C32.5074 10.0869 33.5653 11.7878 35.3842 12.5569V19.0186C33.8775 19.2366 32.4157 19.6955 31.0547 20.3776L13.6594 7.20604C13.7815 6.74623 13.8873 6.27015 13.8873 5.76966C13.8873 2.76668 11.454 0.333374 8.45101 0.333374C5.44804 0.333374 3.0188 2.76668 3.0188 5.76966C3.0188 8.77263 5.4521 11.2059 8.45508 11.2059C9.48049 11.2059 10.4286 10.9048 11.2465 10.4125L12.3858 11.2751L27.9907 22.5261C27.1647 23.2829 26.3956 24.1456 25.7812 25.114C24.5361 27.0875 23.7751 29.2563 23.7751 31.6245V32.1128C23.7806 33.7189 24.0699 35.3113 24.6296 36.8167C25.1017 38.1025 25.7934 39.2744 26.652 40.3324L21.468 45.5286C19.9339 44.9589 18.2127 45.3373 17.053 46.497C16.2636 47.2823 15.8201 48.3525 15.8242 49.4674C15.8282 50.5824 16.2636 51.6444 17.0571 52.4378C17.8506 53.2313 18.9126 53.6708 20.0275 53.6708C21.1424 53.6708 22.2126 53.2313 22.9979 52.4378C23.7833 51.6444 24.2309 50.5824 24.2268 49.4674C24.2265 49.0394 24.1606 48.614 24.0315 48.206L29.3864 42.8511C30.1188 43.3597 30.9123 43.787 31.7668 44.1532C33.5231 44.9235 35.4196 45.3225 37.3374 45.3251H37.7036C39.9497 45.3251 42.0697 44.7961 44.0595 43.7178C46.1047 42.6211 47.8232 41.0024 49.04 39.0262C50.2892 37.0323 50.9728 34.8228 50.9728 32.3936V32.2715C50.9728 29.883 50.4194 27.6816 49.2638 25.6634L49.2719 25.6674ZM42.7329 36.9062C41.2803 38.5216 39.6079 39.5185 37.7198 39.5185H37.3618C36.2835 39.5185 35.2255 39.2215 34.196 38.6762C33.0672 38.0893 32.1108 37.2184 31.4209 36.1494C30.6722 35.0914 30.2653 33.9358 30.2653 32.711V32.3448C30.2653 31.1403 30.4972 29.9969 31.0791 28.9186C31.7017 27.6979 32.544 26.823 33.663 26.0947C34.782 25.3663 35.9335 25.0164 37.2438 25.0164H37.3658C38.5459 25.0164 39.673 25.2483 40.731 25.7895C41.8027 26.3532 42.713 27.1809 43.3759 28.1943C44.0321 29.2106 44.4379 30.3681 44.56 31.5716L44.5884 32.3326C44.5884 33.9887 43.9537 35.5227 42.6882 36.9143L42.7329 36.9062Z" fill="#F8761F"/>
    </g>
    <defs>
        <clipPath id="clip0_1595_82913">
            <rect width="53.3333" height="53.3333" fill="white" transform="translate(0.333252 0.333374)"/>
        </clipPath>
    </defs>
</svg>