<svg xmlns="http://www.w3.org/2000/svg" width="58" height="36" viewBox="0 0 58 36" fill="none">
    <g clip-path="url(#clip0_1595_82864)">
        <path d="M29.0874 35.1931C26.6091 35.1325 24.5644 34.039 23.2587 31.7565C21.9205 29.3971 21.9788 26.9816 23.4056 24.6805C26.8026 19.2038 30.2439 13.7575 33.6641 8.29715C34.3636 7.18037 35.0467 6.04727 35.7788 4.95148C36.7507 3.4527 38.2692 2.39252 40.0111 1.99667C41.753 1.60083 43.5806 1.9006 45.1047 2.83216C48.3245 4.81625 49.4016 8.94297 47.3966 12.1954C43.2978 18.8712 39.1408 25.5144 34.9255 32.1249C33.6268 34.1696 31.6567 35.1558 29.0874 35.1931Z" fill="#FFCB00"/>
        <path d="M7.80095 35.1931C5.29927 35.1325 3.26621 33.9901 1.98623 31.7169C0.666611 29.3575 0.750544 26.9374 2.18207 24.6362C5.83628 18.7733 9.50681 12.919 13.1937 7.07315C13.66 6.31775 14.1263 5.5437 14.6252 4.81161C15.6369 3.34538 17.1796 2.33044 18.9265 1.9817C20.6735 1.63296 22.4876 1.97778 23.9848 2.94317C25.4819 3.90855 26.5446 5.41871 26.9478 7.1539C27.351 8.88909 27.0631 10.7131 26.145 12.2397C22.0603 18.8355 17.9196 25.4079 13.7765 31.9734C12.4313 34.102 10.4518 35.1558 7.80095 35.1931Z" fill="#FF3D57"/>
        <path d="M50.5114 21.8244C54.2814 21.8431 57.3333 24.839 57.3263 28.5134C57.3263 32.2438 54.1928 35.2514 50.3878 35.2048C46.5829 35.1582 43.5846 32.1948 43.5892 28.5041C43.5939 24.7598 46.6575 21.8011 50.5114 21.8244Z" fill="#00D647"/>
    </g>
    <defs>
        <clipPath id="clip0_1595_82864">
            <rect width="56.6667" height="35.1107" fill="white" transform="translate(0.666626 0.5)"/>
        </clipPath>
    </defs>
</svg>