<svg xmlns="http://www.w3.org/2000/svg" width="54" height="54" viewBox="0 0 54 54" fill="none">
    <g clip-path="url(#clip0_1595_82942)">
        <path d="M33.6665 27.0116C33.6674 28.9347 33.3205 30.8421 32.6425 32.6416C30.8423 33.3195 28.9345 33.667 27.0109 33.6673H26.9884C25.0075 33.6648 23.1096 33.3027 21.3584 32.6425C20.68 30.8427 20.3327 28.935 20.3334 27.0116V26.9883C20.3324 25.0656 20.679 23.1586 21.3563 21.3591C23.1564 20.68 25.0646 20.3325 26.9886 20.3333H27.0111C28.9348 20.3324 30.8428 20.6799 32.6427 21.3589C33.3208 23.1582 33.6677 25.0653 33.6667 26.9881V27.0114L33.6665 27.0116ZM53.2963 22.5556H37.7305L48.7365 11.5487C47.8726 10.3352 46.909 9.19592 45.8557 8.14269V8.14185C44.8023 7.08975 43.6633 6.12699 42.4505 5.26352L31.4436 16.2704V0.704563C29.9797 0.458298 28.4978 0.334121 27.0134 0.333313L26.9859 0.333313C25.4759 0.334146 23.9969 0.46248 22.5557 0.704563V16.2704L11.5488 5.26352C10.3358 6.12676 9.19725 7.0902 8.14525 8.14373L8.13942 8.1479C7.08786 9.19982 6.12559 10.3373 5.26254 11.5487L16.2702 22.5556H0.704624C0.704624 22.5556 0.333374 25.4791 0.333374 26.9908V27.0091C0.333374 28.5208 0.461499 30.0023 0.704624 31.4444H16.2705L5.26275 42.4512C6.99434 44.8812 9.11879 47.0057 11.5488 48.7373L22.5557 37.7296V53.2962C24.018 53.5413 25.498 53.6652 26.9807 53.6666H27.0184C28.5011 53.6653 29.9811 53.5414 31.4434 53.2962V37.7296L42.4513 48.7373C43.6639 47.8735 44.8026 46.9105 45.8557 45.8581L45.8582 45.8556C46.9101 44.8023 47.8728 43.6636 48.7365 42.4512L37.7288 31.4444H53.2963C53.5386 30.0048 53.665 28.5277 53.6667 27.0194V26.9806C53.665 25.4723 53.5386 23.9952 53.2963 22.5556Z" fill="#FF4A00"/>
    </g>
    <defs>
        <clipPath id="clip0_1595_82942">
            <rect width="53.3333" height="53.3333" fill="white" transform="translate(0.333374 0.333313)"/>
        </clipPath>
    </defs>
</svg>