<svg xmlns="http://www.w3.org/2000/svg" width="58" height="41" viewBox="0 0 58 41" fill="none">
    <g clip-path="url(#clip0_1595_82860)">
        <path d="M27.7832 6.3181V23.9308H13.1969L27.7832 6.3181ZM27.7832 0C27.7832 4.02487 24.5227 7.28532 20.4979 7.28532C16.473 7.28532 13.1969 4.02487 13.1969 0H27.7832ZM30.1856 23.9308C30.1856 19.9059 33.4461 16.6455 37.4709 16.6455C41.4958 16.6455 44.7563 19.9059 44.7563 23.9308H30.1856ZM30.1856 17.6127V0H44.7719L30.1856 17.6127ZM38.3445 38.985C39.0934 39.0006 39.8266 38.7198 40.3726 38.205L41.371 39.2815C40.7158 39.9679 39.7954 40.4671 38.3601 40.4671C35.9109 40.4671 34.3353 38.8446 34.3353 36.645C34.2885 34.5702 35.9421 32.8697 38.0013 32.8229H38.1261C40.5598 32.8229 41.9326 34.6638 41.8078 37.2378H36.0825C36.2853 38.3142 37.0341 39.0006 38.3445 38.985ZM40.0918 36.0366C39.9358 35.0382 39.343 34.305 38.1573 34.305C37.0497 34.305 36.2853 34.929 36.0825 36.0366H40.0918ZM0.669922 38.907L5.08479 34.4142H0.779124V33.0101H7.12843V34.4454L2.71356 38.9382H7.19083V40.3423H0.669922V38.907ZM12.1517 38.985C12.9005 39.0006 13.6337 38.7198 14.1641 38.205L15.1626 39.2815C14.5074 39.9679 13.5869 40.4671 12.1517 40.4671C9.70247 40.4671 8.12685 38.8446 8.12685 36.645C8.08004 34.5702 9.73367 32.8697 11.7929 32.8229H11.9177C14.3513 32.8229 15.7242 34.6638 15.5994 37.2378H9.88967C10.0925 38.3142 10.8413 39.0006 12.1517 38.985ZM13.8989 36.0366C13.7429 35.0382 13.1501 34.305 11.9645 34.305C10.8569 34.305 10.0925 34.929 9.88967 36.0366H13.8989ZM25.1623 36.6606C25.1623 34.3206 26.9096 32.8541 28.844 32.8541C29.78 32.8385 30.6692 33.2442 31.2932 33.9462V29.6249H32.8533V40.3267H31.2932V39.3126C30.6848 40.0459 29.78 40.4827 28.8284 40.4671C26.9564 40.4671 25.1623 38.985 25.1623 36.6606ZM31.3712 36.645C31.34 35.3658 30.2636 34.3518 28.9844 34.383C27.7052 34.4142 26.6912 35.4906 26.7224 36.7698C26.7536 38.0334 27.7832 39.0318 29.0468 39.0318C30.3884 39.0318 31.3712 37.971 31.3712 36.645ZM42.8374 38.7666L44.257 38.0334C44.6314 38.7198 45.3647 39.1254 46.1447 39.1098C47.0339 39.1098 47.4863 38.6574 47.4863 38.1426C47.4863 37.5498 46.6283 37.425 45.7079 37.2378C44.4598 36.9726 43.165 36.567 43.165 35.0538C43.165 33.8994 44.2726 32.8229 46.0043 32.8385C47.3771 32.8385 48.3911 33.3846 48.9683 34.2582L47.6579 34.9758C47.2835 34.4298 46.6595 34.1178 46.0043 34.1334C45.1619 34.1334 44.7407 34.539 44.7407 35.007C44.7407 35.5374 45.4115 35.6778 46.4723 35.9118C47.6735 36.177 49.0463 36.567 49.0463 38.0958C49.0463 39.1098 48.1571 40.4671 46.0667 40.4515C44.5378 40.4671 43.4614 39.8587 42.8374 38.7666ZM53.274 37.0662L52.0416 38.4234V40.3267H50.4815V29.6249H52.0416V36.6294L55.3488 32.9945H57.2521L54.3816 36.1302L57.3301 40.3267H55.5672L53.274 37.0662ZM20.451 32.8385C18.5946 32.8385 17.0346 34.0398 17.0346 36.0366V40.3267H18.6258V36.2394C18.6258 35.0382 19.3122 34.3206 20.4979 34.3206C21.6835 34.3206 22.2607 35.0382 22.2607 36.2394V40.3267H23.8363V36.0366C23.8519 34.0398 22.2919 32.8385 20.451 32.8385Z" fill="#03363D"/>
    </g>
    <defs>
        <clipPath id="clip0_1595_82860">
            <rect width="56.6667" height="40.4827" fill="white" transform="translate(0.666748)"/>
        </clipPath>
    </defs>
</svg>