<?xml version="1.0" encoding="UTF-8"?>
<svg color="var(--token-c8809533-d74e-4474-af14-ef3a211efd13, rgb(20, 20, 20))" display="inline-block" fill="var(--token-c8809533-d74e-4474-af14-ef3a211efd13, rgb(20, 20, 20))" style="flex-shrink:0;height:100%;user-select:none;width:100%" focusable="false" viewBox="0 0 256 256" xmlns="http://www.w3.org/2000/svg">
<g color="var(--token-c8809533-d74e-4474-af14-ef3a211efd13, rgb(20, 20, 20))" weight="fill">
<path d="m232 56v32a4 4 0 0 1-4 4h-92v-40a4 4 0 0 1 4-4h84a8 8 0 0 1 8 8zm-4 52h-44v44h44a4 4 0 0 0 4-4v-36a4 4 0 0 0-4-4zm-140 44h80v-44h-80zm-60 0h44v-44h-44a4 4 0 0 0-4 4v36a4 4 0 0 0 4 4zm200 16h-92v36a4 4 0 0 0 4 4h84a8 8 0 0 0 8-8v-28a4 4 0 0 0-4-4zm-200-76h92v-40a4 4 0 0 0-4-4h-84a8 8 0 0 0-8 8v32a4 4 0 0 0 4 4zm-4 80v28a8 8 0 0 0 8 8h84a4 4 0 0 0 4-4v-36h-92a4 4 0 0 0-4 4z"/>
</g>
</svg>
