<?xml version="1.0" encoding="UTF-8"?> <svg xmlns="http://www.w3.org/2000/svg" width="162" height="75" viewBox="0 0 162 75" fill="none"><mask id="mask0_295_828" style="mask-type:alpha" maskUnits="userSpaceOnUse" x="18" y="22" width="126" height="31"><path d="M18.6226 44.7224L23.0987 41.2935C25.4768 44.3972 28.0034 45.8278 30.8158 45.8278C33.6131 45.8278 36.0683 44.4141 38.3392 41.3348L42.8793 44.6811C39.6026 49.1215 35.5306 51.4676 30.8158 51.4676C26.116 51.4676 22.0045 49.1365 18.6226 44.7224Z" fill="url(#paint0_linear_295_828)"></path><path d="M30.8008 29.8183L22.8337 36.6838L19.1509 32.4126L30.8177 22.3588L42.3924 32.4201L38.6927 36.6763L30.8008 29.8183Z" fill="url(#paint1_linear_295_828)"></path><path d="M60.0448 47.2322C57.3246 47.2322 55.0574 46.3505 53.2188 44.5871C51.3802 42.7993 50.4741 40.5077 50.4741 37.7103C50.4741 34.8904 51.4047 32.5725 53.2433 30.7583C55.1081 28.9198 57.3753 28.0137 60.0712 28.0137C63.3967 28.0137 66.3426 29.448 68.0571 31.6908L65.0567 34.8397C63.6205 33.3019 62.0582 32.5217 60.3719 32.5217C58.9357 32.5217 57.7513 32.9992 56.7681 33.9824C55.8112 34.9656 55.3337 36.2007 55.3337 37.6859C55.3337 39.1222 55.8112 40.3309 56.7681 41.3141C57.7513 42.271 58.9357 42.7485 60.3456 42.7485C62.1842 42.7485 63.7972 41.942 65.1319 40.3554L68.2564 43.3539C67.3991 44.4875 66.2411 45.4199 64.8048 46.1493C63.3685 46.8806 61.7819 47.2322 60.043 47.2322H60.0448ZM73.5427 27.7354V46.9558H69.1098V27.7354H73.5427ZM77.7444 31.8149C76.2592 31.8149 75.1764 30.732 75.1764 29.2469C75.1764 27.8106 76.31 26.7278 77.7444 26.7278C79.1806 26.7278 80.2898 27.8106 80.2898 29.2469C80.2898 30.732 79.1806 31.8167 77.7444 31.8167V31.8149ZM79.9871 33.05V46.9558H75.5279V33.05H79.9871ZM88.522 47.2585C86.33 47.2585 84.5666 46.5779 83.183 45.2169C81.8219 43.8577 81.1414 42.1188 81.1414 39.9775C81.1414 37.8363 81.8219 36.0992 83.2074 34.7382C84.5929 33.3771 86.3807 32.6984 88.5972 32.6984C91.4941 32.6984 94.0396 34.1084 95.222 36.7534L91.6709 38.6183C90.9659 37.434 89.9827 36.8286 88.6987 36.8286C87.7663 36.8286 87.0105 37.1313 86.4052 37.7366C86.118 38.0338 85.8922 38.3846 85.7409 38.7692C85.5896 39.1537 85.5157 39.5644 85.5235 39.9775C85.5235 41.8161 86.8582 43.1772 88.6479 43.1772C89.9319 43.1772 91.1163 42.4722 91.6201 41.3893L95.1732 43.5043C93.9625 45.8222 91.4697 47.2585 88.522 47.2585ZM110.636 46.9558H105.344L101.236 41.4382L100.582 42.0436V46.9558H96.1507V27.7354H100.584V37.0805L104.765 33.05H110.181L104.212 38.6428L110.636 46.9558ZM110.933 39.7256V28.3389H115.668V39.6504C115.668 41.7409 116.877 42.7485 118.616 42.7485C120.328 42.7485 121.537 41.6901 121.537 39.6504V28.3389H126.299V39.7256C126.299 45.2169 122.494 47.2829 118.616 47.2829C114.762 47.2829 110.933 45.2169 110.933 39.7256ZM136.823 32.6984C138.814 32.6984 140.427 33.4034 141.711 34.8134C142.995 36.1989 143.625 37.9378 143.625 39.9775C143.625 42.0191 142.97 43.7562 141.686 45.1924C140.4 46.6024 138.789 47.3092 136.849 47.3092C135.311 47.3092 133.977 46.8054 132.894 45.7978V52.6746H128.435V33.05H132.819V34.3359C133.902 33.2511 135.236 32.6984 136.823 32.6984ZM139.09 40.0283C139.09 38.2141 137.782 36.8286 135.968 36.8286C134.153 36.8286 132.819 38.2141 132.819 40.0283C132.819 40.91 133.119 41.6657 133.7 42.2955C134.304 42.9252 135.06 43.2279 135.968 43.2279C136.874 43.2279 137.629 42.9252 138.208 42.2955C138.786 41.6831 139.103 40.87 139.092 40.0283H139.09Z" fill="#111111"></path></mask><g mask="url(#mask0_295_828)"><rect x="10.6714" y="14.3499" width="146.333" height="44.6677" fill="#ABABAB"></rect></g><defs><linearGradient id="paint0_linear_295_828" x1="18.6226" y1="733.239" x2="42.8793" y2="733.239" gradientUnits="userSpaceOnUse"><stop stop-color="#8930FD"></stop><stop offset="1" stop-color="#49CCF9"></stop></linearGradient><linearGradient id="paint1_linear_295_828" x1="19.1509" y1="996.606" x2="42.3924" y2="996.606" gradientUnits="userSpaceOnUse"><stop stop-color="#FF02F0"></stop><stop offset="1" stop-color="#FFC800"></stop></linearGradient></defs></svg> 