<svg xmlns="http://www.w3.org/2000/svg" width="54" height="54" viewBox="0 0 54 54" fill="none">
    <g clip-path="url(#clip0_1595_82850)">
        <mask id="mask0_1595_82850" style="mask-type:luminance" maskUnits="userSpaceOnUse" x="0" y="0" width="54" height="54">
            <path d="M53.6666 0.333374H0.333252V53.6667H53.6666V0.333374Z" fill="white"/>
        </mask>
        <g mask="url(#mask0_1595_82850)">
            <path d="M53.6666 8.33337C53.6666 3.91509 50.0849 0.333374 45.6666 0.333374H8.33324C3.91497 0.333374 0.333252 3.9151 0.333252 8.33337V45.6667C0.333252 50.085 3.91497 53.6667 8.33325 53.6667H45.6666C50.0849 53.6667 53.6666 50.085 53.6666 45.6667V8.33337Z" fill="#326BE1"/>
            <path d="M43.9744 30.5115C45.4244 29.5239 45.9091 28.3167 45.9091 27.2192V26.6707C45.9091 25.4635 45.1827 24.4759 43.9744 23.7077C43.0079 23.0492 7.12109 0.333374 7.12109 0.333374V5.16187C7.12109 6.80794 8.08896 7.35664 9.41689 8.23456C11.2293 9.44167 39.2632 27.1095 39.2632 27.1095C39.2632 27.1095 10.8681 44.9969 9.17521 45.9845C7.36276 47.082 7.24314 47.7404 7.24314 49.167V53.6664C7.00026 53.776 42.2841 31.6089 43.9744 30.5115Z" fill="white"/>
            <path d="M7.12109 16.4537V19.6422C7.12109 19.6422 18.0134 26.4442 20.1444 27.7197C21.9202 28.7823 23.4594 28.6762 25.2352 27.507C26.4192 26.763 27.4847 26.1253 27.4847 26.1253C27.4847 26.1253 11.62 16.2411 9.96253 15.2846C8.66021 14.4343 7.12109 14.9658 7.12109 16.4537Z" fill="white"/>
        </g>
    </g>
    <defs>
        <clipPath id="clip0_1595_82850">
            <rect width="53.3333" height="53.3333" fill="white" transform="translate(0.333252 0.333374)"/>
        </clipPath>
    </defs>
</svg>