<svg xmlns="http://www.w3.org/2000/svg" width="54" height="54" viewBox="0 0 54 54" fill="none">
    <g clip-path="url(#clip0_1595_82962)">
        <path d="M46.5555 29.6558C46.5505 30.124 46.3609 30.5713 46.0281 30.9005C45.6952 31.2298 45.2459 31.4145 44.7777 31.4145C44.3095 31.4145 43.8602 31.2298 43.5274 30.9005C43.1945 30.5713 43.005 30.124 42.9999 29.6558V13.6666C43.005 13.1985 43.1945 12.7512 43.5274 12.4219C43.8602 12.0927 44.3095 11.908 44.7777 11.908C45.2459 11.908 45.6952 12.0927 46.0281 12.4219C46.3609 12.7512 46.5505 13.1985 46.5555 13.6666V29.6558ZM45.9351 40.7835C45.6603 41.0187 39.0747 46.545 26.9999 46.545C14.9253 46.545 8.33992 41.0185 8.06513 40.7833C7.7072 40.4764 7.48583 40.0399 7.44969 39.5698C7.41355 39.0997 7.56561 38.6345 7.87242 38.2764C8.17857 37.919 8.614 37.6976 9.08319 37.6608C9.55238 37.624 10.017 37.7748 10.3751 38.0802C10.4795 38.1677 16.3603 42.9891 27.0001 42.9891C37.7735 42.9891 43.5633 38.1329 43.6205 38.0839C44.3645 37.445 45.4889 37.5308 46.1274 38.2766C46.4343 38.6346 46.5865 39.0998 46.5504 39.5699C46.5144 40.04 46.293 40.4766 45.9351 40.7835ZM7.44429 13.6666C7.44936 13.1985 7.6389 12.7512 7.97175 12.4219C8.30461 12.0927 8.75391 11.908 9.22211 11.908C9.6903 11.908 10.1396 12.0927 10.4725 12.4219C10.8053 12.7512 10.9949 13.1985 10.9999 13.6666V29.6558C10.9949 30.124 10.8053 30.5713 10.4725 30.9005C10.1396 31.2298 9.6903 31.4145 9.22211 31.4145C8.75391 31.4145 8.30461 31.2298 7.97175 30.9005C7.6389 30.5713 7.44936 30.124 7.44429 29.6558V13.6666ZM16.3335 10.111C16.3406 9.64426 16.531 9.19903 16.8637 8.87147C17.1963 8.54392 17.6444 8.36032 18.1112 8.36032C18.578 8.36032 19.0261 8.54392 19.3587 8.87147C19.6913 9.19903 19.8817 9.64426 19.8889 10.111V33.8612C19.8817 34.328 19.6913 34.7732 19.3587 35.1008C19.0261 35.4283 18.578 35.6119 18.1112 35.6119C17.6444 35.6119 17.1963 35.4283 16.8637 35.1008C16.531 34.7732 16.3406 34.328 16.3335 33.8612V10.111ZM25.2222 9.21144C25.2222 8.97798 25.2681 8.7468 25.3575 8.53111C25.4468 8.31541 25.5777 8.11943 25.7428 7.95435C25.9079 7.78927 26.1039 7.65832 26.3196 7.56899C26.5353 7.47967 26.7665 7.4337 26.9999 7.43373C27.2334 7.43367 27.4646 7.47962 27.6803 7.56893C27.896 7.65825 28.092 7.78919 28.2571 7.95427C28.4222 8.11936 28.5532 8.31535 28.6426 8.53106C28.7319 8.74677 28.7779 8.97796 28.7778 9.21144V34.9891C28.7728 35.4573 28.5832 35.9046 28.2504 36.2339C27.9175 36.5631 27.4682 36.7478 27 36.7478C26.5318 36.7478 26.0825 36.5631 25.7497 36.2339C25.4168 35.9046 25.2273 35.4573 25.2222 34.9891V9.21144ZM34.1112 10.111C34.1183 9.64426 34.3088 9.19903 34.6414 8.87147C34.974 8.54392 35.4221 8.36032 35.8889 8.36032C36.3557 8.36032 36.8038 8.54392 37.1364 8.87147C37.469 9.19903 37.6594 9.64426 37.6666 10.111V33.8612C37.6594 34.328 37.469 34.7732 37.1364 35.1008C36.8038 35.4283 36.3557 35.6119 35.8889 35.6119C35.4221 35.6119 34.974 35.4283 34.6414 35.1008C34.3088 34.7732 34.1183 34.328 34.1112 33.8612V10.111ZM46.9999 0.333313H6.99992C3.31804 0.333313 0.333252 3.3181 0.333252 6.99998V47C0.333252 50.6816 3.31804 53.6666 6.99992 53.6666H46.9999C50.6818 53.6666 53.6666 50.6816 53.6666 47V6.99998C53.6666 3.3181 50.6818 0.333313 46.9999 0.333313Z" fill="#1F8DED"/>
    </g>
    <defs>
        <clipPath id="clip0_1595_82962">
            <rect width="53.3333" height="53.3333" fill="white" transform="translate(0.333252 0.333313)"/>
        </clipPath>
    </defs>
</svg>