<svg xmlns="http://www.w3.org/2000/svg" width="54" height="54" viewBox="0 0 54 54" fill="none">
    <g clip-path="url(#clip0_1595_82946)">
        <path d="M45.6666 0.333313H8.33325C3.91497 0.333313 0.333252 3.91503 0.333252 8.3333V45.6666C0.333252 50.0849 3.91497 53.6666 8.33324 53.6666H45.6666C50.0849 53.6666 53.6666 50.0849 53.6666 45.6667V8.33331C53.6666 3.91504 50.0849 0.333313 45.6666 0.333313Z" fill="#203232"/>
        <path d="M29.8798 8.27997C25.7198 8.27997 23.2932 10.1466 22.1465 11.4533C22.0132 10.3333 21.2665 8.8933 18.4132 8.8933H12.1465V15.4H14.7065C15.1332 15.4 15.2665 15.5333 15.2665 15.96V45.72H22.6798V34.5466C22.6798 34.2533 22.6798 33.96 22.6532 33.72C23.7998 34.7866 26.0132 36.2533 29.4798 36.2533C36.7332 36.2533 41.7998 30.4933 41.7998 22.28C41.8532 13.9066 37.0265 8.27997 29.8798 8.27997ZM28.3598 29.7733C24.3598 29.7733 22.5465 25.96 22.5465 22.4133C22.5465 16.84 25.5865 14.84 28.4665 14.84C31.9598 14.84 34.3332 17.8533 34.3332 22.36C34.3065 27.5066 31.3198 29.7733 28.3598 29.7733Z" fill="white"/>
    </g>
    <defs>
        <clipPath id="clip0_1595_82946">
            <rect width="53.3333" height="53.3333" fill="white" transform="translate(0.333252 0.333313)"/>
        </clipPath>
    </defs>
</svg>