<svg width="58" height="40" viewBox="0 0 58 40" fill="none" xmlns="http://www.w3.org/2000/svg">
<path d="M24.2473 4.32587C26.0748 2.42164 28.6192 1.24068 31.4331 1.24068C35.1738 1.24068 38.4373 3.32653 40.1753 6.42302C41.6856 5.74818 43.3573 5.37283 45.1163 5.37283C51.863 5.37283 57.3327 10.8902 57.3327 17.6958C57.3327 24.5023 51.863 30.0196 45.1163 30.0196C44.2929 30.0196 43.4881 29.9373 42.7099 29.7799C41.1795 32.5099 38.263 34.3544 34.9155 34.3544C33.5141 34.3544 32.1887 34.0307 31.0085 33.4551C29.457 37.1046 25.8423 39.6635 21.6295 39.6635C17.2422 39.6635 13.5032 36.8874 12.068 32.9942C11.4408 33.1274 10.7909 33.1968 10.1242 33.1968C4.90068 33.1968 0.666016 28.9186 0.666016 23.6402C0.666016 20.1029 2.56863 17.0145 5.3955 15.3622C4.8135 14.023 4.4898 12.545 4.4898 10.9911C4.4898 4.92078 9.41787 -1.52588e-05 15.4962 -1.52588e-05C19.0649 -1.52588e-05 22.2365 1.69676 24.2473 4.32587Z" fill="#00A1E0"/>
<path d="M8.87365 20.5685C8.83813 20.6613 8.88656 20.6807 8.89786 20.6968C9.00442 20.7743 9.11258 20.83 9.22156 20.8922C9.79953 21.1989 10.3452 21.2885 10.9159 21.2885C12.0783 21.2885 12.8 20.6702 12.8 19.6749V19.6555C12.8 18.7353 11.9855 18.4011 11.221 18.1597L11.1217 18.1274C10.5454 17.9402 10.0481 17.7787 10.0481 17.3993V17.3792C10.0481 17.0547 10.3387 16.8157 10.7892 16.8157C11.2896 16.8157 11.8838 16.982 12.2664 17.1935C12.2664 17.1935 12.3786 17.2661 12.4198 17.1572C12.4424 17.0991 12.6361 16.5776 12.6563 16.5211C12.6781 16.4597 12.6393 16.4145 12.5998 16.3903C12.1631 16.1247 11.5593 15.9431 10.9345 15.9431L10.8182 15.9439C9.75432 15.9439 9.01168 16.5865 9.01168 17.5075V17.5269C9.01168 18.498 9.83101 18.8128 10.5987 19.0323L10.7222 19.0703C11.2816 19.2422 11.7635 19.3899 11.7635 19.7839V19.8032C11.7635 20.1633 11.4503 20.4312 10.945 20.4312C10.7488 20.4312 10.1232 20.4272 9.44758 20.0002C9.36605 19.9526 9.31842 19.9179 9.25546 19.8799C9.22236 19.8589 9.13922 19.8226 9.1029 19.9324L8.87365 20.5685Z" fill="white"/>
<path d="M25.8905 20.5684C25.855 20.6612 25.9034 20.6806 25.9147 20.6968C26.0213 20.7743 26.1294 20.83 26.2384 20.8921C26.8164 21.1989 27.362 21.2885 27.9328 21.2885C29.0951 21.2885 29.8168 20.6701 29.8168 19.6748V19.6555C29.8168 18.7352 29.0023 18.401 28.2379 18.1597L28.1386 18.1274C27.5622 17.9401 27.065 17.7787 27.065 17.3993V17.3791C27.065 17.0546 27.3556 16.8157 27.806 16.8157C28.3065 16.8157 28.9006 16.9819 29.2832 17.1934C29.2832 17.1934 29.3954 17.2661 29.4366 17.1571C29.4592 17.099 29.6529 16.5775 29.6731 16.521C29.6949 16.4597 29.6562 16.4145 29.6166 16.3903C29.1799 16.1247 28.5761 15.9431 27.9513 15.9431L27.8351 15.9439C26.7712 15.9439 26.0285 16.5864 26.0285 17.5074V17.5268C26.0285 18.4979 26.8479 18.8127 27.6155 19.0323L27.739 19.0702C28.2984 19.2422 28.7811 19.3899 28.7811 19.7838V19.8032C28.7811 20.1632 28.4671 20.4312 27.9618 20.4312C27.7657 20.4312 27.1401 20.4272 26.4644 20.0001C26.3829 19.9525 26.3345 19.9194 26.2731 19.8799C26.2521 19.8661 26.1536 19.8282 26.1197 19.9323L25.8905 20.5684Z" fill="white"/>
<path d="M37.5068 18.6189C37.5068 19.1816 37.4018 19.6247 37.1952 19.9379C36.9909 20.2479 36.6818 20.3988 36.2507 20.3988C35.8189 20.3988 35.5113 20.2487 35.3103 19.9379C35.1069 19.6255 35.0036 19.1816 35.0036 18.6189C35.0036 18.0571 35.1069 17.6148 35.3103 17.3048C35.5113 16.998 35.8189 16.8487 36.2507 16.8487C36.6818 16.8487 36.9909 16.998 37.196 17.3048C37.4018 17.6148 37.5068 18.0571 37.5068 18.6189ZM38.477 17.576C38.3818 17.2539 38.2333 16.9698 38.0355 16.7333C37.8377 16.4959 37.5875 16.3054 37.2904 16.1666C36.9942 16.0286 36.6438 15.9583 36.2507 15.9583C35.8568 15.9583 35.5065 16.0286 35.2102 16.1666C34.9132 16.3054 34.6629 16.4959 34.4644 16.7333C34.2674 16.9706 34.1189 17.2547 34.0228 17.576C33.9284 17.8965 33.8807 18.2468 33.8807 18.6189C33.8807 18.9911 33.9284 19.3422 34.0228 19.6619C34.1189 19.9831 34.2666 20.2673 34.4652 20.5046C34.6629 20.7419 34.914 20.9316 35.2102 21.0664C35.5073 21.2012 35.8568 21.2698 36.2507 21.2698C36.6438 21.2698 36.9934 21.2012 37.2904 21.0664C37.5867 20.9316 37.8377 20.7419 38.0355 20.5046C38.2333 20.2681 38.3818 19.9839 38.477 19.6619C38.5723 19.3414 38.6199 18.9903 38.6199 18.6189C38.6199 18.2476 38.5723 17.8965 38.477 17.576Z" fill="white"/>
<path fill-rule="evenodd" clip-rule="evenodd" d="M46.445 20.2487C46.4127 20.1542 46.3215 20.1898 46.3215 20.1898C46.1802 20.2438 46.0301 20.2939 45.8702 20.3189C45.708 20.3439 45.5296 20.3569 45.3383 20.3569C44.8685 20.3569 44.4956 20.2172 44.2284 19.9411C43.9604 19.6651 43.8102 19.2187 43.8118 18.6149C43.8135 18.0652 43.9458 17.6519 44.184 17.3371C44.4205 17.0238 44.7805 16.8632 45.2608 16.8632C45.6612 16.8632 45.9663 16.9092 46.286 17.0101C46.286 17.0101 46.3626 17.0432 46.399 16.9431C46.4837 16.7074 46.5467 16.5387 46.6371 16.2796C46.6629 16.2061 46.6 16.1747 46.5774 16.1658C46.4514 16.1165 46.1544 16.0366 45.93 16.0027C45.7201 15.9704 45.4747 15.9535 45.2019 15.9535C44.7942 15.9535 44.431 16.0229 44.1202 16.1617C43.8102 16.2998 43.5471 16.4903 43.3388 16.7276C43.1305 16.9649 42.9723 17.2491 42.8666 17.5703C42.7617 17.8908 42.7084 18.2427 42.7084 18.6149C42.7084 19.4197 42.9255 20.0703 43.3541 20.5465C43.7836 21.0244 44.4286 21.2674 45.2697 21.2674C45.7669 21.2674 46.2771 21.1665 46.6436 21.022C46.6436 21.022 46.7138 20.9881 46.6831 20.9066L46.445 20.2487Z" fill="white"/>
<path fill-rule="evenodd" clip-rule="evenodd" d="M48.1444 18.0799C48.1905 17.7675 48.2768 17.5076 48.41 17.3049C48.611 16.9974 48.9178 16.8287 49.3488 16.8287C49.7799 16.8287 50.0648 16.9982 50.269 17.3049C50.4047 17.5076 50.4636 17.7788 50.487 18.0799H48.1444ZM51.4113 17.3929C51.3289 17.0822 51.1247 16.7681 50.9907 16.6245C50.7792 16.3968 50.5726 16.2378 50.3675 16.149C50.0995 16.0344 49.7783 15.9585 49.4263 15.9585C49.0162 15.9585 48.6441 16.0271 48.3422 16.1692C48.0395 16.3113 47.7852 16.505 47.5859 16.7463C47.3865 16.9869 47.2363 17.2735 47.1411 17.5988C47.045 17.9225 46.9966 18.2752 46.9966 18.6473C46.9966 19.0259 47.0466 19.3787 47.1459 19.6959C47.246 20.0156 47.4058 20.2973 47.6222 20.5306C47.8377 20.7655 48.1154 20.9495 48.448 21.0779C48.7781 21.2054 49.1793 21.2716 49.6402 21.2708C50.5887 21.2676 51.0884 21.0561 51.2942 20.9423C51.3305 20.9221 51.3652 20.8866 51.3217 20.7849L51.1069 20.1835C51.0746 20.0939 50.9834 20.127 50.9834 20.127C50.7485 20.2142 50.4143 20.3708 49.6354 20.3691C49.126 20.3683 48.7482 20.2182 48.5117 19.9833C48.2688 19.7427 48.1501 19.3892 48.1291 18.8903L51.4137 18.8935C51.4137 18.8935 51.5 18.8919 51.5089 18.808C51.5122 18.7725 51.6219 18.1331 51.4113 17.3929Z" fill="white"/>
<path fill-rule="evenodd" clip-rule="evenodd" d="M21.838 18.0799C21.8849 17.7675 21.9704 17.5076 22.1036 17.3049C22.3046 16.9974 22.6114 16.8287 23.0424 16.8287C23.4735 16.8287 23.7584 16.9982 23.9635 17.3049C24.0983 17.5076 24.1572 17.7788 24.1806 18.0799H21.838ZM25.1041 17.3929C25.0217 17.0822 24.8183 16.7681 24.6843 16.6245C24.4728 16.3968 24.2662 16.2378 24.0611 16.149C23.7931 16.0344 23.4719 15.9585 23.1199 15.9585C22.7107 15.9585 22.3377 16.0271 22.0358 16.1692C21.7331 16.3113 21.4788 16.505 21.2795 16.7463C21.0801 16.9869 20.9299 17.2735 20.8347 17.5988C20.7394 17.9225 20.6902 18.2752 20.6902 18.6473C20.6902 19.0259 20.7402 19.3787 20.8395 19.6959C20.9396 20.0156 21.0994 20.2973 21.3158 20.5306C21.5313 20.7655 21.809 20.9495 22.1416 21.0779C22.4717 21.2054 22.8729 21.2716 23.3338 21.2708C24.2823 21.2676 24.782 21.0561 24.9878 20.9423C25.0241 20.9221 25.0588 20.8866 25.0153 20.7849L24.8013 20.1835C24.7682 20.0939 24.677 20.127 24.677 20.127C24.4421 20.2142 24.1088 20.3708 23.3282 20.3691C22.8196 20.3683 22.4418 20.2182 22.2053 19.9833C21.9624 19.7427 21.8437 19.3892 21.8227 18.8903L25.1073 18.8935C25.1073 18.8935 25.1937 18.8919 25.2025 18.808C25.2058 18.7725 25.3155 18.1331 25.1041 17.3929Z" fill="white"/>
<path d="M14.7402 20.2306C14.6118 20.1281 14.594 20.1023 14.5505 20.0361C14.4859 19.9352 14.4528 19.7915 14.4528 19.6091C14.4528 19.3201 14.548 19.1126 14.7458 18.973C14.7434 18.9738 15.0283 18.7268 15.6983 18.7357C16.1689 18.7421 16.5895 18.8115 16.5895 18.8115V20.3049H16.5903C16.5903 20.3049 16.173 20.3945 15.7032 20.4227C15.0348 20.4631 14.7377 20.2298 14.7402 20.2306ZM16.047 17.9228C15.9138 17.9131 15.7411 17.9075 15.5345 17.9075C15.2527 17.9075 14.9807 17.943 14.7256 18.0116C14.4689 18.0802 14.2381 18.1876 14.0395 18.3296C13.8401 18.4725 13.6795 18.6549 13.5632 18.8713C13.447 19.0876 13.3881 19.3427 13.3881 19.6284C13.3881 19.919 13.4381 20.1717 13.5382 20.3783C13.6383 20.5858 13.7828 20.7585 13.9668 20.8917C14.1493 21.0249 14.3745 21.1226 14.636 21.1815C14.8935 21.2405 15.1857 21.2703 15.5054 21.2703C15.842 21.2703 16.1778 21.2429 16.5031 21.1872C16.8252 21.1323 17.2207 21.0524 17.3305 21.0274C17.4395 21.0015 17.5606 20.9684 17.5606 20.9684C17.6421 20.9482 17.6356 20.8611 17.6356 20.8611L17.634 17.8574C17.634 17.1987 17.4581 16.7104 17.1118 16.4076C16.7671 16.1057 16.2593 15.9532 15.6031 15.9532C15.3569 15.9532 14.9605 15.9871 14.7232 16.0347C14.7232 16.0347 14.0056 16.1736 13.7101 16.4044C13.7101 16.4044 13.6456 16.4448 13.6811 16.5352L13.9136 17.16C13.9426 17.2407 14.0209 17.2132 14.0209 17.2132C14.0209 17.2132 14.0459 17.2036 14.075 17.1866C14.7071 16.8427 15.5062 16.8532 15.5062 16.8532C15.8614 16.8532 16.1342 16.9243 16.3183 17.0655C16.4975 17.2028 16.5887 17.4102 16.5887 17.8477V17.9866C16.3062 17.9462 16.047 17.9228 16.047 17.9228Z" fill="white"/>
<path fill-rule="evenodd" clip-rule="evenodd" d="M42.538 16.2302C42.563 16.156 42.5105 16.1205 42.4887 16.1124C42.433 16.0906 42.1537 16.0317 41.9382 16.0179C41.5257 15.9929 41.2965 16.0623 41.0914 16.1544C40.888 16.2464 40.662 16.3949 40.5361 16.5636V16.164C40.5361 16.1083 40.4965 16.064 40.4416 16.064H39.5997C39.5448 16.064 39.5052 16.1083 39.5052 16.164V21.0631C39.5052 21.1179 39.5505 21.1631 39.6053 21.1631H40.4683C40.5232 21.1631 40.5675 21.1179 40.5675 21.0631V18.6156C40.5675 18.287 40.6039 17.9593 40.6765 17.7535C40.7476 17.55 40.8444 17.387 40.9639 17.2699C41.0842 17.1537 41.2206 17.0722 41.3699 17.0262C41.5225 16.9793 41.6912 16.964 41.8107 16.964C41.9826 16.964 42.1715 17.0084 42.1715 17.0084C42.2345 17.0157 42.27 16.9769 42.291 16.9196C42.3475 16.7695 42.5073 16.3198 42.538 16.2302Z" fill="white"/>
<path fill-rule="evenodd" clip-rule="evenodd" d="M34.4385 13.9599C34.3336 13.9276 34.2383 13.9058 34.114 13.8824C33.9881 13.8598 33.838 13.8485 33.6676 13.8485C33.0735 13.8485 32.6053 14.0164 32.2768 14.3473C31.9499 14.6767 31.7279 15.178 31.6165 15.8375L31.5761 16.0594H30.8303C30.8303 16.0594 30.7399 16.0562 30.7205 16.1547L30.5986 16.8384C30.5897 16.903 30.618 16.9442 30.7051 16.9442H31.4308L30.6947 21.0545C30.6373 21.3855 30.5711 21.6575 30.4977 21.8642C30.4258 22.0676 30.3556 22.2201 30.2684 22.3315C30.1845 22.4381 30.1054 22.5172 29.9682 22.5632C29.8551 22.6011 29.7244 22.6189 29.5815 22.6189C29.5024 22.6189 29.3966 22.606 29.3183 22.5898C29.2409 22.5745 29.1997 22.5576 29.1408 22.5325C29.1408 22.5325 29.056 22.5002 29.0221 22.585C28.9955 22.6552 28.8017 23.1872 28.7783 23.2526C28.7557 23.318 28.788 23.3688 28.8292 23.3841C28.926 23.418 28.9979 23.4406 29.1295 23.4721C29.3119 23.5149 29.4661 23.5173 29.6106 23.5173C29.9125 23.5173 30.1885 23.4746 30.417 23.3922C30.6462 23.3091 30.8464 23.1646 31.024 22.9692C31.2153 22.7577 31.3356 22.5366 31.4502 22.2339C31.564 21.9352 31.6617 21.5639 31.7392 21.1312L32.4794 16.9442H33.5611C33.5611 16.9442 33.6523 16.9474 33.6709 16.8481L33.7936 16.1652C33.8016 16.0998 33.7742 16.0594 33.6862 16.0594H32.636C32.6417 16.036 32.6893 15.6663 32.8096 15.3184C32.8612 15.1707 32.9581 15.0504 33.0396 14.9681C33.1203 14.8874 33.2132 14.8301 33.3149 14.797C33.419 14.7631 33.5377 14.7469 33.6676 14.7469C33.7661 14.7469 33.8638 14.7582 33.9372 14.7735C34.039 14.7953 34.0785 14.8066 34.1051 14.8147C34.2125 14.847 34.227 14.8155 34.248 14.7639L34.4991 14.0745C34.5249 14.0002 34.4611 13.9688 34.4385 13.9599Z" fill="white"/>
<path fill-rule="evenodd" clip-rule="evenodd" d="M19.7641 21.0634C19.7641 21.1183 19.7246 21.1627 19.6697 21.1627H18.7987C18.7438 21.1627 18.7051 21.1183 18.7051 21.0634V14.0536C18.7051 13.9987 18.7438 13.9543 18.7987 13.9543H19.6697C19.7246 13.9543 19.7641 13.9987 19.7641 14.0536V21.0634Z" fill="white"/>
</svg>
