<svg xmlns="http://www.w3.org/2000/svg" width="54" height="54" viewBox="0 0 54 54" fill="none">
    <g clip-path="url(#clip0_1595_82876)">
        <path fill-rule="evenodd" clip-rule="evenodd" d="M15.1482 33.925C15.1482 30.8181 17.4975 28.3169 20.4157 28.3169C23.3339 28.3169 25.6832 30.8181 25.6832 33.925V47.7294C25.6832 50.8362 23.3339 53.3375 20.4157 53.3375C17.4975 53.3375 15.1482 50.8362 15.1482 47.7294V33.925Z" fill="#E01E5A" stroke="#E01E5A" stroke-width="0.790123" stroke-linecap="round" stroke-linejoin="round"/>
        <path fill-rule="evenodd" clip-rule="evenodd" d="M33.9249 38.8519C30.8181 38.8519 28.3169 36.5026 28.3169 33.5844C28.3169 30.6662 30.8181 28.3169 33.9249 28.3169H47.7294C50.8363 28.3169 53.3375 30.6662 53.3375 33.5844C53.3375 36.5026 50.8363 38.8519 47.7294 38.8519H33.9249Z" fill="#ECB22D" stroke="#ECB22D" stroke-width="0.790123" stroke-linecap="round" stroke-linejoin="round"/>
        <path fill-rule="evenodd" clip-rule="evenodd" d="M28.3169 6.27063C28.3169 3.1638 30.6662 0.662598 33.5844 0.662598C36.5026 0.662598 38.8519 3.1638 38.8519 6.27063V20.0751C38.8519 23.182 36.5026 25.6832 33.5844 25.6832C30.6662 25.6832 28.3169 23.182 28.3169 20.0751V6.27063Z" fill="#2FB67C" stroke="#2FB67C" stroke-width="0.790123" stroke-linecap="round" stroke-linejoin="round"/>
        <path fill-rule="evenodd" clip-rule="evenodd" d="M6.27063 25.6832C3.1638 25.6832 0.662598 23.3339 0.662598 20.4157C0.662598 17.4975 3.1638 15.1482 6.27063 15.1482H20.0751C23.182 15.1482 25.6832 17.4975 25.6832 20.4157C25.6832 23.3339 23.182 25.6832 20.0751 25.6832H6.27063Z" fill="#36C5F1" stroke="#36C5F1" stroke-width="0.790123" stroke-linecap="round" stroke-linejoin="round"/>
        <path fill-rule="evenodd" clip-rule="evenodd" d="M28.3169 48.07C28.3154 48.7621 28.4507 49.4478 28.7149 50.0875C28.9791 50.7273 29.367 51.3085 29.8564 51.798C30.3459 52.2874 30.9271 52.6753 31.5669 52.9395C32.2066 53.2037 32.8922 53.339 33.5844 53.3375C36.5026 53.3375 38.8519 50.9882 38.8519 48.07C38.8534 47.3778 38.7181 46.6922 38.4539 46.0525C38.1897 45.4127 37.8018 44.8314 37.3124 44.342C36.8229 43.8526 36.2417 43.4647 35.6019 43.2005C34.9622 42.9363 34.2765 42.801 33.5844 42.8025H28.3169V48.07Z" fill="#ECB22D" stroke="#ECB22D" stroke-width="0.790123" stroke-linecap="round"/>
        <path fill-rule="evenodd" clip-rule="evenodd" d="M48.07 25.6832H42.8025V20.4157C42.8025 17.4975 45.1518 15.1482 48.07 15.1482C50.9882 15.1482 53.3375 17.4975 53.3375 20.4157C53.3375 23.3339 50.9882 25.6832 48.07 25.6832Z" fill="#2FB67C" stroke="#2FB67C" stroke-width="0.790123" stroke-linecap="round"/>
        <path fill-rule="evenodd" clip-rule="evenodd" d="M5.9301 28.3169H11.1976V33.5844C11.1976 36.5026 8.84829 38.8519 5.9301 38.8519C5.23795 38.8533 4.55232 38.7181 3.91257 38.4539C3.27283 38.1897 2.69156 37.8018 2.20213 37.3123C1.71271 36.8229 1.32476 36.2417 1.06057 35.6019C0.796375 34.9622 0.661134 34.2765 0.66261 33.5844C0.66261 30.6662 3.01191 28.3169 5.9301 28.3169Z" fill="#E01E5A" stroke="#E01E5A" stroke-width="0.790123" stroke-linecap="round"/>
        <path fill-rule="evenodd" clip-rule="evenodd" d="M25.6832 5.9301V11.1976H20.4157C19.7235 11.1991 19.0379 11.0638 18.3982 10.7996C17.7584 10.5354 17.1772 10.1475 16.6877 9.65807C16.1983 9.16864 15.8104 8.58737 15.5462 7.94762C15.282 7.30788 15.1467 6.62225 15.1482 5.9301C15.1482 3.01191 17.4975 0.66261 20.4157 0.66261C21.1078 0.661134 21.7935 0.796375 22.4332 1.06057C23.073 1.32476 23.6542 1.71271 24.1437 2.20213C24.6331 2.69156 25.021 3.27283 25.2852 3.91257C25.5494 4.55232 25.6847 5.23795 25.6832 5.9301Z" fill="#36C5F1" stroke="#36C5F1" stroke-width="0.790123" stroke-linecap="round"/>
    </g>
    <defs>
        <clipPath id="clip0_1595_82876">
            <rect width="53.3333" height="53.3333" fill="white" transform="translate(0.333374 0.333374)"/>
        </clipPath>
    </defs>
</svg>