<svg xmlns="http://www.w3.org/2000/svg" width="54" height="55" viewBox="0 0 54 55" fill="none">
    <g clip-path="url(#clip0_1595_82955)">
        <path d="M42.2121 13.5303L47.4848 48.2575L12.0909 53.8333L6.39392 18.9848L42.2121 13.5303Z" fill="url(#paint0_linear_1595_82955)"/>
        <path d="M6.39392 18.9849L8.87877 6.56062L44.6363 0.863647L42.2121 13.5303L6.39392 18.9849Z" fill="#EF463E"/>
        <path d="M44.6364 0.863647L49.9091 35.9546L47.4849 48.2576L42.2122 13.5303L44.6364 0.863647Z" fill="#760D16"/>
        <path d="M38.394 42.7424C38.091 42.3788 37.7273 42.1363 37.3031 42.0151C36.7576 41.8333 36.1516 41.7727 35.6061 41.7727C34.8788 41.7727 34.1516 41.8333 33.4243 41.9545L24.091 43.5303C24.2728 42.5606 24.6364 41.5909 25.1819 40.6818C26.091 39.0454 27.1213 37.5303 28.2728 36.0151L29.3637 34.5606C29.5455 34.3182 29.7879 34.0151 30.091 33.5909C32.2122 30.803 33.5455 28.5 34.0304 26.6818C34.3334 25.6515 34.5152 24.6212 34.5758 23.5909C34.5758 23.2879 34.5758 23.0454 34.5758 22.7424C34.5758 22.0151 34.5152 21.2879 34.394 20.5606C34.3334 20.0151 34.1516 19.4697 33.9092 18.9242C33.7273 18.5 33.4243 18.1969 33.0607 17.9545C32.5758 17.7121 32.0304 17.5909 31.4243 17.6515C30.697 17.6515 30.0304 17.7121 29.3637 17.8333L18.5758 19.6515C17.5455 19.7727 16.5152 20.1969 15.6667 20.8636C15.1819 21.2879 14.9395 21.9545 14.9395 22.6212C14.9395 22.803 14.9395 22.9848 15.0001 23.1666C15.1213 24.0151 15.6061 24.7424 16.394 25.106C16.9395 25.3485 17.4849 25.4091 18.0304 25.4091C18.5152 25.4091 19.0001 25.3485 19.4849 25.2879L28.5152 23.7727C28.5152 23.9545 28.5152 24.0757 28.5152 24.2576C28.5152 24.803 28.394 25.4091 28.2122 25.8939C27.7273 27.0454 27.0001 28.1363 26.2122 29.0454C25.9092 29.4091 25.4243 30.0151 24.8182 30.803C22.8182 33.106 21.0607 35.6515 19.6061 38.3788C18.8788 39.7121 18.394 41.1666 18.0304 42.6212C17.8485 43.4091 17.7879 44.1969 17.7879 44.9848C17.7879 45.5303 17.8485 46.0151 17.9698 46.5606C18.0304 47.1666 18.2728 47.8333 18.5152 48.3788C18.697 48.803 19.0607 49.1666 19.4243 49.4091C19.9092 49.5909 20.4546 49.7121 21.0001 49.6515C22.2122 49.5909 23.4849 49.4697 24.697 49.2272L34.4546 47.5303C36.2122 47.2272 37.4243 46.803 38.091 46.2575C38.6364 45.8333 38.9395 45.1666 38.9395 44.4394C38.9395 44.2575 38.9395 44.0151 38.8788 43.8333C38.8788 43.5303 38.697 43.106 38.394 42.7424Z" fill="white"/>
    </g>
    <defs>
        <linearGradient id="paint0_linear_1595_82955" x1="24.3674" y1="16.8034" x2="30.0402" y2="51.07" gradientUnits="userSpaceOnUse">
            <stop stop-color="#D92231"/>
            <stop offset="1" stop-color="#BA2234"/>
        </linearGradient>
        <clipPath id="clip0_1595_82955">
            <rect width="53.3333" height="53.9394" fill="white" transform="translate(0.333374 0.5)"/>
        </clipPath>
    </defs>
</svg>