<svg xmlns:xlink="http://www.w3.org/1999/xlink" xmlns="http://www.w3.org/2000/svg" viewBox="0 0 256 256" focusable="false" color="var(--token-c8809533-d74e-4474-af14-ef3a211efd13, rgb(20, 20, 20))" style="user-select: none; width: 100%; height: 100%; display: inline-block; fill: var(--token-c8809533-d74e-4474-af14-ef3a211efd13, rgb(20, 20, 20)); color: var(--token-c8809533-d74e-4474-af14-ef3a211efd13, rgb(20, 20, 20)); flex-shrink: 0;" width="256" height="256"><g color="var(--token-c8809533-d74e-4474-af14-ef3a211efd13, rgb(20, 20, 20))" weight="fill" fill="#211F1A"><path d="M232,208a8,8,0,0,1-8,8H32a8,8,0,0,1,0-16h8V136a8,8,0,0,1,8-8H72a8,8,0,0,1,8,8v64H96V88a8,8,0,0,1,8-8h32a8,8,0,0,1,8,8V200h16V40a8,8,0,0,1,8-8h40a8,8,0,0,1,8,8V200h8A8,8,0,0,1,232,208Z" fill="#211F1A"></path></g></svg>